<?xml version="1.0" encoding="utf-8"?>
<!-- Generator: Adobe Illustrator 15.1.0, SVG Export Plug-In . SVG Version: 6.00 Build 0)  -->
<!DOCTYPE svg PUBLIC "-//W3C//DTD SVG 1.1//EN" "http://www.w3.org/Graphics/SVG/1.1/DTD/svg11.dtd">
<svg version="1.1" id="Layer_1" xmlns="http://www.w3.org/2000/svg" xmlns:xlink="http://www.w3.org/1999/xlink" x="0px" y="0px"
	 width="187px" height="38px" viewBox="0 0 187 38" enable-background="new 0 0 187 38" xml:space="preserve">
<path d="M146.829,22.04c0,1.119-0.975,1.745-2.662,1.745h-4.295v-3.52h4.236c1.863,0,2.721,0.683,2.721,1.72V22.04z
	 M139.872,13.204h3.607c1.66,0,2.52,0.6,2.52,1.636v0.056c0,1.117-0.945,1.662-2.635,1.662h-3.492V13.204z M148.403,18.057
	c1.775-0.735,3.092-2.044,3.092-4.253v-0.055c0-1.309-0.486-2.317-1.289-3.08c-1.172-1.119-2.947-1.723-5.467-1.723h-9.283
	c-0.484,0-1.002,0.404-1.002,0.998v17.107c0,0.506,0.473,0.992,1.002,0.992h9.342c4.779,0,7.584-1.996,7.584-5.268v-0.055
	C152.382,20.129,150.837,18.82,148.403,18.057 M49.163,28.04c0.553,0,1.004-0.449,1.004-1.003V24.54
	c0-0.554-0.451-1.004-1.004-1.004l-9.611,0.004v-3.029h8.684c0.516,0,0.93-0.414,0.93-0.928v-2.314c0-0.515-0.414-0.932-0.93-0.932
	l-8.684,0.002v-2.89l9.613,0.003c0.551,0,1.002-0.447,1.002-1.002V9.953c0-0.554-0.451-1.003-1.004-1.003L35.267,8.948
	c-0.674,0-1.219,0.545-1.219,1.219l0.01,16.652c0,0.672,0.545,1.217,1.217,1.217L49.163,28.04z M74.657,30.997l-8.986-12.544
	l5.74-8.002c0.098-0.157,0.135-0.313,0.135-0.493c0-0.516-0.426-1.002-1-1.002c-0.037,0-3.666-0.004-3.717-0.004
	c-0.332,0-0.629,0.184-0.879,0.531l-3.359,4.68l-3.35-4.672c-0.234-0.322-0.521-0.535-0.881-0.535c-0.037,0-3.684-0.001-3.725-0.001
	c-0.545,0-1.006,0.491-1.002,1.001c0.002,0.301,0.139,0.495,0.293,0.709l5.588,7.788l-5.803,8.094
	c-0.094,0.132-0.131,0.306-0.131,0.483c0,0.523,0.451,1.001,1.002,1.001c0.027,0,3.678,0.001,3.711,0.001
	c0.291,0,0.607-0.17,0.771-0.369l3.525-4.918l6.771,9.45c0.158,0.187,0.443,0.324,0.734,0.324c0.029,0,3.678,0.002,3.713,0.002
	c0.584,0,1-0.482,1-1.001C74.81,31.327,74.753,31.149,74.657,30.997 M90.685,8.948L75.181,8.946c-0.572,0-1.033,0.463-1.033,1.033
	v2.566c0,0.569,0.461,1.035,1.033,1.035h4.975l-0.004,13.225c0,0.68,0.551,1.238,1.23,1.238h3.102c0.68,0,1.23-0.559,1.23-1.238
	L85.71,13.581h4.975c0.568,0,1.031-0.466,1.031-1.035V9.979C91.716,9.409,91.253,8.948,90.685,8.948 M118.013,20.511l2.262-5.426
	l2.234,5.426H118.013z M130.983,26.728L123.28,9.374c-0.158-0.319-0.475-0.56-0.854-0.56h-4.107c-0.289,0-0.732,0.188-0.852,0.48
	l-7.635,17.2c-0.113,0.234-0.166,0.433-0.166,0.551c0,0.525,0.459,0.998,1.002,0.998h3.666c0.52,0,0.777-0.354,0.967-0.756
	l1.117-2.657h7.73l1.24,2.898c0.131,0.294,0.488,0.515,0.873,0.515h3.775c0.523,0,1-0.477,1-0.997
	C131.038,26.935,131.024,26.833,130.983,26.728 M164.972,16.148c-2.779-0.601-3.465-0.981-3.465-1.854V14.24
	c0-0.682,0.656-1.228,2.004-1.228c1.508,0,3.176,0.49,4.775,1.371c0.631,0.346,1.041,0.188,1.359-0.193l1.695-2.283
	c0.307-0.492,0.158-1.048-0.471-1.449c-1.977-1.205-4.328-1.835-7.217-1.835c-4.809,0-7.758,2.563-7.758,6.106v0.055
	c0,3.928,3.291,5.072,7.557,6c2.721,0.602,3.379,1.038,3.379,1.829v0.055c0,0.817-0.801,1.308-2.291,1.308
	c-2.012,0-3.938-0.596-5.701-1.732c-0.061-0.039-0.121-0.08-0.182-0.121c-0.137-0.07-0.291-0.114-0.455-0.114
	c-0.266,0-0.504,0.104-0.684,0.272c0,0-1.912,2.16-1.961,2.232c-0.104,0.157-0.166,0.346-0.166,0.548
	c0,0.309,0.143,0.58,0.361,0.764c0.043,0.03,0.082,0.062,0.125,0.091c2.352,1.627,5.34,2.451,8.461,2.451
	c4.867,0,8.102-2.318,8.102-6.217v-0.055C172.44,18.521,169.579,17.103,164.972,16.148 M28.206,8.95h-3.064
	c-0.674,0-1.219,0.544-1.219,1.217l-0.008,8.871L16.06,9.429c-0.197-0.252-0.406-0.479-0.854-0.479H11.7
	c-0.672,0-1.217,0.547-1.217,1.221v16.652c0,0.672,0.545,1.219,1.217,1.219h3.068c0.672,0,1.219-0.547,1.219-1.219l-0.004-9.257
	l8.336,10.197c0.156,0.152,0.42,0.278,0.699,0.278h3.174c0.672,0,1.219-0.549,1.219-1.221l0.012-16.654
	C29.423,9.495,28.878,8.95,28.206,8.95 M95.05,26.819c0,0.672,0.545,1.225,1.217,1.225h9.799c0.568,0,1.033-0.464,1.033-1.034V24.44
	c0-0.57-0.465-1.033-1.035-1.033l-5.457-0.004l-0.002-13.215c0-0.68-0.553-1.23-1.23-1.23h-3.096c-0.68,0-1.229,0.551-1.229,1.23
	V26.819z M175.472,5.288c0.445,0,0.881,0.113,1.307,0.342c0.424,0.229,0.754,0.557,0.992,0.982c0.236,0.426,0.354,0.869,0.354,1.332
	c0,0.457-0.115,0.896-0.348,1.32c-0.234,0.422-0.563,0.75-0.982,0.982c-0.422,0.234-0.861,0.351-1.322,0.351
	c-0.459,0-0.9-0.116-1.322-0.351c-0.42-0.232-0.748-0.561-0.982-0.982c-0.234-0.424-0.352-0.863-0.352-1.32
	c0-0.463,0.117-0.906,0.355-1.332s0.57-0.753,0.996-0.982C174.591,5.401,175.026,5.288,175.472,5.288z M175.472,5.724
	c-0.373,0-0.738,0.095-1.092,0.287c-0.354,0.191-0.631,0.465-0.83,0.821s-0.299,0.727-0.299,1.112c0,0.383,0.096,0.75,0.295,1.102
	c0.193,0.352,0.469,0.625,0.822,0.821c0.352,0.196,0.721,0.294,1.104,0.294s0.75-0.098,1.104-0.294
	c0.352-0.196,0.627-0.47,0.82-0.821c0.195-0.352,0.293-0.719,0.293-1.102c0-0.386-0.1-0.756-0.297-1.112
	c-0.199-0.356-0.477-0.63-0.83-0.821C176.206,5.818,175.843,5.724,175.472,5.724z M174.304,9.417V6.552h0.982
	c0.336,0,0.58,0.026,0.73,0.078c0.15,0.053,0.27,0.145,0.359,0.275c0.088,0.131,0.133,0.27,0.133,0.418
	c0,0.207-0.074,0.389-0.221,0.542c-0.148,0.154-0.344,0.241-0.588,0.26c0.1,0.043,0.18,0.094,0.24,0.153
	c0.115,0.114,0.254,0.305,0.42,0.573l0.346,0.565h-0.559l-0.254-0.455c-0.201-0.356-0.361-0.58-0.479-0.672
	c-0.084-0.067-0.205-0.099-0.365-0.095h-0.268v1.222H174.304z M174.782,7.802h0.557c0.268,0,0.449-0.039,0.547-0.119
	c0.096-0.078,0.146-0.184,0.146-0.314c0-0.084-0.023-0.159-0.07-0.227c-0.047-0.065-0.113-0.115-0.195-0.148
	c-0.084-0.031-0.236-0.049-0.461-0.049h-0.523V7.802z"/>
</svg>
