<?xml version="1.0" encoding="utf-8"?>
<!-- Generator: Adobe Illustrator 15.1.0, SVG Export Plug-In . SVG Version: 6.00 Build 0)  -->
<!DOCTYPE svg PUBLIC "-//W3C//DTD SVG 1.1//EN" "http://www.w3.org/Graphics/SVG/1.1/DTD/svg11.dtd">
<svg version="1.1" id="Layer_1" xmlns="http://www.w3.org/2000/svg" xmlns:xlink="http://www.w3.org/1999/xlink" x="0px" y="0px"
	 width="20px" height="20px" viewBox="0 0 20 20" enable-background="new 0 0 20 20" xml:space="preserve">
<g>
	<path d="M20,3.938v7.608c0,2.041-1.668,3.709-3.709,3.709H5.71c-2.039,0.001-3.709-1.667-3.709-3.708V3.938"/>
</g>
<path fill="#FFFFFF" d="M14.845,9.056c0-0.088-0.041-0.169-0.101-0.239l-3.51-3.512c-0.061-0.063-0.154-0.09-0.231-0.09
	c-0.093,0-0.171,0.028-0.233,0.09L7.245,8.827c-0.061,0.06-0.09,0.15-0.09,0.23c0,0.169,0.139,0.319,0.321,0.319h2.242v3.922
	c0,0.175,0.151,0.322,0.322,0.322h1.924c0.171,0,0.319-0.147,0.319-0.322V9.377h2.237C14.701,9.377,14.845,9.238,14.845,9.056z"/>
</svg>
