<?xml version="1.0" encoding="utf-8"?>
<!-- Generator: Adobe Illustrator 15.1.0, SVG Export Plug-In . SVG Version: 6.00 Build 0)  -->
<!DOCTYPE svg PUBLIC "-//W3C//DTD SVG 1.1//EN" "http://www.w3.org/Graphics/SVG/1.1/DTD/svg11.dtd">
<svg version="1.1" id="Layer_1" xmlns="http://www.w3.org/2000/svg" xmlns:xlink="http://www.w3.org/1999/xlink" x="0px" y="0px"
	 width="32px" height="32px" viewBox="0 0 32 32" style="enable-background:new 0 0 32 32;" xml:space="preserve">
<style type="text/css">
<![CDATA[
	.st0{fill:none;stroke:#000000;stroke-width:1.5;stroke-miterlimit:10;}
]]>
</style>
<path class="st0" d="M22.116,16.301c0-0.139-0.06-0.26-0.154-0.367l-5.372-5.371c-0.091-0.094-0.229-0.139-0.351-0.139
	c-0.14,0-0.261,0.045-0.354,0.139l-5.388,5.389c-0.092,0.092-0.137,0.229-0.137,0.353c0,0.258,0.213,0.488,0.489,0.488h3.427v8.224
	c0,0.26,0.229,0.489,0.489,0.489h2.939c0.262,0,0.49-0.229,0.49-0.489v-8.224h3.428C21.898,16.792,22.115,16.581,22.116,16.301z"/>
<g>
	<path class="st0" d="M29.994,12.379v11.625c0,3.118-2.551,5.67-5.669,5.67H8.151c-3.118,0-5.67-2.552-5.67-5.67V12.379"/>
</g>
</svg>
