<?xml version="1.0" encoding="utf-8"?>
<!-- Generator: Adobe Illustrator 15.1.0, SVG Export Plug-In . SVG Version: 6.00 Build 0)  -->
<!DOCTYPE svg PUBLIC "-//W3C//DTD SVG 1.1//EN" "http://www.w3.org/Graphics/SVG/1.1/DTD/svg11.dtd">
<svg version="1.1" id="Layer_1" xmlns="http://www.w3.org/2000/svg" xmlns:xlink="http://www.w3.org/1999/xlink" x="0px" y="0px"
	 width="32px" height="32px" viewBox="0 0 32 32" enable-background="new 0 0 32 32" xml:space="preserve">
<path d="M9.312,26.174v1.383h19.397V12.038h-6.305c-0.803,0-1.455-0.652-1.455-1.455V4.277H9.312v1.682L7.371,5.993v-2.2
	c0-0.804,0.653-1.456,1.457-1.456h13.579c0.804,0,1.924,0.47,2.485,1.031l4.729,4.729c0.563,0.56,1.031,1.683,1.031,2.485v17.459
	c0,0.803-0.652,1.455-1.457,1.455H8.827c-0.804,0-1.457-0.652-1.457-1.455v-1.867H9.312z M20.564,13.977h4.914
	c0.271,0,0.479,0.213,0.479,0.485v0.971c0,0.272-0.211,0.485-0.479,0.485h-4.914c-0.271,0-0.484-0.213-0.484-0.485v-0.971
	C20.08,14.19,20.293,13.977,20.564,13.977z M25.962,18.341v0.972c0,0.273-0.211,0.484-0.481,0.484h-6.353
	c-0.274,0-0.487-0.211-0.487-0.484v-0.972c0-0.271,0.213-0.483,0.487-0.483h6.353C25.751,17.857,25.962,18.068,25.962,18.341z
	 M25.962,22.223v0.969c0,0.273-0.211,0.488-0.481,0.488h-8.363c-0.273,0-0.485-0.215-0.485-0.488v-0.969
	c0-0.271,0.211-0.481,0.485-0.481h8.363C25.751,21.736,25.962,21.949,25.962,22.223z M22.891,10.098h5.697
	c-0.09-0.258-0.229-0.516-0.334-0.621L23.51,4.732C23.404,4.627,23.146,4.49,22.891,4.4V10.098z"/>
<g>
	<path d="M10.105,24.648H7.768c-0.568,0-1.062-0.433-1.124-0.986l-0.222-1.463c-0.063-0.023-0.124-0.049-0.184-0.075l-1.121,0.853
		c-0.359,0.312-1.095,0.331-1.513-0.087l-0.093-0.083c-0.563-0.509-1.263-1.143-1.72-1.777c-0.143-0.2-0.217-0.434-0.217-0.68
		c0-0.248,0.079-0.479,0.233-0.688c0.168-0.228,0.344-0.451,0.521-0.677c0.104-0.133,0.208-0.266,0.312-0.399
		c-0.042-0.096-0.083-0.19-0.119-0.285l-1.475-0.219C0.505,17.999,0.1,17.518,0.1,16.963V14.63c0-0.546,0.402-1.038,0.916-1.12
		l1.522-0.23c0.029-0.073,0.061-0.146,0.093-0.219c-0.27-0.359-0.55-0.706-0.836-1.055c-0.167-0.187-0.271-0.455-0.271-0.73
		c0-0.354,0.177-0.598,0.235-0.678c0.015-0.021,1.713-2.193,2.64-2.193c0.246,0,0.493,0.085,0.714,0.246l1.106,0.86
		C6.275,9.485,6.332,9.461,6.39,9.438c0.062-0.53,0.132-1.073,0.275-1.606c0.12-0.494,0.575-0.85,1.104-0.85h2.336
		c0.575,0,1.058,0.421,1.123,0.98l0.224,1.466c0.063,0.024,0.125,0.05,0.186,0.077l1.102-0.833c0.383-0.337,1.042-0.357,1.479,0.01
		l0.208,0.191c0.542,0.499,1.215,1.12,1.657,1.741c0.12,0.131,0.212,0.387,0.212,0.662c0,0.245-0.072,0.465-0.219,0.675
		c-0.18,0.245-0.356,0.468-0.532,0.693c-0.104,0.133-0.209,0.267-0.313,0.403c0.041,0.091,0.08,0.183,0.116,0.274l1.479,0.226
		c0.547,0.1,0.942,0.581,0.942,1.123v2.334c0,0.529-0.397,1.02-0.904,1.115l-1.536,0.232c-0.029,0.072-0.058,0.143-0.088,0.21
		c0.279,0.375,0.569,0.729,0.833,1.049c0.177,0.208,0.278,0.474,0.278,0.74c0,0.271-0.09,0.509-0.275,0.728l0,0
		c0.001,0-1.698,2.147-2.602,2.147c-0.227,0-0.445-0.067-0.669-0.206l-1.153-0.897c-0.056,0.024-0.113,0.048-0.17,0.07
		c-0.061,0.528-0.132,1.067-0.273,1.599C11.087,24.289,10.632,24.648,10.105,24.648z M8.083,23.148h1.737
		c0.096-0.446,0.148-0.918,0.199-1.376l0.08-0.701l0.468-0.145c0.279-0.087,0.559-0.204,0.832-0.347l0.429-0.226l1.63,1.275
		c0.351-0.286,0.957-0.911,1.28-1.284c-0.32-0.391-0.662-0.817-0.985-1.285l-0.263-0.382l0.223-0.406
		c0.126-0.23,0.236-0.489,0.356-0.84l0.147-0.432l2.053-0.31v-1.713l-2.059-0.313l-0.138-0.452c-0.09-0.294-0.217-0.595-0.377-0.894
		l-0.222-0.414l0.275-0.38c0.2-0.277,0.409-0.543,0.617-0.809c0.114-0.146,0.228-0.291,0.34-0.438
		c-0.372-0.45-0.849-0.893-1.253-1.266l-1.656,1.252l-0.423-0.225c-0.253-0.135-0.522-0.247-0.821-0.341l-0.445-0.141L9.79,8.482
		H8.051C7.961,8.904,7.91,9.349,7.86,9.781l-0.092,0.772L7.308,10.7c-0.276,0.088-0.565,0.209-0.836,0.352l-0.428,0.225
		l-1.636-1.273c-0.353,0.287-0.957,0.909-1.272,1.275c0.346,0.425,0.67,0.836,0.979,1.271l0.267,0.375l-0.214,0.407
		c-0.159,0.304-0.273,0.573-0.36,0.848l-0.14,0.447L1.6,14.939v1.708l2.066,0.308l0.135,0.46c0.085,0.292,0.212,0.595,0.375,0.899
		l0.222,0.414l-0.275,0.38c-0.199,0.274-0.407,0.54-0.615,0.804c-0.116,0.147-0.231,0.294-0.344,0.441
		c0.347,0.423,0.841,0.876,1.267,1.262l1.641-1.249l0.423,0.222c0.248,0.13,0.519,0.241,0.829,0.34l0.444,0.142L8.083,23.148z
		 M8.936,19.258c-1.899,0-3.445-1.544-3.445-3.442c0-1.902,1.545-3.449,3.445-3.449s3.445,1.547,3.445,3.449
		C12.381,17.714,10.835,19.258,8.936,19.258z M8.936,13.867c-1.072,0-1.945,0.874-1.945,1.949c0,1.071,0.873,1.942,1.945,1.942
		s1.945-0.871,1.945-1.942C10.881,14.741,10.008,13.867,8.936,13.867z"/>
</g>
</svg>
