<?xml version="1.0" encoding="utf-8"?>
<!-- Generator: Adobe Illustrator 15.1.0, SVG Export Plug-In . SVG Version: 6.00 Build 0)  -->
<!DOCTYPE svg PUBLIC "-//W3C//DTD SVG 1.1//EN" "http://www.w3.org/Graphics/SVG/1.1/DTD/svg11.dtd">
<svg version="1.1" id="Layer_1" xmlns="http://www.w3.org/2000/svg" xmlns:xlink="http://www.w3.org/1999/xlink" x="0px" y="0px"
	 width="32px" height="32px" viewBox="0 0 32 32" enable-background="new 0 0 32 32" xml:space="preserve">
<path d="M28.404,13.589c-0.737-0.367-1.473-1.102-1.84-1.837c-0.368-0.735-0.368-1.838,0-2.574c1.103-1.838,1.103-1.838,1.103-1.838
	c-2.944-2.939-2.944-2.939-2.944-2.939c-2.209,1.102-2.209,1.102-2.209,1.102c-0.736,0.368-1.473,0.368-2.209,0
	c-1.104-0.368-1.472-1.102-1.841-1.838C17.729,1.46,17.729,1.46,17.729,1.46c-4.05,0-4.05,0-4.05,0
	c-0.737,2.205-0.737,2.205-0.737,2.205c-0.368,0.736-0.735,1.47-1.84,1.838c-0.737,0.368-1.473,0.368-2.21,0
	C6.684,4.401,6.684,4.401,6.684,4.401C3.738,7.34,3.738,7.34,3.738,7.34c1.104,1.838,1.104,1.838,1.104,1.838
	c0.368,0.736,0.368,1.838,0,2.574c-0.368,0.735-0.736,1.47-1.841,1.837c-1.841,0.736-1.841,0.736-1.841,0.736
	c0,3.675,0,3.675,0,3.675c1.841,0.734,1.841,0.734,1.841,0.734c1.104,0.369,1.473,1.104,1.841,1.838
	c0.368,0.735,0.368,1.838,0,2.573c-1.104,1.838-1.104,1.838-1.104,1.838c2.945,2.941,2.945,2.941,2.945,2.941
	c2.208-1.104,2.208-1.104,2.208-1.104c0.737-0.366,1.473-0.366,2.21,0c1.104,0.368,1.472,1.104,1.84,1.839
	c0.737,2.205,0.737,2.205,0.737,2.205c4.05,0,4.05,0,4.05,0c0.735-2.205,0.735-2.205,0.735-2.205
	c0.369-0.735,0.736-1.471,1.841-1.839c0.736-0.366,1.473-0.366,2.209,0c2.209,1.104,2.209,1.104,2.209,1.104
	c2.944-2.941,2.944-2.941,2.944-2.941c-1.103-1.838-1.103-1.838-1.103-1.838c-0.368-0.735-0.368-1.838,0-2.573
	c0.367-0.733,1.103-1.469,1.84-1.838L30.613,18c0-3.675,0-3.675,0-3.675C28.404,13.589,28.404,13.589,28.404,13.589z M15.887,21.976
	c-3.21,0-5.813-2.602-5.813-5.813c0-3.21,2.603-5.813,5.813-5.813c3.211,0,5.813,2.602,5.813,5.813
	C21.699,19.374,19.098,21.976,15.887,21.976z"/>
</svg>
