<?xml version="1.0" encoding="utf-8"?>
<!-- Generator: Adobe Illustrator 15.1.0, SVG Export Plug-In . SVG Version: 6.00 Build 0)  -->
<!DOCTYPE svg PUBLIC "-//W3C//DTD SVG 1.1//EN" "http://www.w3.org/Graphics/SVG/1.1/DTD/svg11.dtd">
<svg version="1.1" id="Layer_1" xmlns="http://www.w3.org/2000/svg" xmlns:xlink="http://www.w3.org/1999/xlink" x="0px" y="0px"
	 width="20px" height="20px" viewBox="0 0 20 20" enable-background="new 0 0 20 20" xml:space="preserve">
<path d="M5.836,16.193v0.836h11.716V7.654H13.74c-0.484,0-0.883-0.395-0.883-0.88V2.967H5.835v1.016L4.662,4.006V2.674
	c0-0.484,0.396-0.879,0.881-0.879h8.197c0.484,0,1.162,0.284,1.502,0.624l2.855,2.857c0.342,0.34,0.623,1.016,0.623,1.502v10.545
	c0,0.485-0.396,0.882-0.879,0.882H5.541c-0.487,0-0.882-0.396-0.882-0.882v-1.128h1.177V16.193z"/>
<path d="M12.628,8.829H15.6c0.164,0,0.293,0.131,0.293,0.294v0.588c0,0.165-0.129,0.294-0.293,0.294h-2.972
	c-0.163,0-0.294-0.13-0.294-0.294V9.122C12.335,8.959,12.465,8.829,12.628,8.829z"/>
<path d="M15.893,11.462v0.588c0,0.166-0.129,0.293-0.293,0.293h-3.838c-0.164,0-0.293-0.127-0.293-0.293v-0.588
	c0-0.163,0.129-0.292,0.293-0.292H15.6C15.764,11.17,15.893,11.299,15.893,11.462z"/>
<path d="M15.893,13.809v0.586c0,0.166-0.129,0.295-0.293,0.295h-5.049c-0.165,0-0.295-0.133-0.295-0.295v-0.586
	c0-0.166,0.129-0.293,0.295-0.293H15.6C15.764,13.516,15.893,13.643,15.893,13.809z"/>
<path d="M14.033,6.486h3.441c-0.055-0.155-0.137-0.311-0.201-0.376l-2.866-2.867c-0.063-0.065-0.22-0.145-0.374-0.2V6.486z"/>
<path d="M10.488,10.656c0,0.095-0.077,0.207-0.175,0.227l-1.177,0.176c-0.071,0.207-0.145,0.396-0.246,0.582
	c0.215,0.312,0.445,0.594,0.678,0.877c0.039,0.045,0.066,0.104,0.066,0.16s-0.021,0.102-0.061,0.146
	c-0.148,0.201-1.008,1.139-1.225,1.139c-0.058,0-0.113-0.027-0.166-0.059l-0.879-0.687c-0.183,0.097-0.38,0.181-0.578,0.242
	c-0.043,0.388-0.081,0.802-0.184,1.181c-0.026,0.104-0.114,0.186-0.229,0.186H4.901c-0.116,0-0.218-0.086-0.23-0.193l-0.176-1.171
	c-0.198-0.063-0.39-0.136-0.574-0.233l-0.895,0.676c-0.045,0.041-0.103,0.061-0.161,0.061c-0.058,0-0.114-0.025-0.158-0.066
	c-0.338-0.308-0.781-0.701-1.048-1.07c-0.034-0.045-0.047-0.096-0.047-0.146c0-0.06,0.021-0.103,0.052-0.146
	c0.215-0.295,0.451-0.571,0.67-0.872c-0.108-0.203-0.2-0.414-0.264-0.631l-1.163-0.172c-0.108-0.02-0.185-0.121-0.185-0.229V9.224
	c0-0.097,0.077-0.213,0.17-0.23l1.183-0.179C2.14,8.61,2.221,8.421,2.324,8.228C2.106,7.924,1.877,7.641,1.641,7.35
	c-0.036-0.041-0.06-0.094-0.06-0.153c0-0.056,0.024-0.101,0.055-0.144c0.153-0.211,1.01-1.138,1.229-1.138
	c0.056,0,0.113,0.025,0.164,0.063L3.906,6.66c0.185-0.097,0.383-0.183,0.578-0.242C4.529,6.03,4.566,5.616,4.67,5.235
	c0.024-0.101,0.113-0.178,0.228-0.178H6.31c0.115,0,0.217,0.081,0.229,0.189l0.179,1.17C6.915,6.479,7.105,6.555,7.29,6.655
	l0.904-0.683c0.037-0.037,0.095-0.056,0.154-0.056c0.057,0,0.114,0.027,0.158,0.062c0.338,0.313,0.781,0.706,1.048,1.083
	c0.031,0.035,0.044,0.088,0.044,0.136c0,0.06-0.021,0.104-0.05,0.147C9.331,7.641,9.096,7.917,8.88,8.218
	c0.108,0.203,0.198,0.414,0.261,0.621l1.163,0.178c0.106,0.021,0.185,0.124,0.185,0.231L10.488,10.656L10.488,10.656z M5.607,8.309
	c-0.895,0-1.628,0.732-1.628,1.632c0,0.895,0.731,1.625,1.628,1.625c0.898,0,1.631-0.729,1.631-1.625
	C7.236,9.042,6.503,8.309,5.607,8.309z"/>
</svg>
