<?xml version="1.0" encoding="utf-8"?>
<!-- Generator: Adobe Illustrator 15.1.0, SVG Export Plug-In . SVG Version: 6.00 Build 0)  -->
<!DOCTYPE svg PUBLIC "-//W3C//DTD SVG 1.1//EN" "http://www.w3.org/Graphics/SVG/1.1/DTD/svg11.dtd">
<svg version="1.1" id="Layer_1" xmlns="http://www.w3.org/2000/svg" xmlns:xlink="http://www.w3.org/1999/xlink" x="0px" y="0px"
	 width="24px" height="24px" viewBox="0 0 32 32" enable-background="new 0 0 32 32" xml:space="preserve">
<path d="M5.403,25.993c-1.137,0-1.137,0-1.137,0c-0.759,0-1.139-0.759-1.139-1.138c0-20.873,0-20.873,0-20.873
	c0-0.759,0.38-1.139,1.139-1.139c1.137,0,1.137,0,1.137,0c0-2.277,0-2.277,0-2.277c-1.518,0-1.518,0-1.518,0
	c-1.518,0-2.654,1.14-2.654,2.657c0,22.387,0,22.387,0,22.387c0,1.519,1.137,2.656,2.654,2.656c1.517,0,1.518,0,1.518,0V25.993z"/>
<path d="M9.524,27.529v1.365h19.13V13.592h-6.219c-0.791,0-1.435-0.644-1.435-1.435v-6.22H9.524v21.786l-1.916,0.034V5.46
	c0-0.793,0.645-1.436,1.438-1.436h13.394c0.791,0,1.896,0.463,2.451,1.018l4.664,4.664c0.551,0.553,1.016,1.658,1.016,2.451v17.216
	c0,0.793-0.644,1.436-1.437,1.436H9.045c-0.793,0-1.437-0.643-1.437-1.436v-1.842L9.524,27.529z M19.506,15.504h4.848
	c0.269,0,0.477,0.21,0.477,0.478v0.958c0,0.269-0.208,0.479-0.477,0.479h-4.848c-0.27,0-0.479-0.211-0.479-0.479v-0.958
	C19.027,15.714,19.236,15.504,19.506,15.504z M24.828,19.807v0.959c0,0.27-0.208,0.479-0.479,0.479h-6.263
	c-0.271,0-0.479-0.209-0.479-0.479v-0.959c0-0.269,0.209-0.478,0.479-0.478h6.265C24.62,19.329,24.828,19.538,24.828,19.807z
	 M24.828,23.635v0.954c0,0.271-0.208,0.479-0.479,0.479H16.1c-0.271,0-0.479-0.209-0.479-0.479v-0.954
	c0-0.271,0.208-0.479,0.479-0.479h8.25C24.62,23.154,24.828,23.366,24.828,23.635z M22.917,11.679h5.619
	c-0.089-0.254-0.226-0.508-0.329-0.612l-4.68-4.68c-0.104-0.104-0.357-0.239-0.61-0.328V11.679z"/>
</svg>
