<?xml version="1.0" encoding="utf-8"?>
<!-- Generator: Adobe Illustrator 15.1.0, SVG Export Plug-In . SVG Version: 6.00 Build 0)  -->
<!DOCTYPE svg PUBLIC "-//W3C//DTD SVG 1.1//EN" "http://www.w3.org/Graphics/SVG/1.1/DTD/svg11.dtd">
<svg version="1.1" id="Layer_1" xmlns="http://www.w3.org/2000/svg" xmlns:xlink="http://www.w3.org/1999/xlink" x="0px" y="0px"
	 width="20px" height="20px" viewBox="0 0 20 20" enable-background="new 0 0 20 20" xml:space="preserve">
<path d="M3.752,15.889c-0.676,0-0.676,0-0.676,0c-0.452,0-0.677-0.451-0.677-0.678c0-12.422,0-12.422,0-12.422
	c0-0.451,0.226-0.677,0.677-0.677c0.676,0,0.676,0,0.676,0c0-1.354,0-1.354,0-1.354c-0.905,0-0.905,0-0.905,0
	c-0.903-0.002-1.579,0.676-1.579,1.58c0,13.327,0,13.327,0,13.327c0,0.904,0.676,1.582,1.579,1.582c0.905,0,0.905,0,0.905,0V15.889z
	"/>
<path d="M6.206,16.803v0.813h11.387V8.506h-3.702c-0.471,0-0.854-0.382-0.854-0.853V3.951H6.206V16.92l-1.141,0.02V3.668
	c0-0.472,0.384-0.854,0.856-0.854h7.974c0.47,0,1.127,0.276,1.459,0.604l2.776,2.777c0.324,0.329,0.603,0.987,0.603,1.458V17.9
	c0,0.475-0.383,0.855-0.854,0.855H5.919c-0.471,0-0.855-0.383-0.855-0.855v-1.098H6.206z"/>
<path d="M12.146,9.646h2.886c0.159,0,0.284,0.126,0.284,0.286V10.5c0,0.158-0.125,0.285-0.284,0.285h-2.886
	c-0.16,0-0.285-0.127-0.285-0.285V9.931C11.861,9.771,11.986,9.646,12.146,9.646z"/>
<path d="M15.314,12.207v0.568c0,0.162-0.125,0.285-0.285,0.285h-3.727c-0.16,0-0.287-0.123-0.287-0.285v-0.568
	c0-0.16,0.127-0.285,0.287-0.285h3.729C15.189,11.922,15.314,12.047,15.314,12.207z"/>
<path d="M15.314,14.486v0.566c0,0.162-0.125,0.285-0.285,0.285H10.12c-0.162,0-0.286-0.125-0.286-0.285v-0.566
	c0-0.162,0.124-0.287,0.286-0.287h4.911C15.189,14.199,15.314,14.326,15.314,14.486z"/>
<path d="M14.18,7.368h3.342c-0.051-0.151-0.131-0.301-0.193-0.364l-2.786-2.785c-0.063-0.063-0.214-0.142-0.362-0.194V7.368
	L14.18,7.368z"/>
</svg>
