<?xml version="1.0" encoding="utf-8"?>
<!-- Generator: Adobe Illustrator 15.1.0, SVG Export Plug-In . SVG Version: 6.00 Build 0)  -->
<!DOCTYPE svg PUBLIC "-//W3C//DTD SVG 1.1//EN" "http://www.w3.org/Graphics/SVG/1.1/DTD/svg11.dtd">
<svg version="1.1" id="Layer_1" xmlns="http://www.w3.org/2000/svg" xmlns:xlink="http://www.w3.org/1999/xlink" x="0px" y="0px"
	 width="32px" height="32px" viewBox="0 0 32 32" enable-background="new 0 0 32 32" xml:space="preserve">
<path d="M30.9,12.773L30.9,12.773L30.9,12.773L30.9,12.773L30.9,12.773L30.9,12.773L30.9,12.773v-0.379l0,0l0,0l0,0
	c-4.93-4.555-4.93-4.555-4.93-4.555c-4.551-4.173-4.93-4.552-4.93-4.552l0,0l0,0l0,0c-10.623,0-10.623,0-10.623,0
	c-1.517,0-2.655,1.138-2.655,2.656c0,22.388,0,22.388,0,22.388c0,1.519,1.138,2.657,2.655,2.657c5.691,0,5.691,0,5.691,0
	c0.379,0,0.379,0,0.379,0c12.138,0,12.138,0,12.138,0c1.138,0,2.274-1.139,2.274-2.657c0-2.655,0-2.655,0-2.655
	c0-2.277,0-2.277,0-2.277c0-10.246,0-10.246,0-10.246l0,0C30.9,13.152,30.9,13.152,30.9,12.773L30.9,12.773L30.9,12.773L30.9,12.773
	z M29.006,23.02c0,1.897,0,1.897,0,1.897c0,2.656,0,2.656,0,2.656c0,0.757-0.38,1.138-1.138,1.138c-11.001,0-11.001,0-11.001,0
	c-0.379,0-0.379,0-0.379,0c-5.311,0-5.311,0-5.311,0c-0.759,0-1.137-0.381-1.137-1.138c0-20.871,0-20.871,0-20.871
	c0-0.76,0.378-1.139,1.137-1.139c9.104,0,9.104,0,9.104,0c0,6.071,0,6.071,0,6.071c0,1.138,1.139,2.277,2.654,2.277
	c6.069,0,6.069,0,6.069,0L29.006,23.02L29.006,23.02z"/>
<path d="M5.108,26.055c-1.137,0-1.137,0-1.137,0c-0.758,0-1.138-0.759-1.138-1.138c0-20.872,0-20.872,0-20.872
	c0-0.759,0.38-1.139,1.138-1.139c1.137,0,1.137,0,1.137,0c0-2.277,0-2.277,0-2.277c-1.517,0-1.517,0-1.517,0
	c-1.518,0-2.655,1.14-2.655,2.657c0,22.388,0,22.388,0,22.388c0,1.518,1.137,2.655,2.655,2.655c1.517,0,1.517,0,1.517,0V26.055z"/>
</svg>
