<?xml version="1.0" encoding="utf-8"?>
<!-- Generator: Adobe Illustrator 15.1.0, SVG Export Plug-In . SVG Version: 6.00 Build 0)  -->
<!DOCTYPE svg PUBLIC "-//W3C//DTD SVG 1.1//EN" "http://www.w3.org/Graphics/SVG/1.1/DTD/svg11.dtd">
<svg version="1.1" id="Layer_1" xmlns="http://www.w3.org/2000/svg" xmlns:xlink="http://www.w3.org/1999/xlink" x="0px" y="0px"
	 width="32px" height="32px" viewBox="0 0 32 32" enable-background="new 0 0 32 32" xml:space="preserve">
<g>
	<path fill="#399649" d="M20.274,14.324h5.674c0.3,0,0.528,0.232,0.528,0.531v1.061c0,0.297-0.229,0.531-0.528,0.531h-5.674
		c-0.298,0-0.526-0.234-0.526-0.531v-1.061C19.744,14.557,19.977,14.324,20.274,14.324z"/>
</g>
<g>
	<path fill="#399649" d="M26.475,19.094v1.063c0,0.301-0.231,0.531-0.532,0.531h-7.231c-0.301,0-0.53-0.23-0.53-0.531v-1.063
		c0-0.297,0.229-0.529,0.53-0.529h7.237C26.242,18.564,26.475,18.797,26.475,19.094z"/>
</g>
<g>
	<path fill="#399649" d="M26.475,23.338v1.057c0,0.301-0.231,0.531-0.532,0.531h-9.44c-0.302,0-0.534-0.23-0.534-0.531v-1.057
		c0-0.299,0.23-0.531,0.534-0.531h9.44C26.242,22.805,26.475,23.041,26.475,23.338z"/>
</g>
<g>
	<g>
		<path fill="#399649" d="M30.449,30.299H7.228c-0.292,0-0.53-0.236-0.53-0.529v-2.646c0-0.293,0.237-0.529,0.53-0.529
			s0.53,0.236,0.53,0.529v2.117H29.92V10.677h-7.416c-0.293,0-0.529-0.237-0.529-0.53V3.045H7.758v24.207
			c0,0.291-0.237,0.529-0.53,0.529s-0.53-0.236-0.53-0.529V2.516c0-0.292,0.237-0.53,0.53-0.53h15.276
			c0.293,0,0.528,0.237,0.528,0.53v7.102h7.417c0.293,0,0.529,0.237,0.529,0.53V29.77C30.979,30.063,30.742,30.299,30.449,30.299z"
			/>
	</g>
</g>
<g>
	<g>
		<path fill="#399649" d="M5.42,1.343H2.875v24.206c0,0.291-0.237,0.529-0.53,0.529s-0.53-0.236-0.53-0.529V0.814
			c0-0.292,0.237-0.53,0.53-0.53H5.42V1.343z"/>
		<path fill="#399649" d="M5.336,28.596H2.345c-0.292,0-0.53-0.236-0.53-0.529V25.42c0-0.293,0.237-0.529,0.53-0.529
			s0.53,0.236,0.53,0.529v2.117h2.46L5.336,28.596z"/>
	</g>
</g>
<g>
	<g>
		<path fill="#399649" d="M30.449,10.677c-0.132,0-0.265-0.049-0.367-0.147l-7.945-7.631c-0.211-0.203-0.219-0.538-0.016-0.749
			c0.202-0.211,0.539-0.217,0.75-0.015l7.945,7.632c0.211,0.202,0.218,0.537,0.016,0.748C30.729,10.622,30.588,10.677,30.449,10.677
			z"/>
	</g>
</g>
<g>
	<path fill="#399649" d="M55.607,14.324h5.674c0.3,0,0.528,0.232,0.528,0.531v1.061c0,0.297-0.229,0.531-0.528,0.531h-5.674
		c-0.298,0-0.526-0.234-0.526-0.531v-1.061C55.077,14.557,55.31,14.324,55.607,14.324z"/>
</g>
<g>
	<path fill="#399649" d="M61.808,19.094v1.063c0,0.301-0.231,0.531-0.532,0.531h-7.231c-0.301,0-0.53-0.23-0.53-0.531v-1.063
		c0-0.297,0.229-0.529,0.53-0.529h7.237C61.575,18.564,61.808,18.797,61.808,19.094z"/>
</g>
<g>
	<path fill="#399649" d="M61.808,23.338v1.057c0,0.301-0.231,0.531-0.532,0.531h-9.44c-0.302,0-0.534-0.23-0.534-0.531v-1.057
		c0-0.299,0.23-0.531,0.534-0.531h9.44C61.575,22.805,61.808,23.041,61.808,23.338z"/>
</g>
<g>
	<g>
		<path fill="#399649" d="M65.782,30.299H42.561c-0.292,0-0.53-0.236-0.53-0.529v-2.646c0-0.293,0.237-0.529,0.53-0.529
			s0.53,0.236,0.53,0.529v2.117h22.162V10.677h-7.416c-0.293,0-0.529-0.237-0.529-0.53V3.045H43.091v24.207
			c0,0.291-0.237,0.529-0.53,0.529s-0.53-0.236-0.53-0.529V2.516c0-0.292,0.237-0.53,0.53-0.53h15.276
			c0.293,0,0.528,0.237,0.528,0.53v7.102h7.417c0.293,0,0.529,0.237,0.529,0.53V29.77C66.313,30.063,66.075,30.299,65.782,30.299z"
			/>
	</g>
</g>
<g>
	<g>
		<path fill="#399649" d="M40.753,1.343h-2.545v24.206c0,0.291-0.237,0.529-0.53,0.529s-0.53-0.236-0.53-0.529V0.814
			c0-0.292,0.237-0.53,0.53-0.53h3.075V1.343z"/>
		<path fill="#399649" d="M40.669,28.596h-2.991c-0.292,0-0.53-0.236-0.53-0.529V25.42c0-0.293,0.237-0.529,0.53-0.529
			s0.53,0.236,0.53,0.529v2.117h2.46L40.669,28.596z"/>
	</g>
</g>
<g>
	<g>
		<path fill="#399649" d="M65.782,10.677c-0.132,0-0.265-0.049-0.367-0.147L57.47,2.898c-0.211-0.203-0.219-0.538-0.016-0.749
			c0.202-0.211,0.539-0.217,0.75-0.015l7.945,7.632c0.211,0.202,0.218,0.537,0.016,0.748C66.062,10.622,65.921,10.677,65.782,10.677
			z"/>
	</g>
</g>
<g>
	<path fill="#929292" d="M20.357,14.324h5.674c0.299,0,0.527,0.232,0.527,0.531v1.061c0,0.297-0.229,0.531-0.527,0.531h-5.674
		c-0.299,0-0.527-0.234-0.527-0.531v-1.061C19.826,14.557,20.059,14.324,20.357,14.324z"/>
</g>
<g>
	<path fill="#929292" d="M26.557,19.094v1.063c0,0.301-0.23,0.531-0.531,0.531h-7.232c-0.301,0-0.529-0.23-0.529-0.531v-1.063
		c0-0.297,0.229-0.529,0.529-0.529h7.238C26.324,18.564,26.557,18.797,26.557,19.094z"/>
</g>
<g>
	<path fill="#929292" d="M26.557,23.338v1.057c0,0.301-0.23,0.531-0.531,0.531h-9.441c-0.301,0-0.534-0.23-0.534-0.531v-1.057
		c0-0.299,0.23-0.531,0.534-0.531h9.441C26.324,22.805,26.557,23.041,26.557,23.338z"/>
</g>
<g>
	<g>
		<path fill="#929292" d="M30.531,30.299H7.31c-0.292,0-0.53-0.236-0.53-0.529v-2.646c0-0.293,0.237-0.529,0.53-0.529
			s0.53,0.236,0.53,0.529v2.117h22.162V10.677h-7.416c-0.293,0-0.529-0.237-0.529-0.53V3.045H7.84v24.207
			c0,0.291-0.237,0.529-0.53,0.529s-0.53-0.236-0.53-0.529V2.516c0-0.292,0.237-0.53,0.53-0.53h15.276
			c0.293,0,0.529,0.237,0.529,0.53v7.102h7.416c0.293,0,0.529,0.237,0.529,0.53V29.77C31.063,30.063,30.824,30.299,30.531,30.299z"
			/>
	</g>
</g>
<g>
	<g>
		<path fill="#929292" d="M5.502,1.343H2.958v24.206c0,0.291-0.237,0.529-0.53,0.529s-0.53-0.236-0.53-0.529V0.814
			c0-0.292,0.237-0.53,0.53-0.53h3.075V1.343z"/>
		<path fill="#929292" d="M5.418,28.596H2.427c-0.292,0-0.53-0.236-0.53-0.529V25.42c0-0.293,0.237-0.529,0.53-0.529
			s0.53,0.236,0.53,0.529v2.117h2.46L5.418,28.596z"/>
	</g>
</g>
<g>
	<g>
		<path fill="#929292" d="M30.531,10.677c-0.131,0-0.264-0.049-0.367-0.147l-7.945-7.631C22.008,2.695,22,2.36,22.203,2.149
			s0.539-0.217,0.75-0.015l7.945,7.632c0.211,0.202,0.219,0.537,0.016,0.748C30.811,10.622,30.67,10.677,30.531,10.677z"/>
	</g>
</g>
</svg>
