<?xml version="1.0" encoding="utf-8"?>
<!-- Generator: Adobe Illustrator 15.1.0, SVG Export Plug-In . SVG Version: 6.00 Build 0)  -->
<!DOCTYPE svg PUBLIC "-//W3C//DTD SVG 1.1//EN" "http://www.w3.org/Graphics/SVG/1.1/DTD/svg11.dtd">
<svg version="1.1" id="Layer_1" xmlns="http://www.w3.org/2000/svg" xmlns:xlink="http://www.w3.org/1999/xlink" x="0px" y="0px"
	 width="24px" height="24px" viewBox="0 0 32 32" enable-background="new 0 0 32 32" xml:space="preserve">
<path d="M9.204,16.621l10.744,14.067c0.139,0.183,0.345,0.305,0.531,0.305c0.185,0,0.392-0.122,0.532-0.305l1.15-1.51
	c0.142-0.183,0.233-0.42,0.233-0.696c0-0.236-0.092-0.51-0.233-0.688l-9.062-11.867l9.062-11.875
	c0.142-0.182,0.233-0.453,0.233-0.688c0-0.245-0.092-0.521-0.233-0.7l-1.15-1.508c-0.141-0.184-0.348-0.306-0.532-0.306
	c-0.187,0-0.393,0.122-0.531,0.306L9.204,15.232c-0.142,0.177-0.234,0.45-0.234,0.696C8.97,16.169,9.063,16.441,9.204,16.621z"/>
</svg>
