<?xml version="1.0" encoding="utf-8"?>
<!-- Generator: Adobe Illustrator 15.1.0, SVG Export Plug-In . SVG Version: 6.00 Build 0)  -->
<!DOCTYPE svg PUBLIC "-//W3C//DTD SVG 1.1//EN" "http://www.w3.org/Graphics/SVG/1.1/DTD/svg11.dtd">
<svg version="1.1" id="Layer_1" xmlns="http://www.w3.org/2000/svg" xmlns:xlink="http://www.w3.org/1999/xlink" x="0px" y="0px"
	 width="24px" height="24px" viewBox="0 0 32 32" enable-background="new 0 0 32 32" xml:space="preserve">
<path d="M22.395,15.928c0-0.246-0.092-0.519-0.233-0.696L11.417,1.156c-0.138-0.184-0.344-0.306-0.53-0.306
	c-0.185,0-0.392,0.122-0.533,0.306L9.204,2.664c-0.142,0.179-0.233,0.455-0.233,0.7c0,0.235,0.092,0.506,0.233,0.688l9.062,11.875
	L9.204,27.794c-0.142,0.179-0.233,0.452-0.233,0.688c0,0.275,0.092,0.513,0.233,0.695l1.149,1.51
	c0.141,0.184,0.348,0.306,0.533,0.306s0.392-0.122,0.53-0.306l10.744-14.066C22.302,16.441,22.395,16.169,22.395,15.928z"/>
</svg>
