<?xml version="1.0" encoding="utf-8"?>
<!-- Generator: Adobe Illustrator 15.1.0, SVG Export Plug-In . SVG Version: 6.00 Build 0)  -->
<!DOCTYPE svg PUBLIC "-//W3C//DTD SVG 1.1//EN" "http://www.w3.org/Graphics/SVG/1.1/DTD/svg11.dtd">
<svg version="1.1" id="Layer_1" xmlns="http://www.w3.org/2000/svg" xmlns:xlink="http://www.w3.org/1999/xlink" x="0px" y="0px"
	 width="32px" height="32px" viewBox="0 0 32 32" enable-background="new 0 0 32 32" xml:space="preserve">
<path fill="#010101" d="M16.046,0.567l-7.701,5.13l0,0l0,0l0,0c0,7.051,0,7.051,0,7.051l-7.059,4.486l0,0l0,0l0,0v0.641l0,0
	c0,7.053,0,7.053,0,7.053l0,0c0,1.279,0,1.279,0,1.279l7.701,4.49l0,0l0,0l0,0l0,0h1.284l0,0l0,0
	c5.775-3.207,5.775-3.207,5.775-3.207c6.417,3.207,6.417,3.207,6.417,3.207l0,0l0,0l0,0h1.284l0,0l0,0
	c5.776-3.207,7.06-4.49,7.06-4.49c0-1.279,0-1.279,0-1.279l0,0c0-7.053,0-7.053,0-7.053l0,0v-0.641l-6.414-4.486
	c0-7.051,0-7.051,0-7.051l0,0 M8.345,27.489c-4.493-2.563-4.493-2.563-4.493-2.563c0-5.129,0-5.129,0-5.129
	c4.493,2.564,4.493,2.564,4.493,2.564V27.489z M16.046,8.26c-3.851-2.563-3.851-2.563-3.851-2.563
	c3.851-2.565,3.851-2.565,3.851-2.565c4.494,2.565,4.494,2.565,4.494,2.565L16.046,8.26z M28.239,24.927
	c-3.849,2.563-3.849,2.563-3.849,2.563c0-5.127,0-5.127,0-5.127c3.849-2.564,3.849-2.564,3.849-2.564V24.927z"/>
</svg>
