<?xml version="1.0" encoding="utf-8"?>
<!-- Generator: Adobe Illustrator 15.1.0, SVG Export Plug-In . SVG Version: 6.00 Build 0)  -->
<!DOCTYPE svg PUBLIC "-//W3C//DTD SVG 1.1//EN" "http://www.w3.org/Graphics/SVG/1.1/DTD/svg11.dtd">
<svg version="1.1" id="Layer_1" xmlns="http://www.w3.org/2000/svg" xmlns:xlink="http://www.w3.org/1999/xlink" x="0px" y="0px"
	 width="20px" height="20px" viewBox="0 0 20 20" enable-background="new 0 0 20 20" xml:space="preserve">
<path fill="#010101" d="M10,0.522l-4.6,3.065l0,0l0,0l0,0c0,4.213,0,4.213,0,4.213l-4.218,2.679l0,0l0,0l0,0v0.382l0,0
	c0,4.213,0,4.213,0,4.213l0,0c0,0.766,0,0.766,0,0.766l4.601,2.682l0,0l0,0l0,0l0,0h0.768l0,0l0,0
	c3.451-1.914,3.451-1.914,3.451-1.914c3.832,1.914,3.832,1.914,3.832,1.914l0,0l0,0l0,0h0.769l0,0l0,0
	c3.453-1.914,4.217-2.682,4.217-2.682c0-0.766,0-0.766,0-0.766l0,0c0-4.215,0-4.215,0-4.215l0,0v-0.38L14.989,7.8
	c0-4.213,0-4.213,0-4.213l0,0 M5.399,16.609c-2.685-1.535-2.685-1.535-2.685-1.535c0-3.063,0-3.063,0-3.063
	c2.685,1.531,2.685,1.531,2.685,1.531V16.609z M10,5.119C7.699,3.587,7.699,3.587,7.699,3.587C10,2.055,10,2.055,10,2.055
	c2.685,1.532,2.685,1.532,2.685,1.532L10,5.119z M17.286,15.076c-2.299,1.531-2.299,1.531-2.299,1.531c0-3.064,0-3.064,0-3.064
	c2.299-1.529,2.299-1.529,2.299-1.529V15.076z"/>
</svg>
