<?xml version="1.0" encoding="utf-8"?>
<!-- Generator: Adobe Illustrator 15.1.0, SVG Export Plug-In . SVG Version: 6.00 Build 0)  -->
<!DOCTYPE svg PUBLIC "-//W3C//DTD SVG 1.1//EN" "http://www.w3.org/Graphics/SVG/1.1/DTD/svg11.dtd">
<svg version="1.1" id="Layer_1" xmlns="http://www.w3.org/2000/svg" xmlns:xlink="http://www.w3.org/1999/xlink" x="0px" y="0px"
	 width="20px" height="20px" viewBox="0 0 20 20" enable-background="new 0 0 20 20" xml:space="preserve">
<path d="M13.366,1.183c-2.991,0-5.418,2.425-5.418,5.42c0,1.063,0.312,2.053,0.839,2.889L2.04,16.188l2.104,2.105l1.304-1.252
	l1.948,2.143l2.79-2.789l-1.904-2.1l2.786-2.787c0.697,0.329,1.475,0.52,2.3,0.52c2.994,0,5.422-2.43,5.422-5.423
	C18.788,3.608,16.36,1.183,13.366,1.183z M13.366,9.326c-1.502,0-2.72-1.219-2.72-2.722s1.218-2.721,2.72-2.721
	c1.507,0,2.726,1.218,2.726,2.721C16.092,8.106,14.873,9.326,13.366,9.326z"/>
</svg>
