<?xml version="1.0" encoding="utf-8"?>
<!-- Generator: Adobe Illustrator 15.1.0, SVG Export Plug-In . SVG Version: 6.00 Build 0)  -->
<!DOCTYPE svg PUBLIC "-//W3C//DTD SVG 1.1//EN" "http://www.w3.org/Graphics/SVG/1.1/DTD/svg11.dtd">
<svg version="1.1" id="Layer_1" xmlns="http://www.w3.org/2000/svg" xmlns:xlink="http://www.w3.org/1999/xlink" x="0px" y="0px"
	 width="32px" height="32px" viewBox="0 0 32 32" enable-background="new 0 0 32 32" xml:space="preserve">
<g>
	<path d="M10.078,31.257l-2.559-2.559l-1.774,1.774L1.39,26.116l10.619-10.618c-0.767-1.391-1.169-2.943-1.169-4.525
		c0-5.178,4.211-9.39,9.387-9.39c2.51,0,4.869,0.977,6.644,2.75c1.774,1.774,2.75,4.133,2.749,6.644
		c0,5.178-4.212,9.391-9.391,9.391c-1.218,0-2.404-0.234-3.537-0.697l-4.778,4.779l2.489,2.487L10.078,31.257z M7.519,26.739
		l2.559,2.559l2.363-2.36L9.952,24.45l6.438-6.438l0.44,0.207c1.08,0.508,2.225,0.764,3.398,0.764c4.414,0,8.004-3.591,8.004-8.005
		c0.002-2.14-0.832-4.151-2.344-5.663S22.366,2.97,20.227,2.97c-4.413,0-8.001,3.591-8.001,8.004c0,1.505,0.428,2.98,1.239,4.267
		l0.295,0.468L3.349,26.116l2.396,2.397L7.519,26.739z M20.227,16.033c-2.787,0-5.057-2.27-5.057-5.061
		c0-2.789,2.27-5.058,5.057-5.058c2.793,0,5.063,2.269,5.063,5.058C25.29,13.763,23.02,16.033,20.227,16.033z M20.227,7.3
		c-2.023,0-3.67,1.647-3.67,3.672c0,2.026,1.646,3.675,3.67,3.675c2.028,0,3.68-1.648,3.68-3.675
		C23.904,8.947,22.255,7.3,20.227,7.3z"/>
</g>
</svg>
