<?xml version="1.0" encoding="utf-8"?>
<!-- Generator: Adobe Illustrator 15.1.0, SVG Export Plug-In . SVG Version: 6.00 Build 0)  -->
<!DOCTYPE svg PUBLIC "-//W3C//DTD SVG 1.1//EN" "http://www.w3.org/Graphics/SVG/1.1/DTD/svg11.dtd">
<svg version="1.1" id="Layer_1" xmlns="http://www.w3.org/2000/svg" xmlns:xlink="http://www.w3.org/1999/xlink" x="0px" y="0px"
	 width="32px" height="32px" viewBox="0 0 32 32" enable-background="new 0 0 32 32" xml:space="preserve">
<path fill="#010101" d="M14.291,26.752c-8.528-4.896-8.528-4.896-8.528-4.896c0-10.171,0-10.171,0-10.171
	c8.528,4.898,8.528,4.898,8.528,4.898V26.752z M25.785,21.855c-8.528,4.896-8.528,4.896-8.528,4.896c0-10.169,0-10.169,0-10.169
	c8.528-4.898,8.528-4.898,8.528-4.898V21.855z M28.751,9.046c0-0.376,0-0.376,0-0.376l0,0c0-0.377-12.235-7.535-12.235-7.535
	c-0.372-0.378-1.112-0.378-1.484,0C3.537,7.916,2.795,8.67,2.795,8.67l0,0c0,0.376,0,0.376,0,0.376c0,13.562,0,13.562,0,13.562
	c0,0.377,0.371,1.131,0.742,1.131c11.495,6.781,11.495,6.781,11.495,6.781c0.406,0.168,1.281,0.23,1.484,0l0,0
	c11.494-6.781,11.494-6.781,11.494-6.781c0.365-0.27,0.741-0.754,0.741-1.131C28.751,9.046,28.751,9.046,28.751,9.046L28.751,9.046
	L28.751,9.046L28.751,9.046L28.751,9.046z M15.973,14.337c-7.23-4.249-7.23-4.249-7.23-4.249C7.221,9.317,7.221,9.317,7.221,9.317
	c8.752-5.021,8.752-5.021,8.752-5.021c8.752,5.021,8.752,5.021,8.752,5.021L15.973,14.337z"/>
<path fill="#010101" d="M17.202,17.21C5.333,24.435,5.333,24.435,5.333,24.435c0-15.008,0-15.008,0-15.008
	c11.869-7.228,11.869-7.228,11.869-7.228V17.21z"/>
</svg>
