<?xml version="1.0" encoding="utf-8"?>
<!-- Generator: Adobe Illustrator 15.1.0, SVG Export Plug-In . SVG Version: 6.00 Build 0)  -->
<!DOCTYPE svg PUBLIC "-//W3C//DTD SVG 1.1//EN" "http://www.w3.org/Graphics/SVG/1.1/DTD/svg11.dtd">
<svg version="1.1" id="Layer_1" xmlns="http://www.w3.org/2000/svg" xmlns:xlink="http://www.w3.org/1999/xlink" x="0px" y="0px"
	 width="20px" height="20px" viewBox="0 0 20 20" enable-background="new 0 0 20 20" xml:space="preserve">
<path fill="#010101" d="M9.105,16.635C3.958,13.68,3.958,13.68,3.958,13.68c0-6.139,0-6.139,0-6.139
	c5.148,2.956,5.148,2.956,5.148,2.956V16.635z M16.045,13.68c-5.147,2.955-5.147,2.955-5.147,2.955c0-6.138,0-6.138,0-6.138
	c5.147-2.956,5.147-2.956,5.147-2.956V13.68z M17.834,5.945c0-0.226,0-0.226,0-0.226l0,0c0-0.228-7.387-4.548-7.387-4.548
	c-0.224-0.229-0.67-0.229-0.896,0C2.612,5.266,2.166,5.719,2.166,5.719l0,0c0,0.226,0,0.226,0,0.226c0,8.188,0,8.188,0,8.188
	c0,0.227,0.224,0.684,0.447,0.684c6.939,4.094,6.939,4.094,6.939,4.094c0.245,0.1,0.772,0.139,0.896,0l0,0
	c6.938-4.094,6.938-4.094,6.938-4.094c0.222-0.164,0.449-0.457,0.449-0.684C17.834,5.945,17.834,5.945,17.834,5.945L17.834,5.945
	L17.834,5.945L17.834,5.945L17.834,5.945z M10.12,9.14C5.756,6.576,5.756,6.576,5.756,6.576C4.837,6.108,4.837,6.108,4.837,6.108
	c5.284-3.03,5.284-3.03,5.284-3.03c5.284,3.03,5.284,3.03,5.284,3.03L10.12,9.14z"/>
<path fill="#010101" d="M10.861,10.875c-7.164,4.361-7.164,4.361-7.164,4.361c0-9.06,0-9.06,0-9.06
	c7.164-4.362,7.164-4.362,7.164-4.362V10.875z"/>
</svg>
