<?xml version="1.0" encoding="utf-8"?>
<!-- Generator: Adobe Illustrator 15.1.0, SVG Export Plug-In . SVG Version: 6.00 Build 0)  -->
<!DOCTYPE svg PUBLIC "-//W3C//DTD SVG 1.1//EN" "http://www.w3.org/Graphics/SVG/1.1/DTD/svg11.dtd">
<svg version="1.1" id="Layer_1" xmlns="http://www.w3.org/2000/svg" xmlns:xlink="http://www.w3.org/1999/xlink" x="0px" y="0px"
	 width="20px" height="20px" viewBox="0 0 20 20" enable-background="new 0 0 20 20" xml:space="preserve">
<path fill="#010101" d="M2.585,14.054c0,0.228,0,0.228,0,0.228l0,0c0,0.228,7.385,4.547,7.385,4.547c0.226,0.229,0.67,0.229,0.896,0
	c6.938-4.094,7.387-4.547,7.387-4.547l0,0c0-0.228,0-0.228,0-0.228c0-8.187,0-8.187,0-8.187c0-0.228-0.224-0.682-0.449-0.682
	c-6.938-4.093-6.938-4.093-6.938-4.093c-0.243-0.102-0.773-0.14-0.896,0l0,0C3.032,5.185,3.032,5.185,3.032,5.185
	C2.811,5.349,2.585,5.641,2.585,5.868C2.585,14.054,2.585,14.054,2.585,14.054L2.585,14.054L2.585,14.054L2.585,14.054L2.585,14.054
	z M11.313,3.368c5.146,2.953,5.146,2.953,5.146,2.953c0,6.138,0,6.138,0,6.138c-5.146-2.955-5.146-2.955-5.146-2.955V3.368z
	 M4.375,6.321c5.148-2.953,5.148-2.953,5.148-2.953c0,6.137,0,6.137,0,6.137c-5.148,2.954-5.148,2.954-5.148,2.954V6.321z"/>
</svg>
