<?xml version="1.0" encoding="utf-8"?>
<!-- Generator: Adobe Illustrator 15.1.0, SVG Export Plug-In . SVG Version: 6.00 Build 0)  -->
<!DOCTYPE svg PUBLIC "-//W3C//DTD SVG 1.1//EN" "http://www.w3.org/Graphics/SVG/1.1/DTD/svg11.dtd">
<svg version="1.1" id="Layer_1" xmlns="http://www.w3.org/2000/svg" xmlns:xlink="http://www.w3.org/1999/xlink" x="0px" y="0px"
	 width="32px" height="32px" viewBox="0 0 32 32" enable-background="new 0 0 32 32" xml:space="preserve">
<path fill="#010101" d="M2.795,22.476c0,0.376,0,0.376,0,0.376l0,0c0,0.377,12.235,7.535,12.235,7.535
	c0.372,0.378,1.112,0.378,1.484,0c11.495-6.781,12.237-7.535,12.237-7.535l0,0c0-0.376,0-0.376,0-0.376c0-13.562,0-13.562,0-13.562
	c0-0.377-0.371-1.131-0.742-1.131C16.514,1.002,16.514,1.002,16.514,1.002c-0.406-0.168-1.281-0.23-1.484,0l0,0
	C3.536,7.783,3.536,7.783,3.536,7.783c-0.365,0.27-0.741,0.754-0.741,1.131C2.795,22.476,2.795,22.476,2.795,22.476L2.795,22.476
	L2.795,22.476L2.795,22.476L2.795,22.476z M17.255,4.77c8.528,4.896,8.528,4.896,8.528,4.896c0,10.171,0,10.171,0,10.171
	c-8.528-4.898-8.528-4.898-8.528-4.898V4.77z M5.761,9.666c8.528-4.896,8.528-4.896,8.528-4.896c0,10.169,0,10.169,0,10.169
	c-8.528,4.898-8.528,4.898-8.528,4.898V9.666z"/>
</svg>
