<?xml version="1.0" encoding="utf-8"?>
<!-- Generator: Adobe Illustrator 15.1.0, SVG Export Plug-In . SVG Version: 6.00 Build 0)  -->
<!DOCTYPE svg PUBLIC "-//W3C//DTD SVG 1.1//EN" "http://www.w3.org/Graphics/SVG/1.1/DTD/svg11.dtd">
<svg version="1.1" id="Layer_1" xmlns="http://www.w3.org/2000/svg" xmlns:xlink="http://www.w3.org/1999/xlink" x="0px" y="0px"
	 width="32px" height="32px" viewBox="0 0 32 32" enable-background="new 0 0 32 32" xml:space="preserve">
<path fill="#010101" d="M17.219,5.38c1.871,0,3.368,1.467,3.368,3.302c0,1.833-1.497,3.299-3.368,3.299
	c-1.873,0-3.37-1.466-3.37-3.299C13.849,6.847,15.346,5.38,17.219,5.38 M17.219,2.446c-3.744,0-6.364,2.934-6.364,6.236
	c0,3.299,2.62,6.234,6.364,6.234c3.368,0,6.362-2.936,6.362-6.234C23.581,5.38,20.587,2.446,17.219,2.446L17.219,2.446z"/>
<path fill="#010101" d="M5.239,9.78c0.749,0,1.123,0.369,1.123,1.101c0,0.734-0.375,1.1-1.123,1.1c-0.375,0-0.749-0.366-0.749-1.1
	C4.49,10.149,4.864,9.78,5.239,9.78 M5.239,6.847c-1.872,0-3.744,1.835-3.744,4.034c0,2.201,1.872,4.036,3.744,4.036
	c2.247,0,4.118-1.835,4.118-4.036C9.356,8.682,7.485,6.847,5.239,6.847L5.239,6.847z"/>
<path fill="#010101" d="M17.598,18.947c0.376,0,0.376,0,0.376,0l0,0v0.366c0,5.868,0,5.868,0,5.868v0.365h-0.376
	c-11.604,0-11.604,0-11.604,0c-0.375,0-0.375,0-0.375,0l-0.374-0.365c0-5.868,0-5.868,0-5.868l0.374-0.366l0,0c0,0,0,0,0.375,0
	C17.598,18.947,17.598,18.947,17.598,18.947 M17.598,16.017c-11.604,0-11.604,0-11.604,0c-1.498,0-3.744,0.732-3.744,3.296
	c0,5.868,0,5.868,0,5.868c0,1.466,1.123,3.301,3.744,3.301c11.604,0,11.604,0,11.604,0c1.497,0,3.37-0.734,3.37-3.301
	c0-5.868,0-5.868,0-5.868C20.968,17.848,20.218,16.017,17.598,16.017L17.598,16.017z"/>
<path fill="#010101" d="M27.706,21.515c0,1.467,0,1.467,0,1.467c-1.87-0.732-1.87-0.732-1.87-0.732
	C27.706,21.515,27.706,21.515,27.706,21.515 M29.203,17.482c-0.75,0.064-1.123,0.365-1.123,0.365
	c-5.615,2.933-5.615,2.933-5.615,2.933c0,2.935,0,2.935,0,2.935c5.615,2.933,5.615,2.933,5.615,2.933
	c0.482,0.259,0.753,0.417,1.123,0.369c1.328-0.173,1.5-1.835,1.5-1.835c0-5.868,0-5.868,0-5.868
	C30.703,17.848,29.953,17.482,29.203,17.482L29.203,17.482z"/>
</svg>
