<?xml version="1.0" encoding="utf-8"?>
<!-- Generator: Adobe Illustrator 15.1.0, SVG Export Plug-In . SVG Version: 6.00 Build 0)  -->
<!DOCTYPE svg PUBLIC "-//W3C//DTD SVG 1.1//EN" "http://www.w3.org/Graphics/SVG/1.1/DTD/svg11.dtd">
<svg version="1.1" id="Layer_1" xmlns="http://www.w3.org/2000/svg" xmlns:xlink="http://www.w3.org/1999/xlink" x="0px" y="0px"
	 width="20px" height="20px" viewBox="0 0 20 20" enable-background="new 0 0 20 20" xml:space="preserve">
<path fill="#010101" d="M10.689,3.728c1.152,0,2.074,0.905,2.074,2.035c0,1.129-0.922,2.033-2.074,2.033
	c-1.153,0-2.076-0.904-2.076-2.033S9.536,3.728,10.689,3.728"/>
<path fill="#010101" d="M10.689,1.922c-2.307,0-3.922,1.807-3.922,3.842c0,2.033,1.615,3.842,3.922,3.842
	c2.074,0,3.92-1.809,3.92-3.842C14.609,3.728,12.766,1.922,10.689,1.922L10.689,1.922z"/>
<path fill="#010101" d="M3.308,6.44c0.461,0,0.691,0.228,0.691,0.68c0,0.452-0.231,0.677-0.691,0.677
	c-0.232,0-0.462-0.225-0.462-0.677C2.845,6.669,3.076,6.44,3.308,6.44"/>
<path fill="#010101" d="M3.308,4.634C2.153,4.634,1,5.764,1,7.12s1.154,2.487,2.308,2.487c1.384,0,2.538-1.13,2.538-2.487
	C5.844,5.764,4.691,4.634,3.308,4.634L3.308,4.634z"/>
<path fill="#010101" d="M10.922,12.09c0.232,0,0.232,0,0.232,0l0,0v0.227c0,3.617,0,3.617,0,3.617v0.225h-0.232
	c-7.15,0-7.15,0-7.15,0c-0.231,0-0.231,0-0.231,0l-0.23-0.225c0-3.617,0-3.617,0-3.617l0.23-0.227l0,0c0,0,0,0,0.231,0
	C10.922,12.09,10.922,12.09,10.922,12.09"/>
<path fill="#010101" d="M10.922,10.284c-7.15,0-7.15,0-7.15,0c-0.923,0-2.307,0.452-2.307,2.032c0,3.617,0,3.617,0,3.617
	c0,0.9,0.692,2.033,2.307,2.033c7.15,0,7.15,0,7.15,0c0.924,0,2.076-0.453,2.076-2.033c0-3.617,0-3.617,0-3.617
	C13,11.412,12.539,10.284,10.922,10.284L10.922,10.284z"/>
<path fill="#010101" d="M17.15,13.672c0,0.902,0,0.902,0,0.902c-1.152-0.451-1.152-0.451-1.152-0.451
	C17.15,13.672,17.15,13.672,17.15,13.672"/>
<path fill="#010101" d="M18.076,11.188c-0.463,0.039-0.693,0.227-0.693,0.227c-3.461,1.807-3.461,1.807-3.461,1.807
	c0,1.809,0,1.809,0,1.809c3.461,1.809,3.461,1.809,3.461,1.809c0.299,0.16,0.465,0.256,0.693,0.229
	C18.895,16.959,19,15.936,19,15.936c0-3.617,0-3.617,0-3.617C19,11.412,18.537,11.188,18.076,11.188L18.076,11.188z"/>
</svg>
