<?xml version="1.0" encoding="utf-8"?>
<!-- Generator: Adobe Illustrator 15.1.0, SVG Export Plug-In . SVG Version: 6.00 Build 0)  -->
<!DOCTYPE svg PUBLIC "-//W3C//DTD SVG 1.1//EN" "http://www.w3.org/Graphics/SVG/1.1/DTD/svg11.dtd">
<svg version="1.1" id="Layer_1" xmlns="http://www.w3.org/2000/svg" xmlns:xlink="http://www.w3.org/1999/xlink" x="0px" y="0px"
	 width="20px" height="20px" viewBox="0 0 20 20" enable-background="new 0 0 20 20" xml:space="preserve">
<path fill="#F26822" d="M17.36,11.331c-0.188,0.832-0.517,1.609-0.96,2.311l1.3,1.301l-2.28,2.281l-1.301-1.299
	c-0.699,0.443-1.479,0.771-2.312,0.957v1.836H8.582v-1.836c-0.834-0.186-1.613-0.514-2.313-0.957L4.97,17.224l-2.281-2.281
	l1.299-1.301C3.543,12.94,3.217,12.165,3.03,11.33H1.192V8.103h1.835C3.214,7.27,3.543,6.491,3.985,5.791L2.687,4.492L4.968,2.21
	l1.298,1.298C6.967,3.067,7.745,2.74,8.579,2.552V0.714h3.227v1.838c0.831,0.188,1.608,0.515,2.311,0.957l1.3-1.298l2.281,2.281
	L16.398,5.79c0.441,0.701,0.771,1.479,0.959,2.311h1.834v3.227h-1.834v0.003H17.36z M10.193,6.575c-1.736,0-3.142,1.405-3.142,3.141
	c0,1.735,1.405,3.143,3.142,3.143c1.734,0,3.141-1.407,3.141-3.143C13.334,7.98,11.928,6.575,10.193,6.575z"/>
</svg>
