<?xml version="1.0" encoding="utf-8"?>
<!-- Generator: Adobe Illustrator 15.1.0, SVG Export Plug-In . SVG Version: 6.00 Build 0)  -->
<!DOCTYPE svg PUBLIC "-//W3C//DTD SVG 1.1//EN" "http://www.w3.org/Graphics/SVG/1.1/DTD/svg11.dtd">
<svg version="1.1" id="Layer_1" xmlns="http://www.w3.org/2000/svg" xmlns:xlink="http://www.w3.org/1999/xlink" x="0px" y="0px"
	 width="32px" height="32px" viewBox="0 0 32 32" enable-background="new 0 0 32 32" xml:space="preserve">
<g>
	<g>
		<g>
			<circle fill="#F26822" cx="16.235" cy="16.438" r="10.573"/>
		</g>
		<g opacity="0.5" enable-background="new    ">
			<path fill="#F26822" d="M12.515,4.993c1.173-0.38,2.423-0.586,3.72-0.589V1.91c-1.604,0-2.963,0.217-4.486,0.713
				c-0.041,0.012-0.08,0.029-0.121,0.042c0.039-0.014,0.08-0.03,0.119-0.042L12.515,4.993z"/>
		</g>
		<g>
			<path fill="#F26822" d="M27.443,7.195c0.186,0.228,0.365,0.464,0.541,0.706l-2.017,1.466c1.444,1.985,2.3,4.427,2.302,7.068h2.49
				v0.005c0,0.248-0.008,0.492-0.019,0.737c0.011-0.247,0.021-0.493,0.021-0.742C30.764,12.923,29.52,9.706,27.443,7.195z"/>
		</g>
		<g>
			<path fill="#F26822" d="M16.234,28.471c-6.645,0-12.031-5.388-12.031-12.036c0-5.345,3.488-9.872,8.312-11.441l-0.768-2.371
				c-0.039,0.012-0.08,0.029-0.119,0.042c-0.18,0.059-0.356,0.119-0.532,0.184c-0.05,0.022-0.1,0.039-0.148,0.06
				c-5.463,2.11-9.003,7.063-9.229,12.936c-0.004,0.136-0.006,0.272-0.009,0.413c0,0.058-0.003,0.121-0.003,0.181
				c0,0.012,0.002,0.021,0.002,0.035c0.001,0.194,0.007,0.389,0.018,0.581c0.002,0.057,0.003,0.116,0.005,0.174
				c0.006,0.15,0.021,0.301,0.031,0.453c0.011,0.105,0.02,0.209,0.031,0.313c0.007,0.083,0.021,0.166,0.032,0.249
				c0.019,0.175,0.043,0.349,0.072,0.52c0,0.01,0.003,0.021,0.003,0.027c0.204,1.236,0.56,2.419,1.053,3.529
				c0.061,0.139,0.122,0.275,0.186,0.412c0,0,0.003,0.008,0.006,0.011c2.14,4.432,6.461,7.61,11.571,8.143
				c0.027,0.003,0.058,0.005,0.086,0.009c0.173,0.02,0.345,0.027,0.519,0.039c0.087,0.008,0.176,0.012,0.265,0.017
				c0.114,0.005,0.232,0.006,0.347,0.009c0.101,0.002,0.202,0.008,0.303,0.008c3.193,0,6.142-1.033,8.539-2.775l-1.467-2.021
				C21.32,27.615,18.879,28.471,16.234,28.471z"/>
		</g>
		<g>
			<path fill="#F8991D" d="M16.234,4.404c4.002,0,7.545,1.957,9.734,4.962L27.984,7.9c-0.176-0.241-0.355-0.478-0.541-0.706
				c-2.639-3.242-6.246-5.063-10.428-5.262c-0.261-0.012-0.52-0.023-0.779-0.023h-0.003l0,0V4.404L16.234,4.404z"/>
		</g>
		<g>
			<path fill="#F8991D" d="M30.761,16.435H28.27l0,0l0,0c0,2.504-0.764,4.829-2.071,6.752c-0.784,1.153-1.765,2.164-2.892,2.981
				l1.467,2.021l0.002-0.002c0.228-0.166,0.453-0.338,0.67-0.514c3.074-2.488,4.875-5.849,5.242-9.74
				c0.002-0.024,0.002-0.055,0.004-0.08c0.021-0.199,0.035-0.397,0.047-0.602c0.002-0.011,0-0.021,0.002-0.033
				c0-0.011,0-0.027,0.003-0.042c0.011-0.245,0.019-0.489,0.019-0.737L30.761,16.435L30.761,16.435z"/>
		</g>
	</g>
	<g>
		<path fill="#FFFFFF" d="M17.991,24.468h-3.512v-1.643c-0.53-0.146-1.039-0.356-1.518-0.629l-1.163,1.162l-2.483-2.483l1.162-1.163
			c-0.272-0.478-0.483-0.985-0.629-1.518H8.206v-3.513h1.643c0.146-0.53,0.356-1.038,0.629-1.517l-1.162-1.163l2.483-2.484
			l1.163,1.163c0.477-0.271,0.985-0.482,1.518-0.629V8.407h3.512v1.646c0.531,0.146,1.04,0.357,1.518,0.628l1.163-1.164l2.483,2.484
			l-1.163,1.163c0.272,0.479,0.483,0.987,0.63,1.517h1.643v3.512h-1.651c-0.149,0.556-0.356,1.054-0.621,1.52l1.163,1.163
			l-2.483,2.483l-1.163-1.162c-0.477,0.271-0.985,0.482-1.518,0.629V24.468z M15.251,23.696h1.968v-1.481l0.301-0.068
			c0.657-0.147,1.276-0.404,1.841-0.763l0.261-0.165l1.05,1.048l1.392-1.392l-1.048-1.049l0.165-0.261
			c0.359-0.569,0.616-1.188,0.763-1.842v-0.386l0.377,0.083h1.173v-1.968h-1.481l-0.068-0.301c-0.146-0.653-0.403-1.272-0.764-1.841
			l-0.165-0.261l1.049-1.048l-1.392-1.392l-1.049,1.049l-0.261-0.165c-0.566-0.358-1.186-0.615-1.842-0.764l-0.301-0.068V9.179
			h-1.968v1.482l-0.301,0.068c-0.659,0.149-1.279,0.406-1.842,0.764l-0.261,0.166l-1.049-1.049l-1.391,1.392l1.047,1.048
			l-0.165,0.261c-0.359,0.568-0.616,1.188-0.764,1.841l-0.068,0.301h-1.48v1.969h1.48l0.068,0.301
			c0.148,0.656,0.405,1.276,0.763,1.841l0.166,0.261l-1.048,1.05l1.391,1.392l1.048-1.048l0.261,0.165
			c0.567,0.359,1.187,0.616,1.841,0.763l0.302,0.068V23.696z M16.236,19.491c-1.684,0-3.054-1.369-3.054-3.053
			s1.37-3.054,3.054-3.054c1.683,0,3.052,1.37,3.052,3.054S17.919,19.491,16.236,19.491z M16.236,14.156
			c-1.258,0-2.282,1.023-2.282,2.282s1.023,2.282,2.282,2.282c1.257,0,2.281-1.023,2.281-2.282S17.493,14.156,16.236,14.156z"/>
	</g>
</g>
</svg>
