<?xml version="1.0" encoding="utf-8"?>
<!-- Generator: Adobe Illustrator 15.1.0, SVG Export Plug-In . SVG Version: 6.00 Build 0)  -->
<!DOCTYPE svg PUBLIC "-//W3C//DTD SVG 1.1//EN" "http://www.w3.org/Graphics/SVG/1.1/DTD/svg11.dtd">
<svg version="1.1" id="Layer_1" xmlns="http://www.w3.org/2000/svg" xmlns:xlink="http://www.w3.org/1999/xlink" x="0px" y="0px"
	 width="32px" height="32px" viewBox="0 0 32 32" enable-background="new 0 0 32 32" xml:space="preserve">
<path fill="#010101" d="M24.27,4.561C12.992,20.043,12.992,20.043,12.992,20.043C7.866,15.4,7.866,15.4,7.866,15.4
	c-1.538-1.034-3.588-1.034-5.126,0c-1.538,1.548-1.538,3.613,0,5.16c7.689,6.709,7.689,6.709,7.689,6.709
	c0.511,1.032,1.538,1.032,2.563,1.032c1.025,0,1.538,0,2.563-0.513C29.396,9.723,29.396,9.723,29.396,9.723
	c1.539-1.033,1.539-3.613,0-5.162C27.857,3.013,25.809,3.013,24.27,4.561L24.27,4.561z"/>
</svg>
