<?xml version="1.0" encoding="utf-8"?>
<!-- Generator: Adobe Illustrator 15.1.0, SVG Export Plug-In . SVG Version: 6.00 Build 0)  -->
<!DOCTYPE svg PUBLIC "-//W3C//DTD SVG 1.1//EN" "http://www.w3.org/Graphics/SVG/1.1/DTD/svg11.dtd">
<svg version="1.1" id="Layer_1" xmlns="http://www.w3.org/2000/svg" xmlns:xlink="http://www.w3.org/1999/xlink" x="0px" y="0px"
	 width="32px" height="32px" viewBox="0 0 32 32" enable-background="new 0 0 32 32" xml:space="preserve">
<g>
	<path stroke="#000000" stroke-miterlimit="10" d="M6.976,22.785"/>
</g>
<g>
	<path d="M20.91,23.039H7.795"/>
	<path d="M20.91,23.539H7.795c-0.276,0-0.5-0.224-0.5-0.5s0.224-0.5,0.5-0.5H20.91c0.276,0,0.5,0.224,0.5,0.5
		S21.187,23.539,20.91,23.539z"/>
</g>
<g>
	<path d="M21.129,21.107H7.57c-1.321,0-2.396-1.075-2.396-2.396s1.075-2.396,2.396-2.396h13.562c1.32,0.005,2.394,1.08,2.394,2.396
		C23.525,20.032,22.45,21.107,21.129,21.107z M7.57,17.314c-0.77,0-1.396,0.626-1.396,1.396S6.8,20.107,7.57,20.107h13.559
		c0.771,0,1.396-0.626,1.396-1.396c0-0.768-0.626-1.394-1.396-1.396H7.57z"/>
</g>
<g>
	<path d="M15.597,16.522h-3.113l-0.015-0.485c0-0.012-0.04-1.262-0.259-3.647c-0.096-1.021-0.496-1.837-0.918-2.701
		c-0.521-1.063-1.112-2.268-1.178-3.999c-0.039-1.008,0.269-1.858,0.913-2.527c1.09-1.132,2.845-1.364,3.255-1.364
		c0.409,0,2.158,0.231,3.247,1.361c0.645,0.669,0.952,1.52,0.915,2.529c-0.065,1.732-0.654,2.938-1.174,4.001
		c-0.422,0.863-0.82,1.678-0.916,2.7c-0.223,2.383-0.257,3.632-0.257,3.645l-0.013,0.487L15.597,16.522z M13.447,15.522h1.67
		c0.028-0.573,0.094-1.648,0.241-3.225c0.113-1.204,0.57-2.14,1.013-3.046c0.499-1.022,1.016-2.079,1.072-3.599
		c0.027-0.738-0.181-1.326-0.636-1.798c-0.839-0.872-2.278-1.055-2.526-1.055c-0.25,0-1.694,0.184-2.535,1.058
		c-0.454,0.472-0.662,1.059-0.634,1.795c0.059,1.519,0.576,2.575,1.077,3.597c0.444,0.907,0.903,1.844,1.017,3.048
		C13.351,13.875,13.417,14.95,13.447,15.522z"/>
</g>
<g>
	<g>
		<path d="M20.816,30.801c-0.26,0-0.513-0.104-0.695-0.287l-2.927-2.934c-0.179-0.17-0.287-0.427-0.287-0.696
			c0-0.264,0.102-0.511,0.286-0.697l0.683-0.688c0.378-0.368,1.03-0.36,1.391-0.003l1.551,1.56l4.863-4.868
			c0.372-0.362,1.007-0.366,1.384-0.01l0.697,0.694c0.181,0.178,0.287,0.434,0.287,0.698c-0.015,0.284-0.117,0.523-0.291,0.699
			l-6.242,6.242C21.326,30.697,21.073,30.801,20.816,30.801z M18.561,26.204l-0.657,0.687l2.914,2.905l6.231-6.231l-0.682-0.669
			l-5.552,5.576L18.561,26.204z"/>
	</g>
</g>
</svg>
