<?xml version="1.0" encoding="utf-8"?>
<!-- Generator: Adobe Illustrator 15.1.0, SVG Export Plug-In . SVG Version: 6.00 Build 0)  -->
<!DOCTYPE svg PUBLIC "-//W3C//DTD SVG 1.1//EN" "http://www.w3.org/Graphics/SVG/1.1/DTD/svg11.dtd">
<svg version="1.1" id="Layer_1" xmlns="http://www.w3.org/2000/svg" xmlns:xlink="http://www.w3.org/1999/xlink" x="0px" y="0px"
	 width="20px" height="20px" viewBox="0 0 20 20" enable-background="new 0 0 20 20" xml:space="preserve">
<g>
	<g>
		<path d="M7.162,17.715c-0.066,0-0.134-0.004-0.205-0.012c-0.946-0.108-1.398-0.838-1.921-1.682
			c-0.598-0.965-1.501-2.422-3.421-3.976c-0.612-0.495-0.707-1.394-0.211-2.005s1.393-0.706,2.005-0.211
			c1.874,1.517,2.951,2.977,3.64,4.038c1.361-2.331,4.271-6.888,10.649-11.322c0.646-0.449,1.534-0.29,1.984,0.357
			c0.449,0.647,0.289,1.535-0.357,1.985c-6.376,4.432-8.897,8.82-10.109,10.929C8.588,16.907,8.124,17.715,7.162,17.715z"/>
	</g>
</g>
</svg>
