<?xml version="1.0" encoding="utf-8"?>
<!-- Generator: Adobe Illustrator 15.1.0, SVG Export Plug-In . SVG Version: 6.00 Build 0)  -->
<!DOCTYPE svg PUBLIC "-//W3C//DTD SVG 1.1//EN" "http://www.w3.org/Graphics/SVG/1.1/DTD/svg11.dtd">
<svg version="1.1" id="Layer_1" xmlns="http://www.w3.org/2000/svg" xmlns:xlink="http://www.w3.org/1999/xlink" x="0px" y="0px"
	 width="32px" height="32px" viewBox="0 0 32 32" enable-background="new 0 0 32 32" xml:space="preserve">
<g>
	<path d="M12.893,26.928c-0.072,0-0.147-0.005-0.226-0.013c-1.075-0.116-1.621-0.998-2.313-2.114
		c-0.849-1.37-2.133-3.44-4.868-5.652c-0.644-0.521-0.744-1.465-0.223-2.109c0.521-0.644,1.464-0.745,2.11-0.223
		c2.971,2.402,4.477,4.709,5.39,6.176c1.683-2.932,5.6-9.71,15.073-16.297c0.679-0.473,1.615-0.306,2.088,0.375
		c0.473,0.68,0.305,1.615-0.375,2.088c-8.965,6.233-12.506,12.403-14.208,15.369C14.494,26.001,13.962,26.928,12.893,26.928z"/>
</g>
</svg>
