<?xml version="1.0" encoding="utf-8"?>
<!-- Generator: Adobe Illustrator 15.1.0, SVG Export Plug-In . SVG Version: 6.00 Build 0)  -->
<!DOCTYPE svg PUBLIC "-//W3C//DTD SVG 1.1//EN" "http://www.w3.org/Graphics/SVG/1.1/DTD/svg11.dtd">
<svg version="1.1" id="Layer_1" xmlns="http://www.w3.org/2000/svg" xmlns:xlink="http://www.w3.org/1999/xlink" x="0px" y="0px"
	 width="20px" height="20px" viewBox="0 0 20 20" enable-background="new 0 0 20 20" xml:space="preserve">
<path fill="#231F20" d="M13.736,14.396c0,0.291-0.236,0.526-0.527,0.526H4.774c-0.292,0-0.527-0.235-0.527-0.526l0,0
	c0-0.29,0.237-0.526,0.527-0.526h8.435C13.5,13.87,13.736,14.104,13.736,14.396L13.736,14.396z"/>
<path fill="#231F20" d="M14.57,11.959c0,0.671-0.545,1.219-1.219,1.219H4.629c-0.673,0-1.219-0.548-1.219-1.219l0,0
	c0-0.674,0.545-1.22,1.219-1.22h8.725C14.025,10.742,14.57,11.289,14.57,11.959L14.57,11.959z"/>
<path fill="#231F20" d="M8.1,10.049c0,0-0.024-0.799-0.167-2.363C7.787,6.124,6.66,5.322,6.586,3.396
	C6.513,1.469,8.708,1.229,8.944,1.229c0.237,0,2.428,0.239,2.355,2.167c-0.072,1.926-1.197,2.727-1.344,4.29
	c-0.146,1.564-0.166,2.363-0.166,2.363H8.1z"/>
<g>
	<path d="M17.385,15.126l-3.572,3.57l-0.441,0.442c-0.059,0.057-0.141,0.09-0.221,0.09s-0.162-0.033-0.221-0.09l-0.439-0.442
		l-1.441-1.443c-0.061-0.057-0.091-0.139-0.091-0.219s0.03-0.162,0.091-0.222l0.438-0.438c0.059-0.058,0.138-0.09,0.22-0.09
		c0.083,0,0.163,0.032,0.221,0.09l1.226,1.229l3.355-3.357c0.057-0.059,0.137-0.09,0.221-0.09c0.08,0,0.16,0.031,0.221,0.09
		l0.439,0.439c0.059,0.057,0.09,0.141,0.09,0.221C17.475,14.986,17.443,15.067,17.385,15.126z"/>
</g>
</svg>
