<?xml version="1.0" encoding="utf-8"?>
<!-- Generator: Adobe Illustrator 15.1.0, SVG Export Plug-In . SVG Version: 6.00 Build 0)  -->
<!DOCTYPE svg PUBLIC "-//W3C//DTD SVG 1.1//EN" "http://www.w3.org/Graphics/SVG/1.1/DTD/svg11.dtd">
<svg version="1.1" id="Layer_1" xmlns="http://www.w3.org/2000/svg" xmlns:xlink="http://www.w3.org/1999/xlink" x="0px" y="0px"
	 width="20px" height="20px" viewBox="0 0 20 20" enable-background="new 0 0 20 20" xml:space="preserve">
<g>
	<path d="M6.132,16.354v0.98h11.364v-9.09h-3.693c-0.469,0-0.854-0.385-0.854-0.853V3.696H6.132v2.332l-1.138,0.02V3.413
		c0-0.472,0.383-0.853,0.854-0.853h7.957c0.471,0,1.129,0.273,1.457,0.605l2.771,2.769c0.329,0.329,0.604,0.987,0.604,1.458v10.229
		c0,0.467-0.385,0.852-0.854,0.852H5.848c-0.471,0-0.854-0.385-0.854-0.852v-1.264L6.132,16.354z"/>
</g>
<g>
	<path d="M12.063,9.377h2.877c0.162,0,0.287,0.125,0.287,0.284v0.568c0,0.16-0.125,0.287-0.287,0.287h-2.877
		c-0.16,0-0.285-0.125-0.285-0.287V9.663C11.775,9.502,11.902,9.377,12.063,9.377z"/>
</g>
<g>
	<path d="M15.223,11.936v0.566c0,0.161-0.125,0.285-0.283,0.285h-3.721c-0.16,0-0.285-0.124-0.285-0.285v-0.566
		c0-0.162,0.125-0.285,0.285-0.285h3.725C15.098,11.65,15.223,11.773,15.223,11.936z"/>
</g>
<g>
	<path d="M15.223,14.209v0.563c0,0.162-0.125,0.287-0.283,0.287h-4.901c-0.16,0-0.285-0.125-0.285-0.287v-0.563
		c0-0.162,0.125-0.285,0.285-0.285h4.901C15.098,13.922,15.223,14.047,15.223,14.209z"/>
</g>
<g>
	<path d="M14.086,7.105h3.34c-0.053-0.15-0.133-0.3-0.191-0.363l-2.78-2.778c-0.063-0.061-0.213-0.142-0.361-0.195L14.086,7.105
		L14.086,7.105z"/>
</g>
<g>
	<rect x="0.635" y="4.23" fill="#020202" width="2.972" height="2.771"/>
	<path fill="#020202" d="M3.671,7.065H0.57v-2.9h3.101V7.065z M0.699,6.937h2.843V4.294H0.699V6.937z"/>
</g>
<g>
	<rect x="5.015" y="7.793" fill="#020202" width="2.972" height="2.773"/>
	<path fill="#020202" d="M8.051,10.631H4.951V7.729h3.101V10.631z M5.08,10.502h2.843V7.857H5.08V10.502z"/>
</g>
<g>
	<rect x="5.042" y="12.365" fill="#020202" width="2.972" height="2.77"/>
	<path fill="#020202" d="M8.079,15.199H4.978v-2.898h3.101V15.199z M5.106,15.07H7.95V12.43H5.106V15.07z"/>
</g>
<g>
	<polygon points="5.29,14.263 1.606,14.263 1.606,6.968 2.634,6.968 2.634,13.233 5.29,13.233 	"/>
</g>
<g>
	<rect x="2.096" y="8.667" width="3.167" height="1.028"/>
</g>
</svg>
