<?xml version="1.0" encoding="utf-8"?>
<!-- Generator: Adobe Illustrator 15.1.0, SVG Export Plug-In . SVG Version: 6.00 Build 0)  -->
<!DOCTYPE svg PUBLIC "-//W3C//DTD SVG 1.1//EN" "http://www.w3.org/Graphics/SVG/1.1/DTD/svg11.dtd">
<svg version="1.1" id="Layer_1" xmlns="http://www.w3.org/2000/svg" xmlns:xlink="http://www.w3.org/1999/xlink" x="0px" y="0px"
	 width="32px" height="32px" viewBox="0 0 32 32" enable-background="new 0 0 32 32" xml:space="preserve">
<g>
	<g>
		<path d="M10.388,25.791v1.65h19.129V12.137H23.3c-0.791,0-1.438-0.644-1.438-1.435v-6.22H10.388v3.926L8.473,8.443V4.005
			c0-0.793,0.644-1.436,1.437-1.436h13.392c0.791,0,1.896,0.463,2.451,1.018l4.664,4.664c0.551,0.553,1.017,1.658,1.017,2.451V27.92
			c0,0.793-0.644,1.436-1.437,1.436H9.909c-0.793,0-1.437-0.643-1.437-1.436v-2.127L10.388,25.791z M20.369,14.049h4.847
			c0.271,0,0.479,0.21,0.479,0.478v0.958c0,0.269-0.209,0.479-0.479,0.479h-4.847c-0.27,0-0.479-0.211-0.479-0.479v-0.958
			C19.891,14.259,20.102,14.049,20.369,14.049z M25.691,18.352v0.959c0,0.271-0.209,0.479-0.479,0.479H18.95
			c-0.271,0-0.479-0.209-0.479-0.479v-0.959c0-0.268,0.209-0.477,0.479-0.477h6.265C25.482,17.875,25.691,18.084,25.691,18.352z
			 M25.691,22.182v0.953c0,0.271-0.209,0.48-0.479,0.48h-8.248c-0.271,0-0.48-0.209-0.48-0.48v-0.953
			c0-0.271,0.208-0.479,0.48-0.479h8.248C25.482,21.701,25.691,21.912,25.691,22.182z M23.779,10.224h5.619
			c-0.088-0.254-0.228-0.508-0.328-0.612l-4.68-4.68c-0.104-0.104-0.357-0.239-0.611-0.328V10.224z"/>
	</g>
</g>
<g>
	<g>
		<path fill="#020202" d="M6.885,10.8h-6.5V4.633h6.5V10.8z M1.885,9.3h3.5V6.133h-3.5V9.3z"/>
	</g>
	<g>
		<path fill="#020202" d="M14.261,16.8h-6.5v-6.167h6.5V16.8z M9.261,15.3h3.5v-3.167h-3.5V15.3z"/>
	</g>
	<g>
		<path fill="#020202" d="M14.303,24.493h-6.5v-6.166h6.5V24.493z M9.303,22.993h3.5v-3.166h-3.5V22.993z"/>
	</g>
	<g>
		<polygon points="8.968,22.134 2.912,22.134 2.912,9.992 4.357,9.992 4.357,20.688 8.968,20.688 		"/>
	</g>
	<g>
		<rect x="3.593" y="12.966" width="5.333" height="1.5"/>
	</g>
</g>
</svg>
