<?xml version="1.0" encoding="utf-8"?>
<!-- Generator: Adobe Illustrator 15.1.0, SVG Export Plug-In . SVG Version: 6.00 Build 0)  -->
<!DOCTYPE svg PUBLIC "-//W3C//DTD SVG 1.1//EN" "http://www.w3.org/Graphics/SVG/1.1/DTD/svg11.dtd">
<svg version="1.1" id="Layer_1" xmlns="http://www.w3.org/2000/svg" xmlns:xlink="http://www.w3.org/1999/xlink" x="0px" y="0px"
	 width="20px" height="20px" viewBox="0 0 20 20" enable-background="new 0 0 20 20" xml:space="preserve">
<g>
	<g>
		<path d="M17.982,19.032c-0.341,0-0.683-0.13-0.942-0.391L1.043,2.645c-0.521-0.521-0.521-1.365,0-1.886s1.365-0.521,1.886,0
			l15.996,15.998c0.521,0.521,0.521,1.364,0,1.885C18.665,18.902,18.323,19.032,17.982,19.032z"/>
	</g>
	<g>
		<path d="M1.986,19.032c-0.341,0-0.683-0.13-0.943-0.391c-0.521-0.521-0.521-1.364,0-1.885L17.04,0.759
			c0.52-0.521,1.365-0.521,1.885,0c0.521,0.521,0.521,1.365,0,1.886L2.929,18.642C2.668,18.902,2.327,19.032,1.986,19.032z"/>
	</g>
</g>
</svg>
