<?xml version="1.0" encoding="utf-8"?>
<!-- Generator: Adobe Illustrator 15.1.0, SVG Export Plug-In . SVG Version: 6.00 Build 0)  -->
<!DOCTYPE svg PUBLIC "-//W3C//DTD SVG 1.1//EN" "http://www.w3.org/Graphics/SVG/1.1/DTD/svg11.dtd">
<svg version="1.1" id="Layer_1" xmlns="http://www.w3.org/2000/svg" xmlns:xlink="http://www.w3.org/1999/xlink" x="0px" y="0px"
	 width="32px" height="32px" viewBox="0 0 32 32" enable-background="new 0 0 32 32" xml:space="preserve">
<path fill="#010101" d="M18.604,15.833C30.139,4.321,30.139,4.321,30.139,4.321c0.885-0.885,0.885-1.771,0-2.656
	c-0.445-0.443-1.775-0.443-2.663,0C16.387,13.176,16.387,13.176,16.387,13.176C4.854,1.666,4.854,1.666,4.854,1.666
	c-0.888-0.443-1.776-0.443-2.663,0c-0.887,0.885-0.887,1.771,0,2.656c11.533,11.511,11.533,11.511,11.533,11.511
	C2.191,27.343,2.191,27.343,2.191,27.343c-0.887,0.445-0.887,1.772,0,2.657c0.444,0,0.887,0.442,1.332,0.442
	C3.965,30.442,4.41,30,4.854,30c11.534-11.511,11.534-11.511,11.534-11.511C27.476,30,27.476,30,27.476,30
	c0.445,0,0.888,0.442,1.333,0.442c0.442,0,0.885-0.442,1.33-0.442c0.885-0.885,0.885-2.212,0-2.657L18.604,15.833z"/>
</svg>
