<?xml version="1.0" encoding="utf-8"?>
<!-- Generator: Adobe Illustrator 15.1.0, SVG Export Plug-In . SVG Version: 6.00 Build 0)  -->
<!DOCTYPE svg PUBLIC "-//W3C//DTD SVG 1.1//EN" "http://www.w3.org/Graphics/SVG/1.1/DTD/svg11.dtd">
<svg version="1.1" id="Layer_1" xmlns="http://www.w3.org/2000/svg" xmlns:xlink="http://www.w3.org/1999/xlink" x="0px" y="0px"
	 width="32px" height="32px" viewBox="0 0 32 32" enable-background="new 0 0 32 32" xml:space="preserve">
<g>
	<path d="M30.332,30.807c-0.256,0-0.512-0.098-0.707-0.293L1.484,2.373c-0.391-0.391-0.391-1.023,0-1.414s1.023-0.391,1.414,0
		L31.039,29.1c0.391,0.391,0.391,1.023,0,1.414C30.844,30.709,30.588,30.807,30.332,30.807z"/>
</g>
<g>
	<path d="M2.191,30.807c-0.256,0-0.512-0.098-0.707-0.293c-0.391-0.391-0.391-1.023,0-1.414L29.625,0.959
		c0.391-0.391,1.023-0.391,1.414,0s0.391,1.023,0,1.414L2.898,30.514C2.703,30.709,2.447,30.807,2.191,30.807z"/>
</g>
</svg>
