<?xml version="1.0" encoding="utf-8"?>
<!-- Generator: Adobe Illustrator 15.1.0, SVG Export Plug-In . SVG Version: 6.00 Build 0)  -->
<!DOCTYPE svg PUBLIC "-//W3C//DTD SVG 1.1//EN" "http://www.w3.org/Graphics/SVG/1.1/DTD/svg11.dtd">
<svg version="1.1" id="Layer_1" xmlns="http://www.w3.org/2000/svg" xmlns:xlink="http://www.w3.org/1999/xlink" x="0px" y="0px"
	 width="24px" height="24px" viewBox="0 0 32 32" enable-background="new 0 0 32 32" xml:space="preserve">
<path d="M29.034,10.093c0-0.376,0-0.376,0-0.376l0,0c0-0.377-12.235-7.535-12.235-7.535c-0.371-0.378-1.111-0.378-1.482,0
	C3.821,8.963,3.079,9.717,3.079,9.717l0,0c0,0.376,0,0.376,0,0.376c0,13.562,0,13.562,0,13.562c0,0.379,0.371,1.135,0.742,1.135
	c11.495,6.777,11.495,6.777,11.495,6.777c0.406,0.168,1.282,0.23,1.483,0l0,0c11.493-6.777,11.493-6.777,11.493-6.777
	c0.365-0.271,0.741-0.756,0.741-1.135C29.034,10.093,29.034,10.093,29.034,10.093L29.034,10.093L29.034,10.093L29.034,10.093
	L29.034,10.093z"/>
<path fill="#0000FF" d="M14.575,27.799c-8.528-4.896-8.528-4.896-8.528-4.896c0-10.167,0-10.167,0-10.167
	c8.528,4.898,8.528,4.898,8.528,4.898V27.799z"/>
<path fill="#00FF00" d="M26.068,22.902c-8.528,4.896-8.528,4.896-8.528,4.896c0-10.169,0-10.169,0-10.169
	c8.528-4.898,8.528-4.898,8.528-4.898V22.902z"/>
<path fill="#FF0000" d="M16.257,15.384c-7.23-4.249-7.23-4.249-7.23-4.249c-1.522-0.771-1.522-0.771-1.522-0.771
	c8.752-5.021,8.752-5.021,8.752-5.021c8.751,5.021,8.751,5.021,8.751,5.021L16.257,15.384z"/>
</svg>
