<?xml version="1.0" encoding="utf-8"?>
<!-- Generator: Adobe Illustrator 15.1.0, SVG Export Plug-In . SVG Version: 6.00 Build 0)  -->
<!DOCTYPE svg PUBLIC "-//W3C//DTD SVG 1.1//EN" "http://www.w3.org/Graphics/SVG/1.1/DTD/svg11.dtd">
<svg version="1.1" id="Layer_1" xmlns="http://www.w3.org/2000/svg" xmlns:xlink="http://www.w3.org/1999/xlink" x="0px" y="0px"
	 width="20px" height="20px" viewBox="0 0 20 20" enable-background="new 0 0 20 20" xml:space="preserve">
<path fill="#010101" d="M18.17,6.315c0-0.226,0-0.226,0-0.226l0,0c0-0.228-7.385-4.549-7.385-4.549
	c-0.225-0.229-0.671-0.229-0.896,0C2.95,5.634,2.501,6.09,2.501,6.09l0,0c0,0.226,0,0.226,0,0.226c0,8.189,0,8.189,0,8.189
	c0,0.227,0.224,0.682,0.448,0.682c6.938,4.095,6.938,4.095,6.938,4.095c0.244,0.101,0.772,0.137,0.896,0l0,0
	c6.938-4.095,6.938-4.095,6.938-4.095c0.221-0.162,0.449-0.455,0.449-0.682C18.17,6.315,18.17,6.315,18.17,6.315L18.17,6.315
	L18.17,6.315L18.17,6.315L18.17,6.315z"/>
<path fill="#0000FF" d="M9.444,17.004c-5.147-2.955-5.147-2.955-5.147-2.955c0-6.139,0-6.139,0-6.139
	c5.147,2.958,5.147,2.958,5.147,2.958V17.004z"/>
<path fill="#00FF00" d="M16.381,14.052c-5.146,2.955-5.146,2.955-5.146,2.955c0-6.139,0-6.139,0-6.139
	c5.146-2.958,5.146-2.958,5.146-2.958V14.052z"/>
<path fill="#FF0000" d="M10.458,9.511C6.093,6.946,6.093,6.946,6.093,6.946C5.175,6.48,5.175,6.48,5.175,6.48
	c5.283-3.031,5.283-3.031,5.283-3.031c5.281,3.031,5.281,3.031,5.281,3.031L10.458,9.511z"/>
</svg>
