<?xml version="1.0" encoding="utf-8"?>
<!-- Generator: Adobe Illustrator 15.1.0, SVG Export Plug-In . SVG Version: 6.00 Build 0)  -->
<!DOCTYPE svg PUBLIC "-//W3C//DTD SVG 1.1//EN" "http://www.w3.org/Graphics/SVG/1.1/DTD/svg11.dtd">
<svg version="1.1" id="Layer_1" xmlns="http://www.w3.org/2000/svg" xmlns:xlink="http://www.w3.org/1999/xlink" x="0px" y="0px"
	 width="20px" height="20px" viewBox="0 0 20 20" enable-background="new 0 0 20 20" xml:space="preserve">
<path fill="#050505" d="M16.341,9.471c-0.954,0-1.795,0.468-2.313,1.186h-0.396V6.425H9.071V5.722
	c0.641-0.522,1.05-1.314,1.05-2.204c0-1.573-1.281-2.85-2.852-2.85c-1.576,0-2.85,1.277-2.85,2.85c0,0.889,0.406,1.681,1.046,2.204
	v0.703H1.191v4.231h0.824C2.533,9.939,3.374,9.47,4.326,9.47c1.575,0,2.85,1.276,2.85,2.851c0,1.572-1.275,2.849-2.85,2.849
	c-0.952,0-1.795-0.471-2.312-1.188H1.191v4.508h12.444v-4.508h0.394c0.517,0.717,1.36,1.188,2.313,1.188
	c1.575,0,2.851-1.275,2.851-2.849C19.188,10.746,17.915,9.471,16.341,9.471z"/>
</svg>
