<?xml version="1.0" encoding="utf-8"?>
<!-- Generator: Adobe Illustrator 15.1.0, SVG Export Plug-In . SVG Version: 6.00 Build 0)  -->
<!DOCTYPE svg PUBLIC "-//W3C//DTD SVG 1.1//EN" "http://www.w3.org/Graphics/SVG/1.1/DTD/svg11.dtd">
<svg version="1.1" id="Layer_1" xmlns="http://www.w3.org/2000/svg" xmlns:xlink="http://www.w3.org/1999/xlink" x="0px" y="0px"
	 width="32px" height="32px" viewBox="0 0 32 32" enable-background="new 0 0 32 32" xml:space="preserve">
<g>
	<path d="M27.294,1.265c-22.641,0-22.641,0-22.641,0c-1.856,0-3.341,1.855-3.341,3.71c0,22.629,0,22.629,0,22.629
		c0,1.854,1.484,3.338,3.341,3.338c22.641,0,22.641,0,22.641,0c1.855,0,3.34-1.484,3.34-3.338c0-22.629,0-22.629,0-22.629
		C30.634,3.12,29.149,1.265,27.294,1.265L27.294,1.265z M28.406,27.604c0,0.741-0.371,1.111-1.112,1.111
		c-22.641,0-22.641,0-22.641,0c-0.743,0-1.114-0.37-1.114-1.111c0-22.629,0-22.629,0-22.629c0-0.742,0.371-1.113,1.114-1.113
		c22.641,0,22.641,0,22.641,0c0.741,0,1.112,0.372,1.112,1.113V27.604z"/>
</g>
<circle stroke="#000000" stroke-miterlimit="10" cx="10.71" cy="10.771" r="4.058"/>
<rect x="17.278" y="7.102" fill="none" stroke="#000000" stroke-width="0.8468" stroke-miterlimit="10" width="7.338" height="7.339"/>
<circle fill="none" stroke="#000000" stroke-width="0.8468" stroke-miterlimit="10" cx="10.71" cy="21.521" r="4.058"/>
<rect x="17.278" y="17.852" stroke="#000000" stroke-miterlimit="10" width="7.338" height="7.34"/>
</svg>
