<?xml version="1.0" encoding="utf-8"?>
<!-- Generator: Adobe Illustrator 15.1.0, SVG Export Plug-In . SVG Version: 6.00 Build 0)  -->
<!DOCTYPE svg PUBLIC "-//W3C//DTD SVG 1.1//EN" "http://www.w3.org/Graphics/SVG/1.1/DTD/svg11.dtd">
<svg version="1.1" id="Layer_1" xmlns="http://www.w3.org/2000/svg" xmlns:xlink="http://www.w3.org/1999/xlink" x="0px" y="0px"
	 width="32px" height="32px" viewBox="0 0 32 32" enable-background="new 0 0 32 32" xml:space="preserve">
<path d="M14.566,15.048H1.625V2.107h12.941V15.048z M14.566,30.576H1.625V17.635h12.941V30.576z M11.977,12.459V4.696H4.213v7.764
	H11.977z M11.977,27.969v-7.745H4.213v7.745H11.977z M9.389,9.871H6.802V7.284h2.587V9.871z M9.389,25.399H6.802v-2.588h2.587
	V25.399z M30.094,15.048h-12.94V2.107h12.94V15.048z M30.094,25.399h-7.765v-2.588h-2.585v7.765h-2.591V17.635h7.764v2.589h2.589
	v-2.589h2.588V25.399z M27.506,12.459V4.696h-7.762v7.764H27.506z M24.917,9.871h-2.588V7.284h2.588V9.871z M24.917,30.576h-2.588
	v-2.587h2.588V30.576z M30.094,30.576h-2.588v-2.587h2.588V30.576z"/>
</svg>
