<?xml version="1.0" encoding="utf-8"?>
<!-- Generator: Adobe Illustrator 15.1.0, SVG Export Plug-In . SVG Version: 6.00 Build 0)  -->
<!DOCTYPE svg PUBLIC "-//W3C//DTD SVG 1.1//EN" "http://www.w3.org/Graphics/SVG/1.1/DTD/svg11.dtd">
<svg version="1.1" id="Layer_1" xmlns="http://www.w3.org/2000/svg" xmlns:xlink="http://www.w3.org/1999/xlink" x="0px" y="0px"
	 width="32px" height="32px" viewBox="0 0 32 32" enable-background="new 0 0 32 32" xml:space="preserve">
<g>
	<path fill="#050505" d="M22.764,30.797H1.432v-8.682h2.444L4.1,22.427c0.715,0.99,1.865,1.581,3.076,1.581
		c2.09,0,3.791-1.699,3.791-3.787c0-2.091-1.701-3.792-3.791-3.792c-1.214,0-2.363,0.59-3.074,1.578l-0.225,0.313H1.43v-8.242
		l6.81-0.032C7.178,9.048,6.575,7.664,6.575,6.193c0-2.918,2.374-5.292,5.292-5.292c2.918,0,5.293,2.374,5.293,5.292
		c0,1.469-0.604,2.853-1.669,3.852v0.032h7.269v6.24c0.967-0.882,2.239-1.388,3.566-1.388c2.916,0,5.291,2.374,5.294,5.292
		c0,2.916-2.374,5.288-5.291,5.288c-1.326,0-2.599-0.505-3.565-1.386V30.797z M2.932,29.297h18.332v-7.182h1.763l0.225,0.312
		c0.714,0.99,1.864,1.581,3.078,1.581c2.091,0,3.791-1.699,3.791-3.787c-0.002-2.091-1.704-3.792-3.794-3.792
		c-1.212,0-2.362,0.59-3.075,1.579l-0.225,0.312H21.26v-6.742h-7.269V9.35l0.275-0.225C15.152,8.4,15.66,7.332,15.66,6.193
		c0-2.091-1.702-3.792-3.793-3.792c-2.091,0-3.792,1.701-3.792,3.792c0,1.141,0.506,2.209,1.39,2.932L9.74,9.35v2.227H2.93v5.242
		h0.197c1-1.19,2.485-1.89,4.049-1.89c2.917,0,5.291,2.375,5.291,5.292c0,2.915-2.374,5.287-5.291,5.287
		c-1.56,0-3.046-0.701-4.049-1.893H2.932V29.297z"/>
</g>
</svg>
