<?xml version="1.0" encoding="utf-8"?>
<!-- Generator: Adobe Illustrator 15.1.0, SVG Export Plug-In . SVG Version: 6.00 Build 0)  -->
<!DOCTYPE svg PUBLIC "-//W3C//DTD SVG 1.1//EN" "http://www.w3.org/Graphics/SVG/1.1/DTD/svg11.dtd">
<svg version="1.1" id="Layer_1" xmlns="http://www.w3.org/2000/svg" xmlns:xlink="http://www.w3.org/1999/xlink" x="0px" y="0px"
	 width="20px" height="20px" viewBox="0 0 20 20" enable-background="new 0 0 20 20" xml:space="preserve">
<g>
	<rect x="0.924" y="2.561" width="1.508" height="1.262"/>
</g>
<g>
	<rect x="7.021" y="2.561" width="11.572" height="1.262"/>
</g>
<g>
	<rect x="0.924" y="9.322" width="10.611" height="1.262"/>
</g>
<g>
	<rect x="15.305" y="9.322" width="3.288" height="1.262"/>
</g>
<g>
	<rect x="0.924" y="16.178" width="4.778" height="1.262"/>
</g>
<g>
	<rect x="9.248" y="16.178" width="9.345" height="1.262"/>
</g>
<g>
	<circle cx="4.72" cy="3.193" r="1.909"/>
	<path d="M4.72,5.733c-1.401,0-2.54-1.139-2.54-2.54c0-1.4,1.139-2.54,2.54-2.54c1.4,0,2.54,1.139,2.54,2.54
		C7.26,4.594,6.121,5.733,4.72,5.733z M4.72,1.915c-0.705,0-1.278,0.573-1.278,1.278S4.016,4.471,4.72,4.471
		s1.278-0.574,1.278-1.278S5.425,1.915,4.72,1.915z"/>
</g>
<g>
	<circle cx="7.483" cy="16.808" r="1.909"/>
	<path d="M7.483,19.348c-1.4,0-2.54-1.139-2.54-2.539c0-1.401,1.139-2.541,2.54-2.541c1.401,0,2.54,1.14,2.54,2.541
		C10.023,18.209,8.884,19.348,7.483,19.348z M7.483,15.529c-0.705,0-1.278,0.574-1.278,1.279c0,0.704,0.573,1.277,1.278,1.277
		s1.278-0.573,1.278-1.277C8.761,16.104,8.188,15.529,7.483,15.529z"/>
</g>
<g>
	<circle cx="13.205" cy="9.952" r="1.91"/>
	<path d="M13.205,12.492c-1.401,0-2.541-1.14-2.541-2.54c0-1.401,1.14-2.541,2.541-2.541s2.541,1.14,2.541,2.541
		C15.746,11.353,14.606,12.492,13.205,12.492z M13.205,8.673c-0.705,0-1.279,0.574-1.279,1.279s0.574,1.278,1.279,1.278
		s1.279-0.573,1.279-1.278S13.91,8.673,13.205,8.673z"/>
</g>
</svg>
