<?xml version="1.0" encoding="utf-8"?>
<!-- Generator: Adobe Illustrator 15.1.0, SVG Export Plug-In . SVG Version: 6.00 Build 0)  -->
<!DOCTYPE svg PUBLIC "-//W3C//DTD SVG 1.1//EN" "http://www.w3.org/Graphics/SVG/1.1/DTD/svg11.dtd">
<svg version="1.1" id="Layer_1" xmlns="http://www.w3.org/2000/svg" xmlns:xlink="http://www.w3.org/1999/xlink" x="0px" y="0px"
	 width="32px" height="32px" viewBox="0 0 32 32" enable-background="new 0 0 32 32" xml:space="preserve">
<path fill="#010101" d="M28.519,4.157c-17.025,0-17.025,0-17.025,0c-0.378-1.55-1.891-2.713-3.782-2.713
	c-1.513,0-3.027,1.163-3.405,2.713c-0.377,0-0.377,0-0.377,0c-0.757,0-1.136,0.775-1.136,1.163s0,0.388,0,0.388
	c0,0.387,0.379,0.775,1.136,0.775c0.377,0,0.377,0,0.377,0C4.685,8.42,6.198,9.583,7.711,9.583c1.892,0,3.404-1.163,3.782-3.101
	c17.025,0,17.025,0,17.025,0c0.378,0,1.135-0.388,1.135-0.775c0-0.388,0-0.388,0-0.388C29.653,4.932,28.896,4.157,28.519,4.157
	L28.519,4.157z M7.711,7.646c-0.756,0-1.892-0.775-1.892-1.938c0-1.163,1.136-2.325,1.892-2.325c1.135,0,2.27,1.163,2.27,2.325
	C9.981,6.871,8.847,7.646,7.711,7.646L7.711,7.646z"/>
<path fill="#010101" d="M28.519,15.01c-3.405,0-3.405,0-3.405,0c-0.379-1.551-1.892-2.714-3.782-2.714
	c-1.514,0-3.027,1.163-3.404,2.714c-13.998,0-13.998,0-13.998,0c-0.757,0-1.136,0.387-1.136,1.163l0,0
	c0,0.774,0.379,1.162,1.136,1.162c13.619,0,13.619,0,13.619,0c0.756,1.938,2.27,3.1,3.783,3.1c1.891,0,3.403-1.162,3.782-3.1
	c3.405,0,3.405,0,3.405,0c0.378,0,1.135-0.388,1.135-1.162l0,0C29.653,15.397,28.896,15.01,28.519,15.01L28.519,15.01z
	 M21.331,18.496c-1.136,0-1.893-1.161-1.893-2.323c0-1.163,0.757-1.939,1.893-1.939c1.135,0,2.269,0.776,2.269,1.939
	C23.6,17.335,22.466,18.496,21.331,18.496L21.331,18.496z"/>
<path fill="#010101" d="M28.519,25.86c-10.971,0-10.971,0-10.971,0c-0.757-1.549-1.892-2.712-3.783-2.712
	c-1.514,0-3.027,1.163-3.784,2.712c-6.052,0-6.052,0-6.052,0c-0.757,0-1.136,0.389-1.136,1.163l0,0c0,0.389,0.379,1.164,1.136,1.164
	c6.052,0,6.052,0,6.052,0c0.377,1.549,1.892,2.712,3.784,2.712c1.891,0,3.404-1.163,3.783-2.712c10.971,0,10.971,0,10.971,0
	c0.378,0,1.135-0.775,1.135-1.164l0,0C29.653,26.249,28.896,25.86,28.519,25.86L28.519,25.86z M13.765,28.963
	c-1.136,0-1.892-0.775-1.892-1.939c0-1.163,0.756-1.938,1.892-1.938c1.135,0,1.891,0.775,1.891,1.938
	C15.656,28.188,14.9,28.963,13.765,28.963L13.765,28.963z"/>
</svg>
