<?xml version="1.0" encoding="utf-8"?>
<!-- Generator: Adobe Illustrator 15.1.0, SVG Export Plug-In . SVG Version: 6.00 Build 0)  -->
<!DOCTYPE svg PUBLIC "-//W3C//DTD SVG 1.1//EN" "http://www.w3.org/Graphics/SVG/1.1/DTD/svg11.dtd">
<svg version="1.1" id="Layer_1" xmlns="http://www.w3.org/2000/svg" xmlns:xlink="http://www.w3.org/1999/xlink" x="0px" y="0px"
	 width="20px" height="20px" viewBox="0 0 20 20" enable-background="new 0 0 20 20" xml:space="preserve">
<path d="M4.496,11.68V5.4c0.009-0.031,0.018-0.084,0.038-0.104C4.59,5.222,4.667,5.201,4.723,5.18
	C4.752,5.169,5.33,4.96,6.137,4.658V0.641l5.291,2.07c0.067-0.02,5.968-2.269,6.052-2.269c0.104,0,0.19,0.084,0.19,0.22v4.371
	l1.395,0.494v11.284c-7.33-2.572-7.34-2.572-7.34-2.572c-0.036,0.018,0.238-0.285-0.367-0.059 M11.447,13.922V3.13L4.866,5.566
	l-0.042,6.032L11.447,13.922z M9.455,9.166C9.364,9.119,8.951,8.865,8.846,8.787C8.741,8.711,8.342,8.347,8.293,8.324
	c-0.254,0.425-0.576,0.929-0.939,1.4c-0.126,0.163-0.504,0.688-0.736,0.852c-0.035,0.021-0.238,0.047-0.268,0.029
	c0.113-0.094,0.436-0.532,0.576-0.711C7.1,9.669,7.935,8.385,8.074,8.091c0.146-0.294,0.589-1.268,0.61-1.359
	c-0.07-0.008-0.624,0.201-0.771,0.256C7.772,7.033,7.387,7.133,7.359,7.156C7.331,7.187,7.353,7.281,7.338,7.31
	c-0.014,0.033-0.14,0.102-0.217,0.116c-0.07,0.024-0.23,0.031-0.33,0C6.7,7.402,6.616,7.302,6.596,7.264
	c0,0-0.028-0.046-0.035-0.178c0.084-0.032,0.224-0.039,0.378-0.085c0.153-0.045,0.532-0.169,0.735-0.248
	c0.203-0.077,0.597-0.239,0.715-0.271c0.125-0.021,0.44-0.254,0.609-0.316c0.168-0.061,0.288-0.141,0.295-0.1
	c0.006,0.039,0,0.207-0.007,0.254C9.279,6.359,8.943,7.085,8.895,7.201C8.865,7.263,8.67,7.671,8.354,8.214
	c0.113,0.054,0.351,0.162,0.449,0.215C8.922,8.492,9.756,8.88,9.797,8.894C9.84,8.91,9.918,9.266,9.902,9.326
	C9.889,9.384,9.547,9.207,9.455,9.166z M8.439,5.789c-0.07,0.146-0.245,0.248-0.35,0.294C7.984,6.129,7.809,6.175,7.668,6.175
	C7.605,6.167,7.479,6.144,7.325,5.973c-0.084-0.1-0.147-0.37-0.119-0.338c0.028,0.03,0.231,0.062,0.322,0.039
	C7.62,5.65,7.838,5.582,7.936,5.549C8.039,5.51,8.25,5.449,8.32,5.441c0.07,0,0.126,0.031,0.146,0.131
	C8.488,5.703,8.453,5.757,8.439,5.789z M17.299,4.898V0.924l-5.434,2.05L17.299,4.898z M17.604,13.359l-1.719-6.872l-0.947-0.326
	l-2.049,5.608l0.967,0.322l0.428-1.15l2.001,0.68l0.351,1.414L17.604,13.359z M15.971,10.357l-1.317-0.438l0.722-1.935
	L15.971,10.357z"/>
<path d="M4.051,13.637l-2.112,2.111c-0.133,0.135-0.133,0.346,0,0.479l2.112,2.119v0.367c0,0.139-0.085,0.258-0.208,0.313
	c-0.128,0.053-0.275,0.027-0.372-0.072l-2.724-2.727c-0.133-0.135-0.133-0.346,0-0.479l2.724-2.725
	c0.063-0.068,0.149-0.102,0.239-0.102c0.043,0,0.09,0.012,0.133,0.027c0.123,0.053,0.208,0.176,0.208,0.313V13.637z"/>
<path d="M10.465,13.436c0,0.766-0.096,1.885-0.898,2.707c-0.67,0.688-1.719,1.074-3.188,1.176v1.396
	c0,0.139-0.084,0.258-0.207,0.313c-0.127,0.053-0.277,0.027-0.373-0.072L3.074,16.23c-0.133-0.137-0.133-0.348,0-0.48l2.725-2.725
	c0.063-0.068,0.148-0.102,0.239-0.102c0.043,0,0.091,0.012,0.134,0.027c0.123,0.053,0.207,0.176,0.207,0.313V14.6
	c1.145-0.09,1.879-0.361,2.33-0.867c0.537-0.596,0.719-1.553,0.564-3.006c-0.006-0.082,0.042-0.154,0.123-0.182
	c0.016-0.006,0.031-0.006,0.047-0.006c0.064,0,0.123,0.031,0.148,0.092C9.631,10.697,10.465,12.326,10.465,13.436z"/>
</svg>
