<?xml version="1.0" encoding="utf-8"?>
<!-- Generator: Adobe Illustrator 15.1.0, SVG Export Plug-In . SVG Version: 6.00 Build 0)  -->
<!DOCTYPE svg PUBLIC "-//W3C//DTD SVG 1.1//EN" "http://www.w3.org/Graphics/SVG/1.1/DTD/svg11.dtd">
<svg version="1.1" id="Layer_1" xmlns="http://www.w3.org/2000/svg" xmlns:xlink="http://www.w3.org/1999/xlink" x="0px" y="0px"
	 width="32px" height="32px" viewBox="0 0 32 32" enable-background="new 0 0 32 32" xml:space="preserve">
<g>
	<path d="M6.441,19.809V9.277c0.016-0.051,0.031-0.14,0.064-0.173C6.6,8.98,6.728,8.945,6.823,8.91
		c0.048-0.019,1.018-0.369,2.37-0.875V1.3l8.874,3.471c0.111-0.033,10.004-3.805,10.146-3.805c0.178,0,0.319,0.141,0.319,0.368
		v7.329l2.338,0.828v18.92c-12.292-4.313-12.31-4.313-12.31-4.313c-0.061,0.028,0.399-0.479-0.615-0.099 M18.1,23.57V5.473
		L7.062,9.559L6.993,19.673L18.1,23.57z M14.758,15.594c-0.152-0.077-0.846-0.502-1.022-0.635c-0.177-0.128-0.847-0.738-0.929-0.777
		c-0.424,0.711-0.964,1.556-1.575,2.347c-0.212,0.272-0.846,1.154-1.234,1.428c-0.059,0.039-0.4,0.078-0.447,0.051
		c0.188-0.154,0.729-0.894,0.964-1.191c0.294-0.375,1.692-2.529,1.927-3.022c0.248-0.493,0.988-2.125,1.023-2.279
		c-0.117-0.014-1.046,0.336-1.292,0.427c-0.235,0.077-0.882,0.245-0.929,0.285c-0.047,0.052-0.012,0.208-0.035,0.259
		c-0.023,0.054-0.235,0.169-0.364,0.194c-0.118,0.04-0.388,0.052-0.553,0c-0.153-0.041-0.294-0.208-0.329-0.271
		c0,0-0.048-0.077-0.059-0.298c0.141-0.053,0.376-0.065,0.634-0.142c0.259-0.077,0.894-0.285,1.235-0.416
		c0.34-0.128,0.999-0.401,1.198-0.453c0.212-0.038,0.74-0.427,1.022-0.531c0.283-0.103,0.482-0.234,0.495-0.168
		c0.011,0.065,0,0.35-0.012,0.427c-0.012,0.064-0.576,1.283-0.657,1.477c-0.048,0.104-0.377,0.79-0.907,1.699
		c0.189,0.09,0.588,0.272,0.752,0.361c0.199,0.106,1.599,0.755,1.668,0.78c0.071,0.024,0.202,0.623,0.176,0.724
		C15.486,15.96,14.911,15.663,14.758,15.594z M13.054,9.932c-0.118,0.245-0.412,0.414-0.587,0.491
		c-0.176,0.079-0.471,0.157-0.706,0.157c-0.104-0.014-0.317-0.053-0.575-0.339c-0.141-0.167-0.248-0.621-0.2-0.568
		c0.047,0.05,0.388,0.102,0.54,0.064c0.154-0.04,0.518-0.155,0.683-0.208c0.176-0.065,0.528-0.168,0.646-0.182
		c0.117,0,0.211,0.052,0.247,0.221C13.136,9.788,13.077,9.879,13.054,9.932z M27.91,8.437V1.773l-9.111,3.438L27.91,8.437z
		 M28.421,22.624l-2.882-11.52l-1.588-0.546l-3.436,9.403l1.619,0.541l0.719-1.93l3.354,1.141l0.588,2.369L28.421,22.624z
		 M25.686,17.591l-2.211-0.735l1.209-3.245L25.686,17.591z"/>
</g>
<g>
	<path d="M6.115,23.225l-3.091,3.092c-0.194,0.194-0.194,0.507,0,0.701l3.091,3.1v0.535c0,0.203-0.125,0.383-0.304,0.459
		c-0.187,0.078-0.404,0.039-0.545-0.106L1.28,27.018c-0.195-0.193-0.195-0.506,0-0.701l3.986-3.984
		c0.093-0.104,0.218-0.146,0.351-0.146c0.062,0,0.132,0.017,0.194,0.039c0.179,0.077,0.304,0.258,0.304,0.459V23.225z"/>
	<path d="M5.615,31.65c-0.27,0-0.521-0.105-0.708-0.298l-3.981-3.981c-0.188-0.187-0.292-0.436-0.292-0.701
		c-0.001-0.266,0.103-0.518,0.292-0.707l3.987-3.984c0.227-0.255,0.628-0.384,1.069-0.224c0.396,0.169,0.634,0.529,0.634,0.929
		v0.748L3.377,26.67l3.238,3.24v0.742c0,0.401-0.239,0.762-0.608,0.919C5.88,31.625,5.749,31.65,5.615,31.65z M5.615,22.684
		L1.633,26.67l3.985,3.98l-0.002-0.325L2.67,27.371c-0.387-0.389-0.387-1.02,0-1.408l2.945-2.945V22.684z"/>
</g>
<g>
	<path fill="#FFFFFF" d="M16.451,22.93c0,1.12-0.14,2.756-1.315,3.963c-0.981,1.004-2.515,1.572-4.664,1.722v2.038
		c0,0.203-0.125,0.383-0.304,0.459c-0.187,0.078-0.405,0.039-0.545-0.106L5.637,27.02c-0.195-0.194-0.195-0.506,0-0.701l3.986-3.985
		c0.093-0.103,0.218-0.147,0.35-0.147c0.063,0,0.132,0.018,0.195,0.039c0.179,0.078,0.304,0.258,0.304,0.459v1.955
		c1.674-0.134,2.749-0.529,3.41-1.27c0.786-0.873,1.051-2.273,0.825-4.398c-0.008-0.117,0.063-0.227,0.179-0.265
		c0.023-0.009,0.046-0.009,0.07-0.009c0.094,0,0.179,0.047,0.218,0.133C15.229,18.927,16.451,21.311,16.451,22.93z"/>
	<path d="M9.972,31.65c-0.268,0-0.526-0.108-0.709-0.299l-3.979-3.979c-0.188-0.188-0.292-0.438-0.293-0.702
		c0-0.267,0.104-0.517,0.293-0.706l3.986-3.985c0.228-0.255,0.596-0.386,1.06-0.229c0.405,0.176,0.643,0.535,0.643,0.933v1.401
		c1.229-0.157,2.043-0.495,2.537-1.049c0.688-0.765,0.911-2.039,0.701-4.013c-0.025-0.366,0.189-0.684,0.52-0.792l0.227-0.034
		c0.296,0,0.554,0.163,0.673,0.426l0,0c0.001,0,1.322,2.499,1.322,4.307c0,1.209-0.151,2.971-1.457,4.312
		c-1.001,1.024-2.483,1.626-4.522,1.832v1.579c0,0.401-0.239,0.762-0.608,0.919C10.237,31.625,10.106,31.65,9.972,31.65z
		 M9.972,22.684l-3.981,3.988l3.984,3.979l-0.003-2.503l0.465-0.032c2.024-0.141,3.444-0.655,4.341-1.572
		c1.051-1.08,1.173-2.579,1.173-3.613c0-0.788-0.341-1.836-0.666-2.647c0.006,1.535-0.331,2.643-1.032,3.422
		c-0.743,0.832-1.933,1.288-3.741,1.433l-0.54,0.044V22.684z"/>
</g>
</svg>
