<?xml version="1.0" encoding="utf-8"?>
<!-- Generator: Adobe Illustrator 15.1.0, SVG Export Plug-In . SVG Version: 6.00 Build 0)  -->
<!DOCTYPE svg PUBLIC "-//W3C//DTD SVG 1.1//EN" "http://www.w3.org/Graphics/SVG/1.1/DTD/svg11.dtd">
<svg version="1.1" id="Layer_1" xmlns="http://www.w3.org/2000/svg" xmlns:xlink="http://www.w3.org/1999/xlink" x="0px" y="0px"
	 width="32px" height="32px" viewBox="0 0 32 32" enable-background="new 0 0 32 32" xml:space="preserve">
<g>
	<g>
		<path d="M26.945,22.465H13.868c-1.976,0-3.584-1.607-3.584-3.585V7.21c0-1.976,1.608-3.584,3.584-3.584h13.077
			c1.977,0,3.584,1.608,3.584,3.584v11.67C30.529,20.855,28.922,22.465,26.945,22.465z M13.868,5.126
			c-1.149,0-2.084,0.935-2.084,2.084v11.67c0,1.149,0.935,2.085,2.084,2.085h13.077c1.148,0,2.084-0.936,2.084-2.085V7.21
			c0-1.149-0.936-2.084-2.084-2.084H13.868z"/>
	</g>
</g>
<g>
	<g>
		<path d="M18.665,30.744H5.589c-1.976,0-3.584-1.608-3.584-3.585v-11.67c0-1.977,1.308-3.584,2.915-3.584h2.165
			c0.414,0,0.75,0.336,0.75,0.75c0,0.414-0.336,0.75-0.75,0.75H4.92c-0.767,0-1.415,0.955-1.415,2.084v11.67
			c0,1.149,0.935,2.085,2.084,2.085h13.076c1.11,0,2.085-0.645,2.085-1.377v-2.128c0-0.414,0.336-0.75,0.75-0.75
			s0.75,0.336,0.75,0.75v2.128C22.25,29.453,20.643,30.744,18.665,30.744z"/>
	</g>
</g>
</svg>
