<?xml version="1.0" encoding="utf-8"?>
<!-- Generator: Adobe Illustrator 15.1.0, SVG Export Plug-In . SVG Version: 6.00 Build 0)  -->
<!DOCTYPE svg PUBLIC "-//W3C//DTD SVG 1.1//EN" "http://www.w3.org/Graphics/SVG/1.1/DTD/svg11.dtd">
<svg version="1.1" id="Layer_1" xmlns="http://www.w3.org/2000/svg" xmlns:xlink="http://www.w3.org/1999/xlink" x="0px" y="0px"
	 width="20px" height="20px" viewBox="0 0 20 20" enable-background="new 0 0 20 20" xml:space="preserve">
<g>
	<g>
		<path d="M16.96,14.186H8.252c-1.395,0-2.53-1.135-2.53-2.529V3.885c0-1.395,1.135-2.53,2.53-2.53h8.708
			c1.396,0,2.532,1.135,2.532,2.53v7.771C19.492,13.051,18.356,14.186,16.96,14.186z M8.252,2.641c-0.686,0-1.244,0.558-1.244,1.244
			v7.771c0,0.686,0.558,1.244,1.244,1.244h8.708c0.688,0,1.247-0.559,1.247-1.244V3.885c0-0.686-0.56-1.244-1.247-1.244H8.252z"/>
	</g>
</g>
<g>
	<g>
		<path d="M12.011,19.138H3.305c-1.395,0-2.53-1.136-2.53-2.532V8.833c0-1.395,0.935-2.53,2.084-2.53h0.876
			c0.355,0,0.643,0.288,0.643,0.643S4.09,7.589,3.735,7.589H2.859c-0.377,0-0.798,0.511-0.798,1.244v7.772
			c0,0.688,0.558,1.247,1.244,1.247h8.706c0.714,0,1.247-0.408,1.247-0.773v-0.853c0-0.355,0.287-0.643,0.643-0.643
			s0.643,0.287,0.643,0.643v0.853C14.543,18.215,13.407,19.138,12.011,19.138z"/>
	</g>
</g>
</svg>
