<?xml version="1.0" encoding="utf-8"?>
<!-- Generator: Adobe Illustrator 15.1.0, SVG Export Plug-In . SVG Version: 6.00 Build 0)  -->
<!DOCTYPE svg PUBLIC "-//W3C//DTD SVG 1.1//EN" "http://www.w3.org/Graphics/SVG/1.1/DTD/svg11.dtd">
<svg version="1.1" id="Layer_1" xmlns="http://www.w3.org/2000/svg" xmlns:xlink="http://www.w3.org/1999/xlink" x="0px" y="0px"
	 width="32px" height="32px" viewBox="0 0 32 32" enable-background="new 0 0 32 32" xml:space="preserve">
<g>
</g>
<path fill="#010101" d="M18.834,25.382c0,2.564,0,2.564,0,2.564c-14.743,0-14.743,0-14.743,0c0-14.653,0-14.653,0-14.653
	c2.949,0,2.949,0,2.949,0c0-2.931,0-2.931,0-2.931c-2.949,0-2.949,0-2.949,0c-1.475,0-2.948,1.465-2.948,2.931
	c0,14.653,0,14.653,0,14.653c0,1.833,1.474,2.932,2.948,2.932c14.743,0,14.743,0,14.743,0c1.475,0,2.949-1.099,2.949-2.932
	c0-2.564,0-2.564,0-2.564H18.834z"/>
<path fill="#010101" d="M27.681,4.868c0,14.654,0,14.654,0,14.654c-14.743,0-14.743,0-14.743,0c0-14.654,0-14.654,0-14.654
	C27.681,4.868,27.681,4.868,27.681,4.868 M27.681,1.937c-14.743,0-14.743,0-14.743,0c-1.475,0-2.948,1.099-2.948,2.931
	c0,14.654,0,14.654,0,14.654c0,1.465,1.474,2.931,2.948,2.931c14.743,0,14.743,0,14.743,0c1.475,0,2.949-1.466,2.949-2.931
	c0-14.654,0-14.654,0-14.654C30.63,3.036,29.155,1.937,27.681,1.937L27.681,1.937z"/>
</svg>
