<?xml version="1.0" encoding="utf-8"?>
<!-- Generator: Adobe Illustrator 15.1.0, SVG Export Plug-In . SVG Version: 6.00 Build 0)  -->
<!DOCTYPE svg PUBLIC "-//W3C//DTD SVG 1.1//EN" "http://www.w3.org/Graphics/SVG/1.1/DTD/svg11.dtd">
<svg version="1.1" id="Layer_1" xmlns="http://www.w3.org/2000/svg" xmlns:xlink="http://www.w3.org/1999/xlink" x="0px" y="0px"
	 width="32px" height="32px" viewBox="0 0 32 32" enable-background="new 0 0 32 32" xml:space="preserve">
<g>
	<g>
		<g>
			<g>
				<defs>
					<path id="SVGID_2_" d="M16.093,1.73c7.87,0.079,14.228,6.485,14.228,14.375c0,7.881-6.344,14.281-14.199,14.375L16.093,1.73z"
						/>
				</defs>
				<clipPath id="SVGID_4_">
					<use xlink:href="#SVGID_2_"  overflow="visible"/>
				</clipPath>
				<g clip-path="url(#SVGID_4_)">
					<path fill="#020202" d="M15.946,28.04c-6.674,0-12.104-5.431-12.104-12.105S9.271,3.831,15.946,3.831
						c6.675,0,12.105,5.43,12.105,12.104S22.62,28.04,15.946,28.04z M15.946,4.912c-6.078,0-11.023,4.945-11.023,11.023
						c0,6.079,4.945,11.023,11.023,11.023c6.08,0,11.023-4.944,11.023-11.023C26.969,9.857,22.023,4.912,15.946,4.912z"/>
				</g>
			</g>
		</g>
	</g>
	<g>
		<g>
			<g>
				<defs>
					<path id="SVGID_5_" d="M16.093,1.73c7.87,0.079,14.228,6.485,14.228,14.375c0,7.881-6.344,14.281-14.199,14.375L16.093,1.73z"
						/>
				</defs>
				<clipPath id="SVGID_6_">
					<use xlink:href="#SVGID_5_"  overflow="visible"/>
				</clipPath>
				<g clip-path="url(#SVGID_6_)">
					<path fill="#020202" d="M15.829,24.975c-5.157,0-9.353-4.021-9.353-8.967c0-4.943,4.195-8.965,9.353-8.965
						c5.157,0,9.353,4.022,9.353,8.965C25.182,20.952,20.986,24.975,15.829,24.975z M15.829,8.124c-4.561,0-8.271,3.537-8.271,7.884
						c0,4.348,3.71,7.885,8.271,7.885c4.562,0,8.271-3.537,8.271-7.885C24.1,11.661,20.391,8.124,15.829,8.124z"/>
				</g>
			</g>
		</g>
	</g>
	<g>
		<g id="SVGID_1_">
			<path fill="#020202" d="M15.58,31.027L15.552,1.184l0.546,0.005c8.14,0.082,14.763,6.773,14.763,14.916
				c0,8.125-6.61,14.818-14.735,14.917L15.58,31.027z M16.634,2.287l0.026,27.636c7.283-0.376,13.119-6.463,13.119-13.818
				C29.779,8.735,23.932,2.648,16.634,2.287z"/>
		</g>
	</g>
</g>
<g>
	<g>
		<g>
			<g>
				<defs>
					<path id="SVGID_7_" d="M15.793,30.48C7.925,30.396,1.57,23.994,1.57,16.105c0-7.883,6.344-14.283,14.206-14.375L15.793,30.48z"
						/>
				</defs>
				<clipPath id="SVGID_8_">
					<use xlink:href="#SVGID_7_"  overflow="visible"/>
				</clipPath>
				<g clip-path="url(#SVGID_8_)">
					<path fill="#020202" d="M4.266,25.271c-0.168,0-0.327-0.062-0.45-0.183c-0.39-0.379-0.229-0.989,0.66-2.514
						c0.897-1.539,1.144-1.771,1.791-2.265c0.295-0.227,0.699-0.537,1.372-1.186l0.4-0.385c0.056-0.053,0.11-0.105,0.163-0.156
						C7.874,18.48,7.462,18.313,6.995,18c-1.166-0.777-1.332-0.982-1.479-1.842c-0.061-0.354-0.152-0.887-0.495-1.823
						c-0.362-0.991-0.512-1.62-0.27-2.105c0.226-0.452,0.677-0.589,1.2-0.748c0.484-0.147,1.086-0.33,1.841-0.799
						c0.878-0.543,1.348-0.892,1.4-1.037c0-0.031-0.041-0.16-0.071-0.254C9.05,9.171,8.954,8.869,8.915,8.448
						C8.829,7.5,7.283,4.933,6.328,3.537l0.893-0.61C7.489,3.32,9.853,6.814,9.992,8.35c0.027,0.302,0.097,0.52,0.159,0.712
						c0.345,1.077-0.057,1.466-1.787,2.54c-0.875,0.544-1.582,0.759-2.098,0.916c-0.222,0.067-0.498,0.151-0.555,0.208
						C5.7,12.77,5.689,13.012,6.037,13.965c0.376,1.027,0.478,1.62,0.544,2.011c0.087,0.509,0.087,0.509,1.013,1.125
						c0.556,0.371,1.01,0.48,1.31,0.553c0.281,0.068,0.631,0.152,0.733,0.531c0.112,0.416-0.131,0.646-0.851,1.336L8.39,19.904
						c-0.717,0.691-1.149,1.022-1.465,1.266C6.4,21.572,6.243,21.693,5.41,23.121c-0.667,1.141-0.709,1.441-0.712,1.473
						c0.005-0.064-0.036-0.229-0.2-0.336c-0.141-0.088-0.295-0.078-0.356-0.043l0.559,0.926C4.559,25.229,4.409,25.271,4.266,25.271
						z"/>
				</g>
			</g>
		</g>
	</g>
	<g>
		<g>
			<g>
				<defs>
					<path id="SVGID_9_" d="M15.793,30.48C7.925,30.396,1.57,23.994,1.57,16.105c0-7.883,6.344-14.283,14.206-14.375L15.793,30.48z"
						/>
				</defs>
				<clipPath id="SVGID_10_">
					<use xlink:href="#SVGID_9_"  overflow="visible"/>
				</clipPath>
				<g clip-path="url(#SVGID_10_)">
					<path fill="#020202" d="M15.395,16.127c-0.335-0.138-0.464-0.135-0.625-0.136c-0.428,0.009-0.818-0.048-1.942-0.756
						c-0.533-0.336-0.889-0.501-1.124-0.611c-0.727-0.338-0.799-0.609-0.67-1.367l0.043-0.265c0.148-0.925,0.627-1.207,1.05-1.455
						c0.298-0.175,0.606-0.356,0.927-0.849c0.992-1.522,2.838-1.615,2.916-1.618l0.045,1.08l-0.022-0.54l0.024,0.54
						c-0.014,0-1.374,0.081-2.057,1.128c-0.459,0.707-0.937,0.986-1.286,1.191c-0.355,0.209-0.462,0.271-0.53,0.692l-0.046,0.277
						c-0.011,0.063-0.021,0.118-0.029,0.164c0.027,0.012,0.057,0.025,0.089,0.041c0.26,0.121,0.654,0.304,1.245,0.676
						c0.94,0.592,1.138,0.591,1.359,0.59c0.276-0.01,0.548,0.013,1.043,0.217L15.395,16.127z"/>
				</g>
			</g>
		</g>
	</g>
	<g>
		<g id="SVGID_3_">
			<path fill="#020202" d="M16.334,31.027l-0.547-0.006C7.649,30.936,1.029,24.243,1.029,16.105c0-8.129,6.612-14.821,14.74-14.916
				l0.546-0.006L16.334,31.027z M15.236,2.288C7.949,2.661,2.11,8.748,2.11,16.105c0,7.366,5.846,13.454,13.142,13.818L15.236,2.288
				z"/>
		</g>
	</g>
</g>
</svg>
