<?xml version="1.0" encoding="utf-8"?>
<!-- Generator: Adobe Illustrator 15.1.0, SVG Export Plug-In . SVG Version: 6.00 Build 0)  -->
<!DOCTYPE svg PUBLIC "-//W3C//DTD SVG 1.1//EN" "http://www.w3.org/Graphics/SVG/1.1/DTD/svg11.dtd">
<svg version="1.1" id="Layer_1" xmlns="http://www.w3.org/2000/svg" xmlns:xlink="http://www.w3.org/1999/xlink" x="0px" y="0px"
	 width="20px" height="20px" viewBox="0 0 20 20" enable-background="new 0 0 20 20" xml:space="preserve">
<g>
	<g id="SVGID_3_">
		<path fill="#020202" d="M9.905,18.965C4.978,18.912,1,14.9,1,9.965c0-4.935,3.971-8.942,8.892-9L9.905,18.965z"/>
		<path fill="#FFFFFF" d="M10.244,19.307l-0.342-0.003c-5.095-0.055-9.24-4.244-9.24-9.339c0-5.089,4.139-9.278,9.227-9.338
			l0.342-0.004L10.244,19.307z M9.554,1.314C4.993,1.548,1.338,5.359,1.338,9.965c0,4.611,3.66,8.422,8.228,8.651L9.554,1.314z"/>
	</g>
</g>
<g>
	<g>
		<g>
			<g>
				<defs>
					<path id="SVGID_2_" d="M9.905,18.965C4.978,18.912,1,14.9,1,9.965c0-4.935,3.971-8.942,8.892-9L9.905,18.965z"/>
				</defs>
				<clipPath id="SVGID_4_">
					<use xlink:href="#SVGID_2_"  overflow="visible"/>
				</clipPath>
				<g clip-path="url(#SVGID_4_)">
					<path fill="#FFFFFF" d="M2.688,15.662c-0.184,0-0.359-0.067-0.494-0.198c-0.457-0.445-0.123-1.116,0.362-1.946
						c0.589-1.01,0.769-1.175,1.199-1.506c0.181-0.139,0.425-0.326,0.833-0.72l0.014-0.014c-0.119-0.059-0.244-0.129-0.374-0.216
						c-0.755-0.505-0.942-0.691-1.057-1.357c-0.038-0.223-0.09-0.529-0.295-1.089C2.62,7.917,2.52,7.46,2.721,7.058
						c0.2-0.4,0.591-0.519,0.936-0.624c0.286-0.087,0.642-0.195,1.081-0.468c0.403-0.25,0.6-0.392,0.696-0.472
						C5.388,5.351,5.322,5.14,5.296,4.853C5.254,4.399,4.449,2.979,3.727,1.923l1.061-0.727C5.07,1.609,6.484,3.72,6.576,4.736
						C6.59,4.892,6.625,5.001,6.663,5.117c0.297,0.93-0.223,1.305-1.247,1.941C4.833,7.42,4.35,7.567,4.029,7.664
						c-0.032,0.01-0.067,0.021-0.101,0.031c0.024,0.097,0.07,0.249,0.155,0.48c0.245,0.67,0.311,1.057,0.354,1.313
						c0.012,0.07,0.017,0.125,0.034,0.171c0.043,0.049,0.364,0.264,0.47,0.334c0.3,0.2,0.543,0.258,0.72,0.301
						c0.186,0.045,0.572,0.138,0.683,0.55c0.117,0.435-0.145,0.685-0.621,1.14L5.48,12.217c-0.461,0.445-0.74,0.659-0.943,0.815
						c-0.299,0.229-0.379,0.291-0.871,1.134c-0.357,0.612-0.403,0.797-0.407,0.816c0.019-0.09-0.014-0.341-0.239-0.499
						c-0.178-0.125-0.414-0.144-0.575-0.042l0.676,1.094C2.982,15.62,2.833,15.662,2.688,15.662z"/>
				</g>
			</g>
		</g>
	</g>
</g>
<g>
	<g>
		<g>
			<g>
				<defs>
					<path id="SVGID_6_" d="M9.905,18.965C4.978,18.912,1,14.9,1,9.965c0-4.935,3.971-8.942,8.892-9L9.905,18.965z"/>
				</defs>
				<clipPath id="SVGID_8_">
					<use xlink:href="#SVGID_6_"  overflow="visible"/>
				</clipPath>
				<g clip-path="url(#SVGID_8_)">
					<path fill="#FFFFFF" d="M9.541,10.261c-0.155-0.063-0.197-0.066-0.277-0.063c-0.388-0.029-0.673-0.076-1.379-0.521
						c-0.317-0.2-0.53-0.299-0.669-0.364c-0.62-0.29-0.685-0.626-0.59-1.183l0.026-0.162c0.115-0.722,0.53-0.966,0.804-1.126
						c0.177-0.104,0.317-0.186,0.478-0.435c0.708-1.083,2.013-1.148,2.068-1.15l0.053,1.284L10.029,5.9l0.032,0.642
						c-0.007,0-0.709,0.048-1.049,0.568C8.685,7.612,8.337,7.816,8.107,7.951C8.049,7.985,7.971,8.031,7.954,8.05l0,0
						c0,0-0.017,0.029-0.032,0.12L7.914,8.222C8.074,8.3,8.288,8.412,8.57,8.59C9.084,8.914,9.17,8.905,9.258,8.913
						c0.168-0.007,0.408,0.01,0.77,0.159L9.541,10.261z"/>
				</g>
			</g>
		</g>
	</g>
	<g>
		<g id="SVGID_5_">
			<path fill="#020202" d="M10.548,19.614l-0.65-0.007c-5.261-0.056-9.541-4.382-9.541-9.643c0-5.255,4.274-9.581,9.527-9.643
				l0.65-0.008L10.548,19.614z M9.25,1.641C5,2.023,1.643,5.629,1.643,9.965c0,4.341,3.362,7.947,7.618,8.325L9.25,1.641z"/>
		</g>
	</g>
</g>
<g>
	<g>
		<g id="SVGID_1_">
			<path fill="#020202" d="M10.093,0.965C15.02,1.013,19,5.025,19,9.965c0,4.936-3.973,8.941-8.892,9L10.093,0.965z"/>
			<path fill="#FFFFFF" d="M9.77,19.308L9.754,0.623l0.342,0.003c5.096,0.05,9.243,4.239,9.243,9.338
				c0,5.089-4.14,9.277-9.227,9.339L9.77,19.308z M10.432,1.313l0.015,17.302c4.561-0.234,8.215-4.045,8.215-8.65
				C18.661,5.35,15,1.539,10.432,1.313z"/>
		</g>
	</g>
	<g>
		<g>
			<g>
				<g>
					<defs>
						<path id="SVGID_10_" d="M10.093,0.965C15.02,1.013,19,5.025,19,9.965c0,4.936-3.973,8.941-8.892,9L10.093,0.965z"/>
					</defs>
					<clipPath id="SVGID_11_">
						<use xlink:href="#SVGID_10_"  overflow="visible"/>
					</clipPath>
					<g clip-path="url(#SVGID_11_)">
						<path fill="#FFFFFF" d="M10,17.437c-4.179,0-7.579-3.4-7.579-7.58c0-4.179,3.4-7.578,7.579-7.578s7.579,3.399,7.579,7.578
							C17.579,14.036,14.179,17.437,10,17.437z M10,2.956c-3.806,0-6.902,3.096-6.902,6.901c0,3.806,3.096,6.902,6.902,6.902
							s6.901-3.096,6.901-6.902C16.901,6.052,13.806,2.956,10,2.956z"/>
					</g>
				</g>
			</g>
		</g>
		<g>
			<g id="SVGID_7_">
				<path fill="#FFFFFF" d="M9.466,19.615l-0.017-19.3l0.65,0.007c5.262,0.051,9.543,4.377,9.543,9.643
					c0,5.255-4.273,9.58-9.527,9.643L9.466,19.615z M10.736,1.639l0.014,16.65c4.25-0.383,7.607-3.989,7.607-8.324
					C18.357,5.62,14.994,2.014,10.736,1.639z"/>
			</g>
		</g>
	</g>
	<g>
		<g>
			<g>
				<g>
					<defs>
						<path id="SVGID_12_" d="M10.093,0.965C15.02,1.013,19,5.025,19,9.965c0,4.936-3.973,8.941-8.892,9L10.093,0.965z"/>
					</defs>
					<clipPath id="SVGID_13_">
						<use xlink:href="#SVGID_12_"  overflow="visible"/>
					</clipPath>
					<g clip-path="url(#SVGID_13_)">
						<path fill="#FFFFFF" d="M9.927,15.519c-3.229,0-5.855-2.519-5.855-5.615c0-3.096,2.626-5.614,5.855-5.614
							s5.855,2.519,5.855,5.614C15.782,13,13.155,15.519,9.927,15.519z M9.927,4.966c-2.855,0-5.178,2.215-5.178,4.938
							c0,2.722,2.323,4.937,5.178,4.937s5.178-2.215,5.178-4.937C15.104,7.181,12.782,4.966,9.927,4.966z"/>
					</g>
				</g>
			</g>
		</g>
		<g>
			<g id="SVGID_9_">
				<path fill="#020202" d="M9.466,19.615l-0.017-19.3l0.65,0.007c5.262,0.051,9.543,4.377,9.543,9.643
					c0,5.255-4.273,9.58-9.527,9.643L9.466,19.615z M10.736,1.639l0.014,16.65c4.25-0.383,7.607-3.989,7.607-8.324
					C18.357,5.62,14.994,2.014,10.736,1.639z"/>
			</g>
		</g>
	</g>
</g>
<g>
	<rect x="9.45" y="0.246" fill="#FFFFFF" width="1.286" height="19.508"/>
</g>
</svg>
