<?xml version="1.0" encoding="utf-8"?>
<!-- Generator: Adobe Illustrator 15.1.0, SVG Export Plug-In . SVG Version: 6.00 Build 0)  -->
<!DOCTYPE svg PUBLIC "-//W3C//DTD SVG 1.1//EN" "http://www.w3.org/Graphics/SVG/1.1/DTD/svg11.dtd">
<svg version="1.1" id="Layer_1" xmlns="http://www.w3.org/2000/svg" xmlns:xlink="http://www.w3.org/1999/xlink" x="0px" y="0px"
	 width="32px" height="32px" viewBox="0 0 32 32" enable-background="new 0 0 32 32" xml:space="preserve">
<g>
	<g>
		<path fill="#050505" d="M16.003,20.292c-1.134,0-2.202-0.442-3.004-1.244c-1.657-1.657-1.657-4.351,0-6.005
			c1.335-1.334,7.724-3.862,8.99-4.356c0.393-0.153,0.837-0.06,1.135,0.238c0.298,0.299,0.392,0.744,0.239,1.136
			c-0.494,1.267-3.022,7.654-4.356,8.987C18.205,19.85,17.141,20.292,16.003,20.292z M20.45,11.6
			c-2.604,1.092-5.378,2.373-5.949,2.944c-0.828,0.828-0.828,2.174,0,3.003c0.803,0.803,2.204,0.803,3.007,0
			C18.077,16.975,19.359,14.204,20.45,11.6z"/>
	</g>
</g>
<g>
	<path fill="#050505" d="M16.152,30.759c-8.134,0-14.752-6.616-14.752-14.75c0-2.346,0.564-4.681,1.633-6.751
		c0.19-0.369,0.642-0.513,1.01-0.323s0.513,0.642,0.323,1.01C3.393,11.831,2.9,13.871,2.9,16.009c0,7.306,5.945,13.25,13.252,13.25
		c7.306,0,13.25-5.944,13.25-13.25c0-7.307-5.944-13.252-13.25-13.252c-3.431,0-6.686,1.307-9.165,3.68
		c-0.298,0.285-0.774,0.276-1.06-0.023C5.641,6.115,5.651,5.64,5.95,5.354c2.759-2.642,6.382-4.097,10.202-4.097
		c8.133,0,14.75,6.618,14.75,14.752S24.285,30.759,16.152,30.759z"/>
</g>
</svg>
