<?xml version="1.0" encoding="utf-8"?>
<!-- Generator: Adobe Illustrator 15.1.0, SVG Export Plug-In . SVG Version: 6.00 Build 0)  -->
<!DOCTYPE svg PUBLIC "-//W3C//DTD SVG 1.1//EN" "http://www.w3.org/Graphics/SVG/1.1/DTD/svg11.dtd">
<svg version="1.1" id="Layer_1" xmlns="http://www.w3.org/2000/svg" xmlns:xlink="http://www.w3.org/1999/xlink" x="0px" y="0px"
	 width="32px" height="32px" viewBox="0 0 32 32" enable-background="new 0 0 32 32" xml:space="preserve">
<path d="M31.434,15.918c0-8.443-6.907-15.351-15.351-15.351c-8.444,0-15.352,6.907-15.352,15.351
	c0,8.825,6.908,15.351,15.352,15.351C24.526,31.269,31.434,24.743,31.434,15.918L31.434,15.918z M16.083,28.964
	c-6.908,0-12.665-5.756-12.665-13.046c0-6.908,5.757-12.664,12.665-12.664c6.907,0,12.665,5.756,12.665,12.664
	C28.748,23.208,22.99,28.964,16.083,28.964L16.083,28.964z"/>
<path d="M20.688,9.01c-4.605,2.303-7.292,3.837-8.06,4.605c-1.151,0.767-1.535,1.917-1.535,3.068c0,1.152,0.384,1.92,1.535,2.687
	c0.768,1.153,1.535,1.534,2.687,1.534s2.303-0.381,3.071-1.534c0.769-0.767,2.303-3.452,4.604-8.057c0.154-0.468,0.28-1.147,0-1.536
	C22.356,8.896,21.456,8.626,20.688,9.01L20.688,9.01z M16.467,17.836c-0.384,0.383-1.735,0.643-2.304,0c-0.97-1.098,0-2.303,0-2.303
	c0.384-0.384,1.92-1.15,5.374-3.068C18.001,15.533,16.851,17.453,16.467,17.836L16.467,17.836z"/>
</svg>
