<?xml version="1.0" encoding="utf-8"?>
<!-- Generator: Adobe Illustrator 15.1.0, SVG Export Plug-In . SVG Version: 6.00 Build 0)  -->
<!DOCTYPE svg PUBLIC "-//W3C//DTD SVG 1.1//EN" "http://www.w3.org/Graphics/SVG/1.1/DTD/svg11.dtd">
<svg version="1.1" id="Layer_1" xmlns="http://www.w3.org/2000/svg" xmlns:xlink="http://www.w3.org/1999/xlink" x="0px" y="0px"
	 width="20px" height="20px" viewBox="0 0 20 20" enable-background="new 0 0 20 20" xml:space="preserve">
<g>
	<circle fill="#050505" cx="9.819" cy="10" r="9"/>
	<path fill="#050505" d="M9.819,19.482c-5.229,0-9.482-4.254-9.482-9.482S4.59,0.518,9.819,0.518c5.228,0,9.482,4.253,9.482,9.482
		S15.047,19.482,9.819,19.482z M9.819,1.482c-4.697,0-8.518,3.821-8.518,8.518c0,4.697,3.821,8.518,8.518,8.518
		s8.517-3.82,8.517-8.518C18.336,5.303,14.516,1.482,9.819,1.482z"/>
</g>
<g>
	<path fill="#FFFFFF" d="M9.814,12.936c-0.729,0-1.415-0.283-1.931-0.801c-1.066-1.063-1.066-2.795,0-3.859
		c0.857-0.857,4.963-2.482,5.778-2.8c0.251-0.098,0.539-0.039,0.729,0.153c0.192,0.192,0.254,0.479,0.155,0.729
		c-0.317,0.813-1.942,4.921-2.802,5.777C11.229,12.65,10.545,12.936,9.814,12.936z"/>
</g>
<g>
	<path fill="#FFFFFF" d="M12.673,7.349c-1.675,0.702-3.458,1.526-3.826,1.893c-0.533,0.532-0.533,1.398,0,1.93
		c0.516,0.516,1.416,0.516,1.932,0C11.146,10.805,11.971,9.022,12.673,7.349z"/>
</g>
</svg>
