<?xml version="1.0" encoding="utf-8"?>
<!-- Generator: Adobe Illustrator 15.1.0, SVG Export Plug-In . SVG Version: 6.00 Build 0)  -->
<!DOCTYPE svg PUBLIC "-//W3C//DTD SVG 1.1//EN" "http://www.w3.org/Graphics/SVG/1.1/DTD/svg11.dtd">
<svg version="1.1" id="Layer_1" xmlns="http://www.w3.org/2000/svg" xmlns:xlink="http://www.w3.org/1999/xlink" x="0px" y="0px"
	 width="20px" height="20px" viewBox="0 0 20 20" enable-background="new 0 0 20 20" xml:space="preserve">
<g>
	<g>
		<path d="M5.812,3.091c3.042-3.002,7.973-2.97,10.977,0.073c3.002,3.043,2.97,7.972-0.073,10.975
			c-1.418,1.398-3.352,2.187-5.31,2.229l-0.021,1.853c0.006,0.264-0.16,0.498-0.404,0.598c-0.233,0.091-0.514,0.041-0.698-0.146
			l-3.18-3.223c-0.247-0.251-0.245-0.667,0.006-0.915l3.222-3.181c0.188-0.185,0.467-0.23,0.709-0.131
			c0.234,0.096,0.396,0.332,0.389,0.594l-0.014,1.976c1.294-0.041,2.542-0.563,3.482-1.492c2.027-2.001,2.051-5.289,0.049-7.316
			c-2.002-2.028-5.289-2.05-7.317-0.049L5.812,3.091z"/>
	</g>
</g>
<g>
	<path fill="#050505" d="M6.942,10.752c0,2.02-3.044,3.655-3.044,3.655s-3.047-1.636-3.047-3.655l0,0V6.49l3.047-0.61l3.044,0.61
		V10.752L6.942,10.752z"/>
</g>
<g>
	<path fill="#FFFFFF" d="M3.405,11.663L3.405,11.663c-0.122,0-0.238-0.049-0.323-0.134l-1.197-1.199
		c-0.178-0.178-0.178-0.468,0-0.646c0.179-0.178,0.468-0.178,0.646,0l0.874,0.875l2.072-2.071c0.178-0.178,0.467-0.179,0.646,0
		c0.178,0.178,0.178,0.467,0,0.646l-2.395,2.394C3.642,11.615,3.526,11.663,3.405,11.663z"/>
</g>
</svg>
