<?xml version="1.0" encoding="utf-8"?>
<!-- Generator: Adobe Illustrator 15.1.0, SVG Export Plug-In . SVG Version: 6.00 Build 0)  -->
<!DOCTYPE svg PUBLIC "-//W3C//DTD SVG 1.1//EN" "http://www.w3.org/Graphics/SVG/1.1/DTD/svg11.dtd">
<svg version="1.1" id="Layer_1" xmlns="http://www.w3.org/2000/svg" xmlns:xlink="http://www.w3.org/1999/xlink" x="0px" y="0px"
	 width="32px" height="32px" viewBox="0 0 32 32" enable-background="new 0 0 32 32" xml:space="preserve">
<g>
	<g>
		<path d="M17.063,31.453c-0.506,0-0.979-0.197-1.332-0.555l-5.225-5.295c-0.722-0.733-0.714-1.918,0.017-2.641l5.294-5.224
			c0.523-0.521,1.345-0.679,2.042-0.384c0.693,0.274,1.154,0.979,1.13,1.742l-0.015,2.34c1.637-0.229,3.158-0.975,4.352-2.147
			c3.02-2.98,3.052-7.863,0.07-10.884c-1.453-1.473-3.398-2.284-5.479-2.284c-2.042,0-3.962,0.785-5.407,2.211l-0.572,0.564
			L7.819,4.729l0.573-0.565c2.547-2.513,5.929-3.897,9.522-3.897c3.662,0,7.091,1.429,9.652,4.025
			c5.25,5.321,5.191,13.921-0.127,19.171c-2.246,2.217-5.308,3.598-8.494,3.854l-0.022,2.287c0.015,0.731-0.457,1.433-1.171,1.719
			C17.523,31.41,17.296,31.453,17.063,31.453z M17.12,18.814c-0.047,0-0.114,0.013-0.171,0.067l-5.296,5.226
			c-0.096,0.096-0.097,0.271-0.001,0.367l5.224,5.293c0.119,0.121,0.22,0.086,0.287,0.058c0.088-0.035,0.151-0.123,0.149-0.216
			l0.039-3.844l0.778-0.019c3.058-0.067,6.039-1.317,8.179-3.431c4.688-4.627,4.738-12.207,0.112-16.896
			c-2.258-2.287-5.278-3.546-8.508-3.546c-2.896,0-5.637,1.02-7.8,2.887l1.862,1.885c1.664-1.381,3.745-2.134,5.941-2.134
			c2.516,0,4.868,0.981,6.626,2.763c3.603,3.653,3.563,9.556-0.087,13.16c-1.684,1.657-3.909,2.609-6.268,2.683l-0.834,0.026
			l0.025-4.076c0.004-0.118-0.063-0.196-0.13-0.225C17.198,18.823,17.159,18.814,17.12,18.814z"/>
	</g>
</g>
<g>
	<path fill="#050505" d="M10.746,17.514c0,3.146-4.738,5.689-4.738,5.689s-4.743-2.546-4.743-5.689l0,0V10.88l4.743-0.95l4.738,0.95
		V17.514L10.746,17.514z"/>
</g>
<g>
	<path fill="#FFFFFF" d="M5.241,18.93c-0.182,0-0.364-0.068-0.502-0.207l-1.865-1.863c-0.278-0.276-0.278-0.728-0.001-1.005
		c0.278-0.278,0.729-0.278,1.006-0.001l1.363,1.361l3.227-3.223c0.278-0.278,0.729-0.277,1.005,0c0.278,0.278,0.277,0.728,0,1.005
		l-3.729,3.725C5.605,18.859,5.423,18.93,5.241,18.93z"/>
</g>
</svg>
