<?xml version="1.0" encoding="utf-8"?>
<!-- Generator: Adobe Illustrator 15.1.0, SVG Export Plug-In . SVG Version: 6.00 Build 0)  -->
<!DOCTYPE svg PUBLIC "-//W3C//DTD SVG 1.1//EN" "http://www.w3.org/Graphics/SVG/1.1/DTD/svg11.dtd">
<svg version="1.1" id="Layer_1" xmlns="http://www.w3.org/2000/svg" xmlns:xlink="http://www.w3.org/1999/xlink" x="0px" y="0px"
	 width="32px" height="32px" viewBox="0 0 32 32" enable-background="new 0 0 32 32" xml:space="preserve">
<g>
	<path fill="#010101" d="M29.389,5.547c-8.174,0-8.174,0-8.174,0c0-2.354,0-2.354,0-2.354V2.802l0,0c0-0.785-0.778-1.57-1.558-1.57
		c-7.006,0-7.006,0-7.006,0c-0.778,0-1.556,0.785-1.556,1.57l0,0v0.392c0,2.354,0,2.354,0,2.354c-8.565,0-8.565,0-8.565,0
		c-0.778,0-1.556,0.784-1.556,1.568S1.752,8.685,2.53,8.685c1.947,0,1.947,0,1.947,0c0,21.963,0,21.963,0,21.963
		c0,0.392,0.779,0.785,1.167,0.785c20.631,0,20.631,0,20.631,0c0.777,0,1.167-0.394,1.167-0.785c0-21.963,0-21.963,0-21.963
		c1.946,0,1.946,0,1.946,0c1.168,0,1.558-0.785,1.558-1.569S30.557,5.547,29.389,5.547L29.389,5.547z M14.208,4.371
		c3.893,0,3.893,0,3.893,0c0,1.177,0,1.177,0,1.177c-3.893,0-3.893,0-3.893,0V4.371z M24.328,28.296c-16.737,0-16.737,0-16.737,0
		c0-19.611,0-19.611,0-19.611c16.737,0,16.737,0,16.737,0V28.296z"/>
	<path fill="#010101" d="M13.055,24.675c0.574,0,1.148-0.423,1.148-1.691c0-7.184,0-7.184,0-7.184c0-1.269-0.574-1.691-1.148-1.691
		s-1.148,0.422-1.148,1.691c0,7.184,0,7.184,0,7.184C11.907,24.252,12.48,24.675,13.055,24.675L13.055,24.675z"/>
	<path fill="#010101" d="M18.222,24.675c0.574,0,1.147-0.423,1.147-1.691c0-7.184,0-7.184,0-7.184c0-1.269-0.573-1.691-1.147-1.691
		c-0.861,0-1.148,0.422-1.148,1.691c0,7.184,0,7.184,0,7.184C17.073,24.252,17.36,24.675,18.222,24.675L18.222,24.675z"/>
</g>
</svg>
