<?xml version="1.0" encoding="utf-8"?>
<!-- Generator: Adobe Illustrator 15.1.0, SVG Export Plug-In . SVG Version: 6.00 Build 0)  -->
<!DOCTYPE svg PUBLIC "-//W3C//DTD SVG 1.1//EN" "http://www.w3.org/Graphics/SVG/1.1/DTD/svg11.dtd">
<svg version="1.1" id="Layer_1" xmlns="http://www.w3.org/2000/svg" xmlns:xlink="http://www.w3.org/1999/xlink" x="0px" y="0px"
	 width="20px" height="20px" viewBox="0 0 20 20" enable-background="new 0 0 20 20" xml:space="preserve">
<path fill="#010101" d="M17.915,3.444c-4.909,0-4.909,0-4.909,0c0-1.415,0-1.415,0-1.415V1.794l0,0c0-0.471-0.467-0.943-0.937-0.943
	c-4.205,0-4.205,0-4.205,0c-0.467,0-0.934,0.472-0.934,0.943l0,0v0.235c0,1.415,0,1.415,0,1.415c-5.145,0-5.145,0-5.145,0
	c-0.466,0-0.934,0.471-0.934,0.94c0,0.472,0.467,0.943,0.934,0.943c1.17,0,1.17,0,1.17,0c0,13.186,0,13.186,0,13.186
	c0,0.236,0.468,0.473,0.7,0.473c12.388,0,12.388,0,12.388,0c0.467,0,0.701-0.238,0.701-0.473c0-13.186,0-13.186,0-13.186
	c1.17,0,1.17,0,1.17,0c0.7,0,0.934-0.471,0.934-0.943C18.848,3.915,18.615,3.444,17.915,3.444L17.915,3.444z"/>
<path fill="#FFFFFF" d="M8.801,2.738c2.333,0,2.333,0,2.333,0c0,0.707,0,0.707,0,0.707c-2.333,0-2.333,0-2.333,0V2.738z"/>
<path fill="#010101" d="M14.877,17.103c-10.052,0-10.052,0-10.052,0c0-11.773,0-11.773,0-11.773c10.052,0,10.052,0,10.052,0V17.103z
	"/>
<path fill="#FFFFFF" d="M8.108,14.927c0.344,0,0.688-0.254,0.688-1.016c0-4.309,0-4.309,0-4.309c0-0.762-0.344-1.016-0.688-1.016
	c-0.345,0-0.69,0.253-0.69,1.016c0,4.309,0,4.309,0,4.309C7.417,14.673,7.761,14.927,8.108,14.927L8.108,14.927z"/>
<path fill="#FFFFFF" d="M11.211,14.927c0.344,0,0.688-0.254,0.688-1.016c0-4.309,0-4.309,0-4.309c0-0.762-0.347-1.016-0.688-1.016
	c-0.517,0-0.689,0.253-0.689,1.016c0,4.309,0,4.309,0,4.309C10.521,14.673,10.691,14.927,11.211,14.927L11.211,14.927z"/>
</svg>
