<?xml version="1.0" encoding="utf-8"?>
<!-- Generator: Adobe Illustrator 15.1.0, SVG Export Plug-In . SVG Version: 6.00 Build 0)  -->
<!DOCTYPE svg PUBLIC "-//W3C//DTD SVG 1.1//EN" "http://www.w3.org/Graphics/SVG/1.1/DTD/svg11.dtd">
<svg version="1.1" id="Layer_1" xmlns="http://www.w3.org/2000/svg" xmlns:xlink="http://www.w3.org/1999/xlink" x="0px" y="0px"
	 width="32px" height="32px" viewBox="0 0 32 32" enable-background="new 0 0 32 32" xml:space="preserve">
<g>
	<path d="M24.932,27.645H8.28c-4.193,0-7.605-3.411-7.605-7.604c0-2.767,1.523-5.32,3.922-6.644
		c-0.002-0.071-0.004-0.142-0.004-0.212c0-4.734,3.852-8.585,8.585-8.585c3.185,0,6.058,1.738,7.551,4.497
		c0.68-0.377,1.451-0.579,2.243-0.579c2.574,0,4.668,2.094,4.668,4.667c0,0.573-0.105,1.135-0.31,1.661
		c2.53,0.981,4.228,3.403,4.228,6.177C31.559,24.674,28.586,27.645,24.932,27.645z M13.178,6.099c-3.907,0-7.085,3.178-7.085,7.085
		c0,0.198,0.014,0.396,0.028,0.606l0.037,0.515l-0.468,0.218c-2.135,0.993-3.515,3.159-3.515,5.517c0,3.366,2.739,6.104,6.105,6.104
		h16.652c2.827,0,5.127-2.298,5.127-5.123c0-2.391-1.633-4.445-3.971-4.996l-1.044-0.246l0.589-0.896
		c0.332-0.505,0.508-1.092,0.508-1.7c0-1.746-1.421-3.167-3.168-3.167c-0.756,0-1.483,0.271-2.048,0.764l-0.789,0.688l-0.397-0.968
		C18.638,7.827,16.063,6.099,13.178,6.099z M16.605,24.221h-2.938c-0.672,0-1.24-0.567-1.24-1.238v-4.64H9.751
		c-0.683,0-1.239-0.555-1.239-1.237c0-0.335,0.13-0.656,0.356-0.883l5.387-5.389c0.457-0.46,1.316-0.458,1.771,0.005l5.364,5.365
		c0.314,0.354,0.374,0.681,0.374,0.897c0,0.693-0.545,1.238-1.239,1.241h-2.681v4.64C17.846,23.653,17.277,24.221,16.605,24.221z
		 M13.928,22.721h2.417v-5.878h3.564l-4.771-4.771l-4.769,4.771h3.559V22.721z"/>
</g>
</svg>
