<?xml version="1.0" encoding="utf-8"?>
<!-- Generator: Adobe Illustrator 15.1.0, SVG Export Plug-In . SVG Version: 6.00 Build 0)  -->
<!DOCTYPE svg PUBLIC "-//W3C//DTD SVG 1.1//EN" "http://www.w3.org/Graphics/SVG/1.1/DTD/svg11.dtd">
<svg version="1.1" id="Layer_1" xmlns="http://www.w3.org/2000/svg" xmlns:xlink="http://www.w3.org/1999/xlink" x="0px" y="0px"
	 width="32px" height="32px" viewBox="0 0 32 32" enable-background="new 0 0 32 32" xml:space="preserve">
<g>
	<g>
		<path d="M24.52,27.16H8.653c-4.016,0-7.283-3.268-7.283-7.283c0-2.643,1.451-5.082,3.736-6.35
			c-0.002-0.062-0.003-0.122-0.003-0.181c0-4.53,3.686-8.216,8.216-8.216c3.037,0,5.778,1.65,7.211,4.272
			c0.646-0.352,1.375-0.54,2.122-0.54c2.472,0,4.482,2.011,4.482,4.483c0,0.54-0.096,1.068-0.281,1.563
			c2.403,0.948,4.015,3.258,4.017,5.901C30.87,24.312,28.021,27.16,24.52,27.16z M13.319,6.63c-3.703,0-6.716,3.013-6.716,6.716
			c0,0.161,0.011,0.322,0.021,0.491l0.033,0.512l-0.46,0.304c-2.021,0.939-3.328,2.989-3.328,5.224c0,3.188,2.594,5.783,5.783,5.783
			H24.52c2.675,0,4.851-2.176,4.851-4.85c-0.002-2.259-1.546-4.201-3.754-4.722l-1.044-0.246l0.589-0.896
			c0.31-0.471,0.474-1.024,0.474-1.601c0-1.645-1.338-2.983-2.982-2.983c-0.709,0-1.394,0.256-1.928,0.72l-0.788,0.686l-0.397-0.966
			C18.496,8.268,16.054,6.63,13.319,6.63z M13.344,24.895c-0.436,0-0.86-0.176-1.166-0.483l-4.642-4.641
			c-0.305-0.305-0.479-0.729-0.479-1.165c0-0.433,0.174-0.855,0.477-1.162l1.272-1.271c0.61-0.61,1.716-0.61,2.327-0.001l2.211,2.22
			l5.585-5.592c0.616-0.615,1.712-0.614,2.327,0l1.27,1.268c0.306,0.305,0.482,0.729,0.482,1.165
			c-0.002,0.435-0.177,0.858-0.48,1.164l-8.019,8.019C14.206,24.719,13.78,24.895,13.344,24.895z M9.969,17.192
			c-0.037,0-0.078,0.016-0.103,0.04l-1.269,1.269c-0.022,0.022-0.04,0.067-0.04,0.104c0,0.038,0.017,0.081,0.04,0.104l4.643,4.643
			c0.053,0.052,0.16,0.05,0.207,0.002l8.019-8.019c0.025-0.025,0.043-0.069,0.043-0.109c0-0.034-0.017-0.074-0.041-0.099
			l-1.271-1.269c-0.052-0.053-0.154-0.051-0.208,0.001l-6.645,6.654l-3.271-3.282C10.05,17.209,10.007,17.192,9.969,17.192z"/>
	</g>
</g>
</svg>
