<?xml version="1.0" encoding="utf-8"?>
<!-- Generator: Adobe Illustrator 15.1.0, SVG Export Plug-In . SVG Version: 6.00 Build 0)  -->
<!DOCTYPE svg PUBLIC "-//W3C//DTD SVG 1.1//EN" "http://www.w3.org/Graphics/SVG/1.1/DTD/svg11.dtd">
<svg version="1.1" id="Layer_1" xmlns="http://www.w3.org/2000/svg" xmlns:xlink="http://www.w3.org/1999/xlink" x="0px" y="0px"
	 width="20px" height="20px" viewBox="0 0 20 20" enable-background="new 0 0 20 20" xml:space="preserve">
<g>
	<path fill="#020202" d="M16.58,9.201c0.253-0.384,0.386-0.834,0.386-1.293c0-1.321-1.079-2.4-2.399-2.4
		c-0.572,0-1.125,0.206-1.558,0.583c-0.74-1.799-2.494-2.98-4.444-2.98c-2.653,0-4.8,2.146-4.8,4.798
		c0,0.132,0.009,0.264,0.019,0.404c-1.472,0.685-2.418,2.167-2.418,3.796c0,2.313,1.886,4.199,4.201,4.199h10.199
		c1.989,0,3.602-1.613,3.602-3.602C19.363,11.041,18.212,9.586,16.58,9.201z M13.519,13.164c0.108,0.109,0.171,0.262,0.171,0.414
		c0,0.154-0.063,0.307-0.171,0.418l-0.827,0.828c-0.11,0.111-0.265,0.174-0.418,0.174c-0.152,0-0.304-0.063-0.414-0.174
		l-1.797-1.793l-1.795,1.793c-0.111,0.111-0.263,0.174-0.416,0.174c-0.153,0-0.307-0.063-0.415-0.174l-0.831-0.828
		c-0.109-0.111-0.171-0.264-0.171-0.418c0-0.152,0.062-0.305,0.171-0.414L8.4,11.369L6.605,9.575
		c-0.109-0.108-0.17-0.264-0.17-0.415c0-0.153,0.062-0.306,0.17-0.417l0.83-0.831c0.11-0.108,0.264-0.171,0.416-0.171
		c0.153,0,0.305,0.06,0.416,0.171l1.796,1.796l1.794-1.795c0.109-0.108,0.264-0.171,0.414-0.171c0.152,0,0.307,0.06,0.416,0.171
		l0.829,0.831c0.11,0.109,0.171,0.264,0.171,0.417c0,0.151-0.061,0.304-0.171,0.415l-1.793,1.793L13.519,13.164z"/>
</g>
</svg>
