<?xml version="1.0" encoding="utf-8"?>
<!-- Generator: Adobe Illustrator 15.1.0, SVG Export Plug-In . SVG Version: 6.00 Build 0)  -->
<!DOCTYPE svg PUBLIC "-//W3C//DTD SVG 1.1//EN" "http://www.w3.org/Graphics/SVG/1.1/DTD/svg11.dtd">
<svg version="1.1" id="Layer_1" xmlns="http://www.w3.org/2000/svg" xmlns:xlink="http://www.w3.org/1999/xlink" x="0px" y="0px"
	 width="20px" height="20px" viewBox="0 0 20 20" enable-background="new 0 0 20 20" xml:space="preserve">
<path d="M15.716,15.87H5.517c-2.316,0-4.2-1.885-4.2-4.2c0-1.63,0.948-3.111,2.418-3.796c-0.009-0.14-0.018-0.271-0.018-0.403
	c0-2.653,2.146-4.8,4.8-4.8c1.95,0,3.701,1.181,4.442,2.981c0.431-0.376,0.983-0.581,1.557-0.581c1.322,0,2.4,1.078,2.4,2.4
	c0,0.459-0.133,0.909-0.385,1.293c1.629,0.384,2.784,1.838,2.784,3.507C19.316,14.255,17.703,15.87,15.716,15.87z M13.316,9.871
	c0-0.085-0.035-0.161-0.094-0.226L9.932,6.354c-0.055-0.057-0.14-0.084-0.215-0.084c-0.087,0-0.162,0.027-0.218,0.084l-3.3,3.301
	C6.143,9.711,6.116,9.796,6.116,9.871c0,0.158,0.13,0.299,0.3,0.299h2.1v3.301c0,0.158,0.139,0.299,0.3,0.299h1.8
	c0.16,0,0.301-0.142,0.301-0.299V10.17h2.101C13.185,10.17,13.317,10.039,13.316,9.871z"/>
</svg>
