<?xml version="1.0" encoding="utf-8"?>
<!-- Generator: Adobe Illustrator 15.1.0, SVG Export Plug-In . SVG Version: 6.00 Build 0)  -->
<!DOCTYPE svg PUBLIC "-//W3C//DTD SVG 1.1//EN" "http://www.w3.org/Graphics/SVG/1.1/DTD/svg11.dtd">
<svg version="1.1" id="Layer_1" xmlns="http://www.w3.org/2000/svg" xmlns:xlink="http://www.w3.org/1999/xlink" x="0px" y="0px"
	 width="32px" height="32px" viewBox="0 0 32 32" enable-background="new 0 0 32 32" xml:space="preserve">
<path fill="#231F20" d="M27.207,14.903c0,0,0,0,0-0.374c0-2.995-2.651-5.243-6.057-5.243c-1.138,0-1.895,0-3.03,0.375
	c0,0-0.073,0.011-0.378,0.193c0,6.74,0,6.173,0,6.173c3.03-2.995,3.03-2.995,3.03-2.995c0.757-0.749,1.514-0.749,2.271,0
	c0.379,0.374,0.379,0.749,0.379,1.122c0,0.375,0,0.75-0.379,0.75c-5.679,5.618-5.679,5.618-5.679,5.618
	c-0.377,0.373-0.758,0.373-1.137,0.373c-0.377,0-0.755,0-1.135-0.373c-5.3-5.618-5.3-5.618-5.3-5.618
	c-0.756-0.374-0.756-1.498,0-1.872c0.379-0.749,1.515-0.749,1.894,0c3.027,2.995,3.027,2.995,3.027,2.995c0-8.987,0-8.987,0-8.987
	c-0.531-0.207-1.136-0.374-1.892-0.374c-3.408,0-6.437,2.621-6.437,5.617c0,0.373,0.379,0.749,0.379,0.749c-0.379,0-0.757,0-0.757,0
	c-2.65,0-4.921,2.246-4.921,5.243c0,2.619,2.271,4.867,4.921,4.867c20.821,0,20.821,0,20.821,0c2.651,0,4.544-1.872,4.544-4.12
	C31.372,16.775,29.479,15.277,27.207,14.903L27.207,14.903z"/>
</svg>
