<?xml version="1.0" encoding="utf-8"?>
<!-- Generator: Adobe Illustrator 15.1.0, SVG Export Plug-In . SVG Version: 6.00 Build 0)  -->
<!DOCTYPE svg PUBLIC "-//W3C//DTD SVG 1.1//EN" "http://www.w3.org/Graphics/SVG/1.1/DTD/svg11.dtd">
<svg version="1.1" id="Layer_1" xmlns="http://www.w3.org/2000/svg" xmlns:xlink="http://www.w3.org/1999/xlink" x="0px" y="0px"
	 width="20px" height="20px" viewBox="0 0 20 20" enable-background="new 0 0 20 20" xml:space="preserve">
<g>
	<path d="M16.215,9.148c0.251-0.384,0.383-0.835,0.383-1.293c0-1.322-1.078-2.4-2.398-2.4c-0.572,0-1.125,0.206-1.557,0.58
		c-0.742-1.8-2.495-2.98-4.442-2.98c-2.653,0-4.802,2.146-4.802,4.8c0,0.131,0.012,0.261,0.021,0.402C1.947,8.94,1,10.424,1,12.052
		c0,2.315,1.885,4.2,4.201,4.2H15.4c1.988,0.002,3.6-1.611,3.6-3.598C18.997,10.984,17.846,9.532,16.215,9.148z M13.775,9.472
		l-4.338,4.339l-0.815,0.816c-0.108,0.107-0.257,0.168-0.408,0.168c-0.149,0-0.3-0.061-0.408-0.168l-0.814-0.816l-2.171-2.17
		c-0.106-0.107-0.166-0.258-0.166-0.406c0-0.149,0.059-0.299,0.167-0.408l0.816-0.814c0.106-0.108,0.256-0.168,0.405-0.168
		c0.151,0,0.3,0.06,0.408,0.168l1.76,1.768l3.934-3.938c0.107-0.106,0.258-0.168,0.406-0.168c0.15,0,0.299,0.06,0.448,0.209
		l0.733,0.733c0.147,0.148,0.209,0.297,0.209,0.448C13.941,9.215,13.885,9.364,13.775,9.472z"/>
</g>
</svg>
