<?xml version="1.0" encoding="utf-8"?>
<!-- Generator: Adobe Illustrator 15.1.0, SVG Export Plug-In . SVG Version: 6.00 Build 0)  -->
<!DOCTYPE svg PUBLIC "-//W3C//DTD SVG 1.1//EN" "http://www.w3.org/Graphics/SVG/1.1/DTD/svg11.dtd">
<svg version="1.1" id="Layer_1" xmlns="http://www.w3.org/2000/svg" xmlns:xlink="http://www.w3.org/1999/xlink" x="0px" y="0px"
	 width="32px" height="32px" viewBox="0 0 32 32" enable-background="new 0 0 32 32" xml:space="preserve">
<g>
	<g>
		<path fill="#020202" d="M24.941,27.691H8.296c-4.193,0-7.604-3.411-7.604-7.604c0-2.768,1.522-5.32,3.92-6.642
			c-0.002-0.071-0.004-0.142-0.004-0.213c0-4.733,3.85-8.583,8.583-8.583c3.185,0,6.057,1.737,7.55,4.496
			c0.682-0.378,1.452-0.58,2.243-0.58c2.573,0,4.666,2.094,4.666,4.667c0,0.574-0.104,1.136-0.307,1.66
			c2.526,0.981,4.223,3.402,4.225,6.171C31.568,24.719,28.596,27.691,24.941,27.691z M13.191,6.149
			c-3.906,0-7.083,3.177-7.083,7.083c0,0.196,0.015,0.394,0.029,0.605l0.036,0.515l-0.468,0.219
			c-2.134,0.991-3.513,3.156-3.513,5.516c0,3.366,2.738,6.104,6.104,6.104h16.646c2.827,0,5.127-2.3,5.127-5.127
			c-0.002-2.388-1.633-4.44-3.967-4.991l-1.044-0.246l0.589-0.896c0.33-0.501,0.504-1.089,0.504-1.7c0-1.746-1.42-3.167-3.166-3.167
			c-0.754,0-1.481,0.271-2.049,0.765l-0.788,0.686L19.75,10.55C18.649,7.876,16.075,6.149,13.191,6.149z M19.242,25.553
			c-0.447,0-0.887-0.181-1.205-0.496l-2.404-2.403l-2.397,2.4c-0.639,0.636-1.783,0.634-2.416,0l-1.355-1.354
			c-0.318-0.32-0.499-0.761-0.499-1.209c0-0.45,0.182-0.89,0.498-1.207l2.401-2.399l-2.401-2.399
			c-0.316-0.316-0.498-0.756-0.498-1.208s0.181-0.892,0.497-1.208l1.356-1.355c0.636-0.634,1.777-0.635,2.414-0.001l2.4,2.401
			l2.399-2.4c0.643-0.638,1.783-0.633,2.416-0.001l1.355,1.356c0.317,0.316,0.501,0.757,0.501,1.209c0,0.448-0.183,0.888-0.5,1.207
			l-2.4,2.398l2.401,2.4c0.317,0.319,0.499,0.759,0.499,1.208c0,0.444-0.18,0.883-0.493,1.203l-1.361,1.36
			C20.133,25.371,19.692,25.553,19.242,25.553z M15.632,20.532l3.462,3.461c0.072,0.07,0.223,0.072,0.295,0l1.355-1.354
			c0.034-0.035,0.06-0.096,0.06-0.148s-0.024-0.111-0.062-0.148l-3.46-3.46l3.46-3.458c0.036-0.037,0.062-0.096,0.062-0.147
			c0-0.053-0.023-0.111-0.061-0.147l-1.355-1.356c-0.073-0.072-0.223-0.073-0.298,0.002l-3.458,3.458l-3.459-3.461
			c-0.073-0.071-0.222-0.072-0.295,0.001l-1.354,1.354c-0.035,0.036-0.059,0.094-0.059,0.148c0,0.054,0.023,0.111,0.059,0.147
			l3.462,3.46l-3.461,3.459c-0.036,0.036-0.06,0.095-0.06,0.147c0,0.055,0.023,0.112,0.062,0.15l1.353,1.353
			c0.071,0.072,0.221,0.074,0.295-0.001L15.632,20.532z"/>
	</g>
</g>
</svg>
