<?xml version="1.0" encoding="utf-8"?>
<!-- Generator: Adobe Illustrator 15.1.0, SVG Export Plug-In . SVG Version: 6.00 Build 0)  -->
<!DOCTYPE svg PUBLIC "-//W3C//DTD SVG 1.1//EN" "http://www.w3.org/Graphics/SVG/1.1/DTD/svg11.dtd">
<svg version="1.1" id="Layer_1" xmlns="http://www.w3.org/2000/svg" xmlns:xlink="http://www.w3.org/1999/xlink" x="0px" y="0px"
	 width="20px" height="20px" viewBox="0 0 20 20" enable-background="new 0 0 20 20" xml:space="preserve">
<g>
	<path d="M19,4.614v7.608c0,2.039-1.668,3.709-3.711,3.709H4.708C2.669,15.932,1,14.262,1,12.223V4.614"/>
</g>
<path fill="#FFFFFF" d="M13.519,9.764h-2.237V5.478c0-0.169-0.148-0.32-0.318-0.32H9.036c-0.168,0-0.321,0.151-0.321,0.32v4.286
	H6.472c-0.18,0-0.319,0.15-0.319,0.321c0,0.081,0.027,0.169,0.09,0.231l3.523,3.523C9.828,13.902,9.902,13.93,10,13.93
	c0.08,0,0.171-0.027,0.229-0.091l3.514-3.514c0.061-0.07,0.1-0.146,0.1-0.241C13.842,9.902,13.699,9.764,13.519,9.764z"/>
</svg>
