<?xml version="1.0" encoding="utf-8"?>
<!-- Generator: Adobe Illustrator 15.1.0, SVG Export Plug-In . SVG Version: 6.00 Build 0)  -->
<!DOCTYPE svg PUBLIC "-//W3C//DTD SVG 1.1//EN" "http://www.w3.org/Graphics/SVG/1.1/DTD/svg11.dtd">
<svg version="1.1" id="Layer_1" xmlns="http://www.w3.org/2000/svg" xmlns:xlink="http://www.w3.org/1999/xlink" x="0px" y="0px"
	 width="20px" height="20px" viewBox="0 0 20 20" enable-background="new 0 0 20 20" xml:space="preserve">
<g>
	<path d="M1,0.851v7.608C1,8.98,1.111,9.476,1.308,9.927l3.125-0.625l3.819,0.765v2.102h7.038C17.332,12.168,19,10.5,19,8.459V0.851
		H1z"/>
</g>
<g>
	<path fill="#FFFFFF" d="M13.52,6.001h-2.235V1.715c0-0.169-0.147-0.32-0.318-0.32h-1.93c-0.168,0-0.321,0.151-0.321,0.32v4.286
		H6.472c-0.18,0-0.319,0.15-0.319,0.321c0,0.081,0.027,0.169,0.09,0.231l3.522,3.522C9.828,10.14,9.902,10.167,10,10.167
		c0.081,0,0.171-0.027,0.229-0.092l3.514-3.513c0.062-0.07,0.1-0.146,0.1-0.241C13.842,6.139,13.699,6.001,13.52,6.001z"/>
</g>
<g>
	<path d="M4.315,10.646l-2.979,0.598v4.17c0,1.969,2.979,3.572,2.979,3.572s2.977-1.601,2.977-3.572v-4.17L4.315,10.646z
		 M6.428,13.357l-2.38,2.379c-0.089,0.09-0.205,0.134-0.321,0.134c-0.116,0-0.232-0.044-0.321-0.134l-1.191-1.188
		c-0.177-0.178-0.178-0.465,0-0.644c0.178-0.176,0.465-0.178,0.642,0l0.87,0.869l2.059-2.059c0.177-0.178,0.464-0.176,0.642,0
		C6.605,12.893,6.605,13.18,6.428,13.357z"/>
</g>
</svg>
