<?xml version="1.0" encoding="utf-8"?>
<!-- Generator: Adobe Illustrator 15.1.0, SVG Export Plug-In . SVG Version: 6.00 Build 0)  -->
<!DOCTYPE svg PUBLIC "-//W3C//DTD SVG 1.1//EN" "http://www.w3.org/Graphics/SVG/1.1/DTD/svg11.dtd">
<svg version="1.1" id="Layer_1" xmlns="http://www.w3.org/2000/svg" xmlns:xlink="http://www.w3.org/1999/xlink" x="0px" y="0px"
	 width="32px" height="32px" viewBox="0 0 32 32" enable-background="new 0 0 32 32" xml:space="preserve">
<g>
	<path d="M16.154,18.084c-0.342,0-0.657-0.13-0.889-0.363l-5.383-5.384c-0.227-0.227-0.357-0.549-0.357-0.883
		c0-0.682,0.556-1.237,1.239-1.237h2.677V2.742c0-0.672,0.568-1.239,1.24-1.239h2.938c0.672,0,1.24,0.567,1.24,1.239v7.474h2.678
		c0.695,0,1.242,0.545,1.242,1.241c0,0.314-0.118,0.614-0.344,0.866l-5.4,5.401C16.82,17.948,16.495,18.084,16.154,18.084z
		 M11.382,11.716l4.77,4.77l4.771-4.77h-3.563V3.003h-2.417v8.713H11.382z"/>
</g>
<g>
	<g>
		<rect x="1.646" y="4.209" width="1.5" height="9.75"/>
	</g>
	<g>
		<path d="M24.239,22.251h-9.523v-1.5h9.523c2.712,0,4.919-2.207,4.919-4.919V4.208h1.5v11.624
			C30.658,19.371,27.777,22.251,24.239,22.251z"/>
	</g>
</g>
<path d="M6.411,15.497l-5.56,1.11v7.781c0,3.686,5.56,6.668,5.56,6.668s5.555-2.982,5.555-6.668v-7.781L6.411,15.497z
	 M10.472,21.436l-4.371,4.369c-0.156,0.156-0.368,0.244-0.589,0.244c-0.221,0-0.434-0.088-0.59-0.244l-2.186-2.188
	c-0.325-0.325-0.325-0.854,0-1.18c0.325-0.323,0.853-0.326,1.179,0l1.597,1.6l3.781-3.78c0.325-0.323,0.854-0.323,1.179,0
	C10.798,20.582,10.798,21.109,10.472,21.436z"/>
</svg>
