<?xml version="1.0" encoding="utf-8"?>
<!-- Generator: Adobe Illustrator 15.1.0, SVG Export Plug-In . SVG Version: 6.00 Build 0)  -->
<!DOCTYPE svg PUBLIC "-//W3C//DTD SVG 1.1//EN" "http://www.w3.org/Graphics/SVG/1.1/DTD/svg11.dtd">
<svg version="1.1" id="Layer_1" xmlns="http://www.w3.org/2000/svg" xmlns:xlink="http://www.w3.org/1999/xlink" x="0px" y="0px"
	 width="24px" height="24px" viewBox="0 0 32 32" enable-background="new 0 0 32 32" xml:space="preserve">
<g>
	<path d="M15.87,21.899c-0.34,0-0.655-0.129-0.887-0.363l-5.385-5.387c-0.227-0.228-0.356-0.549-0.356-0.884
		c0-0.683,0.556-1.237,1.239-1.237h2.677V6.555c0-0.671,0.568-1.239,1.24-1.239h2.939c0.672,0,1.24,0.567,1.24,1.239v7.474h2.678
		c0.694,0,1.241,0.545,1.243,1.239c0,0.318-0.12,0.619-0.348,0.871l-5.397,5.399C16.531,21.766,16.208,21.899,15.87,21.899z
		 M11.099,15.528l4.77,4.772l4.773-4.772h-3.565V6.817h-2.419v8.711H11.099z"/>
</g>
<g>
	<g>
		<path d="M23.956,26.065H7.782c-3.54,0-6.419-2.88-6.419-6.42V8.021h1.5v11.625c0,2.713,2.207,4.92,4.919,4.92h16.174
			c2.712,0,4.919-2.207,4.919-4.92V8.021h1.5v11.625C30.375,23.186,27.495,26.065,23.956,26.065z"/>
	</g>
</g>
</svg>
