<?xml version="1.0" encoding="utf-8"?>
<!-- Generator: Adobe Illustrator 15.1.0, SVG Export Plug-In . SVG Version: 6.00 Build 0)  -->
<!DOCTYPE svg PUBLIC "-//W3C//DTD SVG 1.1//EN" "http://www.w3.org/Graphics/SVG/1.1/DTD/svg11.dtd">
<svg version="1.1" id="Layer_1" xmlns="http://www.w3.org/2000/svg" xmlns:xlink="http://www.w3.org/1999/xlink" x="0px" y="0px"
	 width="32px" height="32px" viewBox="0 0 32 32" enable-background="new 0 0 32 32" xml:space="preserve">
<path fill="#010101" d="M27.338,14.206c0.37,0.736,0.37,1.476,0.37,1.844c0,6.641-5.544,11.806-11.826,11.806
	c-6.65,0-11.823-5.165-11.823-11.806c0-6.271,5.172-11.805,11.823-11.805c0.37,0,1.108,0.369,1.848,0.369
	c2.216-2.583,2.216-2.583,2.216-2.583c-1.108-0.369-2.586-0.738-4.064-0.738c-8.128,0-14.779,6.641-14.779,14.756
	c0,8.115,6.65,14.757,14.779,14.757c8.129,0,14.781-6.642,14.781-14.757c0-1.476-0.369-2.951-0.739-4.058L27.338,14.206z"/>
<path fill="#010101" d="M14.035,19.001c-0.37,0-0.739,0-0.739-0.369c-0.37,0-0.37-0.737-0.37-1.105
	c0.37-4.428,0.37-4.428,0.37-4.428s0.369-0.369,0.369-0.738c9.977-9.96,9.977-9.96,9.977-9.96c1.477-1.476,4.434-1.476,5.912,0
	c1.477,1.845,1.477,4.427,0,5.902c-9.978,9.96-9.978,9.96-9.978,9.96c-0.37,0-0.739,0.369-0.739,0.369
	c-4.433,0.369-4.433,0.369-4.433,0.369H14.035L14.035,19.001z M15.882,14.206c-0.37,2.213-0.37,2.213-0.37,2.213
	C18.1,16.05,18.1,16.05,18.1,16.05c9.608-9.591,9.608-9.591,9.608-9.591c0.368-0.738,0.368-1.475,0-2.213
	c-0.74-0.369-1.479-0.369-2.219,0L15.882,14.206z"/>
</svg>
