<?xml version="1.0" encoding="utf-8"?>
<!-- Generator: Adobe Illustrator 15.1.0, SVG Export Plug-In . SVG Version: 6.00 Build 0)  -->
<!DOCTYPE svg PUBLIC "-//W3C//DTD SVG 1.1//EN" "http://www.w3.org/Graphics/SVG/1.1/DTD/svg11.dtd">
<svg version="1.1" id="Layer_1" xmlns="http://www.w3.org/2000/svg" xmlns:xlink="http://www.w3.org/1999/xlink" x="0px" y="0px"
	 width="24px" height="24px" viewBox="0 0 32 32" enable-background="new 0 0 32 32" xml:space="preserve">
<g>
	<g>
		<path fill="#020202" d="M22.802,29.34h-15.4c-2.746,0-4.98-2.233-4.98-4.979V10.693c0-2.746,2.234-4.98,4.98-4.98h14.053v1.5
			H7.402c-1.919,0-3.48,1.561-3.48,3.48v13.668c0,1.918,1.561,3.479,3.48,3.479h15.4c1.919,0,3.48-1.561,3.48-3.479V16h1.5v8.361
			C27.782,27.106,25.548,29.34,22.802,29.34z"/>
	</g>
</g>
<g>
	<path fill="#020202" d="M11.112,24.407l1.041-6.855L25.157,4.546c0.874-0.875,2.438-0.875,3.311,0.001l2.508,2.509
		c0.911,0.913,0.911,2.396,0,3.308L17.974,23.369L11.112,24.407z M13.563,18.265l-0.661,4.355l4.359-0.661L29.915,9.304
		c0.321-0.321,0.321-0.865,0-1.187l-2.51-2.51c-0.31-0.31-0.88-0.309-1.188,0L13.563,18.265z"/>
</g>
<g>
	
		<rect x="18.806" y="10.531" transform="matrix(0.7071 0.7071 -0.7071 0.7071 16.73 -9.2706)" fill="#020202" width="1.5" height="10.057"/>
</g>
<g>
	
		<rect x="24.55" y="8.081" transform="matrix(0.7072 0.707 -0.707 0.7072 13.968 -16.0695)" fill="#020202" width="3.673" height="1.5"/>
</g>
</svg>
