<?xml version="1.0" encoding="utf-8"?>
<!-- Generator: Adobe Illustrator 15.1.0, SVG Export Plug-In . SVG Version: 6.00 Build 0)  -->
<!DOCTYPE svg PUBLIC "-//W3C//DTD SVG 1.1//EN" "http://www.w3.org/Graphics/SVG/1.1/DTD/svg11.dtd">
<svg version="1.1" id="Layer_1" xmlns="http://www.w3.org/2000/svg" xmlns:xlink="http://www.w3.org/1999/xlink" x="0px" y="0px"
	 width="32px" height="32px" viewBox="0 0 32 32" enable-background="new 0 0 32 32" xml:space="preserve">
<path d="M31.151,24.422l-6.227,5.457v-3.087c-0.698,0-1.405,0.055-2.119,0.165c-0.719,0.111-1.436,0.321-2.149,0.635
	c-0.716,0.313-1.406,0.706-2.065,1.185c-0.66,0.478-1.267,1.065-1.819,1.763c-0.075,0.073-0.165,0.11-0.276,0.11
	c-0.147,0-0.22-0.074-0.22-0.22c0.293-1.25,0.634-2.379,1.019-3.391c0.387-1.009,0.909-1.882,1.571-2.617
	c0.66-0.734,1.477-1.303,2.451-1.707c0.972-0.405,2.175-0.606,3.607-0.606v-3.141L31.151,24.422z"/>
<g>
	<path fill="#030303" d="M2.731,28.385l1.354-8.915L21.002,2.553c1.136-1.138,3.17-1.138,4.306,0.001l3.262,3.263
		c1.184,1.187,1.184,3.116,0,4.303L11.656,27.036L2.731,28.385z M5.918,20.399l-0.86,5.663l5.67-0.86l16.46-16.46
		c0.418-0.418,0.418-1.125,0-1.544l-3.264-3.265c-0.402-0.403-1.144-0.402-1.545,0L5.918,20.399z"/>
</g>
<g>
	
		<rect x="12.736" y="10.336" transform="matrix(-0.7082 -0.706 0.706 -0.7082 11.5103 38.5124)" fill="#030303" width="1.954" height="13.084"/>
</g>
<g>
	
		<rect x="20.211" y="7.15" transform="matrix(-0.707 -0.7073 0.7073 -0.707 32.8288 29.8533)" fill="#030303" width="4.775" height="1.951"/>
</g>
</svg>
