<?xml version="1.0" encoding="utf-8"?>
<!-- Generator: Adobe Illustrator 15.1.0, SVG Export Plug-In . SVG Version: 6.00 Build 0)  -->
<!DOCTYPE svg PUBLIC "-//W3C//DTD SVG 1.1//EN" "http://www.w3.org/Graphics/SVG/1.1/DTD/svg11.dtd">
<svg version="1.1" id="Layer_1" xmlns="http://www.w3.org/2000/svg" xmlns:xlink="http://www.w3.org/1999/xlink" x="0px" y="0px"
	 width="20px" height="20px" viewBox="0 0 20 20" enable-background="new 0 0 20 20" xml:space="preserve">
<g>
	<g>
		<g>
			<path fill="#020202" d="M16.633,14.938c0,1.484-1.215,2.698-2.699,2.698H4.111c-1.484,0-2.698-1.214-2.698-2.698V6.22
				c0-1.483,1.214-2.698,2.698-2.698h9.823c1.483,0,2.696,1.215,2.696,2.698v8.717H16.633z"/>
		</g>
		<g>
			<path fill="#020202" d="M13.934,18.111H4.111c-1.75,0-3.174-1.424-3.174-3.174V6.22c0-1.75,1.424-3.174,3.174-3.174h9.823
				c1.749,0,3.172,1.424,3.172,3.174l0.003,8.717C17.108,16.688,15.685,18.111,13.934,18.111z M4.111,3.998
				c-1.225,0-2.222,0.997-2.222,2.222v8.717c0,1.226,0.997,2.223,2.222,2.223h9.823c1.191,0,2.168-0.942,2.221-2.121V6.22
				c0-1.226-0.996-2.222-2.221-2.222H4.111z"/>
		</g>
	</g>
	<g>
		<path fill="#FFFFFF" d="M18.15,6.642l-3.346-3.394l0.971-0.971c0.391-0.39,1.045-0.39,1.434,0l1.912,1.96
			c0.391,0.39,0.391,1.042,0,1.433L18.15,6.642z"/>
		<path d="M18.149,7.095l-3.794-3.848l1.194-1.195c0.499-0.497,1.388-0.498,1.885,0l1.915,1.962
			c0.246,0.246,0.384,0.581,0.384,0.939c0,0.358-0.138,0.693-0.387,0.942L18.149,7.095z M15.254,3.25l2.897,2.94l0.744-0.745
			c0.129-0.129,0.199-0.304,0.199-0.492s-0.07-0.362-0.199-0.491L16.98,2.5c-0.251-0.251-0.724-0.253-0.979,0.003L15.254,3.25z"/>
	</g>
	<g>
		<g>
			<path fill="#FFFFFF" d="M15.035,3.015l-7.271,7.273l-0.715,4.106l4.111-0.715l7.18-7.272L15.035,3.015z"/>
			<path d="M6.657,14.786l0.811-4.652l7.571-7.573l3.748,3.848l-7.471,7.568L6.657,14.786z M8.061,10.442l-0.62,3.561l3.564-0.62
				l6.889-6.977l-2.861-2.937L8.061,10.442z"/>
		</g>
	</g>
</g>
<g>
	<path fill="#FFFFFF" stroke="#000000" stroke-width="1.2633" stroke-miterlimit="10" d="M15.238,6.096"/>
</g>
<g>
	<path fill="#FFFFFF" stroke="#000000" stroke-width="1.2633" stroke-miterlimit="10" d="M10.022,11.314"/>
</g>
</svg>
