<?xml version="1.0" encoding="utf-8"?>
<!-- Generator: Adobe Illustrator 15.1.0, SVG Export Plug-In . SVG Version: 6.00 Build 0)  -->
<!DOCTYPE svg PUBLIC "-//W3C//DTD SVG 1.1//EN" "http://www.w3.org/Graphics/SVG/1.1/DTD/svg11.dtd">
<svg version="1.1" id="Layer_1" xmlns="http://www.w3.org/2000/svg" xmlns:xlink="http://www.w3.org/1999/xlink" x="0px" y="0px"
	 width="20px" height="20px" viewBox="0 0 20 20" enable-background="new 0 0 20 20" xml:space="preserve">
<path d="M19.141,13.9c0,0.826-0.676,1.502-1.5,1.502H12.54c0,0.795,0.601,1.471,0.601,1.799s-0.271,0.602-0.601,0.602h-4.8
	c-0.328,0-0.601-0.273-0.601-0.602c0-0.348,0.601-0.984,0.601-1.799H2.639c-0.825,0-1.5-0.676-1.5-1.502V3.697
	c0-0.824,0.675-1.499,1.5-1.499h15.002c0.824,0,1.5,0.675,1.5,1.499V13.9z M17.299,4.614c0-0.161-0.129-0.301-0.271-0.301H3.47
	c-0.144,0-0.271,0.141-0.271,0.301v7.841c0,0.158,0.127,0.301,0.271,0.301h13.558c0.144,0,0.271-0.143,0.271-0.301L17.299,4.614
	L17.299,4.614z"/>
<path d="M5.676,10.518c-0.057,0.059-0.145,0.059-0.201,0l-0.217-0.218c-0.058-0.057-0.058-0.144,0-0.2l1.715-1.716L5.258,6.669
	C5.2,6.612,5.2,6.524,5.258,6.468L5.475,6.25c0.059-0.058,0.145-0.058,0.201,0l2.033,2.033c0.057,0.057,0.057,0.145,0,0.2
	L5.676,10.518z M12.42,10.758c0,0.078-0.063,0.141-0.141,0.141H8.09c-0.08,0-0.141-0.063-0.141-0.141v-0.28
	c0-0.078,0.061-0.139,0.141-0.139h4.189c0.078,0,0.141,0.061,0.141,0.139V10.758z"/>
</svg>
