<?xml version="1.0" encoding="utf-8"?>
<!-- Generator: Adobe Illustrator 15.1.0, SVG Export Plug-In . SVG Version: 6.00 Build 0)  -->
<!DOCTYPE svg PUBLIC "-//W3C//DTD SVG 1.1//EN" "http://www.w3.org/Graphics/SVG/1.1/DTD/svg11.dtd">
<svg version="1.1" id="Layer_1" xmlns="http://www.w3.org/2000/svg" xmlns:xlink="http://www.w3.org/1999/xlink" x="0px" y="0px"
	 width="32px" height="32px" viewBox="0 0 32 32" enable-background="new 0 0 32 32" xml:space="preserve">
<g>
	<path d="M19.415,28.85h-7.468c-0.908,0-1.647-0.741-1.647-1.651c0-0.386,0.185-0.748,0.4-1.166
		c0.146-0.285,0.304-0.593,0.409-0.917H4.014c-1.681,0-3.048-1.369-3.048-3.051V6.199c0-1.68,1.367-3.047,3.048-3.047h23.333
		c1.68,0,3.047,1.367,3.047,3.047v15.865c0.001,0.812-0.316,1.577-0.893,2.154c-0.577,0.578-1.342,0.896-2.154,0.896h-7.091
		c0.109,0.334,0.271,0.654,0.412,0.934c0.211,0.418,0.394,0.779,0.394,1.149C21.063,28.108,20.323,28.85,19.415,28.85z M4.014,4.582
		c-0.893,0-1.619,0.726-1.619,1.618v15.865c0,0.894,0.726,1.621,1.619,1.621h8.647V24.4c0,0.938-0.399,1.716-0.69,2.283
		c-0.097,0.189-0.229,0.448-0.244,0.537c0.001,0.094,0.105,0.199,0.219,0.199h7.468c0.114,0,0.218-0.105,0.218-0.222
		c-0.014-0.058-0.145-0.316-0.24-0.505C19.101,26.114,18.7,25.321,18.7,24.4v-0.715h8.647c0.893,0,1.619-0.728,1.619-1.621
		L28.965,6.199c0-0.892-0.726-1.618-1.617-1.618H4.014z M26.393,21.001H5.308c-0.616,0-1.137-0.543-1.137-1.185V7.625
		c0-0.641,0.521-1.183,1.137-1.183h21.083c0.617,0,1.139,0.542,1.139,1.183v12.191C27.529,20.458,27.009,21.001,26.393,21.001z
		 M5.6,19.571h20.5V7.872H5.6V19.571z"/>
</g>
<g>
	<path d="M8.737,16.801c-0.088,0.09-0.224,0.09-0.313,0l-0.339-0.338c-0.088-0.089-0.088-0.224,0-0.313l2.667-2.668l-2.667-2.667
		c-0.088-0.088-0.088-0.224,0-0.313l0.339-0.339c0.089-0.088,0.224-0.088,0.313,0l3.163,3.162c0.088,0.089,0.088,0.225,0,0.313
		L8.737,16.801z M19.227,17.176c0,0.123-0.096,0.219-0.217,0.219h-6.519c-0.123,0-0.217-0.096-0.217-0.219v-0.435
		c0-0.122,0.095-0.218,0.217-0.218h6.519c0.121,0,0.217,0.096,0.217,0.218V17.176z"/>
</g>
</svg>
