<?xml version="1.0" encoding="utf-8"?>
<!-- Generator: Adobe Illustrator 15.1.0, SVG Export Plug-In . SVG Version: 6.00 Build 0)  -->
<!DOCTYPE svg PUBLIC "-//W3C//DTD SVG 1.1//EN" "http://www.w3.org/Graphics/SVG/1.1/DTD/svg11.dtd">
<svg version="1.1" id="Layer_1" xmlns="http://www.w3.org/2000/svg" xmlns:xlink="http://www.w3.org/1999/xlink" x="0px" y="0px"
	 width="24px" height="24px" viewBox="0 0 32 32" enable-background="new 0 0 32 32" xml:space="preserve">
<path fill="#010101" d="M12.302,15.522L12.302,15.522L12.302,15.522c0,9.794,0,9.794,0,9.794c0,0.377,8.659,5.648,8.659,5.648
	c0.378,0,0.754,0,1.131,0l0,0l0,0l0,0c8.283-4.896,9.036-5.271,9.036-5.648c0-9.794,0-9.794,0-9.794l0,0l0,0l0,0l0,0l0,0l0,0
	c-0.377-0.377-9.036-5.65-9.036-5.65c-0.377,0-0.753,0-1.131,0L12.302,15.522z"/>
<path fill="#010101" d="M9.29,13.262c0-0.376,0-0.753,0.376-1.129c10.167-5.651,10.167-5.651,10.167-5.651c0-2.26,0-2.26,0-2.26
	c0-0.377-1.13-1.507-1.508-1.13c-3.388,1.884-3.388,1.884-3.388,1.884c-4.141-3.014-4.141-3.014-4.141-3.014
	c-0.377,0-0.754,0-1.13,0C1.383,6.858,1.383,6.858,1.383,6.858l0,0L1.006,7.611l0,0c0,9.418,0,9.418,0,9.418
	c0,0.378,0,0.755,0.376,1.13c4.519,3.015,4.519,3.015,4.519,3.015c0,3.391,0,3.391,0,3.391c0,0.377,0,0.754,0.377,1.131
	c0.375,0,1.129,0,1.129,0c1.883-1.131,1.883-1.131,1.883-1.131V13.262z"/>
<path fill="#010101" d="M12.302,15.145"/>
</svg>
