<?xml version="1.0" encoding="utf-8"?>
<!-- Generator: Adobe Illustrator 15.1.0, SVG Export Plug-In . SVG Version: 6.00 Build 0)  -->
<!DOCTYPE svg PUBLIC "-//W3C//DTD SVG 1.1//EN" "http://www.w3.org/Graphics/SVG/1.1/DTD/svg11.dtd">
<svg version="1.1" id="Layer_1" xmlns="http://www.w3.org/2000/svg" xmlns:xlink="http://www.w3.org/1999/xlink" x="0px" y="0px"
	 width="20px" height="20px" viewBox="0 0 20 20" enable-background="new 0 0 20 20" xml:space="preserve">
<path fill="#010101" d="M7.416,9.8L7.416,9.8L7.416,9.8c0,5.854,0,5.854,0,5.854c0,0.228,5.176,3.378,5.176,3.378
	c0.227,0,0.453,0,0.676,0l0,0l0,0l0,0c4.951-2.926,5.398-3.15,5.398-3.378c0-5.854,0-5.854,0-5.854l0,0l0,0l0,0l0,0l0,0l0,0
	c-0.225-0.224-5.398-3.375-5.398-3.375c-0.227,0-0.449,0-0.676,0L7.416,9.8z"/>
<path fill="#010101" d="M5.616,8.451c0-0.226,0-0.451,0.225-0.676c6.079-3.376,6.079-3.376,6.079-3.376c0-1.35,0-1.35,0-1.35
	c0-0.226-0.677-0.901-0.902-0.676C8.993,3.498,8.993,3.498,8.993,3.498C6.518,1.697,6.518,1.697,6.518,1.697
	c-0.225,0-0.451,0-0.676,0c-4.95,2.925-4.95,2.925-4.95,2.925l0,0L0.667,5.073l0,0c0,5.628,0,5.628,0,5.628
	c0,0.227,0,0.452,0.225,0.674c2.7,1.802,2.7,1.802,2.7,1.802c0,2.023,0,2.023,0,2.023c0,0.227,0,0.452,0.225,0.68
	c0.224,0,0.676,0,0.676,0c1.125-0.68,1.125-0.68,1.125-0.68V8.45L5.616,8.451L5.616,8.451z"/>
<path fill="#010101" d="M7.416,9.576"/>
</svg>
