<?xml version="1.0" encoding="utf-8"?>
<!-- Generator: Adobe Illustrator 15.1.0, SVG Export Plug-In . SVG Version: 6.00 Build 0)  -->
<!DOCTYPE svg PUBLIC "-//W3C//DTD SVG 1.1//EN" "http://www.w3.org/Graphics/SVG/1.1/DTD/svg11.dtd">
<svg version="1.1" id="Layer_1" xmlns="http://www.w3.org/2000/svg" xmlns:xlink="http://www.w3.org/1999/xlink" x="0px" y="0px"
	 width="32px" height="32px" viewBox="0 0 32 32" enable-background="new 0 0 32 32" xml:space="preserve">
<g>
	<path d="M14.521,24.377c-0.571,0-1.018-0.458-1.018-1.043c0-0.109,0.013-0.225,0.029-0.34l0.015-0.121
		c0.024-0.337,0.041-0.662,0.041-0.988c0-2.983-1.271-3.941-5.23-3.941H7.229v1.396c0,0.71-0.577,1.287-1.285,1.287
		c-0.339,0-0.661-0.135-0.906-0.379l-4.292-4.291c-0.245-0.246-0.379-0.568-0.379-0.908s0.134-0.661,0.378-0.905l4.291-4.289
		C5.279,9.61,5.601,9.475,5.943,9.475c0.709,0,1.286,0.576,1.286,1.285v1.396h1.127c4.357,0,6.982,1.257,8.025,3.844
		c0.34,0.859,0.499,1.833,0.499,3.07c0,1.028-0.38,2.402-1.128,4.084l-0.087,0.196c-0.078,0.181-0.166,0.387-0.296,0.57
		C15.152,24.224,14.867,24.377,14.521,24.377z M5.729,16.443h2.628c3.231,0,6.239,0.563,6.676,4.426
		c0.274-0.859,0.347-1.435,0.347-1.799c0-1.042-0.124-1.84-0.391-2.513c-0.787-1.951-2.957-2.901-6.633-2.901H5.729v-2.374
		l-3.77,3.768l3.77,3.769V16.443z"/>
</g>
<g>
	<g>
		<path d="M10.388,23.809v3.633h19.129V12.137H23.3c-0.791,0-1.438-0.644-1.438-1.435v-6.22H10.388v4.493L8.473,9.011V4.005
			c0-0.793,0.644-1.436,1.437-1.436h13.392c0.791,0,1.896,0.463,2.451,1.018l4.664,4.664c0.551,0.553,1.017,1.658,1.017,2.451V27.92
			c0,0.793-0.644,1.436-1.437,1.436H9.909c-0.793,0-1.437-0.643-1.437-1.436v-4.109L10.388,23.809z M20.369,14.049h4.847
			c0.271,0,0.479,0.21,0.479,0.478v0.958c0,0.269-0.209,0.479-0.479,0.479h-4.847c-0.27,0-0.479-0.211-0.479-0.479v-0.958
			C19.891,14.259,20.102,14.049,20.369,14.049z M25.691,18.352v0.959c0,0.271-0.209,0.479-0.479,0.479H18.95
			c-0.271,0-0.479-0.209-0.479-0.479v-0.959c0-0.268,0.209-0.477,0.479-0.477h6.265C25.482,17.875,25.691,18.084,25.691,18.352z
			 M25.691,22.182v0.953c0,0.271-0.209,0.48-0.479,0.48h-8.248c-0.271,0-0.48-0.209-0.48-0.48v-0.953
			c0-0.271,0.208-0.479,0.48-0.479h8.248C25.482,21.701,25.691,21.912,25.691,22.182z M23.779,10.224h5.619
			c-0.088-0.254-0.226-0.508-0.328-0.612l-4.68-4.68c-0.104-0.104-0.357-0.239-0.611-0.328V10.224z"/>
	</g>
</g>
</svg>
