<?xml version="1.0" encoding="utf-8"?>
<!-- Generator: Adobe Illustrator 15.1.0, SVG Export Plug-In . SVG Version: 6.00 Build 0)  -->
<!DOCTYPE svg PUBLIC "-//W3C//DTD SVG 1.1//EN" "http://www.w3.org/Graphics/SVG/1.1/DTD/svg11.dtd">
<svg version="1.1" id="Layer_1" xmlns="http://www.w3.org/2000/svg" xmlns:xlink="http://www.w3.org/1999/xlink" x="0px" y="0px"
	 width="32px" height="32px" viewBox="0 0 32 32" enable-background="new 0 0 32 32" xml:space="preserve">
<path d="M9.714,7.551c-1.853,1.746,0.345,3.63,1.843,1.844c0,0,0,0,2.948-2.951c0,0,0,0,0,11.436c0,0.737,0.421,1.465,1.475,1.476
	c1.107,0.012,1.476-0.738,1.476-1.476c0,0,0,0,0-11.436c0,0,0.151-0.145,2.948,2.951c1.508,1.668,3.705,0.216,2.211-1.844
	c0,0,0,0-5.528-5.531C16.721,1.65,16.351,1.65,15.981,1.65c-0.368,0-0.622,0.189-0.736,0.369L9.714,7.551z"/>
<path d="M29.251,12.349c-0.737,0-1.476,0.738-1.476,1.476c0,0.369,0,0.369,0,0.369l0,0c0,11.803,0,11.803,0,11.803
	c0,1.106-0.367,1.478-1.475,1.478c-20.639,0-20.639,0-20.639,0c-0.737,0-1.474-0.369-1.474-1.478c0-11.803,0-11.803,0-11.803l0,0
	c0-0.369,0-0.369,0-0.369c0-0.738-0.369-1.476-1.475-1.476c-0.737,0-1.474,0.738-1.474,1.476c0,0.369,0,0.369,0,0.369l0,0
	c0,11.803,0,11.803,0,11.803c0,2.582,2.211,4.427,4.422,4.427c20.639,0,20.639,0,20.639,0c2.58,0,4.423-1.845,4.423-4.427
	c0-7.746,0-7.746,0-7.746c0-4.057,0-4.057,0-4.057c0-0.369,0-0.369,0-0.369C30.725,13.086,30.355,12.349,29.251,12.349
	L29.251,12.349z"/>
</svg>
