<?xml version="1.0" encoding="utf-8"?>
<!-- Generator: Adobe Illustrator 15.1.0, SVG Export Plug-In . SVG Version: 6.00 Build 0)  -->
<!DOCTYPE svg PUBLIC "-//W3C//DTD SVG 1.1//EN" "http://www.w3.org/Graphics/SVG/1.1/DTD/svg11.dtd">
<svg version="1.1" id="Layer_1" xmlns="http://www.w3.org/2000/svg" xmlns:xlink="http://www.w3.org/1999/xlink" x="0px" y="0px"
	 width="20px" height="20px" viewBox="0 0 20 20" enable-background="new 0 0 20 20" xml:space="preserve">
<path d="M0.619,9.457c0-0.083,0.034-0.164,0.093-0.223l2.547-2.544c0.06-0.062,0.14-0.095,0.224-0.095
	c0.175,0,0.319,0.143,0.319,0.316v1.274h1.115c1.631,0,3.659,0.288,4.351,2.005c0.209,0.527,0.264,1.098,0.264,1.655
	c0,0.698-0.349,1.606-0.631,2.245c-0.056,0.111-0.109,0.273-0.184,0.375c-0.035,0.051-0.069,0.084-0.141,0.084
	c-0.099,0-0.159-0.08-0.159-0.174c0-0.08,0.02-0.168,0.025-0.248c0.016-0.203,0.025-0.406,0.025-0.611
	c0-2.374-1.407-2.786-3.549-2.786H3.802v1.272c0,0.174-0.145,0.318-0.319,0.318c-0.084,0-0.164-0.033-0.223-0.096L0.712,9.679
	C0.652,9.621,0.619,9.54,0.619,9.457z"/>
<path d="M6.124,14.656v2.158h11.358V7.729H13.79c-0.47,0-0.854-0.381-0.854-0.853V3.184H6.124v2.667L4.987,5.874V2.9
	c0-0.47,0.383-0.852,0.854-0.852h7.953c0.467,0,1.125,0.275,1.453,0.604l2.771,2.769c0.325,0.329,0.602,0.986,0.602,1.456V17.1
	c0,0.471-0.382,0.852-0.852,0.852H5.841c-0.471,0-0.854-0.381-0.854-0.852V14.66L6.124,14.656z"/>
<path d="M12.049,8.863h2.876c0.164,0,0.287,0.125,0.287,0.284v0.569c0,0.16-0.123,0.284-0.287,0.284h-2.876
	c-0.16,0-0.285-0.125-0.285-0.284V9.146C11.764,8.988,11.889,8.863,12.049,8.863z"/>
<path d="M15.21,11.416v0.57c0,0.158-0.123,0.281-0.285,0.281h-3.718c-0.16,0-0.285-0.123-0.285-0.281v-0.57
	c0-0.158,0.125-0.281,0.285-0.281h3.718C15.087,11.135,15.21,11.258,15.21,11.416z"/>
<path d="M15.21,13.689v0.564c0,0.162-0.123,0.287-0.285,0.287h-4.897c-0.161,0-0.284-0.125-0.284-0.287v-0.564
	c0-0.16,0.123-0.285,0.284-0.285h4.897C15.087,13.404,15.21,13.531,15.21,13.689z"/>
<path d="M14.074,6.592h3.336c-0.053-0.151-0.135-0.302-0.194-0.364l-2.776-2.777c-0.063-0.063-0.214-0.142-0.363-0.195L14.074,6.592
	L14.074,6.592z"/>
</svg>
