<?xml version="1.0" encoding="utf-8"?>
<!-- Generator: Adobe Illustrator 15.1.0, SVG Export Plug-In . SVG Version: 6.00 Build 0)  -->
<!DOCTYPE svg PUBLIC "-//W3C//DTD SVG 1.1//EN" "http://www.w3.org/Graphics/SVG/1.1/DTD/svg11.dtd">
<svg version="1.1" id="Layer_1" xmlns="http://www.w3.org/2000/svg" xmlns:xlink="http://www.w3.org/1999/xlink" x="0px" y="0px"
	 width="20px" height="20px" viewBox="0 0 20 20" enable-background="new 0 0 20 20" xml:space="preserve">
<g>
	<path fill="#010101" d="M5.81,17.867c-1.125,0.451-1.798,0-1.573-1.131c0.898-4.746,0.898-4.746,0.898-4.746
		C1.539,8.375,1.539,8.375,1.539,8.375C0.64,7.699,0.865,6.794,2.213,6.794C6.934,5.89,6.934,5.89,6.934,5.89
		c2.248-4.297,2.248-4.297,2.248-4.297c0.449-1.13,1.351-1.13,1.798,0c2.246,4.297,2.246,4.297,2.246,4.297
		c4.721,0.904,4.721,0.904,4.721,0.904c1.123,0,1.348,0.904,0.674,1.581c-3.596,3.615-3.596,3.615-3.596,3.615
		c0.897,4.746,0.897,4.746,0.897,4.746c0.226,1.131-0.45,1.582-1.573,1.131c-4.27-2.26-4.27-2.26-4.27-2.26L5.81,17.867z"/>
	<path fill="#010101" d="M15.122,18.336c-0.265,0-0.563-0.065-0.883-0.194l-4.159-2.199l-4.131,2.187
		c-0.843,0.342-1.447,0.252-1.793-0.17c-0.17-0.207-0.345-0.598-0.209-1.28l0.869-4.59L1.329,8.584
		C0.827,8.21,0.598,7.701,0.748,7.25c0.16-0.478,0.694-0.752,1.465-0.752l4.525-0.871l2.182-4.171
		c0.249-0.629,0.677-1.006,1.163-1.006c0.485,0,0.913,0.377,1.174,1.035l2.167,4.142l4.58,0.877
		c0.548-0.003,1.035,0.246,1.217,0.685c0.183,0.438,0.033,0.973-0.389,1.396l-3.485,3.505l0.868,4.593
		c0.136,0.679-0.039,1.069-0.209,1.276C15.802,18.206,15.497,18.336,15.122,18.336z M10.08,15.272l4.408,2.333
		c0.449,0.176,0.886,0.188,1.059-0.022c0.126-0.153,0.156-0.434,0.086-0.789l-0.928-4.902l3.706-3.726
		c0.25-0.251,0.351-0.539,0.262-0.751c-0.086-0.206-0.35-0.324-0.726-0.324L13.03,6.154L10.718,1.73
		c-0.174-0.436-0.413-0.688-0.636-0.688c-0.224,0-0.463,0.253-0.625,0.661L7.13,6.154L2.269,7.085C1.633,7.09,1.366,7.27,1.31,7.438
		c-0.064,0.191,0.096,0.466,0.407,0.7l3.737,3.753l-0.927,4.899c-0.071,0.358-0.041,0.639,0.085,0.792
		c0.173,0.21,0.58,0.213,1.086,0.009L10.08,15.272z"/>
</g>
</svg>
