<?xml version="1.0" encoding="utf-8"?>
<!-- Generator: Adobe Illustrator 15.1.0, SVG Export Plug-In . SVG Version: 6.00 Build 0)  -->
<!DOCTYPE svg PUBLIC "-//W3C//DTD SVG 1.1//EN" "http://www.w3.org/Graphics/SVG/1.1/DTD/svg11.dtd">
<svg version="1.1" id="Layer_1" xmlns="http://www.w3.org/2000/svg" xmlns:xlink="http://www.w3.org/1999/xlink" x="0px" y="0px"
	 width="24px" height="24px" viewBox="0 0 32 32" enable-background="new 0 0 32 32" xml:space="preserve">
<path fill="#010101" d="M9.17,30.266c-1.896,0.764-3.034,0-2.655-1.908c1.517-8.012,1.517-8.012,1.517-8.012
	c-6.07-6.104-6.07-6.104-6.07-6.104c-1.517-1.144-1.138-2.67,1.139-2.67c7.968-1.526,7.968-1.526,7.968-1.526
	c3.794-7.25,3.794-7.25,3.794-7.25c0.757-1.908,2.276-1.908,3.034,0c3.795,7.25,3.795,7.25,3.795,7.25
	c7.968,1.526,7.968,1.526,7.968,1.526c1.896,0,2.272,1.526,1.138,2.67c-6.068,6.104-6.068,6.104-6.068,6.104
	c1.517,8.012,1.517,8.012,1.517,8.012c0.379,1.908-0.757,2.672-2.655,1.908c-7.207-3.813-7.207-3.813-7.207-3.813L9.17,30.266z"/>
</svg>
