<?xml version="1.0" encoding="utf-8"?>
<!-- Generator: Adobe Illustrator 15.1.0, SVG Export Plug-In . SVG Version: 6.00 Build 0)  -->
<!DOCTYPE svg PUBLIC "-//W3C//DTD SVG 1.1//EN" "http://www.w3.org/Graphics/SVG/1.1/DTD/svg11.dtd">
<svg version="1.1" id="Layer_1" xmlns="http://www.w3.org/2000/svg" xmlns:xlink="http://www.w3.org/1999/xlink" x="0px" y="0px"
	 width="24px" height="24px" viewBox="0 0 32 32" enable-background="new 0 0 32 32" xml:space="preserve">
<path d="M9.003,23.455v4.83h19.964V12.311h-6.49c-0.822,0-1.498-0.671-1.498-1.497V4.321H9.003v4.88l-2,0.037V3.823
	c0-0.828,0.673-1.499,1.501-1.499h13.975c0.826,0,1.979,0.483,2.563,1.063l4.868,4.869c0.574,0.577,1.063,1.731,1.063,2.559v17.97
	c0,0.828-0.672,1.498-1.498,1.498H8.503c-0.828,0-1.5-0.67-1.5-1.498v-5.328L9.003,23.455z M27.241,20.781v1.001
	c0,0.28-0.218,0.499-0.5,0.499h-7.668c-0.282,0-0.5-0.219-0.5-0.499v-1.001c0-0.279,0.218-0.498,0.5-0.498h7.673
	C27.023,20.283,27.241,20.502,27.241,20.781z M27.241,16.802v1.001c0,0.28-0.169,0.499-0.388,0.499h-5.959
	c-0.225,0-0.395-0.219-0.395-0.499v-1.001c0-0.278,0.17-0.498,0.395-0.498h5.961C27.072,16.304,27.241,16.521,27.241,16.802z
	 M27.241,24.777v0.994c0,0.283-0.218,0.502-0.5,0.502h-9.74c-0.28,0-0.499-0.219-0.499-0.502v-0.994c0-0.281,0.217-0.5,0.499-0.5
	h9.74C27.023,24.275,27.241,24.498,27.241,24.777z M22.979,10.315h5.865c-0.097-0.266-0.234-0.531-0.348-0.64l-4.885-4.884
	c-0.105-0.108-0.373-0.25-0.641-0.342v5.866H22.979z"/>
<g enable-background="new    ">
	<path d="M0.367,20.111l2.914-3.771l-2.569-3.465h1.187l1.367,1.856c0.284,0.385,0.486,0.681,0.606,0.888
		c0.168-0.263,0.367-0.538,0.596-0.824l1.516-1.92h1.084l-2.646,3.411l2.852,3.823H6.04l-1.896-2.58
		c-0.106-0.147-0.216-0.311-0.329-0.483c-0.168,0.265-0.288,0.445-0.359,0.543l-1.891,2.521H0.367V20.111z"/>
	<path d="M8.111,20.111v-7.234h0.997v6.381h3.71v0.854H8.111L8.111,20.111z"/>
	<path d="M13.666,17.787l0.94-0.078c0.044,0.361,0.148,0.658,0.311,0.891c0.163,0.233,0.415,0.42,0.758,0.563
		c0.343,0.144,0.728,0.215,1.156,0.215c0.38,0,0.716-0.055,1.007-0.163c0.291-0.107,0.508-0.257,0.65-0.445
		c0.142-0.188,0.213-0.396,0.213-0.619c0-0.229-0.068-0.426-0.205-0.596s-0.363-0.312-0.678-0.427
		c-0.203-0.076-0.65-0.192-1.342-0.354c-0.692-0.157-1.177-0.31-1.454-0.452c-0.36-0.181-0.628-0.405-0.804-0.673
		c-0.177-0.268-0.265-0.568-0.265-0.901c0-0.365,0.108-0.707,0.324-1.024c0.216-0.317,0.531-0.559,0.945-0.723
		c0.414-0.164,0.875-0.247,1.383-0.247c0.558,0,1.051,0.086,1.477,0.259c0.427,0.173,0.755,0.427,0.984,0.763
		c0.229,0.336,0.353,0.716,0.369,1.14l-0.955,0.069c-0.051-0.457-0.227-0.803-0.521-1.036c-0.297-0.234-0.734-0.351-1.313-0.351
		c-0.604,0-1.043,0.106-1.318,0.318c-0.276,0.212-0.414,0.468-0.414,0.768c0,0.26,0.097,0.474,0.292,0.642
		c0.192,0.167,0.693,0.34,1.504,0.516c0.81,0.176,1.365,0.33,1.667,0.461c0.438,0.194,0.764,0.44,0.973,0.738
		s0.313,0.641,0.313,1.027c0,0.386-0.115,0.748-0.345,1.09c-0.229,0.341-0.561,0.605-0.988,0.795
		c-0.432,0.188-0.914,0.283-1.452,0.283c-0.682,0-1.253-0.096-1.713-0.286c-0.461-0.19-0.822-0.478-1.084-0.861
		C13.817,18.705,13.679,18.271,13.666,17.787z"/>
</g>
</svg>
