<?xml version="1.0" encoding="utf-8"?>
<!-- Generator: Adobe Illustrator 15.1.0, SVG Export Plug-In . SVG Version: 6.00 Build 0)  -->
<!DOCTYPE svg PUBLIC "-//W3C//DTD SVG 1.1//EN" "http://www.w3.org/Graphics/SVG/1.1/DTD/svg11.dtd">
<svg version="1.1" id="Layer_1" xmlns="http://www.w3.org/2000/svg" xmlns:xlink="http://www.w3.org/1999/xlink" x="0px" y="0px"
	 width="32px" height="32px" viewBox="0 0 32 32" enable-background="new 0 0 32 32" xml:space="preserve">
<g>
	<path d="M9.571,23.23v4.692h19.4v-15.52h-6.308c-0.798,0-1.455-0.65-1.455-1.457V4.638H9.571v4.744L7.625,9.416V4.155
		c0-0.804,0.655-1.458,1.459-1.458h13.58c0.8,0,1.924,0.469,2.49,1.032l4.729,4.732c0.559,0.56,1.036,1.681,1.036,2.485V28.41
		c0,0.804-0.653,1.459-1.46,1.459H9.085c-0.805,0-1.459-0.646-1.459-1.459v-5.18H9.571z M23.15,10.462h5.699
		c-0.099-0.257-0.229-0.513-0.34-0.621l-4.742-4.749C23.665,4.988,23.4,4.85,23.143,4.76v5.699L23.15,10.462L23.15,10.462z"/>
</g>
<g>
	<g>
		<path d="M0.552,11.181h1.056v7.208h3.454v0.877h-4.51V11.181z"/>
	</g>
	<g>
		<path d="M12.668,15.139c0,2.77-1.691,4.257-3.754,4.257c-2.147,0-3.634-1.668-3.634-4.114c0-2.566,1.583-4.246,3.742-4.246
			C11.241,11.037,12.668,12.728,12.668,15.139z M6.384,15.259c0,1.739,0.936,3.286,2.591,3.286c1.655,0,2.59-1.523,2.59-3.358
			c0-1.619-0.839-3.298-2.579-3.298C7.246,11.889,6.384,13.496,6.384,15.259z"/>
	</g>
	<g>
		<path d="M20.193,18.904c-0.469,0.181-1.403,0.443-2.495,0.443c-1.224,0-2.231-0.313-3.022-1.066
			c-0.695-0.672-1.127-1.752-1.127-3.01c0-2.411,1.667-4.174,4.378-4.174c0.935,0,1.679,0.204,2.026,0.372l-0.264,0.852
			c-0.434-0.204-0.974-0.348-1.787-0.348c-1.967,0-3.25,1.223-3.25,3.25c0,2.05,1.223,3.261,3.12,3.261
			c0.685,0,1.15-0.096,1.392-0.215v-2.412h-1.634V15.02h2.664V18.904L20.193,18.904z"/>
	</g>
</g>
<g>
	<path d="M20.915,22.293l-0.112-0.008c-1.121-0.068-1.796-0.233-2.006-0.489c-0.104-0.117-0.569-0.319-0.795-0.357
		c-0.131,0.122-0.414,0.276-1.058,0.423c-0.629,0.143-0.869,0.107-1.001,0.03c-0.069-0.009-0.173-0.01-0.3-0.014
		c-0.518-0.016-1.386-0.043-2.112-0.421c-0.627-0.331-1.227,0.802-1.233,0.813l-0.665-0.344c0.051-0.1,0.524-0.981,1.279-1.221
		c0.323-0.104,0.656-0.073,0.964,0.088c0.575,0.3,1.306,0.322,1.79,0.338c0.292,0.009,0.471,0.015,0.605,0.081
		c0.242-0.001,0.99-0.18,1.194-0.303c0.074-0.116,0.196-0.192,0.349-0.216c0.435-0.073,1.316,0.323,1.563,0.631
		c0.099,0.056,0.73,0.161,1.358,0.207l1.351-0.767l1.987-0.507l1.212,1.219c0.278-0.028,0.796-0.077,0.923-0.077
		c0.067-0.029,0.607-0.332,1.033-0.592l0.391,0.639c-1.148,0.701-1.328,0.701-1.424,0.701c-0.164,0-1.023,0.091-1.023,0.091
		l-0.179,0.019l-1.161-1.169l-1.523,0.389L20.915,22.293z"/>
</g>
<g>
	<path d="M20.915,24.534l-0.112-0.007c-1.122-0.067-1.797-0.232-2.007-0.49c-0.103-0.115-0.568-0.318-0.793-0.355
		c-0.132,0.122-0.414,0.275-1.055,0.422c-0.632,0.142-0.873,0.109-1.005,0.03c-0.069-0.009-0.172-0.009-0.3-0.013
		c-0.519-0.017-1.386-0.043-2.112-0.421c-0.099-0.052-0.365-0.189-0.79,0.221c-0.269,0.26-0.441,0.589-0.443,0.592l-0.665-0.343
		c0.051-0.101,0.524-0.983,1.279-1.223c0.323-0.102,0.656-0.072,0.964,0.089c0.575,0.3,1.306,0.322,1.79,0.337
		c0.292,0.009,0.471,0.015,0.605,0.081c0.242-0.001,0.989-0.179,1.194-0.302c0.073-0.115,0.196-0.192,0.348-0.216
		c0.436-0.075,1.316,0.322,1.563,0.63c0.101,0.057,0.731,0.162,1.359,0.207l1.351-0.766l1.987-0.507l1.212,1.217
		c0.278-0.027,0.796-0.076,0.923-0.076c0.067-0.029,0.607-0.331,1.034-0.591l0.389,0.639c-1.147,0.7-1.327,0.7-1.423,0.7
		c-0.164,0-1.023,0.09-1.024,0.09l-0.178,0.019l-1.161-1.167l-1.523,0.389L20.915,24.534z"/>
</g>
<g>
	<path d="M20.915,27.026l-0.112-0.007c-1.121-0.067-1.797-0.231-2.007-0.489c-0.103-0.115-0.568-0.318-0.793-0.356
		c-0.132,0.122-0.413,0.276-1.055,0.423c-0.632,0.142-0.873,0.109-1.005,0.03c-0.069-0.009-0.172-0.009-0.299-0.013
		c-0.519-0.016-1.387-0.042-2.113-0.421c-0.133-0.069-0.257-0.084-0.393-0.04c-0.392,0.124-0.747,0.67-0.84,0.852l-0.665-0.342
		c0.051-0.101,0.524-0.983,1.28-1.223c0.324-0.104,0.657-0.071,0.964,0.089c0.574,0.3,1.306,0.322,1.79,0.337
		c0.292,0.009,0.471,0.015,0.605,0.081c0.242-0.001,0.989-0.179,1.194-0.302c0.073-0.115,0.196-0.192,0.348-0.217
		c0.436-0.064,1.316,0.322,1.563,0.631c0.101,0.056,0.731,0.161,1.359,0.206l1.352-0.767l1.986-0.505l1.212,1.218
		c0.278-0.028,0.796-0.077,0.923-0.077c0.067-0.029,0.607-0.332,1.033-0.593l0.391,0.639c-1.148,0.702-1.327,0.702-1.424,0.702
		c-0.164,0-1.023,0.091-1.023,0.091l-0.179,0.019l-1.161-1.168l-1.523,0.387L20.915,27.026z"/>
</g>
</svg>
