<?xml version="1.0" encoding="utf-8"?>
<!-- Generator: Adobe Illustrator 15.1.0, SVG Export Plug-In . SVG Version: 6.00 Build 0)  -->
<!DOCTYPE svg PUBLIC "-//W3C//DTD SVG 1.1//EN" "http://www.w3.org/Graphics/SVG/1.1/DTD/svg11.dtd">
<svg version="1.1" id="Layer_1" xmlns="http://www.w3.org/2000/svg" xmlns:xlink="http://www.w3.org/1999/xlink" x="0px" y="0px"
	 width="20px" height="20px" viewBox="0 0 20 20" enable-background="new 0 0 20 20" xml:space="preserve">
<path d="M5.809,14.641v2.93h12.108V7.882H13.98c-0.5,0-0.908-0.407-0.908-0.908V3.036H5.809v2.96L4.596,6.018V2.734
	c0-0.502,0.408-0.909,0.911-0.909h8.476c0.5,0,1.201,0.293,1.557,0.645l2.953,2.953c0.348,0.35,0.645,1.05,0.645,1.552v10.899
	c0,0.502-0.406,0.908-0.906,0.908H5.505c-0.502,0-0.91-0.406-0.91-0.908v-3.231L5.809,14.641z"/>
<path d="M16.87,13.02v0.606c0,0.171-0.132,0.304-0.304,0.304h-4.65c-0.171,0-0.303-0.133-0.303-0.304V13.02
	c0-0.17,0.132-0.302,0.303-0.302h4.654C16.738,12.718,16.87,12.85,16.87,13.02z"/>
<path d="M16.87,10.605v0.604c0,0.17-0.103,0.306-0.234,0.306h-3.614c-0.133,0-0.233-0.136-0.233-0.306v-0.604
	c0-0.168,0.104-0.301,0.233-0.301h3.615C16.768,10.304,16.87,10.436,16.87,10.605z"/>
<path d="M16.87,15.443v0.603c0,0.172-0.132,0.306-0.304,0.306h-5.907c-0.169,0-0.302-0.134-0.302-0.306v-0.603
	c0-0.172,0.131-0.305,0.302-0.305h5.907C16.738,15.139,16.87,15.273,16.87,15.443z"/>
<path d="M14.285,6.671h3.558C17.784,6.51,17.7,6.35,17.632,6.283l-2.963-2.962c-0.063-0.065-0.228-0.152-0.39-0.208v3.558H14.285z"
	/>
<g enable-background="new    ">
	<path d="M1.133,12.613V8.226h2.528v0.518H1.629v1.359h1.758v0.518H1.629v1.993L1.133,12.613L1.133,12.613z"/>
	<path d="M4.518,12.613V8.226h0.496v4.388L4.518,12.613L4.518,12.613z"/>
	<path d="M5.977,12.613V8.226h0.495v3.87h1.845v0.521L5.977,12.613L5.977,12.613z"/>
	<path d="M9.056,12.613V8.226h2.709v0.518H9.551v1.341h2.072v0.519H9.551v1.492h2.301v0.521L9.056,12.613L9.056,12.613z"/>
</g>
</svg>
