<?xml version="1.0" encoding="utf-8"?>
<!-- Generator: Adobe Illustrator 15.1.0, SVG Export Plug-In . SVG Version: 6.00 Build 0)  -->
<!DOCTYPE svg PUBLIC "-//W3C//DTD SVG 1.1//EN" "http://www.w3.org/Graphics/SVG/1.1/DTD/svg11.dtd">
<svg version="1.1" id="Layer_1" xmlns="http://www.w3.org/2000/svg" xmlns:xlink="http://www.w3.org/1999/xlink" x="0px" y="0px"
	 width="20px" height="20px" viewBox="0 0 20 20" enable-background="new 0 0 20 20" xml:space="preserve">
<g>
	<path d="M6.346,14.4v2.783h11.5V7.983h-3.738c-0.474,0-0.861-0.385-0.861-0.863V3.38h-6.9v2.812l-1.153,0.02V3.094
		c0-0.476,0.388-0.864,0.865-0.864h8.049c0.475,0,1.141,0.278,1.477,0.612l2.803,2.805C18.717,5.979,19,6.643,19,7.119v10.354
		c0,0.478-0.387,0.863-0.865,0.863H6.058c-0.478,0-0.865-0.383-0.865-0.863v-3.07h1.153V14.4z"/>
</g>
<g>
	<path d="M14.396,6.833h3.377c-0.058-0.152-0.135-0.304-0.199-0.368L14.762,3.65c-0.062-0.062-0.218-0.144-0.371-0.197v3.378
		L14.396,6.833L14.396,6.833z"/>
</g>
<g>
	<g>
		<path d="M1,7.259h0.626v4.272h2.047v0.52H1V7.259z"/>
	</g>
	<g>
		<path d="M8.182,9.605c0,1.642-1.002,2.524-2.225,2.524c-1.272,0-2.154-0.988-2.154-2.439c0-1.521,0.938-2.517,2.218-2.517
			C7.336,7.173,8.182,8.176,8.182,9.605z M4.457,9.676c0,1.031,0.554,1.948,1.536,1.948c0.981,0,1.535-0.903,1.535-1.991
			c0-0.96-0.497-1.955-1.528-1.955S4.457,8.631,4.457,9.676z"/>
	</g>
	<g>
		<path d="M12.643,11.837c-0.275,0.106-0.832,0.265-1.479,0.265c-0.726,0-1.323-0.187-1.792-0.634
			C8.96,11.068,8.704,10.43,8.704,9.683c0-1.429,0.988-2.474,2.595-2.474c0.555,0,0.995,0.121,1.201,0.22l-0.156,0.505
			c-0.256-0.121-0.576-0.206-1.06-0.206c-1.165,0-1.926,0.725-1.926,1.926c0,1.216,0.725,1.934,1.848,1.934
			c0.405,0,0.683-0.057,0.823-0.128v-1.429h-0.965V9.534h1.578V11.837L12.643,11.837z"/>
	</g>
</g>
<g>
	<path d="M13.071,13.845l-0.067-0.004c-0.664-0.04-1.063-0.138-1.188-0.29c-0.062-0.068-0.336-0.188-0.471-0.212
		c-0.075,0.071-0.238,0.16-0.608,0.246c-0.403,0.094-0.545,0.066-0.615,0.022c-0.041-0.005-0.1-0.005-0.173-0.007
		c-0.308-0.01-0.823-0.024-1.255-0.252C8.614,13.308,8.54,13.3,8.461,13.325c-0.231,0.072-0.438,0.39-0.498,0.505l-0.395-0.203
		c0.03-0.059,0.311-0.583,0.758-0.725c0.19-0.061,0.389-0.042,0.572,0.054c0.342,0.18,0.776,0.192,1.063,0.201
		c0.171,0.005,0.277,0.008,0.356,0.047c0.144,0,0.587-0.106,0.708-0.179c0.044-0.069,0.116-0.114,0.205-0.129
		c0.261-0.035,0.78,0.191,0.928,0.374c0.06,0.033,0.434,0.096,0.807,0.123l0.801-0.456l1.18-0.301l0.718,0.722
		c0.164-0.016,0.47-0.044,0.546-0.044c0.04-0.018,0.36-0.197,0.612-0.352l0.232,0.379c-0.681,0.416-0.791,0.416-0.845,0.416
		c-0.098,0-0.606,0.053-0.606,0.053l-0.105,0.011l-0.688-0.692l-0.903,0.23L13.071,13.845z"/>
</g>
<g>
	<path d="M13.071,15.176l-0.067-0.004c-0.664-0.041-1.063-0.139-1.188-0.289c-0.062-0.069-0.336-0.189-0.471-0.214
		c-0.074,0.07-0.233,0.157-0.593,0.243c-0.413,0.1-0.561,0.069-0.63,0.026c-0.041-0.005-0.101-0.005-0.175-0.008
		c-0.308-0.009-0.823-0.024-1.254-0.252c-0.077-0.04-0.152-0.048-0.231-0.022c-0.232,0.074-0.443,0.398-0.498,0.506l-0.395-0.203
		c0.03-0.059,0.311-0.583,0.758-0.726c0.192-0.06,0.39-0.043,0.572,0.053c0.342,0.18,0.775,0.192,1.062,0.201
		c0.172,0.006,0.278,0.009,0.357,0.048c0.145-0.001,0.589-0.106,0.708-0.18c0.044-0.069,0.116-0.114,0.205-0.129
		c0.254-0.035,0.78,0.192,0.928,0.375c0.06,0.033,0.434,0.096,0.807,0.123l0.801-0.457l1.18-0.3l0.718,0.722
		c0.164-0.016,0.47-0.045,0.546-0.045c0.04-0.018,0.36-0.197,0.612-0.352l0.232,0.379c-0.681,0.416-0.791,0.416-0.845,0.416
		c-0.098,0-0.605,0.054-0.606,0.054l-0.105,0.011l-0.688-0.692l-0.903,0.229L13.071,15.176z"/>
</g>
<g>
	<path d="M13.071,16.651l-0.067-0.004c-0.664-0.04-1.063-0.138-1.188-0.29c-0.062-0.068-0.338-0.188-0.472-0.211
		c-0.077,0.072-0.245,0.164-0.625,0.25c-0.372,0.084-0.516,0.065-0.594,0.019c-0.041-0.006-0.102-0.006-0.176-0.008
		c-0.308-0.009-0.823-0.023-1.255-0.25c-0.078-0.041-0.153-0.05-0.231-0.023c-0.231,0.072-0.438,0.39-0.498,0.505l-0.395-0.203
		c0.03-0.059,0.311-0.583,0.758-0.725c0.19-0.061,0.389-0.042,0.572,0.054c0.341,0.179,0.775,0.191,1.062,0.199
		c0.172,0.005,0.278,0.008,0.357,0.048c0.143-0.001,0.586-0.106,0.707-0.179c0.044-0.068,0.116-0.114,0.206-0.128
		c0.26-0.049,0.779,0.19,0.927,0.372c0.06,0.033,0.435,0.096,0.807,0.123l0.801-0.454l1.18-0.301l0.718,0.722
		c0.164-0.017,0.47-0.046,0.546-0.046c0.04-0.018,0.36-0.197,0.612-0.352l0.232,0.379c-0.681,0.416-0.791,0.416-0.845,0.416
		c-0.098,0-0.604,0.055-0.605,0.055l-0.105,0.011l-0.689-0.692l-0.903,0.23L13.071,16.651z"/>
</g>
</svg>
