<?xml version="1.0" encoding="utf-8"?>
<!-- Generator: Adobe Illustrator 15.1.0, SVG Export Plug-In . SVG Version: 6.00 Build 0)  -->
<!DOCTYPE svg PUBLIC "-//W3C//DTD SVG 1.1//EN" "http://www.w3.org/Graphics/SVG/1.1/DTD/svg11.dtd">
<svg version="1.1" id="Layer_1" xmlns="http://www.w3.org/2000/svg" xmlns:xlink="http://www.w3.org/1999/xlink" x="0px" y="0px"
	 width="20px" height="20px" viewBox="0 0 20 20" enable-background="new 0 0 20 20" xml:space="preserve">
<path d="M5.764,14.537v2.859h11.818V7.94H13.74c-0.487,0-0.887-0.397-0.887-0.886V3.21h-7.09v2.889L4.58,6.121V2.916
	c0-0.49,0.398-0.888,0.888-0.888h8.273c0.489,0,1.172,0.286,1.518,0.629l2.882,2.882c0.34,0.341,0.629,1.024,0.629,1.515v10.637
	c0,0.49-0.396,0.888-0.887,0.888H5.468c-0.49,0-0.888-0.396-0.888-0.888v-3.153L5.764,14.537z"/>
<path d="M16.561,12.954v0.593c0,0.166-0.129,0.296-0.295,0.296h-4.539c-0.168,0-0.297-0.13-0.297-0.296v-0.593
	c0-0.165,0.129-0.295,0.297-0.295h4.541C16.432,12.659,16.561,12.789,16.561,12.954z"/>
<path d="M16.561,10.6v0.592c0,0.166-0.1,0.295-0.229,0.295h-3.527c-0.13,0-0.229-0.129-0.229-0.295V10.6
	c0-0.166,0.101-0.292,0.229-0.292h3.528C16.461,10.304,16.561,10.433,16.561,10.6z"/>
<path d="M16.561,15.32v0.588c0,0.168-0.129,0.298-0.295,0.298h-5.767c-0.166,0-0.295-0.13-0.295-0.298V15.32
	c0-0.168,0.128-0.297,0.295-0.297h5.767C16.432,15.021,16.561,15.154,16.561,15.32z"/>
<path d="M14.037,6.758h3.473c-0.058-0.157-0.139-0.314-0.205-0.379l-2.893-2.891c-0.063-0.064-0.221-0.148-0.38-0.202v3.472H14.037z
	"/>
<g enable-background="new    ">
	<path d="M0.77,12.559V8.275h1.537c0.347,0,0.612,0.021,0.794,0.062c0.255,0.057,0.473,0.159,0.654,0.307
		c0.236,0.19,0.412,0.435,0.528,0.732c0.116,0.297,0.175,0.636,0.175,1.018c0,0.325-0.04,0.613-0.119,0.864
		s-0.181,0.459-0.304,0.624s-0.259,0.294-0.406,0.39s-0.325,0.166-0.533,0.215c-0.208,0.051-0.447,0.072-0.716,0.072H0.77z
		 M1.36,12.053h0.952c0.294,0,0.525-0.025,0.692-0.078s0.301-0.127,0.4-0.223c0.14-0.134,0.249-0.314,0.327-0.542
		s0.117-0.502,0.117-0.825c0-0.448-0.077-0.792-0.23-1.033C3.466,9.111,3.28,8.95,3.061,8.868C2.903,8.81,2.648,8.781,2.297,8.781
		H1.36V12.053z"/>
	<path d="M4.816,12.559l1.725-2.229l-1.52-2.052h0.702l0.809,1.099C6.7,9.602,6.819,9.777,6.891,9.899
		c0.1-0.156,0.217-0.318,0.353-0.488l0.897-1.137h0.642l-1.566,2.019l1.688,2.266h-0.73l-1.123-1.529
		c-0.063-0.088-0.127-0.184-0.194-0.283c-0.099,0.152-0.17,0.263-0.212,0.318l-1.12,1.494H4.816L4.816,12.559z"/>
	<path d="M9.456,12.559V8.275h3.008v0.506h-2.418v1.326h2.093v0.504h-2.093v1.947H9.456L9.456,12.559z"/>
</g>
</svg>
