<?xml version="1.0" encoding="utf-8"?>
<!-- Generator: Adobe Illustrator 15.1.0, SVG Export Plug-In . SVG Version: 6.00 Build 0)  -->
<!DOCTYPE svg PUBLIC "-//W3C//DTD SVG 1.1//EN" "http://www.w3.org/Graphics/SVG/1.1/DTD/svg11.dtd">
<svg version="1.1" id="Layer_1" xmlns="http://www.w3.org/2000/svg" xmlns:xlink="http://www.w3.org/1999/xlink" x="0px" y="0px"
	 width="32px" height="32px" viewBox="0 0 32 32" enable-background="new 0 0 32 32" xml:space="preserve">
<g>
	<path d="M9.742,26.09v1.365h19.131V12.151h-6.219c-0.791,0-1.437-0.643-1.437-1.435V4.497H9.742v1.659L7.826,6.19V4.02
		c0-0.793,0.645-1.436,1.438-1.436h13.393c0.791,0,1.897,0.463,2.45,1.017l4.664,4.664c0.552,0.553,1.018,1.659,1.018,2.451v17.218
		c0,0.793-0.645,1.438-1.438,1.438H9.263c-0.793,0-1.437-0.645-1.437-1.438v-1.842L9.742,26.09z M20.29,15.765h4.847
		c0.271,0,0.479,0.21,0.479,0.478V17.2c0,0.269-0.208,0.479-0.479,0.479H20.29c-0.269,0-0.479-0.212-0.479-0.479v-0.957
		C19.813,15.975,20.021,15.765,20.29,15.765z M25.611,20.064v0.959c0,0.27-0.207,0.479-0.479,0.479H18.87
		c-0.271,0-0.479-0.209-0.479-0.479v-0.959c0-0.27,0.209-0.479,0.479-0.479h6.265C25.404,19.588,25.611,19.797,25.611,20.064z
		 M25.611,23.895v0.953c0,0.271-0.207,0.48-0.479,0.48h-8.25c-0.27,0-0.478-0.209-0.478-0.48v-0.953
		c0-0.271,0.208-0.479,0.478-0.479h8.25C25.404,23.414,25.611,23.625,25.611,23.895z M23.135,10.238h5.619
		c-0.089-0.254-0.225-0.508-0.329-0.612l-4.679-4.68c-0.104-0.104-0.357-0.239-0.611-0.328V10.238z"/>
</g>
<g>
	<g>
		<path d="M11.643,21.9c-3.931,0-7.129-3.197-7.129-7.128c0-3.931,3.198-7.129,7.129-7.129s7.128,3.198,7.128,7.129
			C18.771,18.703,15.574,21.9,11.643,21.9z M11.643,9.437c-2.942,0-5.335,2.393-5.335,5.335s2.393,5.335,5.335,5.335
			s5.335-2.394,5.335-5.335S14.585,9.437,11.643,9.437z"/>
	</g>
	<g>
		<polygon points="7.637,19.932 1.805,25.202 1.135,24.361 6.65,18.878 		"/>
		<path d="M1.805,26.099c-0.024,0-0.048-0.001-0.073-0.003c-0.247-0.02-0.474-0.141-0.628-0.334l-0.67-0.841
			c-0.285-0.358-0.255-0.873,0.069-1.195l5.515-5.483c0.172-0.171,0.391-0.274,0.648-0.261c0.242,0.004,0.473,0.106,0.638,0.283
			l0.987,1.054c0.165,0.176,0.252,0.41,0.242,0.65c-0.01,0.24-0.116,0.467-0.294,0.628l-5.832,5.271
			C2.241,26.017,2.026,26.099,1.805,26.099z"/>
	</g>
</g>
</svg>
