<?xml version="1.0" encoding="utf-8"?>
<!-- Generator: Adobe Illustrator 15.1.0, SVG Export Plug-In . SVG Version: 6.00 Build 0)  -->
<!DOCTYPE svg PUBLIC "-//W3C//DTD SVG 1.1//EN" "http://www.w3.org/Graphics/SVG/1.1/DTD/svg11.dtd">
<svg version="1.1" id="Layer_1" xmlns="http://www.w3.org/2000/svg" xmlns:xlink="http://www.w3.org/1999/xlink" x="0px" y="0px"
	 width="20px" height="20px" viewBox="0 0 20 20" enable-background="new 0 0 20 20" xml:space="preserve">
<path d="M4.421,16.857v0.926h12.972V7.405h-4.218c-0.534,0-0.977-0.436-0.977-0.973V2.213H4.42v4.645l-1.3,0.023V1.889
	c0-0.538,0.438-0.974,0.976-0.974h9.079c0.537,0,1.287,0.314,1.664,0.691l3.164,3.164c0.373,0.375,0.688,1.125,0.688,1.663v11.676
	c0,0.539-0.438,0.975-0.976,0.975H4.095c-0.538,0-0.975-0.436-0.975-0.975v-1.25L4.421,16.857z"/>
<path d="M11.413,9.071h4.596c0.146,0,0.265,0.143,0.265,0.324v0.65c0,0.182-0.113,0.322-0.265,0.322h-4.596
	c-0.146,0-0.263-0.143-0.263-0.322v-0.65C11.152,9.213,11.268,9.071,11.413,9.071z"/>
<path d="M16.271,11.988v0.65c0,0.182-0.123,0.321-0.283,0.321h-5.794c-0.16,0-0.283-0.146-0.283-0.321v-0.65
	c0-0.182,0.123-0.322,0.283-0.322h5.794C16.146,11.666,16.271,11.807,16.271,11.988z"/>
<path d="M16.271,14.586v0.645c0,0.188-0.121,0.326-0.279,0.326H9.107c-0.158,0-0.279-0.141-0.279-0.326v-0.645
	c0-0.184,0.121-0.326,0.279-0.326h6.884C16.148,14.258,16.271,14.402,16.271,14.586z"/>
<path d="M13.501,6.108h3.812c-0.062-0.173-0.15-0.345-0.226-0.416L13.911,2.52c-0.068-0.07-0.24-0.163-0.416-0.222V6.11
	L13.501,6.108L13.501,6.108z"/>
<g>
	<path d="M4.66,15.813c-2.189,0-3.965-1.778-3.965-3.979c0-2.195,1.776-3.976,3.965-3.976c2.188,0,3.965,1.781,3.965,3.976
		C8.626,14.031,6.85,15.813,4.66,15.813z M6.21,9.481C5.766,9.18,5.234,9.01,4.66,9.01c-1.548,0-2.809,1.266-2.809,2.82
		c0,0.574,0.171,1.102,0.46,1.545L6.21,9.481z M7.02,10.307l-3.893,3.888c0.444,0.289,0.971,0.461,1.533,0.461
		c1.549,0,2.809-1.266,2.809-2.826C7.469,11.268,7.304,10.746,7.02,10.307z"/>
</g>
</svg>
