<?xml version="1.0" encoding="utf-8"?>
<!-- Generator: Adobe Illustrator 15.1.0, SVG Export Plug-In . SVG Version: 6.00 Build 0)  -->
<!DOCTYPE svg PUBLIC "-//W3C//DTD SVG 1.1//EN" "http://www.w3.org/Graphics/SVG/1.1/DTD/svg11.dtd">
<svg version="1.1" id="Layer_1" xmlns="http://www.w3.org/2000/svg" xmlns:xlink="http://www.w3.org/1999/xlink" x="0px" y="0px"
	 width="20px" height="20px" viewBox="0 0 20 20" enable-background="new 0 0 20 20" xml:space="preserve">
<path d="M5.797,14.609v2.91H17.82V7.899h-3.908c-0.495,0-0.902-0.404-0.902-0.901V3.087H5.797v2.939L4.593,6.048V2.787
	c0-0.499,0.405-0.903,0.904-0.903h8.416c0.498,0,1.192,0.291,1.544,0.64l2.932,2.932c0.348,0.348,0.641,1.043,0.641,1.542V17.82
	c0,0.498-0.402,0.902-0.899,0.902H5.496c-0.499,0-0.903-0.404-0.903-0.902v-3.209L5.797,14.609z"/>
<path d="M16.781,13v0.604c0,0.17-0.131,0.301-0.301,0.301h-4.619c-0.17,0-0.301-0.131-0.301-0.301V13c0-0.168,0.131-0.3,0.301-0.3
	h4.621C16.65,12.7,16.781,12.832,16.781,13z"/>
<path d="M16.781,10.604v0.604c0,0.169-0.102,0.301-0.233,0.301h-3.589c-0.133,0-0.234-0.132-0.234-0.301v-0.604
	c0-0.167,0.104-0.296,0.234-0.296h3.591C16.68,10.304,16.781,10.435,16.781,10.604z"/>
<path d="M16.781,15.407v0.599c0,0.171-0.131,0.303-0.301,0.303h-5.866c-0.168,0-0.3-0.132-0.3-0.303v-0.599
	c0-0.171,0.13-0.302,0.3-0.302h5.866C16.65,15.104,16.781,15.239,16.781,15.407z"/>
<path d="M14.215,6.697h3.532c-0.06-0.16-0.142-0.319-0.21-0.385L14.596,3.37c-0.063-0.065-0.225-0.151-0.386-0.206v3.533H14.215z"/>
<g enable-background="new    ">
	<path d="M1.029,12.427V8.069h0.616l2.383,3.421V8.069h0.576v4.358H3.988L1.604,9.002v3.424L1.029,12.427L1.029,12.427z"/>
	<path d="M5.151,12.427l1.755-2.271L5.359,8.069h0.715l0.823,1.118c0.171,0.231,0.293,0.41,0.365,0.535
		c0.102-0.159,0.221-0.324,0.359-0.497l0.913-1.156h0.653l-1.594,2.054l1.717,2.304H8.568l-1.142-1.555
		c-0.064-0.089-0.13-0.187-0.198-0.291c-0.102,0.158-0.173,0.269-0.217,0.327l-1.139,1.519H5.151z"/>
	<path d="M9.815,12.427V8.069h0.6v3.843h2.235v0.515H9.815z"/>
</g>
</svg>
