<?xml version="1.0" encoding="utf-8"?>
<!-- Generator: Adobe Illustrator 15.1.0, SVG Export Plug-In . SVG Version: 6.00 Build 0)  -->
<!DOCTYPE svg PUBLIC "-//W3C//DTD SVG 1.1//EN" "http://www.w3.org/Graphics/SVG/1.1/DTD/svg11.dtd">
<svg version="1.1" id="Layer_1" xmlns="http://www.w3.org/2000/svg" xmlns:xlink="http://www.w3.org/1999/xlink" x="0px" y="0px"
	 width="20px" height="20px" viewBox="0 0 20 20" enable-background="new 0 0 20 20" xml:space="preserve">
<path d="M5.454,14.352v2.938H17.6V7.571H13.65c-0.5,0-0.911-0.408-0.911-0.911V2.71H5.454v2.969L4.237,5.701V2.407
	c0-0.503,0.409-0.912,0.913-0.912h8.502c0.502,0,1.203,0.293,1.559,0.646l2.962,2.962c0.351,0.351,0.646,1.053,0.646,1.557v10.932
	c0,0.504-0.406,0.912-0.908,0.912H5.15c-0.504,0-0.913-0.408-0.913-0.912v-3.24H5.454z"/>
<path d="M16.549,12.725v0.608c0,0.17-0.132,0.304-0.304,0.304H11.58c-0.172,0-0.305-0.134-0.305-0.304v-0.608
	c0-0.17,0.133-0.304,0.305-0.304h4.668C16.417,12.421,16.549,12.555,16.549,12.725z"/>
<path d="M16.549,10.303v0.609c0,0.17-0.066,0.304-0.156,0.304h-2.418c-0.089,0-0.156-0.134-0.156-0.304v-0.609
	c0-0.169,0.067-0.302,0.156-0.302h2.418C16.48,10.001,16.549,10.133,16.549,10.303z"/>
<path d="M16.549,15.154v0.604c0,0.174-0.132,0.307-0.304,0.307h-5.926c-0.17,0-0.303-0.133-0.303-0.307v-0.604
	c0-0.17,0.131-0.305,0.303-0.305h5.926C16.417,14.85,16.549,14.984,16.549,15.154z"/>
<path d="M13.956,6.357h3.567c-0.061-0.162-0.145-0.323-0.211-0.39L14.34,2.996c-0.063-0.065-0.227-0.152-0.39-0.208v3.569H13.956z"
	/>
<g enable-background="new    ">
	<path d="M0.819,12.145V7.743h1.297c0.321,0,0.565,0.027,0.731,0.081c0.219,0.07,0.409,0.198,0.569,0.384
		c0.161,0.187,0.286,0.421,0.375,0.704c0.09,0.283,0.135,0.619,0.135,1.008c0,0.498-0.076,0.921-0.228,1.27
		c-0.152,0.35-0.348,0.595-0.586,0.737c-0.238,0.146-0.551,0.218-0.937,0.218H0.819z M1.316,11.625h0.8
		c0.323,0,0.568-0.051,0.735-0.15c0.167-0.103,0.294-0.265,0.384-0.488c0.119-0.299,0.178-0.653,0.178-1.069
		c0-0.447-0.063-0.798-0.189-1.053C3.099,8.605,2.937,8.436,2.739,8.35C2.605,8.291,2.394,8.263,2.104,8.263H1.316V11.625z"/>
	<path d="M5.289,12.145L4.288,7.743h0.509l0.573,2.886c0.061,0.296,0.114,0.596,0.16,0.9l0.168-0.814l0.715-2.972h0.604l0.536,2.228
		c0.131,0.542,0.229,1.062,0.293,1.558c0.048-0.285,0.109-0.604,0.185-0.957l0.592-2.829h0.5L8.09,12.145H7.611L6.817,8.791
		L6.698,8.274C6.663,8.467,6.626,8.639,6.589,8.791l-0.797,3.354H5.289z"/>
	<path d="M11.346,10.418v-0.52l1.59-0.003v1.637c-0.244,0.229-0.496,0.399-0.756,0.515c-0.261,0.115-0.527,0.174-0.803,0.174
		c-0.367,0-0.693-0.089-0.982-0.266c-0.288-0.178-0.515-0.434-0.683-0.771c-0.168-0.336-0.251-0.746-0.251-1.221
		c0-0.48,0.084-0.898,0.253-1.256c0.169-0.356,0.39-0.619,0.663-0.789c0.271-0.169,0.596-0.253,0.969-0.253
		c0.275,0,0.516,0.049,0.723,0.147s0.377,0.237,0.512,0.417c0.134,0.18,0.23,0.428,0.301,0.741l-0.449,0.145
		c-0.062-0.248-0.138-0.435-0.229-0.557c-0.093-0.124-0.212-0.221-0.362-0.29c-0.148-0.07-0.316-0.105-0.507-0.105
		c-0.271,0-0.508,0.063-0.705,0.191c-0.196,0.127-0.354,0.324-0.475,0.594c-0.12,0.269-0.18,0.595-0.18,0.982
		c0,0.589,0.128,1.03,0.385,1.323c0.256,0.294,0.587,0.44,1,0.44c0.194,0,0.396-0.045,0.603-0.137
		c0.205-0.092,0.368-0.197,0.489-0.32v-0.819L11.346,10.418L11.346,10.418z"/>
</g>
</svg>
