<?xml version="1.0" encoding="utf-8"?>
<!-- Generator: Adobe Illustrator 15.1.0, SVG Export Plug-In . SVG Version: 6.00 Build 0)  -->
<!DOCTYPE svg PUBLIC "-//W3C//DTD SVG 1.1//EN" "http://www.w3.org/Graphics/SVG/1.1/DTD/svg11.dtd">
<svg version="1.1" id="Layer_1" xmlns="http://www.w3.org/2000/svg" xmlns:xlink="http://www.w3.org/1999/xlink" x="0px" y="0px"
	 width="20px" height="20px" viewBox="0 0 20 20" enable-background="new 0 0 20 20" xml:space="preserve">
<path d="M3.717,16.648v0.918h12.856V7.283h-4.179c-0.531,0-0.965-0.434-0.965-0.965V2.136H3.717v14.643L2.43,16.803V1.816
	c0-0.532,0.433-0.964,0.967-0.964h9.001c0.531,0,1.273,0.31,1.646,0.683l3.136,3.134c0.371,0.372,0.685,1.115,0.685,1.647v11.57
	c0,0.534-0.435,0.965-0.966,0.965H3.396c-0.534,0-0.966-0.431-0.966-0.965v-1.237L3.717,16.648z"/>
<path d="M8.053,8.931h5.628c0.182,0,0.321,0.142,0.321,0.322v0.643c0,0.18-0.142,0.322-0.321,0.322H8.053
	c-0.182,0-0.322-0.142-0.322-0.322V9.252C7.731,9.073,7.871,8.931,8.053,8.931z"/>
<path d="M14.002,11.824v0.644c0,0.183-0.141,0.32-0.32,0.32H7.099c-0.182,0-0.321-0.139-0.321-0.32v-0.644
	c0-0.183,0.139-0.32,0.321-0.32h6.583C13.861,11.502,14.002,11.642,14.002,11.824z"/>
<path d="M14.002,14.396v0.643c0,0.184-0.141,0.321-0.32,0.321H5.764c-0.183,0-0.321-0.139-0.321-0.321v-0.643
	c0-0.182,0.138-0.32,0.321-0.32h7.917C13.861,14.073,14.002,14.216,14.002,14.396z"/>
<path d="M12.719,5.997h3.776c-0.06-0.171-0.149-0.341-0.222-0.412L13.127,2.44c-0.068-0.07-0.24-0.161-0.408-0.22V5.997
	L12.719,5.997z"/>
</svg>
