<?xml version="1.0" encoding="utf-8"?>
<!-- Generator: Adobe Illustrator 15.1.0, SVG Export Plug-In . SVG Version: 6.00 Build 0)  -->
<!DOCTYPE svg PUBLIC "-//W3C//DTD SVG 1.1//EN" "http://www.w3.org/Graphics/SVG/1.1/DTD/svg11.dtd">
<svg version="1.1" id="Layer_1" xmlns="http://www.w3.org/2000/svg" xmlns:xlink="http://www.w3.org/1999/xlink" x="0px" y="0px"
	 width="24px" height="24px" viewBox="0 0 32 32" enable-background="new 0 0 32 32" xml:space="preserve">
<path d="M9.003,23.455v4.83h19.964V12.311h-6.49c-0.822,0-1.498-0.671-1.498-1.497V4.321H9.003v4.88l-2,0.037V3.823
	c0-0.828,0.673-1.499,1.501-1.499h13.975c0.826,0,1.979,0.483,2.563,1.063l4.868,4.869c0.574,0.577,1.063,1.731,1.063,2.559v17.97
	c0,0.828-0.672,1.498-1.498,1.498H8.503c-0.828,0-1.5-0.67-1.5-1.498v-5.328L9.003,23.455z M27.241,20.781v1.001
	c0,0.28-0.218,0.499-0.5,0.499h-7.668c-0.282,0-0.5-0.219-0.5-0.499v-1.001c0-0.279,0.218-0.498,0.5-0.498h7.673
	C27.023,20.283,27.241,20.502,27.241,20.781z M27.241,16.802v1.001c0,0.28-0.169,0.499-0.388,0.499h-5.959
	c-0.222,0-0.392-0.219-0.392-0.499v-1.001c0-0.278,0.17-0.498,0.392-0.498h5.961C27.072,16.304,27.241,16.521,27.241,16.802z
	 M27.241,24.777v0.994c0,0.283-0.218,0.502-0.5,0.502h-9.74c-0.28,0-0.499-0.219-0.499-0.502v-0.994c0-0.281,0.217-0.5,0.499-0.5
	h9.74C27.023,24.275,27.241,24.498,27.241,24.777z M22.979,10.315h5.865c-0.097-0.266-0.234-0.531-0.348-0.64l-4.885-4.884
	c-0.105-0.108-0.373-0.25-0.641-0.342v5.866H22.979z"/>
<g enable-background="new    ">
	<path d="M0.567,20.111v-7.234h2.596c0.586,0,1.033,0.035,1.341,0.104c0.432,0.095,0.8,0.268,1.104,0.518
		c0.398,0.322,0.695,0.734,0.893,1.236c0.196,0.502,0.295,1.075,0.295,1.72c0,0.55-0.066,1.037-0.201,1.461
		c-0.133,0.424-0.305,0.775-0.514,1.055c-0.209,0.278-0.438,0.496-0.686,0.655s-0.549,0.28-0.899,0.362
		c-0.351,0.082-0.755,0.123-1.21,0.123H0.567z M1.564,19.258h1.608c0.497,0,0.887-0.044,1.17-0.133
		c0.281-0.088,0.508-0.213,0.676-0.375c0.236-0.227,0.42-0.532,0.552-0.916c0.132-0.383,0.198-0.848,0.198-1.394
		c0-0.757-0.13-1.338-0.389-1.745c-0.258-0.406-0.572-0.679-0.943-0.817c-0.267-0.099-0.697-0.148-1.289-0.148H1.564V19.258z"/>
	<path d="M7.402,20.111l2.913-3.771l-2.568-3.465h1.187l1.366,1.856c0.285,0.385,0.486,0.681,0.607,0.888
		c0.168-0.263,0.366-0.538,0.596-0.824l1.516-1.92h1.084l-2.646,3.411l2.853,3.823h-1.233l-1.896-2.58
		c-0.105-0.147-0.215-0.311-0.328-0.483c-0.168,0.265-0.288,0.445-0.359,0.543L8.6,20.111H7.402z"/>
	<path d="M15.239,20.111v-7.234h5.081v0.854h-4.085v2.241h3.535v0.854h-3.535v3.287h-0.996V20.111z"/>
</g>
</svg>
