<?xml version="1.0" encoding="utf-8"?>
<!-- Generator: Adobe Illustrator 15.1.0, SVG Export Plug-In . SVG Version: 6.00 Build 0)  -->
<!DOCTYPE svg PUBLIC "-//W3C//DTD SVG 1.1//EN" "http://www.w3.org/Graphics/SVG/1.1/DTD/svg11.dtd">
<svg version="1.1" id="Layer_1" xmlns="http://www.w3.org/2000/svg" xmlns:xlink="http://www.w3.org/1999/xlink" x="0px" y="0px"
	 width="20px" height="20px" viewBox="0 0 20 20" enable-background="new 0 0 20 20" xml:space="preserve">
<path d="M5.827,14.7v2.97h12.274V7.849h-3.99c-0.506,0-0.922-0.412-0.922-0.92V2.936H5.827v3.001l-1.23,0.022V2.63
	c0-0.509,0.414-0.922,0.923-0.922h8.591c0.509,0,1.218,0.297,1.576,0.654l2.994,2.993c0.353,0.355,0.651,1.064,0.651,1.574v11.047
	c0,0.51-0.413,0.922-0.921,0.922H5.52c-0.509,0-0.922-0.412-0.922-0.922v-3.274L5.827,14.7z"/>
<path d="M17.04,13.057v0.615c0,0.174-0.134,0.307-0.308,0.307h-4.715c-0.175,0-0.309-0.133-0.309-0.307v-0.615
	c0-0.172,0.134-0.307,0.309-0.307h4.719C16.906,12.75,17.04,12.885,17.04,13.057z"/>
<path d="M17.04,10.609v0.615c0,0.172-0.104,0.308-0.238,0.308h-3.663c-0.137,0-0.24-0.136-0.24-0.308v-0.615
	c0-0.17,0.104-0.305,0.24-0.305h3.666C16.938,10.304,17.04,10.438,17.04,10.609z"/>
<path d="M17.04,15.514v0.611c0,0.174-0.134,0.309-0.308,0.309h-5.988c-0.172,0-0.307-0.135-0.307-0.309v-0.611
	c0-0.173,0.133-0.308,0.307-0.308h5.988C16.906,15.205,17.04,15.342,17.04,15.514z"/>
<path d="M14.42,6.622h3.605c-0.061-0.164-0.146-0.326-0.213-0.394l-3.004-3.003c-0.064-0.066-0.229-0.154-0.396-0.21v3.606
	L14.42,6.622L14.42,6.622z"/>
<g enable-background="new    ">
	<path d="M1.335,12.645V12.1l2.373-2.85c0.168-0.203,0.329-0.378,0.48-0.528H1.604V8.196h3.317v0.525l-2.6,3.085L2.04,12.12h2.957
		v0.524H1.335L1.335,12.645z"/>
	<path d="M6.149,12.645V8.196h0.613v4.449H6.149L6.149,12.645z"/>
	<path d="M8.231,12.645V8.196h1.747c0.308,0,0.543,0.014,0.706,0.042c0.229,0.037,0.416,0.106,0.57,0.208
		c0.153,0.102,0.277,0.245,0.371,0.429s0.141,0.387,0.141,0.607c0,0.378-0.125,0.698-0.375,0.961
		c-0.252,0.261-0.703,0.392-1.358,0.392H8.844v1.81H8.231L8.231,12.645z M8.844,10.311h1.197c0.396,0,0.677-0.07,0.844-0.212
		c0.166-0.142,0.249-0.341,0.249-0.598c0-0.187-0.049-0.346-0.146-0.478C10.891,8.89,10.76,8.803,10.6,8.76
		c-0.103-0.026-0.292-0.04-0.572-0.04H8.844V10.311z"/>
</g>
</svg>
