<?xml version="1.0" encoding="utf-8"?>
<!-- Generator: Adobe Illustrator 15.1.0, SVG Export Plug-In . SVG Version: 6.00 Build 0)  -->
<!DOCTYPE svg PUBLIC "-//W3C//DTD SVG 1.1//EN" "http://www.w3.org/Graphics/SVG/1.1/DTD/svg11.dtd">
<svg version="1.1" id="Layer_1" xmlns="http://www.w3.org/2000/svg" xmlns:xlink="http://www.w3.org/1999/xlink" x="0px" y="0px"
	 width="24px" height="24px" viewBox="0 0 32 32" enable-background="new 0 0 32 32" xml:space="preserve">
<path d="M9.003,23.455v4.83h19.964V12.311h-6.49c-0.822,0-1.498-0.671-1.498-1.497V4.321H9.003v4.88l-2,0.037V3.823
	c0-0.828,0.673-1.499,1.501-1.499h13.975c0.826,0,1.979,0.483,2.563,1.063l4.868,4.869c0.574,0.577,1.063,1.731,1.063,2.559v17.97
	c0,0.828-0.672,1.498-1.498,1.498H8.503c-0.828,0-1.5-0.67-1.5-1.498v-5.328L9.003,23.455z M27.241,20.781v1.001
	c0,0.28-0.218,0.499-0.5,0.499h-7.668c-0.282,0-0.5-0.219-0.5-0.499v-1.001c0-0.279,0.218-0.498,0.5-0.498h7.673
	C27.023,20.283,27.241,20.502,27.241,20.781z M27.241,16.802v1.001c0,0.28-0.112,0.499-0.259,0.499H23.01
	c-0.146,0-0.26-0.219-0.26-0.499v-1.001c0-0.278,0.113-0.498,0.26-0.498h3.975C27.129,16.304,27.241,16.521,27.241,16.802z
	 M27.241,24.777v0.994c0,0.283-0.218,0.502-0.5,0.502h-9.74c-0.28,0-0.499-0.219-0.499-0.502v-0.994c0-0.281,0.217-0.5,0.499-0.5
	h9.74C27.023,24.275,27.241,24.498,27.241,24.777z M22.979,10.315h5.865c-0.097-0.266-0.234-0.531-0.348-0.64l-4.885-4.884
	c-0.105-0.108-0.373-0.25-0.641-0.342v5.866H22.979z"/>
<g enable-background="new    ">
	<path d="M1.385,19.829v-7.236h2.132c0.528,0,0.929,0.044,1.203,0.133c0.36,0.115,0.671,0.326,0.935,0.632
		c0.264,0.306,0.47,0.692,0.617,1.157c0.147,0.466,0.221,1.018,0.221,1.656c0,0.82-0.125,1.515-0.375,2.085
		c-0.25,0.571-0.571,0.977-0.964,1.215c-0.392,0.238-0.905,0.357-1.539,0.357L1.385,19.829L1.385,19.829z M2.202,18.975h1.315
		c0.531,0,0.934-0.082,1.208-0.248s0.484-0.435,0.632-0.803c0.195-0.49,0.293-1.076,0.293-1.762c0-0.733-0.104-1.31-0.311-1.73
		c-0.207-0.419-0.474-0.7-0.799-0.841c-0.219-0.095-0.567-0.143-1.043-0.143H2.202V18.975z"/>
	<path d="M8.731,19.829l-1.646-7.236h0.836l0.941,4.744c0.1,0.486,0.187,0.979,0.262,1.479l0.277-1.338l1.175-4.887h0.993
		l0.881,3.662c0.215,0.893,0.376,1.746,0.482,2.563c0.079-0.471,0.18-0.994,0.303-1.573l0.973-4.65h0.822l-1.698,7.236h-0.786
		l-1.305-5.513l-0.195-0.849c-0.058,0.316-0.118,0.599-0.18,0.849l-1.311,5.513H8.731z"/>
	<path d="M18.688,16.991v-0.854l2.614-0.005v2.69c-0.401,0.375-0.815,0.656-1.243,0.847c-0.429,0.188-0.869,0.283-1.318,0.283
		c-0.604,0-1.143-0.146-1.614-0.435c-0.474-0.291-0.847-0.713-1.123-1.271c-0.276-0.557-0.414-1.227-0.414-2.005
		c0-0.79,0.139-1.478,0.416-2.064c0.277-0.586,0.642-1.018,1.091-1.296c0.447-0.278,0.979-0.417,1.594-0.417
		c0.451,0,0.848,0.081,1.187,0.242c0.34,0.161,0.619,0.39,0.838,0.686c0.22,0.296,0.384,0.703,0.493,1.219l-0.734,0.237
		c-0.1-0.408-0.225-0.713-0.375-0.916c-0.149-0.203-0.35-0.361-0.597-0.477c-0.246-0.115-0.522-0.173-0.832-0.173
		c-0.448,0-0.836,0.105-1.159,0.314c-0.322,0.209-0.584,0.534-0.779,0.976c-0.196,0.441-0.295,0.979-0.295,1.615
		c0,0.967,0.209,1.694,0.631,2.176c0.423,0.48,0.97,0.724,1.646,0.724c0.322,0,0.649-0.073,0.989-0.223
		c0.337-0.147,0.604-0.324,0.804-0.527V16.99L18.688,16.991L18.688,16.991z"/>
</g>
</svg>
