<?xml version="1.0" encoding="utf-8"?>
<!-- Generator: Adobe Illustrator 15.1.0, SVG Export Plug-In . SVG Version: 6.00 Build 0)  -->
<!DOCTYPE svg PUBLIC "-//W3C//DTD SVG 1.1//EN" "http://www.w3.org/Graphics/SVG/1.1/DTD/svg11.dtd">
<svg version="1.1" id="Layer_1" xmlns="http://www.w3.org/2000/svg" xmlns:xlink="http://www.w3.org/1999/xlink" x="0px" y="0px"
	 width="24px" height="24px" viewBox="0 0 32 32" enable-background="new 0 0 32 32" xml:space="preserve">
<path d="M6.301,26.859v1.426h19.967V12.311h-6.49c-0.823,0-1.498-0.671-1.498-1.497V4.321H6.301v22.74l-2,0.037V3.823
	c0-0.828,0.673-1.499,1.501-1.499h13.978c0.826,0,1.979,0.483,2.562,1.063l4.868,4.869c0.575,0.577,1.063,1.731,1.063,2.559v17.97
	c0,0.828-0.672,1.498-1.498,1.498H5.801c-0.828,0-1.5-0.67-1.5-1.498v-1.924L6.301,26.859z M13.034,14.875h8.743
	c0.281,0,0.498,0.219,0.498,0.5v0.999c0,0.28-0.217,0.5-0.498,0.5h-8.743c-0.281,0-0.499-0.22-0.499-0.5v-0.999
	C12.535,15.093,12.753,14.875,13.034,14.875z M22.273,19.365v1.001c0,0.28-0.217,0.499-0.5,0.499H11.554
	c-0.282,0-0.5-0.219-0.5-0.499v-1.001c0-0.279,0.218-0.498,0.5-0.498h10.223C22.057,18.867,22.273,19.086,22.273,19.365z
	 M22.273,23.361v0.994c0,0.283-0.217,0.502-0.5,0.502H9.479c-0.282,0-0.5-0.219-0.5-0.502v-0.994c0-0.281,0.217-0.5,0.5-0.5h12.294
	C22.057,22.859,22.273,23.082,22.273,23.361z M20.279,10.315h5.865c-0.096-0.266-0.235-0.531-0.347-0.64l-4.885-4.884
	c-0.106-0.108-0.373-0.25-0.64-0.342v5.866H20.279z"/>
</svg>
