<?xml version="1.0" encoding="utf-8"?>
<!-- Generator: Adobe Illustrator 15.1.0, SVG Export Plug-In . SVG Version: 6.00 Build 0)  -->
<!DOCTYPE svg PUBLIC "-//W3C//DTD SVG 1.1//EN" "http://www.w3.org/Graphics/SVG/1.1/DTD/svg11.dtd">
<svg version="1.1" id="Layer_1" xmlns="http://www.w3.org/2000/svg" xmlns:xlink="http://www.w3.org/1999/xlink" x="0px" y="0px"
	 width="24px" height="24px" viewBox="0 0 32 32" enable-background="new 0 0 32 32" xml:space="preserve">
<path d="M9.003,23.455v4.83h19.964V12.311h-6.49c-0.821,0-1.498-0.67-1.498-1.497V4.321H9.003v4.88l-2,0.037V3.823
	c0-0.828,0.673-1.499,1.501-1.499h13.975c0.826,0,1.979,0.483,2.563,1.063l4.868,4.869c0.574,0.577,1.063,1.731,1.063,2.559v17.97
	c0,0.828-0.672,1.498-1.498,1.498H8.503c-0.828,0-1.5-0.67-1.5-1.498v-5.328L9.003,23.455z M27.241,20.781v1.001
	c0,0.28-0.218,0.499-0.5,0.499h-4.834c-0.281,0-0.5-0.219-0.5-0.499v-1.001c0-0.279,0.219-0.498,0.5-0.498h4.839
	C27.023,20.283,27.241,20.502,27.241,20.781z M27.241,16.802v1.001c0,0.28-0.169,0.499-0.388,0.499h-3.124
	c-0.226,0-0.396-0.219-0.396-0.499v-1.001c0-0.278,0.17-0.498,0.396-0.498h3.126C27.072,16.304,27.241,16.521,27.241,16.802z
	 M27.241,24.777v0.994c0,0.283-0.218,0.502-0.5,0.502h-9.74c-0.28,0-0.499-0.219-0.499-0.502v-0.994c0-0.281,0.217-0.5,0.499-0.5
	h9.74C27.023,24.275,27.241,24.498,27.241,24.777z M22.979,10.315h5.865c-0.097-0.266-0.234-0.531-0.348-0.64l-4.885-4.884
	c-0.105-0.108-0.373-0.25-0.641-0.342v5.866H22.979z M4.979,17.158l-3.424-4.916H0v7.936h1.656v-4.92l3.424,4.92h1.555v-7.936H4.979
	V17.158z M15.345,12.243h-1.968l-1.62,2.052c-0.112,0.139-0.217,0.276-0.314,0.411c-0.095-0.137-0.205-0.291-0.333-0.463
	l-1.472-1.999H7.58l2.826,3.811L7.218,20.18h2.086l2-2.668c0.022-0.029,0.049-0.068,0.08-0.113c0.014,0.021,0.028,0.039,0.042,0.06
	l2.001,2.726h2.108l-3.11-4.171L15.345,12.243z M17.871,18.625v-6.382h-1.696v7.937h4.834v-1.555H17.871z"/>
</svg>
