<?xml version="1.0" encoding="utf-8"?>
<!-- Generator: Adobe Illustrator 15.1.0, SVG Export Plug-In . SVG Version: 6.00 Build 0)  -->
<!DOCTYPE svg PUBLIC "-//W3C//DTD SVG 1.1//EN" "http://www.w3.org/Graphics/SVG/1.1/DTD/svg11.dtd">
<svg version="1.1" id="Layer_1" xmlns="http://www.w3.org/2000/svg" xmlns:xlink="http://www.w3.org/1999/xlink" x="0px" y="0px"
	 width="20px" height="20px" viewBox="0 0 20 20" enable-background="new 0 0 20 20" xml:space="preserve">
<path d="M5.8,16.669v0.862h12.042V7.896h-3.915c-0.495,0-0.903-0.405-0.903-0.903V3.076H5.8v2.26L4.594,5.358V2.776
	c0-0.5,0.406-0.904,0.905-0.904h8.431c0.498,0,1.193,0.291,1.547,0.641l2.937,2.937c0.346,0.348,0.642,1.044,0.642,1.543v10.84
	c0,0.499-0.406,0.903-0.904,0.903H5.499c-0.5,0-0.905-0.404-0.905-0.903v-1.162L5.8,16.669z"/>
<path d="M16.802,13.005v0.604c0,0.17-0.131,0.302-0.302,0.302h-4.625c-0.171,0-0.302-0.132-0.302-0.302v-0.604
	c0-0.168,0.131-0.3,0.302-0.3h4.628C16.671,12.705,16.802,12.837,16.802,13.005z"/>
<path d="M16.802,10.604v0.604c0,0.169-0.102,0.302-0.233,0.302h-3.594c-0.137,0-0.238-0.133-0.238-0.302v-0.604
	c0-0.167,0.103-0.299,0.238-0.299h3.596C16.7,10.304,16.802,10.436,16.802,10.604z"/>
<path d="M16.802,15.416v0.6c0,0.172-0.131,0.303-0.302,0.303h-5.875c-0.169,0-0.301-0.131-0.301-0.303v-0.6
	c0-0.17,0.131-0.302,0.301-0.302H16.5C16.671,15.111,16.802,15.247,16.802,15.416z"/>
<path d="M14.23,6.691h3.537c-0.059-0.16-0.142-0.32-0.209-0.386l-2.947-2.946c-0.063-0.065-0.226-0.151-0.387-0.206v3.538H14.23z"/>
<g>
	<path d="M5.259,15.294c-2.323,0-4.207-1.884-4.207-4.206c0-2.323,1.884-4.207,4.207-4.207c2.322,0,4.206,1.884,4.206,4.207
		C9.465,13.41,7.582,15.294,5.259,15.294z M6.662,12.841c0-0.099-0.077-0.175-0.175-0.175H5.96V9.861
		c0-0.099-0.076-0.176-0.175-0.176H4.033c-0.099,0-0.175,0.077-0.175,0.176v0.877c0,0.098,0.077,0.175,0.175,0.175h0.526v1.753
		H4.033c-0.099,0-0.175,0.076-0.175,0.175v0.876c0,0.1,0.077,0.176,0.175,0.176h2.454c0.099,0,0.175-0.076,0.175-0.176V12.841z
		 M5.96,7.933c0-0.099-0.076-0.176-0.175-0.176H4.733c-0.099,0-0.175,0.077-0.175,0.176V8.81c0,0.099,0.077,0.176,0.175,0.176h1.052
		c0.099,0,0.175-0.077,0.175-0.176V7.933z"/>
</g>
</svg>
