<?xml version="1.0" encoding="utf-8"?>
<!-- Generator: Adobe Illustrator 15.1.0, SVG Export Plug-In . SVG Version: 6.00 Build 0)  -->
<!DOCTYPE svg PUBLIC "-//W3C//DTD SVG 1.1//EN" "http://www.w3.org/Graphics/SVG/1.1/DTD/svg11.dtd">
<svg version="1.1" id="Layer_1" xmlns="http://www.w3.org/2000/svg" xmlns:xlink="http://www.w3.org/1999/xlink" x="0px" y="0px"
	 width="20px" height="20px" viewBox="0 0 20 20" enable-background="new 0 0 20 20" xml:space="preserve">
<path d="M5.8,14.613v2.865H17.65v-9.48h-3.854c-0.487,0-0.89-0.397-0.89-0.888V3.255H5.8v2.896L4.613,6.173V2.96
	c0-0.491,0.399-0.89,0.892-0.89H13.8c0.489,0,1.175,0.287,1.521,0.631l2.892,2.89c0.343,0.342,0.634,1.027,0.634,1.519v10.666
	c0,0.492-0.398,0.893-0.892,0.893H5.503c-0.49,0-0.89-0.396-0.89-0.893v-3.16L5.8,14.613L5.8,14.613z"/>
<path d="M16.626,13.025v0.596c0,0.166-0.129,0.295-0.297,0.295h-4.552c-0.168,0-0.297-0.129-0.297-0.295v-0.596
	c0-0.166,0.129-0.295,0.297-0.295h4.555C16.497,12.73,16.626,12.859,16.626,13.025z"/>
<path d="M16.626,10.664v0.594c0,0.166-0.101,0.297-0.229,0.297h-3.537c-0.129,0-0.229-0.131-0.229-0.297v-0.594
	c0-0.167,0.102-0.295,0.229-0.295h3.539C16.525,10.369,16.626,10.498,16.626,10.664z"/>
<path d="M16.626,15.396v0.592c0,0.168-0.129,0.299-0.297,0.299h-5.781c-0.168,0-0.297-0.131-0.297-0.299v-0.592
	c0-0.166,0.129-0.297,0.297-0.297h5.781C16.497,15.1,16.626,15.232,16.626,15.396z"/>
<path d="M14.096,6.813h3.48c-0.059-0.158-0.143-0.315-0.207-0.38l-2.898-2.899c-0.063-0.064-0.223-0.148-0.38-0.203v3.482H14.096z"
	/>
<g>
	<path d="M0.84,12.738V8.443h1.266c0.313,0,0.551,0.025,0.714,0.079c0.214,0.067,0.398,0.192,0.555,0.375s0.279,0.411,0.366,0.686
		c0.088,0.276,0.131,0.604,0.131,0.983c0,0.484-0.074,0.898-0.223,1.238c-0.148,0.338-0.339,0.576-0.572,0.721
		c-0.233,0.143-0.538,0.213-0.914,0.213H0.84z M1.325,12.23h0.781c0.315,0,0.554-0.049,0.717-0.146
		c0.163-0.1,0.287-0.258,0.375-0.479c0.116-0.291,0.174-0.641,0.174-1.045c0-0.436-0.062-0.776-0.185-1.026
		c-0.123-0.248-0.281-0.416-0.474-0.5C2.583,8.978,2.376,8.95,2.093,8.95H1.325V12.23z"/>
	<path d="M4.412,10.646c0-0.733,0.167-1.295,0.503-1.69c0.336-0.393,0.754-0.59,1.254-0.59c0.322,0,0.617,0.088,0.883,0.264
		C7.319,8.806,7.53,9.061,7.685,9.396c0.156,0.335,0.234,0.734,0.234,1.198c0,0.637-0.15,1.154-0.451,1.555
		c-0.332,0.441-0.767,0.662-1.303,0.662c-0.541,0-0.976-0.227-1.306-0.68C4.562,11.721,4.412,11.227,4.412,10.646z M4.912,10.654
		c0,0.529,0.122,0.938,0.365,1.23c0.243,0.291,0.539,0.438,0.886,0.438c0.356,0,0.655-0.146,0.896-0.441
		c0.24-0.295,0.361-0.729,0.361-1.301c0-0.372-0.063-0.702-0.187-0.993C7.136,9.366,6.994,9.189,6.8,9.054
		C6.61,8.919,6.4,8.853,6.173,8.853C5.806,8.853,5.505,9,5.269,9.292C5.031,9.587,4.912,10.041,4.912,10.654z"/>
	<path d="M11.139,11.232l0.485,0.145c-0.106,0.48-0.296,0.842-0.563,1.078c-0.271,0.238-0.599,0.355-0.982,0.355
		c-0.339,0-0.63-0.08-0.871-0.238s-0.438-0.416-0.592-0.766c-0.153-0.354-0.229-0.77-0.229-1.248c0-0.475,0.076-0.875,0.229-1.203
		C8.767,9.03,8.976,8.784,9.239,8.615c0.263-0.167,0.556-0.25,0.879-0.25c0.354,0,0.659,0.105,0.913,0.317s0.434,0.521,0.533,0.931
		l-0.477,0.132c-0.164-0.596-0.488-0.894-0.98-0.894c-0.244,0-0.456,0.06-0.635,0.181c-0.18,0.12-0.322,0.307-0.43,0.563
		c-0.106,0.254-0.16,0.574-0.16,0.963c0,0.588,0.107,1.029,0.323,1.322c0.216,0.295,0.503,0.438,0.86,0.438
		c0.265,0,0.493-0.088,0.686-0.27C10.943,11.873,11.072,11.6,11.139,11.232z"/>
</g>
</svg>
