<?xml version="1.0" encoding="utf-8"?>
<!-- Generator: Adobe Illustrator 15.1.0, SVG Export Plug-In . SVG Version: 6.00 Build 0)  -->
<!DOCTYPE svg PUBLIC "-//W3C//DTD SVG 1.1//EN" "http://www.w3.org/Graphics/SVG/1.1/DTD/svg11.dtd">
<svg version="1.1" id="Layer_1" xmlns="http://www.w3.org/2000/svg" xmlns:xlink="http://www.w3.org/1999/xlink" x="0px" y="0px"
	 width="20px" height="20px" viewBox="0 0 20 20" enable-background="new 0 0 20 20" xml:space="preserve">
<path d="M6.051,14.021v2.883h11.914V7.371h-3.873c-0.49,0-0.895-0.399-0.895-0.894V2.602H6.051v2.913L4.856,5.536V2.305
	c0-0.494,0.402-0.895,0.896-0.895h8.341c0.491,0,1.181,0.288,1.528,0.634l2.904,2.906c0.344,0.344,0.637,1.033,0.637,1.527v10.725
	c0,0.493-0.401,0.896-0.896,0.896H5.752c-0.494,0-0.896-0.397-0.896-0.896v-3.181H6.051z"/>
<path d="M16.936,12.427v0.599c0,0.166-0.129,0.3-0.299,0.3h-4.576c-0.168,0-0.299-0.134-0.299-0.3v-0.599
	c0-0.166,0.131-0.297,0.299-0.297h4.58C16.807,12.13,16.936,12.261,16.936,12.427z"/>
<path d="M16.936,10.052v0.599c0,0.166-0.102,0.3-0.229,0.3h-3.558c-0.131,0-0.229-0.134-0.229-0.3v-0.599
	c0-0.168,0.104-0.297,0.229-0.297h3.56C16.834,9.755,16.936,9.884,16.936,10.052z"/>
<path d="M16.936,14.811v0.594c0,0.172-0.129,0.303-0.299,0.303h-5.813c-0.168,0-0.299-0.131-0.299-0.303v-0.594
	c0-0.166,0.129-0.297,0.299-0.297h5.813C16.807,14.514,16.936,14.645,16.936,14.811z"/>
<path d="M14.391,6.179h3.5c-0.059-0.158-0.141-0.315-0.207-0.381L14.77,2.882c-0.063-0.064-0.225-0.149-0.384-0.204v3.5
	L14.391,6.179L14.391,6.179z"/>
<g>
	<path d="M0.836,12.025V7.709h1.696c0.298,0,0.526,0.015,0.684,0.041c0.221,0.036,0.406,0.103,0.555,0.202
		C3.92,8.051,4.041,8.19,4.132,8.369c0.091,0.179,0.136,0.375,0.136,0.589c0,0.367-0.122,0.678-0.365,0.932
		c-0.244,0.256-0.683,0.383-1.319,0.383H1.432v1.754L0.836,12.025L0.836,12.025z M1.432,9.763h1.163
		c0.384,0,0.657-0.068,0.819-0.207c0.161-0.138,0.242-0.33,0.242-0.58c0-0.18-0.048-0.334-0.143-0.463
		c-0.095-0.129-0.22-0.215-0.376-0.256c-0.1-0.024-0.285-0.039-0.555-0.039h-1.15V9.763z"/>
	<path d="M5.1,12.025V7.709h1.548c0.351,0,0.617,0.021,0.802,0.062c0.256,0.058,0.477,0.16,0.658,0.31
		C8.345,8.272,8.522,8.519,8.64,8.818c0.118,0.3,0.176,0.642,0.176,1.026c0,0.328-0.04,0.619-0.12,0.871
		c-0.08,0.254-0.182,0.463-0.307,0.629s-0.262,0.297-0.409,0.393c-0.147,0.099-0.328,0.168-0.537,0.22
		c-0.209,0.049-0.45,0.071-0.722,0.071L5.1,12.025L5.1,12.025z M5.694,11.518h0.96c0.297,0,0.529-0.024,0.698-0.08
		c0.169-0.054,0.303-0.127,0.403-0.224c0.141-0.136,0.25-0.317,0.33-0.547c0.078-0.229,0.117-0.507,0.117-0.833
		c0-0.452-0.076-0.799-0.23-1.041C7.818,8.55,7.631,8.388,7.41,8.306c-0.16-0.06-0.416-0.088-0.77-0.088H5.694V11.518z"/>
	<path d="M9.699,12.025V7.709h3.031v0.509h-2.438v1.338H12.4v0.51h-2.108v1.961H9.699V12.025z"/>
</g>
</svg>
