<?xml version="1.0" encoding="utf-8"?>
<!-- Generator: Adobe Illustrator 15.1.0, SVG Export Plug-In . SVG Version: 6.00 Build 0)  -->
<!DOCTYPE svg PUBLIC "-//W3C//DTD SVG 1.1//EN" "http://www.w3.org/Graphics/SVG/1.1/DTD/svg11.dtd">
<svg version="1.1" id="Layer_1" xmlns="http://www.w3.org/2000/svg" xmlns:xlink="http://www.w3.org/1999/xlink" x="0px" y="0px"
	 width="32px" height="32px" viewBox="0 0 32 32" enable-background="new 0 0 32 32" xml:space="preserve">
<path d="M6.301,26.859v1.426h19.967V12.311h-6.49c-0.822,0-1.498-0.671-1.498-1.497V4.321H6.301v7.147l-2,0.037V3.823
	c0-0.828,0.673-1.499,1.501-1.499h13.978c0.826,0,1.979,0.483,2.563,1.063l4.868,4.869c0.575,0.577,1.063,1.731,1.063,2.559v17.97
	c0,0.828-0.672,1.498-1.498,1.498H5.801c-0.828,0-1.5-0.67-1.5-1.498v-1.924L6.301,26.859z M17.07,14.875h7.07
	c0.228,0,0.401,0.219,0.401,0.5v0.999c0,0.28-0.176,0.5-0.401,0.5h-7.07c-0.229,0-0.403-0.22-0.403-0.5v-0.999
	C16.667,15.093,16.843,14.875,17.07,14.875z M24.542,19.365v1.001c0,0.28-0.188,0.499-0.437,0.499h-8.919
	c-0.247,0-0.437-0.219-0.437-0.499v-1.001c0-0.279,0.19-0.498,0.437-0.498h8.923C24.354,18.867,24.542,19.086,24.542,19.365z
	 M24.542,23.361v0.994c0,0.283-0.187,0.502-0.431,0.502H13.515c-0.243,0-0.431-0.219-0.431-0.502v-0.994
	c0-0.281,0.187-0.5,0.431-0.5h10.596C24.355,22.859,24.542,23.082,24.542,23.361z M20.279,10.315h5.865
	c-0.097-0.266-0.235-0.531-0.348-0.64l-4.885-4.884c-0.105-0.108-0.373-0.25-0.641-0.342v5.866H20.279z"/>
<g>
	<path d="M6.67,25.251c-3.37,0-6.103-2.742-6.103-6.128c0-3.379,2.733-6.122,6.103-6.122c3.369,0,6.103,2.743,6.103,6.122
		C12.773,22.509,10.04,25.251,6.67,25.251z M9.054,15.505C8.37,15.043,7.552,14.78,6.67,14.78c-2.384,0-4.323,1.951-4.323,4.342
		c0,0.883,0.263,1.692,0.708,2.377L9.054,15.505z M10.301,16.777L4.31,22.762c0.683,0.445,1.494,0.709,2.36,0.709
		c2.384,0,4.323-1.947,4.323-4.349C10.993,18.257,10.739,17.454,10.301,16.777z"/>
</g>
</svg>
