<?xml version="1.0" encoding="utf-8"?>
<!-- Generator: Adobe Illustrator 15.1.0, SVG Export Plug-In . SVG Version: 6.00 Build 0)  -->
<!DOCTYPE svg PUBLIC "-//W3C//DTD SVG 1.1//EN" "http://www.w3.org/Graphics/SVG/1.1/DTD/svg11.dtd">
<svg version="1.1" id="Layer_1" xmlns="http://www.w3.org/2000/svg" xmlns:xlink="http://www.w3.org/1999/xlink" x="0px" y="0px"
	 width="20px" height="20px" viewBox="0 0 20 20" enable-background="new 0 0 20 20" xml:space="preserve">
<g>
	<path d="M6.662,14.967v2.182h11.476v-9.18h-3.729c-0.477,0-0.863-0.387-0.863-0.861V3.377H6.664v2.696L5.516,6.095V3.092
		c0-0.475,0.386-0.861,0.861-0.861h8.033c0.477,0,1.141,0.279,1.475,0.61l2.798,2.8c0.331,0.332,0.61,0.994,0.61,1.471v10.328
		c0,0.477-0.389,0.861-0.861,0.861H6.377c-0.477,0-0.861-0.387-0.861-0.861v-2.463L6.662,14.967z"/>
</g>
<g>
	<path d="M12.651,9.114h2.907c0.162,0,0.289,0.127,0.289,0.288v0.575c0,0.161-0.127,0.288-0.289,0.288h-2.907
		c-0.163,0-0.288-0.126-0.288-0.288V9.402C12.363,9.241,12.492,9.114,12.651,9.114z"/>
</g>
<g>
	<path d="M15.843,11.695v0.572c0,0.166-0.126,0.291-0.289,0.291H11.8c-0.165,0-0.29-0.125-0.29-0.291v-0.572
		c0-0.16,0.125-0.289,0.29-0.289h3.757C15.717,11.41,15.843,11.535,15.843,11.695z"/>
</g>
<g>
	<path d="M15.843,13.994v0.57c0,0.162-0.126,0.289-0.289,0.289H10.61c-0.164,0-0.29-0.127-0.29-0.289v-0.57
		c0-0.162,0.126-0.289,0.29-0.289h4.943C15.717,13.705,15.843,13.832,15.843,13.994z"/>
</g>
<g>
	<path d="M14.696,6.822h3.368c-0.053-0.153-0.134-0.304-0.194-0.368l-2.809-2.808c-0.063-0.061-0.216-0.143-0.365-0.195V6.822z"/>
</g>
<g>
	<path fill="#020202" d="M7.679,6.407l0.798-0.798c0.321-0.321,0.862-0.321,1.181,0l1.318,1.319c0.321,0.321,0.321,0.858,0,1.18
		l-0.798,0.798L9.621,9.461l-5.383,5.385l-2.945,0.445l0.448-2.943l5.381-5.386L7.679,6.407z"/>
	<path fill="#020202" d="M0.756,15.827l0.563-3.693l6.84-6.843C8.64,4.81,9.498,4.81,9.977,5.292l1.317,1.318
		c0.5,0.5,0.5,1.315,0,1.816l-6.843,6.843L0.756,15.827z M2.163,12.562l-0.334,2.193l2.195-0.332l6.633-6.633
		c0.145-0.145,0.145-0.399,0-0.543L9.339,5.927c-0.14-0.141-0.405-0.14-0.545,0L2.163,12.562z"/>
</g>
<g>
	
		<rect x="4.806" y="8.474" transform="matrix(0.7066 0.7076 -0.7076 0.7066 9.4072 -0.4578)" fill="#FFFFFF" width="0.9" height="5.281"/>
</g>
<g>
	
		<rect x="7.879" y="7.132" transform="matrix(0.708 0.7062 -0.7062 0.708 7.937 -4.0315)" fill="#FFFFFF" width="1.929" height="0.9"/>
</g>
</svg>
