<?xml version="1.0" encoding="utf-8"?>
<!-- Generator: Adobe Illustrator 15.1.0, SVG Export Plug-In . SVG Version: 6.00 Build 0)  -->
<!DOCTYPE svg PUBLIC "-//W3C//DTD SVG 1.1//EN" "http://www.w3.org/Graphics/SVG/1.1/DTD/svg11.dtd">
<svg version="1.1" id="Layer_1" xmlns="http://www.w3.org/2000/svg" xmlns:xlink="http://www.w3.org/1999/xlink" x="0px" y="0px"
	 width="24px" height="24px" viewBox="0 0 32 32" enable-background="new 0 0 32 32" xml:space="preserve">
<path d="M9.003,23.455v4.83h19.964V12.311h-6.49c-0.822,0-1.498-0.671-1.498-1.497V4.321H9.003v4.88l-2,0.037V3.823
	c0-0.828,0.673-1.499,1.501-1.499h13.975c0.826,0,1.979,0.483,2.563,1.063l4.868,4.869c0.574,0.577,1.063,1.731,1.063,2.559v17.97
	c0,0.828-0.672,1.498-1.498,1.498H8.503c-0.828,0-1.5-0.67-1.5-1.498v-5.328L9.003,23.455z M27.241,20.781v1.001
	c0,0.28-0.218,0.499-0.5,0.499h-7.668c-0.282,0-0.5-0.219-0.5-0.499v-1.001c0-0.279,0.218-0.498,0.5-0.498h7.673
	C27.023,20.283,27.241,20.502,27.241,20.781z M27.241,16.802v1.001c0,0.28-0.169,0.499-0.388,0.499h-5.959
	c-0.224,0-0.394-0.219-0.394-0.499v-1.001c0-0.278,0.17-0.498,0.394-0.498h5.961C27.072,16.304,27.241,16.521,27.241,16.802z
	 M27.241,24.777v0.994c0,0.283-0.218,0.502-0.5,0.502h-9.74c-0.28,0-0.499-0.219-0.499-0.502v-0.994c0-0.281,0.217-0.5,0.499-0.5
	h9.74C27.023,24.275,27.241,24.498,27.241,24.777z M22.979,10.315h5.865c-0.097-0.266-0.234-0.531-0.348-0.64l-4.885-4.884
	c-0.105-0.108-0.373-0.25-0.641-0.342v5.866H22.979z"/>
<g enable-background="new    ">
	<path d="M1.697,20.111v-0.889l3.859-4.636C5.83,14.26,6.09,13.974,6.337,13.73H2.134v-0.854H7.53v0.854L3.3,18.749l-0.458,0.509
		h4.81v0.854H1.697L1.697,20.111z"/>
	<path d="M9.528,20.111v-7.235h0.997v7.235H9.528z"/>
	<path d="M12.914,20.111v-7.235h2.842c0.5,0,0.883,0.023,1.146,0.069c0.369,0.059,0.68,0.172,0.93,0.338
		c0.25,0.167,0.451,0.399,0.604,0.698c0.152,0.3,0.229,0.629,0.229,0.987c0,0.615-0.204,1.136-0.61,1.563
		c-0.408,0.426-1.146,0.639-2.211,0.639H13.91v2.941H12.914z M13.91,16.316h1.948c0.644,0,1.102-0.115,1.373-0.345
		c0.271-0.23,0.405-0.555,0.405-0.972c0-0.303-0.079-0.562-0.237-0.777c-0.158-0.216-0.369-0.358-0.631-0.427
		c-0.168-0.042-0.478-0.064-0.93-0.064H13.91V16.316z"/>
</g>
</svg>
