<?xml version="1.0" encoding="utf-8"?>
<!-- Generator: Adobe Illustrator 15.1.0, SVG Export Plug-In . SVG Version: 6.00 Build 0)  -->
<!DOCTYPE svg PUBLIC "-//W3C//DTD SVG 1.1//EN" "http://www.w3.org/Graphics/SVG/1.1/DTD/svg11.dtd">
<svg version="1.1" id="Layer_1" xmlns="http://www.w3.org/2000/svg" xmlns:xlink="http://www.w3.org/1999/xlink" x="0px" y="0px"
	 width="20px" height="20px" viewBox="0 0 20 20" enable-background="new 0 0 20 20" xml:space="preserve">
<path d="M5.934,15.962v0.828h11.613V7.501h-3.773c-0.48,0-0.871-0.391-0.871-0.871V2.854H5.936v1.007L4.771,3.883V2.564
	c0-0.481,0.392-0.872,0.873-0.872h8.129c0.48,0,1.151,0.281,1.488,0.617l2.832,2.832c0.334,0.335,0.615,1.007,0.615,1.488v10.451
	c0,0.48-0.391,0.871-0.871,0.871H5.643c-0.48,0-0.871-0.391-0.871-0.871v-1.118L5.934,15.962z"/>
<path d="M12.337,9.694h2.942c0.162,0,0.289,0.127,0.289,0.291v0.58c0,0.163-0.127,0.29-0.289,0.29h-2.942
	c-0.163,0-0.29-0.127-0.29-0.29v-0.58C12.047,9.823,12.174,9.694,12.337,9.694z"/>
<path d="M15.566,12.305v0.582c0,0.163-0.125,0.29-0.289,0.29h-3.801c-0.164,0-0.291-0.127-0.291-0.29v-0.582
	c0-0.162,0.127-0.289,0.291-0.289h3.803C15.441,12.016,15.566,12.143,15.566,12.305z"/>
<path d="M15.566,14.63v0.578c0,0.164-0.125,0.291-0.289,0.291H10.27c-0.164,0-0.291-0.127-0.291-0.291V14.63
	c0-0.165,0.127-0.292,0.291-0.292h5.008C15.441,14.338,15.566,14.466,15.566,14.63z"/>
<path d="M14.063,6.34h3.412c-0.055-0.154-0.138-0.31-0.199-0.372l-2.842-2.84c-0.063-0.063-0.217-0.146-0.371-0.199V6.34z"/>
<g>
	<circle stroke="#000000" stroke-width="1.0888" stroke-miterlimit="10" cx="7.088" cy="9.093" r="3.783"/>
	<polygon stroke="#000000" stroke-width="1.0888" stroke-linecap="round" stroke-linejoin="round" stroke-miterlimit="10" points="
		4.656,12.224 1.116,15.423 0.709,14.913 4.057,11.583 	"/>
</g>
</svg>
