<?xml version="1.0" encoding="utf-8"?>
<!-- Generator: Adobe Illustrator 15.1.0, SVG Export Plug-In . SVG Version: 6.00 Build 0)  -->
<!DOCTYPE svg PUBLIC "-//W3C//DTD SVG 1.1//EN" "http://www.w3.org/Graphics/SVG/1.1/DTD/svg11.dtd">
<svg version="1.1" id="Layer_1" xmlns="http://www.w3.org/2000/svg" xmlns:xlink="http://www.w3.org/1999/xlink" x="0px" y="0px"
	 width="24px" height="24px" viewBox="0 0 32 32" enable-background="new 0 0 32 32" xml:space="preserve">
<path d="M9.003,23.455v4.83h19.964V12.311h-6.49c-0.822,0-1.498-0.671-1.498-1.497V4.321H9.003v4.88l-2,0.037V3.823
	c0-0.828,0.673-1.499,1.501-1.499h13.975c0.826,0,1.979,0.483,2.563,1.063l4.868,4.869c0.574,0.577,1.063,1.731,1.063,2.559v17.97
	c0,0.828-0.672,1.498-1.498,1.498H8.503c-0.828,0-1.5-0.67-1.5-1.498v-5.328L9.003,23.455z M27.241,20.781v1.001
	c0,0.28-0.218,0.499-0.5,0.499h-7.668c-0.282,0-0.5-0.219-0.5-0.499v-1.001c0-0.279,0.218-0.498,0.5-0.498h7.673
	C27.023,20.283,27.241,20.502,27.241,20.781z M27.241,16.802v1.001c0,0.28-0.169,0.499-0.388,0.499h-5.959
	c-0.221,0-0.391-0.219-0.391-0.499v-1.001c0-0.278,0.17-0.498,0.391-0.498h5.961C27.072,16.304,27.241,16.521,27.241,16.802z
	 M27.241,24.777v0.994c0,0.283-0.218,0.502-0.5,0.502h-9.74c-0.28,0-0.499-0.219-0.499-0.502v-0.994c0-0.281,0.217-0.5,0.499-0.5
	h9.74C27.023,24.275,27.241,24.498,27.241,24.777z M22.979,10.315h5.865c-0.097-0.266-0.234-0.531-0.348-0.64l-4.885-4.884
	c-0.105-0.108-0.373-0.25-0.641-0.342v5.866H22.979z"/>
<g>
	<path d="M0.647,20.297v-7.236H2.78c0.528,0,0.929,0.044,1.203,0.133c0.36,0.115,0.671,0.326,0.935,0.632
		c0.264,0.306,0.47,0.692,0.617,1.157c0.147,0.466,0.221,1.018,0.221,1.656c0,0.819-0.125,1.516-0.375,2.086
		c-0.25,0.569-0.571,0.976-0.964,1.215c-0.392,0.237-0.905,0.356-1.539,0.356L0.647,20.297L0.647,20.297z M1.464,19.443H2.78
		c0.531,0,0.934-0.084,1.208-0.25c0.274-0.166,0.484-0.436,0.632-0.803c0.195-0.49,0.293-1.076,0.293-1.764
		c0-0.733-0.104-1.31-0.311-1.729s-0.474-0.7-0.799-0.841c-0.219-0.095-0.567-0.143-1.043-0.143H1.464V19.443z"/>
	<path d="M6.665,16.773c0-1.235,0.282-2.185,0.848-2.848c0.565-0.663,1.269-0.994,2.112-0.994c0.545,0,1.042,0.148,1.49,0.444
		c0.449,0.296,0.804,0.727,1.066,1.291c0.262,0.564,0.393,1.236,0.393,2.017c0,1.071-0.253,1.946-0.76,2.621
		c-0.559,0.743-1.29,1.114-2.194,1.114c-0.912,0-1.645-0.381-2.199-1.146C6.917,18.584,6.665,17.75,6.665,16.773z M7.507,16.785
		c0,0.893,0.205,1.584,0.614,2.076C8.53,19.354,9.029,19.6,9.614,19.6c0.6,0,1.103-0.248,1.508-0.744
		c0.406-0.498,0.609-1.229,0.609-2.191c0-0.623-0.104-1.179-0.313-1.67c-0.161-0.375-0.403-0.676-0.727-0.902
		c-0.324-0.226-0.677-0.338-1.061-0.338c-0.617,0-1.125,0.247-1.523,0.741C7.707,14.987,7.507,15.751,7.507,16.785z"/>
	<path d="M17.996,17.76l0.82,0.242c-0.183,0.813-0.498,1.418-0.952,1.818c-0.453,0.4-1.007,0.6-1.657,0.6
		c-0.572,0-1.061-0.135-1.467-0.402c-0.406-0.27-0.738-0.699-0.997-1.291c-0.258-0.594-0.388-1.293-0.388-2.1
		c0-0.797,0.129-1.471,0.388-2.022c0.259-0.551,0.609-0.968,1.052-1.25c0.442-0.281,0.937-0.422,1.482-0.422
		c0.597,0,1.109,0.178,1.538,0.534c0.43,0.356,0.729,0.879,0.899,1.568l-0.802,0.222c-0.273-1.003-0.825-1.505-1.651-1.505
		c-0.412,0-0.769,0.102-1.07,0.304c-0.302,0.202-0.543,0.518-0.723,0.946c-0.18,0.428-0.27,0.97-0.27,1.625
		c0,0.99,0.182,1.734,0.544,2.23c0.363,0.496,0.846,0.742,1.449,0.742c0.446,0,0.831-0.15,1.155-0.455
		C17.669,18.84,17.886,18.379,17.996,17.76z"/>
</g>
</svg>
