<?xml version="1.0" encoding="utf-8"?>
<!-- Generator: Adobe Illustrator 15.1.0, SVG Export Plug-In . SVG Version: 6.00 Build 0)  -->
<!DOCTYPE svg PUBLIC "-//W3C//DTD SVG 1.1//EN" "http://www.w3.org/Graphics/SVG/1.1/DTD/svg11.dtd">
<svg version="1.1" id="Layer_1" xmlns="http://www.w3.org/2000/svg" xmlns:xlink="http://www.w3.org/1999/xlink" x="0px" y="0px"
	 width="32px" height="32px" viewBox="0 0 32 32" enable-background="new 0 0 32 32" xml:space="preserve">
<g>
</g>
<g>
</g>
<path fill="#010101" d="M28.494,11.065L28.494,11.065L28.494,11.065L28.494,11.065L28.494,11.065L28.494,11.065L28.494,11.065
	v-0.411l0,0l0,0l0,0c-5.341-4.936-5.341-4.936-5.341-4.936c-4.933-4.521-5.343-4.932-5.343-4.932l0,0l0,0l0,0
	c-11.508,0-11.508,0-11.508,0c-1.643,0-2.877,1.233-2.877,2.877c0,24.257,0,24.257,0,24.257c0,1.646,1.234,2.879,2.877,2.879
	c6.166,0,6.166,0,6.166,0c0.411,0,0.411,0,0.411,0c13.15,0,13.15,0,13.15,0c1.234,0,2.464-1.233,2.464-2.879
	c0-2.877,0-2.877,0-2.877c0-2.468,0-2.468,0-2.468c0-11.101,0-11.101,0-11.101l0,0C28.494,11.476,28.494,11.476,28.494,11.065
	L28.494,11.065L28.494,11.065L28.494,11.065z M26.441,22.167c0,2.056,0,2.056,0,2.056c0,2.878,0,2.878,0,2.878
	c0,0.82-0.411,1.232-1.232,1.232c-11.918,0-11.918,0-11.918,0c-0.411,0-0.411,0-0.411,0c-5.755,0-5.755,0-5.755,0
	c-0.822,0-1.232-0.412-1.232-1.232c0-22.613,0-22.613,0-22.613c0-0.824,0.41-1.234,1.232-1.234c9.864,0,9.864,0,9.864,0
	c0,6.578,0,6.578,0,6.578c0,1.233,1.233,2.467,2.875,2.467c6.575,0,6.575,0,6.575,0L26.441,22.167L26.441,22.167z"/>
</svg>
