<?xml version="1.0" encoding="utf-8"?>
<!-- Generator: Adobe Illustrator 15.1.0, SVG Export Plug-In . SVG Version: 6.00 Build 0)  -->
<!DOCTYPE svg PUBLIC "-//W3C//DTD SVG 1.1//EN" "http://www.w3.org/Graphics/SVG/1.1/DTD/svg11.dtd">
<svg version="1.1" id="Layer_1" xmlns="http://www.w3.org/2000/svg" xmlns:xlink="http://www.w3.org/1999/xlink" x="0px" y="0px"
	 width="20px" height="20px" viewBox="0 0 20 20" enable-background="new 0 0 20 20" xml:space="preserve">
<path d="M5.781,14.57v2.884h11.914V7.921h-3.872c-0.491,0-0.896-0.4-0.896-0.894V3.152H5.781v2.913L4.587,6.087V2.855
	c0-0.494,0.402-0.895,0.896-0.895h8.34c0.493,0,1.181,0.289,1.528,0.635L18.258,5.5c0.344,0.345,0.635,1.033,0.635,1.527v10.725
	c0,0.494-0.399,0.895-0.895,0.895H5.482c-0.494,0-0.896-0.398-0.896-0.895v-3.18L5.781,14.57z"/>
<path d="M16.665,12.977v0.599c0,0.167-0.13,0.298-0.298,0.298h-4.576c-0.169,0-0.299-0.131-0.299-0.298v-0.599
	c0-0.166,0.13-0.297,0.299-0.297h4.579C16.535,12.68,16.665,12.811,16.665,12.977z"/>
<path d="M16.665,10.602V11.2c0,0.167-0.101,0.298-0.231,0.298h-3.556c-0.133,0-0.233-0.131-0.233-0.298v-0.599
	c0-0.167,0.103-0.295,0.233-0.295h3.558C16.564,10.304,16.665,10.434,16.665,10.602z"/>
<path d="M16.665,15.359v0.595c0,0.169-0.13,0.3-0.298,0.3h-5.813c-0.167,0-0.299-0.131-0.299-0.3v-0.595
	c0-0.166,0.129-0.297,0.299-0.297h5.813C16.535,15.063,16.665,15.193,16.665,15.359z"/>
<path d="M14.121,6.729h3.501c-0.058-0.159-0.142-0.317-0.208-0.382l-2.915-2.915c-0.063-0.064-0.224-0.149-0.382-0.204v3.5
	L14.121,6.729L14.121,6.729z"/>
<g enable-background="new    ">
	<path d="M0.893,12.577V8.259h1.696c0.298,0,0.526,0.014,0.684,0.041c0.221,0.036,0.406,0.103,0.555,0.202
		c0.149,0.1,0.269,0.238,0.36,0.417c0.091,0.179,0.136,0.375,0.136,0.589c0,0.367-0.121,0.678-0.365,0.932
		c-0.243,0.255-0.683,0.382-1.319,0.382H1.487v1.756L0.893,12.577L0.893,12.577z M1.487,10.312h1.162
		c0.384,0,0.658-0.068,0.819-0.206C3.63,9.968,3.71,9.774,3.71,9.525c0-0.181-0.047-0.335-0.143-0.464
		c-0.095-0.129-0.22-0.214-0.375-0.255c-0.1-0.025-0.285-0.039-0.555-0.039h-1.15V10.312z"/>
	<path d="M5.082,12.577V8.259h1.696c0.298,0,0.526,0.014,0.684,0.041c0.221,0.036,0.406,0.103,0.555,0.202
		c0.149,0.1,0.269,0.238,0.36,0.417c0.091,0.179,0.136,0.375,0.136,0.589c0,0.367-0.122,0.678-0.365,0.932
		c-0.243,0.255-0.683,0.382-1.319,0.382H5.676v1.756L5.082,12.577L5.082,12.577z M5.676,10.312h1.163
		c0.384,0,0.657-0.068,0.819-0.206C7.82,9.968,7.9,9.774,7.9,9.525c0-0.181-0.047-0.335-0.143-0.464
		c-0.095-0.129-0.22-0.214-0.375-0.255C7.281,8.781,7.096,8.768,6.827,8.768h-1.15L5.676,10.312L5.676,10.312z"/>
	<path d="M10.415,12.577V8.768H8.933V8.259h3.563v0.509h-1.487v3.809H10.415z"/>
</g>
</svg>
