<?xml version="1.0" encoding="utf-8"?>
<!-- Generator: Adobe Illustrator 15.1.0, SVG Export Plug-In . SVG Version: 6.00 Build 0)  -->
<!DOCTYPE svg PUBLIC "-//W3C//DTD SVG 1.1//EN" "http://www.w3.org/Graphics/SVG/1.1/DTD/svg11.dtd">
<svg version="1.1" id="Layer_1" xmlns="http://www.w3.org/2000/svg" xmlns:xlink="http://www.w3.org/1999/xlink" x="0px" y="0px"
	 width="24px" height="24px" viewBox="0 0 32 32" enable-background="new 0 0 32 32" xml:space="preserve">
<path d="M27.295,20.635v0.975c0,0.271-0.21,0.488-0.486,0.488h-7.451c-0.274,0-0.486-0.218-0.486-0.488v-0.975
	c0-0.27,0.212-0.482,0.486-0.482h7.457C27.085,20.15,27.295,20.365,27.295,20.635z"/>
<path d="M27.295,16.77v0.974c0,0.272-0.166,0.487-0.374,0.487h-5.792c-0.214,0-0.374-0.215-0.374-0.487V16.77
	c0-0.273,0.17-0.483,0.374-0.483h5.796C27.129,16.285,27.295,16.495,27.295,16.77z"/>
<path d="M27.295,24.518v0.967c0,0.279-0.21,0.494-0.486,0.494h-9.465c-0.273,0-0.486-0.215-0.486-0.494v-0.967
	c0-0.271,0.209-0.483,0.486-0.483h9.465C27.085,24.033,27.295,24.246,27.295,24.518z"/>
<path d="M9.571,23.23v4.694h19.4V12.404h-6.308c-0.798,0-1.455-0.65-1.455-1.457V4.638H9.571v4.744L7.625,9.416V4.155
	c0-0.804,0.655-1.458,1.459-1.458h13.58c0.8,0,1.924,0.469,2.49,1.032l4.729,4.732c0.559,0.56,1.036,1.681,1.036,2.485V28.41
	c0,0.804-0.653,1.459-1.46,1.459H9.085c-0.805,0-1.459-0.646-1.459-1.459v-5.18H9.571z M23.15,10.462h5.699
	c-0.097-0.257-0.229-0.513-0.338-0.621l-4.744-4.749C23.665,4.988,23.4,4.85,23.143,4.76v5.699L23.15,10.462L23.15,10.462z"/>
<g>
	<path d="M1.08,19.982v-7.029h2.762c0.485,0,0.856,0.024,1.113,0.067c0.36,0.059,0.662,0.167,0.904,0.329
		c0.243,0.16,0.439,0.387,0.588,0.679c0.149,0.292,0.222,0.611,0.222,0.959c0,0.598-0.199,1.104-0.595,1.52
		c-0.397,0.415-1.112,0.623-2.148,0.623H2.05v2.856L1.08,19.982L1.08,19.982z M2.05,16.3h1.894c0.625,0,1.069-0.112,1.333-0.337
		c0.262-0.227,0.394-0.54,0.394-0.946c0-0.293-0.079-0.543-0.233-0.754c-0.155-0.21-0.358-0.351-0.612-0.417
		c-0.163-0.04-0.463-0.064-0.904-0.064H2.05V16.3z"/>
	<path d="M8.023,19.982v-7.029h2.52c0.572,0,1.005,0.034,1.306,0.101c0.417,0.095,0.776,0.261,1.071,0.505
		c0.386,0.311,0.674,0.713,0.867,1.2c0.191,0.488,0.286,1.045,0.286,1.669c0,0.534-0.064,1.009-0.195,1.417
		c-0.13,0.414-0.296,0.754-0.5,1.024s-0.428,0.483-0.666,0.639c-0.24,0.161-0.534,0.274-0.875,0.359
		c-0.34,0.077-0.732,0.116-1.176,0.116L8.023,19.982L8.023,19.982z M8.99,19.154h1.563c0.484,0,0.862-0.041,1.136-0.131
		c0.275-0.088,0.493-0.205,0.657-0.364c0.23-0.22,0.407-0.517,0.537-0.89c0.127-0.373,0.19-0.824,0.19-1.355
		c0-0.737-0.124-1.302-0.374-1.696c-0.251-0.396-0.556-0.659-0.916-0.792c-0.261-0.098-0.676-0.145-1.254-0.145H8.99V19.154z"/>
	<path d="M15.511,19.982v-7.029h4.937v0.828h-3.969v2.181h3.432v0.827h-3.432v3.195h-0.967V19.982z"/>
</g>
</svg>
