<?xml version="1.0" encoding="utf-8"?>
<!-- Generator: Adobe Illustrator 15.1.0, SVG Export Plug-In . SVG Version: 6.00 Build 0)  -->
<!DOCTYPE svg PUBLIC "-//W3C//DTD SVG 1.1//EN" "http://www.w3.org/Graphics/SVG/1.1/DTD/svg11.dtd">
<svg version="1.1" id="Layer_1" xmlns="http://www.w3.org/2000/svg" xmlns:xlink="http://www.w3.org/1999/xlink" x="0px" y="0px"
	 width="20px" height="20px" viewBox="0 0 20 20" enable-background="new 0 0 20 20" xml:space="preserve">
<path d="M5.79,14.51v2.842h11.741V7.956h-3.817c-0.483,0-0.881-0.395-0.881-0.88v-3.82H5.79v2.87L4.614,6.148V2.963
	c0-0.487,0.396-0.881,0.883-0.881h8.218c0.486,0,1.165,0.284,1.508,0.625l2.863,2.863c0.338,0.34,0.625,1.018,0.625,1.505v10.569
	c0,0.485-0.396,0.881-0.881,0.881H5.496c-0.487,0-0.882-0.396-0.882-0.881V14.51H5.79z"/>
<path d="M16.518,12.938v0.588c0,0.166-0.129,0.295-0.295,0.295h-4.51c-0.166,0-0.294-0.129-0.294-0.295v-0.588
	c0-0.164,0.128-0.293,0.294-0.293h4.514C16.389,12.645,16.518,12.771,16.518,12.938z"/>
<path d="M16.518,10.598v0.588c0,0.166-0.101,0.293-0.229,0.293h-3.505c-0.132,0-0.229-0.127-0.229-0.293v-0.588
	c0-0.165,0.1-0.292,0.229-0.292h3.506C16.417,10.304,16.518,10.432,16.518,10.598z"/>
<path d="M16.518,15.287v0.585c0,0.166-0.129,0.295-0.295,0.295h-5.729c-0.165,0-0.294-0.129-0.294-0.295v-0.585
	c0-0.165,0.128-0.294,0.294-0.294h5.729C16.389,14.992,16.518,15.123,16.518,15.287z"/>
<path d="M14.01,6.782h3.449c-0.057-0.157-0.139-0.313-0.204-0.376l-2.873-2.873c-0.063-0.063-0.22-0.147-0.377-0.201v3.45H14.01z"/>
<g enable-background="new    ">
	<path d="M0.711,12.544l1.713-2.218l-1.51-2.037h0.698L2.416,9.38c0.167,0.226,0.286,0.4,0.356,0.522
		c0.099-0.155,0.216-0.316,0.351-0.485l0.892-1.129h0.638l-1.557,2.006l1.678,2.25H4.047l-1.115-1.519
		c-0.063-0.088-0.127-0.184-0.193-0.284c-0.099,0.153-0.169,0.262-0.211,0.319l-1.112,1.481L0.711,12.544L0.711,12.544z"/>
	<path d="M5.266,12.544V8.289h0.586v3.752h2.182v0.503H5.266z"/>
	<path d="M8.532,11.176l0.553-0.046c0.026,0.213,0.087,0.388,0.183,0.524c0.096,0.136,0.244,0.246,0.446,0.33
		c0.201,0.084,0.428,0.127,0.68,0.127c0.224,0,0.42-0.032,0.592-0.096c0.172-0.064,0.299-0.151,0.383-0.265
		c0.084-0.11,0.126-0.231,0.126-0.362c0-0.136-0.041-0.25-0.121-0.353c-0.08-0.101-0.214-0.185-0.397-0.25
		c-0.119-0.045-0.384-0.114-0.79-0.208c-0.407-0.094-0.692-0.183-0.855-0.266c-0.211-0.106-0.369-0.238-0.473-0.396
		s-0.155-0.334-0.155-0.53c0-0.215,0.063-0.416,0.19-0.603C9.019,8.6,9.204,8.458,9.448,8.361c0.244-0.097,0.515-0.145,0.813-0.145
		c0.328,0,0.618,0.051,0.869,0.152c0.251,0.101,0.443,0.251,0.579,0.449c0.135,0.197,0.207,0.421,0.217,0.67l-0.562,0.041
		c-0.03-0.269-0.134-0.472-0.308-0.609c-0.176-0.138-0.434-0.206-0.771-0.206c-0.354,0-0.613,0.062-0.775,0.187
		C9.348,9.025,9.267,9.175,9.267,9.351c0,0.152,0.057,0.278,0.172,0.377c0.113,0.099,0.408,0.2,0.885,0.303
		c0.477,0.104,0.803,0.194,0.98,0.271c0.258,0.114,0.446,0.259,0.569,0.435c0.123,0.177,0.185,0.378,0.185,0.604
		c0,0.228-0.066,0.438-0.201,0.642c-0.137,0.199-0.33,0.354-0.582,0.468c-0.254,0.11-0.537,0.167-0.854,0.167
		c-0.401,0-0.737-0.057-1.008-0.169c-0.271-0.111-0.483-0.28-0.638-0.507C8.622,11.716,8.54,11.461,8.532,11.176z"/>
</g>
</svg>
