<?xml version="1.0" encoding="utf-8"?>
<!-- Generator: Adobe Illustrator 15.1.0, SVG Export Plug-In . SVG Version: 6.00 Build 0)  -->
<!DOCTYPE svg PUBLIC "-//W3C//DTD SVG 1.1//EN" "http://www.w3.org/Graphics/SVG/1.1/DTD/svg11.dtd">
<svg version="1.1" id="Layer_1" xmlns="http://www.w3.org/2000/svg" xmlns:xlink="http://www.w3.org/1999/xlink" x="0px" y="0px"
	 width="32px" height="32px" viewBox="0 0 32 32" enable-background="new 0 0 32 32" xml:space="preserve">
<g>
</g>
<path fill="#010101" d="M28.759,8.412c-4.738,0-4.738,0-4.738,0c0-4.71,0-4.71,0-4.71c0-0.942-0.474-1.884-1.895-1.884
	c-0.949,0-1.896,0.941-1.896,1.884c0,4.71,0,4.71,0,4.71c0,3.767,0,3.767,0,3.767c9.002,0,9.002,0,9.002,0
	c0.95,0,1.423-0.942,1.423-1.883C30.654,9.353,30.182,8.412,28.759,8.412L28.759,8.412z"/>
<path fill="#010101" d="M3.174,23.954c4.738,0,4.738,0,4.738,0c0,4.71,0,4.71,0,4.71c0,0.942,0.474,1.885,1.896,1.885
	c0.947,0,1.895-0.942,1.895-1.885c0-4.71,0-4.71,0-4.71c0-3.768,0-3.768,0-3.768c-9.002,0-9.002,0-9.002,0
	c-0.948,0-1.421,0.942-1.421,1.884C1.279,23.014,1.752,23.954,3.174,23.954L3.174,23.954z"/>
<path fill="#010101" d="M28.759,23.954c-4.738,0-4.738,0-4.738,0c0,4.71,0,4.71,0,4.71c0,0.942-0.474,1.885-1.895,1.885
	c-0.949,0-1.896-0.942-1.896-1.885c0-4.71,0-4.71,0-4.71c0-3.768,0-3.768,0-3.768c9.002,0,9.002,0,9.002,0
	c0.95,0,1.423,0.942,1.423,1.884C30.654,23.014,30.182,23.954,28.759,23.954L28.759,23.954z"/>
<path fill="#010101" d="M3.174,8.412c4.738,0,4.738,0,4.738,0c0-4.71,0-4.71,0-4.71c0-0.942,0.474-1.884,1.896-1.884
	c0.947,0,1.895,0.941,1.895,1.884c0,4.71,0,4.71,0,4.71c0,3.767,0,3.767,0,3.767c-9.002,0-9.002,0-9.002,0
	c-0.948,0-1.421-0.942-1.421-1.883C1.279,9.353,1.752,8.412,3.174,8.412L3.174,8.412z"/>
</svg>
