<?xml version="1.0" encoding="utf-8"?>
<!-- Generator: Adobe Illustrator 15.1.0, SVG Export Plug-In . SVG Version: 6.00 Build 0)  -->
<!DOCTYPE svg PUBLIC "-//W3C//DTD SVG 1.1//EN" "http://www.w3.org/Graphics/SVG/1.1/DTD/svg11.dtd">
<svg version="1.1" id="Layer_1" xmlns="http://www.w3.org/2000/svg" xmlns:xlink="http://www.w3.org/1999/xlink" x="0px" y="0px"
	 width="24px" height="24px" viewBox="0 0 32 32" enable-background="new 0 0 32 32" xml:space="preserve">
<g>
	<path fill="#010101" d="M29.73,10.395h-6.645c-0.414,0-0.75-0.336-0.75-0.75V2.688c0-0.414,0.336-0.75,0.75-0.75
		s0.75,0.336,0.75,0.75v6.207h5.895c0.414,0,0.75,0.336,0.75,0.75S30.145,10.395,29.73,10.395z"/>
</g>
<g>
	<path fill="#010101" d="M8.91,10.395H2.27c-0.414,0-0.75-0.336-0.75-0.75s0.336-0.75,0.75-0.75h5.89V2.688
		c0-0.414,0.336-0.75,0.75-0.75s0.75,0.336,0.75,0.75v6.957C9.66,10.059,9.324,10.395,8.91,10.395z"/>
</g>
<g>
	<path fill="#010101" d="M23.086,29.699c-0.414,0-0.75-0.336-0.75-0.75v-6.963c0-0.414,0.336-0.75,0.75-0.75h6.645
		c0.414,0,0.75,0.336,0.75,0.75s-0.336,0.75-0.75,0.75h-5.895v6.213C23.836,29.363,23.5,29.699,23.086,29.699z"/>
</g>
<g>
	<path fill="#010101" d="M8.91,29.699c-0.414,0-0.75-0.336-0.75-0.75v-6.213H2.27c-0.414,0-0.75-0.336-0.75-0.75
		s0.336-0.75,0.75-0.75h6.64c0.414,0,0.75,0.336,0.75,0.75v6.963C9.66,29.363,9.324,29.699,8.91,29.699z"/>
</g>
</svg>
