<?xml version="1.0" encoding="utf-8"?>
<!-- Generator: Adobe Illustrator 15.1.0, SVG Export Plug-In . SVG Version: 6.00 Build 0)  -->
<!DOCTYPE svg PUBLIC "-//W3C//DTD SVG 1.1//EN" "http://www.w3.org/Graphics/SVG/1.1/DTD/svg11.dtd">
<svg version="1.1" id="Layer_1" xmlns="http://www.w3.org/2000/svg" xmlns:xlink="http://www.w3.org/1999/xlink" x="0px" y="0px"
	 width="20px" height="20px" viewBox="0 0 20 20" enable-background="new 0 0 20 20" xml:space="preserve">
<g>
	<path fill="#010101" d="M18.048,7.228h-3.871c-0.474,0-0.857-0.383-0.857-0.857V2.319c0-0.474,0.384-0.857,0.857-0.857
		s0.857,0.383,0.857,0.857v3.195h3.014c0.474,0,0.857,0.384,0.857,0.857C18.905,6.845,18.521,7.228,18.048,7.228z"/>
</g>
<g>
	<path fill="#010101" d="M5.916,7.228H2.047c-0.474,0-0.857-0.383-0.857-0.857c0-0.473,0.383-0.857,0.857-0.857h3.012V2.319
		c0-0.474,0.383-0.857,0.857-0.857s0.857,0.383,0.857,0.857v4.052C6.773,6.845,6.39,7.228,5.916,7.228z"/>
</g>
<g>
	<path fill="#010101" d="M14.177,18.479c-0.474,0-0.857-0.384-0.857-0.857v-4.059c0-0.474,0.384-0.857,0.857-0.857h3.871
		c0.474,0,0.857,0.384,0.857,0.857s-0.384,0.857-0.857,0.857h-3.014v3.201C15.034,18.095,14.65,18.479,14.177,18.479z"/>
</g>
<g>
	<path fill="#010101" d="M5.916,18.479c-0.474,0-0.857-0.384-0.857-0.857V14.42H2.047c-0.474,0-0.857-0.384-0.857-0.857
		s0.383-0.857,0.857-0.857h3.869c0.474,0,0.857,0.384,0.857,0.857v4.059C6.773,18.095,6.39,18.479,5.916,18.479z"/>
</g>
</svg>
