<?xml version="1.0" encoding="utf-8"?>
<!-- Generator: Adobe Illustrator 15.1.0, SVG Export Plug-In . SVG Version: 6.00 Build 0)  -->
<!DOCTYPE svg PUBLIC "-//W3C//DTD SVG 1.1//EN" "http://www.w3.org/Graphics/SVG/1.1/DTD/svg11.dtd">
<svg version="1.1" id="Layer_1" xmlns="http://www.w3.org/2000/svg" xmlns:xlink="http://www.w3.org/1999/xlink" x="0px" y="0px"
	 width="32px" height="32px" viewBox="0 0 32 32" enable-background="new 0 0 32 32" xml:space="preserve">
<path fill="#010101" d="M30.572,9.137c-16.611,0-16.611,0-16.611,0c-3.213-3.145-3.213-3.145-3.213-3.145c-0.536,0-0.536,0-1.072,0
	c-7.501,0-7.501,0-7.501,0c-0.536,0-1.072,0-1.072,0.524c0,19.39,0,19.39,0,19.39c0,0.525,0.536,1.049,1.072,1.049
	c28.397,0,28.397,0,28.397,0s0.535-0.521,0.535-1.049c0-16.246,0-16.246,0-16.246C31.107,9.137,30.572,9.137,30.572,9.137
	L30.572,9.137z"/>
</svg>
