<?xml version="1.0" encoding="utf-8"?>
<!-- Generator: Adobe Illustrator 15.1.0, SVG Export Plug-In . SVG Version: 6.00 Build 0)  -->
<!DOCTYPE svg PUBLIC "-//W3C//DTD SVG 1.1//EN" "http://www.w3.org/Graphics/SVG/1.1/DTD/svg11.dtd">
<svg version="1.1" id="Layer_1" xmlns="http://www.w3.org/2000/svg" xmlns:xlink="http://www.w3.org/1999/xlink" x="0px" y="0px"
	 width="20px" height="20px" viewBox="0 0 20 20" enable-background="new 0 0 20 20" xml:space="preserve">
<g>
	<path fill="#010101" d="M16.234,16.562c-13.083,0-13.083,0-13.083,0c-0.32,0-0.32-0.309-0.32-0.618
		c2.554-7.417,2.554-7.417,2.554-7.417s0.319-0.31,0.635-0.31c12.766,0,12.766,0,12.766,0c0.318,0,0.637,0.311,0.318,0.619
		c-2.551,7.417-2.551,7.417-2.551,7.417C16.555,16.562,16.234,16.562,16.234,16.562L16.234,16.562z"/>
	<path fill="#010101" d="M1.555,15.325c2.553-7.109,2.553-7.109,2.553-7.109c0.321-0.619,0.959-1.237,1.597-1.237
		c11.166,0,11.166,0,11.166,0c0-0.31,0-0.31,0-0.31c0-0.308,0-1.296-0.316-1.296c-8.617,0-8.617,0-8.617,0
		C6.342,4.136,6.342,4.136,6.342,4.136C6.024,3.828,6.024,3.828,6.024,3.828c-4.146,0-4.146,0-4.146,0
		c-0.322,0-0.641,0.31-0.641,0.31c0,9.893,0,10.57,0,10.57C1.237,15.015,1.555,15.015,1.555,15.325L1.555,15.325z"/>
</g>
</svg>
