<?xml version="1.0" encoding="utf-8"?>
<!-- Generator: Adobe Illustrator 15.1.0, SVG Export Plug-In . SVG Version: 6.00 Build 0)  -->
<!DOCTYPE svg PUBLIC "-//W3C//DTD SVG 1.1//EN" "http://www.w3.org/Graphics/SVG/1.1/DTD/svg11.dtd">
<svg version="1.1" id="Layer_1" xmlns="http://www.w3.org/2000/svg" xmlns:xlink="http://www.w3.org/1999/xlink" x="0px" y="0px"
	 width="32px" height="32px" viewBox="0 0 32 32" style="enable-background:new 0 0 32 32;" xml:space="preserve">
<style type="text/css">
<![CDATA[
	.st0{fill:#010101;}
]]>
</style>
<g>
	<path class="st0" d="M26.191,26.07c-21.893,0-21.893,0-21.893,0c-0.535,0-0.535-0.518-0.535-1.034
		c4.273-12.415,4.273-12.415,4.273-12.415s0.533-0.518,1.066-0.518c21.363,0,21.363,0,21.363,0c0.533,0,1.067,0.518,0.533,1.035
		c-4.271,12.415-4.271,12.415-4.271,12.415C26.729,26.07,26.191,26.07,26.191,26.07L26.191,26.07z"/>
	<path class="st0" d="M1.626,24.001C5.9,12.104,5.9,12.104,5.9,12.104c0.535-1.035,1.602-2.07,2.67-2.07c18.69,0,18.69,0,18.69,0
		c0-0.518,0-0.518,0-0.518c0-0.517,0-1.035-0.533-1.035c-14.418,0-14.418,0-14.418,0c-2.67-2.07-2.67-2.07-2.67-2.07
		C9.103,5.894,9.103,5.894,9.103,5.894c-6.939,0-6.939,0-6.939,0c-0.537,0-1.07,0.518-1.07,0.518c0,16.556,0,16.556,0,16.556
		C1.094,23.482,1.626,23.482,1.626,24.001L1.626,24.001z"/>
</g>
</svg>
