<?xml version="1.0" encoding="utf-8"?>
<!-- Generator: Adobe Illustrator 15.1.0, SVG Export Plug-In . SVG Version: 6.00 Build 0)  -->
<!DOCTYPE svg PUBLIC "-//W3C//DTD SVG 1.1//EN" "http://www.w3.org/Graphics/SVG/1.1/DTD/svg11.dtd">
<svg version="1.1" id="Layer_1" xmlns="http://www.w3.org/2000/svg" xmlns:xlink="http://www.w3.org/1999/xlink" x="0px" y="0px"
	 width="32px" height="32px" viewBox="0 0 32 32" enable-background="new 0 0 32 32" xml:space="preserve">
<g>
	<g>
		<path fill="#010101" d="M26.121,27.785H4.27c-1.328,0-1.328-1.342-1.328-1.783l0.041-0.244l4.273-12.416l0.187-0.294
			c0.125-0.122,0.792-0.73,1.589-0.73h21.321c0.663,0,1.244,0.367,1.457,0.892c0.174,0.429,0.09,0.896-0.224,1.282l-4.187,12.171
			c-0.035,0.359-0.202,0.6-0.344,0.742C26.695,27.767,26.214,27.785,26.121,27.785z M4.446,26.285l21.501-0.012l4.297-12.456H9.031
			c-0.1,0-0.284,0.103-0.424,0.206L4.442,26.126C4.443,26.179,4.444,26.234,4.446,26.285z"/>
	</g>
	<g>
		<path fill="#010101" d="M3.155,25.716h-0.75c-1.335,0-2.133-0.906-2.133-1.782V6.243L0.5,5.705c0.125-0.122,0.792-0.73,1.592-0.73
			h6.939l0.521,0.211l0.535,0.517l2.404,1.859h14.165c1.283,0,1.283,1.899,1.283,2.92v1.268h-1.5v-1.203
			c0-0.852-0.054-1.276-0.102-1.485H12.264l-0.488-0.157l-2.67-2.07L8.73,6.475H2.092c-0.076,0-0.199,0.057-0.32,0.133v17.326
			c0.001,0.068,0.194,0.282,0.633,0.282h0.75V25.716z"/>
	</g>
</g>
</svg>
