<?xml version="1.0" encoding="utf-8"?>
<!-- Generator: Adobe Illustrator 15.1.0, SVG Export Plug-In . SVG Version: 6.00 Build 0)  -->
<!DOCTYPE svg PUBLIC "-//W3C//DTD SVG 1.1//EN" "http://www.w3.org/Graphics/SVG/1.1/DTD/svg11.dtd">
<svg version="1.1" id="Layer_1" xmlns="http://www.w3.org/2000/svg" xmlns:xlink="http://www.w3.org/1999/xlink" x="0px" y="0px"
	 width="20px" height="20px" viewBox="0 0 20 20" enable-background="new 0 0 20 20" xml:space="preserve">
<path fill="#010101" d="M10.448,1.29c-0.224-0.229-0.672-0.229-0.895,0C2.615,5.383,2.165,5.838,2.165,5.838
	c0,0.226,0,0.226,0,0.226c0,8.188,0,8.188,0,8.188c0,0.227,0.224,0.682,0.45,0.682c6.938,4.096,6.938,4.096,6.938,4.096
	c0.245,0.102,0.773,0.137,0.895,0c6.938-4.096,6.938-4.096,6.938-4.096c0.219-0.162,0.447-0.455,0.447-0.682
	c0-8.188,0-8.188,0-8.188c0-0.226,0-0.226,0-0.226C17.834,5.609,10.448,1.29,10.448,1.29z M10.992,8.758v-5.06
	c4.406,2.526,4.412,2.529,4.412,2.529L10.992,8.758z M9.131,3.766v4.912C5.766,6.699,5.756,6.694,5.756,6.694
	C4.837,6.229,4.837,6.229,4.837,6.229C7.102,4.929,8.39,4.188,9.131,3.766z M9.105,16.752c-5.148-2.955-5.148-2.955-5.148-2.955
	c0-6.139,0-6.139,0-6.139c5.148,2.956,5.148,2.956,5.148,2.956V16.752z"/>
</svg>
