<?xml version="1.0" encoding="utf-8"?>
<!-- Generator: Adobe Illustrator 15.1.0, SVG Export Plug-In . SVG Version: 6.00 Build 0)  -->
<!DOCTYPE svg PUBLIC "-//W3C//DTD SVG 1.1//EN" "http://www.w3.org/Graphics/SVG/1.1/DTD/svg11.dtd">
<svg version="1.1" id="Layer_1" xmlns="http://www.w3.org/2000/svg" xmlns:xlink="http://www.w3.org/1999/xlink" x="0px" y="0px"
	 width="24px" height="24px" viewBox="0 0 32 32" enable-background="new 0 0 32 32" xml:space="preserve">
<path fill="#010101" d="M16.516,1.135c-0.372-0.378-1.112-0.378-1.482,0C3.537,7.916,2.795,8.67,2.795,8.67c0,0.376,0,0.376,0,0.376
	c0,13.562,0,13.562,0,13.562c0,0.377,0.371,1.133,0.742,1.133c11.495,6.779,11.495,6.779,11.495,6.779
	c0.406,0.168,1.281,0.23,1.483,0c11.493-6.779,11.493-6.779,11.493-6.779c0.365-0.271,0.741-0.756,0.741-1.133
	c0-13.562,0-13.562,0-13.562c0-0.376,0-0.376,0-0.376C28.751,8.293,16.516,1.135,16.516,1.135z M17.417,13.509V5.125
	c7.302,4.188,7.308,4.192,7.308,4.192L17.417,13.509z M14.333,5.237v8.137c-5.574-3.275-5.591-3.285-5.591-3.285
	C7.221,9.317,7.221,9.317,7.221,9.317C10.973,7.165,13.109,5.939,14.333,5.237z M14.291,26.752
	c-8.528-4.896-8.528-4.896-8.528-4.896c0-10.169,0-10.169,0-10.169c8.528,4.898,8.528,4.898,8.528,4.898V26.752z"/>
</svg>
