<?xml version="1.0" encoding="utf-8"?>
<!-- Generator: Adobe Illustrator 15.1.0, SVG Export Plug-In . SVG Version: 6.00 Build 0)  -->
<!DOCTYPE svg PUBLIC "-//W3C//DTD SVG 1.1//EN" "http://www.w3.org/Graphics/SVG/1.1/DTD/svg11.dtd">
<svg version="1.1" id="Layer_1" xmlns="http://www.w3.org/2000/svg" xmlns:xlink="http://www.w3.org/1999/xlink" x="0px" y="0px"
	 width="24px" height="24px" viewBox="0 0 32 32" enable-background="new 0 0 32 32" xml:space="preserve">
<g>
	<path fill="white" d="M16.293,31.787c-8.692,0-15.501-6.807-15.501-15.495c0-8.543,6.954-15.494,15.501-15.494
		c8.548,0,15.503,6.951,15.503,15.494C31.796,24.98,24.986,31.787,16.293,31.787z M16.293,2.298c-7.72,0-14.001,6.278-14.001,13.994
		c0,7.848,6.15,13.995,14.001,13.995c7.853,0,14.003-6.147,14.003-13.995C30.296,8.576,24.015,2.298,16.293,2.298z"/>
</g>
<g>
	<path fill="white" d="M15.756,27.073c-0.996,0-1.7-0.791-1.7-1.817c0-1.083,0.733-1.847,1.73-1.847c1.055,0,1.728,0.764,1.728,1.847
		C17.516,26.282,16.841,27.073,15.756,27.073z"/>
	<path fill="white" d="M15.756,27.823c-1.396,0-2.45-1.104-2.45-2.567c0-1.48,1.066-2.597,2.48-2.597c1.459,0,2.478,1.067,2.478,2.597
		c0.001,0.729-0.257,1.391-0.728,1.862C17.082,27.573,16.45,27.823,15.756,27.823z M15.786,24.159c-0.586,0-0.98,0.44-0.98,1.097
		c0,0.629,0.391,1.067,0.95,1.067c0.301,0,0.543-0.089,0.718-0.265c0.187-0.188,0.291-0.473,0.29-0.802
		C16.764,24.999,16.693,24.159,15.786,24.159z"/>
</g>
<g>
	<path fill="white" d="M18.6,16.055c-1.289,1.522-1.758,2.841-1.67,4.335l0.062,0.731h-2.315l-0.059-0.765c-0.176-1.553,0.352-3.313,1.817-5.067
		c1.318-1.554,2.046-2.697,2.046-4.016c0-1.495-0.937-2.491-2.78-2.52c-1.055,0-2.228,0.351-2.96,0.908l-0.703-1.846
		c0.996-0.704,2.638-1.173,4.191-1.173c3.374,0,4.893,2.081,4.893,4.309C21.119,12.947,20.006,14.384,18.6,16.055z"/>
	<path fill="white" d="M17.807,21.872h-3.826l-0.112-1.457c-0.21-1.847,0.477-3.795,1.989-5.605c1.383-1.631,1.872-2.556,1.872-3.536
		c0-1.153-0.688-1.749-2.042-1.77c-0.894,0-1.901,0.303-2.494,0.755l-0.798,0.607l-1.267-3.327l0.475-0.335
		c1.126-0.796,2.941-1.311,4.624-1.311c3.898,0,5.643,2.541,5.643,5.059c-0.002,2.207-1.171,3.771-2.697,5.586
		c-1.128,1.331-1.574,2.47-1.495,3.809L17.807,21.872z M15.37,20.372h0.808c-0.082-1.72,0.492-3.198,1.849-4.802
		c1.371-1.629,2.342-2.915,2.344-4.619c0-1.72-1.089-3.559-4.143-3.559c-1.142,0-2.379,0.288-3.267,0.742l0.166,0.435
		c0.77-0.354,1.7-0.565,2.574-0.565c2.182,0.035,3.53,1.288,3.53,3.27c0,1.564-0.852,2.882-2.225,4.501
		c-1.239,1.485-1.809,3.042-1.644,4.498L15.37,20.372z"/>
</g>
</svg>
