<?xml version="1.0" encoding="utf-8"?>
<!-- Generator: Adobe Illustrator 15.1.0, SVG Export Plug-In . SVG Version: 6.00 Build 0)  -->
<!DOCTYPE svg PUBLIC "-//W3C//DTD SVG 1.1//EN" "http://www.w3.org/Graphics/SVG/1.1/DTD/svg11.dtd">
<svg version="1.1" id="Layer_1" xmlns="http://www.w3.org/2000/svg" xmlns:xlink="http://www.w3.org/1999/xlink" x="0px" y="0px"
	 width="20px" height="20px" viewBox="0 0 20 20" enable-background="new 0 0 20 20" xml:space="preserve">
<g>
	<path d="M10,2.195c-4.401,0-8.003,3.599-8.003,8c0,4.599,3.602,8,8.003,8c4.4,0,8.002-3.4,8.002-8
		C18.005,5.796,14.404,2.195,10,2.195z"/>
	<path d="M10,18.603c-4.716,0-8.41-3.693-8.41-8.408c0-4.636,3.772-8.407,8.41-8.407c2.238,0,4.349,0.877,5.941,2.469
		c1.593,1.593,2.469,3.701,2.468,5.938C18.409,14.909,14.715,18.603,10,18.603z M10,2.602c-4.188,0-7.596,3.406-7.596,7.593
		c0,4.258,3.337,7.593,7.596,7.593c4.259,0,7.595-3.335,7.595-7.593c0.002-2.019-0.79-3.923-2.229-5.362
		C13.927,3.394,12.021,2.602,10,2.602z"/>
</g>
<g>
	<path fill="#FFFFFF" d="M9.71,16.042c-0.54,0-0.922-0.431-0.922-0.983c0-0.588,0.397-1.002,0.938-1.002
		c0.572,0,0.938,0.414,0.938,1.002C10.664,15.614,10.301,16.042,9.71,16.042z"/>
	<path fill="#FFFFFF" d="M9.71,16.449c-0.757,0-1.329-0.598-1.329-1.391c0-0.803,0.578-1.409,1.345-1.409
		c0.792,0,1.345,0.58,1.345,1.409C11.071,15.864,10.499,16.449,9.71,16.449z M9.726,14.464c-0.318,0-0.531,0.239-0.531,0.595
		c0,0.34,0.212,0.576,0.515,0.576c0.403,0,0.547-0.298,0.547-0.576C10.257,14.919,10.219,14.464,9.726,14.464z"/>
</g>
<g>
	<path fill="#FFFFFF" d="M11.254,10.066c-0.699,0.825-0.953,1.542-0.906,2.353l0.032,0.396H9.124L9.09,12.402
		c-0.095-0.842,0.191-1.797,0.987-2.75c0.715-0.843,1.11-1.463,1.11-2.178c0-0.811-0.508-1.353-1.509-1.368
		c-0.572,0-1.208,0.191-1.607,0.494l-0.38-1.003c0.541-0.379,1.432-0.635,2.273-0.635c1.829,0,2.656,1.128,2.656,2.337
		C12.622,8.38,12.018,9.159,11.254,10.066z"/>
	<path fill="#FFFFFF" d="M10.82,13.222H8.75l-0.065-0.786c-0.113-1.005,0.26-2.062,1.08-3.043c0.751-0.885,1.016-1.386,1.016-1.917
		c0-0.627-0.373-0.95-1.108-0.961c-0.484,0-1.031,0.166-1.355,0.412L7.883,7.254L7.198,5.447l0.259-0.182
		c0.614-0.431,1.598-0.709,2.506-0.709c2.116,0,3.063,1.378,3.063,2.744c0.002,1.195-0.633,2.043-1.462,3.028
		c-0.611,0.721-0.854,1.339-0.812,2.067L10.82,13.222z M9.499,12.407H9.94c-0.044-0.934,0.267-1.736,1.003-2.604
		c0.744-0.883,1.271-1.581,1.27-2.502c0-0.934-0.591-1.931-2.249-1.931c-0.617,0-1.288,0.157-1.772,0.403l0.089,0.234
		C8.698,5.813,9.197,5.7,9.678,5.7c1.184,0.018,1.917,0.698,1.917,1.775c0,0.848-0.462,1.563-1.207,2.441
		c-0.673,0.806-0.982,1.65-0.894,2.44L9.499,12.407z"/>
</g>
</svg>
