<?xml version="1.0" encoding="utf-8"?>
<!-- Generator: Adobe Illustrator 15.1.0, SVG Export Plug-In . SVG Version: 6.00 Build 0)  -->
<!DOCTYPE svg PUBLIC "-//W3C//DTD SVG 1.1//EN" "http://www.w3.org/Graphics/SVG/1.1/DTD/svg11.dtd">
<svg version="1.1" id="Layer_1" xmlns="http://www.w3.org/2000/svg" xmlns:xlink="http://www.w3.org/1999/xlink" x="0px" y="0px"
	 width="32px" height="32px" viewBox="0 0 32 32" enable-background="new 0 0 32 32" xml:space="preserve">
<path d="M16.293,1.548c-8.112,0-14.751,6.635-14.751,14.744c0,8.477,6.639,14.745,14.751,14.745c8.114,0,14.753-6.268,14.753-14.745
	C31.046,8.184,24.407,1.548,16.293,1.548z M15.756,27.073c-0.996,0-1.7-0.791-1.7-1.817c0-1.083,0.733-1.847,1.73-1.847
	c1.055,0,1.728,0.764,1.728,1.847C17.515,26.282,16.841,27.073,15.756,27.073z M18.599,16.055c-1.289,1.522-1.757,2.841-1.669,4.336
	l0.059,0.733h-2.315l-0.059-0.763c-0.176-1.553,0.352-3.312,1.817-5.069c1.318-1.554,2.049-2.697,2.049-4.016
	c0-1.495-0.937-2.491-2.783-2.52c-1.055,0-2.228,0.351-2.96,0.908l-0.703-1.846c0.996-0.704,2.638-1.173,4.191-1.173
	c3.371,0,4.893,2.081,4.893,4.309C21.119,12.947,20.006,14.384,18.599,16.055z"/>
</svg>
