<?xml version="1.0" encoding="utf-8"?>
<!-- Generator: Adobe Illustrator 15.1.0, SVG Export Plug-In . SVG Version: 6.00 Build 0)  -->
<!DOCTYPE svg PUBLIC "-//W3C//DTD SVG 1.1//EN" "http://www.w3.org/Graphics/SVG/1.1/DTD/svg11.dtd">
<svg version="1.1" id="Layer_1" xmlns="http://www.w3.org/2000/svg" xmlns:xlink="http://www.w3.org/1999/xlink" x="0px" y="0px"
	 width="32px" height="32px" viewBox="0 0 32 32" enable-background="new 0 0 32 32" xml:space="preserve">
<path d="M15.245,18.987c0.114,0.179,0.368,0.369,0.736,0.369c0.37,0,0.739,0,1.106-0.369c5.528-5.532,5.528-5.532,5.528-5.532
	c1.495-2.06-0.703-3.512-2.21-1.844c-2.797,3.096-2.949,2.951-2.949,2.951c0-11.436,0-11.436,0-11.436
	c0-0.737-0.369-1.487-1.476-1.476c-1.054,0.011-1.475,0.738-1.475,1.476c0,11.436,0,11.436,0,11.436
	c-2.948-2.951-2.948-2.951-2.948-2.951c-1.498-1.786-3.696,0.098-1.843,1.844L15.245,18.987z"/>
<path d="M29.251,12.349c-0.738,0-1.476,0.738-1.476,1.476c0,0.369,0,0.369,0,0.369l0,0c0,11.803,0,11.803,0,11.803
	c0,1.107-0.367,1.477-1.474,1.477c-20.639,0-20.639,0-20.639,0c-0.737,0-1.474-0.369-1.474-1.477c0-11.803,0-11.803,0-11.803l0,0
	c0-0.369,0-0.369,0-0.369c0-0.738-0.369-1.476-1.475-1.476c-0.737,0-1.474,0.738-1.474,1.476c0,0.369,0,0.369,0,0.369l0,0
	c0,11.803,0,11.803,0,11.803c0,2.582,2.211,4.427,4.422,4.427c20.639,0,20.639,0,20.639,0c2.58,0,4.423-1.845,4.423-4.427
	c0-7.746,0-7.746,0-7.746c0-4.057,0-4.057,0-4.057c0-0.369,0-0.369,0-0.369C30.725,13.086,30.355,12.349,29.251,12.349
	L29.251,12.349z"/>
</svg>
