<?xml version="1.0" encoding="utf-8"?>
<!-- Generator: Adobe Illustrator 15.1.0, SVG Export Plug-In . SVG Version: 6.00 Build 0)  -->
<!DOCTYPE svg PUBLIC "-//W3C//DTD SVG 1.1//EN" "http://www.w3.org/Graphics/SVG/1.1/DTD/svg11.dtd">
<svg version="1.1" id="Layer_1" xmlns="http://www.w3.org/2000/svg" xmlns:xlink="http://www.w3.org/1999/xlink" x="0px" y="0px"
	 width="32px" height="32px" viewBox="0 0 32 32" enable-background="new 0 0 32 32" xml:space="preserve">
<g>
	<g>
		<path d="M9.486,23.583v3.633h19.131V11.911h-6.219c-0.791,0-1.438-0.643-1.438-1.435V4.257H9.486V8.75L7.571,8.785V3.78
			c0-0.793,0.644-1.436,1.437-1.436H22.4c0.791,0,1.896,0.463,2.451,1.017l4.664,4.664c0.551,0.553,1.017,1.659,1.017,2.451v17.219
			c0,0.793-0.644,1.436-1.437,1.436H9.007c-0.793,0-1.437-0.643-1.437-1.436v-4.11L9.486,23.583z M19.468,13.823h4.847
			c0.271,0,0.479,0.21,0.479,0.478v0.958c0,0.269-0.208,0.479-0.479,0.479h-4.847c-0.269,0-0.479-0.21-0.479-0.479v-0.958
			C18.989,14.033,19.199,13.823,19.468,13.823z M24.79,18.127v0.959c0,0.27-0.208,0.479-0.478,0.479H18.05
			c-0.271,0-0.479-0.209-0.479-0.479v-0.959c0-0.268,0.209-0.477,0.479-0.477h6.265C24.582,17.65,24.79,17.859,24.79,18.127z
			 M24.79,21.956v0.954c0,0.271-0.208,0.48-0.478,0.48h-8.25c-0.271,0-0.479-0.209-0.479-0.48v-0.954
			c0-0.271,0.208-0.479,0.479-0.479h8.25C24.582,21.477,24.79,21.688,24.79,21.956z M22.879,9.998h5.619
			c-0.089-0.254-0.225-0.508-0.329-0.612l-4.679-4.68c-0.104-0.104-0.358-0.239-0.611-0.328V9.998z"/>
	</g>
</g>
<g>
	<path d="M11.175,22.141c-0.709,0-1.286-0.576-1.286-1.285V19.46H8.762c-4.357,0-6.982-1.258-8.026-3.845
		c-0.341-0.862-0.499-1.836-0.499-3.07c0-1.028,0.38-2.402,1.129-4.083l0.082-0.184C1.527,8.093,1.617,7.883,1.75,7.696
		c0.268-0.377,0.608-0.457,0.847-0.457c0.571,0,1.018,0.458,1.018,1.043c0,0.108-0.013,0.225-0.029,0.34L3.572,8.743
		C3.547,9.081,3.531,9.406,3.531,9.731c0,2.984,1.271,3.942,5.231,3.942h1.126v-1.395c0-0.71,0.577-1.288,1.286-1.288
		c0.346,0,0.67,0.137,0.914,0.387l4.283,4.283c0.244,0.242,0.38,0.564,0.38,0.907c0,0.334-0.132,0.653-0.373,0.898l-4.295,4.296
		C11.84,22.005,11.517,22.141,11.175,22.141z M2.085,10.748c-0.274,0.859-0.348,1.433-0.348,1.797c0,1.039,0.125,1.838,0.392,2.514
		c0.787,1.951,2.957,2.901,6.633,2.901h2.627v2.372l3.766-3.766l-3.767-3.768v2.374H8.762C5.531,15.173,2.522,14.609,2.085,10.748z"
		/>
</g>
</svg>
