<?xml version="1.0" encoding="utf-8"?>
<!-- Generator: Adobe Illustrator 15.1.0, SVG Export Plug-In . SVG Version: 6.00 Build 0)  -->
<!DOCTYPE svg PUBLIC "-//W3C//DTD SVG 1.1//EN" "http://www.w3.org/Graphics/SVG/1.1/DTD/svg11.dtd">
<svg version="1.1" id="Layer_1" xmlns="http://www.w3.org/2000/svg" xmlns:xlink="http://www.w3.org/1999/xlink" x="0px" y="0px"
	 width="20px" height="20px" viewBox="0 0 20 20" enable-background="new 0 0 20 20" xml:space="preserve">
<path d="M5.778,14.521v2.215h11.656V7.411h-3.787c-0.481,0-0.876-0.392-0.876-0.874v-3.79H5.778v2.737L4.611,5.506V2.457
	c0-0.482,0.392-0.874,0.876-0.874h8.161c0.48,0,1.154,0.281,1.493,0.619l2.841,2.842c0.337,0.336,0.619,1.011,0.619,1.494v10.493
	c0,0.482-0.393,0.873-0.875,0.873H5.488c-0.485,0-0.876-0.391-0.876-0.873v-2.506L5.778,14.521z"/>
<path d="M11.863,8.575h2.952c0.166,0,0.293,0.128,0.293,0.291V9.45c0,0.165-0.127,0.292-0.293,0.292h-2.952
	c-0.164,0-0.294-0.128-0.294-0.292V8.866C11.569,8.703,11.699,8.575,11.863,8.575z"/>
<path d="M15.104,11.197v0.584c0,0.164-0.128,0.291-0.292,0.291h-3.816c-0.164,0-0.291-0.127-0.291-0.291v-0.584
	c0-0.162,0.127-0.293,0.291-0.293h3.816C14.977,10.908,15.104,11.035,15.104,11.197z"/>
<path d="M15.104,13.533v0.58c0,0.164-0.128,0.293-0.292,0.293H9.785c-0.163,0-0.291-0.129-0.291-0.293v-0.58
	c0-0.166,0.128-0.295,0.291-0.295h5.028C14.977,13.238,15.104,13.367,15.104,13.533z"/>
<path d="M13.94,6.244h3.423c-0.054-0.153-0.137-0.309-0.199-0.372l-2.853-2.853c-0.063-0.063-0.217-0.146-0.371-0.198V6.244z"/>
<path fill="#020202" d="M9.749,10.249c0,0.086-0.037,0.166-0.098,0.229L7.038,13.09c-0.062,0.063-0.143,0.098-0.229,0.098
	c-0.177,0-0.325-0.148-0.325-0.326v-1.307H5.336c-1.672,0-3.754-0.297-4.465-2.059c-0.213-0.542-0.27-1.128-0.27-1.699
	c0-0.716,0.358-1.65,0.649-2.303c0.055-0.118,0.11-0.281,0.187-0.389C1.474,5.054,1.509,5.02,1.58,5.02
	c0.103,0,0.164,0.081,0.164,0.179c0,0.08-0.02,0.173-0.025,0.253c-0.015,0.211-0.025,0.419-0.025,0.63
	c0,2.435,1.444,2.858,3.644,2.858h1.144V7.633c0-0.18,0.148-0.329,0.325-0.329c0.088,0,0.168,0.037,0.231,0.098l2.612,2.614
	C9.711,10.079,9.749,10.161,9.749,10.249z"/>
</svg>
