<?xml version="1.0" encoding="utf-8"?>
<!-- Generator: Adobe Illustrator 15.1.0, SVG Export Plug-In . SVG Version: 6.00 Build 0)  -->
<!DOCTYPE svg PUBLIC "-//W3C//DTD SVG 1.1//EN" "http://www.w3.org/Graphics/SVG/1.1/DTD/svg11.dtd">
<svg version="1.1" id="Layer_1" xmlns="http://www.w3.org/2000/svg" xmlns:xlink="http://www.w3.org/1999/xlink" x="0px" y="0px"
	 width="20px" height="20px" viewBox="0 0 20 20" enable-background="new 0 0 20 20" xml:space="preserve">
<path d="M18.069,3.655v1.328c0,1.462-3.681,2.656-7.588,2.656c-3.905,0-7.588-1.192-7.588-2.656V3.655C2.894,2.191,6.578,1,10.481,1
	C14.389,0.999,18.069,2.191,18.069,3.655z M18.069,7.314v1.762c0,1.464-3.681,2.658-7.588,2.658c-3.905,0-7.588-1.193-7.588-2.658
	V7.314c1.519,1.203,4.816,1.763,7.588,1.763C13.255,9.076,16.55,8.518,18.069,7.314z M18.069,10.854v1.764
	c0,1.461-3.681,2.653-7.588,2.653c-3.905,0-7.588-1.194-7.588-2.653v-1.764c1.52,1.202,4.816,1.764,7.588,1.764
	C13.255,12.618,16.55,12.06,18.069,10.854z M18.069,14.583v1.762c0,1.464-3.681,2.656-7.588,2.656c-3.905,0-7.588-1.192-7.588-2.656
	v-1.762c1.52,1.201,4.816,1.762,7.588,1.762C13.255,16.345,16.55,15.786,18.069,14.583z"/>
</svg>
