<?xml version="1.0" encoding="utf-8"?>
<!-- Generator: Adobe Illustrator 15.1.0, SVG Export Plug-In . SVG Version: 6.00 Build 0)  -->
<!DOCTYPE svg PUBLIC "-//W3C//DTD SVG 1.1//EN" "http://www.w3.org/Graphics/SVG/1.1/DTD/svg11.dtd">
<svg version="1.1" id="Layer_1" xmlns="http://www.w3.org/2000/svg" xmlns:xlink="http://www.w3.org/1999/xlink" x="0px" y="0px"
	 width="32px" height="32px" viewBox="0 0 32 32" enable-background="new 0 0 32 32" xml:space="preserve">
<path d="M28.798,5.564v2.099c0,2.313-5.64,4.198-12.594,4.198c-6.952,0-12.593-1.884-12.593-4.198V5.564
	c0-2.311,5.641-4.197,12.593-4.197C23.158,1.367,28.798,3.253,28.798,5.564z M28.798,11.174v2.786c0,2.313-5.64,4.198-12.594,4.198
	c-6.952,0-12.593-1.884-12.593-4.198v-2.786c2.705,1.902,7.658,2.786,12.593,2.786C21.14,13.959,26.092,13.076,28.798,11.174z
	 M28.798,17.469v2.787c0,2.312-5.64,4.198-12.594,4.198c-6.952,0-12.593-1.887-12.593-4.198v-2.787
	c2.705,1.904,7.658,2.787,12.593,2.787C21.14,20.256,26.092,19.373,28.798,17.469z M28.798,23.766v2.786
	c0,2.313-5.64,4.198-12.594,4.198c-6.952,0-12.593-1.885-12.593-4.198v-2.786c2.705,1.902,7.658,2.786,12.593,2.786
	C21.14,26.552,26.092,25.668,28.798,23.766z"/>
</svg>
