<?xml version="1.0" encoding="utf-8"?>
<!-- Generator: Adobe Illustrator 15.1.0, SVG Export Plug-In . SVG Version: 6.00 Build 0)  -->
<!DOCTYPE svg PUBLIC "-//W3C//DTD SVG 1.1//EN" "http://www.w3.org/Graphics/SVG/1.1/DTD/svg11.dtd">
<svg version="1.1" id="Layer_1" xmlns="http://www.w3.org/2000/svg" xmlns:xlink="http://www.w3.org/1999/xlink" x="0px" y="0px"
	 width="24px" height="24px" viewBox="0 0 32 32" enable-background="new 0 0 32 32" xml:space="preserve">
<g>
	<path fill="#010101" d="M20.29,31.746l-0.203-0.043l-3.841-1.712l0.749-1.873l-1.891-0.756l0.744-1.862l-2.27-0.756l0.783-1.956
		l-2.006-1.002l-1.075-2.15c-2.229-0.125-4.194-1.584-5.427-4.047c-0.794-1.979-0.499-4.404,0.775-6.526l0.857,0.515
		c-1.113,1.856-1.383,3.95-0.721,5.602c1.097,2.189,2.863,3.465,4.829,3.465h0.309L13.1,21.04l2.532,1.266L14.9,24.131l2.27,0.756
		l-0.766,1.919l1.89,0.756l-0.763,1.908l2.864,1.276c0.058-0.001,0.119-0.003,0.17-0.007l0.013-0.047l1.064-2.83l-3.564-7.839
		h-0.264L17.291,19.5l0.707-0.707l0.23,0.23h0.494l4.002,8.802l-1.184,3.146C21.473,31.746,20.619,31.746,20.29,31.746z"/>
</g>
<g>
	<path fill="#010101" d="M2.899,7.054c0-0.755,0.379-1.89,1.136-2.645c0.755-1.134,1.89-1.89,3.401-1.89
		c2.646,0,4.537,2.267,4.537,4.535c0,0.756-0.377,1.512-0.377,1.89s0,0,0,0c0,0.378,0,0.755,0.377,1.133c0,0,0,0,0.379,0
		c0,0,0.377,0,0.377-0.378c0.378,0,0.378,0,0.378-0.377c0.377-0.378,0.377-1.134,0.377-2.268c0-3.4-2.646-6.046-6.049-6.046
		c-1.891,0-3.401,0.755-4.537,2.267C1.765,4.409,1.387,5.92,1.387,7.054c0,2.645,1.512,4.535,3.403,5.668c0-0.378,0-1.134,0-1.512
		C3.655,10.077,2.899,8.943,2.899,7.054L2.899,7.054z"/>
</g>
<g>
	<path fill="#010101" d="M25.843,24.684v-1l-0.286-1.391h-2.363v-1.891h-2.27v-1.826l-2.671,0.335l-1.835-1.468
		c-2.022,0.688-4.377,0.202-6.27-1.31c-1.336-0.953-2.238-2.561-2.454-4.395C7.485,9.958,7.931,8.143,8.919,6.761
		c0.496-0.506,0.955-0.964,1.541-0.964h0.5v0.5c0.16,0.14,0.378,0.358,0.378,0.755c0,0.542-0.159,0.926-0.275,1.207
		C11.012,8.38,10.96,8.506,10.96,8.564v0.495l-0.053,0.105c-0.271,0.541,0.051,1.079,0.284,1.312
		c0.232,0.231,0.907,0.231,1.161,0.231c0.206,0,0.843-0.295,1.157-0.609c0.109-0.111,0.232-0.307,0.232-0.402V9.578l0.053-0.105
		c0.326-0.649,0.326-1.316,0.326-2.421c0-0.717,0-1.394-0.326-2.043l-0.363-0.724h0.81c1.736,0,2.973,0.496,4.134,1.658
		c1.914,1.526,2.75,3.491,2.452,5.812l9.761,7.882l0.409,2.841c0.005,1.084-0.21,1.318-1.196,1.327L25.843,24.684z M24.193,21.293
		h2.146l0.116,0.402l0.35,1.75l2.94-0.641c0.086,0,0.179,0,0.255-0.002c0.002-0.076,0.002-0.168,0.002-0.254l-0.348-2.381
		l-9.904-7.999l0.048-0.288c0.35-2.093-0.334-3.792-2.089-5.195c-0.845-0.842-1.648-1.25-2.739-1.366
		c0.15,0.592,0.15,1.168,0.15,1.731c0,1.124,0,1.947-0.387,2.776c-0.06,0.498-0.437,0.898-0.518,0.979
		c-0.426,0.426-1.297,0.902-1.864,0.902c-0.436,0-1.342,0-1.867-0.524C9.942,10.641,9.583,9.716,9.96,8.832V8.611
		c0-0.303,0.091-0.523,0.179-0.735c0.098-0.236,0.199-0.48,0.199-0.824c-0.042-0.037-0.088-0.08-0.133-0.129
		c-0.171,0.128-0.373,0.33-0.525,0.482c-0.792,1.12-1.173,2.679-0.992,4.217c0.186,1.578,0.918,2.897,2.063,3.714
		c1.733,1.382,3.825,1.773,5.574,1.075l0.271-0.108l1.953,1.563l3.376-0.423v1.959h2.234l0.035,0.5V21.293z"/>
</g>
</svg>
