<?xml version="1.0" encoding="utf-8"?>
<!-- Generator: Adobe Illustrator 15.1.0, SVG Export Plug-In . SVG Version: 6.00 Build 0)  -->
<!DOCTYPE svg PUBLIC "-//W3C//DTD SVG 1.1//EN" "http://www.w3.org/Graphics/SVG/1.1/DTD/svg11.dtd">
<svg version="1.1" id="Layer_1" xmlns="http://www.w3.org/2000/svg" xmlns:xlink="http://www.w3.org/1999/xlink" x="0px" y="0px"
	 width="20px" height="20px" viewBox="0 0 20 20" enable-background="new 0 0 20 20" xml:space="preserve">
<g>
	<path fill="#010101" d="M11.518,12.535c-0.223-0.224-0.223-0.224-0.223-0.224c-0.677-0.678-0.677-0.678-0.677-0.678
		c-0.45,0.226-0.899,0.226-1.351,0.226c-0.901,0-2.025-0.226-2.703-0.9C5.665,10.285,4.99,9.16,4.99,8.036
		c-0.225-0.675,0-1.126,0-1.575c-0.674,1.125-0.901,2.474-0.449,3.598c0.675,1.35,1.8,2.252,3.151,2.252
		c0.674,1.35,0.674,1.35,0.674,1.35c1.35,0.676,1.35,0.676,1.35,0.676c-0.45,1.123-0.45,1.123-0.45,1.123
		c1.351,0.451,1.351,0.451,1.351,0.451c-0.449,1.125-0.449,1.125-0.449,1.125c1.125,0.449,1.125,0.449,1.125,0.449
		c-0.449,1.124-0.449,1.124-0.449,1.124l0,0c2.025,0.902,2.025,0.902,2.025,0.902c0.226,0,0.448,0,0.448-0.226
		c0.677-1.802,0.677-1.802,0.677-1.802c-2.251-4.95-2.251-4.95-2.251-4.95h-0.226V12.535z"/>
	<path fill="#010101" d="M2.514,5.112c0-0.45,0.225-1.127,0.676-1.576C3.64,2.859,4.315,2.41,5.215,2.41
		c1.576,0,2.703,1.35,2.703,2.702c0,0.449-0.224,0.899-0.224,1.125c0,0.225,0,0,0,0c0,0.225,0,0.45,0.224,0.675c0,0,0,0,0.225,0
		c0,0,0.226,0,0.226-0.225c0.225,0,0.225,0,0.225-0.225c0.224-0.227,0.224-0.675,0.224-1.35c0-2.025-1.574-3.601-3.602-3.601
		c-1.127,0-2.025,0.449-2.702,1.35C1.841,3.535,1.615,4.434,1.615,5.108c0,1.576,0.899,2.701,2.026,3.376c0-0.225,0-0.675,0-0.901
		C2.965,6.91,2.514,6.234,2.514,5.112L2.514,5.112z"/>
	<path fill="#010101" d="M18.724,12.761C12.87,8.034,12.87,8.034,12.87,8.034c0.227-1.349-0.228-2.475-1.354-3.375
		c-0.67-0.674-1.344-0.9-2.247-0.9C9.494,4.209,9.494,4.66,9.494,5.109c0,0.675,0,1.125-0.225,1.576
		c0,0.225-0.225,0.448-0.225,0.448c-0.226,0.225-0.675,0.45-0.901,0.45s-0.676,0-0.901-0.225c-0.225-0.226-0.45-0.674-0.225-1.125
		l0,0l0,0l0,0c0-0.224,0-0.224,0-0.224c0-0.226,0.225-0.451,0.225-0.901c0-0.225-0.225-0.225-0.225-0.45
		c-0.226,0-0.453,0.225-0.676,0.45C5.216,6.685,5.44,9.16,7.017,10.285c1.125,0.9,2.476,1.125,3.601,0.674
		c1.126,0.897,1.126,0.897,1.126,0.897c1.802-0.223,1.802-0.223,1.802-0.223c0,1.125,0,1.125,0,1.125c1.351,0,1.351,0,1.351,0
		c0,1.124,0,1.124,0,1.124c1.352,0,1.352,0,1.352,0c0.228,1.125,0.228,1.125,0.228,1.125c0,0.225,0,0.225,0,0.225
		c2.025-0.449,2.025-0.449,2.025-0.449c0.449,0,0.449,0,0.449-0.447L18.724,12.761z"/>
</g>
</svg>
