<?xml version="1.0" encoding="utf-8"?>
<!-- Generator: Adobe Illustrator 15.1.0, SVG Export Plug-In . SVG Version: 6.00 Build 0)  -->
<!DOCTYPE svg PUBLIC "-//W3C//DTD SVG 1.1//EN" "http://www.w3.org/Graphics/SVG/1.1/DTD/svg11.dtd">
<svg version="1.1" id="Layer_1" xmlns="http://www.w3.org/2000/svg" xmlns:xlink="http://www.w3.org/1999/xlink" x="0px" y="0px"
	 width="32px" height="32px" viewBox="0 0 32 32" enable-background="new 0 0 32 32" xml:space="preserve">
<path fill="#010101" d="M18.022,19.524c-0.377-0.378-0.377-0.378-0.377-0.378c-1.135-1.134-1.135-1.134-1.135-1.134
	c-0.755,0.377-1.512,0.377-2.27,0.377c-1.511,0-3.402-0.377-4.536-1.511c-1.512-1.133-2.647-3.023-2.647-4.912
	c-0.377-1.134,0-1.89,0-2.645c-1.133,1.889-1.513,4.156-0.756,6.045c1.134,2.267,3.025,3.78,5.293,3.78
	c1.134,2.268,1.134,2.268,1.134,2.268c2.269,1.134,2.269,1.134,2.269,1.134c-0.757,1.889-0.757,1.889-0.757,1.889
	c2.27,0.756,2.27,0.756,2.27,0.756c-0.755,1.889-0.755,1.889-0.755,1.889c1.89,0.756,1.89,0.756,1.89,0.756
	c-0.757,1.889-0.757,1.889-0.757,1.889l0,0c3.403,1.514,3.403,1.514,3.403,1.514c0.379,0,0.756,0,0.756-0.378
	c1.136-3.024,1.136-3.024,1.136-3.024C18.4,19.524,18.4,19.524,18.4,19.524H18.022z"/>
<path fill="#010101" d="M2.899,7.054c0-0.755,0.379-1.89,1.136-2.645c0.755-1.134,1.89-1.89,3.401-1.89
	c2.646,0,4.537,2.267,4.537,4.535c0,0.756-0.377,1.512-0.377,1.89c0,0.378,0,0,0,0c0,0.378,0,0.755,0.377,1.133c0,0,0,0,0.379,0
	c0,0,0.377,0,0.377-0.378c0.378,0,0.378,0,0.378-0.377c0.377-0.378,0.377-1.134,0.377-2.268c0-3.4-2.646-6.046-6.049-6.046
	c-1.891,0-3.401,0.755-4.537,2.267C1.765,4.409,1.387,5.92,1.387,7.054c0,2.645,1.512,4.535,3.403,5.668c0-0.378,0-1.134,0-1.512
	C3.655,10.077,2.899,8.943,2.899,7.054L2.899,7.054z"/>
<path fill="#010101" d="M30.121,19.902c-9.83-7.936-9.83-7.936-9.83-7.936c0.379-2.268-0.379-4.157-2.269-5.668
	c-1.134-1.134-2.267-1.512-3.781-1.512c0.379,0.756,0.379,1.512,0.379,2.268c0,1.133,0,1.89-0.379,2.645
	c0,0.378-0.378,0.755-0.378,0.755c-0.378,0.378-1.133,0.756-1.511,0.756c-0.379,0-1.135,0-1.514-0.378
	c-0.378-0.378-0.756-1.134-0.378-1.889l0,0l0,0l0,0c0-0.377,0-0.377,0-0.377c0-0.379,0.378-0.756,0.378-1.512
	c0-0.378-0.378-0.378-0.378-0.755c-0.378,0-0.756,0.377-1.134,0.755c-1.891,2.645-1.514,6.801,1.134,8.691
	c1.892,1.512,4.159,1.889,6.05,1.133c1.89,1.511,1.89,1.511,1.89,1.511c3.024-0.377,3.024-0.377,3.024-0.377c0,1.89,0,1.89,0,1.89
	c2.269,0,2.269,0,2.269,0c0,1.89,0,1.89,0,1.89c2.27,0,2.27,0,2.27,0c0.378,1.89,0.378,1.89,0.378,1.89c0,0.377,0,0.377,0,0.377
	c3.402-0.756,3.402-0.756,3.402-0.756c0.757,0,0.757,0,0.757-0.755L30.121,19.902z"/>
</svg>
