<?xml version="1.0" encoding="utf-8"?>
<!-- Generator: Adobe Illustrator 15.1.0, SVG Export Plug-In . SVG Version: 6.00 Build 0)  -->
<!DOCTYPE svg PUBLIC "-//W3C//DTD SVG 1.1//EN" "http://www.w3.org/Graphics/SVG/1.1/DTD/svg11.dtd">
<svg version="1.1" id="Layer_1" xmlns="http://www.w3.org/2000/svg" xmlns:xlink="http://www.w3.org/1999/xlink" x="0px" y="0px"
	 width="32px" height="32px" viewBox="0 0 32 32" style="enable-background:new 0 0 32 32;" xml:space="preserve">
<style type="text/css">
<![CDATA[
	.st0{fill:#010101;}
]]>
</style>
<path class="st0" d="M14.607,26.32c-8.008-4.6-8.008-4.6-8.008-4.6c0-9.549,0-9.549,0-9.549c8.008,4.6,8.008,4.6,8.008,4.6V26.32z"
	/>
<path class="st0" d="M25.405,21.721c-8.009,4.6-8.009,4.6-8.009,4.6c0-9.549,0-9.549,0-9.549c8.009-4.6,8.009-4.6,8.009-4.6V21.721z
	 M28.188,9.691c0-0.352,0-0.352,0-0.352l0,0c0-0.354-11.491-7.074-11.491-7.074c-0.348-0.355-1.044-0.355-1.395,0
	C4.508,8.633,3.813,9.34,3.813,9.34l0,0c0,0.352,0,0.352,0,0.352c0,12.74,0,12.74,0,12.74c0,0.352,0.348,1.061,0.695,1.061
	c10.795,6.369,10.795,6.369,10.795,6.369c0.381,0.156,1.201,0.213,1.395,0l0,0c10.793-6.369,10.793-6.369,10.793-6.369
	c0.344-0.254,0.698-0.709,0.698-1.061C28.188,9.691,28.188,9.691,28.188,9.691L28.188,9.691L28.188,9.691L28.188,9.691L28.188,9.691
	z M16.188,14.66c-6.79-3.988-6.79-3.988-6.79-3.988c-1.43-0.727-1.43-0.727-1.43-0.727c8.22-4.713,8.22-4.713,8.22-4.713
	c8.219,4.713,8.219,4.713,8.219,4.713L16.188,14.66z"/>
</svg>
