<?xml version="1.0" encoding="utf-8"?>
<!-- Generator: Adobe Illustrator 15.1.0, SVG Export Plug-In . SVG Version: 6.00 Build 0)  -->
<!DOCTYPE svg PUBLIC "-//W3C//DTD SVG 1.1//EN" "http://www.w3.org/Graphics/SVG/1.1/DTD/svg11.dtd">
<svg version="1.1" id="Layer_1" xmlns="http://www.w3.org/2000/svg" xmlns:xlink="http://www.w3.org/1999/xlink" x="0px" y="0px"
	 width="24px" height="24px" viewBox="0 0 32 32" enable-background="new 0 0 32 32" xml:space="preserve">
<path fill="#010101" d="M14.522,26.498c-8.008-4.6-8.008-4.6-8.008-4.6c0-9.548,0-9.548,0-9.548
	c8.008,4.599,8.008,4.599,8.008,4.599V26.498z"/>
<path fill="#010101" d="M25.318,21.898c-8.008,4.6-8.008,4.6-8.008,4.6c0-9.549,0-9.549,0-9.549
	c8.008-4.599,8.008-4.599,8.008-4.599V21.898z M28.104,9.87c0-0.352,0-0.352,0-0.352l0,0c0-0.354-11.492-7.075-11.492-7.075
	c-0.347-0.355-1.043-0.355-1.394,0C4.422,8.811,3.727,9.518,3.727,9.518l0,0c0,0.352,0,0.352,0,0.352c0,12.739,0,12.739,0,12.739
	c0,0.353,0.348,1.062,0.695,1.062c10.795,6.369,10.795,6.369,10.795,6.369c0.381,0.155,1.201,0.213,1.395,0l0,0
	c10.793-6.369,10.793-6.369,10.793-6.369c0.344-0.254,0.697-0.709,0.697-1.062C28.104,9.87,28.104,9.87,28.104,9.87L28.104,9.87
	L28.104,9.87L28.104,9.87L28.104,9.87z M16.103,14.838c-6.79-3.988-6.79-3.988-6.79-3.988c-1.43-0.727-1.43-0.727-1.43-0.727
	c8.219-4.713,8.219-4.713,8.219-4.713c8.218,4.713,8.218,4.713,8.218,4.713L16.103,14.838z"/>
</svg>
