<?xml version="1.0" encoding="utf-8"?>
<!-- Generator: Adobe Illustrator 15.1.0, SVG Export Plug-In . SVG Version: 6.00 Build 0)  -->
<!DOCTYPE svg PUBLIC "-//W3C//DTD SVG 1.1//EN" "http://www.w3.org/Graphics/SVG/1.1/DTD/svg11.dtd">
<svg version="1.1" id="Layer_1" xmlns="http://www.w3.org/2000/svg" xmlns:xlink="http://www.w3.org/1999/xlink" x="0px" y="0px"
	 width="20px" height="20px" viewBox="0 0 20 20" enable-background="new 0 0 20 20" xml:space="preserve">
<path d="M10.594,16.637h7.223V7.174h-3.846c-0.487,0-0.887-0.397-0.887-0.887V2.442H5.987v1.026L4.803,3.489V2.147
	c0-0.49,0.398-0.888,0.889-0.888h8.281c0.488,0,1.172,0.287,1.515,0.629l2.884,2.884C18.713,5.114,19,5.797,19,6.288v10.646
	c0,0.49-0.397,0.889-0.889,0.889H10.64"/>
<path d="M13.035,8.883h2.997c0.167,0,0.296,0.129,0.296,0.295V9.77c0,0.166-0.129,0.296-0.296,0.296h-2.997
	c-0.166,0-0.296-0.13-0.296-0.296V9.178C12.739,9.012,12.869,8.883,13.035,8.883z"/>
<path d="M16.326,11.541v0.594c0,0.168-0.129,0.297-0.295,0.297h-3.872c-0.168,0-0.297-0.129-0.297-0.297v-0.594
	c0-0.164,0.129-0.295,0.297-0.295h3.873C16.197,11.246,16.326,11.377,16.326,11.541z"/>
<path d="M16.326,13.91v0.59c0,0.168-0.129,0.297-0.295,0.297H10.93c-0.168,0-0.295-0.129-0.295-0.297v-0.59
	c0-0.168,0.127-0.297,0.295-0.297h5.102C16.197,13.613,16.326,13.744,16.326,13.91z"/>
<path d="M14.269,5.991h3.475c-0.055-0.156-0.139-0.313-0.202-0.377L14.647,2.72c-0.065-0.064-0.222-0.148-0.379-0.203V5.991z"/>
<path d="M9.402,9.815l0.844-0.824c0.114-0.111,0.158-0.273,0.12-0.428c-0.042-0.152-0.165-0.275-0.317-0.313L8.902,7.958
	l0.324-1.135c0.042-0.152,0-0.318-0.116-0.428C9,6.278,8.836,6.236,8.683,6.278L7.547,6.602L7.254,5.454
	C7.219,5.302,7.096,5.18,6.942,5.142c-0.159-0.043-0.317,0-0.427,0.117L5.691,6.107L4.867,5.259C4.758,5.142,4.594,5.099,4.44,5.142
	C4.288,5.179,4.166,5.301,4.128,5.454L3.835,6.602L2.699,6.278c-0.152-0.042-0.318,0-0.428,0.117
	C2.156,6.504,2.113,6.67,2.156,6.823l0.323,1.135L1.332,8.25c-0.152,0.037-0.275,0.16-0.317,0.313
	C0.978,8.716,1.021,8.879,1.136,8.991l0.842,0.824l-0.843,0.824c-0.116,0.109-0.159,0.273-0.122,0.426
	c0.042,0.154,0.165,0.277,0.317,0.313l1.148,0.293l-0.323,1.137c-0.043,0.15,0,0.316,0.115,0.428
	c0.11,0.115,0.275,0.158,0.428,0.115l1.125-0.021l-1.931,4.906c0,0.203,0.12,0.389,0.308,0.465c0.06,0.029,0.124,0.041,0.187,0.041
	c0.133,0,0.256-0.053,0.355-0.146l2.965-3.438l3.11,3.26c0.099,0.096,0.222,0.146,0.354,0.146c0.063,0,0.127-0.01,0.188-0.037
	c0.188-0.076,0.307-0.264,0.307-0.465l-1.908-4.727l0.925,0.016c0.153,0.043,0.317,0,0.428-0.115
	c0.116-0.111,0.158-0.277,0.116-0.428L8.902,11.67l1.146-0.295c0.153-0.033,0.275-0.156,0.317-0.311
	c0.038-0.152-0.006-0.316-0.12-0.426L9.402,9.815z"/>
</svg>
