<?xml version="1.0" encoding="utf-8"?>
<!-- Generator: Adobe Illustrator 15.1.0, SVG Export Plug-In . SVG Version: 6.00 Build 0)  -->
<!DOCTYPE svg PUBLIC "-//W3C//DTD SVG 1.1//EN" "http://www.w3.org/Graphics/SVG/1.1/DTD/svg11.dtd">
<svg version="1.1" id="Layer_1" xmlns="http://www.w3.org/2000/svg" xmlns:xlink="http://www.w3.org/1999/xlink" x="0px" y="0px"
	 width="20px" height="20px" viewBox="0 0 20 20" enable-background="new 0 0 20 20" xml:space="preserve">
<g>
	<path fill="#020202" d="M0.795,14.123L0.793,13.23c0-0.068,0.05-0.135,0.119-0.146l0.737-0.111
		c0.039-0.131,0.097-0.266,0.166-0.396c-0.138-0.19-0.288-0.367-0.424-0.556c-0.02-0.026-0.033-0.055-0.033-0.094
		c0-0.029,0.007-0.063,0.027-0.086c0.171-0.24,0.454-0.49,0.667-0.688c0.027-0.021,0.065-0.036,0.101-0.036
		c0.036,0,0.071,0.008,0.097,0.032l0.574,0.438c0.116-0.064,0.237-0.113,0.36-0.152l0.114-0.74c0.007-0.07,0.07-0.123,0.144-0.123
		h0.895c0.072,0,0.128,0.051,0.145,0.113c0.065,0.24,0.087,0.504,0.118,0.75c0.125,0.039,0.25,0.092,0.368,0.152l0.558-0.433
		c0.03-0.022,0.068-0.04,0.103-0.04c0.138,0,0.682,0.59,0.779,0.725c0.02,0.026,0.035,0.055,0.035,0.09
		c0,0.037-0.013,0.069-0.038,0.099c-0.148,0.183-0.296,0.362-0.432,0.557c0.065,0.123,0.117,0.241,0.158,0.373l0.751,0.113
		c0.06,0.011,0.109,0.081,0.109,0.146v0.896c0,0.063-0.049,0.13-0.119,0.142l-0.737,0.11c-0.039,0.137-0.097,0.272-0.166,0.399
		c0.136,0.19,0.287,0.366,0.423,0.558c0.02,0.026,0.031,0.054,0.031,0.089c0,0.031-0.005,0.064-0.026,0.093
		c-0.17,0.234-0.453,0.484-0.666,0.677c-0.027,0.028-0.063,0.045-0.103,0.045c-0.033,0-0.071-0.014-0.099-0.035l-0.566-0.435
		c-0.118,0.062-0.238,0.11-0.363,0.149l-0.113,0.742c-0.009,0.068-0.073,0.121-0.145,0.121H3.445c-0.071,0-0.13-0.047-0.145-0.112
		c-0.063-0.241-0.089-0.505-0.117-0.751c-0.126-0.039-0.249-0.09-0.368-0.153l-0.557,0.438c-0.033,0.02-0.071,0.035-0.105,0.035
		c-0.136,0-0.683-0.593-0.778-0.725c-0.024-0.027-0.037-0.053-0.037-0.093c0-0.035,0.017-0.07,0.04-0.099
		c0.151-0.184,0.296-0.36,0.432-0.558c-0.064-0.119-0.113-0.239-0.156-0.369L0.909,14.27C0.843,14.258,0.795,14.184,0.795,14.123
		L0.795,14.123z M2.859,13.669c0,0.571,0.464,1.034,1.034,1.034c0.571,0,1.034-0.462,1.034-1.034c0-0.569-0.463-1.036-1.034-1.036
		C3.325,12.633,2.859,13.1,2.859,13.669z"/>
	<path fill="#020202" d="M5.047,16.713l-0.07,0.451c0.459,0.296,1.035,0.459,1.699,0.459h9.282c1.688,0,2.835-1.029,2.835-2.751
		c0-2.397-0.563-6.083-3.672-6.083c-0.329,0-1.72,1.476-3.802,1.476c-2.084,0-3.474-1.476-3.803-1.476
		c-1.154,0-1.955,0.509-2.511,1.271c0.019,0.134,0.031,0.272,0.047,0.401c0.175,0.061,0.351,0.135,0.514,0.219l0.776-0.604
		c0.045-0.031,0.096-0.055,0.148-0.055c0.192,0,0.954,0.825,1.088,1.01c0.029,0.04,0.053,0.08,0.053,0.131
		c0,0.05-0.023,0.095-0.06,0.135c-0.208,0.254-0.411,0.506-0.604,0.778c0.09,0.169,0.166,0.337,0.221,0.519l1.049,0.157
		c0.083,0.015,0.152,0.118,0.152,0.203v1.253c0,0.096-0.07,0.188-0.164,0.202l-1.034,0.151c-0.057,0.193-0.135,0.379-0.234,0.561
		c0.193,0.264,0.403,0.514,0.593,0.773c0.028,0.039,0.045,0.078,0.045,0.131c0,0.046-0.01,0.092-0.037,0.133
		c-0.239,0.326-0.633,0.674-0.932,0.945c-0.04,0.039-0.09,0.063-0.14,0.063c-0.05,0-0.101-0.021-0.139-0.051L5.551,16.51
		C5.389,16.594,5.22,16.66,5.047,16.713z"/>
	<circle fill="#020202" cx="11.316" cy="5.395" r="4.078"/>
</g>
</svg>
