<?xml version="1.0" encoding="utf-8"?>
<!-- Generator: Adobe Illustrator 15.1.0, SVG Export Plug-In . SVG Version: 6.00 Build 0)  -->
<!DOCTYPE svg PUBLIC "-//W3C//DTD SVG 1.1//EN" "http://www.w3.org/Graphics/SVG/1.1/DTD/svg11.dtd">
<svg version="1.1" id="Layer_1" xmlns="http://www.w3.org/2000/svg" xmlns:xlink="http://www.w3.org/1999/xlink" x="0px" y="0px"
	 width="24px" height="24px" viewBox="0 0 32 32" enable-background="new 0 0 32 32" xml:space="preserve">
<g>
	<g>
		<path fill="#020202" d="M0.57,24.59l-0.003-1.492c0-0.115,0.08-0.226,0.193-0.246l1.231-0.188
			c0.065-0.221,0.162-0.441,0.276-0.658c-0.229-0.32-0.479-0.611-0.709-0.924c-0.031-0.046-0.053-0.094-0.053-0.156
			c0-0.051,0.014-0.109,0.047-0.146c0.281-0.396,0.754-0.813,1.109-1.146c0.047-0.038,0.105-0.063,0.168-0.063
			c0.061,0,0.121,0.021,0.162,0.06l0.957,0.728c0.195-0.104,0.396-0.188,0.604-0.252l0.189-1.236
			c0.014-0.115,0.121-0.203,0.242-0.203h1.494c0.119,0,0.215,0.081,0.242,0.188c0.106,0.403,0.146,0.842,0.194,1.252
			c0.207,0.068,0.418,0.155,0.611,0.259l0.93-0.724c0.054-0.039,0.113-0.063,0.175-0.063c0.23,0,1.139,0.979,1.299,1.201
			c0.035,0.046,0.061,0.094,0.061,0.152c0,0.063-0.025,0.117-0.064,0.161c-0.248,0.306-0.492,0.608-0.721,0.931
			c0.107,0.203,0.196,0.401,0.264,0.621l1.252,0.188c0.103,0.018,0.183,0.139,0.183,0.241v1.493c0,0.111-0.08,0.222-0.195,0.24
			l-1.231,0.186c-0.064,0.229-0.162,0.449-0.275,0.665c0.229,0.319,0.479,0.612,0.707,0.925c0.034,0.045,0.055,0.091,0.055,0.15
			c0,0.054-0.014,0.105-0.049,0.153c-0.281,0.392-0.752,0.81-1.107,1.132c-0.049,0.047-0.107,0.072-0.17,0.072
			c-0.061,0-0.121-0.021-0.168-0.061l-0.947-0.721c-0.196,0.103-0.397,0.185-0.606,0.248l-0.188,1.235
			c-0.012,0.115-0.121,0.204-0.241,0.204H4.993c-0.121,0-0.216-0.081-0.242-0.188c-0.105-0.404-0.148-0.843-0.195-1.252
			C4.347,27.491,4.14,27.404,3.944,27.3l-0.929,0.729c-0.057,0.033-0.114,0.061-0.176,0.061c-0.229,0-1.139-0.986-1.299-1.204
			c-0.041-0.048-0.063-0.091-0.063-0.153c0-0.062,0.026-0.118,0.065-0.168c0.252-0.304,0.493-0.601,0.722-0.93
			c-0.108-0.193-0.188-0.396-0.263-0.613l-1.243-0.188C0.651,24.813,0.57,24.691,0.57,24.59L0.57,24.59z M4.015,23.83
			c0,0.953,0.775,1.725,1.725,1.725c0.951,0,1.723-0.771,1.723-1.725c0-0.95-0.773-1.727-1.723-1.727
			C4.79,22.104,4.015,22.881,4.015,23.83z"/>
	</g>
	<g>
		<path fill="#020202" d="M26.139,30.645H10.661c-1.187,0-2.231-0.286-3.104-0.851l-0.411-0.267l0.469-0.759l0.18-0.056
			c0.199-0.06,0.383-0.054,0.52-0.025l0.131-0.068l1.891,0.198c0.442-0.399,0.985-0.891,1.332-1.339
			c-0.159-0.233-0.261-0.458-0.352-0.659c-0.092-0.203-0.171-0.38-0.302-0.559l-0.184-0.253l0.147-0.276
			c0.117-0.22,0.263-0.325,0.394-0.38l0.017-0.044l0.172-0.141l1.456-0.828v-1.873l-2.182-0.586l-0.082-0.262
			c-0.018-0.058-0.042-0.134-0.051-0.218l-0.143-0.268l0.179-0.252c0.13-0.184,0.262-0.41,0.397-0.641
			c0.179-0.306,0.364-0.621,0.562-0.879c-0.304-0.376-1.061-1.16-1.38-1.377L8.86,19.152l-0.284-0.148
			c-0.249-0.13-0.517-0.242-0.775-0.324l-0.312-0.099l-0.034-0.326c-0.023-0.215-0.051-0.439-0.079-0.662l-0.025-0.197l0.117-0.16
			c1.122-1.542,2.667-2.324,4.593-2.324c0.307,0,0.61,0.202,1.16,0.567c1.064,0.708,2.846,1.893,5.18,1.893s4.116-1.185,5.181-1.893
			c0.551-0.366,0.854-0.567,1.161-0.567c4.212,0,6.627,3.88,6.627,10.646C31.369,28.647,29.316,30.645,26.139,30.645z
			 M10.914,29.645h15.225c2.609,0,4.23-1.566,4.23-4.088c0-3.603-0.731-9.646-5.627-9.646c-0.04,0.023-0.354,0.232-0.607,0.4
			c-1.083,0.72-3.099,2.06-5.734,2.06c-2.636,0-4.651-1.34-5.734-2.06c-0.252-0.168-0.566-0.377-0.664-0.406
			c-1.488,0.006-2.688,0.582-3.609,1.763c0.007,0.056,0.014,0.111,0.021,0.167c0.111,0.043,0.223,0.09,0.333,0.14L9.8,17.159
			c0.182-0.136,0.365-0.201,0.55-0.201c0.716,0,2.206,1.879,2.22,1.897c0.037,0.048,0.18,0.234,0.18,0.506
			c0,0.2-0.076,0.393-0.219,0.557c-0.165,0.2-0.352,0.52-0.533,0.828c-0.071,0.12-0.142,0.24-0.211,0.354l1.606,0.433
			c0.334,0.063,0.624,0.428,0.624,0.822v2.088c0,0.37-0.243,0.7-0.581,0.808l-1.237,0.703c-0.033,0.057-0.071,0.106-0.114,0.149
			c0.054,0.105,0.1,0.208,0.144,0.304c0.092,0.203,0.171,0.379,0.3,0.554c0.116,0.161,0.171,0.327,0.171,0.512
			c0,0.189-0.055,0.365-0.158,0.509c-0.405,0.559-1.034,1.126-1.54,1.582l-0.084,0.077C10.916,29.642,10.915,29.644,10.914,29.645z"
			/>
	</g>
	<g>
		<path fill="#020202" d="M18.402,15.63c-4.026,0-7.301-3.275-7.301-7.301s3.275-7.301,7.301-7.301c4.025,0,7.301,3.275,7.301,7.301
			S22.428,15.63,18.402,15.63z M18.402,2.028c-3.475,0-6.301,2.827-6.301,6.301c0,3.474,2.827,6.301,6.301,6.301
			s6.301-2.827,6.301-6.301C24.703,4.854,21.877,2.028,18.402,2.028z"/>
	</g>
</g>
</svg>
