<?xml version="1.0" encoding="utf-8"?>
<!-- Generator: Adobe Illustrator 15.1.0, SVG Export Plug-In . SVG Version: 6.00 Build 0)  -->
<!DOCTYPE svg PUBLIC "-//W3C//DTD SVG 1.1//EN" "http://www.w3.org/Graphics/SVG/1.1/DTD/svg11.dtd">
<svg version="1.1" id="Layer_1" xmlns="http://www.w3.org/2000/svg" xmlns:xlink="http://www.w3.org/1999/xlink" x="0px" y="0px"
	 width="32px" height="32px" viewBox="0 0 32 32" enable-background="new 0 0 32 32" xml:space="preserve">
<g>
</g>
<path fill="#010101" d="M29.332,28.245c-25.273,0-25.273,0-25.273,0c0-25.26,0-25.26,0-25.26c0-0.743-0.372-1.486-1.487-1.486
	c-0.743,0-1.487,0.743-1.487,1.486c0,26.744,0,26.744,0,26.744c0,0.743,0.744,1.486,1.487,1.486c26.76,0,26.76,0,26.76,0
	c1.115,0,1.487-0.743,1.487-1.486S30.447,28.245,29.332,28.245L29.332,28.245z"/>
<path fill="#010101" d="M16.495,18.668c-1.486,0.371-1.486,0.371-1.486,0.371c-1.086,0.383-1.486,0.743-1.115,1.486
	c0,0.371,4.459,5.2,4.459,5.2c0.745,1.114,1.86,0.743,2.231-0.372c1.858-5.943,1.858-6.686,1.858-6.686
	c0-0.743-0.646-0.98-1.488-0.743c-1.856,0.371-1.856,0.371-1.856,0.371c-1.488-4.458-5.947-7.8-10.779-7.8c0,2.971,0,2.971,0,2.971
	C11.664,13.466,15.008,15.696,16.495,18.668L16.495,18.668z"/>
</svg>
