<?xml version="1.0" encoding="utf-8"?>
<!-- Generator: Adobe Illustrator 15.1.0, SVG Export Plug-In . SVG Version: 6.00 Build 0)  -->
<!DOCTYPE svg PUBLIC "-//W3C//DTD SVG 1.1//EN" "http://www.w3.org/Graphics/SVG/1.1/DTD/svg11.dtd">
<svg version="1.1" id="Layer_1" xmlns="http://www.w3.org/2000/svg" xmlns:xlink="http://www.w3.org/1999/xlink" x="0px" y="0px"
	 width="24px" height="24px" viewBox="0 0 32 32" enable-background="new 0 0 32 32" xml:space="preserve">
<g>
	<path fill="#010101" d="M16.495,18.668c-1.486,0.371-1.486,0.371-1.486,0.371c-1.086,0.383-1.486,0.743-1.115,1.486
		c0,0.371,4.459,5.199,4.459,5.199c0.744,1.112,1.857,0.741,2.229-0.371c1.855-5.943,1.855-6.688,1.855-6.688
		c0-0.743-0.646-0.979-1.485-0.743c-1.854,0.371-1.854,0.371-1.854,0.371c-1.488-4.458-5.949-7.8-10.781-7.8
		c0,2.971,0,2.971,0,2.971C11.664,13.466,15.008,15.696,16.495,18.668L16.495,18.668z"/>
</g>
<g>
	<path d="M30.063,30.656H2.905c-0.414,0-0.75-0.336-0.75-0.75V1.499c0-0.414,0.336-0.75,0.75-0.75s0.75,0.336,0.75,0.75v27.657
		h26.408c0.414,0,0.75,0.336,0.75,0.75S30.477,30.656,30.063,30.656z"/>
</g>
</svg>
