<?xml version="1.0" encoding="utf-8"?>
<!-- Generator: Adobe Illustrator 15.1.0, SVG Export Plug-In . SVG Version: 6.00 Build 0)  -->
<!DOCTYPE svg PUBLIC "-//W3C//DTD SVG 1.1//EN" "http://www.w3.org/Graphics/SVG/1.1/DTD/svg11.dtd">
<svg version="1.1" id="Layer_1" xmlns="http://www.w3.org/2000/svg" xmlns:xlink="http://www.w3.org/1999/xlink" x="0px" y="0px"
	 width="24px" height="24px" viewBox="0 0 32 32" enable-background="new 0 0 32 32" xml:space="preserve">
<path fill="#010101" d="M22.895,7.734c4.578,0,4.578,0,4.578,0c0.381,0,0.764-0.379,0.764-0.757c0-5.684,0-5.684,0-5.684
	c0-0.379-0.383-0.758-0.764-0.758c-5.723,0-5.723,0-5.723,0c-0.383,0-0.764,0.379-0.764,0.758c0,4.546,0,4.546,0,4.546
	C6.104,20.614,6.104,20.614,6.104,20.614c-4.199,0-4.199,0-4.199,0c-0.763,0-0.763,0.379-0.763,0.76c0,5.304,0,5.304,0,5.304
	c0,0.756,0,1.135,0.763,1.135c5.343,0,5.343,0,5.343,0c0.382,0,0.763-0.379,0.763-1.135c0-4.169,0-4.169,0-4.169L22.895,7.734z
	 M27.092,1.672c0,4.925,0,4.925,0,4.925c-4.959,0-4.959,0-4.959,0l0,0c0-4.925,0-4.925,0-4.925H27.092z M2.125,26.688
	c0-4.926,0-4.926,0-4.926c4.962,0,4.742-0.01,4.742-0.01l0,0c0,4.926,0,4.926,0,4.926L2.125,26.688z"/>
<path fill="#020202" d="M28.611,30.799c-0.375,0-0.375,0-0.752-0.367c-4.139-4.055-4.139-4.055-4.139-4.055
	c-2.637,2.58-2.637,2.58-2.637,2.58s-0.709,0.645-1.127-0.369c-3.391-11.424-3.391-11.424-3.391-11.424
	c-0.363-0.828,0.127-1.032,0.756-0.737c11.662,3.317,11.662,3.317,11.662,3.317c0.564,0.189,0.813,0.617,0.375,1.104
	c-2.633,2.579-2.633,2.579-2.633,2.579c4.139,4.054,4.139,4.054,4.139,4.054c0.377,0.369,0.377,0.737,0,1.106
	C28.988,30.432,28.611,30.799,28.611,30.799L28.611,30.799z"/>
</svg>
