<?xml version="1.0" encoding="utf-8"?>
<!-- Generator: Adobe Illustrator 15.1.0, SVG Export Plug-In . SVG Version: 6.00 Build 0)  -->
<!DOCTYPE svg PUBLIC "-//W3C//DTD SVG 1.1//EN" "http://www.w3.org/Graphics/SVG/1.1/DTD/svg11.dtd">
<svg version="1.1" id="Layer_1" xmlns="http://www.w3.org/2000/svg" xmlns:xlink="http://www.w3.org/1999/xlink" x="0px" y="0px"
	 width="32px" height="32px" viewBox="0 0 32 32" enable-background="new 0 0 32 32" xml:space="preserve">
<g>
</g>
<g>
</g>
<path fill="#010101" d="M25.464,9.75c0,3.022,0,3.022,0,3.022h1.134l4.158-3.778c0-0.377,0-0.756,0-1.133
	c-4.158-3.779-4.158-3.779-4.158-3.779h-1.134v3.023c-19.284,0-19.284,0-19.284,0c0-3.023,0-3.023,0-3.023H5.045L1.264,7.861v1.133
	l3.781,4.157c0.378,0,0.756,0,1.135,0c0-3.401,0-3.401,0-3.401H25.464z"/>
<path fill="#010101" d="M1.458,26.175c0-5.893,0-5.893,0-5.893c4.053,0,4.053,0,4.053,0c0,2.21,0,2.21,0,2.21
	c0,1.104,0.737,1.474,1.843,1.474s1.843-0.369,1.843-1.474c0-2.21,0-2.21,0-2.21c2.211,0,2.211,0,2.211,0c0,2.21,0,2.21,0,2.21
	c0,1.104,0.736,1.474,1.842,1.474c1.105,0,1.842-0.369,1.842-1.474c0-2.21,0-2.21,0-2.21c2.21,0,2.21,0,2.21,0c0,2.21,0,2.21,0,2.21
	c0,1.104,0.738,1.474,1.843,1.474c1.105,0,1.843-0.369,1.843-1.474c0-2.21,0-2.21,0-2.21c2.211,0,2.211,0,2.211,0
	c0,2.21,0,2.21,0,2.21c0,1.104,0.737,1.474,1.842,1.474c1.105,0,1.844-0.369,1.844-1.474c0-2.21,0-2.21,0-2.21
	c4.053,0,4.053,0,4.053,0c0,5.893,0,5.893,0,5.893H1.458z"/>
</svg>
