<?xml version="1.0" encoding="utf-8"?>
<!-- Generator: Adobe Illustrator 15.1.0, SVG Export Plug-In . SVG Version: 6.00 Build 0)  -->
<!DOCTYPE svg PUBLIC "-//W3C//DTD SVG 1.1//EN" "http://www.w3.org/Graphics/SVG/1.1/DTD/svg11.dtd">
<svg version="1.1" id="Layer_1" xmlns="http://www.w3.org/2000/svg" xmlns:xlink="http://www.w3.org/1999/xlink" x="0px" y="0px"
	 width="32px" height="32px" viewBox="0 0 32 32" enable-background="new 0 0 32 32" xml:space="preserve">
<path fill="#010101" d="M18.704,15.375c0,3.021,0,3.021,0,3.021h1.134l4.158-3.777c0-0.377,0-0.756,0-1.133
	c-4.158-3.779-4.158-3.779-4.158-3.779h-1.134v3.023c-5.454-0.042-5.962,0-5.962,0c0-3.023,0-3.023,0-3.023h-1.135l-3.781,3.779
	v1.133l3.781,4.156c0.379,0,0.756,0,1.135,0c0-3.4,0-3.4,0-3.4H18.704z"/>
<path fill="#010101" d="M29.626,3.793c0.76-1.491,1.521-1.491,1.521,0.373c0,10.432,0,10.432,0,10.432
	c0,2.236-0.761,5.216-1.521,7.082c-3.044,6.336-3.044,6.336-3.044,6.336c-1.143,1.862-1.521,1.862-1.521-0.373
	c0-10.435,0-10.435,0-10.435c0-1.863,0.381-4.844,1.521-6.708L29.626,3.793z"/>
<path fill="#010101" d="M2.239,3.793C1.279,2.32,0.718,2.302,0.718,4.166c0,10.432,0,10.432,0,10.432
	c0,2.236,0.76,5.216,1.521,7.082c3.043,6.336,3.043,6.336,3.043,6.336c0.761,1.862,1.521,1.862,1.521-0.373
	c0-10.435,0-10.435,0-10.435c0-1.863-0.761-4.844-1.521-6.708L2.239,3.793z"/>
</svg>
