<?xml version="1.0" encoding="utf-8"?>
<!-- Generator: Adobe Illustrator 15.1.0, SVG Export Plug-In . SVG Version: 6.00 Build 0)  -->
<!DOCTYPE svg PUBLIC "-//W3C//DTD SVG 1.1//EN" "http://www.w3.org/Graphics/SVG/1.1/DTD/svg11.dtd">
<svg version="1.1" id="Layer_1" xmlns="http://www.w3.org/2000/svg" xmlns:xlink="http://www.w3.org/1999/xlink" x="0px" y="0px"
	 width="20px" height="20px" viewBox="0 0 20 20" enable-background="new 0 0 20 20" xml:space="preserve">
<path fill="#010101" d="M14.717,5.647c2.463,0,3.123,0,3.123,0c0.203,0,0.41-0.203,0.41-0.406c0-3.058,0-3.833,0-3.833
	C18.25,1.206,18.043,1,17.84,1c-3.078,0-4.066,0-4.066,0c-0.207,0-0.41,0.204-0.41,0.409c0,2.445,0,2.891,0,2.891
	c-8.006,7.948-8.335,8.276-8.335,8.276c-2.26,0-3.332,0-3.332,0c-0.41,0-0.41,0.203-0.41,0.408c0,2.854,0,3.514,0,3.514
	c0,0.406,0,0.607,0.41,0.607c2.875,0,4.276,0,4.276,0c0.205,0,0.411-0.201,0.411-0.607c0-2.242,0-2.572,0-2.572L14.717,5.647z
	 M17.303,1.94c0,2.65,0,2.766,0,2.766c-2.666,0-2.996,0-2.996,0l0,0c0-2.649,0-2.766,0-2.766H17.303z M2.145,16.174
	c0-2.65,0-2.65,0-2.65c2.668,0,3.293-0.006,3.293-0.006l0,0c0,2.65,0,2.65,0,2.65L2.145,16.174z"/>
<path fill="#010101" d="M17.309,19c-0.207,0-0.207,0-0.414-0.203c-2.287-2.24-2.287-2.24-2.287-2.24
	c-1.457,1.426-1.457,1.426-1.457,1.426s-0.393,0.355-0.623-0.203c-1.869-6.314-1.869-6.314-1.869-6.314
	c-0.203-0.457,0.069-0.568,0.414-0.405c6.443,1.831,6.443,1.831,6.443,1.831c0.313,0.105,0.449,0.342,0.209,0.611
	c-1.455,1.426-1.455,1.426-1.455,1.426c2.287,2.238,2.287,2.238,2.287,2.238c0.209,0.205,0.209,0.41,0,0.611
	C17.518,18.797,17.309,19,17.309,19L17.309,19z"/>
</svg>
