<?xml version="1.0" encoding="utf-8"?>
<!-- Generator: Adobe Illustrator 15.1.0, SVG Export Plug-In . SVG Version: 6.00 Build 0)  -->
<!DOCTYPE svg PUBLIC "-//W3C//DTD SVG 1.1//EN" "http://www.w3.org/Graphics/SVG/1.1/DTD/svg11.dtd">
<svg version="1.1" id="Layer_1" xmlns="http://www.w3.org/2000/svg" xmlns:xlink="http://www.w3.org/1999/xlink" x="0px" y="0px"
	 width="20px" height="20px" viewBox="0 0 20 20" enable-background="new 0 0 20 20" xml:space="preserve">
<path fill="#010101" d="M15.082,7.594c0,1.605,0,1.922,0,1.922h0.604l3.217-2.323c0-0.201,0-0.723,0-0.92
	c-2.207-2.006-3.217-2.324-3.217-2.324h-0.604v1.923c-10.234,0-10.234,0-10.234,0c0-1.604,0-1.923,0-1.923H4.244L0.999,6.273v0.92
	l3.245,2.524c0.201,0,0.401,0,0.604,0c0-1.804,0-2.124,0-2.124L15.082,7.594L15.082,7.594z"/>
<path fill="#010101" d="M1.103,17.586c0-3.127,0-3.768,0-3.768c2.151,0,3.391,0,3.391,0c0,1.174,0,1.174,0,1.174
	c0,0.588,0.392,0.783,0.978,0.783c0.586,0,0.977-0.195,0.977-0.783c0-1.174,0-1.174,0-1.174c1.173,0,1.173,0,1.173,0
	c0,1.174,0,1.174,0,1.174c0,0.588,0.392,0.783,0.978,0.783s0.978-0.195,0.978-0.783c0-1.174,0-1.174,0-1.174
	c1.172,0,1.172,0,1.172,0c0,1.174,0,1.174,0,1.174c0,0.588,0.393,0.783,0.979,0.783s0.979-0.195,0.979-0.783
	c0-1.174,0-1.174,0-1.174c1.174,0,1.174,0,1.174,0c0,1.174,0,1.174,0,1.174c0,0.588,0.391,0.783,0.977,0.783
	s0.979-0.195,0.979-0.783c0-1.174,0-1.174,0-1.174c2.15,0,3.164,0,3.164,0c0,3.129,0,3.768,0,3.768H1.103z"/>
</svg>
