<?xml version="1.0" encoding="utf-8"?>
<!-- Generator: Adobe Illustrator 15.1.0, SVG Export Plug-In . SVG Version: 6.00 Build 0)  -->
<!DOCTYPE svg PUBLIC "-//W3C//DTD SVG 1.1//EN" "http://www.w3.org/Graphics/SVG/1.1/DTD/svg11.dtd">
<svg version="1.1" id="Layer_1" xmlns="http://www.w3.org/2000/svg" xmlns:xlink="http://www.w3.org/1999/xlink" x="0px" y="0px"
	 width="20px" height="20px" viewBox="0 0 20 20" enable-background="new 0 0 20 20" xml:space="preserve">
<path fill="#010101" d="M11.401,9.85c0,1.564,0,1.564,0,1.564h0.586l2.154-1.956c0-0.196,0-0.392,0-0.586
	c-2.154-1.957-2.154-1.957-2.154-1.957h-0.586V8.48c-2.821-0.022-3.724,0-3.724,0c0-1.565,0-1.565,0-1.565H7.091L5.133,8.872v0.586
	l1.958,2.15c0.195,0,0.391,0,0.586,0c0-1.759,0-1.759,0-1.759L11.401,9.85L11.401,9.85z"/>
<path fill="#010101" d="M17.938,3.854c0.393-0.772,0.787-0.772,0.787,0.193c0,5.4,0,5.4,0,5.4c0,1.158-0.396,2.699-0.787,3.666
	c-1.576,3.277-1.576,3.277-1.576,3.277c-0.588,0.965-0.785,0.965-0.785-0.191c0-5.4,0-5.4,0-5.4c0-0.964,0.197-2.509,0.785-3.472
	L17.938,3.854z"/>
<path fill="#010101" d="M1.513,3.854C1.015,3.091,0.725,3.082,0.725,4.047c0,5.4,0,5.4,0,5.4c0,1.158,0.394,2.699,0.788,3.666
	c1.574,3.277,1.574,3.277,1.574,3.277c0.395,0.965,0.788,0.965,0.788-0.191c0-5.4,0-5.4,0-5.4c0-0.964-0.394-2.509-0.788-3.472
	L1.513,3.854z"/>
</svg>
