<?xml version="1.0" encoding="utf-8"?>
<!-- Generator: Adobe Illustrator 15.1.0, SVG Export Plug-In . SVG Version: 6.00 Build 0)  -->
<!DOCTYPE svg PUBLIC "-//W3C//DTD SVG 1.1//EN" "http://www.w3.org/Graphics/SVG/1.1/DTD/svg11.dtd">
<svg version="1.1" id="Layer_1" xmlns="http://www.w3.org/2000/svg" xmlns:xlink="http://www.w3.org/1999/xlink" x="0px" y="0px"
	 width="32px" height="32px" viewBox="0 0 32 32" enable-background="new 0 0 32 32" xml:space="preserve">
<g>
	<g>
		<path d="M27.779,29.047l-0.144-0.009c-0.568-0.076-1.023-0.161-1.438-0.268c-1.576-0.405-3.032-1.056-4.334-1.937
			c-3.84,0.618-7.586-0.153-10.36-1.977l-2.382-1.565l2.844,0.19c0.489,0.032,0.914,0.062,1.325,0.062
			c3.188,0,6.212-0.915,8.513-2.577c2.408-1.76,3.736-4.131,3.736-6.672c0-0.72-0.109-1.446-0.325-2.157l-0.535-1.763l1.614,0.888
			c2.972,1.635,4.746,4.264,4.746,7.031c0.001,2.531-1.427,4.888-3.942,6.55c0.335,0.62,0.717,1.035,1.114,1.468l0.313,0.344
			c0.255,0.294,0.615,0.709,0.485,1.338C28.868,28.619,28.364,29.047,27.779,29.047z M22.217,25.25l0.257,0.183
			c1.217,0.864,2.595,1.499,4.096,1.885c0.201,0.052,0.416,0.098,0.655,0.141l-0.117-0.131c-0.549-0.598-1.172-1.274-1.668-2.484
			l-0.247-0.604l0.564-0.328c2.404-1.396,3.783-3.443,3.782-5.616c0-1.776-0.906-3.452-2.533-4.762
			c0.021,0.254,0.033,0.509,0.033,0.763c0,3.032-1.546,5.833-4.354,7.886c-2.087,1.507-4.689,2.46-7.478,2.761
			c2.042,0.631,4.338,0.786,6.7,0.364L22.217,25.25z M4.336,24.191H4.239c-0.608,0-1.128-0.45-1.238-1.071
			c-0.129-0.603,0.229-1.016,0.422-1.238l0.376-0.417c0.4-0.435,0.782-0.849,1.119-1.472c-2.516-1.661-3.943-4.019-3.943-6.552
			c0-4.825,5.271-8.75,11.75-8.75s11.75,3.925,11.75,8.75c0,5.451-6.757,9.759-14.324,8.541c-1.302,0.881-2.758,1.531-4.334,1.937
			c-0.415,0.106-0.883,0.193-1.431,0.267L4.336,24.191z M12.724,6.191c-5.652,0-10.25,3.252-10.25,7.25
			c0,2.175,1.378,4.222,3.782,5.618l0.565,0.328l-0.247,0.604c-0.497,1.215-1.122,1.892-1.672,2.49l-0.113,0.124
			c0.238-0.043,0.455-0.089,0.655-0.141c1.502-0.386,2.88-1.02,4.096-1.885l0.256-0.183l0.31,0.056
			c6.761,1.206,12.869-2.412,12.869-7.012C22.975,9.443,18.376,6.191,12.724,6.191z"/>
	</g>
</g>
</svg>
