<?xml version="1.0" encoding="utf-8"?>
<!-- Generator: Adobe Illustrator 15.1.0, SVG Export Plug-In . SVG Version: 6.00 Build 0)  -->
<!DOCTYPE svg PUBLIC "-//W3C//DTD SVG 1.1//EN" "http://www.w3.org/Graphics/SVG/1.1/DTD/svg11.dtd">
<svg version="1.1" id="Layer_1" xmlns="http://www.w3.org/2000/svg" xmlns:xlink="http://www.w3.org/1999/xlink" x="0px" y="0px"
	 width="20px" height="20px" viewBox="0 0 20 20" enable-background="new 0 0 20 20" xml:space="preserve">
<g>
	<path d="M8.156,13.268c-0.62,0-1.22-0.061-1.789-0.162c-0.844,0.602-1.799,1.037-2.826,1.303c-0.274,0.068-0.569,0.121-0.874,0.16
		c-0.01,0-0.021,0-0.031,0c-0.152,0-0.294-0.119-0.325-0.293c-0.041-0.193,0.092-0.314,0.203-0.447
		c0.397-0.447,0.844-0.844,1.19-1.688c-1.647-0.957-2.705-2.43-2.705-4.078c0-2.877,3.203-5.205,7.157-5.205
		c3.954,0,7.157,2.328,7.157,5.205C15.313,10.939,12.109,13.268,8.156,13.268z M16.295,14.711c0.348,0.844,0.795,1.24,1.189,1.686
		c0.111,0.135,0.244,0.256,0.203,0.449c-0.039,0.184-0.191,0.314-0.354,0.293c-0.307-0.039-0.602-0.09-0.875-0.162
		c-1.027-0.264-1.982-0.701-2.826-1.301c-0.568,0.102-1.17,0.162-1.791,0.162c-1.837,0-3.526-0.508-4.796-1.342
		c0.295,0.021,0.6,0.041,0.895,0.041c2.186,0,4.25-0.631,5.826-1.77c1.697-1.24,2.633-2.917,2.633-4.737
		c0-0.529-0.082-1.048-0.234-1.546C17.883,7.43,19,8.936,19,10.633C19,12.291,17.941,13.754,16.295,14.711z"/>
</g>
</svg>
