<?xml version="1.0" encoding="utf-8"?>
<!-- Generator: Adobe Illustrator 15.1.0, SVG Export Plug-In . SVG Version: 6.00 Build 0)  -->
<!DOCTYPE svg PUBLIC "-//W3C//DTD SVG 1.1//EN" "http://www.w3.org/Graphics/SVG/1.1/DTD/svg11.dtd">
<svg version="1.1" id="Layer_1" xmlns="http://www.w3.org/2000/svg" xmlns:xlink="http://www.w3.org/1999/xlink" x="0px" y="0px"
	 width="20px" height="20px" viewBox="0 0 20 20" enable-background="new 0 0 20 20" xml:space="preserve">
<g>
	<path fill="#020202" d="M6.027,6.931l0.628-0.628c0.253-0.252,0.677-0.252,0.931,0l1.039,1.039c0.251,0.253,0.251,0.675,0,0.93
		l-0.63,0.626L7.559,9.336l-4.24,4.236L1,13.924l0.351-2.322l4.238-4.236L6.027,6.931z"/>
	<path fill="#020202" d="M0.64,14.284l0.427-2.826l5.375-5.369C6.8,5.731,7.438,5.732,7.799,6.088l1.04,1.04
		c0.37,0.373,0.371,0.98,0.002,1.355l-5.379,5.372L0.64,14.284z M1.634,11.745l-0.275,1.818l1.816-0.274l5.237-5.231
		C8.546,7.922,8.546,7.69,8.411,7.555L7.373,6.516c-0.13-0.129-0.374-0.129-0.505,0L1.634,11.745z"/>
</g>
<g>
	<path stroke="#000000" stroke-width="0.6708" stroke-miterlimit="10" d="M7.94,15.467"/>
</g>
<g>
	<path d="M17.365,17.634H7.236"/>
	<path d="M17.365,18.087H7.236c-0.25,0-0.453-0.203-0.453-0.453s0.203-0.453,0.453-0.453h10.129c0.25,0,0.453,0.203,0.453,0.453
		S17.615,18.087,17.365,18.087z"/>
</g>
<g>
	<path d="M19,14.291c0,0.807-0.658,1.467-1.466,1.467H7.063c-0.809,0-1.466-0.66-1.466-1.467l0,0c0-0.809,0.657-1.467,1.466-1.467
		h10.475C18.342,12.83,19,13.486,19,14.291L19,14.291z"/>
	<path d="M17.534,16.211H7.063c-1.058,0-1.918-0.861-1.918-1.92s0.86-1.92,1.918-1.92h10.475c1.058,0.008,1.916,0.869,1.916,1.92
		C19.453,15.35,18.592,16.211,17.534,16.211z M17.534,13.277H7.063c-0.559,0-1.013,0.454-1.013,1.014s0.455,1.014,1.013,1.014
		h10.472c0.559,0,1.013-0.454,1.013-1.014C18.547,13.736,18.093,13.281,17.534,13.277z"/>
</g>
<g>
	<path d="M11.233,12.212c0,0-0.026-0.962-0.201-2.839c-0.176-1.879-1.53-2.842-1.619-5.154c-0.087-2.318,2.545-2.605,2.831-2.605
		s2.918,0.288,2.828,2.605c-0.084,2.316-1.436,3.275-1.611,5.154c-0.178,1.877-0.201,2.839-0.201,2.839H11.233z"/>
	<path d="M13.26,12.665h-2.467l-0.012-0.44c-0.001-0.01-0.029-0.974-0.2-2.81c-0.072-0.777-0.379-1.403-0.704-2.065
		C9.472,6.522,9.013,5.585,8.961,4.236c-0.03-0.799,0.214-1.473,0.725-2.003c0.988-1.026,2.543-1.072,2.559-1.072
		s1.57,0.046,2.559,1.073c0.51,0.53,0.753,1.204,0.722,2.002c-0.049,1.353-0.508,2.291-0.912,3.118
		c-0.323,0.66-0.628,1.284-0.7,2.06c-0.174,1.836-0.199,2.799-0.199,2.808l-0.012,0.442H13.26z M11.667,11.759h1.158
		c0.023-0.457,0.075-1.267,0.185-2.429c0.089-0.941,0.444-1.669,0.789-2.374c0.4-0.819,0.779-1.593,0.821-2.754
		c0.021-0.55-0.132-0.987-0.469-1.338c-0.629-0.656-1.719-0.797-1.907-0.798c-0.188,0-1.278,0.142-1.908,0.797
		c-0.337,0.351-0.491,0.789-0.47,1.338c0.044,1.157,0.423,1.931,0.824,2.75c0.347,0.706,0.704,1.436,0.793,2.379
		C11.591,10.493,11.643,11.303,11.667,11.759z"/>
</g>
<g>
	
		<rect x="3.818" y="8.558" transform="matrix(0.7063 0.7079 -0.7079 0.7063 8.7404 0.2077)" fill="#FFFFFF" width="0.604" height="4.158"/>
</g>
<g>
	
		<rect x="6.186" y="7.553" transform="matrix(0.7069 0.7073 -0.7073 0.7069 7.5906 -2.61)" fill="#FFFFFF" width="1.518" height="0.604"/>
</g>
</svg>
