<?xml version="1.0" encoding="utf-8"?>
<!-- Generator: Adobe Illustrator 15.1.0, SVG Export Plug-In . SVG Version: 6.00 Build 0)  -->
<!DOCTYPE svg PUBLIC "-//W3C//DTD SVG 1.1//EN" "http://www.w3.org/Graphics/SVG/1.1/DTD/svg11.dtd">
<svg version="1.1" id="Layer_1" xmlns="http://www.w3.org/2000/svg" xmlns:xlink="http://www.w3.org/1999/xlink" x="0px" y="0px"
	 width="32px" height="32px" viewBox="0 0 32 32" enable-background="new 0 0 32 32" xml:space="preserve">
<g>
	<path fill="#020202" d="M0.589,23.07l0.673-4.438l8.37-8.371c0.569-0.569,1.586-0.571,2.155,0.002l1.612,1.611
		c0.286,0.287,0.443,0.67,0.442,1.081c-0.001,0.409-0.158,0.79-0.443,1.072l-8.368,8.37L0.589,23.07z M2.202,19.106l-0.42,2.772
		l2.774-0.421l8.137-8.139c0.096-0.096,0.149-0.226,0.149-0.366c0-0.143-0.053-0.275-0.149-0.372l-1.613-1.612
		c-0.193-0.195-0.547-0.192-0.739,0L2.202,19.106z"/>
</g>
<g>
	<path fill="none" stroke="#000000" stroke-width="1.5" stroke-miterlimit="10" d="M11.984,24.869"/>
</g>
<g>
	<path d="M26.645,28.99H10.886c-0.414,0-0.75-0.336-0.75-0.75s0.336-0.75,0.75-0.75h15.759c0.414,0,0.75,0.336,0.75,0.75
		S27.059,28.99,26.645,28.99z"/>
</g>
<g>
	<path d="M26.91,26.07H10.616c-1.67,0-3.028-1.359-3.028-3.031c0-1.669,1.358-3.027,3.028-3.027H26.91
		c1.67,0.008,3.025,1.366,3.025,3.027C29.936,24.711,28.578,26.07,26.91,26.07z M26.906,21.512h-16.29
		c-0.843,0-1.528,0.686-1.528,1.527c0,0.845,0.686,1.531,1.528,1.531H26.91c0.841,0,1.525-0.687,1.525-1.531
		C28.436,22.201,27.75,21.516,26.906,21.512z"/>
</g>
<g>
	<path d="M20.257,20.559h-3.883l-0.022-0.728c0-0.015-0.048-1.514-0.31-4.373c-0.112-1.2-0.587-2.169-1.09-3.195
		c-0.632-1.29-1.349-2.751-1.431-4.86c-0.047-1.255,0.336-2.313,1.139-3.148c1.553-1.612,3.992-1.685,4.016-1.685
		c0.023,0,2.459,0.072,4.009,1.682c0.805,0.834,1.188,1.894,1.141,3.149c-0.079,2.114-0.794,3.577-1.425,4.867
		c-0.501,1.024-0.974,1.991-1.086,3.191c-0.266,2.856-0.309,4.354-0.309,4.369l-0.021,0.729H20.257z M17.818,19.059h1.721
		c0.038-0.719,0.118-1.965,0.282-3.738c0.139-1.474,0.694-2.611,1.232-3.71c0.62-1.27,1.206-2.468,1.274-4.265
		c0.031-0.841-0.203-1.51-0.717-2.046c-0.962-1.006-2.644-1.227-2.935-1.229c-0.292,0.002-1.978,0.224-2.942,1.232
		c-0.513,0.536-0.746,1.204-0.714,2.043c0.07,1.791,0.657,2.989,1.279,4.258c0.54,1.102,1.098,2.241,1.237,3.716
		C17.698,17.095,17.779,18.341,17.818,19.059z"/>
</g>
<g>
	<rect x="5.541" y="14.123" transform="matrix(0.7071 0.7071 -0.7071 0.7071 14.0428 0.8122)" width="1" height="6.469"/>
</g>
<g>
	<rect x="9.254" y="12.529" transform="matrix(0.7068 0.7074 -0.7074 0.7068 12.2767 -3.5621)" width="2.364" height="1"/>
</g>
</svg>
