<?xml version="1.0" encoding="utf-8"?>
<!-- Generator: Adobe Illustrator 15.1.0, SVG Export Plug-In . SVG Version: 6.00 Build 0)  -->
<!DOCTYPE svg PUBLIC "-//W3C//DTD SVG 1.1//EN" "http://www.w3.org/Graphics/SVG/1.1/DTD/svg11.dtd">
<svg version="1.1" id="Layer_1" xmlns="http://www.w3.org/2000/svg" xmlns:xlink="http://www.w3.org/1999/xlink" x="0px" y="0px"
	 width="22px" height="22px" viewBox="0 0 22 22" enable-background="new 0 0 22 22" xml:space="preserve">
<g>
	<path fill="#39974A" d="M8.019,18.689c-0.447,0-0.839,0.217-1.09,0.547l-2.896-1.641c0.101-0.191,0.162-0.404,0.162-0.636
		c0-0.211-0.052-0.41-0.138-0.59l2.903-1.646c0.251,0.308,0.629,0.508,1.058,0.508c0.759,0,1.372-0.614,1.372-1.373
		c0-0.758-0.615-1.371-1.372-1.371c-0.758,0-1.372,0.613-1.372,1.371c0,0.07,0.01,0.14,0.021,0.205L3.58,15.816
		c-0.216-0.145-0.476-0.229-0.756-0.229c-0.758,0-1.372,0.613-1.372,1.373c0,0.756,0.614,1.371,1.372,1.371
		c0.259,0,0.499-0.076,0.706-0.201l3.134,1.775c-0.006,0.053-0.016,0.102-0.016,0.152c0,0.756,0.613,1.373,1.371,1.373
		c0.76,0,1.372-0.617,1.372-1.373C9.391,19.301,8.778,18.689,8.019,18.689z M8.019,13.111c0.414,0,0.75,0.336,0.75,0.75
		c0,0.416-0.335,0.75-0.75,0.75c-0.414,0-0.75-0.334-0.75-0.75C7.268,13.447,7.604,13.111,8.019,13.111z M2.823,17.713
		c-0.414,0-0.75-0.338-0.75-0.752s0.335-0.75,0.75-0.75c0.415,0,0.75,0.336,0.75,0.75S3.238,17.713,2.823,17.713z M8.019,20.813
		c-0.414,0-0.75-0.336-0.75-0.75c0-0.416,0.336-0.75,0.75-0.75s0.75,0.334,0.75,0.75C8.769,20.477,8.433,20.813,8.019,20.813z"/>
	<path fill="#39974A" d="M8.019,21.682c-0.894,0-1.621-0.729-1.621-1.623c0-0.005,0-0.011,0-0.016l-2.871-1.626
		c-0.222,0.108-0.462,0.165-0.703,0.165c-0.895,0-1.622-0.728-1.622-1.621c0-0.895,0.728-1.623,1.622-1.623
		c0.268,0,0.527,0.065,0.759,0.189l2.815-1.598c-0.001-0.023-0.002-0.047-0.002-0.07c0-0.894,0.728-1.621,1.622-1.621
		s1.622,0.728,1.622,1.621c0,0.895-0.728,1.623-1.622,1.623c-0.414,0-0.807-0.159-1.106-0.443L4.37,16.48
		c0.05,0.157,0.075,0.317,0.075,0.479c0,0.18-0.031,0.357-0.092,0.529l2.522,1.429c0.304-0.307,0.71-0.479,1.144-0.479
		c0.895,0,1.622,0.727,1.622,1.619C9.641,20.953,8.914,21.682,8.019,21.682z M3.525,17.841l3.405,1.929l-0.018,0.164
		c-0.011,0.08-0.015,0.103-0.015,0.125c0,0.619,0.503,1.123,1.121,1.123c0.619,0,1.122-0.504,1.122-1.123
		c0-0.617-0.503-1.119-1.122-1.119c-0.35,0-0.674,0.163-0.891,0.448l-0.132,0.174l-3.297-1.868l0.113-0.214
		c0.088-0.168,0.133-0.343,0.133-0.52c0-0.163-0.038-0.325-0.113-0.482l-0.101-0.21l3.29-1.864l0.133,0.163
		c0.215,0.265,0.531,0.416,0.864,0.416c0.619,0,1.122-0.504,1.122-1.123c0-0.618-0.503-1.121-1.122-1.121s-1.122,0.503-1.122,1.121
		c0,0.057,0.009,0.112,0.018,0.165l0.028,0.172L3.569,16.11l-0.128-0.086c-0.182-0.122-0.395-0.187-0.617-0.187
		c-0.619,0-1.122,0.504-1.122,1.123c0,0.618,0.503,1.121,1.122,1.121c0.198,0,0.398-0.057,0.576-0.165L3.525,17.841z M8.019,21.063
		c-0.551,0-1-0.448-1-1s0.449-1,1-1s1,0.448,1,1S8.57,21.063,8.019,21.063z M8.019,19.563c-0.276,0-0.5,0.225-0.5,0.5
		s0.224,0.5,0.5,0.5s0.5-0.225,0.5-0.5S8.295,19.563,8.019,19.563z M2.823,17.963c-0.551,0-1-0.449-1-1.002c0-0.552,0.449-1,1-1
		s1,0.448,1,1C3.823,17.514,3.375,17.963,2.823,17.963z M2.823,16.461c-0.276,0-0.5,0.225-0.5,0.5c0,0.276,0.224,0.502,0.5,0.502
		s0.5-0.226,0.5-0.502C3.323,16.686,3.099,16.461,2.823,16.461z M8.019,14.861c-0.551,0-1-0.448-1-1
		c0-0.267,0.103-0.518,0.292-0.706c0.189-0.189,0.44-0.294,0.708-0.294c0.551,0,1,0.448,1,1S8.57,14.861,8.019,14.861z
		 M8.019,13.361c-0.134,0-0.26,0.052-0.354,0.146s-0.146,0.22-0.146,0.353c0,0.276,0.224,0.501,0.5,0.501s0.5-0.225,0.5-0.5
		S8.295,13.361,8.019,13.361z"/>
</g>
<g>
	<path fill="#39974A" d="M17.168,20.568h-7.105v-1.5h7.105c0.392,0,0.943-0.065,1.397-0.369c0.105-0.133,0.516-0.703,0.706-1.828
		c0.093-0.551-0.08-3.315-1.268-4.721c-0.468-0.554-1.029-0.823-1.715-0.823c-0.955,0.78-2.193,1.544-3.98,1.544
		c-1.79,0-3.026-0.764-3.999-1.511c-1.028-0.032-1.774,0.459-2.295,1.472L4.68,12.145c0.781-1.516,2.044-2.317,3.652-2.317
		c0.427,0,0.713,0.194,0.915,0.363c1.087,0.833,1.981,1.181,3.062,1.181c1.079,0,1.975-0.348,3.089-1.202
		c0.157-0.134,0.454-0.342,0.892-0.342c1.122,0,2.111,0.469,2.86,1.355c1.628,1.926,1.722,5.225,1.601,5.939
		c-0.303,1.791-1.07,2.591-1.157,2.677l-0.084,0.071C18.884,20.326,18.074,20.568,17.168,20.568z"/>
</g>
<g>
	<path fill="#39974A" d="M12.311,10.714c-2.766,0-5.016-2.25-5.016-5.016c0-2.765,2.25-5.015,5.016-5.015
		c2.767,0,5.018,2.25,5.018,5.015C17.328,8.464,15.077,10.714,12.311,10.714z M12.311,2.183c-1.938,0-3.516,1.577-3.516,3.515
		s1.577,3.516,3.516,3.516c1.939,0,3.518-1.577,3.518-3.516S14.25,2.183,12.311,2.183z"/>
</g>
</svg>
