<?xml version="1.0" encoding="utf-8"?>
<!-- Generator: Adobe Illustrator 15.1.0, SVG Export Plug-In . SVG Version: 6.00 Build 0)  -->
<!DOCTYPE svg PUBLIC "-//W3C//DTD SVG 1.1//EN" "http://www.w3.org/Graphics/SVG/1.1/DTD/svg11.dtd">
<svg version="1.1" id="Layer_1" xmlns="http://www.w3.org/2000/svg" xmlns:xlink="http://www.w3.org/1999/xlink" x="0px" y="0px"
	 width="32px" height="32px" viewBox="0 0 32 32" enable-background="new 0 0 32 32" xml:space="preserve">
<path d="M27.04,7.618c-22.183,0-22.183,0-22.183,0c-1.073,0-2.146-1.073-2.146-2.146c0-1.072,1.073-2.146,2.146-2.146
	c22.183,0,22.183,0,22.183,0c1.432,0,2.146,1.073,2.146,2.146C29.187,6.545,28.472,7.618,27.04,7.618L27.04,7.618z"/>
<path d="M22.031,17.986c-17.174,0-17.174,0-17.174,0c-1.073,0-2.146-0.714-2.146-2.145c0-1.073,1.073-2.145,2.146-2.145
	c17.174,0,17.174,0,17.174,0c1.074,0,2.146,1.072,2.146,2.145C24.177,17.272,23.105,17.986,22.031,17.986L22.031,17.986z"/>
<path d="M27.04,28.715c-22.183,0-22.183,0-22.183,0c-1.073,0-2.146-1.072-2.146-2.146c0-1.432,1.073-2.146,2.146-2.146
	c22.183,0,22.183,0,22.183,0c1.432,0,2.146,0.715,2.146,2.146C29.187,27.643,28.472,28.715,27.04,28.715L27.04,28.715z"/>
</svg>
