<?xml version="1.0" encoding="utf-8"?>
<!-- Generator: Adobe Illustrator 15.1.0, SVG Export Plug-In . SVG Version: 6.00 Build 0)  -->
<!DOCTYPE svg PUBLIC "-//W3C//DTD SVG 1.1//EN" "http://www.w3.org/Graphics/SVG/1.1/DTD/svg11.dtd">
<svg version="1.1" id="Layer_1" xmlns="http://www.w3.org/2000/svg" xmlns:xlink="http://www.w3.org/1999/xlink" x="0px" y="0px"
	 width="20px" height="20px" viewBox="0 0 20 20" enable-background="new 0 0 20 20" xml:space="preserve">
<g>
	<path d="M18,5.133H2c-0.474,0-0.857-0.383-0.857-0.857S1.526,3.419,2,3.419h16c0.474,0,0.857,0.383,0.857,0.857
		S18.474,5.133,18,5.133z"/>
</g>
<g>
	<path d="M18,10.243H2c-0.474,0-0.857-0.383-0.857-0.857S1.526,8.529,2,8.529h16c0.474,0,0.857,0.383,0.857,0.857
		S18.474,10.243,18,10.243z"/>
</g>
<g>
	<path d="M18,15.354H2c-0.474,0-0.857-0.384-0.857-0.857S1.526,13.639,2,13.639h16c0.474,0,0.857,0.384,0.857,0.857
		S18.474,15.354,18,15.354z"/>
</g>
</svg>
