<?xml version="1.0" encoding="utf-8"?>
<!-- Generator: Adobe Illustrator 15.1.0, SVG Export Plug-In . SVG Version: 6.00 Build 0)  -->
<!DOCTYPE svg PUBLIC "-//W3C//DTD SVG 1.1//EN" "http://www.w3.org/Graphics/SVG/1.1/DTD/svg11.dtd">
<svg version="1.1" id="Layer_1" xmlns="http://www.w3.org/2000/svg" xmlns:xlink="http://www.w3.org/1999/xlink" x="0px" y="0px"
	 width="32px" height="32px" viewBox="0 0 32 32" enable-background="new 0 0 32 32" xml:space="preserve">
<g>
	<path d="M30.104,9.395H2.664c-0.414,0-0.75-0.336-0.75-0.75s0.336-0.75,0.75-0.75h27.439c0.414,0,0.75,0.336,0.75,0.75
		S30.518,9.395,30.104,9.395z"/>
</g>
<g>
	<path d="M30.104,17.046H2.664c-0.414,0-0.75-0.336-0.75-0.75s0.336-0.75,0.75-0.75h27.439c0.414,0,0.75,0.336,0.75,0.75
		S30.518,17.046,30.104,17.046z"/>
</g>
<g>
	<path d="M30.104,24.698H2.664c-0.414,0-0.75-0.336-0.75-0.75s0.336-0.75,0.75-0.75h27.439c0.414,0,0.75,0.336,0.75,0.75
		S30.518,24.698,30.104,24.698z"/>
</g>
</svg>
