<?xml version="1.0" encoding="utf-8"?>
<!-- Generator: Adobe Illustrator 15.1.0, SVG Export Plug-In . SVG Version: 6.00 Build 0)  -->
<!DOCTYPE svg PUBLIC "-//W3C//DTD SVG 1.1//EN" "http://www.w3.org/Graphics/SVG/1.1/DTD/svg11.dtd">
<svg version="1.1" id="Layer_1" xmlns="http://www.w3.org/2000/svg" xmlns:xlink="http://www.w3.org/1999/xlink" x="0px" y="0px"
	 width="24px" height="24px" viewBox="0 0 32 32" enable-background="new 0 0 32 32" xml:space="preserve">
<path d="M28.348,17.793L28.348,17.793c0-2.699-2.339-4.625-5.065-4.625c-0.78,0-1.56,0.385-2.339,0.385
	c-0.78-1.157-2.34-2.313-4.287-2.313c-2.729,0-5.068,1.928-5.068,4.626v0.385h-0.39c-2.339,0-3.898,1.927-3.898,4.241
	c0,1.926,1.559,3.854,3.898,3.854c16.762,0,16.762,0,16.762,0c1.948,0,3.508-1.541,3.508-3.47
	C31.467,19.335,29.907,17.793,28.348,17.793L28.348,17.793z"/>
<path d="M6.911,22.033c-0.781,0.771-1.561,0.771-2.34,0.771c-2.339,0-4.287-1.544-4.287-3.855c0-2.313,1.559-3.855,3.508-4.241
	v-0.385c0-3.084,2.338-5.398,5.457-5.398c1.169,0,1.949,0,2.729,0.773c1.169-1.543,3.119-2.701,5.458-2.701
	c3.119,0,5.848,2.314,6.237,5.398l0,0h-0.391c-0.78,0-1.56,0-1.948,0.385c-1.171-1.541-2.73-2.313-4.678-2.313
	c-3.12,0-5.847,2.313-5.847,5.012c-2.34,0.386-4.29,2.313-4.29,5.012C6.519,20.877,6.519,21.648,6.911,22.033L6.911,22.033z"/>
</svg>
