<?xml version="1.0" encoding="utf-8"?>
<!-- Generator: Adobe Illustrator 15.1.0, SVG Export Plug-In . SVG Version: 6.00 Build 0)  -->
<!DOCTYPE svg PUBLIC "-//W3C//DTD SVG 1.1//EN" "http://www.w3.org/Graphics/SVG/1.1/DTD/svg11.dtd">
<svg version="1.1" id="Layer_1" xmlns="http://www.w3.org/2000/svg" xmlns:xlink="http://www.w3.org/1999/xlink" x="0px" y="0px"
	 width="20px" height="20px" viewBox="0 0 20 20" enable-background="new 0 0 20 20" xml:space="preserve">
<path fill="#010101" d="M10.883,4.356c0,3.835,0,4.485,0,4.485c0,0.385-0.403,0.768-1.002,0.768c-0.602,0-1.002-0.383-1.002-0.768
	c0-3.835,0-4.485,0-4.485c0-0.385,0.4-0.768,1.002-0.768C10.479,3.587,10.883,3.973,10.883,4.356L10.883,4.356z"/>
<path fill="#010101" d="M7.875,11.971c-0.602,0-4.315-0.238-4.209-1.403c0.106-1.164,2.806-1.211,3.607-1.402V8.839
	c0-1.726,0-2.051,0-2.051C6.271,6.98,0.737,8,0.753,10.566c0.02,3.225,7.122,3.584,7.122,3.584l0.001,1.857
	c4.411-2.492,4.608-3.141,4.608-3.141c-4.609-2.493-4.609-2.818-4.609-2.818V11.971z"/>
<path fill="#010101" d="M12.484,6.791c0,1.725,0,2.051,0,2.051l0,0c1.053,0.081,3.574,0.606,3.605,1.725
	c0.031,0.984-2.004,1.344-2.404,1.344c0,1.729,0,2.053,0,2.053c0.602,0,5.09-1.23,5.066-3.396
	C18.732,8.439,14.066,7.021,12.484,6.791z"/>
</svg>
