<?xml version="1.0" encoding="utf-8"?>
<!-- Generator: Adobe Illustrator 15.1.0, SVG Export Plug-In . SVG Version: 6.00 Build 0)  -->
<!DOCTYPE svg PUBLIC "-//W3C//DTD SVG 1.1//EN" "http://www.w3.org/Graphics/SVG/1.1/DTD/svg11.dtd">
<svg version="1.1" id="Layer_1" xmlns="http://www.w3.org/2000/svg" xmlns:xlink="http://www.w3.org/1999/xlink" x="0px" y="0px"
	 width="24px" height="24px" viewBox="0 0 32 32" enable-background="new 0 0 32 32" xml:space="preserve">
<path fill="#010101" d="M18.139,6.948c0,7.227,0,7.227,0,7.227c0,0.723-0.755,1.445-1.887,1.445c-1.134,0-1.889-0.722-1.889-1.445
	c0-7.227,0-7.227,0-7.227c0-0.723,0.755-1.445,1.889-1.445C17.384,5.502,18.139,6.225,18.139,6.948L18.139,6.948z"/>
<path fill="#010101" d="M12.476,20.68c-1.134,0-8.131-1.062-7.93-3.253c0.201-2.192,5.286-2.892,6.796-3.252l0,0
	c0-3.252,0-3.252,0-3.252c-1.887,0.361-10.223,1.671-10.193,6.504c0.038,6.073,11.327,6.142,11.327,6.142l0.003,2.893
	c8.306-4.695,8.68-4.695,8.68-4.695c-8.683-4.697-8.683-4.697-8.683-4.697V20.68z"/>
<path fill="#010101" d="M21.159,10.922c0,3.252,0,3.252,0,3.252l0,0c1.985,0.153,6.731,1.144,6.796,3.252
	c0.059,1.852-3.775,2.529-4.531,2.529c0,3.252,0,3.252,0,3.252c1.135,0,7.973-1.702,7.932-5.781
	C31.313,13.418,24.137,11.357,21.159,10.922z"/>
</svg>
