<?xml version="1.0" encoding="utf-8"?>
<!-- Generator: Adobe Illustrator 15.1.0, SVG Export Plug-In . SVG Version: 6.00 Build 0)  -->
<!DOCTYPE svg PUBLIC "-//W3C//DTD SVG 1.1//EN" "http://www.w3.org/Graphics/SVG/1.1/DTD/svg11.dtd">
<svg version="1.1" id="Layer_1" xmlns="http://www.w3.org/2000/svg" xmlns:xlink="http://www.w3.org/1999/xlink" x="0px" y="0px"
	 width="32px" height="32px" viewBox="0 0 32 32" style="enable-background:new 0 0 32 32;" xml:space="preserve">
<style type="text/css">
<![CDATA[
	.st0{fill:#010101;}
]]>
</style>
<g>
	<path class="st0" d="M13.018,21.12c-0.888,0-1.777-0.893-1.777-1.785c0-6.841,0-6.841,0-6.841c0-0.893,0.888-1.786,1.777-1.786
		c0.889,0,1.776,0.892,1.776,1.786c0,6.841,0,6.841,0,6.841C14.794,20.228,13.906,21.12,13.018,21.12L13.018,21.12z"/>
	<path class="st0" d="M18.348,21.12c-0.888,0-1.776-0.893-1.776-1.785c0-6.841,0-6.841,0-6.841c0-0.893,0.888-1.786,1.776-1.786
		s1.776,0.892,1.776,1.786c0,6.841,0,6.841,0,6.841C20.124,20.228,19.235,21.12,18.348,21.12L18.348,21.12z"/>
</g>
<path class="st0" d="M15.807,3.864c6.746,0,11.992,5.272,11.992,12.051c0,6.777-5.246,12.049-11.992,12.049
	c-6.995,0-12.242-5.271-12.242-12.049C3.565,9.136,8.812,3.864,15.807,3.864 M15.807,0.851c-8.494,0-15.24,6.779-15.24,15.064
	c0,8.282,6.746,15.062,15.24,15.062c8.246,0,14.991-6.779,14.991-15.062C30.798,7.63,24.053,0.851,15.807,0.851L15.807,0.851z"/>
</svg>
