<?xml version="1.0" encoding="utf-8"?>
<!-- Generator: Adobe Illustrator 15.1.0, SVG Export Plug-In . SVG Version: 6.00 Build 0)  -->
<!DOCTYPE svg PUBLIC "-//W3C//DTD SVG 1.1//EN" "http://www.w3.org/Graphics/SVG/1.1/DTD/svg11.dtd">
<svg version="1.1" id="Layer_1" xmlns="http://www.w3.org/2000/svg" xmlns:xlink="http://www.w3.org/1999/xlink" x="0px" y="0px"
	 width="20px" height="20px" viewBox="0 0 20 20" enable-background="new 0 0 20 20" xml:space="preserve">
<g>
	<g>
		<circle fill="#020202" cx="10" cy="10" r="9"/>
		<path fill="#020202" d="M10,19.468c-5.22,0-9.467-4.247-9.467-9.468c0-5.22,4.247-9.467,9.467-9.467
			c5.221,0,9.468,4.247,9.468,9.467C19.468,15.221,15.221,19.468,10,19.468z M10,1.467c-4.705,0-8.533,3.828-8.533,8.533
			S5.295,18.532,10,18.532s8.532-3.827,8.532-8.532S14.705,1.467,10,1.467z"/>
	</g>
	<g>
		<g>
			<path fill="#FFFFFF" d="M8.4,13.129c-0.534,0-1.067-0.538-1.067-1.072c0-4.111,0-4.111,0-4.111c0-0.535,0.534-1.072,1.067-1.072
				c0.532,0,1.067,0.538,1.067,1.072c0,4.111,0,4.111,0,4.111C9.468,12.591,8.933,13.129,8.4,13.129L8.4,13.129z"/>
		</g>
		<g>
			<path fill="#FFFFFF" d="M11.604,13.129c-0.535,0-1.066-0.538-1.066-1.072c0-4.111,0-4.111,0-4.111
				c0-0.535,0.531-1.072,1.066-1.072c0.531,0,1.065,0.538,1.065,1.072c0,4.111,0,4.111,0,4.111
				C12.669,12.591,12.137,13.129,11.604,13.129L11.604,13.129z"/>
		</g>
	</g>
</g>
</svg>
