<?xml version="1.0" encoding="utf-8"?>
<!-- Generator: Adobe Illustrator 15.1.0, SVG Export Plug-In . SVG Version: 6.00 Build 0)  -->
<!DOCTYPE svg PUBLIC "-//W3C//DTD SVG 1.1//EN" "http://www.w3.org/Graphics/SVG/1.1/DTD/svg11.dtd">
<svg version="1.1" id="Layer_1" xmlns="http://www.w3.org/2000/svg" xmlns:xlink="http://www.w3.org/1999/xlink" x="0px" y="0px"
	 width="24px" height="24px" viewBox="0 0 32 32" enable-background="new 0 0 32 32" xml:space="preserve">
<g>
	<path fill="#020202" d="M15.984,31.18c-8.378,0-15.195-6.816-15.195-15.195S7.605,0.79,15.984,0.79
		c8.379,0,15.196,6.816,15.196,15.195S24.363,31.18,15.984,31.18z M15.984,2.29c-7.551,0-13.695,6.144-13.695,13.695
		S8.433,29.68,15.984,29.68c7.552,0,13.696-6.144,13.696-13.695S23.536,2.29,15.984,2.29z"/>
</g>
<g>
	<g>
		<path fill="#010101" d="M13.416,21.005c-0.856,0-1.713-0.86-1.713-1.721c0-6.597,0-6.597,0-6.597c0-0.861,0.856-1.722,1.713-1.722
			s1.713,0.86,1.713,1.722c0,6.597,0,6.597,0,6.597C15.129,20.145,14.272,21.005,13.416,21.005L13.416,21.005z"/>
	</g>
	<g>
		<path fill="#010101" d="M18.555,21.005c-0.854,0-1.713-0.86-1.713-1.721c0-6.597,0-6.597,0-6.597c0-0.861,0.856-1.722,1.713-1.722
			c0.857,0,1.713,0.86,1.713,1.722c0,6.597,0,6.597,0,6.597C20.268,20.145,19.411,21.005,18.555,21.005L18.555,21.005z"/>
	</g>
</g>
</svg>
