<?xml version="1.0" encoding="utf-8"?>
<!-- Generator: Adobe Illustrator 15.1.0, SVG Export Plug-In . SVG Version: 6.00 Build 0)  -->
<!DOCTYPE svg PUBLIC "-//W3C//DTD SVG 1.1//EN" "http://www.w3.org/Graphics/SVG/1.1/DTD/svg11.dtd">
<svg version="1.1" id="Layer_1" xmlns="http://www.w3.org/2000/svg" xmlns:xlink="http://www.w3.org/1999/xlink" x="0px" y="0px"
	 width="32px" height="32px" viewBox="0 0 32 32" enable-background="new 0 0 32 32" xml:space="preserve">
<g>
	<g>
		<path d="M9.752,26.114v1.364h19.13V12.174h-6.219c-0.791,0-1.438-0.644-1.438-1.435V4.52H9.752v1.659L7.837,6.213v-2.17
			c0-0.794,0.644-1.437,1.437-1.437h13.391c0.791,0,1.896,0.463,2.451,1.018l4.664,4.664c0.551,0.553,1.017,1.658,1.017,2.451
			v17.219c0,0.793-0.644,1.436-1.437,1.436H9.273c-0.793,0-1.437-0.643-1.437-1.436v-1.842L9.752,26.114z M19.732,14.086h4.847
			c0.271,0,0.479,0.21,0.479,0.478v0.958c0,0.269-0.208,0.479-0.479,0.479h-4.847c-0.269,0-0.479-0.211-0.479-0.479v-0.958
			C19.253,14.296,19.464,14.086,19.732,14.086z M25.055,18.39v0.959c0,0.27-0.208,0.479-0.478,0.479h-6.263
			c-0.271,0-0.479-0.209-0.479-0.479V18.39c0-0.268,0.209-0.477,0.479-0.477h6.265C24.847,17.913,25.055,18.122,25.055,18.39z
			 M25.055,22.219v0.954c0,0.271-0.208,0.48-0.478,0.48h-8.249c-0.271,0-0.479-0.209-0.479-0.48v-0.954
			c0-0.271,0.208-0.479,0.479-0.479h8.249C24.847,21.739,25.055,21.95,25.055,22.219z M23.144,10.261h5.619
			c-0.089-0.254-0.225-0.508-0.329-0.612l-4.679-4.68c-0.104-0.104-0.358-0.239-0.611-0.328V10.261z"/>
	</g>
</g>
<g>
	<path d="M8.789,23.864c-4.406,0-7.991-3.584-7.991-7.99s3.584-7.991,7.991-7.991c4.407,0,7.99,3.584,7.99,7.991
		C16.779,20.28,13.195,23.864,8.789,23.864z M8.789,9.383c-3.579,0-6.491,2.912-6.491,6.491c0,3.578,2.912,6.49,6.491,6.49
		s6.491-2.912,6.491-6.49C15.28,12.295,12.368,9.383,8.789,9.383z"/>
</g>
<g>
	<path d="M9.814,14.024l-1.371,4.871c-0.092,0.328-0.138,0.523-0.138,0.587c0,0.075,0.021,0.135,0.064,0.181
		s0.094,0.069,0.151,0.069c0.074,0,0.158-0.038,0.25-0.112c0.265-0.207,0.531-0.503,0.802-0.889l0.241,0.164
		c-0.316,0.478-0.687,0.883-1.112,1.216c-0.311,0.241-0.609,0.362-0.896,0.362c-0.189,0-0.345-0.057-0.466-0.168
		c-0.12-0.112-0.181-0.254-0.181-0.427s0.058-0.457,0.173-0.854l0.905-3.112c0.144-0.506,0.215-0.825,0.215-0.957
		c0-0.098-0.036-0.18-0.107-0.246c-0.072-0.066-0.168-0.099-0.289-0.099c-0.104,0-0.316,0.026-0.638,0.078V14.42L9.814,14.024z
		 M9.729,11.274c0.195,0,0.359,0.067,0.491,0.203c0.132,0.135,0.198,0.297,0.198,0.487c0,0.19-0.067,0.354-0.202,0.492
		c-0.136,0.138-0.298,0.207-0.487,0.207s-0.354-0.069-0.491-0.207c-0.139-0.138-0.207-0.302-0.207-0.492
		c0-0.189,0.067-0.352,0.202-0.487C9.367,11.341,9.533,11.274,9.729,11.274z"/>
</g>
</svg>
