<?xml version="1.0" encoding="utf-8"?>
<!-- Generator: Adobe Illustrator 15.1.0, SVG Export Plug-In . SVG Version: 6.00 Build 0)  -->
<!DOCTYPE svg PUBLIC "-//W3C//DTD SVG 1.1//EN" "http://www.w3.org/Graphics/SVG/1.1/DTD/svg11.dtd">
<svg version="1.1" id="Layer_1" xmlns="http://www.w3.org/2000/svg" xmlns:xlink="http://www.w3.org/1999/xlink" x="0px" y="0px"
	 width="32px" height="32px" viewBox="0 0 32 32" enable-background="new 0 0 32 32" xml:space="preserve">
<g>
	<g>
		<path fill="#010101" d="M15.952,15.107c-3.063-3.066-3.063-3.066-3.063-3.066c-0.382-0.384-0.382-0.384-0.765-0.384
			c-0.385,0-0.524,0.108-0.767,0.384c-0.356,0.408-0.383,1.15,0,1.533c2.296,2.299,2.296,2.299,2.296,2.299
			c-2.296,2.684-2.296,2.684-2.296,2.684c-0.383,0.383-0.462,1.006,0,1.532c0.356,0.407,1.147,0.384,1.53,0
			c3.063-3.45,3.063-3.45,3.063-3.45c0.445-0.453,0.383-0.382,0.383-0.767C16.334,15.49,16.334,15.49,15.952,15.107L15.952,15.107z"
			/>
	</g>
	<g>
		<path fill="#010101" d="M19.337,20.805c-1.319,0.029-1.369-0.826-1.369-1.652c0-6.195,0-6.195,0-6.195
			c0-1.24,0.543-1.653,1.369-1.653c1.238,0,1.369,0.414,1.369,1.653c0,6.195,0,6.195,0,6.195
			C20.706,19.979,20.575,20.805,19.337,20.805L19.337,20.805z"/>
	</g>
</g>
<g>
	<path fill="#020202" d="M15.873,31.248c-8.378,0-15.194-6.816-15.194-15.194c0-8.378,6.816-15.194,15.194-15.194
		s15.193,6.816,15.193,15.194C31.066,24.432,24.251,31.248,15.873,31.248z M15.873,2.36c-7.551,0-13.694,6.143-13.694,13.694
		s6.143,13.694,13.694,13.694s13.693-6.143,13.693-13.694S23.424,2.36,15.873,2.36z"/>
</g>
</svg>
