<?xml version="1.0" encoding="utf-8"?>
<!-- Generator: Adobe Illustrator 15.1.0, SVG Export Plug-In . SVG Version: 6.00 Build 0)  -->
<!DOCTYPE svg PUBLIC "-//W3C//DTD SVG 1.1//EN" "http://www.w3.org/Graphics/SVG/1.1/DTD/svg11.dtd">
<svg version="1.1" id="Layer_1" xmlns="http://www.w3.org/2000/svg" xmlns:xlink="http://www.w3.org/1999/xlink" x="0px" y="0px"
	 width="32px" height="32px" viewBox="0 0 32 32" enable-background="new 0 0 32 32" xml:space="preserve">
<path fill="#010101" d="M15.892,3.61c6.889,0,12.247,5.749,12.247,12.264c0,6.898-5.357,12.264-12.247,12.264
	c-6.889,0-12.246-5.366-12.246-12.264C3.646,9.358,9.003,3.61,15.892,3.61 M15.892,0.543c-8.419,0-15.307,6.899-15.307,15.33
	c0,8.432,6.888,15.331,15.307,15.331c8.419,0,15.307-6.898,15.307-15.331C31.199,7.442,24.312,0.543,15.892,0.543L15.892,0.543z"/>
<path fill="#010101" d="M15.85,15.107c-3.063-3.066-3.063-3.066-3.063-3.066c-0.382-0.384-0.382-0.384-0.765-0.384
	c-0.384,0-0.524,0.108-0.766,0.384c-0.356,0.408-0.383,1.15,0,1.533c2.296,2.299,2.296,2.299,2.296,2.299
	c-2.296,2.683-2.296,2.683-2.296,2.683c-0.383,0.383-0.462,1.006,0,1.533c0.356,0.407,1.148,0.384,1.53,0
	c3.063-3.45,3.063-3.45,3.063-3.45c0.445-0.453,0.383-0.382,0.383-0.767C16.233,15.49,16.233,15.49,15.85,15.107L15.85,15.107z"/>
<path fill="#010101" d="M19.236,20.805c-1.319,0.029-1.369-0.826-1.369-1.652c0-6.198,0-6.198,0-6.198
	c0-1.24,0.543-1.653,1.369-1.653c1.238,0,1.369,0.414,1.369,1.653c0,6.198,0,6.198,0,6.198
	C20.605,19.979,20.475,20.805,19.236,20.805L19.236,20.805z"/>
</svg>
