<?xml version="1.0" encoding="utf-8"?>
<!-- Generator: Adobe Illustrator 15.1.0, SVG Export Plug-In . SVG Version: 6.00 Build 0)  -->
<!DOCTYPE svg PUBLIC "-//W3C//DTD SVG 1.1//EN" "http://www.w3.org/Graphics/SVG/1.1/DTD/svg11.dtd">
<svg version="1.1" id="Layer_1" xmlns="http://www.w3.org/2000/svg" xmlns:xlink="http://www.w3.org/1999/xlink" x="0px" y="0px"
	 width="32px" height="32px" viewBox="0 0 32 32" style="enable-background:new 0 0 32 32;" xml:space="preserve">
<style type="text/css">
<![CDATA[
	.st0{fill:#010101;}
	.st1{fill:#020202;}
]]>
</style>
<path class="st0" d="M15.892,3.61c6.889,0,12.247,5.749,12.247,12.264c0,6.897-5.356,12.265-12.247,12.265
	c-6.889,0-12.246-5.367-12.246-12.265C3.646,9.358,9.003,3.61,15.892,3.61 M15.892,0.543c-8.419,0-15.307,6.899-15.307,15.33
	c0,8.432,6.888,15.331,15.307,15.331c8.418,0,15.307-6.897,15.307-15.331C31.199,7.442,24.313,0.543,15.892,0.543L15.892,0.543z"/>
<path class="st0" d="M22.398,15.107c-3.063-3.066-3.063-3.066-3.063-3.066c-0.382-0.384-0.382-0.384-0.765-0.384
	c-0.385,0-0.524,0.108-0.766,0.384c-0.356,0.408-0.384,1.15,0,1.533c2.295,2.299,2.295,2.299,2.295,2.299
	c-2.295,2.684-2.295,2.684-2.295,2.684c-0.384,0.383-0.463,1.006,0,1.532c0.355,0.407,1.147,0.384,1.529,0
	c3.063-3.45,3.063-3.45,3.063-3.45c0.445-0.453,0.383-0.382,0.383-0.767C22.781,15.49,22.781,15.49,22.398,15.107L22.398,15.107z"/>
<path class="st1" d="M10.395,11.432c-0.737,0-1.106,0.738-1.106,1.476c0,5.904,0,5.904,0,5.904c0,1.105,0.369,1.478,1.106,1.478
	c0.369,0,0.277,0.069,1.107-0.37c5.164-2.951,5.164-2.951,5.164-2.951c1.104-0.369,1.104-1.477,0-2.214
	c-5.164-2.952-5.164-2.952-5.164-2.952C10.984,11.516,10.764,11.432,10.395,11.432L10.395,11.432z"/>
</svg>
