<?xml version="1.0" encoding="utf-8"?>
<!-- Generator: Adobe Illustrator 15.1.0, SVG Export Plug-In . SVG Version: 6.00 Build 0)  -->
<!DOCTYPE svg PUBLIC "-//W3C//DTD SVG 1.1//EN" "http://www.w3.org/Graphics/SVG/1.1/DTD/svg11.dtd">
<svg version="1.1" id="Layer_1" xmlns="http://www.w3.org/2000/svg" xmlns:xlink="http://www.w3.org/1999/xlink" x="0px" y="0px"
	 width="32px" height="32px" viewBox="0 0 32 32" enable-background="new 0 0 32 32" xml:space="preserve">
<path fill="#010101" d="M15.892,3.61c6.889,0,12.247,5.749,12.247,12.264c0,6.898-5.357,12.264-12.247,12.264
	c-6.889,0-12.246-5.366-12.246-12.264C3.646,9.358,9.003,3.61,15.892,3.61 M15.892,0.543c-8.419,0-15.307,6.899-15.307,15.33
	c0,8.432,6.888,15.331,15.307,15.331c8.419,0,15.307-6.898,15.307-15.331C31.199,7.442,24.312,0.543,15.892,0.543L15.892,0.543z"/>
<path fill="#010101" d="M20.086,20.842c-1.319,0.029-1.369-0.826-1.369-1.652c0-6.198,0-6.198,0-6.198
	c0-1.24,0.543-1.653,1.369-1.653c1.238,0,1.369,0.414,1.369,1.653c0,6.198,0,6.198,0,6.198
	C21.455,20.016,21.324,20.842,20.086,20.842L20.086,20.842z"/>
<path fill="#020202" d="M10.702,11.66c-0.737,0-1.106,0.738-1.106,1.476c0,5.903,0,5.903,0,5.903c0,1.106,0.369,1.478,1.106,1.478
	c0.369,0,0.277,0.07,1.107-0.369c5.164-2.95,5.164-2.95,5.164-2.95c1.103-0.37,1.103-1.477,0-2.214
	c-5.164-2.952-5.164-2.952-5.164-2.952C11.292,11.744,11.071,11.66,10.702,11.66L10.702,11.66z"/>
</svg>
