<?xml version="1.0" encoding="utf-8"?>
<!-- Generator: Adobe Illustrator 15.1.0, SVG Export Plug-In . SVG Version: 6.00 Build 0)  -->
<!DOCTYPE svg PUBLIC "-//W3C//DTD SVG 1.1//EN" "http://www.w3.org/Graphics/SVG/1.1/DTD/svg11.dtd">
<svg version="1.1" id="Layer_1" xmlns="http://www.w3.org/2000/svg" xmlns:xlink="http://www.w3.org/1999/xlink" x="0px" y="0px"
	 width="24px" height="24px" viewBox="0 0 32 32" enable-background="new 0 0 32 32" xml:space="preserve">
<g>
	<path fill="#020202" d="M16.122,31.244c-8.378,0-15.194-6.816-15.194-15.194S7.744,0.856,16.122,0.856S31.316,7.672,31.316,16.05
		S24.5,31.244,16.122,31.244z M16.122,2.356c-7.551,0-13.694,6.143-13.694,13.694s6.143,13.694,13.694,13.694
		s13.694-6.144,13.694-13.694S23.673,2.356,16.122,2.356z"/>
</g>
<g>
	<g>
		<path fill="#010101" d="M22.439,15.483c-3.063-3.065-3.063-3.065-3.063-3.065c-0.382-0.384-0.382-0.384-0.767-0.384
			s-0.522,0.107-0.766,0.384c-0.354,0.408-0.384,1.149,0,1.533c2.295,2.299,2.295,2.299,2.295,2.299
			c-2.295,2.684-2.295,2.684-2.295,2.684c-0.384,0.383-0.463,1.006,0,1.532c0.355,0.407,1.147,0.384,1.529,0
			c3.063-3.45,3.063-3.45,3.063-3.45c0.445-0.451,0.383-0.382,0.383-0.767C22.823,15.867,22.823,15.867,22.439,15.483L22.439,15.483
			z"/>
	</g>
	<g>
		<path fill="#020202" d="M16.803,17.439c0,0,0,0-5.17,2.951c-0.83,0.438-0.738,0.366-1.107,0.366c-0.737,0-1.106-0.368-1.106-1.479
			c0,0,0,0,0-5.901c0-0.738,0.369-1.476,1.106-1.476c0.369,0,0.59,0.084,1.107,0.371c0,0,0,0,5.17,2.952
			C17.906,15.963,17.906,17.07,16.803,17.439z"/>
	</g>
</g>
</svg>
