<?xml version="1.0" encoding="utf-8"?>
<!-- Generator: Adobe Illustrator 15.1.0, SVG Export Plug-In . SVG Version: 6.00 Build 0)  -->
<!DOCTYPE svg PUBLIC "-//W3C//DTD SVG 1.1//EN" "http://www.w3.org/Graphics/SVG/1.1/DTD/svg11.dtd">
<svg version="1.1" id="Layer_1" xmlns="http://www.w3.org/2000/svg" xmlns:xlink="http://www.w3.org/1999/xlink" x="0px" y="0px"
	 width="32px" height="32px" viewBox="0 0 32 32" enable-background="new 0 0 32 32" xml:space="preserve">
<path fill="#010101" d="M13.301,11.463c-0.737,0-1.106,0.738-1.106,1.476c0,5.904,0,5.904,0,5.904c0,1.106,0.369,1.478,1.106,1.478
	c0.369,0,0.277,0.07,1.107-0.37c5.164-2.951,5.164-2.951,5.164-2.951c1.104-0.369,1.104-1.477,0-2.214
	c-5.164-2.952-5.164-2.952-5.164-2.952C13.891,11.547,13.67,11.463,13.301,11.463L13.301,11.463z"/>
<path fill="#010101" d="M15.883,4.083c6.27,0,11.803,5.534,11.803,11.808c0,6.642-5.533,11.807-11.803,11.807
	c-6.639,0-11.802-5.165-11.802-11.807C4.081,9.617,9.244,4.083,15.883,4.083 M15.883,1.13C7.4,1.13,1.13,7.772,1.13,15.891
	c0,8.118,6.27,14.759,14.753,14.759c8.112,0,14.752-6.643,14.752-14.759C30.635,7.772,23.995,1.13,15.883,1.13L15.883,1.13z"/>
</svg>
