<?xml version="1.0" encoding="utf-8"?>
<!-- Generator: Adobe Illustrator 15.1.0, SVG Export Plug-In . SVG Version: 6.00 Build 0)  -->
<!DOCTYPE svg PUBLIC "-//W3C//DTD SVG 1.1//EN" "http://www.w3.org/Graphics/SVG/1.1/DTD/svg11.dtd">
<svg version="1.1" id="Layer_1" xmlns="http://www.w3.org/2000/svg" xmlns:xlink="http://www.w3.org/1999/xlink" x="0px" y="0px"
	 width="24px" height="24px" viewBox="0 0 32 32" enable-background="new 0 0 32 32" xml:space="preserve">
<g>
	<path fill="#020202" d="M16.09,31.244c-8.378,0-15.194-6.816-15.194-15.194S7.712,0.856,16.09,0.856S31.284,7.672,31.284,16.05
		S24.468,31.244,16.09,31.244z M16.09,2.356c-7.551,0-13.694,6.143-13.694,13.694S8.539,29.744,16.09,29.744
		s13.694-6.144,13.694-13.694S23.641,2.356,16.09,2.356z"/>
</g>
<g>
	<path fill="#020202" d="M20.234,17.439c0,0,0,0-5.167,2.951c-0.83,0.438-0.738,0.367-1.107,0.367c-0.737,0-1.106-0.369-1.106-1.479
		c0,0,0,0,0-5.902c0-0.738,0.369-1.476,1.106-1.476c0.369,0,0.59,0.084,1.107,0.371c0,0,0,0,5.167,2.952
		C21.338,15.963,21.338,17.07,20.234,17.439z"/>
</g>
</svg>
