<?xml version="1.0" encoding="utf-8"?>
<!-- Generator: Adobe Illustrator 15.1.0, SVG Export Plug-In . SVG Version: 6.00 Build 0)  -->
<!DOCTYPE svg PUBLIC "-//W3C//DTD SVG 1.1//EN" "http://www.w3.org/Graphics/SVG/1.1/DTD/svg11.dtd">
<svg version="1.1" id="Layer_1" xmlns="http://www.w3.org/2000/svg" xmlns:xlink="http://www.w3.org/1999/xlink" x="0px" y="0px"
	 width="20px" height="20px" viewBox="0 0 20 20" enable-background="new 0 0 20 20" xml:space="preserve">
<circle fill="#020202" cx="10" cy="9.784" r="9.001"/>
<g>
	<path fill="#FFFFFF" d="M14.302,9.431c-1.907-1.91-1.907-1.91-1.907-1.91c-0.239-0.24-0.239-0.24-0.478-0.24
		c-0.241,0-0.325,0.068-0.478,0.24c-0.223,0.255-0.238,0.717,0,0.956c1.43,1.431,1.43,1.431,1.43,1.431
		c-1.43,1.674-1.43,1.674-1.43,1.674c-0.238,0.238-0.288,0.625,0,0.955c0.223,0.254,0.716,0.238,0.951,0
		c1.909-2.151,1.909-2.151,1.909-2.151c0.278-0.283,0.238-0.239,0.238-0.478C14.539,9.669,14.539,9.669,14.302,9.431L14.302,9.431z"
		/>
	<path fill="#FFFFFF" d="M10.423,10.652c0,0,0,0-3.221,1.84c-0.518,0.273-0.459,0.229-0.69,0.229c-0.46,0-0.689-0.23-0.689-0.92
		c0,0,0,0,0-3.681c0-0.459,0.229-0.919,0.689-0.919c0.229,0,0.366,0.053,0.69,0.231c0,0,0,0,3.221,1.84
		C11.111,9.729,11.111,10.42,10.423,10.652z"/>
</g>
</svg>
