<?xml version="1.0" encoding="utf-8"?>
<!-- Generator: Adobe Illustrator 15.1.0, SVG Export Plug-In . SVG Version: 6.00 Build 0)  -->
<!DOCTYPE svg PUBLIC "-//W3C//DTD SVG 1.1//EN" "http://www.w3.org/Graphics/SVG/1.1/DTD/svg11.dtd">
<svg version="1.1" id="Layer_1" xmlns="http://www.w3.org/2000/svg" xmlns:xlink="http://www.w3.org/1999/xlink" x="0px" y="0px"
	 width="20px" height="20px" viewBox="0 0 20 20" enable-background="new 0 0 20 20" xml:space="preserve">
<path fill="#020202" d="M10,1C5.03,1,1,5.028,1,10c0,4.972,4.03,9.001,9.001,9.001c4.97,0,9-4.031,9-9.001C19,5.028,14.971,1,10,1z
	 M12.584,10.867c0,0,0,0-3.219,1.839c-0.518,0.273-0.458,0.229-0.69,0.229c-0.458,0-0.688-0.231-0.688-0.921c0,0,0,0,0-3.679
	c0-0.46,0.23-0.919,0.688-0.919c0.231,0,0.369,0.053,0.69,0.231c0,0,0,0,3.219,1.841C13.271,9.945,13.271,10.637,12.584,10.867z"/>
</svg>
