<?xml version="1.0" encoding="utf-8"?>
<!-- Generator: Adobe Illustrator 15.1.0, SVG Export Plug-In . SVG Version: 6.00 Build 0)  -->
<!DOCTYPE svg PUBLIC "-//W3C//DTD SVG 1.1//EN" "http://www.w3.org/Graphics/SVG/1.1/DTD/svg11.dtd">
<svg version="1.1" id="Layer_1" xmlns="http://www.w3.org/2000/svg" xmlns:xlink="http://www.w3.org/1999/xlink" x="0px" y="0px"
	 width="20px" height="20px" viewBox="0 0 20 20" enable-background="new 0 0 20 20" xml:space="preserve">
<g>
	<circle fill="#020202" cx="10" cy="10.184" r="9"/>
	<path fill="#020202" d="M10,19.651c-5.22,0-9.467-4.247-9.467-9.467S4.78,0.717,10,0.717c5.221,0,9.468,4.247,9.468,9.467
		S15.221,19.651,10,19.651z M10,1.651c-4.705,0-8.533,3.828-8.533,8.533c0,4.705,3.828,8.532,8.533,8.532s8.532-3.827,8.532-8.532
		C18.532,5.479,14.705,1.651,10,1.651z"/>
</g>
<g>
	<g>
		<path fill="#FFFFFF" d="M10.048,9.594C8.139,7.683,8.139,7.683,8.139,7.683c-0.237-0.24-0.237-0.24-0.477-0.24
			c-0.24,0-0.327,0.066-0.477,0.24c-0.224,0.253-0.24,0.715,0,0.954c1.43,1.433,1.43,1.433,1.43,1.433
			c-1.43,1.671-1.43,1.671-1.43,1.671c-0.24,0.239-0.289,0.627,0,0.957c0.221,0.252,0.714,0.237,0.953,0
			c1.909-2.15,1.909-2.15,1.909-2.15c0.277-0.281,0.24-0.237,0.24-0.479C10.286,9.832,10.286,9.832,10.048,9.594L10.048,9.594z"/>
	</g>
	<g>
		<path fill="#FFFFFF" d="M12.156,13.143c-0.82,0.019-0.852-0.516-0.852-1.028c0-3.862,0-3.862,0-3.862
			c0-0.772,0.34-1.03,0.852-1.03c0.773,0,0.854,0.259,0.854,1.03c0,3.862,0,3.862,0,3.862
			C13.011,12.627,12.928,13.143,12.156,13.143L12.156,13.143z"/>
	</g>
</g>
</svg>
