<?xml version="1.0" encoding="utf-8"?>
<!-- Generator: Adobe Illustrator 15.1.0, SVG Export Plug-In . SVG Version: 6.00 Build 0)  -->
<!DOCTYPE svg PUBLIC "-//W3C//DTD SVG 1.1//EN" "http://www.w3.org/Graphics/SVG/1.1/DTD/svg11.dtd">
<svg version="1.1" id="Layer_1" xmlns="http://www.w3.org/2000/svg" xmlns:xlink="http://www.w3.org/1999/xlink" x="0px" y="0px"
	 width="20px" height="20px" viewBox="0 0 20 20" enable-background="new 0 0 20 20" xml:space="preserve">
<path d="M18.972,2.068L17.895,1l-2.323,2.342c-1.483-1.116-3.25-1.303-4.191-0.357L8.964,5.406l5.611,5.659l2.519-2.386
	c0.961-0.965,0.739-2.778-0.438-4.275L18.972,2.068z"/>
<path d="M12.458,10.7c-0.224-0.233-0.605-0.229-0.854,0.009l-2.267,2.17L7.11,10.635l2.238-2.144
	c0.249-0.239,0.27-0.622,0.044-0.854c-0.226-0.233-0.606-0.23-0.856,0.008L6.284,9.803L5.425,8.937l-2.52,2.386
	c-0.96,0.965-0.738,2.777,0.44,4.275l-2.316,2.334L2.105,19l2.324-2.344c1.483,1.116,3.25,1.303,4.192,0.357l2.416-2.422
	l-0.875-0.881l2.252-2.158C12.663,11.316,12.684,10.935,12.458,10.7z"/>
</svg>
