<?xml version="1.0" encoding="utf-8"?>
<!-- Generator: Adobe Illustrator 15.1.0, SVG Export Plug-In . SVG Version: 6.00 Build 0)  -->
<!DOCTYPE svg PUBLIC "-//W3C//DTD SVG 1.1//EN" "http://www.w3.org/Graphics/SVG/1.1/DTD/svg11.dtd">
<svg version="1.1" id="Layer_1" xmlns="http://www.w3.org/2000/svg" xmlns:xlink="http://www.w3.org/1999/xlink" x="0px" y="0px"
	 width="32px" height="32px" viewBox="0 0 32 32" enable-background="new 0 0 32 32" xml:space="preserve">
<g>
	<path d="M24.088,18.132l-9.729-9.815l3.696-3.706c1.612-1.62,4.306-1.682,6.676-0.146l3.703-3.733l3.246,3.226L27.99,7.675
		c1.656,2.437,1.667,5.118-0.024,6.814L24.088,18.132z M16.342,8.319l7.781,7.85l2.863-2.688c1.267-1.27,1.084-3.463-0.471-5.44
		l-0.385-0.489l3.561-3.588l-1.25-1.242L24.88,6.311l-0.49-0.369c-1.922-1.444-4.101-1.581-5.339-0.338L16.342,8.319z"/>
</g>
<g>
	<path d="M4.369,31.374l-3.247-3.22l3.689-3.72C3.156,22,3.143,19.318,4.831,17.62l4.446-4.209l1.338,1.35l3.017-2.889
		c0.645-0.62,1.732-0.617,2.331,0.008c0.569,0.593,0.929,1.906,0.193,2.613l-2.978,2.85l1.917,1.938l3.038-2.911
		c0.252-0.243,0.6-0.372,1.002-0.372c0.573,0,1.236,0.274,1.611,0.666c0.305,0.317,0.461,0.739,0.438,1.187
		c-0.021,0.431-0.209,0.836-0.526,1.142l-2.999,2.87l1.354,1.366l-4.265,4.271c-0.833,0.835-1.927,1.277-3.165,1.277c0,0,0,0,0,0
		c-1.16,0-2.362-0.39-3.507-1.134L4.369,31.374z M3.112,28.146l1.25,1.239l3.563-3.59l0.49,0.368
		c1.048,0.788,2.143,1.205,3.167,1.205h0c0.856,0,1.606-0.299,2.169-0.864l3.276-3.282l-1.376-1.388l4.033-3.86
		c0.078-0.075,0.093-0.156,0.096-0.198c0.002-0.039-0.005-0.096-0.049-0.141c-0.101-0.106-0.389-0.233-0.596-0.233l-4.066,3.85
		l-3.896-3.938l4.01-3.838c0.017-0.082-0.09-0.473-0.235-0.624c-0.091-0.094-0.193-0.111-0.343,0.033l-4.016,3.846l-1.344-1.355
		l-3.432,3.25c-1.265,1.273-1.082,3.466,0.473,5.442l0.385,0.488L3.112,28.146z"/>
</g>
</svg>
