<?xml version="1.0" encoding="utf-8"?>
<!-- Generator: Adobe Illustrator 15.1.0, SVG Export Plug-In . SVG Version: 6.00 Build 0)  -->
<!DOCTYPE svg PUBLIC "-//W3C//DTD SVG 1.1//EN" "http://www.w3.org/Graphics/SVG/1.1/DTD/svg11.dtd">
<svg version="1.1" id="Layer_1" xmlns="http://www.w3.org/2000/svg" xmlns:xlink="http://www.w3.org/1999/xlink" x="0px" y="0px"
	 width="24px" height="24px" viewBox="0 0 32 32" enable-background="new 0 0 32 32" xml:space="preserve">
<path d="M31.338,5.104c-0.354-0.212-0.814-0.096-1.028,0.259l-5.412,9.055c-0.259-4.45-3.949-7.993-8.463-7.993
	c-1.62,0-3.13,0.464-4.419,1.255l2.562-4.288c0.212-0.355,0.096-0.816-0.259-1.029c-0.354-0.211-0.815-0.096-1.029,0.259
	L0.62,23.825c-0.212,0.355-0.096,0.816,0.259,1.028C1,24.926,1.132,24.96,1.263,24.96c0.255,0,0.504-0.13,0.645-0.365l6.061-10.144
	c-0.008,0.154-0.023,0.306-0.023,0.462c0,4.681,3.808,8.489,8.489,8.489c1.277,0,2.484-0.291,3.571-0.798l-2.365,3.957
	c-0.213,0.355-0.097,0.816,0.259,1.028c0.12,0.072,0.253,0.106,0.384,0.106c0.256,0,0.504-0.13,0.645-0.365l12.67-21.198
	C31.81,5.777,31.693,5.317,31.338,5.104z M9.445,14.914c0-3.854,3.135-6.989,6.989-6.989c3.854,0,6.989,3.135,6.989,6.989
	c0,3.854-3.135,6.989-6.989,6.989C12.581,21.902,9.445,18.768,9.445,14.914z"/>
</svg>
