<?xml version="1.0" encoding="utf-8"?>
<!-- Generator: Adobe Illustrator 15.1.0, SVG Export Plug-In . SVG Version: 6.00 Build 0)  -->
<!DOCTYPE svg PUBLIC "-//W3C//DTD SVG 1.1//EN" "http://www.w3.org/Graphics/SVG/1.1/DTD/svg11.dtd">
<svg version="1.1" id="Layer_1" xmlns="http://www.w3.org/2000/svg" xmlns:xlink="http://www.w3.org/1999/xlink" x="0px" y="0px"
	 width="20px" height="20px" viewBox="0 0 20 20" enable-background="new 0 0 20 20" xml:space="preserve">
<path d="M5.85,16.229v0.842h11.785V7.645h-3.83c-0.488,0-0.887-0.397-0.887-0.884V2.928H5.85v1.023l-1.18,0.021V2.635
	c0-0.489,0.399-0.885,0.885-0.885h8.25c0.486,0,1.168,0.287,1.512,0.627l2.871,2.871c0.342,0.341,0.625,1.022,0.625,1.51v10.603
	c0,0.49-0.398,0.887-0.885,0.887H5.553c-0.487,0-0.885-0.396-0.885-0.887v-1.133H5.85L5.85,16.229z"/>
<path d="M12,8.821h2.982c0.166,0,0.293,0.129,0.293,0.294v0.59c0,0.164-0.127,0.294-0.293,0.294H12c-0.166,0-0.295-0.13-0.295-0.294
	V9.114C11.703,8.949,11.834,8.821,12,8.821z"/>
<path d="M15.273,11.473v0.59c0,0.166-0.129,0.295-0.293,0.295h-3.857c-0.166,0-0.295-0.129-0.295-0.295v-0.59
	c0-0.166,0.129-0.295,0.295-0.295h3.859C15.146,11.176,15.273,11.307,15.273,11.473z"/>
<path d="M15.273,13.83v0.588c0,0.168-0.129,0.295-0.293,0.295H9.899c-0.168,0-0.295-0.129-0.295-0.295V13.83
	c0-0.166,0.129-0.297,0.295-0.297h5.081C15.146,13.533,15.273,13.664,15.273,13.83z"/>
<path d="M14.1,6.466h3.459c-0.057-0.157-0.139-0.313-0.203-0.376l-2.879-2.884C14.41,3.141,14.254,3.058,14.1,3.004V6.466z"/>
<path d="M10.046,10.764c0,3.039-4.25,4.957-4.429,5.037c-0.06,0.027-0.123,0.043-0.188,0.043c-0.064,0-0.13-0.016-0.188-0.043
	c-0.182-0.08-4.431-1.998-4.431-5.037V5.225c0-0.251,0.208-0.46,0.461-0.46h8.31c0.253,0,0.462,0.21,0.462,0.46v5.539H10.046z"/>
<path fill="#FFFFFF" d="M4.89,12.461c-0.15,0.131-0.381,0.131-0.532,0l-2.007-1.727c-0.151-0.129-0.151-0.329,0-0.456l0.512-0.441
	c0.148-0.129,0.384-0.129,0.532,0l1.226,1.057l3.025-2.597c0.148-0.13,0.382-0.13,0.53,0l0.513,0.442
	c0.151,0.129,0.151,0.329,0,0.458L4.89,12.461z"/>
</svg>
