<?xml version="1.0" encoding="utf-8"?>
<!-- Generator: Adobe Illustrator 15.1.0, SVG Export Plug-In . SVG Version: 6.00 Build 0)  -->
<!DOCTYPE svg PUBLIC "-//W3C//DTD SVG 1.1//EN" "http://www.w3.org/Graphics/SVG/1.1/DTD/svg11.dtd">
<svg version="1.1" id="Layer_1" xmlns="http://www.w3.org/2000/svg" xmlns:xlink="http://www.w3.org/1999/xlink" x="0px" y="0px"
	 width="32px" height="32px" viewBox="0 0 32 32" enable-background="new 0 0 32 32" xml:space="preserve">
<g>
	<path d="M15.601,9.781c-2.651,0-4.807-2.156-4.807-4.807s2.156-4.807,4.807-4.807s4.807,2.156,4.807,4.807
		S18.252,9.781,15.601,9.781z M15.601,1.667c-1.824,0-3.307,1.483-3.307,3.307s1.483,3.307,3.307,3.307s3.307-1.483,3.307-3.307
		S17.425,1.667,15.601,1.667z"/>
</g>
<g>
	<path d="M24.994,21.988c-2.154,0-3.907-1.751-3.907-3.902c0-2.155,1.753-3.908,3.907-3.908c2.153,0,3.904,1.753,3.904,3.908
		C28.898,20.237,27.147,21.988,24.994,21.988z M24.994,15.678c-1.327,0-2.407,1.081-2.407,2.408c0,1.324,1.08,2.402,2.407,2.402
		c1.326,0,2.404-1.078,2.404-2.402C27.398,16.759,26.32,15.678,24.994,15.678z"/>
</g>
<g>
	<path d="M27.509,31.99c-1.495,0-2.711-1.216-2.711-2.711s1.216-2.711,2.711-2.711s2.712,1.216,2.712,2.711
		S29.004,31.99,27.509,31.99z M27.509,28.068c-0.668,0-1.211,0.543-1.211,1.211s0.543,1.211,1.211,1.211s1.212-0.543,1.212-1.211
		S28.177,28.068,27.509,28.068z"/>
</g>
<g>
	<path d="M19.354,31.99c-1.495,0-2.711-1.216-2.711-2.711s1.216-2.711,2.711-2.711s2.711,1.216,2.711,2.711
		S20.849,31.99,19.354,31.99z M19.354,28.068c-0.668,0-1.211,0.543-1.211,1.211s0.543,1.211,1.211,1.211s1.211-0.543,1.211-1.211
		S20.021,28.068,19.354,28.068z"/>
</g>
<g>
	<path d="M11.02,31.99c-1.495,0-2.711-1.216-2.711-2.711s1.216-2.711,2.711-2.711s2.711,1.216,2.711,2.711S12.515,31.99,11.02,31.99
		z M11.02,28.068c-0.667,0-1.211,0.543-1.211,1.211s0.543,1.211,1.211,1.211s1.211-0.543,1.211-1.211S11.688,28.068,11.02,28.068z"
		/>
</g>
<g>
	<path d="M3.093,31.991c-1.495,0-2.712-1.217-2.712-2.712c0-1.496,1.217-2.713,2.712-2.713c1.496,0,2.712,1.217,2.712,2.713
		C5.805,30.774,4.588,31.991,3.093,31.991z M3.093,28.066c-0.668,0-1.212,0.544-1.212,1.213c0,0.668,0.543,1.212,1.212,1.212
		s1.212-0.544,1.212-1.212C4.305,28.61,3.761,28.066,3.093,28.066z"/>
</g>
<g>
	<path d="M15.493,21.988c-2.154,0-3.907-1.751-3.907-3.902c0-2.155,1.753-3.908,3.907-3.908c2.153,0,3.905,1.753,3.905,3.908
		C19.398,20.237,17.646,21.988,15.493,21.988z M15.493,15.678c-1.327,0-2.407,1.081-2.407,2.408c0,1.324,1.08,2.402,2.407,2.402
		c1.326,0,2.405-1.078,2.405-2.402C17.898,16.759,16.819,15.678,15.493,15.678z"/>
</g>
<g>
	<path d="M5.909,21.988c-2.155,0-3.908-1.751-3.908-3.902c0-2.155,1.753-3.908,3.908-3.908c2.152,0,3.904,1.753,3.904,3.908
		C9.813,20.237,8.062,21.988,5.909,21.988z M5.909,15.678c-1.328,0-2.408,1.081-2.408,2.408c0,1.324,1.08,2.402,2.408,2.402
		c1.326,0,2.404-1.078,2.404-2.402C8.313,16.759,7.235,15.678,5.909,15.678z"/>
</g>
<g>
	<rect x="9.545" y="8.606" transform="matrix(0.8026 0.5966 -0.5966 0.8026 9.4075 -3.5356)" width="1" height="7.678"/>
</g>
<g>
	<rect x="15.103" y="10.531" width="1" height="4.711"/>
</g>
<g>
	<rect x="17.098" y="11.956" transform="matrix(0.598 0.8015 -0.8015 0.598 18.406 -11.7882)" width="7.714" height="0.999"/>
</g>
<g>
	<rect x="3.627" y="22.382" transform="matrix(0.974 0.2266 -0.2266 0.974 5.7639 -0.2859)" width="1" height="5.151"/>
</g>
<g>
	<rect x="16.487" y="18.572" transform="matrix(0.6317 0.7752 -0.7752 0.6317 25.306 -4.1182)" width="1" height="12.002"/>
</g>
<g>
	<rect x="21.086" y="21.616" transform="matrix(0.9021 0.4315 -0.4315 0.9021 12.8972 -6.8686)" width="1" height="6.749"/>
</g>
<g>
	<rect x="24.007" y="24.458" transform="matrix(0.2444 0.9697 -0.9697 0.2444 44.2957 -6.9295)" width="5.174" height="0.999"/>
</g>
</svg>
