<?xml version="1.0" encoding="utf-8"?>
<!-- Generator: Adobe Illustrator 15.1.0, SVG Export Plug-In . SVG Version: 6.00 Build 0)  -->
<!DOCTYPE svg PUBLIC "-//W3C//DTD SVG 1.1//EN" "http://www.w3.org/Graphics/SVG/1.1/DTD/svg11.dtd">
<svg version="1.1" id="Layer_1" xmlns="http://www.w3.org/2000/svg" xmlns:xlink="http://www.w3.org/1999/xlink" x="0px" y="0px"
	 width="32px" height="32px" viewBox="0 0 32 32" enable-background="new 0 0 32 32" xml:space="preserve">
<g>
	<path d="M9.486,25.852v1.364h19.131V11.911h-6.219c-0.791,0-1.435-0.643-1.435-1.435V4.257H9.486v1.659L7.571,5.95V3.78
		c0-0.793,0.644-1.436,1.437-1.436H22.4c0.791,0,1.897,0.463,2.451,1.017l4.664,4.664c0.551,0.553,1.017,1.659,1.017,2.451v17.219
		c0,0.793-0.644,1.436-1.437,1.436H9.007c-0.793,0-1.437-0.643-1.437-1.436v-1.842L9.486,25.852z M19.468,13.823h4.847
		c0.269,0,0.477,0.21,0.477,0.478v0.958c0,0.269-0.208,0.479-0.477,0.479h-4.847c-0.269,0-0.479-0.21-0.479-0.479v-0.958
		C18.989,14.033,19.199,13.823,19.468,13.823z M24.79,18.127v0.959c0,0.27-0.208,0.479-0.478,0.479H18.05
		c-0.271,0-0.479-0.209-0.479-0.479v-0.959c0-0.268,0.209-0.477,0.479-0.477h6.265C24.582,17.65,24.79,17.859,24.79,18.127z
		 M24.79,21.956v0.954c0,0.271-0.208,0.48-0.478,0.48h-8.25c-0.271,0-0.479-0.209-0.479-0.48v-0.954
		c0-0.271,0.208-0.479,0.479-0.479h8.25C24.582,21.477,24.79,21.688,24.79,21.956z M22.879,9.998h5.619
		c-0.089-0.254-0.225-0.508-0.329-0.612l-4.679-4.68c-0.104-0.104-0.358-0.239-0.611-0.328V9.998z"/>
	<path d="M16.3,16.979c0,4.934-6.898,8.049-7.192,8.179c-0.094,0.045-0.198,0.067-0.305,0.067c-0.105,0-0.211-0.022-0.304-0.067
		c-0.292-0.13-7.191-3.245-7.191-8.179V7.986c0-0.411,0.339-0.75,0.75-0.75H15.55c0.41,0,0.75,0.34,0.75,0.75V16.979z M8.792,9.453
		H8.771H3.545v7.494c0,1.699,1.5,3.232,2.752,4.216c0.928,0.729,1.875,1.274,2.474,1.594v0.013c0.003-0.002,0.008-0.006,0.01-0.006
		c0.005,0,0.01,0.004,0.012,0.006v-0.013c0.6-0.317,1.546-0.862,2.473-1.594c1.253-0.983,2.752-2.517,2.752-4.216V9.453H8.792z"/>
	<path d="M7.895,19.061c-0.199,0.164-0.508,0.164-0.707,0l-2.667-2.188c-0.199-0.162-0.199-0.417,0-0.579l0.683-0.56
		c0.198-0.162,0.509-0.162,0.707,0l1.63,1.336l4.016-3.288c0.198-0.163,0.508-0.163,0.706,0l0.683,0.559
		c0.199,0.163,0.199,0.418,0,0.581L7.895,19.061z"/>
</g>
</svg>
