<?xml version="1.0" encoding="utf-8"?>
<!-- Generator: Adobe Illustrator 15.1.0, SVG Export Plug-In . SVG Version: 6.00 Build 0)  -->
<!DOCTYPE svg PUBLIC "-//W3C//DTD SVG 1.1//EN" "http://www.w3.org/Graphics/SVG/1.1/DTD/svg11.dtd">
<svg version="1.1" id="Layer_1" xmlns="http://www.w3.org/2000/svg" xmlns:xlink="http://www.w3.org/1999/xlink" x="0px" y="0px"
	 width="20px" height="20px" viewBox="0 0 20 20" enable-background="new 0 0 20 20" xml:space="preserve">
<g>
	<g>
		<circle cx="10.178" cy="3.407" r="2.408"/>
		<path d="M10.178,6.26c-1.573,0-2.854-1.28-2.854-2.853s1.28-2.854,2.854-2.854c1.573,0,2.853,1.28,2.853,2.854
			S11.751,6.26,10.178,6.26z M10.178,1.444c-1.083,0-1.963,0.88-1.963,1.963c0,1.082,0.88,1.962,1.963,1.962s1.962-0.88,1.962-1.962
			C12.141,2.325,11.261,1.444,10.178,1.444z"/>
	</g>
	<g>
		<circle cx="15.752" cy="11.19" r="1.873"/>
		<path d="M15.752,13.508c-1.278,0-2.318-1.04-2.318-2.318c0-1.278,1.04-2.318,2.318-2.318s2.318,1.04,2.318,2.318
			C18.07,12.468,17.03,13.508,15.752,13.508z M15.752,9.762c-0.787,0-1.428,0.64-1.428,1.427s0.641,1.428,1.428,1.428
			s1.428-0.641,1.428-1.428S16.539,9.762,15.752,9.762z"/>
	</g>
	<g>
		<circle cx="17.247" cy="17.835" r="1.165"/>
		<path d="M17.247,19.445c-0.888,0-1.61-0.723-1.61-1.61s0.723-1.61,1.61-1.61s1.61,0.723,1.61,1.61S18.135,19.445,17.247,19.445z
			 M17.247,17.115c-0.396,0-0.72,0.323-0.72,0.72s0.323,0.72,0.72,0.72s0.72-0.323,0.72-0.72S17.644,17.115,17.247,17.115z"/>
	</g>
	<g>
		<circle cx="12.404" cy="17.835" r="1.165"/>
		<path d="M12.404,19.445c-0.888,0-1.61-0.723-1.61-1.61s0.723-1.61,1.61-1.61s1.609,0.723,1.609,1.61S13.292,19.445,12.404,19.445z
			 M12.404,17.115c-0.396,0-0.72,0.323-0.72,0.72s0.323,0.72,0.72,0.72s0.719-0.323,0.719-0.72S12.801,17.115,12.404,17.115z"/>
	</g>
	<g>
		<circle cx="7.458" cy="17.835" r="1.165"/>
		<path d="M7.458,19.445c-0.888,0-1.61-0.723-1.61-1.61s0.723-1.61,1.61-1.61s1.61,0.723,1.61,1.61S8.346,19.445,7.458,19.445z
			 M7.458,17.115c-0.397,0-0.72,0.323-0.72,0.72s0.323,0.72,0.72,0.72s0.72-0.323,0.72-0.72S7.855,17.115,7.458,17.115z"/>
	</g>
	<g>
		<circle cx="2.753" cy="17.835" r="1.165"/>
		<path d="M2.753,19.445c-0.888,0-1.61-0.723-1.61-1.61s0.723-1.61,1.61-1.61s1.61,0.723,1.61,1.61S3.641,19.445,2.753,19.445z
			 M2.753,17.115c-0.397,0-0.72,0.323-0.72,0.72s0.323,0.72,0.72,0.72s0.72-0.323,0.72-0.72S3.15,17.115,2.753,17.115z"/>
	</g>
	<g>
		<circle cx="10.112" cy="11.19" r="1.873"/>
		<path d="M10.112,13.508c-1.278,0-2.318-1.04-2.318-2.318c0-1.278,1.04-2.318,2.318-2.318s2.318,1.04,2.318,2.318
			C12.43,12.468,11.39,13.508,10.112,13.508z M10.112,9.762c-0.787,0-1.427,0.64-1.427,1.427s0.64,1.428,1.427,1.428
			c0.787,0,1.427-0.641,1.427-1.428S10.898,9.762,10.112,9.762z"/>
	</g>
	<g>
		<circle cx="4.424" cy="11.19" r="1.873"/>
		<path d="M4.424,13.508c-1.278,0-2.318-1.04-2.318-2.318c0-1.278,1.04-2.318,2.318-2.318s2.318,1.04,2.318,2.318
			C6.742,12.468,5.702,13.508,4.424,13.508z M4.424,9.762c-0.787,0-1.428,0.64-1.428,1.427s0.641,1.428,1.428,1.428
			s1.428-0.641,1.428-1.428S5.211,9.762,4.424,9.762z"/>
	</g>
	<g>
		<rect x="6.583" y="5.563" transform="matrix(0.8024 0.5968 -0.5968 0.8024 6.0399 -2.5565)" width="0.594" height="4.558"/>
	</g>
	<g>
		<rect x="9.881" y="6.707" width="0.594" height="2.795"/>
	</g>
	<g>
		<rect x="11.065" y="7.552" transform="matrix(0.5987 0.8009 -0.8009 0.5987 11.6458 -7.5484)" width="4.583" height="0.593"/>
	</g>
	<g>
		<rect x="3.072" y="13.739" transform="matrix(0.9739 0.227 -0.227 0.9739 3.554 -0.3661)" width="0.594" height="3.057"/>
	</g>
	<g>
		<rect x="10.705" y="11.477" transform="matrix(0.6311 0.7757 -0.7757 0.6311 15.7255 -2.9859)" width="0.594" height="7.126"/>
	</g>
	<g>
		<rect x="13.434" y="13.285" transform="matrix(0.9009 0.434 -0.434 0.9009 7.9959 -4.4445)" width="0.594" height="4.006"/>
	</g>
	<g>
		<rect x="15.169" y="14.971" transform="matrix(0.244 0.9698 -0.9698 0.244 27.4334 -4.6568)" width="3.069" height="0.594"/>
	</g>
</g>
</svg>
