<?xml version="1.0" encoding="utf-8"?>
<!-- Generator: Adobe Illustrator 15.1.0, SVG Export Plug-In . SVG Version: 6.00 Build 0)  -->
<!DOCTYPE svg PUBLIC "-//W3C//DTD SVG 1.1//EN" "http://www.w3.org/Graphics/SVG/1.1/DTD/svg11.dtd">
<svg version="1.1" id="Layer_1" xmlns="http://www.w3.org/2000/svg" xmlns:xlink="http://www.w3.org/1999/xlink" x="0px" y="0px"
	 width="20px" height="20px" viewBox="0 0 20 20" enable-background="new 0 0 20 20" xml:space="preserve">
<g>
	<g>
		<path fill="#010101" d="M19.018,17.23c0,1.021-0.834,1.854-1.852,1.854H2.868c-1.018,0-1.85-0.832-1.85-1.854V3.097
			c0-1.02,0.832-1.851,1.85-1.851h14.296c1.018,0,1.85,0.832,1.85,1.851V17.23H19.018z"/>
	</g>
	<g>
		<path fill="#010101" d="M17.166,19.574H2.868c-1.291,0-2.34-1.052-2.34-2.344V3.097c0-1.291,1.05-2.341,2.34-2.341h14.296
			c1.29,0,2.34,1.05,2.34,2.341l0.004,14.133C19.508,18.522,18.457,19.574,17.166,19.574z M2.868,1.736
			c-0.75,0-1.36,0.61-1.36,1.361V17.23c0,0.752,0.61,1.363,1.36,1.363h14.298c0.72,0,1.311-0.562,1.358-1.27l-0.001-0.094V3.097
			c0-0.75-0.609-1.361-1.359-1.361H2.868z"/>
	</g>
</g>
<g>
	<path fill="#FFFFFF" d="M16.451,5.375c-2.896,0-4.475,0-4.475,0c-0.242,0-0.482-0.304-0.482-0.615c0-0.458,0.24-0.613,0.482-0.613
		c2.896,0,4.475,0,4.475,0c0.24,0,0.482,0.153,0.482,0.613C16.934,5.071,16.691,5.375,16.451,5.375L16.451,5.375z"/>
</g>
<g>
	<path fill="#FFFFFF" d="M16.451,9.308c-2.896,0-4.475,0-4.475,0c-0.242,0-0.482-0.305-0.482-0.614c0-0.458,0.24-0.613,0.482-0.613
		c2.896,0,4.475,0,4.475,0c0.24,0,0.482,0.151,0.482,0.613C16.934,9.003,16.691,9.308,16.451,9.308L16.451,9.308z"/>
</g>
<g>
	<path fill="#FFFFFF" d="M16.367,13.24c-3.401,0-12.664,0-12.664,0c-0.284,0-0.565-0.305-0.565-0.613
		c0-0.459,0.286-0.613,0.565-0.613c3.402,0,12.664,0,12.664,0c0.285,0,0.564,0.152,0.564,0.613
		C16.934,12.934,16.652,13.24,16.367,13.24L16.367,13.24z"/>
</g>
<g>
	<path fill="#FFFFFF" d="M16.367,17.172c-3.401,0-12.664,0-12.664,0c-0.284,0-0.565-0.307-0.565-0.613
		c0-0.459,0.286-0.613,0.565-0.613c3.402,0,12.664,0,12.664,0c0.285,0,0.564,0.152,0.564,0.613
		C16.934,16.863,16.652,17.172,16.367,17.172L16.367,17.172z"/>
</g>
<g>
	<rect x="3.266" y="4.288" fill="#FFFFFF" width="5.224" height="5.143"/>
</g>
</svg>
