<?xml version="1.0" encoding="utf-8"?>
<!-- Generator: Adobe Illustrator 15.1.0, SVG Export Plug-In . SVG Version: 6.00 Build 0)  -->
<!DOCTYPE svg PUBLIC "-//W3C//DTD SVG 1.1//EN" "http://www.w3.org/Graphics/SVG/1.1/DTD/svg11.dtd">
<svg version="1.1" id="Layer_1" xmlns="http://www.w3.org/2000/svg" xmlns:xlink="http://www.w3.org/1999/xlink" x="0px" y="0px"
	 width="20px" height="20px" viewBox="0 0 20 20" enable-background="new 0 0 20 20" xml:space="preserve">
<g>
	<path d="M6.049,15.977v0.838h11.775V7.398h-3.828c-0.486,0-0.883-0.397-0.883-0.885V2.686H6.047v1.021l-1.179,0.02V2.392
		c0-0.489,0.396-0.885,0.885-0.885h8.244c0.487,0,1.168,0.286,1.512,0.626l2.867,2.869C18.715,5.343,19,6.023,19,6.511v10.599
		c0,0.486-0.396,0.888-0.885,0.888H5.75c-0.488,0-0.885-0.397-0.885-0.888v-1.135L6.049,15.977z"/>
</g>
<g>
	<path d="M12.193,8.573h2.979c0.166,0,0.295,0.131,0.295,0.294v0.589c0,0.166-0.131,0.294-0.295,0.294h-2.979
		c-0.166,0-0.295-0.128-0.295-0.294V8.868C11.898,8.703,12.027,8.573,12.193,8.573z"/>
</g>
<g>
	<path d="M15.469,11.223v0.592c0,0.166-0.129,0.295-0.295,0.295h-3.855c-0.164,0-0.291-0.133-0.291-0.295v-0.592
		c0-0.164,0.127-0.295,0.291-0.295h3.855C15.34,10.928,15.469,11.059,15.469,11.223z"/>
</g>
<g>
	<path d="M15.469,13.579v0.586c0,0.17-0.129,0.297-0.295,0.297h-5.077c-0.166,0-0.294-0.13-0.294-0.297v-0.586
		c0-0.168,0.129-0.295,0.294-0.295h5.079C15.34,13.282,15.469,13.413,15.469,13.579z"/>
</g>
<g>
	<path d="M14.293,6.22h3.457c-0.057-0.157-0.137-0.313-0.201-0.376l-2.881-2.881c-0.064-0.064-0.221-0.147-0.375-0.202V6.22z"/>
</g>
<g>
	<circle cx="5.457" cy="9.674" r="4.457"/>
	<path d="M5.457,14.593c-2.712,0-4.918-2.207-4.918-4.919s2.207-4.918,4.918-4.918s4.918,2.207,4.918,4.918
		S8.169,14.593,5.457,14.593z M5.457,5.678c-2.203,0-3.996,1.792-3.996,3.996s1.792,3.995,3.996,3.995s3.996-1.792,3.996-3.995
		S7.66,5.678,5.457,5.678z"/>
</g>
<g>
	<polygon fill="#FFFFFF" points="6.953,12.626 4.526,10.678 4.526,6.636 6.198,6.636 6.198,9.876 8,11.323 	"/>
</g>
</svg>
