<?xml version="1.0" encoding="utf-8"?>
<!-- Generator: Adobe Illustrator 15.1.0, SVG Export Plug-In . SVG Version: 6.00 Build 0)  -->
<!DOCTYPE svg PUBLIC "-//W3C//DTD SVG 1.1//EN" "http://www.w3.org/Graphics/SVG/1.1/DTD/svg11.dtd">
<svg version="1.1" id="Layer_1" xmlns="http://www.w3.org/2000/svg" xmlns:xlink="http://www.w3.org/1999/xlink" x="0px" y="0px"
	 width="32px" height="32px" viewBox="0 0 32 32" enable-background="new 0 0 32 32" xml:space="preserve">
<g>
	<path fill="#010101" d="M25.54,9.242c-5.208,0-7.194,0-7.194,0c-0.434,0-0.867-0.396-0.867-0.791c0-0.593,0.438-0.79,0.867-0.79
		c5.209,0,7.194,0,7.194,0c0.435,0,0.868,0.197,0.868,0.79C26.408,8.847,25.975,9.242,25.54,9.242L25.54,9.242z"/>
</g>
<g>
	<path fill="#010101" d="M25.54,13.46c-5.208,0-7.194,0-7.194,0c-0.434,0-0.867-0.395-0.867-0.79c0-0.593,0.438-0.79,0.867-0.79
		c5.209,0,7.194,0,7.194,0c0.435,0,0.868,0.197,0.868,0.79C26.408,13.065,25.975,13.46,25.54,13.46L25.54,13.46z"/>
</g>
<g>
	<path fill="#010101" d="M25.54,17.68c-5.208,0-7.194,0-7.194,0c-0.434,0-0.867-0.396-0.867-0.791c0-0.593,0.438-0.792,0.867-0.792
		c5.209,0,7.194,0,7.194,0c0.435,0,0.868,0.198,0.868,0.792C26.408,17.283,25.975,17.68,25.54,17.68L25.54,17.68z"/>
</g>
<g>
	<path fill="#010101" d="M25.54,21.896c-5.208,0-19.382,0-19.382,0c-0.434,0-0.868-0.396-0.868-0.789
		c0-0.594,0.435-0.791,0.868-0.791c5.207,0,19.382,0,19.382,0c0.435,0,0.868,0.197,0.868,0.791
		C26.408,21.501,25.975,21.896,25.54,21.896L25.54,21.896z"/>
</g>
<g>
	<path fill="#010101" d="M25.54,26.113c-5.208,0-19.382,0-19.382,0c-0.434,0-0.868-0.396-0.868-0.791
		c0-0.592,0.435-0.789,0.868-0.789c5.207,0,19.382,0,19.382,0c0.435,0,0.868,0.197,0.868,0.789
		C26.408,25.719,25.975,26.113,25.54,26.113L25.54,26.113z"/>
</g>
<g>
	<g>
		<path fill="#010101" d="M27.043,30.996H5.161c-1.976,0-3.584-1.608-3.584-3.585V5.776c0-1.976,1.608-3.584,3.584-3.584h21.882
			c1.977,0,3.585,1.608,3.585,3.584v21.635C30.628,29.388,29.02,30.996,27.043,30.996z M5.161,3.692
			c-1.149,0-2.084,0.935-2.084,2.084v21.635c0,1.149,0.935,2.085,2.084,2.085h21.882c1.149,0,2.085-0.936,2.085-2.085V5.776
			c0-1.149-0.936-2.084-2.085-2.084H5.161z"/>
	</g>
</g>
<g>
	<rect x="5.771" y="7.587" fill="#010101" width="9.269" height="9.903"/>
</g>
</svg>
