<?xml version="1.0" encoding="utf-8"?>
<!-- Generator: Adobe Illustrator 15.1.0, SVG Export Plug-In . SVG Version: 6.00 Build 0)  -->
<!DOCTYPE svg PUBLIC "-//W3C//DTD SVG 1.1//EN" "http://www.w3.org/Graphics/SVG/1.1/DTD/svg11.dtd">
<svg version="1.1" id="Layer_1" xmlns="http://www.w3.org/2000/svg" xmlns:xlink="http://www.w3.org/1999/xlink" x="0px" y="0px"
	 width="32px" height="32px" viewBox="0 0 32 32" enable-background="new 0 0 32 32" xml:space="preserve">
<g>
	<path fill="#010101" d="M27.598,31.396c-22.966,0-22.966,0-22.966,0c-2.143,0-3.674-1.538-3.674-3.691c0-23.378,0-23.378,0-23.378
		c0-1.846,1.532-3.384,3.674-3.384c22.966,0,22.966,0,22.966,0c2.144,0,3.674,1.538,3.674,3.384c0,23.378,0,23.378,0,23.378
		C31.271,29.857,29.741,31.396,27.598,31.396L27.598,31.396z M4.631,3.403c-0.612,0-1.225,0.307-1.225,0.923
		c0,23.378,0,23.378,0,23.378c0,0.615,0.612,1.229,1.225,1.229c22.966,0,22.966,0,22.966,0c0.611,0,1.225-0.614,1.225-1.229
		c0-23.378,0-23.378,0-23.378c0-0.616-0.613-0.923-1.225-0.923H4.631z"/>
	<path fill="#010101" d="M23.064,12.039c-6.859,0-6.859,0-6.859,0c-0.571,0-1.143-0.574-1.143-1.148
		c0-0.861,0.572-1.148,1.143-1.148c6.859,0,6.859,0,6.859,0c0.571,0,1.143,0.287,1.143,1.148
		C24.207,11.465,23.636,12.039,23.064,12.039L23.064,12.039z"/>
	<path fill="#010101" d="M23.064,17.207c-6.859,0-6.859,0-6.859,0c-0.571,0-1.143-0.574-1.143-1.148
		c0-0.861,0.572-1.148,1.143-1.148c6.859,0,6.859,0,6.859,0c0.571,0,1.143,0.287,1.143,1.148
		C24.207,16.633,23.636,17.207,23.064,17.207L23.064,17.207z"/>
	<path fill="#010101" d="M23.064,22.375c-6.859,0-6.859,0-6.859,0c-0.571,0-1.143-0.574-1.143-1.148
		c0-0.861,0.572-1.148,1.143-1.148c6.859,0,6.859,0,6.859,0c0.571,0,1.143,0.287,1.143,1.148
		C24.207,21.801,23.636,22.375,23.064,22.375L23.064,22.375z"/>
	<path fill="#010101" d="M8.489,15.197c0-3.445,0-3.445,0-3.445c0-1.436,1.144-2.297,2.287-2.297s2,0.861,2,2.297
		c0,3.445,0,3.445,0,3.445c0,1.148-0.857,2.01-2,2.01S8.489,16.346,8.489,15.197L8.489,15.197z"/>
</g>
</svg>
