<?xml version="1.0" encoding="utf-8"?>
<!-- Generator: Adobe Illustrator 15.1.0, SVG Export Plug-In . SVG Version: 6.00 Build 0)  -->
<!DOCTYPE svg PUBLIC "-//W3C//DTD SVG 1.1//EN" "http://www.w3.org/Graphics/SVG/1.1/DTD/svg11.dtd">
<svg version="1.1" id="Layer_1" xmlns="http://www.w3.org/2000/svg" xmlns:xlink="http://www.w3.org/1999/xlink" x="0px" y="0px"
	 width="32px" height="32px" viewBox="0 0 32 32" enable-background="new 0 0 32 32" xml:space="preserve">
<path fill="#010101" d="M0.413,12.142c2.638,4.53-0.388-0.666,2.914,5.003c0.267,0.528,0.704,0.575,1.166,0.294
	c5.245-2.648,5.245-2.648,5.245-2.648c1.028-0.742-0.034-2.367-1.165-1.766c-2.883,1.532-2.914,1.472-2.914,1.472
	C6.241,8.61,11.194,4.196,17.314,4.196c6.409,0,11.654,5.298,11.654,11.772c0,6.475-5.245,11.772-11.654,11.772
	c-4.955,0-9.034-2.942-10.782-7.063c-2.331,0.589-2.331,0.589-2.331,0.589c2.04,5.003,6.993,8.829,13.113,8.829
	c7.575,0,13.984-6.475,13.984-14.126c0-7.946-6.409-14.127-13.984-14.127l0,0c-6.994,0-12.822,5.003-13.987,11.479
	c-1.166-2.355-1.166-2.355-1.166-2.355s-0.67-0.559-1.311-0.168C-0.099,11.376,0.413,12.142,0.413,12.142z"/>
<path fill="#010101" d="M16.185,17.139c3.14,3.173,3.14,3.173,3.14,3.173C19.61,20.6,19.896,20.6,20.182,20.6
	c0.286,0,0.571,0,0.856-0.288c0.286-0.288,0.286-1.153,0-1.73c-2.855-2.884-2.855-2.884-2.855-2.884c0-6.634,0-6.634,0-6.634
	c0-0.577-0.571-1.154-1.142-1.154c-0.856,0-1.141,0.577-1.141,1.154c0,6.923,0,6.923,0,6.923l0,0
	C15.9,16.562,15.9,16.851,16.185,17.139L16.185,17.139z"/>
</svg>
