<?xml version="1.0" encoding="utf-8"?>
<!-- Generator: Adobe Illustrator 15.1.0, SVG Export Plug-In . SVG Version: 6.00 Build 0)  -->
<!DOCTYPE svg PUBLIC "-//W3C//DTD SVG 1.1//EN" "http://www.w3.org/Graphics/SVG/1.1/DTD/svg11.dtd">
<svg version="1.1" id="Layer_1" xmlns="http://www.w3.org/2000/svg" xmlns:xlink="http://www.w3.org/1999/xlink" x="0px" y="0px"
	 width="32px" height="32px" viewBox="0 0 32 32" enable-background="new 0 0 32 32" xml:space="preserve">
<path d="M20.783,10.125c-11.414,0-11.414,0-11.414,0c-0.38,0-0.761-0.381-0.761-0.761c0-0.761,0.38-1.142,0.761-1.142
	c11.414,0,11.414,0,11.414,0c0.761,0,1.141,0.38,1.141,1.142C21.924,9.744,21.544,10.125,20.783,10.125L20.783,10.125z"/>
<path d="M20.783,15.072c-11.414,0-11.414,0-11.414,0c-0.38,0-0.761-0.761-0.761-1.142c0-0.76,0.38-1.142,0.761-1.142
	c11.414,0,11.414,0,11.414,0c0.761,0,1.141,0.381,1.141,1.142C21.924,14.311,21.544,15.072,20.783,15.072L20.783,15.072z"/>
<path d="M15.836,19.638c-6.466,0-6.466,0-6.466,0c-0.38,0-0.761-0.382-0.761-1.143c0-0.381,0.38-1.142,0.761-1.142
	c6.466,0,6.466,0,6.466,0c0.382,0,0.762,0.761,0.762,1.142C16.598,19.256,16.218,19.638,15.836,19.638L15.836,19.638z"/>
<path d="M4.424,29.151c-0.38,0-1.141-0.762-1.141-1.143c0-23.212,0-23.212,0-23.212c0-0.761,0.76-1.141,1.141-1.141
	c23.206,0,23.206,0,23.206,0c0.76,0,1.141,0.38,1.141,1.141c0,11.798,0,11.798,0,11.798c2.282,0,2.282,0,2.282,0
	c0-11.798,0-11.798,0-11.798c0-2.284-1.521-3.806-3.423-3.806c-23.206,0-23.206,0-23.206,0c-1.901,0-3.422,1.522-3.422,3.806
	c0,23.212,0,23.212,0,23.212c0,1.902,1.521,3.425,3.422,3.425c13.697,0,13.697,0,13.697,0c0-2.282,0-2.282,0-2.282H4.424z"/>
<path d="M24.587,31.055c3.043,0,5.325-2.285,5.325-5.329c0-5.708,0-5.708,0-5.708c0-0.38,0-0.762-0.38-0.762
	c-4.566-1.521-4.566-1.521-4.566-1.521l0,0l0,0l0,0c0,0,0,0-0.379,0l0,0l0,0l0,0l0,0l0,0l0,0l0,0l0,0l0,0
	c-4.944,1.521-4.944,1.521-4.944,1.521c-0.382,0-0.382,0.382-0.382,0.762c0,5.708,0,5.708,0,5.708
	C19.261,28.77,21.544,31.055,24.587,31.055L24.587,31.055z"/>
</svg>
