<?xml version="1.0" encoding="utf-8"?>
<!-- Generator: Adobe Illustrator 15.1.0, SVG Export Plug-In . SVG Version: 6.00 Build 0)  -->
<!DOCTYPE svg PUBLIC "-//W3C//DTD SVG 1.1//EN" "http://www.w3.org/Graphics/SVG/1.1/DTD/svg11.dtd">
<svg version="1.1" id="Layer_1" xmlns="http://www.w3.org/2000/svg" xmlns:xlink="http://www.w3.org/1999/xlink" x="0px" y="0px"
	 width="32px" height="32px" viewBox="0 0 32 32" enable-background="new 0 0 32 32" xml:space="preserve">
<path fill="#010101" d="M26.971,1.313c-2.105,0-3.813,1.707-3.813,3.813c0,0.673,0.189,1.297,0.496,1.846l-2.988,2.988
	c-0.791-0.525-1.737-0.833-2.758-0.833c-1.211,0-2.308,0.449-3.173,1.166l-2.902-2.902c0.303-0.475,0.484-1.036,0.484-1.642
	c0-1.691-1.371-3.063-3.063-3.063S6.192,4.056,6.192,5.748s1.371,3.063,3.063,3.063c0.586,0,1.129-0.173,1.595-0.459l2.942,2.942
	c-0.465,0.674-0.747,1.473-0.833,2.332H8.136c-0.273-1.838-1.842-3.252-3.756-3.252c-2.105,0-3.813,1.707-3.813,3.813
	s1.707,3.813,3.813,3.813c1.825,0,3.347-1.285,3.721-2.998h4.896c0.372,2.099,2.047,3.729,4.162,4.05v3.83
	c-1.649,0.419-2.875,1.902-2.875,3.683c0,2.105,1.707,3.813,3.812,3.813c2.105,0,3.813-1.707,3.813-3.813
	c0-1.955-1.478-3.549-3.374-3.769v-3.732c2.463-0.311,4.374-2.389,4.374-4.937c0-1.244-0.471-2.367-1.222-3.242l2.848-2.848
	c0.663,0.555,1.505,0.902,2.437,0.902c2.105,0,3.813-1.707,3.813-3.813S29.076,1.313,26.971,1.313z M17.908,17.875
	c-2.07,0-3.75-1.679-3.75-3.75c0-2.071,1.679-3.75,3.75-3.75s3.75,1.679,3.75,3.75C21.658,16.196,19.979,17.875,17.908,17.875z"/>
</svg>
