<?xml version="1.0" encoding="utf-8"?>
<!-- Generator: Adobe Illustrator 15.1.0, SVG Export Plug-In . SVG Version: 6.00 Build 0)  -->
<!DOCTYPE svg PUBLIC "-//W3C//DTD SVG 1.1//EN" "http://www.w3.org/Graphics/SVG/1.1/DTD/svg11.dtd">
<svg version="1.1" id="Layer_1" xmlns="http://www.w3.org/2000/svg" xmlns:xlink="http://www.w3.org/1999/xlink" x="0px" y="0px"
	 width="32px" height="32px" viewBox="0 0 32 32" enable-background="new 0 0 32 32" xml:space="preserve">
<g>
	<g>
		<path d="M9.486,25.852v1.364h19.131V11.911h-6.219c-0.791,0-1.438-0.643-1.438-1.435V4.257H9.486v1.659L7.571,5.95V3.78
			c0-0.793,0.644-1.436,1.437-1.436H22.4c0.791,0,1.896,0.463,2.451,1.017l4.664,4.664c0.551,0.553,1.017,1.659,1.017,2.451v17.219
			c0,0.793-0.644,1.436-1.437,1.436H9.007c-0.793,0-1.437-0.643-1.437-1.436v-1.842L9.486,25.852z M19.468,13.823h4.847
			c0.271,0,0.479,0.21,0.479,0.478v0.958c0,0.269-0.208,0.479-0.479,0.479h-4.847c-0.269,0-0.479-0.21-0.479-0.479v-0.958
			C18.989,14.033,19.199,13.823,19.468,13.823z M24.79,18.127v0.959c0,0.27-0.208,0.479-0.478,0.479H18.05
			c-0.271,0-0.479-0.209-0.479-0.479v-0.959c0-0.268,0.209-0.477,0.479-0.477h6.265C24.582,17.65,24.79,17.859,24.79,18.127z
			 M24.79,21.956v0.954c0,0.271-0.208,0.48-0.478,0.48h-8.25c-0.271,0-0.479-0.209-0.479-0.48v-0.954
			c0-0.271,0.208-0.479,0.479-0.479h8.25C24.582,21.477,24.79,21.688,24.79,21.956z M22.879,9.998h5.619
			c-0.089-0.254-0.225-0.508-0.329-0.612l-4.679-4.68c-0.104-0.104-0.358-0.239-0.611-0.328V9.998z"/>
	</g>
</g>
<g>
	<path d="M8.523,23.602c-4.406,0-7.991-3.585-7.991-7.991c0-4.406,3.584-7.991,7.991-7.991s7.991,3.584,7.991,7.991
		C16.514,20.017,12.929,23.602,8.523,23.602z M8.523,9.12c-3.579,0-6.491,2.912-6.491,6.491c0,3.579,2.912,6.491,6.491,6.491
		s6.491-2.912,6.491-6.491C15.014,12.032,12.102,9.12,8.523,9.12z"/>
</g>
<g>
	<polygon points="11.334,19.935 7.62,16.952 7.62,11.861 9.12,11.861 9.12,16.233 12.274,18.765 	"/>
</g>
</svg>
