<?xml version="1.0" encoding="utf-8"?>
<!-- Generator: Adobe Illustrator 15.1.0, SVG Export Plug-In . SVG Version: 6.00 Build 0)  -->
<!DOCTYPE svg PUBLIC "-//W3C//DTD SVG 1.1//EN" "http://www.w3.org/Graphics/SVG/1.1/DTD/svg11.dtd">
<svg version="1.1" id="Layer_1" xmlns="http://www.w3.org/2000/svg" xmlns:xlink="http://www.w3.org/1999/xlink" x="0px" y="0px"
	 width="20px" height="20px" viewBox="0 0 20 20" enable-background="new 0 0 20 20" xml:space="preserve">
<path fill="#010101" d="M11.969,13.42c-4.726,0-3.71,0-3.71,0c-0.451,0-0.673-0.453-0.673-0.676c0-0.449,0.223-0.676,0.673-0.676
	c4.726,0,3.71,0,3.71,0c0.227,0,0.674,0.229,0.674,0.676C12.645,12.969,12.194,13.42,11.969,13.42L11.969,13.42z"/>
<path fill="#010101" d="M11.969,15.896c-4.726,0-3.71,0-3.71,0c-0.451,0-0.673-0.227-0.673-0.678s0.223-0.672,0.673-0.672
	c4.726,0,3.71,0,3.71,0c0.227,0,0.674,0.225,0.674,0.672C12.645,15.672,12.194,15.896,11.969,15.896L11.969,15.896z"/>
<path fill="#010101" d="M17.875,5.679c-2.25,0-2.25,0-2.25,0c0-3.375,0-3.375,0-3.375c0-0.675-0.451-1.125-1.125-1.125c-9,0-9,0-9,0
	c-0.45,0-1.125,0.45-1.125,1.125c0,3.375,0,3.375,0,3.375c-2.25,0-2.25,0-2.25,0C1.675,5.679,1,6.131,1,6.804c0,6.53,0,6.53,0,6.53
	c0,0.674,0.675,1.125,1.125,1.125c2.25,0,2.25,0,2.25,0c0,3.604,0,3.604,0,3.604c0,0.674,0.675,1.125,1.125,1.125c9,0,9,0,9,0
	c0.674,0,1.125-0.451,1.125-1.125c0-3.604,0-3.604,0-3.604c2.25,0,2.25,0,2.25,0c0.676,0,1.125-0.451,1.125-1.125
	c0-6.53,0-6.53,0-6.53c0-0.673-0.449-1.125-0.898-1.125H17.875z M13.77,14.094c0,3.379,0,3.379,0,3.379c-7.264,0-7.535,0-7.535,0
	c0-3.379,0-3.379,0-3.379c0-3.826,0-3.826,0-3.826c6.752,0,7.535,0,7.535,0V14.094z M13.77,6.043c-7.535,0-7.535,0-7.535,0
	c0-3.151,0-3.151,0-3.151c7.535,0,7.535,0,7.535,0V6.043z M16.244,9.28c-0.451,0-0.902-0.449-0.902-0.898
	c0-0.449,0.451-0.901,0.902-0.901c0.449,0,0.896,0.453,0.896,0.901C17.143,8.831,16.693,9.28,16.244,9.28L16.244,9.28z"/>
</svg>
