<?xml version="1.0" encoding="utf-8"?>
<!-- Generator: Adobe Illustrator 15.1.0, SVG Export Plug-In . SVG Version: 6.00 Build 0)  -->
<!DOCTYPE svg PUBLIC "-//W3C//DTD SVG 1.1//EN" "http://www.w3.org/Graphics/SVG/1.1/DTD/svg11.dtd">
<svg version="1.1" id="Layer_1" xmlns="http://www.w3.org/2000/svg" xmlns:xlink="http://www.w3.org/1999/xlink" x="0px" y="0px"
	 width="32px" height="32px" viewBox="0 0 32 32" enable-background="new 0 0 32 32" xml:space="preserve">
<path fill="#010101" d="M20.208,22.385c-7.913,0-7.913,0-7.913,0c-0.754,0-1.131-0.754-1.131-1.131c0-0.754,0.376-1.131,1.131-1.131
	c7.913,0,7.913,0,7.913,0c0.377,0,1.131,0.377,1.131,1.131C21.339,21.631,20.585,22.385,20.208,22.385L20.208,22.385z"/>
<path fill="#010101" d="M20.208,26.533c-7.913,0-7.913,0-7.913,0c-0.754,0-1.131-0.377-1.131-1.133c0-0.752,0.376-1.129,1.131-1.129
	c7.913,0,7.913,0,7.913,0c0.377,0,1.131,0.377,1.131,1.129C21.339,26.156,20.585,26.533,20.208,26.533L20.208,26.533z"/>
<path fill="#010101" d="M29.251,8.813c-3.768,0-3.768,0-3.768,0c0-5.655,0-5.655,0-5.655c0-1.131-0.754-1.885-1.885-1.885
	c-15.072,0-15.072,0-15.072,0c-0.753,0-1.884,0.754-1.884,1.885c0,5.655,0,5.655,0,5.655c-3.768,0-3.768,0-3.768,0
	c-0.753,0-1.884,0.754-1.884,1.885c0,10.933,0,10.933,0,10.933c0,1.131,1.131,1.885,1.884,1.885c3.768,0,3.768,0,3.768,0
	c0,6.033,0,6.033,0,6.033c0,1.131,1.131,1.885,1.884,1.885c15.072,0,15.072,0,15.072,0c1.131,0,1.885-0.754,1.885-1.885
	c0-6.033,0-6.033,0-6.033c3.768,0,3.768,0,3.768,0c1.131,0,1.885-0.754,1.885-1.885c0-10.933,0-10.933,0-10.933
	c0-1.131-0.754-1.885-1.508-1.885H29.251z M23.222,23.516c0,5.656,0,5.656,0,5.656c-14.319,0-14.319,0-14.319,0
	c0-5.656,0-5.656,0-5.656c0-6.404,0-6.404,0-6.404c14.319,0,14.319,0,14.319,0V23.516z M23.222,8.813c-14.319,0-14.319,0-14.319,0
	c0-5.278,0-5.278,0-5.278c14.319,0,14.319,0,14.319,0V8.813z M27.366,14.845c-0.752,0-1.506-0.754-1.506-1.508
	c0-0.754,0.754-1.508,1.506-1.508c0.756,0,1.508,0.754,1.508,1.508C28.874,14.091,28.122,14.845,27.366,14.845L27.366,14.845z"/>
</svg>
