<?xml version="1.0" encoding="utf-8"?>
<!-- Generator: Adobe Illustrator 15.1.0, SVG Export Plug-In . SVG Version: 6.00 Build 0)  -->
<!DOCTYPE svg PUBLIC "-//W3C//DTD SVG 1.1//EN" "http://www.w3.org/Graphics/SVG/1.1/DTD/svg11.dtd">
<svg version="1.1" id="Layer_1" xmlns="http://www.w3.org/2000/svg" xmlns:xlink="http://www.w3.org/1999/xlink" x="0px" y="0px"
	 width="32px" height="32px" viewBox="0 0 32 32" enable-background="new 0 0 32 32" xml:space="preserve">
<g>
	<path fill="#39974A" d="M12.039,16.076c0,0.529,0,1.328,0,2.125c-1.322,0-1.322,0-1.322,0c0,10.357,0,10.357,0,10.357
		c10.569,0,10.569,0,10.569,0c0-10.357,0-10.357,0-10.357c-1.322,0-1.322,0-1.322,0c0-0.797,0-1.596,0-2.125
		c0-1.594-1.217-3.985-3.962-3.986C13.254,12.089,12.039,14.481,12.039,16.076z M18.055,16.572c0,1.629,0,1.629,0,1.629
		c-4.048,0-4.048,0-4.048,0c0-1.629,0-1.629,0-1.629c0-0.815,0.612-2.035,2.023-2.037C17.441,14.535,18.055,15.757,18.055,16.572z
		 M15.208,21.121c1.585,0,1.585,0,1.585,0c0,1.329,0,1.329,0,1.329c1.055-0.532,1.055-0.532,1.055-0.532
		c0.527,1.596,0.527,1.596,0.527,1.596c-1.32,0.264-1.32,0.264-1.32,0.264c0.793,1.063,0.793,1.063,0.793,1.063
		c-1.057,0.8-1.057,0.8-1.057,0.8C16,24.575,16,24.575,16,24.575c-0.792,1.063-0.792,1.063-0.792,1.063
		c-1.057-0.801-1.057-0.801-1.057-0.801c0.793-1.063,0.793-1.063,0.793-1.063c-1.32-0.528-1.32-0.528-1.32-0.528
		c0.527-1.329,0.527-1.329,0.527-1.329c1.057,0.532,1.057,0.532,1.057,0.532C15.208,21.121,15.208,21.121,15.208,21.121
		L15.208,21.121z"/>
</g>
<g>
	<path fill="#39974A" d="M24.814,25.736v-1.5c2.827,0,5.127-2.299,5.127-5.125c0-2.39-1.632-4.444-3.969-4.994l-1.043-0.246
		l0.588-0.896c0.331-0.505,0.506-1.093,0.506-1.701c0-1.746-1.421-3.167-3.168-3.167c-0.756,0-1.482,0.271-2.048,0.765L20.019,9.56
		l-0.397-0.968c-1.101-2.674-3.675-4.402-6.559-4.402c-3.907,0-7.085,3.178-7.085,7.085c0,0.199,0.014,0.397,0.028,0.608
		l0.035,0.514l-0.467,0.217c-2.135,0.992-3.514,3.158-3.514,5.517c0,3.366,2.739,6.105,6.105,6.105v1.5
		c-4.193,0-7.605-3.412-7.605-7.605c0-2.767,1.523-5.321,3.922-6.644c-0.002-0.071-0.004-0.142-0.004-0.212
		c0-4.734,3.851-8.585,8.585-8.585c3.185,0,6.057,1.738,7.55,4.497c0.681-0.377,1.451-0.579,2.243-0.579
		c2.574,0,4.668,2.094,4.668,4.667c0,0.573-0.105,1.135-0.309,1.661c2.529,0.981,4.227,3.403,4.227,6.176
		C31.441,22.765,28.469,25.736,24.814,25.736z"/>
</g>
</svg>
