<?xml version="1.0" encoding="utf-8"?>
<!-- Generator: Adobe Illustrator 15.1.0, SVG Export Plug-In . SVG Version: 6.00 Build 0)  -->
<!DOCTYPE svg PUBLIC "-//W3C//DTD SVG 1.1//EN" "http://www.w3.org/Graphics/SVG/1.1/DTD/svg11.dtd">
<svg version="1.1" id="Layer_1" xmlns="http://www.w3.org/2000/svg" xmlns:xlink="http://www.w3.org/1999/xlink" x="0px" y="0px"
	 width="32px" height="32px" viewBox="0 0 32 32" enable-background="new 0 0 32 32" xml:space="preserve">
<path fill="#010101" d="M30.426,10.77L30.426,10.77L30.426,10.77L30.426,10.77L30.426,10.77L30.426,10.77L30.426,10.77
	c0-0.372,0-0.372,0-0.372l0,0l0,0l0,0c-4.813-4.466-4.813-4.466-4.813-4.466c-4.811-4.838-4.811-4.838-4.811-4.838l0,0l0,0l0,0
	c-0.369,0-0.369,0-0.369,0l0,0l0,0c-0.371,0-0.371,0-0.371,0c-10.362,0-10.362,0-10.362,0c-1.48,0-2.591,1.116-2.591,2.605
	c0,1.86,0,1.86,0,1.86c1.851,0,1.851,0,1.851,0c0-1.117,0-1.117,0-1.117c0-0.744,0.37-1.116,1.11-1.116c9.623,0,9.623,0,9.623,0
	c0,5.955,0,5.955,0,5.955c0,0.744,0.37,1.488,0.37,1.488l2.221,1.116h6.291c0,10.794,0,10.794,0,10.794c0,2.233,0,2.233,0,2.233
	c0,2.605,0,2.605,0,2.605c0,0.372-0.74,1.115-1.11,1.115c-5.921,0-5.921,0-5.921,0l0,0c0,2.233,0,2.233,0,2.233
	c6.291,0,6.291,0,6.291,0c1.481,0,2.592-1.116,2.592-2.604c0-2.979,0-2.979,0-2.979c0-2.232,0-2.232,0-2.232
	c0-11.909,0-11.909,0-11.909S30.426,11.143,30.426,10.77L30.426,10.77L30.426,10.77L30.426,10.77L30.426,10.77z"/>
<path fill="#010101" d="M3.617,13.376c0,0.743,0,1.86,0,2.977c-1.852,0-1.852,0-1.852,0c0,14.515,0,14.515,0,14.515
	c14.805,0,14.805,0,14.805,0c0-14.515,0-14.515,0-14.515c-1.851,0-1.851,0-1.851,0c0-1.116,0-2.234,0-2.977
	c0-2.233-1.705-5.583-5.551-5.584C5.322,7.791,3.617,11.143,3.617,13.376z M12.87,13.376c0,2.977,0,2.977,0,2.977
	c-7.402,0-7.402,0-7.402,0c0-2.977,0-2.977,0-2.977c0-1.49,1.12-3.721,3.701-3.724C11.749,9.65,12.87,11.886,12.87,13.376z
	 M8.058,20.446c2.22,0,2.22,0,2.22,0c0,1.861,0,1.861,0,1.861c1.48-0.745,1.48-0.745,1.48-0.745c0.74,2.232,0.74,2.232,0.74,2.232
	c-1.85,0.373-1.85,0.373-1.85,0.373c1.109,1.489,1.109,1.489,1.109,1.489c-1.48,1.117-1.48,1.117-1.48,1.117
	c-1.11-1.49-1.11-1.49-1.11-1.49c-1.11,1.49-1.11,1.49-1.11,1.49c-1.48-1.117-1.48-1.117-1.48-1.117
	c1.11-1.489,1.11-1.489,1.11-1.489c-1.85-0.743-1.85-0.743-1.85-0.743c0.74-1.862,0.74-1.862,0.74-1.862
	c1.48,0.745,1.48,0.745,1.48,0.745C8.058,20.446,8.058,20.446,8.058,20.446L8.058,20.446z"/>
</svg>
