<?xml version="1.0" encoding="utf-8"?>
<!-- Generator: Adobe Illustrator 15.1.0, SVG Export Plug-In . SVG Version: 6.00 Build 0)  -->
<!DOCTYPE svg PUBLIC "-//W3C//DTD SVG 1.1//EN" "http://www.w3.org/Graphics/SVG/1.1/DTD/svg11.dtd">
<svg version="1.1" id="Layer_1" xmlns="http://www.w3.org/2000/svg" xmlns:xlink="http://www.w3.org/1999/xlink" x="0px" y="0px"
	 width="24px" height="24px" viewBox="0 0 32 32" enable-background="new 0 0 32 32" xml:space="preserve">
<g>
	<path fill="black" d="M12.893,25.063H0.825V13.204h1.322v-1.375c0-1.91,1.497-4.736,4.71-4.736
		c3.215,0.001,4.713,2.827,4.713,4.736v1.375h1.322L12.893,25.063L12.893,25.063z M2.325,23.563h9.068v-8.857h-1.302l-0.021-0.75
		V11.83c0-1.056-0.785-3.235-3.212-3.236c-1.257,0-2.015,0.608-2.428,1.118c-0.578,0.711-0.783,1.561-0.783,2.119v2.875H2.325
		V23.563z"/>
</g>
<g>
	<path fill="black" d="M8.914,14.146H4.681l-0.008-0.191v-1.604c0-0.95,0.687-2.252,2.213-2.254c1.531,0,2.219,1.303,2.219,2.229
		v1.795L8.914,14.146z M5.056,13.763l3.667-0.012v-1.425c0-0.766-0.569-1.846-1.834-1.846c-1.265,0.002-1.832,1.081-1.832,1.846
		L5.056,13.763L5.056,13.763z"/>
</g>
<g>
	<path fill="black" d="M7.6,21.742l-0.742-0.996l-0.742,0.996l-1.454-1.1l0.745-1.002l-1.25-0.502l0.722-1.814l0.938,0.473v-1.152
		l0.25-0.021h1.811l0.024,0.25v0.923l0.951-0.479l0.708,2.138l-1.209,0.242l0.704,0.944L7.6,21.742z M6.858,19.91L7.7,21.039
		l0.657-0.496l-0.88-1.182l1.43-0.285L8.56,18.023l-1.159,0.586v-1.485H6.316v1.485l-1.175-0.592l-0.335,0.842l1.39,0.559
		l-0.838,1.125l0.657,0.496L6.858,19.91z"/>
</g>
<g>
	<path fill="black" d="M6.726,26.32v2.121h21.206V11.474h-6.893c-0.877,0-1.595-0.712-1.595-1.589V2.987H6.726v3.376l-2.124,0.04
		V2.459c0-0.879,0.715-1.592,1.594-1.592h14.845c0.877,0,2.104,0.513,2.719,1.128l5.175,5.171c0.608,0.613,1.128,1.838,1.128,2.718
		v19.087c0,0.881-0.717,1.592-1.594,1.592H6.194c-0.879,0-1.593-0.711-1.593-1.592v-2.646L6.726,26.32z M18.623,14.197h5.674
		c0.299,0,0.528,0.232,0.528,0.531v1.061c0,0.297-0.229,0.531-0.528,0.531h-5.674c-0.298,0-0.527-0.234-0.527-0.531v-1.061
		C18.094,14.429,18.325,14.197,18.623,14.197z M24.823,18.967v1.063c0,0.302-0.231,0.531-0.532,0.531h-7.232
		c-0.3,0-0.53-0.229-0.53-0.531v-1.063c0-0.297,0.23-0.529,0.53-0.529h7.238C24.592,18.438,24.823,18.67,24.823,18.967z
		 M24.823,23.211v1.057c0,0.301-0.231,0.532-0.532,0.532H14.85c-0.3,0-0.532-0.231-0.532-0.532v-1.057
		c0-0.299,0.23-0.531,0.532-0.531h9.441C24.592,22.678,24.823,22.914,24.823,23.211z M21.571,9.353h6.229
		c-0.104-0.282-0.25-0.563-0.366-0.679l-5.188-5.187c-0.113-0.114-0.396-0.265-0.679-0.363v6.229H21.571z"/>
</g>
<path fill="none" stroke="#000000" stroke-linecap="round" stroke-linejoin="round" stroke-miterlimit="10" d="M-39.242,13.3
	c0,0.53,0,1.328,0,2.125c-1.322,0-1.322,0-1.322,0c0,10.358,0,10.358,0,10.358c10.568,0,10.568,0,10.568,0
	c0-10.358,0-10.358,0-10.358c-1.322,0-1.322,0-1.322,0c0-0.797,0-1.595,0-2.125c0-1.595-1.216-3.985-3.962-3.986
	S-39.242,11.705-39.242,13.3z"/>
<path fill="none" stroke="#000000" stroke-width="0.3831" stroke-miterlimit="10" d="M-33.225,13.796c0,1.629,0,1.629,0,1.629
	c-4.049,0-4.049,0-4.049,0c0-1.629,0-1.629,0-1.629c0-0.815,0.612-2.035,2.023-2.037C-33.839,11.759-33.225,12.98-33.225,13.796z"/>
<path fill="none" stroke="#000000" stroke-width="0.5" stroke-miterlimit="10" d="M-36.073,18.345c1.585,0,1.585,0,1.585,0
	c0,1.329,0,1.329,0,1.329c1.055-0.532,1.055-0.532,1.055-0.532c0.528,1.595,0.528,1.595,0.528,1.595C-34.225,21-34.225,21-34.225,21
	c0.792,1.063,0.792,1.063,0.792,1.063c-1.056,0.798-1.056,0.798-1.056,0.798c-0.792-1.063-0.792-1.063-0.792-1.063
	c-0.792,1.063-0.792,1.063-0.792,1.063c-1.056-0.798-1.056-0.798-1.056-0.798C-36.337,21-36.337,21-36.337,21
	c-1.32-0.529-1.32-0.529-1.32-0.529c0.528-1.329,0.528-1.329,0.528-1.329c1.056,0.532,1.056,0.532,1.056,0.532
	C-36.073,18.345-36.073,18.345-36.073,18.345L-36.073,18.345z"/>
<polyline fill="none" stroke="#000000" stroke-linecap="round" stroke-linejoin="round" stroke-miterlimit="10" points="
	-35.884,27.5 -35.884,29.996 -13.963,29.996 -13.963,10.136 -21.463,10.136 -21.463,2.933 -35.884,2.933 -35.884,7.093 "/>
<line fill="none" stroke="#000000" stroke-linecap="round" stroke-linejoin="round" stroke-miterlimit="10" x1="-21.463" y1="2.933" x2="-13.963" y2="10.136"/>
</svg>
