<?xml version="1.0" encoding="utf-8"?>
<!-- Generator: Adobe Illustrator 15.1.0, SVG Export Plug-In . SVG Version: 6.00 Build 0)  -->
<!DOCTYPE svg PUBLIC "-//W3C//DTD SVG 1.1//EN" "http://www.w3.org/Graphics/SVG/1.1/DTD/svg11.dtd">
<svg version="1.1" id="Layer_1" xmlns="http://www.w3.org/2000/svg" xmlns:xlink="http://www.w3.org/1999/xlink" x="0px" y="0px"
	 width="32px" height="32px" viewBox="0 0 32 32" enable-background="new 0 0 32 32" xml:space="preserve">
<path fill="#929292" d="M19.708,13.613h5.674c0.3,0,0.528,0.232,0.528,0.531v1.061c0,0.297-0.229,0.531-0.528,0.531h-5.674
	c-0.298,0-0.526-0.234-0.526-0.531v-1.061C19.18,13.846,19.41,13.613,19.708,13.613z"/>
<path fill="#929292" d="M25.908,18.383v1.063c0,0.302-0.231,0.531-0.532,0.531h-7.231c-0.301,0-0.53-0.229-0.53-0.531v-1.063
	c0-0.297,0.229-0.529,0.53-0.529h7.237C25.677,17.854,25.908,18.086,25.908,18.383z"/>
<path fill="#929292" d="M25.908,22.627v1.057c0,0.301-0.231,0.531-0.532,0.531h-9.44c-0.301,0-0.533-0.23-0.533-0.531v-1.057
	c0-0.299,0.23-0.531,0.533-0.531h9.44C25.677,22.094,25.908,22.33,25.908,22.627z"/>
<g>
	<path fill="#929292" d="M12.897,26.543H1.704c-0.292,0-0.53-0.238-0.53-0.532V15.04c0-0.292,0.24-0.53,0.533-0.53h0.868v-1.722
		c0-1.917,1.502-4.753,4.726-4.753c3.226,0.001,4.729,2.837,4.729,4.753v1.722h0.87c0.292,0,0.53,0.24,0.53,0.532v10.972
		C13.43,26.307,13.19,26.543,12.897,26.543z M2.233,25.484H12.37v-9.916h-0.85c-0.292,0-0.552-0.237-0.552-0.53v-2.251
		c0-1.205-0.896-3.692-3.667-3.693c-1.436,0-2.304,0.697-2.778,1.282c-0.656,0.808-0.889,1.775-0.889,2.411v2.251
		c0,0.292-0.237,0.53-0.53,0.53H2.233V25.484z"/>
</g>
<g>
	<path fill="#929292" d="M9.479,15.243H4.995L4.986,15.04v-1.7c0-1.006,0.728-2.385,2.346-2.388c1.621,0,2.35,1.381,2.35,2.361
		v1.902L9.479,15.243z M5.393,14.836l3.884-0.013v-1.51c0-0.812-0.603-1.955-1.943-1.955c-1.338,0.001-1.94,1.144-1.94,1.955
		L5.393,14.836L5.393,14.836z"/>
</g>
<g>
	<path fill="#929292" d="M6.515,23.291l-1.541-1.166l0.79-1.061L4.44,20.533l0.764-1.924l0.993,0.5v-1.221l0.265-0.021H8.38
		l0.026,0.265v0.979l1.009-0.51l0.749,2.268l-1.28,0.256l0.746,1.001l-1.542,1.166l-0.786-1.056L6.515,23.291z M7.301,21.35
		l0.893,1.197L8.89,22.02l-0.933-1.25l1.516-0.304l-0.369-1.114l-1.228,0.621v-1.576h-1.15v1.576l-1.244-0.629l-0.355,0.896
		l1.472,0.59l-0.887,1.19l0.696,0.527L7.301,21.35z"/>
</g>
<g>
	<path fill="#929292" d="M29.884,31.007H6.663c-0.292,0-0.53-0.235-0.53-0.528v-2.646c0-0.293,0.237-0.529,0.53-0.529
		s0.53,0.236,0.53,0.529v2.116h22.163V9.966h-7.418c-0.293,0-0.528-0.237-0.528-0.53V2.334H7.192v3.877
		c0,0.292-0.237,0.53-0.53,0.53s-0.53-0.237-0.53-0.53V1.805c0-0.292,0.237-0.53,0.53-0.53h15.275c0.293,0,0.528,0.237,0.528,0.53
		v7.102h7.417c0.293,0,0.529,0.237,0.529,0.53v21.042C30.413,30.771,30.177,31.007,29.884,31.007z"/>
</g>
<g>
	<path fill="#929292" d="M29.884,9.966c-0.132,0-0.265-0.049-0.366-0.148L21.57,2.187c-0.211-0.203-0.219-0.538-0.016-0.749
		c0.202-0.211,0.539-0.217,0.75-0.015l7.945,7.631c0.211,0.203,0.218,0.538,0.016,0.749C30.162,9.911,30.021,9.966,29.884,9.966z"/>
</g>
<path fill="#399649" d="M-24.958,13.613h5.674c0.299,0,0.528,0.232,0.528,0.531v1.061c0,0.297-0.229,0.531-0.528,0.531h-5.674
	c-0.298,0-0.527-0.234-0.527-0.531v-1.061C-25.488,13.846-25.256,13.613-24.958,13.613z"/>
<path fill="#399649" d="M-18.758,18.383v1.063c0,0.302-0.231,0.531-0.532,0.531h-7.232c-0.3,0-0.53-0.229-0.53-0.531v-1.063
	c0-0.297,0.23-0.529,0.53-0.529h7.238C-18.99,17.854-18.758,18.086-18.758,18.383z"/>
<path fill="#399649" d="M-18.758,22.627v1.057c0,0.301-0.231,0.531-0.532,0.531h-9.44c-0.301,0-0.533-0.23-0.533-0.531v-1.057
	c0-0.299,0.23-0.531,0.533-0.531h9.44C-18.99,22.094-18.758,22.33-18.758,22.627z"/>
<g>
	<path fill="#399649" d="M-31.769,26.543h-11.194c-0.292,0-0.53-0.238-0.53-0.532V15.04c0-0.292,0.24-0.53,0.533-0.53h0.868v-1.722
		c0-1.917,1.502-4.753,4.726-4.753c3.226,0.001,4.729,2.837,4.729,4.753v1.722h0.872c0.292,0,0.53,0.24,0.53,0.532v10.972
		C-31.236,26.307-31.476,26.543-31.769,26.543z M-42.433,25.484h10.137v-9.916h-0.85c-0.292,0-0.552-0.237-0.552-0.53v-2.251
		c0-1.205-0.896-3.692-3.667-3.693c-1.436,0-2.304,0.697-2.778,1.282c-0.656,0.808-0.889,1.775-0.889,2.411v2.251
		c0,0.292-0.237,0.53-0.53,0.53h-0.871V25.484z"/>
</g>
<g>
	<path fill="#399649" d="M-35.187,15.243h-4.484l-0.009-0.203v-1.7c0-1.006,0.728-2.385,2.346-2.388c1.621,0,2.35,1.381,2.35,2.361
		v1.902L-35.187,15.243z M-39.274,14.836l3.884-0.013v-1.51c0-0.812-0.603-1.955-1.943-1.955c-1.338,0.001-1.94,1.144-1.94,1.955
		L-39.274,14.836L-39.274,14.836z"/>
</g>
<g>
	<path fill="#399649" d="M-38.151,23.291l-1.541-1.166l0.79-1.061l-1.324-0.531l0.764-1.924l0.993,0.5v-1.221l0.265-0.021h1.918
		l0.026,0.265v0.979l1.009-0.51l0.749,2.268l-1.28,0.256l0.746,1.001l-1.542,1.166l-0.786-1.056L-38.151,23.291z M-37.366,21.35
		l0.893,1.197l0.696-0.527l-0.933-1.25l1.516-0.304l-0.369-1.114l-1.228,0.621v-1.576h-1.15v1.576l-1.244-0.629l-0.355,0.896
		l1.472,0.59l-0.887,1.19l0.696,0.527L-37.366,21.35z"/>
</g>
<g>
	<path fill="#399649" d="M-14.783,31.007h-23.221c-0.292,0-0.53-0.235-0.53-0.528v-2.646c0-0.293,0.237-0.529,0.53-0.529
		s0.53,0.236,0.53,0.529v2.116h22.162V9.966h-7.417c-0.293,0-0.529-0.237-0.529-0.53V2.334h-14.216v3.877
		c0,0.292-0.237,0.53-0.53,0.53s-0.53-0.237-0.53-0.53V1.805c0-0.292,0.237-0.53,0.53-0.53h15.275c0.293,0,0.529,0.237,0.529,0.53
		v7.102h7.417c0.293,0,0.529,0.237,0.529,0.53v21.042C-14.253,30.771-14.49,31.007-14.783,31.007z"/>
</g>
<g>
	<path fill="#399649" d="M-14.783,9.966c-0.132,0-0.265-0.049-0.367-0.148l-7.946-7.631c-0.211-0.203-0.218-0.538-0.015-0.749
		c0.202-0.211,0.539-0.217,0.749-0.015l7.946,7.631c0.211,0.203,0.218,0.538,0.015,0.749C-14.504,9.911-14.644,9.966-14.783,9.966z"
		/>
</g>
</svg>
