<?xml version="1.0" encoding="utf-8"?>
<!-- Generator: Adobe Illustrator 15.1.0, SVG Export Plug-In . SVG Version: 6.00 Build 0)  -->
<!DOCTYPE svg PUBLIC "-//W3C//DTD SVG 1.1//EN" "http://www.w3.org/Graphics/SVG/1.1/DTD/svg11.dtd">
<svg version="1.1" id="Layer_1" xmlns="http://www.w3.org/2000/svg" xmlns:xlink="http://www.w3.org/1999/xlink" x="0px" y="0px"
	 width="32px" height="32px" viewBox="0 0 32 32" enable-background="new 0 0 32 32" xml:space="preserve">
<g>
</g>
<path fill="#010101" d="M27.813,5.108c-11.249-3.72-11.249-3.72-11.249-3.72l0,0l0,0l0,0h-0.363l0,0c0,0,0,0-0.363,0l0,0l0,0l0,0
	c-0.363,0-0.363,0-0.363,0l0,0l0,0l0,0C4.229,5.108,4.229,5.108,4.229,5.108c-0.726,0-1.088,0.744-1.088,1.488
	c0,11.533,0,11.533,0,11.533c0,7.069,5.805,13.021,12.699,13.021c7.256,0,13.062-5.952,13.062-13.393c0-11.162,0-11.162,0-11.162
	C28.901,5.852,28.538,5.108,27.813,5.108L27.813,5.108z M21.282,21.479c-2.539,1.859-2.539,1.859-2.539,1.859
	c-2.904-4.092-2.904-4.092-2.904-4.092c-2.902,4.092-2.902,4.092-2.902,4.092c-2.54-1.859-2.54-1.859-2.54-1.859
	c2.902-4.093,2.902-4.093,2.902-4.093c-4.716-1.489-4.716-1.489-4.716-1.489c1.088-3.348,1.088-3.348,1.088-3.348
	c4.717,1.86,4.717,1.86,4.717,1.86c0-5.208,0-5.208,0-5.208c3.266,0,3.266,0,3.266,0c0,4.836,0,4.836,0,4.836
	c4.718-1.488,4.718-1.488,4.718-1.488c0.725,3.348,0.725,3.348,0.725,3.348c-4.716,1.489-4.716,1.489-4.716,1.489L21.282,21.479z"/>
</svg>
