<?xml version="1.0" encoding="utf-8"?>
<!-- Generator: Adobe Illustrator 15.1.0, SVG Export Plug-In . SVG Version: 6.00 Build 0)  -->
<!DOCTYPE svg PUBLIC "-//W3C//DTD SVG 1.1//EN" "http://www.w3.org/Graphics/SVG/1.1/DTD/svg11.dtd">
<svg version="1.1" id="Layer_1" xmlns="http://www.w3.org/2000/svg" xmlns:xlink="http://www.w3.org/1999/xlink" x="0px" y="0px"
	 width="20px" height="20px" viewBox="0 0 20 20" enable-background="new 0 0 20 20" xml:space="preserve">
<g>
	<path d="M18.906,12.135c-0.996,4.148-4.418,7.043-8.741,7.043c-2.285,0-4.5-0.902-6.164-2.484l-1.512,1.513
		c-0.14,0.142-0.328,0.226-0.527,0.226c-0.411-0.002-0.751-0.343-0.751-0.752v-5.25c0-0.41,0.339-0.75,0.75-0.75h5.25
		c0.41,0,0.75,0.34,0.75,0.75c0,0.198-0.082,0.387-0.223,0.526l-1.605,1.604c1.102,1.032,2.566,1.619,4.078,1.619
		c2.085,0,4.02-1.078,5.109-2.859c0.281-0.457,0.423-0.902,0.621-1.371c0.06-0.164,0.176-0.27,0.353-0.27h2.25
		c0.21,0,0.374,0.176,0.374,0.375C18.918,12.076,18.918,12.111,18.906,12.135z M19.211,7.928c0,0.41-0.339,0.75-0.75,0.75h-5.25
		c-0.409,0-0.75-0.34-0.75-0.75c0-0.199,0.083-0.387,0.225-0.527l1.616-1.617c-1.114-1.031-2.577-1.605-4.091-1.605
		c-2.086,0-4.02,1.078-5.109,2.859C4.82,7.495,4.68,7.939,4.481,8.409c-0.059,0.164-0.176,0.27-0.352,0.27H1.797
		c-0.21,0-0.375-0.176-0.375-0.375c0-0.023,0-0.059,0-0.082C2.43,4.06,5.887,1.178,10.211,1.178c2.297,0,4.535,0.914,6.199,2.484
		l1.523-1.512c0.141-0.141,0.326-0.223,0.525-0.223c0.411,0,0.75,0.34,0.75,0.75L19.211,7.928L19.211,7.928z"/>
</g>
</svg>
