<?xml version="1.0" encoding="utf-8"?>
<!-- Generator: Adobe Illustrator 15.1.0, SVG Export Plug-In . SVG Version: 6.00 Build 0)  -->
<!DOCTYPE svg PUBLIC "-//W3C//DTD SVG 1.1//EN" "http://www.w3.org/Graphics/SVG/1.1/DTD/svg11.dtd">
<svg version="1.1" id="Layer_1" xmlns="http://www.w3.org/2000/svg" xmlns:xlink="http://www.w3.org/1999/xlink" x="0px" y="0px"
	 width="32px" height="32px" viewBox="0 0 32 32" enable-background="new 0 0 32 32" xml:space="preserve">
<g>
	<g>
		<path d="M15.926,31.211c-3.63,0-7.111-1.312-9.878-3.707l-1.924,1.925c-0.37,0.372-0.859,0.577-1.377,0.577
			c-1.078,0-1.955-0.877-1.955-1.955v-8.436c0-1.078,0.877-1.955,1.955-1.955h8.436c1.078,0,1.955,0.877,1.955,1.955
			c0,0.516-0.206,1.005-0.579,1.378l-2.006,2.006c1.548,1.21,3.494,1.892,5.45,1.892c3.118,0,5.947-1.584,7.569-4.236
			c0.302-0.489,0.498-0.983,0.705-1.508c0.078-0.196,0.157-0.395,0.242-0.596c0.196-0.544,0.671-0.891,1.255-0.891h3.615
			c0.746,0,1.353,0.606,1.353,1.352c-0.002,0.085-0.005,0.208-0.049,0.347C28.972,26.45,23.042,31.211,15.926,31.211z M6.009,25.421
			l0.53,0.504c2.531,2.406,5.952,3.786,9.387,3.786c6.358,0,11.667-4.231,13.271-10.551h-3.308
			c-0.086,0.207-0.152,0.374-0.218,0.539c-0.223,0.562-0.452,1.142-0.821,1.74c-1.895,3.1-5.203,4.951-8.848,4.951
			c-2.628,0-5.137-0.995-7.065-2.803l-0.565-0.529l3.127-3.127c0.09-0.09,0.139-0.202,0.139-0.316c0-0.247-0.208-0.455-0.455-0.455
			H2.746c-0.247,0-0.455,0.208-0.455,0.455v8.436c0,0.357,0.498,0.59,0.771,0.318L6.009,25.421z M29.256,14.339H20.82
			c-1.078,0-1.955-0.877-1.955-1.955c0-0.515,0.205-1.004,0.576-1.376l2.025-2.024C19.904,7.77,17.99,7.109,16,7.109
			c-3.117,0-5.947,1.583-7.569,4.236c-0.299,0.485-0.494,0.977-0.7,1.497c-0.08,0.201-0.16,0.403-0.247,0.608
			c-0.191,0.542-0.667,0.89-1.255,0.89H2.481c-0.746,0-1.353-0.607-1.353-1.353l0.021-0.309C2.873,5.566,8.841,0.789,16,0.789
			c3.593,0,7.173,1.345,9.935,3.711l1.945-1.93c0.369-0.37,0.858-0.576,1.375-0.576c1.078,0,1.955,0.877,1.955,1.955l0.001,8.435
			C31.211,13.462,30.334,14.339,29.256,14.339z M16,5.609c2.631,0,5.146,0.987,7.082,2.779l0.572,0.529l-3.151,3.15
			c-0.089,0.089-0.138,0.202-0.138,0.316c0,0.242,0.213,0.455,0.455,0.455h8.436c0.247,0,0.455-0.208,0.455-0.455L29.71,3.949
			c0.001-0.361-0.493-0.596-0.771-0.317l-2.967,2.943l-0.527-0.498C22.896,3.669,19.453,2.289,16,2.289
			c-6.389,0-11.728,4.231-13.345,10.55h3.459c0.088-0.212,0.155-0.382,0.222-0.551c0.221-0.557,0.45-1.133,0.816-1.729
			C9.048,7.46,12.356,5.609,16,5.609z"/>
	</g>
</g>
</svg>
