<?xml version="1.0" encoding="utf-8"?>
<!-- Generator: Adobe Illustrator 15.1.0, SVG Export Plug-In . SVG Version: 6.00 Build 0)  -->
<!DOCTYPE svg PUBLIC "-//W3C//DTD SVG 1.1//EN" "http://www.w3.org/Graphics/SVG/1.1/DTD/svg11.dtd">
<svg version="1.1" id="Layer_1" xmlns="http://www.w3.org/2000/svg" xmlns:xlink="http://www.w3.org/1999/xlink" x="0px" y="0px"
	 width="32px" height="32px" viewBox="0 0 32 32" enable-background="new 0 0 32 32" xml:space="preserve">
<g>
	<path d="M28.836,28.952H18.622v-1.326h10.214c0.407,0,0.751-0.344,0.751-0.751V3.506H2.351l-0.004,9.276l-1.325-0.001L1.025,2.181
		h29.888v24.694C30.913,28.021,29.981,28.952,28.836,28.952z"/>
</g>
<g>
	<g>
		<path d="M9.508,29.979c-0.347,0-0.694-0.023-1.041-0.069c-0.411-0.054-0.699-0.432-0.645-0.842
			c0.055-0.411,0.427-0.706,0.842-0.645c0.875,0.115,1.753,0.051,2.615-0.192c3.442-0.976,5.449-4.571,4.473-8.016
			c-0.977-3.444-4.575-5.456-8.015-4.475c-2.667,0.755-4.56,3.121-4.712,5.887c-0.023,0.413-0.383,0.729-0.79,0.708
			c-0.414-0.022-0.73-0.377-0.708-0.79c0.188-3.406,2.519-6.319,5.801-7.249c4.237-1.198,8.664,1.27,9.866,5.509
			c1.201,4.24-1.27,8.667-5.508,9.868C10.968,29.877,10.239,29.979,9.508,29.979z"/>
	</g>
</g>
<g>
	<path d="M28.734,21.088H17.354c0.063,0.325,0.104,0.658,0.131,0.996h11.252v-0.996H28.734z"/>
</g>
<g>
	<path d="M11.173,6.974H9.86v7.416c0.45,0.039,0.887,0.117,1.313,0.224V6.974z"/>
</g>
<g>
	<path d="M15.572,17.371v-4.447h-2.625v2.354C13.958,15.795,14.852,16.507,15.572,17.371z"/>
</g>
<g>
	<rect x="17.313" y="8.956" width="2.621" height="11.144"/>
</g>
<g>
	<rect x="21.672" y="10.939" width="2.626" height="9.159"/>
</g>
<g>
	<rect x="26.034" y="7.964" width="2.625" height="12.136"/>
</g>
<g>
	<polygon points="12.891,17.658 8.806,17.658 4.148,24.385 7.364,24.294 3.106,29.762 13.004,22.77 9.433,22.232 	"/>
</g>
</svg>
