<?xml version="1.0" encoding="utf-8"?>
<!-- Generator: Adobe Illustrator 15.1.0, SVG Export Plug-In . SVG Version: 6.00 Build 0)  -->
<!DOCTYPE svg PUBLIC "-//W3C//DTD SVG 1.1//EN" "http://www.w3.org/Graphics/SVG/1.1/DTD/svg11.dtd">
<svg version="1.1" id="Layer_1" xmlns="http://www.w3.org/2000/svg" xmlns:xlink="http://www.w3.org/1999/xlink" x="0px" y="0px"
	 width="32px" height="32px" viewBox="0 0 32 32" enable-background="new 0 0 32 32" xml:space="preserve">
<g>
	<path d="M28.836,28.952H18.622v-1.326h10.214c0.407,0,0.751-0.344,0.751-0.751V3.506H2.351l-0.004,9.276l-1.325-0.001L1.025,2.181
		h29.888v24.694C30.913,28.021,29.981,28.952,28.836,28.952z"/>
</g>
<g>
	<g>
		<path d="M4.914,17.14c-0.217,0-0.431-0.094-0.58-0.274c-0.263-0.319-0.217-0.792,0.103-1.055c0.424-0.349,0.885-0.654,1.37-0.909
			c0.369-0.191,0.821-0.05,1.013,0.316c0.192,0.367,0.05,0.82-0.316,1.013c-0.395,0.207-0.769,0.455-1.113,0.738
			C5.25,17.083,5.081,17.14,4.914,17.14z"/>
	</g>
	<g>
		<path d="M9.508,29.975c-4.406,0-7.991-3.584-7.991-7.99c0-1.465,0.4-2.896,1.156-4.14c0.215-0.354,0.677-0.467,1.03-0.251
			c0.354,0.215,0.466,0.677,0.251,1.03c-0.613,1.009-0.938,2.171-0.938,3.36c0,3.579,2.912,6.49,6.491,6.49
			c3.58,0,6.492-2.911,6.492-6.49c0-3.578-2.913-6.489-6.492-6.489c-0.414,0-0.75-0.336-0.75-0.75s0.336-0.75,0.75-0.75
			c4.407,0,7.992,3.584,7.992,7.989C17.5,26.391,13.915,29.975,9.508,29.975z"/>
	</g>
	<g>
		<path d="M12.789,26.473c-0.165,0-0.331-0.054-0.469-0.165l-3.715-2.981v-5.092c0-0.414,0.336-0.75,0.75-0.75s0.75,0.336,0.75,0.75
			v4.373l3.153,2.53c0.323,0.259,0.375,0.731,0.116,1.055C13.226,26.377,13.008,26.473,12.789,26.473z"/>
	</g>
</g>
<g>
	<path d="M28.734,21.088H17.354c0.063,0.325,0.104,0.658,0.131,0.996h11.252v-0.996H28.734z"/>
</g>
<g>
	<path d="M11.173,6.974H9.86v7.416c0.45,0.039,0.887,0.117,1.313,0.224V6.974z"/>
</g>
<g>
	<path d="M15.572,17.371v-4.447h-2.625v2.354C13.958,15.795,14.852,16.507,15.572,17.371z"/>
</g>
<g>
	<rect x="17.313" y="8.956" width="2.621" height="11.144"/>
</g>
<g>
	<rect x="21.672" y="10.939" width="2.626" height="9.159"/>
</g>
<g>
	<rect x="26.034" y="7.964" width="2.625" height="12.136"/>
</g>
</svg>
