<?xml version="1.0" encoding="utf-8"?>
<!-- Generator: Adobe Illustrator 15.1.0, SVG Export Plug-In . SVG Version: 6.00 Build 0)  -->
<!DOCTYPE svg PUBLIC "-//W3C//DTD SVG 1.1//EN" "http://www.w3.org/Graphics/SVG/1.1/DTD/svg11.dtd">
<svg version="1.1" id="Layer_1" xmlns="http://www.w3.org/2000/svg" xmlns:xlink="http://www.w3.org/1999/xlink" x="0px" y="0px"
	 width="32px" height="32px" viewBox="0 0 32 32" enable-background="new 0 0 32 32" xml:space="preserve">
<g>
	<path d="M28.836,28.952H1.043l-0.019-0.645c-0.012-0.434,0-24.442,0.001-25.464V2.181h29.888v24.694
		C30.913,28.021,29.981,28.952,28.836,28.952z M2.347,27.626h26.489c0.407,0,0.751-0.344,0.751-0.751V3.506H2.351
		C2.347,11.317,2.342,24.551,2.347,27.626z"/>
</g>
<g>
	<polygon points="26.113,23.93 4.932,23.93 4.932,6.974 6.406,6.974 6.406,22.813 26.113,22.813 	"/>
</g>
<g>
	<rect x="8.396" y="13.651" width="2.947" height="8.05"/>
</g>
<g>
	<rect x="13.294" y="9.198" width="2.941" height="12.503"/>
</g>
<g>
	<rect x="18.188" y="11.424" width="2.946" height="10.277"/>
</g>
<g>
	<rect x="23.082" y="8.085" width="2.945" height="13.616"/>
</g>
</svg>
