<?xml version="1.0" encoding="utf-8"?>
<!-- Generator: Adobe Illustrator 15.1.0, SVG Export Plug-In . SVG Version: 6.00 Build 0)  -->
<!DOCTYPE svg PUBLIC "-//W3C//DTD SVG 1.1//EN" "http://www.w3.org/Graphics/SVG/1.1/DTD/svg11.dtd">
<svg version="1.1" id="Layer_1" xmlns="http://www.w3.org/2000/svg" xmlns:xlink="http://www.w3.org/1999/xlink" x="0px" y="0px"
	 width="20px" height="20px" viewBox="0 0 20 20" enable-background="new 0 0 20 20" xml:space="preserve">
<g>
	<path d="M19,2.645H1.003c0,0-0.007,15.762,0,16.032h17.106c0.486,0,0.891-0.401,0.891-0.89V2.645z"/>
	<path d="M18.109,19.095H0.596l-0.01-0.407c-0.007-0.271,0-15.399,0-16.042V2.228h18.833v15.56
		C19.418,18.508,18.831,19.095,18.109,19.095z M1.419,18.259h16.69c0.257,0,0.473-0.216,0.473-0.472V3.063H1.42
		C1.418,7.985,1.416,16.32,1.419,18.259z"/>
</g>
<g>
	<polygon fill="#FFFFFF" points="16.395,15.932 3.049,15.932 3.049,5.248 3.979,5.248 3.979,15.227 16.395,15.227 	"/>
</g>
<g>
	<rect x="5.229" y="9.454" fill="#FFFFFF" width="1.857" height="5.073"/>
</g>
<g>
	<rect x="8.318" y="6.649" fill="#FFFFFF" width="1.855" height="7.878"/>
</g>
<g>
	<rect x="11.4" y="8.052" fill="#FFFFFF" width="1.854" height="6.478"/>
</g>
<g>
	<rect x="14.484" y="5.949" fill="#FFFFFF" width="1.854" height="8.58"/>
</g>
</svg>
