<?xml version="1.0" encoding="utf-8"?>
<!-- Generator: Adobe Illustrator 15.1.0, SVG Export Plug-In . SVG Version: 6.00 Build 0)  -->
<!DOCTYPE svg PUBLIC "-//W3C//DTD SVG 1.1//EN" "http://www.w3.org/Graphics/SVG/1.1/DTD/svg11.dtd">
<svg version="1.1" id="Layer_1" xmlns="http://www.w3.org/2000/svg" xmlns:xlink="http://www.w3.org/1999/xlink" x="0px" y="0px"
	 width="24px" height="24px" viewBox="0 0 32 32" enable-background="new 0 0 32 32" xml:space="preserve">
<path fill="#010101" d="M22.23,5.664c-2.832,0-2.832,0-2.832,0l0,0l0,0l0,0l0,0l0,0l0,0l0,0l0,0l0,0l0,0l0,0l0,0l0,0l0,0l0,0l0,0
	l0,0l0,0l0,0l0,0l0,0l0,0c-2.119,0-2.119,0-2.119,0c-0.709,0-0.709,0-0.709,0c-0.708,0-1.417,0.703-1.417,1.406
	c0,0.703,0.708,1.406,1.417,1.406c0.709,0,0.709,0,0.709,0c2.119,0,2.119,0,2.119,0c0.354,0,0.354,0,0.709,0c0,0,0,0,0.354,0
	c0,0,0,0,0.354,0c1.414,0,1.414,0,1.414,0c3.541,0,6.371,2.811,6.371,6.325s-2.83,6.326-6.371,6.326c-2.832,0-2.832,0-2.832,0
	c1.771-1.758,1.771-1.758,1.771-1.758c0.354-0.702,0.657-1.26,0-2.108c-0.48-0.625-1.771-0.352-2.125,0
	c-4.247,4.218-4.247,4.218-4.247,4.218c-0.353,0.353-0.353,0.701-0.353,1.057c0,0.351,0,0.699,0.353,1.053
	c4.247,4.219,4.247,4.219,4.247,4.219c0.423,0.244,1.126,0.918,2.125,0c0.578-0.531,0.673-1.021,0-2.107
	c-1.771-1.758-1.771-1.758-1.771-1.758c2.832,0,2.832,0,2.832,0c4.957,0,9.203-4.217,9.203-9.136S27.188,5.664,22.23,5.664
	L22.23,5.664z"/>
<path d="M3.424,16.28c-0.467-0.956-1.316-1.042-1.895-0.808c-0.656,0.267-0.958,0.838-0.864,1.535
	c0.141,1.044,0.507,1.753,1.077,2.691c0.483,0.548,0.805,0.86,1.848,0.46c0.928-0.393,0.712-1.454,0.419-2.186
	C3.875,17.636,3.678,17.212,3.424,16.28L3.424,16.28z"/>
<path d="M7.505,20.486c-1.044-0.207-1.626,0.416-1.789,1.021c-0.185,0.685,0.088,1.271,0.7,1.616
	c0.917,0.52,1.703,0.656,2.795,0.771c0.729-0.058,1.172-0.121,1.483-1.194c0.25-0.978-0.727-1.446-1.486-1.655
	C8.857,20.947,8.4,20.85,7.505,20.486L7.505,20.486z"/>
<path fill="#010101" d="M3.292,12.677c0.545-1.357,1.555-2.499,2.868-3.208c0.318-0.171,0.498-1.136,0.151-1.742
	C5.964,7.12,5.091,6.871,4.604,7.163C3.06,8.088,1.807,9.454,1.003,11.047c0,0-0.326,1.254,0.398,1.703
	C2.432,13.386,3.292,12.677,3.292,12.677z"/>
<path fill="#010101" d="M12.262,5.687c-1.417,0-1.417,0-1.417,0l0,0l0,0l0,0l0,0l0,0l0,0l0,0l0,0l0,0l0,0l0,0l0,0l0,0l0,0l0,0l0,0
	c-0.354,0-0.354,0-0.354,0l0,0l0,0l0,0l0,0l0,0l0,0l0,0l0,0l0,0l0,0l0,0l0,0l0,0l0,0l0,0l0,0l0,0l0,0l0,0l0,0l0,0l0,0l0,0l0,0l0,0
	l0,0l0,0l0,0l0,0l0,0l0,0l0,0l0,0l0,0l0,0l0,0l0,0l0,0l0,0l0,0l0,0l0,0l0,0l0,0l0,0l0,0l0,0l0,0l0,0l0,0l0,0l0,0l0,0l0,0l0,0l0,0
	l0,0l0,0l0,0l0,0c-0.353,0-0.353,0-0.353,0l0,0l0,0l0,0l0,0l0,0l0,0l0,0l0,0l0,0l0,0l0,0l0,0l0,0l0,0l0,0l0,0l0,0l0,0l0,0l0,0l0,0
	l0,0l0,0l0,0l0,0l0,0l0,0l0,0l0,0l0,0l0,0l0,0l0,0l0,0l0,0H9.784l0,0l0,0l0,0l0,0l0,0l0,0l0,0l0,0l0,0l0,0l0,0l0,0l0,0l0,0l0,0l0,0
	l0,0l0,0l0,0l0,0l0,0l0,0l0,0l0,0l0,0l0,0l0,0l0,0l0,0l0,0l0,0l0,0l0,0l0,0l0,0l0,0l0,0l0,0l0,0l0,0l0,0l0,0l0,0l0,0l0,0l0,0l0,0
	l0,0c-0.354,0-0.354,0-0.354,0l0,0l0,0l0,0l0,0C8.845,5.779,7.925,6.016,8.015,7.445C8.064,8.23,8.723,8.499,9.43,8.499
	c0.354,0,0.354,0,0.354,0c0.354,0,0.708,0,1.062,0c1.417,0,1.417,0,1.417,0c0.708,0,1.415-0.703,1.415-1.406
	C13.678,6.39,12.969,5.687,12.262,5.687L12.262,5.687z"/>
</svg>
