<?xml version="1.0" encoding="utf-8"?>
<!-- Generator: Adobe Illustrator 15.1.0, SVG Export Plug-In . SVG Version: 6.00 Build 0)  -->
<!DOCTYPE svg PUBLIC "-//W3C//DTD SVG 1.1//EN" "http://www.w3.org/Graphics/SVG/1.1/DTD/svg11.dtd">
<svg version="1.1" id="Layer_1" xmlns="http://www.w3.org/2000/svg" xmlns:xlink="http://www.w3.org/1999/xlink" x="0px" y="0px"
	 width="32px" height="32px" viewBox="0 0 32 32" style="enable-background:new 0 0 32 32;" xml:space="preserve">
<style type="text/css">
<![CDATA[
	.st0{fill:#010101;}
]]>
</style>
<path class="st0" d="M28.979,9.525c0-0.376,0-0.376,0-0.376l0,0c0-0.377-12.236-7.535-12.236-7.535
	c-0.372-0.378-1.111-0.378-1.483,0C3.764,8.395,3.022,9.149,3.022,9.149l0,0c0,0.376,0,0.376,0,0.376c0,13.563,0,13.563,0,13.563
	c0,0.377,0.371,1.132,0.742,1.132C15.259,31,15.259,31,15.259,31c0.406,0.168,1.281,0.23,1.483,0l0,0
	c11.494-6.78,11.494-6.78,11.494-6.78c0.365-0.271,0.742-0.755,0.742-1.132C28.979,9.525,28.979,9.525,28.979,9.525L28.979,9.525
	L28.979,9.525L28.979,9.525L28.979,9.525z M14.518,27.232C5.99,22.336,5.99,22.336,5.99,22.336c0-10.172,0-10.172,0-10.172
	c8.528,4.899,8.528,4.899,8.528,4.899V27.232z M16.2,14.816c-7.23-4.249-7.23-4.249-7.23-4.249C7.448,9.796,7.448,9.796,7.448,9.796
	C16.2,4.775,16.2,4.775,16.2,4.775c8.751,5.021,8.751,5.021,8.751,5.021L16.2,14.816z"/>
</svg>
