<?xml version="1.0" encoding="utf-8"?>
<!-- Generator: Adobe Illustrator 15.1.0, SVG Export Plug-In . SVG Version: 6.00 Build 0)  -->
<!DOCTYPE svg PUBLIC "-//W3C//DTD SVG 1.1//EN" "http://www.w3.org/Graphics/SVG/1.1/DTD/svg11.dtd">
<svg version="1.1" id="Layer_1" xmlns="http://www.w3.org/2000/svg" xmlns:xlink="http://www.w3.org/1999/xlink" x="0px" y="0px"
	 width="20px" height="20px" viewBox="0 0 20 20" enable-background="new 0 0 20 20" xml:space="preserve">
<path fill="#010101" d="M17.834,6.179c0-0.228,0-0.228,0-0.228l0,0c0-0.228-7.387-4.548-7.387-4.548
	c-0.225-0.227-0.671-0.227-0.896,0C2.613,5.497,2.165,5.952,2.165,5.952l0,0c0,0.228,0,0.228,0,0.228c0,8.186,0,8.186,0,8.186
	c0,0.229,0.224,0.684,0.449,0.684c6.938,4.092,6.938,4.092,6.938,4.092c0.244,0.105,0.774,0.143,0.896,0l0,0
	c6.938-4.092,6.938-4.092,6.938-4.092c0.221-0.164,0.448-0.455,0.448-0.684C17.834,6.179,17.834,6.179,17.834,6.179L17.834,6.179
	L17.834,6.179L17.834,6.179L17.834,6.179z M9.104,16.868c-5.147-2.955-5.147-2.955-5.147-2.955c0-6.141,0-6.141,0-6.141
	c5.147,2.957,5.147,2.957,5.147,2.957V16.868z M10.119,9.374C5.756,6.808,5.756,6.808,5.756,6.808
	C4.837,6.343,4.837,6.343,4.837,6.343c5.282-3.031,5.282-3.031,5.282-3.031c5.283,3.031,5.283,3.031,5.283,3.031L10.119,9.374z"/>
</svg>
