<?xml version="1.0" encoding="utf-8"?>
<!-- Generator: Adobe Illustrator 15.1.0, SVG Export Plug-In . SVG Version: 6.00 Build 0)  -->
<!DOCTYPE svg PUBLIC "-//W3C//DTD SVG 1.1//EN" "http://www.w3.org/Graphics/SVG/1.1/DTD/svg11.dtd">
<svg version="1.1" id="Layer_1" xmlns="http://www.w3.org/2000/svg" xmlns:xlink="http://www.w3.org/1999/xlink" x="0px" y="0px"
	 width="30px" height="30px" viewBox="0 0 30 30" enable-background="new 0 0 30 30" xml:space="preserve">
<g>
	<g>
		<g>
			<path fill="#38974A" d="M21.676,20.233c0,4.648-6.816,8.417-6.816,8.417s-6.814-3.769-6.814-8.417l0,0v-9.421l6.814-1.208
				l6.816,1.208V20.233L21.676,20.233z"/>
		</g>
		<g>
			<g>
				<path fill="#FFFFFF" d="M13.441,22.38c-0.201,0-0.401-0.075-0.557-0.229l-2.864-2.857c-0.307-0.308-0.307-0.81,0-1.115
					c0.307-0.308,0.805-0.307,1.115-0.002l2.305,2.304l5.15-5.16c0.307-0.307,0.805-0.307,1.114,0c0.308,0.308,0.308,0.805,0,1.114
					l-5.707,5.717C13.844,22.305,13.642,22.38,13.441,22.38z"/>
			</g>
		</g>
	</g>
</g>
<path fill="none" d="M49.338,21.853c1.675,0.692,3.484,1.084,5.392,1.084c5.415,0,10.071-3.103,12.956-7.557
	c-1.603-2.479-3.796-4.605-6.429-5.955c0.676,1.147,1.03,2.463,1.03,3.795c0,4.167-3.391,7.558-7.558,7.558
	c-1.331,0-2.581-0.349-3.669-0.956C50.573,20.567,49.968,21.249,49.338,21.853z"/>
<path fill="#9B999C" d="M69.508,14.216c-3.104-5.094-8.79-8.553-14.778-8.553c-2.198,0-4.356,0.47-6.36,1.312l3.78,0.67v1.174
	c0.762-0.45,1.638-0.728,2.58-0.728c0.438,0,0.81,0.373,0.81,0.811c0,0.439-0.371,0.81-0.81,0.81c-1.02,0-1.936,0.454-2.58,1.16
	v5.728c0,1.146-0.441,2.235-1.089,3.224c1.088,0.607,2.338,0.956,3.669,0.956c4.167,0,7.558-3.392,7.558-7.558
	c0-1.333-0.354-2.648-1.03-3.795c2.633,1.349,4.826,3.476,6.429,5.955c-2.885,4.455-7.541,7.557-12.956,7.557
	c-1.907,0-3.717-0.392-5.392-1.084c-0.623,0.599-1.262,1.115-1.832,1.538c2.24,1.087,4.703,1.706,7.224,1.706
	c5.988,0,11.675-3.44,14.778-8.553c0.202-0.355,0.337-0.743,0.337-1.165C69.845,14.958,69.71,14.57,69.508,14.216z"/>
<g>
	<g>
		<path fill="#38974A" d="M50.835,16.271c0,3.562-5.222,6.448-5.222,6.448s-5.221-2.887-5.221-6.448l0,0V9.055l5.221-0.926
			l5.222,0.926V16.271L50.835,16.271z"/>
		<g>
			<path fill="#FFFFFF" d="M44.526,17.917c-0.154,0-0.307-0.058-0.426-0.176l-2.193-2.189c-0.236-0.237-0.236-0.619,0-0.854
				c0.234-0.236,0.616-0.236,0.854,0l1.766,1.763l3.947-3.952c0.233-0.235,0.615-0.235,0.852,0c0.237,0.236,0.237,0.617,0,0.854
				l-4.371,4.379C44.836,17.859,44.68,17.917,44.526,17.917z"/>
		</g>
	</g>
</g>
<g>
	<path fill="#9A999C" d="M29.068,27.354h-8.133c-0.275,0-0.498-0.223-0.498-0.498s0.223-0.498,0.498-0.498h7.137V2.52H1.651v23.838
		h6.895c0.275,0,0.499,0.223,0.499,0.498s-0.223,0.498-0.499,0.498H0.654V1.523h28.414V27.354z"/>
</g>
<g>
	<path fill="#9A999C" d="M29.069,6.271H0.653V1.805h28.416V6.271z M1.653,5.271h26.416V2.805H1.653V5.271z"/>
</g>
<g>
	<rect x="3.193" y="3.288" fill="#9A999C" width="1.5" height="1.5"/>
</g>
<g>
	<rect x="5.393" y="3.288" fill="#9A999C" width="1.5" height="1.5"/>
</g>
<g>
	<rect x="7.592" y="3.288" fill="#9A999C" width="1.5" height="1.5"/>
</g>
<rect x="39.16" y="-0.284" fill="none" stroke="#000000" stroke-width="0.2552" stroke-miterlimit="10" width="31.816" height="30.001"/>
</svg>
