<?xml version="1.0" encoding="utf-8"?>
<!-- Generator: Adobe Illustrator 15.1.0, SVG Export Plug-In . SVG Version: 6.00 Build 0)  -->
<!DOCTYPE svg PUBLIC "-//W3C//DTD SVG 1.1//EN" "http://www.w3.org/Graphics/SVG/1.1/DTD/svg11.dtd">
<svg version="1.1" id="Layer_1" xmlns="http://www.w3.org/2000/svg" xmlns:xlink="http://www.w3.org/1999/xlink" x="0px" y="0px"
	 width="32px" height="32px" viewBox="0 0 32 32" enable-background="new 0 0 32 32" xml:space="preserve">
<g>
	<path fill="#39974A" d="M26.789,16.027c0,6.043-4.896,10.94-10.937,10.94c-6.042,0-10.94-4.896-10.94-10.94
		c0-6.041,4.898-10.938,10.94-10.938C21.893,5.088,26.789,9.986,26.789,16.027"/>
</g>
<g>
	<path fill="#99CC67" d="M12.034,4.191c1.212-0.395,2.505-0.608,3.846-0.61v-2.58c-1.661,0-3.065,0.223-4.639,0.736
		c-0.043,0.014-0.084,0.03-0.126,0.046c0.04-0.016,0.083-0.032,0.123-0.046L12.034,4.191z"/>
</g>
<g>
	<path fill="#39974A" d="M27.475,6.469c0.191,0.236,0.379,0.478,0.563,0.728L25.95,8.714c1.493,2.055,2.378,4.58,2.38,7.313h2.578
		v0.005c0,0.256-0.01,0.509-0.02,0.761c0.01-0.253,0.021-0.506,0.021-0.766C30.909,12.395,29.621,9.065,27.475,6.469"/>
</g>
<g>
	<path fill="#39974A" d="M15.88,28.477c-6.874,0-12.445-5.569-12.445-12.45c0-5.529,3.607-10.212,8.599-11.835l-0.795-2.455
		c-0.042,0.014-0.084,0.03-0.124,0.046c-0.185,0.061-0.369,0.125-0.549,0.189c-0.054,0.024-0.106,0.041-0.154,0.063
		c-5.653,2.182-9.314,7.306-9.55,13.381c-0.003,0.142-0.003,0.284-0.008,0.427c0,0.061-0.003,0.124-0.003,0.188
		c0,0.011,0.001,0.024,0.001,0.037c0.001,0.201,0.008,0.402,0.018,0.599c0.001,0.062,0.004,0.121,0.005,0.181
		c0.007,0.155,0.022,0.313,0.036,0.469c0.01,0.107,0.017,0.218,0.029,0.324c0.009,0.088,0.021,0.172,0.033,0.258
		c0.02,0.184,0.045,0.361,0.074,0.537c0,0.013,0.002,0.021,0.002,0.028c0.211,1.281,0.58,2.503,1.091,3.652
		c0.062,0.141,0.125,0.282,0.19,0.426c0,0.003,0.004,0.006,0.006,0.009c2.212,4.588,6.684,7.876,11.971,8.424
		c0.027,0.002,0.059,0.006,0.09,0.012c0.177,0.019,0.356,0.029,0.536,0.039c0.089,0.009,0.181,0.013,0.271,0.018
		c0.121,0.004,0.243,0.007,0.36,0.01c0.106,0.002,0.211,0.01,0.314,0.01c3.299,0,6.353-1.068,8.832-2.873l-1.517-2.09
		C21.143,27.594,18.615,28.477,15.88,28.477"/>
</g>
<g>
	<path fill="#6FB559" d="M15.88,3.582c4.14,0,7.806,2.023,10.069,5.132l2.085-1.517c-0.181-0.25-0.368-0.492-0.562-0.728
		c-2.729-3.354-6.462-5.239-10.785-5.444c-0.269-0.013-0.539-0.024-0.808-0.024l0,0V3.582z"/>
</g>
<g>
	<path fill="#6FB559" d="M30.906,16.027h-2.578c0,2.59-0.79,4.997-2.145,6.983c-0.812,1.193-1.822,2.241-2.99,3.088l1.519,2.088
		c0.001,0,0.002-0.002,0.002-0.002c0.236-0.17,0.47-0.349,0.692-0.531c3.182-2.573,5.045-6.049,5.422-10.073
		c0.004-0.026,0.004-0.056,0.006-0.082c0.021-0.207,0.037-0.412,0.05-0.623c0.002-0.013,0-0.021,0.002-0.033
		c0-0.015,0-0.03,0.003-0.046c0.01-0.252,0.02-0.505,0.02-0.761L30.906,16.027L30.906,16.027z"/>
</g>
<g>
	<path fill="#FFFFFF" d="M15.879,24.122c-0.066,0-0.133-0.017-0.193-0.049c-0.222-0.119-5.443-2.967-5.443-6.63v-7.317
		c0-0.194,0.137-0.362,0.328-0.4L15.8,8.68c0.053-0.011,0.107-0.011,0.16,0l5.226,1.046c0.19,0.038,0.328,0.206,0.328,0.4v7.317
		c0,3.666-5.22,6.511-5.442,6.63C16.012,24.105,15.945,24.122,15.879,24.122z M11.059,10.46v6.983c0,2.818,3.899,5.264,4.82,5.802
		c0.921-0.539,4.818-2.984,4.818-5.802V10.46L15.88,9.496L11.059,10.46z"/>
</g>
<g>
	<path fill="#FFFFFF" d="M15.142,17.239c-0.108,0-0.212-0.043-0.289-0.12l-1.479-1.48c-0.159-0.159-0.159-0.417,0-0.577
		c0.159-0.159,0.417-0.16,0.577,0l1.19,1.191l2.667-2.668c0.158-0.16,0.418-0.16,0.576,0c0.159,0.159,0.159,0.417,0,0.577
		l-2.955,2.957C15.354,17.196,15.25,17.239,15.142,17.239z"/>
</g>
</svg>
