<?xml version="1.0" encoding="utf-8"?>
<!-- Generator: Adobe Illustrator 15.1.0, SVG Export Plug-In . SVG Version: 6.00 Build 0)  -->
<!DOCTYPE svg PUBLIC "-//W3C//DTD SVG 1.1//EN" "http://www.w3.org/Graphics/SVG/1.1/DTD/svg11.dtd">
<svg version="1.1" id="Layer_1" xmlns="http://www.w3.org/2000/svg" xmlns:xlink="http://www.w3.org/1999/xlink" x="0px" y="0px"
	 width="16px" height="16px" viewBox="0 0 16 16" enable-background="new 0 0 16 16" xml:space="preserve">
<g>
	<path fill="#39974A" d="M13,9.001C13,12.314,8.002,15,8.002,15S3,12.314,3,9.001l0,0v-7L8.002,1L13,2.001V9.001L13,9.001z"/>
</g>
<g>
	<path fill="#FFFFFF" d="M7.193,10.494L7.193,10.494c-0.199,0-0.39-0.079-0.531-0.22L4.696,8.307c-0.292-0.293-0.292-0.768,0-1.061
		c0.293-0.292,0.768-0.292,1.061,0l1.436,1.437l3.402-3.401c0.294-0.293,0.769-0.292,1.061,0c0.293,0.293,0.293,0.768,0,1.061
		l-3.933,3.931C7.583,10.415,7.392,10.494,7.193,10.494z"/>
</g>
</svg>
