<?xml version="1.0" encoding="utf-8"?>
<!-- Generator: Adobe Illustrator 15.1.0, SVG Export Plug-In . SVG Version: 6.00 Build 0)  -->
<!DOCTYPE svg PUBLIC "-//W3C//DTD SVG 1.1//EN" "http://www.w3.org/Graphics/SVG/1.1/DTD/svg11.dtd">
<svg version="1.1" id="Layer_1" xmlns="http://www.w3.org/2000/svg" xmlns:xlink="http://www.w3.org/1999/xlink" x="0px" y="0px"
	 width="24px" height="24px" viewBox="0 0 32 32" enable-background="new 0 0 32 32" xml:space="preserve">
<path d="M6.879,24.838c0.485,0.484,1.015,0.934,1.573,1.334l-1.166,1.625c-0.646-0.463-1.259-0.982-1.821-1.545
	c-1.75-1.75-3.03-3.926-3.7-6.294l1.924-0.545C4.267,21.453,5.37,23.329,6.879,24.838z M12.322,28.033l-0.542,1.926
	c1.276,0.359,2.6,0.541,3.936,0.541c1.417,0,2.815-0.204,4.161-0.605l-0.574-1.916C17.052,28.65,14.586,28.67,12.322,28.033z
	 M27.449,7.494c-2.709-3.723-7.092-5.993-11.733-5.993C7.722,1.501,1.217,8.005,1.217,16h2c0-6.892,5.607-12.499,12.499-12.499
	c3.843,0,7.364,1.712,9.721,4.646l-3.604,1.172l7.409,6.672l2.074-9.754L27.449,7.494z"/>
</svg>
