<?xml version="1.0" encoding="utf-8"?>
<!-- Generator: Adobe Illustrator 15.1.0, SVG Export Plug-In . SVG Version: 6.00 Build 0)  -->
<!DOCTYPE svg PUBLIC "-//W3C//DTD SVG 1.1//EN" "http://www.w3.org/Graphics/SVG/1.1/DTD/svg11.dtd">
<svg version="1.1" id="Layer_1" xmlns="http://www.w3.org/2000/svg" xmlns:xlink="http://www.w3.org/1999/xlink" x="0px" y="0px"
	 width="32px" height="32px" viewBox="0 0 32 32" enable-background="new 0 0 32 32" xml:space="preserve">
<g>
</g>
<g>
</g>
<path fill="#010101" d="M17.333,13.727c0-1.497-1.101-8.277-3.352-8.234c-1.991,0.038-3.351,6.737-3.351,8.983
	c-3.352-1.872-3.352-1.872-3.352-1.872c0.374-1.872,1.632-10.717,6.703-10.48c6.726,0.314,6.703,10.854,6.703,11.603
	c2.607,0,2.977,0,2.977,0c-4.842,8.235-5.21,8.235-5.21,8.235c-4.47-8.608-4.47-8.608-4.47-8.608L17.333,13.727z"/>
<path fill="#010101" d="M12.493,24.957c-1.489,0-8.159-1.025-8.192-3.368c-0.031-2.141,6.703-3.368,8.937-3.368
	c-1.862-3.37-1.862-3.001-1.862-3.001c-1.862,0.374-10.441,1.706-10.426,6.369c0.016,5.026,10.798,6.738,11.543,6.738
	c0,2.618,0,2.618,0,2.618c8.192-4.864,8.192-4.864,8.192-4.864c-8.192-4.866-8.192-4.866-8.192-4.866V24.957z"/>
<path fill="#010101" d="M24.781,15.973c-1.489,2.996-1.489,2.996-1.489,2.996c0.371,0,4.494,0.968,4.468,2.62
	c-0.027,1.768-4.097,2.621-4.84,2.621c0,3.367,0,3.367,0,3.367c1.116,0,7.848-1.452,7.819-5.988
	C30.716,17.902,25.153,15.973,24.781,15.973z"/>
</svg>
