<?xml version="1.0" encoding="utf-8"?>
<!-- Generator: Adobe Illustrator 15.1.0, SVG Export Plug-In . SVG Version: 6.00 Build 0)  -->
<!DOCTYPE svg PUBLIC "-//W3C//DTD SVG 1.1//EN" "http://www.w3.org/Graphics/SVG/1.1/DTD/svg11.dtd">
<svg version="1.1" id="Layer_1" xmlns="http://www.w3.org/2000/svg" xmlns:xlink="http://www.w3.org/1999/xlink" x="0px" y="0px"
	 width="20px" height="20px" viewBox="0 0 20 20" enable-background="new 0 0 20 20" xml:space="preserve">
<path fill="#010101" d="M10.618,8.077c0-0.906-0.665-5.001-2.025-4.977C7.391,3.124,6.569,7.17,6.569,8.529
	C4.542,7.398,4.542,7.398,4.542,7.398c0.227-1.132,0.989-6.476,4.052-6.334c4.064,0.191,4.05,6.56,4.05,7.013
	c1.576,0,2.146,0,2.146,0c-2.928,4.975-3.494,4.975-3.494,4.975C8.594,7.851,8.248,7.851,8.248,7.851L10.618,8.077z"/>
<path fill="#010101" d="M7.695,14.517c-0.899,0-4.583-0.274-4.604-1.688c-0.019-1.294,3.704-1.689,5.055-1.689
	C7.019,9.102,7.019,8.978,7.019,8.978C5.894,9.204,0.72,9.433,0.72,12.827c0,3.617,6.524,4.415,6.975,4.415c0,1.583,0,1.237,0,1.237
	c4.951-2.939,4.951-2.939,4.951-2.939c-4.951-2.938-4.951-2.938-4.951-2.938V14.517z"/>
<path fill="#010101" d="M15.465,9.433c-0.896,1.81-0.896,2.157-0.896,2.157c0.223,0,2.023,0.239,2.006,1.238
	c-0.018,1.067-2.129,1.237-2.576,1.237c0,2.033,0,2.38,0,2.38c0.672,0,4.74-0.876,4.723-3.617
	C18.707,10.598,15.691,9.433,15.465,9.433z"/>
</svg>
