<?xml version="1.0" encoding="utf-8"?>
<!-- Generator: Adobe Illustrator 15.1.0, SVG Export Plug-In . SVG Version: 6.00 Build 0)  -->
<!DOCTYPE svg PUBLIC "-//W3C//DTD SVG 1.1//EN" "http://www.w3.org/Graphics/SVG/1.1/DTD/svg11.dtd">
<svg version="1.1" id="Layer_1" xmlns="http://www.w3.org/2000/svg" xmlns:xlink="http://www.w3.org/1999/xlink" x="0px" y="0px"
	 width="24px" height="24px" viewBox="0 0 32 32" enable-background="new 0 0 32 32" xml:space="preserve">
<path d="M28.845,19.413l1.924,0.545c-0.67,2.368-1.949,4.544-3.7,6.294c-0.562,0.563-1.175,1.082-1.821,1.545l-1.165-1.625
	c0.559-0.4,1.088-0.85,1.573-1.334C27.164,23.329,28.267,21.453,28.845,19.413z M13.231,27.978l-0.574,1.916
	c1.345,0.402,2.744,0.606,4.16,0.606c1.336,0,2.66-0.182,3.937-0.541l-0.542-1.926C17.948,28.67,15.482,28.651,13.231,27.978z
	 M1.218,6.237l2.073,9.754l7.41-6.672L7.096,8.147c2.358-2.934,5.878-4.646,9.722-4.646c6.892,0,12.499,5.607,12.499,12.499h2
	c0-7.995-6.505-14.499-14.499-14.499c-4.64,0-9.023,2.271-11.733,5.993L1.218,6.237z"/>
</svg>
