<?xml version="1.0" encoding="utf-8"?>
<!-- Generator: Adobe Illustrator 15.1.0, SVG Export Plug-In . SVG Version: 6.00 Build 0)  -->
<!DOCTYPE svg PUBLIC "-//W3C//DTD SVG 1.1//EN" "http://www.w3.org/Graphics/SVG/1.1/DTD/svg11.dtd">
<svg version="1.1" id="Layer_1" xmlns="http://www.w3.org/2000/svg" xmlns:xlink="http://www.w3.org/1999/xlink" x="0px" y="0px"
	 width="32px" height="32px" viewBox="0 0 32 32" enable-background="new 0 0 32 32" xml:space="preserve">
<path d="M28.412,10.208v19.297c0,0.89-0.72,1.608-1.609,1.608H4.29c-0.888,0-1.608-0.719-1.608-1.608V2.704
	c0-0.888,0.72-1.608,1.608-1.608H19.3c0.886,0,2.126,0.519,2.747,1.14l5.226,5.225C27.892,8.081,28.412,9.321,28.412,10.208z
	 M26.267,11.817H19.3c-0.89,0-1.608-0.721-1.608-1.608V3.24H4.825v25.731h21.441V11.817z M9.65,13.961h11.792
	c0.303,0,0.537,0.235,0.537,0.536v1.073c0,0.302-0.234,0.536-0.537,0.536H9.65c-0.301,0-0.536-0.234-0.536-0.536v-1.073
	C9.114,14.196,9.349,13.961,9.65,13.961z M21.979,18.785v1.072c0,0.303-0.234,0.536-0.537,0.536H9.65
	c-0.301,0-0.536-0.233-0.536-0.536v-1.072c0-0.301,0.235-0.536,0.536-0.536h11.792C21.745,18.249,21.979,18.484,21.979,18.785z
	 M21.979,23.073v1.073c0,0.302-0.234,0.536-0.537,0.536H9.65c-0.301,0-0.536-0.234-0.536-0.536v-1.073
	c0-0.301,0.235-0.535,0.536-0.535h11.792C21.745,22.538,21.979,22.772,21.979,23.073z M19.835,9.672h6.299
	c-0.1-0.285-0.252-0.57-0.368-0.686l-5.244-5.244c-0.116-0.116-0.4-0.269-0.687-0.368V9.672z"/>
</svg>
