<?xml version="1.0" encoding="utf-8"?>
<!-- Generator: Adobe Illustrator 15.1.0, SVG Export Plug-In . SVG Version: 6.00 Build 0)  -->
<!DOCTYPE svg PUBLIC "-//W3C//DTD SVG 1.1//EN" "http://www.w3.org/Graphics/SVG/1.1/DTD/svg11.dtd">
<svg version="1.1" id="Layer_1" xmlns="http://www.w3.org/2000/svg" xmlns:xlink="http://www.w3.org/1999/xlink" x="0px" y="0px"
	 width="32px" height="32px" viewBox="0 0 32 32" enable-background="new 0 0 32 32" xml:space="preserve">
<g>
	<rect x="3.166" y="25.066" fill="#020202" width="14.393" height="2.471"/>
	<rect x="1.963" y="28.691" fill="#020202" width="16.498" height="2.473"/>
	<polygon fill="#020202" points="30.955,23.021 30.939,25.145 28.65,25.379 16.92,13.636 13.993,16.627 7.978,10.912 16.401,2.589 
		22.215,8.304 19.307,11.348 	"/>
	<polygon fill="#020202" points="7.543,11.612 5.772,13.1 9.401,17.182 11.29,15.341 	"/>
	<polygon fill="#020202" points="17.104,2.206 18.705,0.583 24.523,6.099 22.818,7.902 	"/>
</g>
<g>
	<path fill="#0B0B0B" d="M18.639,23.506l-1,1c-0.132,0.133-0.315,0.207-0.5,0.207c-0.184,0-0.367-0.074-0.5-0.207l-2.161-2.162
		l-2.162,2.162c-0.133,0.133-0.316,0.207-0.501,0.207c-0.184,0-0.368-0.074-0.5-0.207l-1-1c-0.132-0.133-0.206-0.316-0.206-0.5
		s0.074-0.367,0.206-0.5l2.162-2.162l-2.162-2.162c-0.132-0.133-0.206-0.316-0.206-0.5c0-0.186,0.074-0.369,0.206-0.5l1-0.999
		c0.132-0.133,0.316-0.205,0.5-0.205c0.185,0,0.368,0.072,0.501,0.205l2.162,2.159l2.161-2.159c0.133-0.133,0.316-0.205,0.5-0.205
		c0.185,0,0.368,0.072,0.5,0.205l1,0.999c0.131,0.131,0.205,0.314,0.205,0.5c0,0.184-0.074,0.367-0.205,0.5l-2.161,2.162
		l2.161,2.162c0.131,0.133,0.205,0.316,0.205,0.5S18.77,23.373,18.639,23.506z"/>
</g>
</svg>
