<?xml version="1.0" encoding="utf-8"?>
<!-- Generator: Adobe Illustrator 15.1.0, SVG Export Plug-In . SVG Version: 6.00 Build 0)  -->
<!DOCTYPE svg PUBLIC "-//W3C//DTD SVG 1.1//EN" "http://www.w3.org/Graphics/SVG/1.1/DTD/svg11.dtd">
<svg version="1.1" id="Layer_1" xmlns="http://www.w3.org/2000/svg" xmlns:xlink="http://www.w3.org/1999/xlink" x="0px" y="0px"
	 width="32px" height="32px" viewBox="0 0 32 32" enable-background="new 0 0 32 32" xml:space="preserve">
<g>
	<g>
		<path d="M26.782,27.977c-0.678,0-1.338-0.273-1.812-0.75l-5.249-5.26c-0.479-0.461-0.76-1.125-0.76-1.813l-0.001-0.132
			c-0.002-0.344,0.01-0.621,0.133-0.9l-2.763-2.76l-0.628,0.628l-1.021-1.021l1.65-1.649l4.727,4.723l-0.515,0.511
			c-0.111,0.11-0.128,0.149-0.128,0.15c-0.012,0.034-0.011,0.192-0.01,0.309v0.142c0,0.292,0.123,0.585,0.328,0.782l5.26,5.271
			c0.409,0.411,1.161,0.413,1.605-0.012l1.804-1.819c0.206-0.204,0.325-0.496,0.324-0.788c0-0.302-0.121-0.597-0.333-0.813
			l-5.238-5.241c-0.21-0.201-0.507-0.323-0.804-0.323h-0.147c-0.12-0.004-0.269-0.003-0.305,0.01c0,0-0.04,0.018-0.147,0.126
			l-0.511,0.514l-4.727-4.723l3.355-3.316v0.001c0.005,0.004,0.009,0.008,0.013,0.012l0.126,0.128
			c0.354,0.361,0.49,0.485,0.769,0.485c0.18,0,0.339-0.067,0.485-0.206l0.21-0.194c0.47-0.428,0.778-0.734,0.778-1.073
			c0-0.175-0.072-0.352-0.192-0.471L17.16,2.604c-0.12-0.121-0.296-0.192-0.471-0.192c-0.339,0-0.646,0.309-1.075,0.779
			l-0.191,0.207c-0.143,0.152-0.209,0.307-0.209,0.49c0,0.26,0.097,0.384,0.478,0.759l0.133,0.132
			c0.005,0.005,0.011,0.011,0.017,0.017l0,0c0,0,0,0,0.001,0l-1.026,1.016l-0.001,0l-6.827,6.836c0-0.001-0.001-0.001-0.001-0.002
			l0,0c-0.006-0.006-0.012-0.012-0.018-0.018l-0.122-0.124c-0.379-0.387-0.504-0.485-0.766-0.485c-0.184,0-0.339,0.065-0.486,0.206
			L6.384,12.42c-0.47,0.428-0.778,0.733-0.778,1.074c0,0.175,0.072,0.352,0.193,0.472l1.214,1.214l-1.021,1.021l-1.214-1.214
			c-0.391-0.392-0.616-0.936-0.616-1.494c0-1.004,0.723-1.662,1.25-2.142l0.191-0.176c0.412-0.392,0.924-0.601,1.479-0.601
			c0.318,0,0.585,0.064,0.817,0.165c0.027-0.033,0.057-0.065,0.087-0.096l5.852-5.851c0.031-0.031,0.063-0.061,0.097-0.088
			c-0.101-0.231-0.165-0.499-0.165-0.818c0-0.55,0.208-1.062,0.603-1.48l0.175-0.189c0.481-0.528,1.14-1.251,2.142-1.251
			c0.558,0,1.101,0.225,1.492,0.615l5.897,5.898c0.391,0.39,0.615,0.935,0.615,1.494c0,1.002-0.722,1.66-1.248,2.141l-0.192,0.177
			c-0.414,0.393-0.926,0.601-1.477,0.601c-0.318,0-0.587-0.064-0.818-0.165c-0.028,0.034-0.058,0.066-0.089,0.098l-1.313,1.313
			l2.762,2.76c0.278-0.122,0.564-0.131,0.895-0.131l0.138,0c0.667,0,1.328,0.268,1.814,0.736l5.256,5.258
			c0.478,0.491,0.748,1.153,0.748,1.824c0.005,0.678-0.269,1.341-0.747,1.814l-1.813,1.827
			C28.107,27.708,27.446,27.977,26.782,27.977z"/>
	</g>
</g>
<g>
	<g>
		<path d="M10.6,30.983H8.54c-0.526,0-0.969-0.388-1.03-0.902l-0.195-1.298c-0.039-0.015-0.076-0.031-0.114-0.047l-0.968,0.745
			c-0.301,0.275-0.988,0.315-1.383-0.073c-0.561-0.513-1.195-1.093-1.609-1.675c-0.126-0.177-0.194-0.395-0.194-0.626
			c0-0.215,0.063-0.413,0.193-0.605c0.165-0.227,0.32-0.428,0.476-0.629c0.089-0.115,0.178-0.23,0.267-0.348
			c-0.033-0.074-0.063-0.149-0.092-0.224l-1.275-0.193c-0.498-0.083-0.865-0.525-0.865-1.03v-2.09c0-0.49,0.361-0.941,0.821-1.029
			l1.334-0.206c0.022-0.055,0.045-0.109,0.069-0.164c-0.234-0.317-0.477-0.623-0.725-0.93C3.088,19.471,3,19.236,3,18.993
			c0-0.284,0.118-0.488,0.207-0.617c0.021-0.031,1.526-1.991,2.367-1.991c0.225,0,0.444,0.076,0.651,0.225l0.961,0.758
			c0.034-0.016,0.069-0.03,0.103-0.044c0.054-0.469,0.116-0.949,0.239-1.421c0.113-0.46,0.53-0.788,1.012-0.788h2.059
			c0.526,0,0.968,0.388,1.03,0.902l0.195,1.298c0.04,0.017,0.079,0.032,0.117,0.049l0.943-0.724
			c0.349-0.318,0.953-0.343,1.363,0.005l0.202,0.188c0.475,0.445,1.065,0.999,1.45,1.549c0.117,0.145,0.192,0.368,0.192,0.612
			c0,0.218-0.064,0.417-0.196,0.61c-0.161,0.222-0.314,0.42-0.468,0.619c-0.09,0.117-0.181,0.234-0.271,0.353
			c0.032,0.073,0.062,0.146,0.091,0.219l1.277,0.199c0.495,0.083,0.862,0.525,0.862,1.029v2.093
			c0.005,0.482-0.356,0.937-0.824,1.026l-1.33,0.205c-0.021,0.055-0.043,0.107-0.066,0.159c0.22,0.301,0.456,0.593,0.725,0.925
			c0.158,0.189,0.249,0.432,0.249,0.676c0,0.247-0.083,0.472-0.246,0.667l0,0c0.001,0-1.502,1.938-2.328,1.938
			c-0.207,0-0.407-0.063-0.615-0.193l-1-0.788c-0.034,0.015-0.068,0.028-0.102,0.043c-0.053,0.469-0.115,0.949-0.239,1.423
			C11.498,30.657,11.081,30.983,10.6,30.983z M8.854,29.581h1.461c0.076-0.371,0.12-0.766,0.163-1.149l0.08-0.694l0.429-0.14
			c0.244-0.078,0.498-0.186,0.733-0.309l0.404-0.212l1.429,1.133c0.304-0.259,0.799-0.778,1.08-1.105
			c-0.315-0.391-0.587-0.739-0.857-1.137l-0.24-0.354l0.204-0.376c0.112-0.207,0.211-0.443,0.312-0.743l0.136-0.405l1.8-0.277
			l-0.001-1.482l-1.808-0.282l-0.126-0.424c-0.079-0.262-0.189-0.531-0.33-0.8l-0.2-0.382l0.25-0.351
			c0.177-0.248,0.362-0.488,0.547-0.727c0.096-0.124,0.191-0.247,0.285-0.372c-0.308-0.377-0.714-0.763-1.061-1.088l-1.448,1.111
			l-0.399-0.215c-0.217-0.117-0.452-0.216-0.718-0.301l-0.414-0.134l-0.277-1.849h-1.46c-0.077,0.376-0.122,0.775-0.165,1.164
			l-0.078,0.683l-0.434,0.138c-0.238,0.075-0.49,0.182-0.726,0.307L7.02,19.023l-1.437-1.133c-0.307,0.26-0.8,0.778-1.074,1.099
			c0.298,0.371,0.582,0.739,0.852,1.127l0.245,0.35l-0.199,0.378c-0.134,0.256-0.237,0.5-0.313,0.746l-0.13,0.42l-1.813,0.279v1.482
			l1.811,0.273l0.126,0.43c0.076,0.261,0.187,0.531,0.33,0.805l0.199,0.382l-0.25,0.35c-0.176,0.246-0.359,0.484-0.543,0.721
			c-0.098,0.127-0.196,0.254-0.292,0.382c0.297,0.362,0.707,0.749,1.072,1.084l1.438-1.108l0.398,0.209
			c0.216,0.114,0.454,0.214,0.728,0.304l0.409,0.136L8.854,29.581z M9.569,26.162c-1.695,0-3.075-1.396-3.075-3.111
			s1.379-3.111,3.075-3.111c1.696,0,3.076,1.396,3.076,3.111S11.265,26.162,9.569,26.162z M9.569,21.342
			c-0.922,0-1.671,0.767-1.671,1.709s0.75,1.709,1.671,1.709c0.922,0,1.672-0.767,1.672-1.709S10.491,21.342,9.569,21.342z"/>
	</g>
</g>
</svg>
