<?xml version="1.0" encoding="utf-8"?>
<!-- Generator: Adobe Illustrator 15.1.0, SVG Export Plug-In . SVG Version: 6.00 Build 0)  -->
<!DOCTYPE svg PUBLIC "-//W3C//DTD SVG 1.1//EN" "http://www.w3.org/Graphics/SVG/1.1/DTD/svg11.dtd">
<svg version="1.1" id="Layer_1" xmlns="http://www.w3.org/2000/svg" xmlns:xlink="http://www.w3.org/1999/xlink" x="0px" y="0px"
	 width="20px" height="20px" viewBox="0 0 20 20" enable-background="new 0 0 20 20" xml:space="preserve">
<rect x="2.039" y="14.211" fill="#020202" width="9.165" height="1.574"/>
<rect x="1.271" y="16.881" fill="#020202" width="10.506" height="1.574"/>
<g>
	<path d="M18.92,15.836l-1.021,1.033c-0.23,0.219-0.547,0.354-0.871,0.354c-0.326,0-0.641-0.137-0.861-0.354l-3.471-3.482
		c-0.229-0.217-0.361-0.533-0.361-0.857c0-0.361,0.152-0.66,0.412-0.918l-2.451-2.449l-1.207,1.206
		c-0.084,0.085-0.2,0.131-0.324,0.131c-0.125,0-0.24-0.046-0.325-0.131c0.286,0.286,0.555,0.495,0.555,0.935
		c0,0.248-0.095,0.47-0.269,0.651c-0.324,0.346-0.668,0.803-1.184,0.803c-0.239,0-0.479-0.096-0.65-0.268L2.99,8.591
		C2.817,8.419,2.723,8.18,2.723,7.939c0-0.516,0.458-0.859,0.804-1.186c0.181-0.171,0.401-0.265,0.651-0.265
		c0.439,0,0.648,0.266,0.936,0.553c-0.086-0.085-0.134-0.2-0.134-0.324c0-0.123,0.048-0.24,0.134-0.324l3.328-3.328
		c0.086-0.087,0.201-0.135,0.325-0.135c0.123,0,0.239,0.049,0.324,0.134C8.806,2.778,8.537,2.567,8.537,2.126
		c0-0.247,0.094-0.468,0.269-0.65C9.129,1.132,9.474,0.673,9.99,0.673c0.241,0,0.479,0.094,0.651,0.268l3.9,3.9
		c0.172,0.173,0.269,0.412,0.269,0.65c0,0.518-0.457,0.86-0.804,1.186c-0.182,0.171-0.401,0.268-0.65,0.268
		c-0.439,0-0.65-0.268-0.938-0.554c0.086,0.085,0.134,0.199,0.134,0.324s-0.048,0.239-0.134,0.324l-1.205,1.205l2.449,2.448
		c0.256-0.258,0.553-0.411,0.916-0.411c0.326,0,0.641,0.133,0.871,0.352l3.469,3.473c0.224,0.227,0.354,0.543,0.354,0.869
		C19.272,15.299,19.142,15.615,18.92,15.836z"/>
</g>
</svg>
