<?xml version="1.0" encoding="utf-8"?>
<!-- Generator: Adobe Illustrator 15.1.0, SVG Export Plug-In . SVG Version: 6.00 Build 0)  -->
<!DOCTYPE svg PUBLIC "-//W3C//DTD SVG 1.1//EN" "http://www.w3.org/Graphics/SVG/1.1/DTD/svg11.dtd">
<svg version="1.1" id="Layer_1" xmlns="http://www.w3.org/2000/svg" xmlns:xlink="http://www.w3.org/1999/xlink" x="0px" y="0px"
	 width="32px" height="32px" viewBox="0 0 32 32" enable-background="new 0 0 32 32" xml:space="preserve">
<g>
	<rect x="3.075" y="23.247" fill="#020202" width="14.393" height="2.472"/>
</g>
<g>
	<rect x="1.872" y="27.439" fill="#020202" width="16.499" height="2.473"/>
</g>
<g>
	<g>
		<path d="M26.898,28.443c-0.704,0-1.391-0.284-1.884-0.779l-5.45-5.465c-0.497-0.479-0.789-1.168-0.789-1.883l-0.001-0.138
			c-0.002-0.356,0.01-0.645,0.138-0.935l-2.871-2.867l-1.363,1.362c-0.032,0.032-0.064,0.063-0.099,0.092
			c0.104,0.241,0.171,0.52,0.171,0.851c0,0.567-0.216,1.098-0.624,1.533l-0.19,0.206c-0.498,0.545-1.18,1.292-2.219,1.292
			c-0.583,0-1.149-0.234-1.554-0.643l-6.124-6.121c-0.407-0.406-0.64-0.972-0.64-1.551c0-1.042,0.749-1.724,1.296-2.223l0.201-0.185
			c0.431-0.408,0.962-0.624,1.536-0.624c0.33,0,0.608,0.066,0.849,0.171c0.028-0.034,0.059-0.067,0.091-0.1l6.078-6.078
			c0.032-0.032,0.066-0.063,0.101-0.092c-0.105-0.24-0.171-0.519-0.171-0.849c0-0.573,0.216-1.104,0.626-1.537l0.182-0.198
			c0.499-0.548,1.183-1.298,2.223-1.298c0.577,0,1.143,0.233,1.551,0.639l6.128,6.127c0.406,0.405,0.64,0.971,0.64,1.551
			c0,1.038-0.745,1.719-1.29,2.217l-0.204,0.189c-0.436,0.41-0.967,0.625-1.537,0.625c-0.331,0-0.609-0.066-0.851-0.171
			c-0.028,0.035-0.06,0.068-0.092,0.101l-1.363,1.363l2.87,2.868c0.249-0.108,0.502-0.137,0.804-0.137l0.267,0.001
			c0.691,0,1.378,0.278,1.886,0.764l5.459,5.463c0.497,0.508,0.778,1.196,0.778,1.896c0.005,0.7-0.276,1.389-0.773,1.884
			l-1.886,1.898C28.278,28.163,27.591,28.443,26.898,28.443z M16.041,14.257l4.91,4.904l-0.533,0.53
			c-0.146,0.145-0.146,0.145-0.144,0.477l0.001,0.148c0,0.304,0.127,0.608,0.34,0.813l5.463,5.476
			c0.426,0.427,1.209,0.429,1.668-0.011l1.876-1.891c0.213-0.212,0.337-0.517,0.335-0.817c0-0.312-0.129-0.626-0.345-0.847
			l-5.441-5.445c-0.219-0.209-0.528-0.336-0.837-0.336l-0.267-0.001c-0.147,0-0.189,0.007-0.202,0.011c0,0-0.042,0.018-0.152,0.13
			l-0.529,0.536l-4.913-4.908l3.486-3.443v0c0.005,0.004,0.009,0.009,0.014,0.014l0.13,0.131c0.368,0.376,0.511,0.506,0.799,0.506
			c0.187,0,0.353-0.071,0.508-0.216l0.222-0.205c0.484-0.443,0.802-0.76,0.802-1.11c0-0.182-0.074-0.365-0.2-0.49l-6.127-6.126
			c-0.126-0.125-0.31-0.201-0.491-0.201c-0.352,0-0.669,0.32-1.115,0.809l-0.2,0.217c-0.148,0.157-0.217,0.318-0.217,0.508
			c0,0.285,0.128,0.426,0.499,0.79l0.137,0.136c0.004,0.004,0.009,0.009,0.014,0.014l0,0l-8.157,8.157
			c-0.005-0.005-0.01-0.01-0.015-0.015L7.23,12.371c-0.394-0.403-0.524-0.505-0.796-0.505c-0.191,0-0.352,0.068-0.506,0.214
			l-0.221,0.204c-0.487,0.444-0.806,0.761-0.806,1.114c0,0.182,0.075,0.365,0.2,0.491l6.126,6.123
			c0.126,0.127,0.309,0.201,0.491,0.201c0.351,0,0.668-0.318,1.111-0.804l0.205-0.222c0.146-0.157,0.216-0.318,0.216-0.506
			c0-0.291-0.13-0.433-0.507-0.801l-0.127-0.125c-0.001-0.001-0.002-0.002-0.002-0.003l-0.004-0.004L16.041,14.257z"/>
	</g>
</g>
</svg>
