<?xml version="1.0" encoding="utf-8"?>
<!-- Generator: Adobe Illustrator 15.1.0, SVG Export Plug-In . SVG Version: 6.00 Build 0)  -->
<!DOCTYPE svg PUBLIC "-//W3C//DTD SVG 1.1//EN" "http://www.w3.org/Graphics/SVG/1.1/DTD/svg11.dtd">
<svg version="1.1" id="Layer_1" xmlns="http://www.w3.org/2000/svg" xmlns:xlink="http://www.w3.org/1999/xlink" x="0px" y="0px"
	 width="20px" height="20px" viewBox="0 0 20 20" enable-background="new 0 0 20 20" xml:space="preserve">
<g>
	<g>
		<path d="M17.098,18.474H2.859c-0.802-0.003-1.452-0.655-1.452-1.454V2.98c0-0.801,0.651-1.452,1.452-1.452h8.903
			c0.631,0,1.454,0.324,1.915,0.755l4.047,3.775c0.472,0.44,0.826,1.256,0.826,1.899v9.063
			C18.55,17.821,17.898,18.474,17.098,18.474z M2.859,2.67c-0.167,0-0.31,0.142-0.31,0.31v14.04c0,0.168,0.143,0.311,0.312,0.312
			h14.236c0.168,0,0.31-0.143,0.31-0.312V7.957c0-0.324-0.226-0.841-0.463-1.063l-4.047-3.775c-0.247-0.23-0.799-0.448-1.136-0.448
			H2.859z"/>
	</g>
</g>
<g>
	<g>
		<path d="M4.494,17.714l0.346-4.755c0-0.48,0.396-0.882,0.881-0.882h8.472c0.481,0,0.883,0.396,0.883,0.882l0.344,4.883"/>
	</g>
	<g>
		<path d="M15.54,17.842h-0.932v-4.883c0-0.226-0.191-0.416-0.417-0.416H5.72c-0.225,0-0.416,0.19-0.416,0.416v4.755H4.373v-4.755
			c0-0.743,0.604-1.348,1.347-1.348h8.471c0.744,0,1.349,0.604,1.349,1.348V17.842z"/>
	</g>
</g>
<g>
	<g>
		<path d="M10.872,7.992H4.976c-0.599,0-1.085-0.487-1.085-1.085V2.368h1.143v4.539l5.839-0.058l-0.053-4.555h1.143v4.612
			C11.962,7.505,11.473,7.992,10.872,7.992z"/>
	</g>
</g>
<g>
	<rect x="4.494" y="2.099" width="4.008" height="5.324"/>
</g>
</svg>
