<?xml version="1.0" encoding="utf-8"?>
<!-- Generator: Adobe Illustrator 15.1.0, SVG Export Plug-In . SVG Version: 6.00 Build 0)  -->
<!DOCTYPE svg PUBLIC "-//W3C//DTD SVG 1.1//EN" "http://www.w3.org/Graphics/SVG/1.1/DTD/svg11.dtd">
<svg version="1.1" id="Layer_1" xmlns="http://www.w3.org/2000/svg" xmlns:xlink="http://www.w3.org/1999/xlink" x="0px" y="0px"
	 width="32px" height="32px" viewBox="0 0 32 32" enable-background="new 0 0 32 32" xml:space="preserve">
<g>
	<g>
		<g>
			<path d="M27.167,29.917H4.251c-1.195,0-2.167-0.972-2.167-2.167V5.154c0-1.195,0.972-2.167,2.167-2.167h14.332
				c0.977,0,2.251,0.502,2.965,1.169l6.512,6.079c0.727,0.677,1.274,1.938,1.274,2.933V27.75
				C29.334,28.945,28.362,29.917,27.167,29.917z M4.251,4.487c-0.368,0-0.667,0.299-0.667,0.667V27.75
				c0,0.368,0.299,0.667,0.667,0.667h22.916c0.361,0,0.667-0.306,0.667-0.667V13.168c0-0.572-0.38-1.447-0.798-1.836l-6.512-6.079
				c-0.43-0.401-1.354-0.766-1.941-0.766H4.251z"/>
		</g>
	</g>
	<g>
		<g>
			<path d="M24.885,29.068h-1.5v-7.853c0-0.368-0.299-0.667-0.666-0.667H8.866c-0.361,0-0.667,0.306-0.667,0.667v7.65h-1.5v-7.65
				c0-1.195,0.972-2.167,2.167-2.167h13.853c1.194,0,2.166,0.972,2.166,2.167V29.068z"/>
		</g>
	</g>
	<g>
		<g>
			<path d="M17.148,13.053H7.659c-0.87,0-1.578-0.708-1.578-1.578V4.17h1.5v7.305c0,0.042,0.037,0.078,0.078,0.078h9.489
				c0.041,0,0.078-0.037,0.078-0.078V4.052h1.5v7.423C18.727,12.345,18.019,13.053,17.148,13.053z"/>
		</g>
	</g>
	<g>
		<rect x="6.882" y="3.736" width="6.452" height="8.567"/>
	</g>
</g>
</svg>
