<?xml version="1.0" encoding="utf-8"?>
<!-- Generator: Adobe Illustrator 15.1.0, SVG Export Plug-In . SVG Version: 6.00 Build 0)  -->
<!DOCTYPE svg PUBLIC "-//W3C//DTD SVG 1.1//EN" "http://www.w3.org/Graphics/SVG/1.1/DTD/svg11.dtd">
<svg version="1.1" id="Layer_1" xmlns="http://www.w3.org/2000/svg" xmlns:xlink="http://www.w3.org/1999/xlink" x="0px" y="0px"
	 width="20px" height="20px" viewBox="0 0 20 20" enable-background="new 0 0 20 20" xml:space="preserve">
<rect x="5.5" y="6.625" width="5.625" height="4.5"/>
<polygon points="14.502,8.875 12.252,8.875 12.252,12.25 8.875,12.25 8.875,13.375 14.502,13.375 "/>
<path d="M17.875,5.5v9H19v3.375h-3.375V16.75H4.375v1.125H1V14.5h1.125v-9H1V2.125h3.375V3.25h11.25V2.125H19V5.5H17.875z
	 M2.125,4.375H3.25V3.25H2.125V4.375z M3.25,15.625H2.125v1.125H3.25V15.625z M15.625,14.5h1.127v-9h-1.127V4.375H4.375V5.5H3.25v9
	h1.125v1.125h11.25V14.5z M15.625,7.75v6.75H7.75v-2.25H4.375V5.5h7.875v2.25H15.625z M16.752,4.375h1.123V3.25h-1.123V4.375z
	 M17.875,15.625h-1.123v1.125h1.123V15.625z"/>
</svg>
