<?xml version="1.0" encoding="utf-8"?>
<!-- Generator: Adobe Illustrator 15.1.0, SVG Export Plug-In . SVG Version: 6.00 Build 0)  -->
<!DOCTYPE svg PUBLIC "-//W3C//DTD SVG 1.1//EN" "http://www.w3.org/Graphics/SVG/1.1/DTD/svg11.dtd">
<svg version="1.1" id="Layer_1" xmlns="http://www.w3.org/2000/svg" xmlns:xlink="http://www.w3.org/1999/xlink" x="0px" y="0px"
	 width="32px" height="32px" viewBox="0 0 32 32" enable-background="new 0 0 32 32" xml:space="preserve">
<path d="M28.846,8.34v14.567h1.821v5.463h-5.463v-1.821H6.996v1.821H1.533v-5.463h1.821V8.34H1.533V2.878h5.462v1.821h18.208V2.878
	h5.463V8.34H28.846z M3.354,6.52h1.821V4.699H3.354V6.52z M5.175,24.729H3.354v1.82h1.821V24.729z M25.204,22.907h1.821V8.34h-1.821
	V6.52H6.996v1.82H5.175v14.567h1.821v1.821h18.208V22.907z M25.204,11.982v10.925H12.458v-3.642H6.996V8.34h12.747v3.642H25.204z
	 M17.921,17.443v-7.282H8.816v7.282H17.921z M23.384,13.803h-3.642v5.462h-5.463v1.818h9.104L23.384,13.803L23.384,13.803z
	 M27.025,6.52h1.82V4.699h-1.82V6.52z M28.846,24.729h-1.82v1.82h1.82V24.729z"/>
</svg>
