<?xml version="1.0" encoding="utf-8"?>
<!-- Generator: Adobe Illustrator 15.1.0, SVG Export Plug-In . SVG Version: 6.00 Build 0)  -->
<!DOCTYPE svg PUBLIC "-//W3C//DTD SVG 1.1//EN" "http://www.w3.org/Graphics/SVG/1.1/DTD/svg11.dtd">
<svg version="1.1" id="Layer_1" xmlns="http://www.w3.org/2000/svg" xmlns:xlink="http://www.w3.org/1999/xlink" x="0px" y="0px"
	 width="32px" height="32px" viewBox="0 0 32 32" enable-background="new 0 0 32 32" xml:space="preserve">
<g>
	<path d="M26.736,31.012c-4.521-4.524-4.521-4.524-4.521-4.524c-1.884,1.508-4.522,2.264-7.537,2.264
		c-7.536,0-13.565-6.409-13.565-13.95S7.142,1.229,14.678,1.229c7.537,0,13.942,6.031,13.942,13.572
		c0,2.639-0.752,5.277-2.261,7.164c4.521,4.899,4.521,4.899,4.521,4.899c0.753,0.376-0.796,2.307-1.312,2.857
		C29.055,30.271,27.113,31.388,26.736,31.012L26.736,31.012z M24.099,14.801c0-4.901-4.146-9.047-9.42-9.047
		c-4.898,0-9.043,4.146-9.043,9.047c0,5.277,4.146,9.424,9.043,9.424C19.953,24.226,24.099,20.078,24.099,14.801L24.099,14.801z"/>
</g>
</svg>
