<?xml version="1.0" encoding="utf-8"?>
<!-- Generator: Adobe Illustrator 15.1.0, SVG Export Plug-In . SVG Version: 6.00 Build 0)  -->
<!DOCTYPE svg PUBLIC "-//W3C//DTD SVG 1.1//EN" "http://www.w3.org/Graphics/SVG/1.1/DTD/svg11.dtd">
<svg version="1.1" id="Layer_1" xmlns="http://www.w3.org/2000/svg" xmlns:xlink="http://www.w3.org/1999/xlink" x="0px" y="0px"
	 width="32px" height="32px" viewBox="0 0 32 32" enable-background="new 0 0 32 32" xml:space="preserve">
<g>
	<path d="M12.432,24.104c-6.34,0-11.498-5.158-11.498-11.498c0-6.34,5.158-11.498,11.498-11.498c6.339,0,11.498,5.158,11.498,11.498
		C23.93,18.945,18.771,24.104,12.432,24.104z M12.432,2.608c-5.513,0-9.998,4.485-9.998,9.998c0,5.512,4.485,9.998,9.998,9.998
		c5.512,0,9.998-4.485,9.998-9.998C22.43,7.093,17.944,2.608,12.432,2.608z"/>
</g>
<g>
	<polygon points="21.043,19.684 30.867,28.586 29.396,30.584 19.343,21.498 	"/>
	<path d="M29.396,31.334c-0.185,0-0.364-0.068-0.503-0.193L18.84,22.055c-0.149-0.135-0.238-0.324-0.246-0.525
		c-0.009-0.201,0.064-0.397,0.202-0.544l1.7-1.814c0.28-0.298,0.748-0.316,1.051-0.043l9.824,8.902c0.285,0.258,0.328,0.69,0.101,1
		l-1.471,1.998c-0.126,0.171-0.318,0.28-0.529,0.302C29.446,31.333,29.422,31.334,29.396,31.334z M20.412,21.454l8.872,8.018
		l0.577-0.785l-8.775-7.952L20.412,21.454z"/>
</g>
</svg>
