<?xml version="1.0" encoding="utf-8"?>
<!-- Generator: Adobe Illustrator 15.1.0, SVG Export Plug-In . SVG Version: 6.00 Build 0)  -->
<!DOCTYPE svg PUBLIC "-//W3C//DTD SVG 1.1//EN" "http://www.w3.org/Graphics/SVG/1.1/DTD/svg11.dtd">
<svg version="1.1" id="Layer_1" xmlns="http://www.w3.org/2000/svg" xmlns:xlink="http://www.w3.org/1999/xlink" x="0px" y="0px"
	 width="20px" height="20px" viewBox="0 0 20 20" enable-background="new 0 0 20 20" xml:space="preserve">
<g>
	<g>
		<path d="M7.957,14.965c-3.757,0-6.814-3.057-6.814-6.814S4.2,1.336,7.957,1.336c3.758,0,6.814,3.057,6.814,6.814
			S11.715,14.965,7.957,14.965z M7.957,3.051c-2.812,0-5.1,2.288-5.1,5.1s2.288,5.099,5.1,5.099c2.813,0,5.1-2.287,5.1-5.099
			S10.77,3.051,7.957,3.051z"/>
	</g>
	<g>
		<polygon points="12.729,12.072 18,17.313 17.359,18.115 11.786,13.078 		"/>
		<path d="M17.359,18.973c-0.212,0-0.417-0.078-0.575-0.222l-5.573-5.037c-0.17-0.154-0.271-0.37-0.281-0.601
			c-0.01-0.229,0.073-0.453,0.23-0.621l0.942-1.006c0.159-0.169,0.379-0.267,0.61-0.271c0.006,0,0.011,0,0.016,0
			c0.227,0,0.443,0.09,0.604,0.249l5.271,5.24c0.31,0.309,0.338,0.801,0.065,1.144l-0.641,0.803c-0.147,0.185-0.364,0.3-0.601,0.319
			C17.405,18.972,17.383,18.973,17.359,18.973z"/>
	</g>
</g>
</svg>
