<?xml version="1.0" encoding="utf-8"?>
<!-- Generator: Adobe Illustrator 15.1.0, SVG Export Plug-In . SVG Version: 6.00 Build 0)  -->
<!DOCTYPE svg PUBLIC "-//W3C//DTD SVG 1.1//EN" "http://www.w3.org/Graphics/SVG/1.1/DTD/svg11.dtd">
<svg version="1.1" id="Layer_1" xmlns="http://www.w3.org/2000/svg" xmlns:xlink="http://www.w3.org/1999/xlink" x="0px" y="0px"
	 width="32px" height="32px" viewBox="0 0 32 32" enable-background="new 0 0 32 32" xml:space="preserve">
<g>
</g>
<path fill="#010101" d="M15.297,22.759c-11.287,0-11.287,0-11.287,0c0-15.11,0-15.11,0-15.11c15.424,0,15.424,0,15.424,0
	c0,4.054,0,4.054,0,4.054c3.009,0.737,3.009,0.737,3.009,0.737c0-4.792,0-4.792,0-4.792c0-1.474-1.505-2.948-3.009-2.948
	c-15.424,0-15.424,0-15.424,0C2.505,4.701,1,6.175,1,7.649c0,15.11,0,15.11,0,15.11c0,1.843,1.505,2.948,3.01,2.948
	c12.415,0,12.415,0,12.415,0L15.297,22.759z"/>
<path fill="#010101" d="M28.463,28.737c-0.375,0-0.375,0-0.752-0.368c-4.139-4.055-4.139-4.055-4.139-4.055
	c-2.634,2.58-2.634,2.58-2.634,2.58s-0.709,0.644-1.127-0.368c-3.387-11.425-3.387-11.425-3.387-11.425
	c-0.364-0.827,0.127-1.031,0.752-0.737c11.663,3.317,11.663,3.317,11.663,3.317c0.565,0.19,0.811,0.619,0.375,1.105
	c-2.632,2.579-2.632,2.579-2.632,2.579c4.137,4.054,4.137,4.054,4.137,4.054c0.376,0.369,0.376,0.737,0,1.106
	C28.84,28.369,28.463,28.737,28.463,28.737L28.463,28.737z"/>
</svg>
