<?xml version="1.0" encoding="utf-8"?>
<!-- Generator: Adobe Illustrator 15.1.0, SVG Export Plug-In . SVG Version: 6.00 Build 0)  -->
<!DOCTYPE svg PUBLIC "-//W3C//DTD SVG 1.1//EN" "http://www.w3.org/Graphics/SVG/1.1/DTD/svg11.dtd">
<svg version="1.1" id="Layer_1" xmlns="http://www.w3.org/2000/svg" xmlns:xlink="http://www.w3.org/1999/xlink" x="0px" y="0px"
	 width="24px" height="24px" viewBox="0 0 32 32" enable-background="new 0 0 32 32" xml:space="preserve">
<g>
	<path fill="#010101" d="M28.463,29.486c-0.617,0-0.793-0.11-1.275-0.58l-3.615-3.542l-2.11,2.066
		c-0.094,0.085-0.483,0.415-1.016,0.415c-0.337,0-0.957-0.134-1.329-1.034l-3.415-11.497c-0.279-0.62-0.143-1.078,0.026-1.337
		c0.321-0.492,0.998-0.63,1.704-0.319l11.609,3.302c0.599,0.199,0.979,0.561,1.103,1.028c0.067,0.254,0.108,0.762-0.375,1.299
		l-2.118,2.077l3.591,3.518c0.337,0.329,0.509,0.696,0.509,1.089s-0.172,0.76-0.511,1.09c-1.877,1.846-2.254,2.213-2.254,2.213
		l-0.219,0.213H28.463z M23.572,23.265l4.663,4.568c0.014,0.014,0.027,0.026,0.039,0.038c0.313-0.306,0.89-0.873,1.917-1.883
		c0.006-0.006,0.012-0.012,0.018-0.018c-0.005-0.005-0.01-0.01-0.016-0.016l-4.685-4.591l3.045-2.984l-11.34-3.225l3.305,11.12
		L23.572,23.265z"/>
</g>
<g>
	<g>
		<path d="M15.516,25.671H4.375c-1.976,0-3.584-1.608-3.584-3.585V6.388c0-1.976,1.608-3.584,3.584-3.584h15.516
			c1.978,0,3.586,1.608,3.586,3.584v5.548c0,0.414-0.336,0.75-0.75,0.75s-0.75-0.336-0.75-0.75V6.388
			c0-1.149-0.936-2.084-2.086-2.084H4.375c-1.149,0-2.084,0.935-2.084,2.084v15.698c0,1.149,0.935,2.085,2.084,2.085h11.141
			c0.414,0,0.75,0.336,0.75,0.75S15.93,25.671,15.516,25.671z"/>
	</g>
</g>
</svg>
