<?xml version="1.0" encoding="utf-8"?>
<!-- Generator: Adobe Illustrator 15.1.0, SVG Export Plug-In . SVG Version: 6.00 Build 0)  -->
<!DOCTYPE svg PUBLIC "-//W3C//DTD SVG 1.1//EN" "http://www.w3.org/Graphics/SVG/1.1/DTD/svg11.dtd">
<svg version="1.1" id="Layer_1" xmlns="http://www.w3.org/2000/svg" xmlns:xlink="http://www.w3.org/1999/xlink" x="0px" y="0px"
	 width="20px" height="20px" viewBox="0 0 20 20" enable-background="new 0 0 20 20" xml:space="preserve">
<g>
	<path fill="#010101" d="M17.816,18.102c-0.229,0-0.229,0-0.457-0.226c-2.529-2.479-2.529-2.479-2.529-2.479
		c-1.609,1.576-1.609,1.576-1.609,1.576s-0.436,0.394-0.688-0.226c-2.072-6.98-2.072-6.98-2.072-6.98
		c-0.222-0.504,0.078-0.629,0.459-0.449c7.126,2.028,7.126,2.028,7.126,2.028c0.349,0.114,0.496,0.377,0.229,0.674
		c-1.607,1.576-1.607,1.576-1.607,1.576c2.527,2.478,2.527,2.478,2.527,2.478c0.229,0.228,0.229,0.45,0,0.677
		C18.047,17.876,17.816,18.102,17.816,18.102L17.816,18.102z"/>
</g>
<g>
	<g>
		<path d="M9.907,16.731H3.102c-1.487,0-2.697-1.208-2.697-2.694V4.445c0-1.486,1.21-2.695,2.697-2.695h9.482
			c1.486,0,2.694,1.209,2.694,2.695v3.39c0,0.533-0.432,0.964-0.964,0.964s-0.964-0.432-0.964-0.964v-3.39
			c0-0.416-0.352-0.767-0.767-0.767H3.102c-0.424,0-0.769,0.344-0.769,0.767v9.592c0,0.423,0.345,0.767,0.769,0.767h6.805
			c0.533,0,0.964,0.432,0.964,0.964S10.44,16.731,9.907,16.731z"/>
	</g>
</g>
</svg>
