<?xml version="1.0" encoding="utf-8"?>
<!-- Generator: Adobe Illustrator 15.1.0, SVG Export Plug-In . SVG Version: 6.00 Build 0)  -->
<!DOCTYPE svg PUBLIC "-//W3C//DTD SVG 1.1//EN" "http://www.w3.org/Graphics/SVG/1.1/DTD/svg11.dtd">
<svg version="1.1" id="Layer_1" xmlns="http://www.w3.org/2000/svg" xmlns:xlink="http://www.w3.org/1999/xlink" x="0px" y="0px"
	 width="20px" height="20px" viewBox="0 0 20 20" enable-background="new 0 0 20 20" xml:space="preserve">
<path d="M19.133,1.755l-2.57,15.431c-0.029,0.189-0.149,0.353-0.321,0.45c-0.091,0.052-0.2,0.082-0.312,0.082
	c-0.082,0-0.16-0.021-0.24-0.052l-4.555-1.857l-2.431,2.963c-0.12,0.151-0.301,0.23-0.492,0.23c-0.07,0-0.15-0.012-0.221-0.039
	c-0.25-0.092-0.422-0.333-0.422-0.604v-3.504L16.25,4.215L5.511,13.506L1.543,11.88c-0.23-0.091-0.382-0.302-0.402-0.552
	c-0.01-0.242,0.112-0.475,0.321-0.596l16.714-9.645c0.102-0.06,0.215-0.09,0.322-0.09c0.131,0,0.26,0.04,0.359,0.111
	C19.073,1.263,19.172,1.502,19.133,1.755z"/>
</svg>
