<?xml version="1.0" encoding="utf-8"?>
<!-- Generator: Adobe Illustrator 15.1.0, SVG Export Plug-In . SVG Version: 6.00 Build 0)  -->
<!DOCTYPE svg PUBLIC "-//W3C//DTD SVG 1.1//EN" "http://www.w3.org/Graphics/SVG/1.1/DTD/svg11.dtd">
<svg version="1.1" id="Layer_1" xmlns="http://www.w3.org/2000/svg" xmlns:xlink="http://www.w3.org/1999/xlink" x="0px" y="0px"
	 width="32px" height="32px" viewBox="0 0 32 32" enable-background="new 0 0 32 32" xml:space="preserve">
<path d="M29.255,3.979l-3.953,23.719c-0.045,0.291-0.231,0.538-0.493,0.69c-0.137,0.078-0.309,0.127-0.479,0.127
	c-0.124,0-0.248-0.031-0.372-0.078l-8.137-3.319l-4.602,5.049c-0.187,0.217-0.446,0.324-0.726,0.324
	c-0.125,0-0.246-0.017-0.354-0.062c-0.385-0.154-0.632-0.527-0.632-0.93v-6.979l-7.288-2.979C1.862,19.404,1.631,19.08,1.6,18.697
	c-0.03-0.375,0.171-0.729,0.493-0.914L27.786,2.958c0.323-0.2,0.743-0.184,1.052,0.033C29.164,3.222,29.316,3.591,29.255,3.979z
	 M26.973,5.707L4.828,18.479l5.188,2.113l13.327-9.866l-7.381,12.307l7.599,3.104L26.973,5.707z"/>
</svg>
