<?xml version="1.0" encoding="utf-8"?>
<!-- Generator: Adobe Illustrator 15.1.0, SVG Export Plug-In . SVG Version: 6.00 Build 0)  -->
<!DOCTYPE svg PUBLIC "-//W3C//DTD SVG 1.1//EN" "http://www.w3.org/Graphics/SVG/1.1/DTD/svg11.dtd">
<svg version="1.1" id="Layer_1" xmlns="http://www.w3.org/2000/svg" xmlns:xlink="http://www.w3.org/1999/xlink" x="0px" y="0px"
	 width="32px" height="32px" viewBox="0 0 32 32" enable-background="new 0 0 32 32" xml:space="preserve">
<g>
	<path d="M23.966,19.75v-1.5c4.276,0,5.896-1.088,5.978-4.014c-0.076-1.542-1.078-2.311-3.971-2.992l-1.045-0.246l0.591-0.896
		c0.331-0.503,0.507-1.091,0.507-1.7c0-1.67-1.332-2.883-3.168-2.883c-0.756,0-1.482,0.271-2.048,0.764L20.021,6.97l-0.397-0.967
		c-1.045-2.54-3.56-4.118-6.562-4.118c-3.974,0-7.086,2.987-7.086,6.801c0.01,0.131,0.019,0.189,0.029,0.321l0.038,0.516
		L5.572,9.741c-2.323,1.081-3.246,2.039-3.526,3.661c-0.237,1.374-0.052,2.399,0.566,3.133c0.985,1.17,3.109,1.715,6.684,1.715v1.5
		c-4.106,0-6.522-0.693-7.832-2.248c-0.908-1.079-1.21-2.543-0.897-4.354c0.396-2.298,1.839-3.517,3.908-4.544
		c0.044-4.615,3.799-8.219,8.585-8.219c3.288,0,6.1,1.593,7.549,4.215c0.682-0.378,1.454-0.581,2.247-0.581
		c2.661,0,4.668,1.884,4.668,4.383c0,0.557-0.1,1.103-0.292,1.615c2.102,0.584,4.082,1.571,4.209,4.204
		C31.308,19.128,27.376,19.75,23.966,19.75z M22.114,19.75h-2.73v-1.5h2.73V19.75z M15.117,19.75h-2.562v-1.5h2.562V19.75z"/>
</g>
<g>
	<g>
		<path d="M16.657,31.9c-2.642,0-4.792-2.15-4.792-4.793c0-2.642,2.15-4.791,4.792-4.791c2.643,0,4.792,2.149,4.792,4.791
			C21.449,29.75,19.3,31.9,16.657,31.9z M16.657,23.816c-1.815,0-3.292,1.477-3.292,3.291c0,1.815,1.477,3.293,3.292,3.293
			s3.292-1.478,3.292-3.293C19.949,25.293,18.473,23.816,16.657,23.816z"/>
	</g>
	<g>
		<path d="M28.27,30.143c-2.002,0-3.631-1.629-3.631-3.631s1.629-3.631,3.631-3.631S31.9,24.51,31.9,26.512
			S30.271,30.143,28.27,30.143z M28.27,24.381c-1.175,0-2.131,0.956-2.131,2.131s0.956,2.131,2.131,2.131s2.131-0.956,2.131-2.131
			S29.444,24.381,28.27,24.381z"/>
	</g>
	<g>
		<path d="M4.222,30.143c-2.002,0-3.631-1.629-3.631-3.631s1.629-3.631,3.631-3.631c2.002,0,3.631,1.629,3.631,3.631
			S6.224,30.143,4.222,30.143z M4.222,24.381c-1.175,0-2.131,0.956-2.131,2.131s0.956,2.131,2.131,2.131
			c1.175,0,2.131-0.956,2.131-2.131S5.397,24.381,4.222,24.381z"/>
	</g>
	<g>
		<rect x="15.907" y="9.285" width="1.5" height="13.781"/>
	</g>
	<g>
		<polygon points="26.14,25.603 22.482,22.269 22.482,15.339 23.982,15.339 23.982,21.606 27.149,24.495 		"/>
	</g>
	<g>
		<polygon points="7.366,25.604 6.355,24.494 9.525,21.606 9.525,15.339 11.025,15.339 11.025,22.269 		"/>
	</g>
</g>
</svg>
