<?xml version="1.0" encoding="utf-8"?>
<!-- Generator: Adobe Illustrator 15.1.0, SVG Export Plug-In . SVG Version: 6.00 Build 0)  -->
<!DOCTYPE svg PUBLIC "-//W3C//DTD SVG 1.1//EN" "http://www.w3.org/Graphics/SVG/1.1/DTD/svg11.dtd">
<svg version="1.1" id="Layer_1" xmlns="http://www.w3.org/2000/svg" xmlns:xlink="http://www.w3.org/1999/xlink" x="0px" y="0px"
	 width="32px" height="32px" viewBox="0 0 32 32" enable-background="new 0 0 32 32" xml:space="preserve">
<path fill="#010101" d="M26.463,1.788c-16.678,0-16.678,0-20.222,0c-0.644,0-0.965,0.333-0.965,1c0,5.673,0,5.673,0,5.673
	c0,0.668,0.322,1.001,0.965,1.001c15.499,0,15.499,0,20.222,0c0.322,0,0.644-0.333,0.644-1.001c0-5.673,0-5.673,0-5.673
	C27.106,2.121,26.785,1.788,26.463,1.788L26.463,1.788z M13.536,6.459c-2.896,0-4.375,0-4.375,0c-0.319,0-0.641-0.334-0.641-1.001
	c0-0.333,0.322-0.667,0.641-0.667c2.896,0,4.375,0,4.375,0c0.644,0,0.966,0.334,0.966,0.667C14.502,6.125,14.18,6.459,13.536,6.459
	L13.536,6.459z M21.181,6.459c-0.644,0-0.966-0.334-0.966-1.001c0-0.333,0.322-0.667,0.966-0.667c0.322,0,0.644,0.334,0.644,0.667
	C21.824,6.125,21.503,6.459,21.181,6.459L21.181,6.459z"/>
<path fill="#010101" d="M26.463,12.304c-16.678,0-16.678,0-20.222,0c-0.644,0-0.965,0.333-0.965,1c0,5.673,0,5.673,0,5.673
	c0,0.668,0.322,1.001,0.965,1.001c15.499,0,15.499,0,20.222,0c0.322,0,0.644-0.333,0.644-1.001c0-5.673,0-5.673,0-5.673
	C27.106,12.637,26.785,12.304,26.463,12.304L26.463,12.304z M13.536,16.976c-2.896,0-4.375,0-4.375,0
	c-0.319,0-0.641-0.334-0.641-1.001c0-0.334,0.322-0.667,0.641-0.667c2.896,0,4.375,0,4.375,0c0.644,0,0.966,0.333,0.966,0.667
	C14.502,16.642,14.18,16.976,13.536,16.976L13.536,16.976z M21.181,16.976c-0.644,0-0.966-0.334-0.966-1.001
	c0-0.334,0.322-0.667,0.966-0.667c0.322,0,0.644,0.333,0.644,0.667C21.824,16.642,21.503,16.976,21.181,16.976L21.181,16.976z"/>
<path fill="#010101" d="M26.463,22.821c-16.678,0-16.678,0-20.222,0c-0.644,0-0.965,0.334-0.965,1.001c0,5.672,0,5.672,0,5.672
	c0,0.668,0.322,1.002,0.965,1.002c15.499,0,15.499,0,20.222,0c0.322,0,0.644-0.334,0.644-1.002c0-5.672,0-5.672,0-5.672
	C27.106,23.155,26.785,22.821,26.463,22.821L26.463,22.821z M13.536,27.493c-2.896,0-4.375,0-4.375,0
	c-0.319,0-0.641-0.334-0.641-1.002c0-0.334,0.322-0.667,0.641-0.667c2.896,0,4.375,0,4.375,0c0.644,0,0.966,0.333,0.966,0.667
	C14.502,27.159,14.18,27.493,13.536,27.493L13.536,27.493z M21.181,27.493c-0.644,0-0.966-0.334-0.966-1.002
	c0-0.334,0.322-0.667,0.966-0.667c0.322,0,0.644,0.333,0.644,0.667C21.824,27.159,21.503,27.493,21.181,27.493L21.181,27.493z"/>
</svg>
