<?xml version="1.0" encoding="utf-8"?>
<!-- Generator: Adobe Illustrator 15.1.0, SVG Export Plug-In . SVG Version: 6.00 Build 0)  -->
<!DOCTYPE svg PUBLIC "-//W3C//DTD SVG 1.1//EN" "http://www.w3.org/Graphics/SVG/1.1/DTD/svg11.dtd">
<svg version="1.1" id="Layer_1" xmlns="http://www.w3.org/2000/svg" xmlns:xlink="http://www.w3.org/1999/xlink" x="0px" y="0px"
	 width="20px" height="20px" viewBox="0 0 20 20" enable-background="new 0 0 20 20" xml:space="preserve">
<g>
	<path d="M13.563,12.356h-1.637v-1.283h1.637V12.356z M9.365,12.356H7.828v-1.283h1.537V12.356z M5.875,12.356
		c-1.7,0-3.787-0.161-4.845-1.418c-0.583-0.692-0.777-1.623-0.58-2.767c0.246-1.417,1.106-2.18,2.342-2.812
		c0.088-2.819,2.401-5.003,5.338-5.003c1.977,0,3.678,0.929,4.605,2.467c0.396-0.188,0.83-0.287,1.273-0.287
		c1.704,0,2.989,1.212,2.989,2.82c0,0.286-0.041,0.567-0.12,0.835c1.079,0.322,2.388,0.964,2.472,2.643
		c-0.095,3.519-3.423,3.519-4.676,3.519v-1.283c2.461,0,3.349-0.581,3.394-2.221c-0.042-0.813-0.586-1.214-2.234-1.602l-0.895-0.21
		l0.505-0.767c0.178-0.27,0.271-0.586,0.271-0.914c0-1.491-1.86-1.947-2.812-1.125L12.23,4.816l-0.339-0.824
		c-0.598-1.451-2.039-2.352-3.761-2.352c-2.275,0-4.057,1.707-4.057,3.886c0.004,0.048,0.011,0.087,0.018,0.174l0.036,0.445
		L3.723,6.334C2.379,6.96,1.873,7.479,1.715,8.391C1.583,9.155,1.68,9.718,2.012,10.112c0.544,0.646,1.808,0.961,3.863,0.961V12.356
		z"/>
</g>
<g>
	<g>
		<circle cx="10.29" cy="16.576" r="2.424"/>
		<path d="M10.29,19.642c-1.69,0-3.065-1.375-3.065-3.065s1.375-3.065,3.065-3.065s3.065,1.375,3.065,3.065
			S11.98,19.642,10.29,19.642z M10.29,14.794c-0.983,0-1.782,0.8-1.782,1.782s0.799,1.782,1.782,1.782
			c0.982,0,1.782-0.8,1.782-1.782S11.272,14.794,10.29,14.794z"/>
	</g>
	<g>
		<circle cx="17.254" cy="16.219" r="1.729"/>
		<path d="M17.254,18.59c-1.307,0-2.37-1.063-2.37-2.371c0-1.307,1.063-2.37,2.37-2.37s2.37,1.063,2.37,2.37
			C19.624,17.526,18.561,18.59,17.254,18.59z M17.254,15.132c-0.6,0-1.087,0.487-1.087,1.087s0.487,1.088,1.087,1.088
			s1.087-0.488,1.087-1.088S17.854,15.132,17.254,15.132z"/>
	</g>
	<g>
		<circle cx="2.831" cy="16.219" r="1.729"/>
		<path d="M2.831,18.59c-1.307,0-2.371-1.063-2.371-2.371c0-1.307,1.063-2.37,2.371-2.37s2.371,1.063,2.371,2.37
			C5.202,17.526,4.138,18.59,2.831,18.59z M2.831,15.132c-0.6,0-1.087,0.487-1.087,1.087s0.488,1.088,1.087,1.088
			s1.087-0.488,1.087-1.088S3.431,15.132,2.831,15.132z"/>
	</g>
	<g>
		<rect x="9.648" y="5.888" width="1.283" height="8.264"/>
	</g>
	<g>
		<polygon points="15.848,15.816 13.591,13.76 13.591,9.517 14.874,9.517 14.874,13.193 16.711,14.867 		"/>
	</g>
	<g>
		<polygon points="4.845,15.816 3.981,14.867 5.819,13.193 5.819,9.517 7.103,9.517 7.103,13.76 		"/>
	</g>
</g>
</svg>
