<?xml version="1.0" encoding="utf-8"?>
<!-- Generator: Adobe Illustrator 15.1.0, SVG Export Plug-In . SVG Version: 6.00 Build 0)  -->
<!DOCTYPE svg PUBLIC "-//W3C//DTD SVG 1.1//EN" "http://www.w3.org/Graphics/SVG/1.1/DTD/svg11.dtd">
<svg version="1.1" id="Layer_1" xmlns="http://www.w3.org/2000/svg" xmlns:xlink="http://www.w3.org/1999/xlink" x="0px" y="0px"
	 width="32px" height="32px" viewBox="0 0 32 32" enable-background="new 0 0 32 32" xml:space="preserve">
<path d="M21.33,17.526c0,0.21-0.159,0.452-0.369,0.482l-2.494,0.387c-0.128,0.419-0.306,0.821-0.515,1.223
	c0.452,0.645,0.934,1.24,1.448,1.851c0.064,0.098,0.112,0.194,0.112,0.322c0,0.111-0.031,0.226-0.112,0.307
	c-0.321,0.434-2.124,2.396-2.591,2.396c-0.129,0-0.24-0.047-0.336-0.111l-1.852-1.449c-0.401,0.209-0.803,0.37-1.238,0.5
	c-0.081,0.82-0.16,1.705-0.37,2.495c-0.064,0.225-0.257,0.384-0.482,0.384H9.538c-0.225,0-0.45-0.177-0.482-0.401l-0.371-2.463
	c-0.418-0.128-0.82-0.306-1.206-0.498l-1.898,1.433c-0.081,0.081-0.21,0.111-0.322,0.111c-0.129,0-0.241-0.047-0.338-0.129
	c-0.417-0.386-2.317-2.106-2.317-2.573c0-0.113,0.049-0.208,0.113-0.305c0.466-0.613,0.949-1.208,1.416-1.836
	c-0.225-0.434-0.418-0.868-0.564-1.318l-2.444-0.386c-0.225-0.032-0.387-0.241-0.387-0.467v-2.977c0-0.209,0.163-0.45,0.371-0.483
	l2.493-0.386c0.13-0.417,0.307-0.819,0.515-1.224c-0.45-0.643-0.933-1.238-1.448-1.849c-0.064-0.097-0.113-0.21-0.113-0.322
	c0-0.113,0.032-0.226,0.113-0.322C2.99,9.484,4.792,7.536,5.259,7.536c0.127,0,0.241,0.049,0.337,0.113l1.85,1.449
	c0.404-0.21,0.805-0.372,1.239-0.517c0.082-0.804,0.162-1.688,0.371-2.476C9.121,5.88,9.313,5.718,9.538,5.718h2.993
	c0.225,0,0.451,0.178,0.482,0.403l0.37,2.461c0.419,0.13,0.82,0.306,1.207,0.499l1.898-1.431c0.098-0.081,0.208-0.113,0.321-0.113
	c0.128,0,0.241,0.049,0.339,0.13c0.418,0.385,2.316,2.123,2.316,2.574c0,0.111-0.046,0.209-0.112,0.305
	c-0.467,0.627-0.948,1.207-1.4,1.834c0.209,0.436,0.404,0.869,0.547,1.319l2.447,0.37c0.225,0.05,0.384,0.259,0.384,0.484V17.526z
	 M11.034,11.896c-2.268,0-4.119,1.851-4.119,4.119c0,2.27,1.851,4.118,4.119,4.118c2.269,0,4.119-1.849,4.119-4.118
	C15.152,13.747,13.303,11.896,11.034,11.896z M31.627,8.904c0,0.242-2.075,0.467-2.396,0.5c-0.129,0.307-0.289,0.579-0.483,0.836
	c0.145,0.322,0.82,1.93,0.82,2.22c0,0.048-0.017,0.08-0.064,0.113c-0.193,0.111-1.914,1.142-1.996,1.142
	c-0.207,0-1.413-1.61-1.576-1.851c-0.159,0.015-0.32,0.032-0.482,0.032c-0.159,0-0.321-0.017-0.483-0.032
	c-0.159,0.241-1.365,1.851-1.576,1.851c-0.079,0-1.802-1.031-1.994-1.142c-0.049-0.033-0.065-0.081-0.065-0.113
	c0-0.273,0.679-1.898,0.821-2.22c-0.192-0.257-0.353-0.53-0.482-0.836c-0.322-0.033-2.398-0.257-2.398-0.5V6.652
	c0-0.242,2.076-0.468,2.398-0.5c0.13-0.29,0.29-0.58,0.482-0.835C22.009,4.995,21.33,3.37,21.33,3.096
	c0-0.032,0.017-0.08,0.065-0.113c0.192-0.096,1.915-1.126,1.994-1.126c0.211,0,1.417,1.593,1.576,1.835
	c0.162-0.017,0.324-0.033,0.483-0.033c0.162,0,0.323,0.016,0.482,0.033c0.451-0.627,0.935-1.255,1.481-1.803l0.095-0.033
	c0.082,0,1.803,1.014,1.996,1.126c0.048,0.033,0.064,0.082,0.064,0.113c0,0.289-0.676,1.898-0.82,2.221
	c0.194,0.256,0.354,0.546,0.483,0.835c0.32,0.032,2.396,0.257,2.396,0.5V8.904z M31.627,25.379c0,0.241-2.075,0.466-2.396,0.499
	c-0.129,0.306-0.289,0.58-0.483,0.838c0.145,0.321,0.82,1.93,0.82,2.219c0,0.049-0.017,0.081-0.064,0.113
	c-0.193,0.111-1.914,1.142-1.996,1.142c-0.207,0-1.413-1.608-1.576-1.851c-0.159,0.017-0.32,0.031-0.482,0.031
	c-0.159,0-0.321-0.015-0.483-0.031c-0.159,0.242-1.365,1.851-1.576,1.851c-0.079,0-1.802-1.03-1.994-1.142
	c-0.049-0.032-0.065-0.08-0.065-0.113c0-0.273,0.679-1.897,0.821-2.219c-0.192-0.258-0.353-0.532-0.482-0.838
	c-0.322-0.033-2.398-0.258-2.398-0.499v-2.252c0-0.24,2.076-0.466,2.398-0.5c0.13-0.289,0.29-0.578,0.482-0.836
	c-0.143-0.322-0.821-1.946-0.821-2.219c0-0.035,0.017-0.081,0.065-0.113c0.192-0.098,1.915-1.127,1.994-1.127
	c0.211,0,1.417,1.593,1.576,1.834c0.162-0.016,0.324-0.033,0.483-0.033c0.162,0,0.323,0.018,0.482,0.033
	c0.451-0.629,0.935-1.256,1.481-1.802l0.095-0.032c0.082,0,1.803,1.014,1.996,1.127c0.048,0.032,0.064,0.078,0.064,0.113
	c0,0.289-0.676,1.896-0.82,2.219c0.194,0.258,0.354,0.547,0.483,0.836c0.32,0.034,2.396,0.26,2.396,0.5V25.379z M25.449,5.718
	c-1.124,0-2.06,0.935-2.06,2.06c0,1.143,0.936,2.059,2.06,2.059c1.143,0,2.059-0.933,2.059-2.059
	C27.508,6.652,26.576,5.718,25.449,5.718z M25.449,22.192c-1.124,0-2.06,0.935-2.06,2.061c0,1.142,0.936,2.059,2.06,2.059
	c1.143,0,2.059-0.933,2.059-2.059S26.576,22.192,25.449,22.192z"/>
</svg>
