<?xml version="1.0" encoding="utf-8"?>
<!-- Generator: Adobe Illustrator 15.1.0, SVG Export Plug-In . SVG Version: 6.00 Build 0)  -->
<!DOCTYPE svg PUBLIC "-//W3C//DTD SVG 1.1//EN" "http://www.w3.org/Graphics/SVG/1.1/DTD/svg11.dtd">
<svg version="1.1" id="Layer_1" xmlns="http://www.w3.org/2000/svg" xmlns:xlink="http://www.w3.org/1999/xlink" x="0px" y="0px"
	 width="20px" height="20px" viewBox="0 0 20 20" enable-background="new 0 0 20 20" xml:space="preserve">
<path d="M14.76,13.477c-0.898,0-1.688,0.436-2.192,1.1l-5.826-3.305C6.944,10.891,7.068,10.46,7.068,10
	c0-0.427-0.104-0.828-0.277-1.187l5.841-3.314c0.507,0.62,1.269,1.022,2.132,1.022c1.523,0,2.762-1.234,2.762-2.759
	C17.525,2.236,16.289,1,14.764,1c-1.527,0-2.762,1.236-2.762,2.762c0,0.14,0.021,0.276,0.038,0.412L5.828,7.696
	C5.391,7.409,4.869,7.239,4.307,7.239c-1.526,0-2.761,1.236-2.761,2.76c0,1.522,1.235,2.758,2.761,2.758
	c0.521,0,1.003-0.154,1.418-0.402l6.306,3.574c-0.011,0.104-0.029,0.201-0.029,0.307c0,1.525,1.235,2.764,2.762,2.764
	c1.524,0,2.763-1.238,2.763-2.764S16.287,13.477,14.76,13.477z"/>
<circle cx="14.76" cy="3.761" r="1.51"/>
<circle cx="4.307" cy="9.997" r="1.509"/>
<circle cx="14.76" cy="16.235" r="1.511"/>
</svg>
