<?xml version="1.0" encoding="utf-8"?>
<!-- Generator: Adobe Illustrator 15.1.0, SVG Export Plug-In . SVG Version: 6.00 Build 0)  -->
<!DOCTYPE svg PUBLIC "-//W3C//DTD SVG 1.1//EN" "http://www.w3.org/Graphics/SVG/1.1/DTD/svg11.dtd">
<svg version="1.1" id="Layer_1" xmlns="http://www.w3.org/2000/svg" xmlns:xlink="http://www.w3.org/1999/xlink" x="0px" y="0px"
	 width="20px" height="20px" viewBox="0 0 20 20" enable-background="new 0 0 20 20" xml:space="preserve">
<path d="M8.034,11.095c-0.437,0-0.874,0.225-1.092,0.449c-2.624-0.896-2.624-0.896-2.624-0.896c0-0.226,0-0.226,0-0.45
	s0-0.45,0-0.672v0.222c2.625-0.896,2.625-0.896,2.625-0.896c0.219,0.224,0.655,0.45,1.092,0.45c0.876,0,1.75-0.897,1.75-1.796
	S8.909,5.708,8.034,5.708c-1.092,0-1.747,0.897-1.747,1.796c0,0.224,0,0.448,0,0.673c0-0.227,0-0.227,0-0.227
	C3.882,8.849,3.882,8.849,3.882,8.849l0,0c-0.439-0.225-0.876-0.45-1.313-0.45c-0.874,0.003-1.75,0.901-1.75,1.799
	c0,0.896,0.876,1.795,1.75,1.795c0.438,0,0.875-0.223,1.313-0.449c2.404,0.896,2.404,0.896,2.404,0.896v-0.225
	c0,0.227,0,0.451,0,0.672c0,0.898,0.657,1.797,1.747,1.797c0.876,0,1.75-0.896,1.75-1.797C9.786,11.993,8.91,11.095,8.034,11.095
	L8.034,11.095z"/>
<path d="M6.116,16.302v0.824h11.545V7.889h-3.752c-0.479,0-0.867-0.389-0.867-0.867V3.269H6.116v1.002L4.961,4.292V2.983
	c0-0.479,0.389-0.868,0.868-0.868h8.082c0.479,0,1.148,0.281,1.48,0.615l2.813,2.814c0.334,0.334,0.615,1.002,0.615,1.478v10.393
	c0,0.479-0.391,0.865-0.867,0.865H5.827c-0.479,0-0.868-0.389-0.868-0.865v-1.111L6.116,16.302z"/>
<path d="M12.143,9.044h2.924c0.162,0,0.287,0.127,0.287,0.289V9.91c0,0.163-0.125,0.291-0.287,0.291h-2.924
	c-0.164,0-0.29-0.127-0.29-0.291V9.332C11.853,9.17,11.979,9.044,12.143,9.044z"/>
<path d="M15.354,11.64v0.576c0,0.166-0.126,0.291-0.288,0.291h-3.779c-0.163,0-0.29-0.125-0.29-0.291V11.64
	c0-0.162,0.127-0.289,0.29-0.289h3.78C15.228,11.351,15.354,11.478,15.354,11.64z"/>
<path d="M15.354,13.95v0.576c0,0.164-0.126,0.291-0.288,0.291h-4.978c-0.164,0-0.29-0.127-0.29-0.291V13.95
	c0-0.162,0.126-0.289,0.29-0.289h4.979C15.228,13.661,15.354,13.788,15.354,13.95z"/>
<path d="M14.199,6.736h3.394c-0.056-0.153-0.137-0.308-0.199-0.37l-2.824-2.823c-0.063-0.063-0.217-0.145-0.367-0.198L14.199,6.736
	L14.199,6.736z"/>
</svg>
