<?xml version="1.0" encoding="utf-8"?>
<!-- Generator: Adobe Illustrator 15.1.0, SVG Export Plug-In . SVG Version: 6.00 Build 0)  -->
<!DOCTYPE svg PUBLIC "-//W3C//DTD SVG 1.1//EN" "http://www.w3.org/Graphics/SVG/1.1/DTD/svg11.dtd">
<svg version="1.1" id="Layer_1" xmlns="http://www.w3.org/2000/svg" xmlns:xlink="http://www.w3.org/1999/xlink" x="0px" y="0px"
	 width="32px" height="32px" viewBox="0 0 32 32" enable-background="new 0 0 32 32" xml:space="preserve">
<path d="M14.55,27.903c-8.696,0-8.696,0-8.696,0c-0.725,0-1.041-0.466-1.087-1.486C5.128,5.218,5.128,5.218,5.128,5.218
	c0-0.744,0.363-1.116,1.087-1.116c9.42,0,9.42,0,9.42,0c-0.362,6.322-0.362,6.322-0.362,6.322c0,0.744,0.362,1.488,1.087,1.86
	c9.783,0,9.783,0,9.783,0l0,0c0-0.372,0-0.372,0-0.372l0,0l0,0l0,0l0,0l0,0l0,0l0,0l-0.363-0.372
	c-4.709-4.835-4.709-4.835-4.709-4.835c-4.35-4.462-4.35-4.462-4.35-4.462l0,0l0,0l0,0c-0.361-0.372-0.361-0.372-0.361-0.372
	c-0.362,0-0.362,0-0.362,0l0,0l0,0c-10.508,0-10.508,0-10.508,0c-1.087,0-2.537,1.116-2.537,2.603
	C2.593,27.532,2.593,27.532,2.593,27.532c0,1.115,1.087,2.603,2.536,2.603c9.421,0,9.421,0,9.421,0V27.903z"/>
<path d="M26.145,24.186c-0.725,0-1.449,0.371-1.812,0.743c-4.349-1.487-4.349-1.487-4.349-1.487c0-0.372,0-0.372,0-0.744
	c0-0.371,0-0.744,0-1.115v0.371c4.349-1.486,4.349-1.486,4.349-1.486c0.362,0.371,1.087,0.744,1.812,0.744
	c1.448,0,2.898-1.488,2.898-2.976c0-1.488-1.45-2.976-2.898-2.976c-1.812,0-2.899,1.488-2.899,2.976c0,0.371,0,0.743,0,1.115
	c0-0.372,0-0.372,0-0.372c-3.984,1.488-3.984,1.488-3.984,1.488l0,0c-0.726-0.373-1.451-0.744-2.175-0.744
	c-1.45,0-2.899,1.488-2.899,2.975c0,1.488,1.449,2.976,2.899,2.976c0.724,0,1.449-0.372,2.175-0.744
	c3.984,1.488,3.984,1.488,3.984,1.488v-0.373c0,0.373,0,0.744,0,1.115c0,1.488,1.088,2.976,2.899,2.976
	c1.448,0,2.898-1.487,2.898-2.976C29.043,25.673,27.593,24.186,26.145,24.186L26.145,24.186z"/>
</svg>
