<?xml version="1.0" encoding="utf-8"?>
<!-- Generator: Adobe Illustrator 15.1.0, SVG Export Plug-In . SVG Version: 6.00 Build 0)  -->
<!DOCTYPE svg PUBLIC "-//W3C//DTD SVG 1.1//EN" "http://www.w3.org/Graphics/SVG/1.1/DTD/svg11.dtd">
<svg version="1.1" id="Layer_1" xmlns="http://www.w3.org/2000/svg" xmlns:xlink="http://www.w3.org/1999/xlink" x="0px" y="0px"
	 width="24px" height="24px" viewBox="0 0 32 32" enable-background="new 0 0 32 32" xml:space="preserve">
<path d="M0.94,27.607c16.791,3.078,16.791,3.078,16.791,3.078c0-28.849,0-28.849,0-28.849C0.94,4.915,0.94,4.915,0.94,4.915V27.607z
	 M7.047,10.685c1.144-0.77,2.671-0.385,4.197,0c0,0.769,0,1.538,0,2.307c-1.144-0.383-2.671-1.153-3.434,0
	c-0.763,1.539,1.145,2.31,2.291,3.077c1.907,1.154,1.907,4.232,0.381,5.77c-1.526,1.154-3.435,0.386-4.58,0
	c0-0.771,0-1.923-0.381-2.69c1.144,0.769,2.67,1.922,3.434,0.769c1.146-1.538-0.764-2.308-1.527-3.078
	C5.139,15.684,5.139,12.223,7.047,10.685L7.047,10.685z"/>
<path d="M28.063,14.348c0,0-0.381,0-0.381,0.385c-0.766-1.923-2.291-3.462-4.197-4.616c0,0,0,0,0-0.384
	c0-1.539-1.146-2.693-2.674-2.693c-0.763,0-1.525,0-1.908,0.385c0,2.308,0,2.308,0,2.308c0,1.154,0,1.154,0,1.154
	c0,1.154,0,1.154,0,1.154c0.383,0.383,1.146,0.769,1.908,0.769c0.765,0,1.91-0.385,2.291-1.153c1.526,0.768,2.672,1.922,3.053,3.461
	c-0.381,0.386-0.764,1.541-0.764,2.309c0,0.771,0.383,1.539,1.146,2.31c-0.764,1.537-1.908,2.69-3.436,3.462
	c-0.381-0.771-1.526-1.154-2.291-1.154c-0.763,0-1.525,0.384-1.908,0.771c0,1.152,0,1.152,0,1.152c0,1.539,0,1.539,0,1.539
	c0,1.924,0,1.924,0,1.924c0.383,0.385,1.146,0.385,1.908,0.385c1.527,0,2.674-1.153,2.674-2.692c0-0.384,0-0.384,0-0.384
	c1.906-0.771,3.433-2.693,4.197-4.617l0.381,0.386c1.526,0,3.054-1.539,3.054-3.077C31.115,15.889,29.589,14.348,28.063,14.348
	L28.063,14.348z"/>
</svg>
