<?xml version="1.0" encoding="utf-8"?>
<!-- Generator: Adobe Illustrator 15.1.0, SVG Export Plug-In . SVG Version: 6.00 Build 0)  -->
<!DOCTYPE svg PUBLIC "-//W3C//DTD SVG 1.1//EN" "http://www.w3.org/Graphics/SVG/1.1/DTD/svg11.dtd">
<svg version="1.1" id="Layer_1" xmlns="http://www.w3.org/2000/svg" xmlns:xlink="http://www.w3.org/1999/xlink" x="0px" y="0px"
	 width="32px" height="32px" viewBox="0 0 32 32" enable-background="new 0 0 32 32" xml:space="preserve">
<path d="M12.491,17.684c-0.725,0-1.449,0.371-1.812,0.743C6.33,16.939,6.33,16.939,6.33,16.939c0-0.371,0-0.371,0-0.745
	c0-0.371,0-0.744,0-1.115v0.371c4.349-1.486,4.349-1.486,4.349-1.486c0.362,0.371,1.087,0.744,1.812,0.744
	c1.448,0,2.898-1.486,2.898-2.977c0-1.488-1.45-2.977-2.898-2.977c-1.812,0-2.897,1.488-2.897,2.977c0,0.371,0,0.742,0,1.115
	c0-0.373,0-0.373,0-0.373c-3.984,1.49-3.984,1.49-3.984,1.49l0,0c-0.727-0.373-1.451-0.744-2.176-0.744
	c-1.45,0-2.899,1.488-2.899,2.977s1.449,2.976,2.899,2.976c0.725,0,1.449-0.372,2.176-0.743c3.983,1.487,3.983,1.487,3.983,1.487
	v-0.373c0,0.373,0,0.744,0,1.115c0,1.487,1.088,2.978,2.897,2.978c1.448,0,2.898-1.488,2.898-2.978
	C15.39,19.17,13.939,17.684,12.491,17.684L12.491,17.684z"/>
<path d="M9.312,26.311v1.363h19.129V12.371h-6.219c-0.791,0-1.438-0.643-1.438-1.435V4.717H9.312v1.659L7.397,6.41V4.24
	c0-0.793,0.644-1.436,1.437-1.436h13.391c0.791,0,1.897,0.463,2.451,1.017l4.664,4.664c0.551,0.553,1.018,1.659,1.018,2.451v17.216
	c0,0.793-0.645,1.437-1.438,1.437H8.833c-0.793,0-1.437-0.644-1.437-1.437v-1.842H9.312L9.312,26.311z M19.292,14.283h4.847
	c0.271,0,0.479,0.21,0.479,0.478v0.958c0,0.269-0.208,0.479-0.479,0.479h-4.847c-0.269,0-0.479-0.21-0.479-0.479v-0.958
	C18.813,14.493,19.023,14.283,19.292,14.283z M24.614,18.585v0.959c0,0.271-0.208,0.479-0.479,0.479h-6.263
	c-0.271,0-0.479-0.209-0.479-0.479v-0.959c0-0.269,0.209-0.478,0.479-0.478h6.267C24.406,18.107,24.614,18.316,24.614,18.585z
	 M24.614,22.414v0.954c0,0.271-0.208,0.479-0.479,0.479h-8.248c-0.271,0-0.479-0.209-0.479-0.479v-0.954
	c0-0.271,0.208-0.479,0.479-0.479h8.248C24.406,21.936,24.614,22.146,24.614,22.414z M22.703,10.458h5.619
	c-0.09-0.254-0.225-0.508-0.329-0.612l-4.679-4.68c-0.104-0.104-0.358-0.239-0.611-0.328V10.458z"/>
</svg>
