<?xml version="1.0" encoding="utf-8"?>
<!-- Generator: Adobe Illustrator 15.1.0, SVG Export Plug-In . SVG Version: 6.00 Build 0)  -->
<!DOCTYPE svg PUBLIC "-//W3C//DTD SVG 1.1//EN" "http://www.w3.org/Graphics/SVG/1.1/DTD/svg11.dtd">
<svg version="1.1" id="Layer_1" xmlns="http://www.w3.org/2000/svg" xmlns:xlink="http://www.w3.org/1999/xlink" x="0px" y="0px"
	 width="20px" height="20px" viewBox="0 0 20 20" enable-background="new 0 0 20 20" xml:space="preserve">
<g>
	<rect x="11.88" y="4.453" fill="#010101" width="4.083" height="3.394"/>
	<path d="M16.58,8.464h-5.317V3.836h5.317V8.464z M12.497,7.23h2.849V5.07h-2.849V7.23z"/>
</g>
<g>
	<rect x="11.88" y="12.615" fill="#010101" width="4.083" height="3.393"/>
	<path d="M16.58,16.625h-5.317v-4.627h5.317V16.625z M12.497,15.391h2.849v-2.158h-2.849V15.391z"/>
</g>
<g>
	<g>
		<path d="M2.632,12.785c-0.742-0.498-1.485-1.313-1.954-2.066c-0.089-0.129-0.133-0.282-0.133-0.439
			c0-0.331,0.229-0.598,0.412-0.845c0.736-1.004,1.721-1.832,2.871-2.32C3.734,6.943,3.13,5.887,3.13,5.774
			c0-0.077,0.046-0.147,0.107-0.186c0.128-0.07,0.699-0.407,0.814-0.407c0.071,0,0.14,0.039,0.18,0.104l0.787,1.454
			c0.399-0.083,0.813-0.121,1.218-0.121c2.3,0,4.347,1.303,5.565,3.22c0.082,0.128,0.127,0.28,0.127,0.439
			c0,0.158-0.045,0.313-0.127,0.438c-0.757,1.186-1.86,2.174-3.158,2.727c0.095,0.173,0.698,1.226,0.698,1.343
			c0,0.075-0.037,0.146-0.107,0.182c-0.128,0.07-0.699,0.408-0.807,0.408c-0.078,0-0.146-0.039-0.184-0.104l-0.789-1.455
			L7.05,13.059L4.23,7.85l0.043-0.045C4.058,7.892,3.848,7.988,3.645,8.102c0.077,0.147,3.107,5.712,3.107,5.755
			c0,0.033-0.027,0.051-0.058,0.057c-0.14,0.033-0.317,0.02-0.458,0.02c-0.07,0-0.354,0.015-0.381-0.043L2.959,8.547
			C2.773,8.681,2.603,8.826,2.437,8.98c0.14,0.246,2.567,4.711,2.567,4.75c0,0.055-0.031,0.063-0.07,0.063
			c-0.107,0-0.952-0.26-0.985-0.317l-0.672-1.25L1.854,9.602C1.677,9.819,1.512,10.04,1.36,10.277
			c0.081,0.119,0.19,0.249,0.258,0.375c0.092,0.166,1.119,2.039,1.119,2.078c0,0.03-0.03,0.063-0.063,0.063
			C2.659,12.793,2.644,12.787,2.632,12.785z M6.236,8.548c0.35,0,0.686,0.14,0.933,0.388C7.417,9.183,7.557,9.521,7.557,9.87
			c0,0.164,0.14,0.304,0.305,0.304s0.305-0.141,0.305-0.304c0-1.067-0.863-1.931-1.931-1.931c-0.164,0-0.304,0.14-0.304,0.305
			C5.93,8.409,6.07,8.548,6.236,8.548z M8.255,12.723c1.188-0.48,2.166-1.371,2.858-2.444c-0.707-1.088-1.708-1.99-2.915-2.472
			c0.565,0.541,0.883,1.282,0.883,2.065c0,0.896-0.419,1.741-1.138,2.274L8.255,12.723z M8.199,7.806l0.043,0.043l0.013-0.021
			L8.199,7.806z"/>
	</g>
</g>
<g>
	<path d="M18.545,19.057H8.902c-0.341,0-0.617-0.276-0.617-0.617v-1.734c0-0.341,0.276-0.617,0.617-0.617s0.617,0.276,0.617,0.617
		v1.117h8.409V2.305H9.519V5.45c0,0.341-0.276,0.617-0.617,0.617S8.285,5.791,8.285,5.45V1.688c0-0.341,0.276-0.617,0.617-0.617
		h9.643c0.341,0,0.617,0.276,0.617,0.617v16.751C19.162,18.78,18.886,19.057,18.545,19.057z"/>
</g>
</svg>
