<?xml version="1.0" encoding="utf-8"?>
<!-- Generator: Adobe Illustrator 15.1.0, SVG Export Plug-In . SVG Version: 6.00 Build 0)  -->
<!DOCTYPE svg PUBLIC "-//W3C//DTD SVG 1.1//EN" "http://www.w3.org/Graphics/SVG/1.1/DTD/svg11.dtd">
<svg version="1.1" id="Layer_1" xmlns="http://www.w3.org/2000/svg" xmlns:xlink="http://www.w3.org/1999/xlink" x="0px" y="0px"
	 width="32px" height="32px" viewBox="0 0 32 32" enable-background="new 0 0 32 32" xml:space="preserve">
<polygon fill="#010101" points="28.852,3.24 1.802,3.24 1.802,6.975 28.852,6.975 28.852,3.24 "/>
<polygon fill="#010101" points="15.326,10.709 1.802,10.709 1.802,14.443 15.326,14.443 15.326,10.709 "/>
<polygon fill="#010101" points="15.326,18.178 1.802,18.178 1.802,21.912 15.326,21.912 15.326,18.178 "/>
<polygon fill="#010101" points="1.802,29.381 28.852,29.381 28.852,25.648 1.802,25.648 1.802,29.381 "/>
<polygon fill="#010101" points="30.782,16.311 23.055,8.842 23.055,14.443 17.259,14.443 17.259,18.178 23.055,18.178 
	23.055,23.779 30.782,16.311 "/>
</svg>
