<?xml version="1.0" encoding="utf-8"?>
<!-- Generator: Adobe Illustrator 15.1.0, SVG Export Plug-In . SVG Version: 6.00 Build 0)  -->
<!DOCTYPE svg PUBLIC "-//W3C//DTD SVG 1.1//EN" "http://www.w3.org/Graphics/SVG/1.1/DTD/svg11.dtd">
<svg version="1.1" id="Layer_1" xmlns="http://www.w3.org/2000/svg" xmlns:xlink="http://www.w3.org/1999/xlink" x="0px" y="0px"
	 width="32px" height="32px" viewBox="0 0 32 32" enable-background="new 0 0 32 32" xml:space="preserve">
<g>
	<path d="M26.354,13.088h-7.852V6.309h7.852V13.088z M20.002,11.588h4.852V7.809h-4.852V11.588z"/>
</g>
<g>
	<path d="M26.354,25.777h-7.852v-6.773h7.852V25.777z M20.002,24.277h4.852v-3.773h-4.852V24.277z"/>
</g>
<g>
	<g>
		<path d="M4.306,20.016c-1.155-0.771-2.31-2.039-3.041-3.213c-0.138-0.199-0.206-0.438-0.206-0.683
			c0-0.516,0.355-0.931,0.641-1.314c1.146-1.562,2.677-2.85,4.466-3.609C6.02,10.933,5.08,9.291,5.08,9.114
			c0-0.12,0.071-0.229,0.167-0.289c0.199-0.108,1.087-0.633,1.266-0.633c0.111,0,0.217,0.06,0.279,0.162l1.225,2.261
			c0.62-0.128,1.266-0.188,1.896-0.188c3.577,0,6.761,2.026,8.651,5.01c0.129,0.198,0.196,0.435,0.196,0.683
			c0,0.244-0.067,0.483-0.196,0.683c-1.178,1.844-2.89,3.381-4.906,4.238c0.147,0.268,1.085,1.906,1.085,2.086
			c0,0.121-0.058,0.227-0.166,0.285c-0.199,0.109-1.088,0.633-1.255,0.633c-0.122,0-0.227-0.061-0.287-0.16l-1.226-2.26l-0.63-1.18
			l-4.388-8.103l0.067-0.071c-0.335,0.137-0.661,0.285-0.978,0.463c0.12,0.229,4.834,8.888,4.834,8.955
			c0,0.051-0.042,0.078-0.091,0.086c-0.217,0.051-0.493,0.033-0.712,0.033c-0.109,0-0.552,0.02-0.593-0.066l-4.505-8.315
			C4.524,13.635,4.26,13.86,4.001,14.1c0.217,0.383,3.994,7.327,3.994,7.39c0,0.08-0.049,0.102-0.109,0.102
			c-0.167,0-1.481-0.404-1.532-0.494L5.309,19.15l-2.214-4.082c-0.275,0.337-0.532,0.683-0.769,1.05
			c0.125,0.185,0.296,0.385,0.401,0.582c0.143,0.26,1.74,3.174,1.74,3.234c0,0.049-0.047,0.098-0.098,0.098
			C4.347,20.031,4.325,20.023,4.306,20.016z M9.912,13.429c0.544,0,1.066,0.217,1.451,0.604c0.386,0.383,0.604,0.909,0.604,1.451
			c0,0.255,0.218,0.473,0.475,0.473c0.257,0,0.474-0.218,0.474-0.473c0-1.659-1.343-3.004-3.004-3.004
			c-0.255,0-0.473,0.218-0.473,0.475C9.436,13.212,9.653,13.429,9.912,13.429z M13.053,19.922c1.849-0.75,3.369-2.133,4.439-3.803
			c-1.092-1.693-2.651-3.095-4.528-3.845c0.878,0.842,1.373,1.995,1.373,3.212c0,1.395-0.652,2.708-1.771,3.54L13.053,19.922z
			 M12.964,12.274l0.068,0.067l0.021-0.032L12.964,12.274z"/>
	</g>
</g>
<g>
	<path d="M29.053,29.563H14.06c-0.414,0-0.75-0.336-0.75-0.75v-2.695c0-0.414,0.336-0.75,0.75-0.75s0.75,0.336,0.75,0.75v1.945
		h13.493V3.507H14.81v5.102c0,0.414-0.336,0.75-0.75,0.75s-0.75-0.336-0.75-0.75V2.757c0-0.414,0.336-0.75,0.75-0.75h14.993
		c0.414,0,0.75,0.336,0.75,0.75v26.056C29.803,29.227,29.467,29.563,29.053,29.563z"/>
</g>
</svg>
