<?xml version="1.0" encoding="utf-8"?>
<!-- Generator: Adobe Illustrator 15.1.0, SVG Export Plug-In . SVG Version: 6.00 Build 0)  -->
<!DOCTYPE svg PUBLIC "-//W3C//DTD SVG 1.1//EN" "http://www.w3.org/Graphics/SVG/1.1/DTD/svg11.dtd">
<svg version="1.1" id="Layer_1" xmlns="http://www.w3.org/2000/svg" xmlns:xlink="http://www.w3.org/1999/xlink" x="0px" y="0px"
	 width="49.167px" height="30px" viewBox="0 0 49.167 12" enable-background="new 0 0 49.167 12" xml:space="preserve">
<path fill="#FFFFFF" d="M18.066,4.551c-0.042,0.068-0.088,0.121-0.136,0.155c-0.048,0.035-0.109,0.052-0.184,0.052
	c-0.066,0-0.138-0.021-0.214-0.063c-0.076-0.043-0.164-0.09-0.26-0.143c-0.096-0.051-0.207-0.098-0.331-0.141
	c-0.124-0.041-0.266-0.063-0.424-0.063c-0.274,0-0.479,0.059-0.613,0.176c-0.135,0.115-0.201,0.273-0.201,0.473
	c0,0.127,0.04,0.233,0.121,0.316c0.08,0.084,0.187,0.156,0.319,0.217c0.13,0.061,0.28,0.117,0.449,0.167
	c0.168,0.05,0.341,0.106,0.518,0.168c0.177,0.062,0.349,0.136,0.517,0.22c0.17,0.084,0.32,0.189,0.45,0.318
	c0.132,0.13,0.237,0.287,0.319,0.475c0.081,0.188,0.121,0.41,0.121,0.674c0,0.291-0.05,0.563-0.151,0.817
	c-0.101,0.254-0.247,0.476-0.44,0.664c-0.191,0.188-0.428,0.339-0.71,0.446c-0.281,0.107-0.6,0.162-0.958,0.162
	c-0.197,0-0.396-0.021-0.6-0.061c-0.203-0.04-0.4-0.098-0.59-0.171c-0.192-0.073-0.37-0.161-0.538-0.263
	c-0.167-0.102-0.313-0.215-0.438-0.338l0.433-0.684c0.035-0.052,0.081-0.092,0.137-0.123c0.057-0.033,0.118-0.052,0.185-0.052
	c0.086,0,0.173,0.027,0.261,0.082c0.088,0.056,0.188,0.115,0.299,0.183c0.111,0.065,0.238,0.127,0.383,0.183
	c0.145,0.055,0.314,0.082,0.511,0.082c0.266,0,0.472-0.06,0.62-0.175c0.146-0.118,0.221-0.303,0.221-0.559
	c0-0.146-0.041-0.267-0.122-0.357c-0.08-0.094-0.187-0.17-0.317-0.229c-0.132-0.062-0.281-0.114-0.449-0.159
	c-0.167-0.048-0.339-0.1-0.515-0.154c-0.176-0.058-0.347-0.125-0.515-0.207c-0.167-0.084-0.316-0.19-0.448-0.324
	c-0.131-0.135-0.237-0.303-0.319-0.502c-0.08-0.201-0.121-0.447-0.121-0.742c0-0.236,0.048-0.468,0.143-0.693
	s0.236-0.426,0.42-0.602c0.185-0.176,0.411-0.316,0.68-0.422s0.576-0.158,0.922-0.158c0.194,0,0.382,0.016,0.565,0.046
	c0.184,0.031,0.357,0.075,0.522,0.134c0.165,0.06,0.318,0.129,0.46,0.213c0.144,0.082,0.271,0.174,0.384,0.279L18.066,4.551z
	 M20.603,3.096v3.632h0.2c0.083,0,0.147-0.013,0.19-0.037c0.043-0.023,0.086-0.065,0.13-0.123l0.85-1.263
	c0.051-0.072,0.11-0.127,0.177-0.162c0.067-0.036,0.151-0.055,0.256-0.055h1.229l-1.161,1.596c-0.109,0.145-0.239,0.263-0.39,0.354
	c0.066,0.05,0.127,0.106,0.182,0.171c0.056,0.065,0.108,0.139,0.156,0.219l1.265,2.148h-1.213c-0.1,0-0.188-0.018-0.259-0.05
	c-0.073-0.033-0.133-0.093-0.182-0.177l-0.849-1.588c-0.041-0.072-0.083-0.119-0.127-0.143c-0.043-0.021-0.107-0.031-0.194-0.031
	h-0.261v1.987h-1.341V3.094h1.342V3.096z M28.449,5.088l-2.399,5.653c-0.04,0.089-0.089,0.155-0.146,0.197s-0.15,0.063-0.277,0.063
	h-1.005l0.866-1.818l-1.792-4.096h1.187c0.103,0,0.184,0.023,0.239,0.07c0.058,0.045,0.097,0.102,0.124,0.164l0.736,1.934
	c0.067,0.178,0.125,0.356,0.168,0.541c0.031-0.092,0.063-0.185,0.096-0.276c0.031-0.093,0.064-0.183,0.1-0.272l0.668-1.925
	c0.025-0.065,0.07-0.122,0.139-0.167c0.064-0.044,0.139-0.066,0.216-0.066h1.081V5.088z"/>
<path fill="#FFFFFF" d="M35.087,6.422c0,0.455-0.08,0.877-0.236,1.262c-0.158,0.386-0.379,0.718-0.664,1
	c-0.287,0.281-0.631,0.5-1.033,0.658c-0.402,0.156-0.85,0.235-1.34,0.235h-2.451V3.27h2.451c0.49,0,0.938,0.078,1.34,0.236
	c0.402,0.159,0.746,0.379,1.033,0.658c0.285,0.28,0.506,0.612,0.664,0.999C35.007,5.549,35.087,5.967,35.087,6.422z M33.587,6.422
	c0-0.313-0.039-0.595-0.121-0.845c-0.08-0.251-0.197-0.464-0.35-0.639c-0.15-0.175-0.336-0.31-0.555-0.402
	c-0.221-0.095-0.471-0.142-0.75-0.142h-0.979v4.057h0.979c0.279,0,0.529-0.047,0.75-0.141c0.219-0.094,0.404-0.229,0.555-0.403
	c0.152-0.175,0.27-0.388,0.35-0.638C33.548,7.018,33.587,6.734,33.587,6.422z M41.201,9.577h-1.326c-0.246,0-0.42-0.093-0.527-0.276
	l-1.049-1.832c-0.049-0.078-0.104-0.135-0.164-0.17c-0.061-0.037-0.146-0.056-0.26-0.056h-0.373v2.334h-1.463V3.27h2.051
	c0.459,0,0.848,0.047,1.168,0.141c0.322,0.094,0.584,0.225,0.789,0.393c0.203,0.166,0.352,0.365,0.443,0.593
	c0.092,0.229,0.139,0.477,0.139,0.745c0,0.205-0.027,0.398-0.082,0.58c-0.057,0.182-0.137,0.352-0.242,0.506
	c-0.105,0.152-0.238,0.291-0.396,0.412S39.57,6.86,39.363,6.938c0.096,0.048,0.186,0.111,0.27,0.184
	c0.084,0.074,0.158,0.161,0.227,0.262L41.201,9.577z M38.089,6.235c0.199,0,0.369-0.024,0.512-0.076
	c0.141-0.051,0.254-0.121,0.344-0.21c0.088-0.089,0.154-0.193,0.195-0.314c0.041-0.119,0.061-0.248,0.061-0.387
	c0-0.275-0.092-0.492-0.271-0.65c-0.182-0.154-0.459-0.232-0.84-0.232h-0.588v1.871L38.089,6.235L38.089,6.235z M48.912,3.27v6.308
	h-1.291V5.949c0-0.083,0.002-0.175,0.006-0.271C47.63,5.579,47.64,5.48,47.65,5.379L45.976,8.62
	c-0.053,0.103-0.123,0.179-0.211,0.229c-0.088,0.053-0.188,0.078-0.301,0.078h-0.199c-0.113,0-0.213-0.025-0.301-0.078
	s-0.158-0.129-0.211-0.229l-1.676-3.25c0.01,0.103,0.016,0.206,0.023,0.304c0.004,0.101,0.008,0.191,0.008,0.275v3.628h-1.291V3.27
	h1.117c0.063,0,0.119,0.001,0.168,0.004c0.045,0.002,0.088,0.011,0.125,0.025c0.037,0.016,0.072,0.037,0.104,0.066
	c0.029,0.03,0.061,0.073,0.088,0.129l1.623,3.197c0.059,0.109,0.113,0.225,0.168,0.343s0.105,0.239,0.154,0.363
	c0.049-0.127,0.1-0.251,0.152-0.371c0.053-0.123,0.109-0.238,0.172-0.349l1.619-3.185c0.027-0.056,0.059-0.099,0.088-0.129
	c0.031-0.03,0.064-0.052,0.104-0.067c0.037-0.014,0.08-0.021,0.127-0.024c0.049-0.003,0.104-0.005,0.166-0.005h1.119V3.27z"/>
<path fill="#FFFFFF" d="M12.867,5.316c0.029,1.286-1.163,1.889-1.797,2.027L8.99,7.35c-0.148,0-0.269-0.119-0.269-0.269
	S8.84,6.813,8.99,6.813h2.022c-0.001-0.008,1.345-0.321,1.318-1.484c-0.012-0.495-0.17-0.875-0.472-1.132
	c-0.645-0.548-1.737-0.403-1.748-0.401c-0.072,0.01-0.144-0.011-0.201-0.054C9.852,3.697,9.814,3.633,9.806,3.561
	C9.796,3.483,9.559,1.682,8.044,1.543C6.559,1.403,6.167,3.107,6.15,3.18C6.119,3.323,5.978,3.42,5.832,3.385
	C5.687,3.353,5.595,3.211,5.625,3.065c0.168-0.774,0.896-2.198,2.467-2.058c1.407,0.129,2.025,1.399,2.203,2.233
	c0.433-0.017,1.297,0.024,1.909,0.545C12.628,4.148,12.852,4.662,12.867,5.316z M1.782,5.063h1.054c0.148,0,0.269-0.12,0.269-0.269
	c0-0.149-0.12-0.27-0.269-0.27H1.782c-0.148,0-0.269,0.12-0.269,0.27C1.513,4.943,1.633,5.063,1.782,5.063z M3.377,8.748H2.324
	c-0.148,0-0.269,0.12-0.269,0.27c0,0.148,0.12,0.269,0.269,0.269h1.054c0.148,0,0.269-0.12,0.269-0.269
	C3.646,8.868,3.526,8.748,3.377,8.748z M10.261,8.748H8.602c-0.148,0-0.269,0.12-0.269,0.27c0,0.148,0.12,0.269,0.269,0.269h1.659
	c0.148,0,0.269-0.12,0.269-0.269C10.529,8.868,10.41,8.748,10.261,8.748z M3.104,7.086c0-0.147-0.12-0.269-0.269-0.269H0.524
	c-0.148,0-0.269,0.12-0.269,0.269c0,0.149,0.12,0.27,0.269,0.27h2.311C2.984,7.354,3.104,7.234,3.104,7.086z M8.442,7.616
	c0,1.7-2.492,3.078-2.492,3.078S3.458,9.316,3.458,7.616V4.172l2.493-0.44l2.492,0.44V7.616z M7.181,5.723
	c-0.078-0.077-0.205-0.077-0.283,0l-1.31,1.311L5.003,6.449c-0.078-0.078-0.205-0.078-0.283,0c-0.078,0.078-0.078,0.205,0,0.283
	l0.726,0.726c0.039,0.039,0.09,0.06,0.142,0.06c0.052,0,0.103-0.021,0.142-0.06l1.451-1.45C7.258,5.928,7.258,5.801,7.181,5.723z"/>
</svg>
