<?xml version="1.0" encoding="utf-8"?>
<!-- Generator: Adobe Illustrator 15.1.0, SVG Export Plug-In . SVG Version: 6.00 Build 0)  -->
<!DOCTYPE svg PUBLIC "-//W3C//DTD SVG 1.1//EN" "http://www.w3.org/Graphics/SVG/1.1/DTD/svg11.dtd">
<svg version="1.1" id="Layer_1" xmlns="http://www.w3.org/2000/svg" xmlns:xlink="http://www.w3.org/1999/xlink" x="0px" y="0px"
	 width="32px" height="32px" viewBox="0 0 32 32" enable-background="new 0 0 32 32" xml:space="preserve">
<g>
	<g>
		<path fill="#39974A" d="M26.926,19.423h-4.994c-0.365,0-0.662-0.297-0.662-0.663c0-0.365,0.297-0.662,0.662-0.662h4.916
			c0.488-0.125,3.395-0.978,3.329-3.667c-0.028-1.222-0.421-2.162-1.165-2.794c-1.593-1.353-4.283-0.994-4.313-0.99
			c-0.178,0.023-0.354-0.023-0.496-0.131c-0.141-0.108-0.232-0.27-0.254-0.446c-0.023-0.189-0.608-4.641-4.346-4.979
			c-3.69-0.332-4.639,3.859-4.679,4.038c-0.079,0.357-0.43,0.583-0.79,0.506c-0.357-0.078-0.584-0.43-0.507-0.788
			c0.414-1.911,2.252-5.426,6.095-5.077c3.473,0.315,5,3.453,5.438,5.514c1.059-0.039,3.195,0.06,4.709,1.344
			c1.046,0.889,1.595,2.158,1.633,3.774c0.076,3.178-2.868,4.667-4.436,5.008C27.021,19.418,26.975,19.423,26.926,19.423z"/>
	</g>
	<g>
		<path fill="#39974A" d="M6.739,13.776H4.138c-0.366,0-0.663-0.297-0.663-0.663c0-0.366,0.297-0.663,0.663-0.663h2.601
			c0.366,0,0.663,0.297,0.663,0.663C7.402,13.479,7.105,13.776,6.739,13.776z"/>
	</g>
	<g>
		<path fill="#39974A" d="M8.078,24.202H5.476c-0.366,0-0.663-0.298-0.663-0.663c0-0.366,0.297-0.663,0.663-0.663h2.602
			c0.366,0,0.663,0.297,0.663,0.663C8.741,23.904,8.444,24.202,8.078,24.202z"/>
	</g>
	<g>
		<path fill="#39974A" d="M25.07,24.202h-4.094c-0.367,0-0.664-0.298-0.664-0.663c0-0.366,0.297-0.663,0.664-0.663h4.094
			c0.365,0,0.662,0.297,0.662,0.663C25.732,23.904,25.438,24.202,25.07,24.202z"/>
	</g>
	<g>
		<path fill="#39974A" d="M6.739,19.434H1.034c-0.366,0-0.663-0.298-0.663-0.664c0-0.365,0.297-0.662,0.663-0.662h5.705
			c0.366,0,0.663,0.297,0.663,0.662C7.402,19.136,7.105,19.434,6.739,19.434z"/>
	</g>
	<g>
		<g>
			<path fill="#38974A" d="M20.586,20.081c0,4.196-6.156,7.599-6.156,7.599s-6.155-3.402-6.155-7.599l0,0v-8.508l6.155-1.089
				l6.156,1.089V20.081L20.586,20.081z"/>
		</g>
		<g>
			<path fill="#FFFFFF" d="M13.534,19.834c-0.131,0-0.257-0.052-0.349-0.145l-1.792-1.793c-0.193-0.192-0.193-0.506,0-0.698
				c0.192-0.193,0.506-0.193,0.698,0l1.443,1.442l3.231-3.234c0.192-0.193,0.506-0.193,0.699,0c0.192,0.193,0.192,0.506,0,0.699
				l-3.582,3.584C13.791,19.782,13.666,19.834,13.534,19.834z"/>
		</g>
	</g>
</g>
</svg>
