<?xml version="1.0" encoding="utf-8"?>
<!-- Generator: Adobe Illustrator 15.1.0, SVG Export Plug-In . SVG Version: 6.00 Build 0)  -->
<!DOCTYPE svg PUBLIC "-//W3C//DTD SVG 1.1//EN" "http://www.w3.org/Graphics/SVG/1.1/DTD/svg11.dtd">
<svg version="1.1" id="Layer_1" xmlns="http://www.w3.org/2000/svg" xmlns:xlink="http://www.w3.org/1999/xlink" x="0px" y="0px"
	 width="24px" height="24px" viewBox="0 0 32 32" enable-background="new 0 0 32 32" xml:space="preserve">
<g>
	<g>
		<g>
			<path d="M25.148,27.523H6.684c-3.54,0-6.419-2.88-6.419-6.42v-6.767c0-3.54,2.879-6.419,6.419-6.419h0.384
				c0.482-1.593,2.114-2.769,4.046-2.769s3.564,1.176,4.046,2.769h9.988c3.539,0,6.418,2.879,6.418,6.419v6.767
				C31.566,24.644,28.688,27.523,25.148,27.523z M6.684,9.418c-2.712,0-4.919,2.207-4.919,4.919v6.767
				c0,2.713,2.207,4.92,4.919,4.92h18.464c2.712,0,4.918-2.207,4.918-4.92v-6.767c0-2.712-2.206-4.919-4.918-4.919H15.094
				c-0.136,0.141-0.327,0.228-0.539,0.228c-0.414,0-0.75-0.336-0.75-0.75c0-1.239-1.207-2.247-2.691-2.247S8.423,7.657,8.423,8.896
				c0,0.394-0.305,0.721-0.698,0.748C7.488,9.66,7.283,9.571,7.134,9.418H6.684z M16.221,24.341c-3.443,0-6.244-2.801-6.244-6.243
				c0-3.444,2.801-6.246,6.244-6.246s6.244,2.802,6.244,6.246C22.465,21.54,19.664,24.341,16.221,24.341z M16.221,13.352
				c-2.616,0-4.744,2.129-4.744,4.746c0,2.615,2.128,4.743,4.744,4.743s4.744-2.128,4.744-4.743
				C20.965,15.481,18.837,13.352,16.221,13.352z"/>
		</g>
	</g>
</g>
</svg>
