<?xml version="1.0" encoding="utf-8"?>
<!-- Generator: Adobe Illustrator 15.1.0, SVG Export Plug-In . SVG Version: 6.00 Build 0)  -->
<!DOCTYPE svg PUBLIC "-//W3C//DTD SVG 1.1//EN" "http://www.w3.org/Graphics/SVG/1.1/DTD/svg11.dtd">
<svg version="1.1" id="Layer_1" xmlns="http://www.w3.org/2000/svg" xmlns:xlink="http://www.w3.org/1999/xlink" x="0px" y="0px"
	 width="32px" height="32px" viewBox="0 0 32 32" enable-background="new 0 0 32 32" xml:space="preserve">
<ellipse cx="8.896" cy="8.896" rx="3.441" ry="2.997"/>
<g>
	<g>
		<path d="M6.684,8.668c-3.118,0-5.669,2.551-5.669,5.669v6.766c0,3.117,2.551,5.67,5.669,5.67h18.464
			c3.117,0,5.668-2.553,5.668-5.67v-6.766c0-3.118-2.551-5.669-5.668-5.669H6.684z M16.221,23.591c-3.034,0-5.494-2.461-5.494-5.494
			c0-3.035,2.459-5.495,5.494-5.495c3.035,0,5.494,2.459,5.494,5.495C21.715,21.13,19.255,23.591,16.221,23.591z"/>
	</g>
</g>
</svg>
