<?xml version="1.0" encoding="utf-8"?>
<!-- Generator: Adobe Illustrator 15.1.0, SVG Export Plug-In . SVG Version: 6.00 Build 0)  -->
<!DOCTYPE svg PUBLIC "-//W3C//DTD SVG 1.1//EN" "http://www.w3.org/Graphics/SVG/1.1/DTD/svg11.dtd">
<svg version="1.1" id="Layer_1" xmlns="http://www.w3.org/2000/svg" xmlns:xlink="http://www.w3.org/1999/xlink" x="0px" y="0px"
	 width="20px" height="20px" viewBox="0 0 20 20" enable-background="new 0 0 20 20" xml:space="preserve">
<g>
	<g>
		<g>
			<path d="M5.234,4.758H4.657c-1.883,0-3.424,1.54-3.424,3.423v4.088c0,1.883,1.541,3.424,3.424,3.424h11.153
				c1.885,0,3.424-1.541,3.424-3.424V8.181c0-1.883-1.539-3.423-3.424-3.423h-6.4v0.137c0-0.999-0.93-1.81-2.077-1.81
				s-2.079,0.809-2.079,1.81L5.234,4.758z M10.418,13.771c-1.833,0-3.319-1.486-3.319-3.317c0-1.833,1.484-3.32,3.319-3.32
				c1.831,0,3.316,1.484,3.316,3.32C13.734,12.284,12.249,13.771,10.418,13.771z"/>
			<path d="M15.811,16.146H4.657c-2.138,0-3.877-1.739-3.877-3.877V8.181c0-2.137,1.739-3.876,3.877-3.876h0.231
				C5.18,3.342,6.165,2.632,7.333,2.632c1.167,0,2.152,0.71,2.443,1.673h6.035c2.138,0,3.877,1.739,3.877,3.876v4.088
				C19.688,14.407,17.948,16.146,15.811,16.146z M4.657,5.211c-1.638,0-2.971,1.333-2.971,2.97v4.088
				c0,1.638,1.333,2.971,2.971,2.971h11.153c1.638,0,2.971-1.333,2.971-2.971V8.181c0-1.638-1.333-2.97-2.971-2.97H9.735
				c-0.243,0.25-0.778,0.062-0.778-0.316c0-0.748-0.729-1.357-1.624-1.357c-0.896,0-1.626,0.609-1.626,1.357
				c0,0.237-0.184,0.435-0.42,0.452C5.147,5.355,5.02,5.304,4.929,5.211H4.657z M10.418,14.225c-2.08,0-3.772-1.691-3.772-3.771
				c0-2.081,1.692-3.773,3.772-3.773c2.078,0,3.77,1.693,3.77,3.773C14.188,12.533,12.496,14.225,10.418,14.225z M10.418,7.587
				c-1.58,0-2.866,1.286-2.866,2.867c0,1.579,1.286,2.864,2.866,2.864c1.579,0,2.863-1.285,2.863-2.864
				C13.281,8.873,11.997,7.587,10.418,7.587z"/>
		</g>
	</g>
</g>
</svg>
