<?xml version="1.0" encoding="utf-8"?>
<!-- Generator: Adobe Illustrator 15.1.0, SVG Export Plug-In . SVG Version: 6.00 Build 0)  -->
<!DOCTYPE svg PUBLIC "-//W3C//DTD SVG 1.1//EN" "http://www.w3.org/Graphics/SVG/1.1/DTD/svg11.dtd">
<svg version="1.1" id="Layer_1" xmlns="http://www.w3.org/2000/svg" xmlns:xlink="http://www.w3.org/1999/xlink" x="0px" y="0px"
	 width="20px" height="20px" viewBox="0 0 20 20" enable-background="new 0 0 20 20" xml:space="preserve">
<path fill="#010101" d="M9.599,16.788c-5.148-2.955-5.148-2.955-5.148-2.955c0-6.139,0-6.139,0-6.139
	c5.148,2.957,5.148,2.957,5.148,2.957V16.788z"/>
<path fill="#010101" d="M16.539,13.833c-5.148,2.955-5.148,2.955-5.148,2.955c0-6.138,0-6.138,0-6.138
	c5.148-2.957,5.148-2.957,5.148-2.957V13.833z"/>
<path fill="#010101" d="M18.328,6.1c0-0.226,0-0.226,0-0.226l0,0c0-0.228-7.387-4.548-7.387-4.548c-0.225-0.229-0.67-0.229-0.896,0
	C3.106,5.42,2.659,5.874,2.659,5.874l0,0c0,0.226,0,0.226,0,0.226c0,8.188,0,8.188,0,8.188c0,0.227,0.224,0.683,0.447,0.683
	c6.939,4.095,6.939,4.095,6.939,4.095c0.245,0.102,0.771,0.137,0.896,0l0,0c6.938-4.095,6.938-4.095,6.938-4.095
	c0.221-0.163,0.449-0.456,0.449-0.683C18.328,6.1,18.328,6.1,18.328,6.1L18.328,6.1L18.328,6.1L18.328,6.1L18.328,6.1z
	 M10.614,9.294C6.25,6.729,6.25,6.729,6.25,6.729C5.33,6.263,5.33,6.263,5.33,6.263c5.284-3.03,5.284-3.03,5.284-3.03
	c5.284,3.03,5.284,3.03,5.284,3.03L10.614,9.294z"/>
</svg>
