<?xml version="1.0" encoding="utf-8"?>
<!-- Generator: Adobe Illustrator 15.1.0, SVG Export Plug-In . SVG Version: 6.00 Build 0)  -->
<!DOCTYPE svg PUBLIC "-//W3C//DTD SVG 1.1//EN" "http://www.w3.org/Graphics/SVG/1.1/DTD/svg11.dtd">
<svg version="1.1" id="Layer_1" xmlns="http://www.w3.org/2000/svg" xmlns:xlink="http://www.w3.org/1999/xlink" x="0px" y="0px"
	 width="32px" height="32px" viewBox="0 0 32 32" enable-background="new 0 0 32 32" xml:space="preserve">
<path d="M13.341,25.455l-5.275,5.273c-0.115,0.101-0.248,0.148-0.379,0.148c-0.133,0-0.265-0.049-0.381-0.148l-5.29-5.289
	c-0.15-0.166-0.198-0.381-0.116-0.58c0.082-0.197,0.281-0.33,0.497-0.33h3.174V1.781c0-0.297,0.231-0.529,0.527-0.529h3.175
	c0.299,0,0.53,0.231,0.53,0.529v22.748h3.174c0.297,0,0.528,0.231,0.528,0.529C13.505,25.207,13.44,25.34,13.341,25.455z
	 M21.441,4.956c0,0.298-0.23,0.529-0.53,0.529H16.68c-0.297,0-0.529-0.231-0.529-0.529V1.781c0-0.297,0.232-0.529,0.529-0.529h4.231
	c0.3,0,0.53,0.231,0.53,0.529V4.956z M24.616,13.42c0,0.298-0.231,0.529-0.529,0.529H16.68c-0.297,0-0.529-0.231-0.529-0.529v-3.174
	c0-0.297,0.232-0.529,0.529-0.529h7.407c0.298,0,0.529,0.231,0.529,0.529V13.42z M27.791,21.885c0,0.297-0.232,0.529-0.53,0.529
	H16.68c-0.297,0-0.529-0.232-0.529-0.529v-3.174c0-0.299,0.232-0.529,0.529-0.529h10.581c0.298,0,0.53,0.23,0.53,0.529V21.885z
	 M30.965,30.35c0,0.299-0.23,0.528-0.529,0.528H16.68c-0.297,0-0.529-0.229-0.529-0.528v-3.175c0-0.297,0.232-0.528,0.529-0.528
	h13.754c0.299,0,0.53,0.231,0.53,0.528L30.965,30.35L30.965,30.35z"/>
</svg>
