<?xml version="1.0" encoding="utf-8"?>
<!-- Generator: Adobe Illustrator 15.1.0, SVG Export Plug-In . SVG Version: 6.00 Build 0)  -->
<!DOCTYPE svg PUBLIC "-//W3C//DTD SVG 1.1//EN" "http://www.w3.org/Graphics/SVG/1.1/DTD/svg11.dtd">
<svg version="1.1" id="Layer_1" xmlns="http://www.w3.org/2000/svg" xmlns:xlink="http://www.w3.org/1999/xlink" x="0px" y="0px"
	 width="20px" height="20px" viewBox="0 0 20 20" enable-background="new 0 0 20 20" xml:space="preserve">
<path d="M7.737,14.248l-3.206,4.66C4.462,18.971,4.382,19,4.301,19c-0.08,0-0.161-0.029-0.231-0.092l-3.214-4.67
	c-0.091-0.1-0.121-0.23-0.07-0.352c0.049-0.119,0.171-0.201,0.301-0.201h1.929V1.321C3.016,1.14,3.157,1,3.337,1h1.929
	c0.181,0,0.321,0.141,0.321,0.321v12.365h1.929c0.181,0,0.321,0.141,0.321,0.324C7.837,14.1,7.797,14.18,7.737,14.248z M12.658,3.25
	c0,0.182-0.142,0.321-0.321,0.321H9.766c-0.181,0-0.321-0.139-0.321-0.321V1.321C9.445,1.14,9.586,1,9.766,1h2.571
	c0.182,0,0.321,0.141,0.321,0.321V3.25z M14.587,8.393c0,0.182-0.141,0.321-0.32,0.321h-4.5c-0.181,0-0.321-0.14-0.321-0.321V6.463
	c0-0.181,0.141-0.321,0.321-0.321h4.5c0.181,0,0.32,0.141,0.32,0.321V8.393z M16.517,13.535c0,0.182-0.142,0.322-0.322,0.322H9.766
	c-0.181,0-0.321-0.143-0.321-0.322v-1.929c0-0.183,0.141-0.321,0.321-0.321h6.428c0.181,0,0.32,0.139,0.32,0.321v1.929H16.517z
	 M18.444,18.68c0,0.182-0.139,0.32-0.321,0.32H9.766c-0.181,0-0.321-0.141-0.321-0.32v-1.93c0-0.182,0.141-0.32,0.321-0.32h8.357
	c0.181,0,0.321,0.141,0.321,0.32V18.68L18.444,18.68z"/>
</svg>
