<?xml version="1.0" encoding="utf-8"?>
<!-- Generator: Adobe Illustrator 15.1.0, SVG Export Plug-In . SVG Version: 6.00 Build 0)  -->
<!DOCTYPE svg PUBLIC "-//W3C//DTD SVG 1.1//EN" "http://www.w3.org/Graphics/SVG/1.1/DTD/svg11.dtd">
<svg version="1.1" id="Layer_1" xmlns="http://www.w3.org/2000/svg" xmlns:xlink="http://www.w3.org/1999/xlink" x="0px" y="0px"
	 width="20px" height="20px" viewBox="0 0 20 20" enable-background="new 0 0 20 20" xml:space="preserve">
<path d="M7.953,14.248L4.75,18.909c-0.07,0.06-0.152,0.088-0.231,0.088c-0.079,0-0.161-0.028-0.232-0.088l-3.214-4.673
	c-0.089-0.102-0.121-0.231-0.07-0.352c0.052-0.121,0.173-0.199,0.303-0.199h1.929V1.321C3.233,1.141,3.373,1,3.554,1h1.929
	c0.182,0,0.321,0.139,0.321,0.321v12.365h1.929c0.182,0,0.321,0.139,0.321,0.321C8.053,14.098,8.013,14.18,7.953,14.248z
	 M18.661,3.25c0,0.18-0.141,0.321-0.32,0.321H9.983c-0.182,0-0.322-0.142-0.322-0.321V1.321C9.661,1.141,9.801,1,9.983,1h8.355
	c0.182,0,0.321,0.139,0.321,0.321L18.661,3.25L18.661,3.25z M16.732,8.393c0,0.181-0.138,0.321-0.321,0.321H9.983
	c-0.182,0-0.322-0.141-0.322-0.321V6.464c0-0.182,0.14-0.321,0.322-0.321h6.428c0.184,0,0.321,0.139,0.321,0.321V8.393z
	 M14.804,13.536c0,0.181-0.139,0.321-0.321,0.321H9.983c-0.182,0-0.322-0.142-0.322-0.321v-1.929c0-0.184,0.14-0.321,0.322-0.321
	h4.499c0.185,0,0.321,0.139,0.321,0.321V13.536z M12.876,18.68c0,0.18-0.142,0.32-0.322,0.32H9.984c-0.182,0-0.322-0.141-0.322-0.32
	v-1.93c0-0.182,0.14-0.32,0.322-0.32h2.569c0.182,0,0.322,0.139,0.322,0.32V18.68z"/>
</svg>
