<?xml version="1.0" encoding="utf-8"?>
<!-- Generator: Adobe Illustrator 15.1.0, SVG Export Plug-In . SVG Version: 6.00 Build 0)  -->
<!DOCTYPE svg PUBLIC "-//W3C//DTD SVG 1.1//EN" "http://www.w3.org/Graphics/SVG/1.1/DTD/svg11.dtd">
<svg version="1.1" id="Layer_1" xmlns="http://www.w3.org/2000/svg" xmlns:xlink="http://www.w3.org/1999/xlink" x="0px" y="0px"
	 width="20px" height="20px" viewBox="0 0 20 20" enable-background="new 0 0 20 20" xml:space="preserve">
<path fill="#010101" d="M9.324,8.513c1.223,0.445,1.954,2.005,1.954,3.118c0,6.014,0,6.014,0,6.014c0,1.111-0.731,1.559-1.954,1.111
	c-6.613-3.563-6.613-3.563-6.613-3.563c-0.978-0.445-1.958-2.004-1.958-3.116c0-6.012,0-6.012,0-6.012
	c0-1.115,0.98-1.559,1.958-1.115L9.324,8.513z"/>
<path fill="#010101" d="M15.227,2.973c0.488-0.89,0-1.782-1.225-1.559C6.167,2.528,6.167,2.528,6.167,2.528
	C4.941,2.75,4.698,3.419,5.922,3.864c5.142,2.672,5.142,2.672,5.142,2.672c0.979,0.668,2.445,0.222,2.938-0.892L15.227,2.973z"/>
<path fill="#010101" d="M18.02,3.838c0.488-1.113,0.734-0.89,0.734,0.222c0,6.012,0,6.012,0,6.012c0,1.115-0.246,2.896-0.98,4.008
	c-1.715,3.785-1.715,3.785-1.715,3.785c-0.734,1.113-0.979,0.891-0.979-0.226c0-6.01,0-6.01,0-6.01c0-1.112,0.488-2.895,0.979-4.009
	L18.02,3.838z"/>
</svg>
