<?xml version="1.0" encoding="utf-8"?>
<!-- Generator: Adobe Illustrator 15.1.0, SVG Export Plug-In . SVG Version: 6.00 Build 0)  -->
<!DOCTYPE svg PUBLIC "-//W3C//DTD SVG 1.1//EN" "http://www.w3.org/Graphics/SVG/1.1/DTD/svg11.dtd">
<svg version="1.1" id="Layer_1" xmlns="http://www.w3.org/2000/svg" xmlns:xlink="http://www.w3.org/1999/xlink" x="0px" y="0px"
	 width="32px" height="32px" viewBox="0 0 32 32" enable-background="new 0 0 32 32" xml:space="preserve">
<g>
</g>
<g>
</g>
<path fill="#010101" d="M16.386,12.912c2.167,0.789,3.465,3.549,3.465,5.521c0,10.646,0,10.646,0,10.646
	c0,1.972-1.299,2.761-3.465,1.972c-11.71-6.31-11.71-6.31-11.71-6.31c-1.733-0.788-3.469-3.549-3.469-5.521
	c0-10.646,0-10.646,0-10.646c0-1.972,1.736-2.76,3.469-1.972L16.386,12.912z"/>
<path fill="#010101" d="M26.356,4.152c0.868-1.578,0-3.155-2.167-2.761C10.314,3.363,10.314,3.363,10.314,3.363
	C8.146,3.758,7.713,4.941,9.881,5.729c9.106,4.731,9.106,4.731,9.106,4.731c1.731,1.184,4.334,0.395,5.202-1.577L26.356,4.152z"/>
<path fill="#010101" d="M29.394,4.631c0.866-1.972,1.301-1.577,1.301,0.395c0,10.646,0,10.646,0,10.646
	c0,1.972-0.435,5.126-1.734,7.097c-3.037,6.703-3.037,6.703-3.037,6.703c-1.301,1.972-1.733,1.578-1.733-0.394
	c0-10.646,0-10.646,0-10.646c0-1.971,0.866-5.126,1.733-7.098L29.394,4.631z"/>
</svg>
