<svg width="24" height="24" viewBox="0 0 24 24" fill="none" xmlns="http://www.w3.org/2000/svg">
<path d="M11.9996 23.9992C5.38344 23.9992 0 18.6166 0 11.9996C0 5.38265 5.38265 0 11.9996 0C18.6166 0 24 5.38265 24 11.9996C24 18.6166 18.6166 23.9992 11.9996 23.9992ZM11.9996 1.18456C6.03652 1.18456 1.18456 6.03652 1.18456 11.9996C1.18456 17.9627 6.03652 22.8146 11.9996 22.8146C17.9635 22.8146 22.8154 17.9627 22.8154 11.9996C22.8154 6.03652 17.9635 1.18456 11.9996 1.18456Z" fill="#020202"/>
<path d="M8.5 8H15.5V16H8.5V8Z" fill="#020202"/>
</svg>
