<?xml version="1.0" encoding="utf-8"?>
<!-- Generator: Adobe Illustrator 15.1.0, SVG Export Plug-In . SVG Version: 6.00 Build 0)  -->
<!DOCTYPE svg PUBLIC "-//W3C//DTD SVG 1.1//EN" "http://www.w3.org/Graphics/SVG/1.1/DTD/svg11.dtd">
<svg version="1.1" id="Layer_1" xmlns="http://www.w3.org/2000/svg" xmlns:xlink="http://www.w3.org/1999/xlink" x="0px" y="0px"
	 width="20px" height="20px" viewBox="0 0 20 20" enable-background="new 0 0 20 20" xml:space="preserve">
<path d="M10,19C5.032,19,1,14.97,1,10C1,5.032,5.032,1,10,1c4.966,0,9,4.032,9,9C19,14.97,14.967,19,10,19z M14.24,12.121
	l-2.121-2.123L14.24,7.88c0.141-0.141,0.223-0.329,0.223-0.527c0-0.2-0.08-0.399-0.223-0.54l-1.055-1.055
	c-0.139-0.141-0.338-0.224-0.539-0.224c-0.197,0-0.387,0.083-0.527,0.224L10,7.88L7.878,5.758C7.74,5.617,7.55,5.534,7.352,5.534
	c-0.199,0-0.398,0.083-0.54,0.224L5.759,6.813c-0.142,0.141-0.224,0.34-0.224,0.54c0,0.198,0.082,0.387,0.224,0.527l2.12,2.119
	l-2.12,2.123c-0.142,0.139-0.224,0.33-0.224,0.527c0,0.198,0.082,0.399,0.224,0.541l1.052,1.051c0.142,0.142,0.341,0.225,0.54,0.225
	c0.199,0,0.388-0.083,0.527-0.225L10,12.121l2.119,2.119c0.141,0.142,0.33,0.225,0.527,0.225c0.201,0,0.4-0.083,0.539-0.225
	l1.055-1.051c0.141-0.142,0.223-0.343,0.223-0.541C14.463,12.447,14.381,12.263,14.24,12.121z"/>
</svg>
