<?xml version="1.0" encoding="utf-8"?>
<!-- Generator: Adobe Illustrator 15.1.0, SVG Export Plug-In . SVG Version: 6.00 Build 0)  -->
<!DOCTYPE svg PUBLIC "-//W3C//DTD SVG 1.1//EN" "http://www.w3.org/Graphics/SVG/1.1/DTD/svg11.dtd">
<svg version="1.1" id="Layer_1" xmlns="http://www.w3.org/2000/svg" xmlns:xlink="http://www.w3.org/1999/xlink" x="0px" y="0px"
	 width="32px" height="32px" viewBox="0 0 32 32" enable-background="new 0 0 32 32" xml:space="preserve">
<g>
	<path fill="#020202" d="M16.127,30.959c-8.133,0-14.75-6.617-14.75-14.75c0-8.133,6.617-14.75,14.75-14.75
		c8.133,0,14.75,6.617,14.75,14.75c0.001,3.938-1.533,7.642-4.32,10.429C23.771,29.424,20.066,30.959,16.127,30.959z M16.127,2.959
		c-7.306,0-13.25,5.944-13.25,13.25c0,7.306,5.944,13.25,13.25,13.25c3.538,0,6.866-1.379,9.369-3.882
		c2.504-2.504,3.882-5.83,3.881-9.368C29.377,8.903,23.433,2.959,16.127,2.959z M14.47,25.073c-0.487,0-0.991-0.212-1.348-0.566
		l-6.6-6.602c-0.353-0.348-0.55-0.828-0.55-1.351c0-0.523,0.201-1.023,0.552-1.371l1.658-1.64c0.709-0.72,1.963-0.731,2.698,0.003
		l3.589,3.589l6.908-6.889c0.716-0.726,1.968-0.735,2.701,0.002l1.655,1.635c0.351,0.358,0.549,0.854,0.552,1.37
		c0,0.518-0.193,0.997-0.546,1.353l-9.901,9.899C15.478,24.866,14.979,25.073,14.47,25.073z M9.531,14.48
		c-0.106,0-0.208,0.044-0.287,0.124L7.581,16.25c-0.067,0.066-0.107,0.181-0.107,0.305c0,0.12,0.036,0.217,0.106,0.286l6.602,6.604
		c0.217,0.216,0.464,0.134,0.599-0.001l9.897-9.896c0.09-0.091,0.109-0.208,0.109-0.29c-0.001-0.124-0.044-0.243-0.114-0.316
		l-1.651-1.63c-0.172-0.174-0.421-0.169-0.579-0.007l-7.973,7.95l-4.649-4.647C9.739,14.525,9.636,14.48,9.531,14.48z"/>
</g>
</svg>
