<?xml version="1.0" encoding="utf-8"?>
<!-- Generator: Adobe Illustrator 15.1.0, SVG Export Plug-In . SVG Version: 6.00 Build 0)  -->
<!DOCTYPE svg PUBLIC "-//W3C//DTD SVG 1.1//EN" "http://www.w3.org/Graphics/SVG/1.1/DTD/svg11.dtd">
<svg version="1.1" id="Layer_1" xmlns="http://www.w3.org/2000/svg" xmlns:xlink="http://www.w3.org/1999/xlink" x="0px" y="0px"
	 width="32px" height="32px" viewBox="0 0 32 32" enable-background="new 0 0 32 32" xml:space="preserve">
<g>
	<path d="M16.123,30.958c-8.134,0-14.751-6.617-14.751-14.751c0-8.133,6.617-14.749,14.751-14.749
		c8.133,0,14.749,6.616,14.749,14.749C30.872,24.341,24.256,30.958,16.123,30.958z M16.123,2.958
		c-7.307,0-13.251,5.943-13.251,13.249c0,7.307,5.944,13.251,13.251,13.251c7.306,0,13.249-5.944,13.249-13.251
		C29.372,8.901,23.429,2.958,16.123,2.958z M20.242,23.904c-0.503,0-0.982-0.2-1.351-0.565l-2.77-2.771l-2.771,2.769
		c-0.73,0.731-1.999,0.72-2.719,0.001l-1.64-1.641c-0.36-0.355-0.568-0.855-0.568-1.369c0-0.507,0.202-0.987,0.57-1.353l2.766-2.769
		l-2.768-2.769c-0.366-0.364-0.568-0.844-0.568-1.351c0-0.512,0.208-1.012,0.57-1.372l1.637-1.639c0.724-0.722,1.991-0.733,2.722,0
		l2.769,2.769l2.768-2.77c0.744-0.738,2.01-0.715,2.721,0.002l1.641,1.638c0.359,0.36,0.565,0.859,0.565,1.371
		c0,0.505-0.2,0.985-0.564,1.35l-2.771,2.769l2.771,2.771c0.364,0.364,0.565,0.844,0.565,1.351c0,0.513-0.206,1.012-0.566,1.37
		l-1.642,1.64C21.252,23.696,20.753,23.904,20.242,23.904z M16.123,18.447l3.828,3.829c0.167,0.167,0.446,0.154,0.596,0.002
		l1.645-1.643c0.078-0.077,0.126-0.194,0.126-0.308c0-0.105-0.045-0.209-0.126-0.29l-3.831-3.831l3.831-3.829
		c0.081-0.082,0.126-0.185,0.126-0.29c0-0.113-0.048-0.232-0.126-0.31l-1.643-1.641c-0.154-0.154-0.429-0.168-0.6,0.002
		l-3.826,3.828l-3.832-3.831c-0.171-0.171-0.446-0.153-0.6,0.001l-1.638,1.639c-0.081,0.08-0.129,0.198-0.129,0.31
		c0,0.104,0.045,0.207,0.127,0.289l3.829,3.831l-3.828,3.831c-0.084,0.083-0.129,0.186-0.129,0.29c0,0.11,0.049,0.23,0.125,0.306
		l1.642,1.643c0.153,0.15,0.429,0.171,0.598,0.001L16.123,18.447z"/>
</g>
</svg>
