<?xml version="1.0" encoding="utf-8"?>
<!-- Generator: Adobe Illustrator 15.1.0, SVG Export Plug-In . SVG Version: 6.00 Build 0)  -->
<!DOCTYPE svg PUBLIC "-//W3C//DTD SVG 1.1//EN" "http://www.w3.org/Graphics/SVG/1.1/DTD/svg11.dtd">
<svg version="1.1" id="Layer_1" xmlns="http://www.w3.org/2000/svg" xmlns:xlink="http://www.w3.org/1999/xlink" x="0px" y="0px"
	 width="20px" height="20px" viewBox="0 0 20 20" enable-background="new 0 0 20 20" xml:space="preserve">
<path fill="#020202" d="M10,19c-4.967,0-9-4.029-9-9c0-4.967,4.033-9,9-9c4.97,0,9,4.033,9,9C19.002,14.969,14.971,19,10,19z
	 M15.84,7.563L14.771,6.51c-0.141-0.142-0.326-0.223-0.525-0.223s-0.389,0.08-0.527,0.223l-4.784,4.767L6.287,8.629
	C6.146,8.491,5.959,8.409,5.76,8.409c-0.201,0-0.387,0.082-0.527,0.221L4.166,9.685c-0.142,0.14-0.212,0.338-0.212,0.538
	c0,0.2,0.07,0.385,0.212,0.527l4.242,4.244c0.141,0.139,0.339,0.223,0.526,0.223c0.201,0,0.4-0.082,0.54-0.223l6.362-6.365
	c0.141-0.139,0.211-0.327,0.211-0.527C16.049,7.903,15.977,7.705,15.84,7.563z"/>
</svg>
