<?xml version="1.0" encoding="utf-8"?>
<!-- Generator: Adobe Illustrator 15.1.0, SVG Export Plug-In . SVG Version: 6.00 Build 0)  -->
<!DOCTYPE svg PUBLIC "-//W3C//DTD SVG 1.1//EN" "http://www.w3.org/Graphics/SVG/1.1/DTD/svg11.dtd">
<svg version="1.1" id="Layer_1" xmlns="http://www.w3.org/2000/svg" xmlns:xlink="http://www.w3.org/1999/xlink" x="0px" y="0px"
	 width="32px" height="32px" viewBox="0 0 32 32" enable-background="new 0 0 32 32" xml:space="preserve">
<path fill-rule="evenodd" clip-rule="evenodd" fill="#ADC4C4" d="M27.908,15.882c-1.294-0.684,0.078-2.127,0.465-3.249
	c1.103-3.187,2.104-10.311-3.4-9.585c-1.641,0.216-2.986,1.508-3.25,2.937c-0.318,1.746,1.115,3.875,0,5.721
	c-1.707-0.214-1.883-3.791-1.698-5.566c0.657-6.309,10.137-6.163,10.977,0.154c0.232,1.737-0.052,3.808-0.463,5.412
	C30.065,13.549,29.19,15.92,27.908,15.882z"/>
<path fill-rule="evenodd" clip-rule="evenodd" fill="#ADC4C4" d="M19.029,7.826c0.497,2.766-1.14,6.491,2.262,6.503
	c1.326,0.005,2.344-1.024,2.404-2.262c0.071-1.542-1.586-2.418-1.274-4.099c0.795,0.194,1.775,0.204,2.404,0.565
	c-0.046,2.656,1.662,6.745,0.707,9.754c-0.354,1.11-2.053,2.479-3.252,3.676c-2.291,2.291-4.316,4.316-6.786,6.785
	c-0.976,0.976-2.571,2.962-3.817,2.969c-1.69,0.012-4.518-3.669-5.513-4.665c-0.773-0.772-1.69-1.662-2.545-2.543
	c-0.75-0.774-2.138-1.787-2.12-2.969c0.018-1.234,1.976-2.825,2.968-3.818c2.533-2.533,4.078-4.079,6.644-6.645
	C13.207,8.982,14.563,6.784,19.029,7.826z"/>
</svg>
