<?xml version="1.0" encoding="utf-8"?>
<!-- Generator: Adobe Illustrator 15.1.0, SVG Export Plug-In . SVG Version: 6.00 Build 0)  -->
<!DOCTYPE svg PUBLIC "-//W3C//DTD SVG 1.1//EN" "http://www.w3.org/Graphics/SVG/1.1/DTD/svg11.dtd">
<svg version="1.1" id="Layer_1" xmlns="http://www.w3.org/2000/svg" xmlns:xlink="http://www.w3.org/1999/xlink" x="0px" y="0px"
	 width="32px" height="32px" viewBox="0 0 32 32" enable-background="new 0 0 32 32" xml:space="preserve">
<path fill="#010101" d="M28.751,9.045c0-0.376,0-0.376,0-0.376l0,0c0-0.377-12.235-7.535-12.235-7.535
	c-0.372-0.377-1.112-0.377-1.484,0C3.538,7.916,2.795,8.669,2.795,8.669l0,0c0,0.376,0,0.376,0,0.376c0,13.562,0,13.562,0,13.562
	c0,0.377,0.372,1.131,0.743,1.131c11.494,6.781,11.494,6.781,11.494,6.781c0.406,0.168,1.281,0.23,1.484,0l0,0
	c11.494-6.781,11.494-6.781,11.494-6.781c0.365-0.27,0.741-0.754,0.741-1.131C28.751,9.045,28.751,9.045,28.751,9.045L28.751,9.045
	L28.751,9.045L28.751,9.045L28.751,9.045z M14.292,26.752c-8.529-4.896-8.529-4.896-8.529-4.896c0-10.171,0-10.171,0-10.171
	c8.529,4.899,8.529,4.899,8.529,4.899V26.752z M25.785,21.855c-8.528,4.896-8.528,4.896-8.528,4.896c0-10.169,0-10.169,0-10.169
	c8.528-4.899,8.528-4.899,8.528-4.899V21.855z"/>
</svg>
