<?xml version="1.0" encoding="utf-8"?>
<!-- Generator: Adobe Illustrator 15.1.0, SVG Export Plug-In . SVG Version: 6.00 Build 0)  -->
<!DOCTYPE svg PUBLIC "-//W3C//DTD SVG 1.1//EN" "http://www.w3.org/Graphics/SVG/1.1/DTD/svg11.dtd">
<svg version="1.1" id="Layer_1" xmlns="http://www.w3.org/2000/svg" xmlns:xlink="http://www.w3.org/1999/xlink" x="0px" y="0px"
	 width="20px" height="20px" viewBox="0 0 20 20" enable-background="new 0 0 20 20" xml:space="preserve">
<path fill="#010101" d="M18.304,5.798c0-0.235,0-0.235,0-0.235l0,0c0-0.236-7.656-4.386-7.656-4.386
	c-0.235-0.236-0.697-0.236-0.93,0C2.527,5.42,2.063,5.563,2.063,5.563l0,0c0,0.236,0,0.236,0,0.236c0,8.486,0,8.486,0,8.486
	c0,0.236,0.234,0.707,0.464,0.707c7.191,4.242,7.191,3.916,7.191,3.916c0.253,0.102,0.802,0.141,0.929,0l0,0
	c7.191-4.244,7.191-3.916,7.191-3.916c0.229-0.17,0.465-0.471,0.465-0.707C18.304,5.798,18.304,5.798,18.304,5.798L18.304,5.798
	L18.304,5.798L18.304,5.798L18.304,5.798z M9.255,16.879C3.92,13.814,3.92,13.814,3.92,13.814c0-6.362,0-6.362,0-6.362
	c5.335,3.065,5.335,3.065,5.335,3.065V16.879z M16.448,13.813c-5.336,3.064-5.336,3.064-5.336,3.064c0-6.36,0-6.36,0-6.36
	c5.336-3.065,5.336-3.065,5.336-3.065V13.813z"/>
</svg>
