<?xml version="1.0" encoding="utf-8"?>
<!-- Generator: Adobe Illustrator 15.1.0, SVG Export Plug-In . SVG Version: 6.00 Build 0)  -->
<!DOCTYPE svg PUBLIC "-//W3C//DTD SVG 1.1//EN" "http://www.w3.org/Graphics/SVG/1.1/DTD/svg11.dtd">
<svg version="1.1" id="Layer_1" xmlns="http://www.w3.org/2000/svg" xmlns:xlink="http://www.w3.org/1999/xlink" x="0px" y="0px"
	 width="24px" height="24px" viewBox="0 0 32 32" enable-background="new 0 0 32 32" xml:space="preserve">
<g>
	<path fill="#010101" d="M14.292,16.584c0,0-0.058-0.033-0.171-0.098C14.286,16.582,14.292,16.585,14.292,16.584L14.292,16.584z"/>
	<path fill="#010101" d="M15.596,14.158L15.596,14.158c-4.97-2.921-6.523-3.834-7.008-4.119
		C9.073,10.324,10.626,11.237,15.596,14.158z"/>
	<path fill="#010101" d="M16.516,1.134c-0.672-0.493-0.933-0.54-1.635-0.231C9.409,4.503,2.795,8.669,2.795,8.669
		c0,0.376,0,0.376,0,0.376c0,13.563,0,13.563,0,13.563c0,0.377,0.372,1.134,0.743,1.134c11.494,6.778,11.494,6.778,11.494,6.778
		c0.258,0.068,0.968,0.246,1.483,0c11.491-6.778,11.491-6.778,11.491-6.778c0.365-0.271,0.741-0.757,0.741-1.134
		C28.75,9.045,28.75,9.045,28.75,9.045c0-0.376,0-0.376,0-0.376L16.516,1.134z M25.785,21.855c-8.528,4.896-8.528,4.896-8.528,4.896
		c0-10.169,0-10.169,0-10.169c8.528-4.899,8.528-4.899,8.528-4.899V21.855z M17.256,16.582c0,0,0.001,3.331,0.001,13.5
		c0,0-0.663,0.563-1.557,0.557c-0.797-0.006-1.407-0.555-1.407-0.555l-0.001-3.332c-8.529-4.896-8.529-4.896-8.529-4.896
		c0-9.058,0-10.045,0-10.153c-0.683-0.392-2.18-1.21-2.968-1.662V8.67l1.53-0.968c0,0,1.392,0.798,2.548,1.423
		c8.723-5.004,8.724-5.005,8.724-5.005c7.124,4.086,8.449,4.847,8.696,4.988l2.67-1.539L28.75,8.67v1.222
		C28.75,9.89,25.785,11.683,17.256,16.582z"/>
	<path fill="#010101" d="M14.121,16.486c-0.571-0.325-2.762-1.574-8.357-4.786c0,0.108,0,1.097,0,10.155c0,0,0,0,8.529,4.896V16.585
		C14.292,16.585,14.286,16.582,14.121,16.486z"/>
	<path fill="#010101" d="M17.257,26.751c0,0,0,0,8.528-4.896V11.683c0,0,0,0-8.528,4.899C17.257,16.582,17.257,16.582,17.257,26.751
		z"/>
	<path fill="#010101" d="M8.588,10.039c0.485,0.285,2.039,1.198,7.009,4.119l8.696-5.052c-0.247-0.142-1.572-0.902-8.696-4.988
		c0,0-0.001,0.001-8.724,5.005c0.506,0.274,1.03,0.552,1.494,0.787C8.367,9.909,8.367,9.909,8.588,10.039z"/>
	<path fill="#FFFFFF" d="M5.763,11.686c0,0,0,0.001,0,0.014c5.596,3.212,7.787,4.461,8.357,4.786
		C13.67,16.228,12,15.268,5.763,11.686z"/>
	<path fill="#FFFFFF" d="M8.367,9.909C7.903,9.674,7.379,9.396,6.873,9.123c-0.01,0.005-0.018,0.01-0.028,0.016
		C6.845,9.138,6.845,9.138,8.367,9.909z"/>
	<path fill="#FFFFFF" d="M15.597,14.158l8.752-5.02c0,0,0,0-0.059-0.033L15.597,14.158L15.597,14.158z"/>
</g>
</svg>
