<?xml version="1.0" encoding="utf-8"?>
<!-- Generator: Adobe Illustrator 15.1.0, SVG Export Plug-In . SVG Version: 6.00 Build 0)  -->
<!DOCTYPE svg PUBLIC "-//W3C//DTD SVG 1.1//EN" "http://www.w3.org/Graphics/SVG/1.1/DTD/svg11.dtd">
<svg version="1.1" id="Layer_1" xmlns="http://www.w3.org/2000/svg" xmlns:xlink="http://www.w3.org/1999/xlink" x="0px" y="0px"
	 width="20px" height="20px" viewBox="0 0 20 20" enable-background="new 0 0 20 20" xml:space="preserve">
<path d="M18.029,15.789c-0.268,1.574-0.93,2.222-0.93,2.222c-0.533,0.392-1.205,0.545-1.857,0.545h-9.5
	c-1.74,0-2.903-1.046-2.903-2.815c0-2.455,0.576-6.229,3.762-6.229c0.175,0,0.294,0.076,0.424,0.186
	c1.067,0.815,2.1,1.331,3.468,1.331c1.371,0,2.402-0.512,3.47-1.331c0.129-0.108,0.246-0.186,0.424-0.186
	C17.834,9.507,18.184,14.882,18.029,15.789z"/>
<path d="M6.318,4.73c0-2.302,1.87-4.175,4.175-4.175c2.305,0,4.175,1.87,4.175,4.175c0,2.305-1.87,4.175-4.175,4.175
	C8.187,8.906,6.318,7.035,6.318,4.73z"/>
</svg>
