<?xml version="1.0" encoding="utf-8"?>
<!-- Generator: Adobe Illustrator 15.1.0, SVG Export Plug-In . SVG Version: 6.00 Build 0)  -->
<!DOCTYPE svg PUBLIC "-//W3C//DTD SVG 1.1//EN" "http://www.w3.org/Graphics/SVG/1.1/DTD/svg11.dtd">
<svg version="1.1" id="Layer_1" xmlns="http://www.w3.org/2000/svg" xmlns:xlink="http://www.w3.org/1999/xlink" x="0px" y="0px"
	 width="32px" height="32px" viewBox="0 0 32 32" style="enable-background:new 0 0 32 32;" xml:space="preserve">
<path d="M9.396,8.126c0-3.854,3.129-6.984,6.984-6.984c3.856,0,6.985,3.13,6.985,6.984c0,3.856-3.129,6.984-6.985,6.984
	C12.524,15.11,9.396,11.982,9.396,8.126z"/>
<g>
	<path d="M22.895,16.114c-0.293,0-0.494,0.127-0.711,0.309c-1.783,1.365-3.511,2.22-5.804,2.22c-2.292,0-4.02-0.854-5.802-2.22
		c-0.217-0.183-0.418-0.309-0.709-0.309c-5.329,0-6.293,6.312-6.293,10.421c0,2.966,1.946,4.711,4.856,4.711h15.897
		c1.09,0,2.218-0.255,3.11-0.909c0,0,1.104-1.086,1.549-3.71C29.246,25.104,28.663,16.115,22.895,16.114z M21.232,27.51
		c0.153,0.154,0.24,0.37,0.24,0.586c0,0.215-0.087,0.43-0.24,0.586l-1.174,1.17c-0.154,0.155-0.367,0.241-0.584,0.241
		s-0.432-0.086-0.586-0.241l-2.533-2.531l-2.532,2.531c-0.155,0.155-0.37,0.241-0.585,0.241c-0.215,0-0.431-0.086-0.586-0.241
		l-1.171-1.17c-0.155-0.156-0.241-0.371-0.241-0.586c0-0.216,0.086-0.432,0.241-0.586l2.531-2.531l-2.531-2.533
		c-0.155-0.153-0.241-0.369-0.241-0.584c0-0.217,0.086-0.432,0.241-0.586l1.171-1.17c0.155-0.156,0.371-0.241,0.586-0.241
		c0.215,0,0.431,0.085,0.585,0.241l2.532,2.529l2.533-2.529c0.154-0.156,0.369-0.241,0.586-0.241s0.43,0.085,0.584,0.241l1.174,1.17
		c0.153,0.154,0.24,0.369,0.24,0.586c0,0.215-0.087,0.431-0.24,0.584L18.7,24.979L21.232,27.51z"/>
</g>
</svg>
