<?xml version="1.0" encoding="utf-8"?>
<!-- Generator: Adobe Illustrator 15.1.0, SVG Export Plug-In . SVG Version: 6.00 Build 0)  -->
<!DOCTYPE svg PUBLIC "-//W3C//DTD SVG 1.1//EN" "http://www.w3.org/Graphics/SVG/1.1/DTD/svg11.dtd">
<svg version="1.1" id="Layer_1" xmlns="http://www.w3.org/2000/svg" xmlns:xlink="http://www.w3.org/1999/xlink" x="0px" y="0px"
	 width="20px" height="20px" viewBox="0 0 20 20" enable-background="new 0 0 20 20" xml:space="preserve">
<g>
	<path fill="#050505" d="M10.042,11.805C9.78,12.377,9.726,12.41,9.726,12.41c2.518,0.01,2.6,2.431,2.6,3.898
		c0,1.003-0.471,1.622-1.433,1.67h5.015c1.652,0,2.775-1.007,2.775-2.691c0-2.351-0.551-5.957-3.598-5.957
		c-0.32,0-1.685,1.444-3.72,1.444c-0.476,0-0.729-0.081-1.126-0.2C10.243,10.576,10.305,11.232,10.042,11.805z"/>
	<path fill="#050505" d="M10.108,9.727c0.444,0.171,0.751,0.27,1.257,0.27c2.202,0,3.991-1.79,3.991-3.991
		c0-2.201-1.789-3.991-3.991-3.991c-2.202,0-3.991,1.789-3.991,3.99c0,0.75,0.033,1.273,0.394,1.873
		C8.705,8.018,9.816,8.85,10.108,9.727z"/>
	<path fill="#050505" d="M0.683,15.922v-0.526c0-0.04,0.029-0.077,0.071-0.084l0.435-0.065c0.024-0.08,0.058-0.158,0.097-0.233
		c-0.081-0.113-0.168-0.22-0.248-0.329c-0.011-0.016-0.021-0.03-0.021-0.057c0-0.018,0.006-0.034,0.017-0.049
		c0.1-0.142,0.266-0.289,0.394-0.404c0.018-0.016,0.038-0.025,0.063-0.025c0.021,0,0.042,0.008,0.055,0.021l0.34,0.258
		c0.069-0.035,0.14-0.064,0.213-0.088L2.165,13.9c0.006-0.04,0.044-0.072,0.086-0.072h0.527c0.043,0,0.078,0.029,0.085,0.067
		c0.039,0.144,0.053,0.299,0.071,0.444c0.076,0.023,0.147,0.053,0.216,0.09l0.329-0.256c0.02-0.016,0.04-0.025,0.063-0.025
		c0.08,0,0.401,0.348,0.459,0.428c0.01,0.018,0.021,0.032,0.021,0.053c0,0.022-0.011,0.043-0.024,0.059
		c-0.089,0.107-0.174,0.216-0.255,0.326c0.039,0.074,0.068,0.143,0.093,0.221l0.442,0.068c0.037,0.005,0.066,0.05,0.066,0.085v0.526
		c0,0.043-0.028,0.08-0.068,0.086l-0.434,0.063c-0.025,0.08-0.057,0.159-0.1,0.234c0.081,0.113,0.168,0.216,0.25,0.326
		c0.011,0.019,0.019,0.035,0.019,0.056c0,0.019-0.005,0.038-0.018,0.053c-0.098,0.142-0.266,0.286-0.392,0.403
		C3.583,17.149,3.562,17.16,3.54,17.16c-0.023,0-0.044-0.01-0.061-0.021l-0.334-0.257c-0.074,0.038-0.143,0.067-0.216,0.091
		L2.859,17.41c-0.003,0.041-0.042,0.072-0.084,0.072H2.249c-0.042,0-0.075-0.025-0.085-0.066c-0.037-0.145-0.051-0.297-0.067-0.442
		c-0.076-0.022-0.148-0.056-0.219-0.091l-0.33,0.257c-0.019,0.01-0.04,0.022-0.06,0.022c-0.081,0-0.402-0.349-0.459-0.428
		c-0.016-0.018-0.023-0.033-0.023-0.053c0-0.021,0.01-0.046,0.026-0.063c0.085-0.105,0.172-0.209,0.253-0.326
		c-0.037-0.07-0.065-0.142-0.091-0.219L0.752,16.01c-0.039-0.008-0.068-0.051-0.068-0.086H0.683V15.922z M1.903,15.654
		c0,0.34,0.272,0.61,0.608,0.61c0.338,0,0.612-0.271,0.612-0.61c0-0.336-0.273-0.609-0.612-0.609
		C2.177,15.043,1.904,15.318,1.903,15.654z"/>
	<path fill="#050505" d="M3.191,17.451l-0.039,0.262c0.271,0.177,0.61,0.273,1.001,0.273h5.475c0.995,0,1.672-0.607,1.672-1.621
		c0-1.418-0.331-3.59-2.167-3.59c-0.193,0-1.016,0.869-2.243,0.869c-1.228,0-2.049-0.869-2.242-0.869
		c-0.68,0-1.154,0.299-1.479,0.749c0.01,0.08,0.018,0.16,0.027,0.238c0.104,0.034,0.206,0.078,0.303,0.128l0.457-0.354
		c0.027-0.021,0.058-0.035,0.086-0.035c0.114,0,0.562,0.484,0.642,0.596c0.016,0.025,0.029,0.051,0.029,0.079
		s-0.012,0.058-0.033,0.08c-0.122,0.147-0.24,0.299-0.354,0.46c0.055,0.098,0.097,0.197,0.132,0.304l0.618,0.093
		c0.048,0.01,0.089,0.07,0.089,0.121v0.736c0,0.056-0.041,0.107-0.098,0.122L4.458,16.18c-0.033,0.111-0.079,0.224-0.135,0.329
		c0.113,0.157,0.234,0.304,0.348,0.454c0.016,0.025,0.027,0.049,0.027,0.078c0,0.027-0.007,0.055-0.025,0.078
		c-0.14,0.191-0.373,0.399-0.548,0.561c-0.025,0.021-0.055,0.038-0.083,0.038c-0.028,0-0.059-0.011-0.083-0.033L3.494,17.33
		C3.396,17.379,3.295,17.416,3.191,17.451z"/>
	<circle fill="#050505" cx="6.891" cy="10.774" r="2.405"/>
</g>
</svg>
