<?xml version="1.0" encoding="utf-8"?>
<!-- Generator: Adobe Illustrator 15.1.0, SVG Export Plug-In . SVG Version: 6.00 Build 0)  -->
<!DOCTYPE svg PUBLIC "-//W3C//DTD SVG 1.1//EN" "http://www.w3.org/Graphics/SVG/1.1/DTD/svg11.dtd">
<svg version="1.1" id="Layer_1" xmlns="http://www.w3.org/2000/svg" xmlns:xlink="http://www.w3.org/1999/xlink" x="0px" y="0px"
	 width="20px" height="20px" viewBox="0 0 20 20" enable-background="new 0 0 20 20" xml:space="preserve">
<g>
	<g>
		<path d="M6.699,16.693c-0.403,0-0.758,0.195-0.985,0.496l-2.616-1.484c0.09-0.172,0.146-0.365,0.146-0.572
			c0-0.191-0.047-0.371-0.125-0.531l2.624-1.49c0.227,0.279,0.568,0.462,0.956,0.462c0.685,0,1.24-0.556,1.24-1.24
			s-0.556-1.24-1.24-1.24c-0.684,0-1.24,0.558-1.24,1.24c0,0.063,0.011,0.125,0.019,0.187L2.689,14.1
			c-0.196-0.129-0.43-0.205-0.684-0.205c-0.685,0-1.239,0.555-1.239,1.239s0.555,1.238,1.239,1.238c0.234,0,0.451-0.067,0.637-0.183
			l2.833,1.605c-0.006,0.047-0.015,0.092-0.015,0.139c0,0.685,0.556,1.238,1.239,1.238c0.686,0,1.24-0.555,1.24-1.238
			S7.386,16.693,6.699,16.693z"/>
	</g>
	<g>
		<circle cx="6.699" cy="12.33" r="0.678"/>
	</g>
	<g>
		<circle cx="2.005" cy="15.133" r="0.678"/>
	</g>
	<g>
		<circle cx="6.699" cy="17.934" r="0.678"/>
	</g>
</g>
<g>
	<path d="M16.462,18.517h-6.39c-0.287,0-0.52-0.233-0.52-0.521s0.233-0.521,0.52-0.521h6.39c0.424,0,1.031-0.074,1.523-0.432l0,0
		c-0.013,0,0.49-0.577,0.708-1.855c0.105-0.625-0.084-3.32-1.268-4.722c-0.493-0.583-1.085-0.866-1.81-0.867
		c-0.005,0.001-0.026,0.011-0.091,0.064c-0.925,0.711-2.081,1.429-3.748,1.429c-1.661,0-2.818-0.717-3.731-1.418
		C7.969,9.61,7.949,9.601,7.945,9.599C7.614,9.6,7.305,9.649,7.026,9.747c-0.272,0.092-0.568-0.049-0.663-0.32
		C6.27,9.156,6.413,8.859,6.684,8.765C7.073,8.629,7.498,8.56,7.945,8.56c0.349,0,0.586,0.163,0.754,0.305
		c1.093,0.838,1.99,1.187,3.078,1.187c1.092,0,1.99-0.348,3.101-1.202c0.168-0.138,0.398-0.29,0.738-0.29
		c1.035,0,1.911,0.417,2.604,1.236c1.502,1.777,1.607,4.923,1.499,5.566c-0.282,1.662-0.979,2.391-1.057,2.469
		C18.033,18.297,17.293,18.517,16.462,18.517z"/>
</g>
<g>
	<path d="M7.636,4.784c0-2.183,1.772-3.956,3.953-3.956c2.187,0,3.957,1.772,3.957,3.956c0,2.184-1.771,3.956-3.957,3.956
		C9.407,8.74,7.636,6.967,7.636,4.784z"/>
</g>
</svg>
