<?xml version="1.0" encoding="utf-8"?>
<!-- Generator: Adobe Illustrator 15.1.0, SVG Export Plug-In . SVG Version: 6.00 Build 0)  -->
<!DOCTYPE svg PUBLIC "-//W3C//DTD SVG 1.1//EN" "http://www.w3.org/Graphics/SVG/1.1/DTD/svg11.dtd">
<svg version="1.1" id="Layer_1" xmlns="http://www.w3.org/2000/svg" xmlns:xlink="http://www.w3.org/1999/xlink" x="0px" y="0px"
	 width="32px" height="32px" viewBox="0 0 32 32" enable-background="new 0 0 32 32" xml:space="preserve">
<g>
	<path d="M25.75,30.094H15.663c-0.414,0-0.75-0.336-0.75-0.75s0.336-0.75,0.75-0.75H25.75c0.665,0,1.613-0.116,2.397-0.661
		c0.151-0.178,0.874-1.108,1.197-3.012c0.168-0.993-0.13-5.275-2.015-7.507c-0.792-0.939-1.746-1.396-2.914-1.396
		c-0.021,0-0.048,0-0.179,0.111c-1.462,1.12-3.279,2.242-5.88,2.242c-2.602,0-4.417-1.122-5.85-2.221
		c-0.158-0.132-0.185-0.132-0.204-0.132c-0.532,0-1.028,0.079-1.475,0.234c-0.393,0.136-0.819-0.071-0.955-0.462
		c-0.136-0.391,0.071-0.819,0.462-0.955c0.605-0.21,1.268-0.317,1.968-0.317c0.527,0,0.888,0.248,1.144,0.464
		c1.744,1.335,3.174,1.889,4.91,1.889s3.167-0.554,4.94-1.912c0.229-0.194,0.591-0.441,1.118-0.441c1.614,0,2.98,0.649,4.061,1.928
		c2.355,2.79,2.518,7.718,2.347,8.726c-0.441,2.603-1.527,3.738-1.649,3.859l-0.085,0.072C28.201,29.752,27.046,30.094,25.75,30.094
		z"/>
</g>
<g>
	<path d="M18.357,15.085c-3.993,0-7.242-3.25-7.242-7.246s3.249-7.246,7.242-7.246c3.997,0,7.248,3.25,7.248,7.246
		S22.354,15.085,18.357,15.085z M18.357,2.093c-3.166,0-5.742,2.578-5.742,5.746s2.576,5.746,5.742,5.746
		c3.17,0,5.748-2.578,5.748-5.746S21.527,2.093,18.357,2.093z"/>
</g>
<g>
	<path d="M11.35,27.212c-0.733,0-1.378,0.354-1.79,0.897l-4.754-2.695c0.165-0.313,0.265-0.663,0.265-1.038
		c0-0.351-0.085-0.676-0.226-0.97l4.766-2.704c0.414,0.507,1.033,0.834,1.738,0.834c1.244,0,2.251-1.007,2.251-2.253
		c0-1.243-1.009-2.252-2.251-2.252c-1.244,0-2.253,1.009-2.253,2.252c0,0.115,0.018,0.226,0.034,0.337l-5.067,2.876
		c-0.356-0.235-0.781-0.374-1.242-0.374c-1.245,0-2.252,1.008-2.252,2.251c0,1.244,1.007,2.254,2.252,2.254
		c0.425,0,0.819-0.126,1.157-0.331l5.146,2.917c-0.009,0.085-0.025,0.165-0.025,0.25c0,1.243,1.008,2.253,2.252,2.253
		s2.251-1.01,2.251-2.253C13.602,28.221,12.594,27.212,11.35,27.212z M11.35,18.053c0.68,0,1.231,0.553,1.231,1.232
		c0,0.679-0.55,1.23-1.231,1.23s-1.232-0.553-1.232-1.23C10.118,18.604,10.669,18.053,11.35,18.053z M2.82,25.604
		c-0.681,0-1.232-0.551-1.232-1.229s0.551-1.229,1.232-1.229c0.681,0,1.232,0.551,1.232,1.229C4.052,25.055,3.5,25.604,2.82,25.604z
		 M11.35,30.695c-0.681,0-1.232-0.551-1.232-1.231c0-0.683,0.551-1.231,1.232-1.231s1.231,0.553,1.231,1.231
		C12.58,30.143,12.03,30.695,11.35,30.695z"/>
</g>
</svg>
