<?xml version="1.0" encoding="utf-8"?>
<!-- Generator: Adobe Illustrator 15.1.0, SVG Export Plug-In . SVG Version: 6.00 Build 0)  -->
<!DOCTYPE svg PUBLIC "-//W3C//DTD SVG 1.1//EN" "http://www.w3.org/Graphics/SVG/1.1/DTD/svg11.dtd">
<svg version="1.1" id="Layer_1" xmlns="http://www.w3.org/2000/svg" xmlns:xlink="http://www.w3.org/1999/xlink" x="0px" y="0px"
	 width="32px" height="32px" viewBox="0 0 32 32" enable-background="new 0 0 32 32" xml:space="preserve">
<g>
	<path d="M23.77,30.943H8.982c-3.2,0-5.267-2.014-5.267-5.131c0-6.637,2.407-10.443,6.603-10.443c0.526,0,0.888,0.248,1.144,0.464
		c1.744,1.334,3.175,1.888,4.913,1.888c1.735,0,3.167-0.554,4.942-1.91c0.229-0.194,0.59-0.441,1.117-0.441
		c1.615,0,2.98,0.649,4.061,1.928c2.354,2.789,2.518,7.718,2.347,8.725c-0.441,2.603-1.527,3.738-1.649,3.859l-0.085,0.072
		C26.22,30.601,25.066,30.943,23.77,30.943z M10.318,16.869c-4.44,0-5.103,5.604-5.103,8.943c0,2.273,1.408,3.631,3.767,3.631H23.77
		c0.664,0,1.612-0.116,2.396-0.661c0.15-0.177,0.874-1.107,1.197-3.012c0.168-0.992-0.13-5.274-2.015-7.506
		c-0.792-0.938-1.745-1.396-2.914-1.396c-0.021,0-0.048,0-0.179,0.11c-1.463,1.12-3.281,2.241-5.881,2.241
		c-2.603,0-4.419-1.122-5.852-2.219C10.363,16.869,10.337,16.869,10.318,16.869z"/>
</g>
<g>
	<path d="M16.375,15.936c-3.996,0-7.246-3.25-7.246-7.246s3.25-7.246,7.246-7.246c3.996,0,7.247,3.25,7.247,7.246
		S20.371,15.936,16.375,15.936z M16.375,2.944c-3.168,0-5.746,2.578-5.746,5.746s2.578,5.746,5.746,5.746
		c3.169,0,5.747-2.578,5.747-5.746S19.544,2.944,16.375,2.944z"/>
</g>
</svg>
