<?xml version="1.0" encoding="utf-8"?>
<!-- Generator: Adobe Illustrator 15.1.0, SVG Export Plug-In . SVG Version: 6.00 Build 0)  -->
<!DOCTYPE svg PUBLIC "-//W3C//DTD SVG 1.1//EN" "http://www.w3.org/Graphics/SVG/1.1/DTD/svg11.dtd">
<svg version="1.1" id="Layer_1" xmlns="http://www.w3.org/2000/svg" xmlns:xlink="http://www.w3.org/1999/xlink" x="0px" y="0px"
	 width="32px" height="32px" viewBox="0 0 32 32" enable-background="new 0 0 32 32" xml:space="preserve">
<path fill="#010101" d="M6.614,19.367c-3.279,2.549-5.101,6.556-5.101,11.29c2.915,0,2.915,0,2.915,0
	c0-4.005,1.822-7.283,4.737-9.47C8.073,20.824,7.344,20.096,6.614,19.367L6.614,19.367z"/>
<path fill="#010101" d="M25.2,19.367c-0.729,0.729-1.457,1.457-2.186,1.82c2.914,2.187,4.736,5.465,4.736,9.47
	c2.916,0,2.916,0,2.916,0C30.667,25.923,28.481,21.916,25.2,19.367L25.2,19.367z"/>
<path fill="#010101" d="M16.09,4.433c2.915,0,5.831,2.55,5.831,5.828c0,2.914-2.916,5.828-5.831,5.828
	c-3.281,0-5.832-2.914-5.832-5.828C10.259,6.983,12.81,4.433,16.09,4.433 M16.09,1.52c-5.102,0-8.746,3.642-8.746,8.741
	c0,4.735,3.645,8.742,8.746,8.742c4.737,0,8.747-4.007,8.747-8.742C24.837,5.162,20.827,1.52,16.09,1.52L16.09,1.52z"/>
</svg>
