<?xml version="1.0" encoding="utf-8"?>
<!-- Generator: Adobe Illustrator 15.1.0, SVG Export Plug-In . SVG Version: 6.00 Build 0)  -->
<!DOCTYPE svg PUBLIC "-//W3C//DTD SVG 1.1//EN" "http://www.w3.org/Graphics/SVG/1.1/DTD/svg11.dtd">
<svg version="1.1" id="Layer_1" xmlns="http://www.w3.org/2000/svg" xmlns:xlink="http://www.w3.org/1999/xlink" x="0px" y="0px"
	 width="24px" height="24px" viewBox="0 0 32 32" enable-background="new 0 0 32 32" xml:space="preserve">
<g>
	<path fill="#050505" d="M26.537,29.307h-8.111L18.4,28.308c1.239-0.064,1.842-0.785,1.842-2.204c0-2.801-0.286-5.79-3.707-5.805
		l-0.187-0.662l-0.19-0.162c0.004-0.007,0.111-0.154,0.438-0.864c0.361-0.783,0.278-1.719,0.277-1.728l0.642-0.528
		c0.66,0.199,1.013,0.304,1.674,0.304c2.206,0,3.895-1.122,4.902-1.792c0.527-0.351,0.817-0.543,1.117-0.543
		c4.013,0,6.314,3.691,6.314,10.129C31.523,27.401,29.566,29.307,26.537,29.307z M20.589,28.307h5.948
		c2.459,0,3.986-1.477,3.986-3.854c0-3.409-0.69-9.129-5.314-9.129c-0.03,0.022-0.326,0.218-0.563,0.376
		c-1.03,0.685-2.948,1.959-5.456,1.959c-0.543,0-0.936-0.064-1.317-0.161c-0.029,0.439-0.122,1.001-0.367,1.531
		c-0.056,0.121-0.106,0.229-0.152,0.325c3.89,0.537,3.89,4.844,3.89,6.749C21.242,27.021,21.016,27.767,20.589,28.307z"/>
</g>
<g>
	<path fill="#050505" d="M18.894,15.548C18.894,15.548,18.894,15.548,18.894,15.548c-0.141,0-0.282-0.004-0.424-0.013
		c-0.918-0.056-1.482-0.285-2.179-0.604l-0.213-0.097l-0.061-0.227c-0.327-1.206-1.863-2.565-3.223-2.851l-0.231-0.048l-0.109-0.21
		c-0.591-1.135-0.584-2.093-0.511-3.323c0.229-3.807,3.495-6.762,7.363-6.525c3.828,0.23,6.755,3.532,6.524,7.36
		C25.609,12.677,22.563,15.548,18.894,15.548z M16.908,14.113c0.533,0.237,0.955,0.383,1.622,0.424
		c3.292,0.205,6.106-2.327,6.302-5.586c0.197-3.278-2.31-6.104-5.587-6.302c-3.31-0.198-6.107,2.329-6.304,5.587
		c-0.063,1.051-0.074,1.776,0.302,2.602C14.814,11.271,16.403,12.692,16.908,14.113z"/>
</g>
<g>
	<path fill="#050505" d="M0.158,24.914c0-0.066,0.046-0.127,0.111-0.141l0.703-0.105c0.039-0.127,0.092-0.256,0.158-0.375
		C1,24.111,0.857,23.941,0.726,23.764c-0.017-0.027-0.029-0.055-0.029-0.09c0-0.027,0.006-0.063,0.025-0.083
		c0.16-0.227,0.43-0.467,0.635-0.655c0.029-0.021,0.063-0.037,0.099-0.037c0.033,0,0.069,0.014,0.092,0.033l0.548,0.414
		c0.111-0.059,0.227-0.104,0.344-0.145l0.108-0.707c0.009-0.066,0.071-0.117,0.14-0.117h0.854c0.069,0,0.123,0.044,0.14,0.107
		c0.059,0.23,0.084,0.48,0.11,0.717c0.122,0.039,0.239,0.087,0.353,0.146l0.528-0.414c0.032-0.021,0.067-0.037,0.101-0.037
		c0.131,0,0.651,0.56,0.744,0.688c0.017,0.023,0.034,0.055,0.034,0.086c0,0.035-0.018,0.068-0.038,0.096
		c-0.144,0.174-0.281,0.346-0.412,0.527c0.062,0.117,0.108,0.23,0.149,0.354l0.715,0.107c0.058,0.012,0.104,0.08,0.104,0.141v0.854
		c0,0.065-0.047,0.127-0.111,0.14l-0.705,0.104c-0.037,0.129-0.09,0.258-0.158,0.379c0.133,0.183,0.273,0.353,0.406,0.526
		c0.018,0.025,0.029,0.058,0.029,0.091c0,0.028-0.006,0.061-0.027,0.086c-0.16,0.225-0.43,0.462-0.633,0.647
		c-0.03,0.023-0.063,0.043-0.098,0.043s-0.071-0.015-0.099-0.035l-0.541-0.412c-0.114,0.063-0.228,0.105-0.349,0.145l-0.105,0.709
		c-0.007,0.063-0.07,0.115-0.14,0.115H2.685c-0.07,0-0.123-0.044-0.139-0.105c-0.061-0.234-0.084-0.48-0.111-0.719
		c-0.119-0.039-0.24-0.088-0.35-0.146l-0.533,0.416c-0.031,0.017-0.066,0.033-0.1,0.033c-0.13,0-0.65-0.564-0.742-0.689
		c-0.023-0.025-0.035-0.053-0.035-0.088c0-0.032,0.018-0.069,0.039-0.096c0.141-0.176,0.279-0.344,0.412-0.531
		c-0.063-0.11-0.107-0.229-0.15-0.354l-0.711-0.105c-0.062-0.012-0.107-0.078-0.107-0.139V24.914z M2.129,25.328
		c0,0.545,0.44,0.984,0.981,0.984c0.545,0,0.986-0.439,0.986-0.984s-0.441-0.985-0.986-0.985C2.57,24.343,2.129,24.783,2.129,25.328
		z"/>
</g>
<g>
	<path fill="#050505" d="M15.47,29.607H6.617c-0.712,0-1.365-0.18-1.89-0.52l-0.187-0.62l0.063-0.145l0.294-0.272
		c0.141-0.049,0.281-0.102,0.411-0.171l0.417-0.026l0.653,0.253c0.181-0.166,0.385-0.356,0.545-0.536l-0.087-0.111
		c-0.118-0.15-0.235-0.301-0.348-0.458l-0.036-0.523c0.103-0.197,0.232-0.281,0.335-0.331l0.128-0.144l0.839-0.365v-0.721
		l-0.986-0.113l-0.417-0.341l0.026-0.464c0.029-0.056,0.065-0.104,0.109-0.146l0.002-0.045c0.071-0.101,0.14-0.248,0.214-0.396
		c0.077-0.155,0.155-0.314,0.242-0.455c-0.14-0.155-0.355-0.377-0.512-0.517l-0.566,0.439l-0.532,0.052
		c-0.134-0.068-0.274-0.128-0.417-0.172l-0.347-0.425c-0.018-0.173-0.028-0.271-0.042-0.368L4.618,21.6
		c0.68-0.94,1.623-1.418,2.801-1.418c0.24,0,0.443,0.136,0.781,0.359c0.589,0.392,1.574,1.046,2.845,1.046
		c1.269,0,2.255-0.654,2.844-1.046c0.338-0.224,0.542-0.359,0.782-0.359c2.545,0,4.005,2.297,4.005,6.303
		C18.676,28.353,17.388,29.607,15.47,29.607z M7.307,28.607h8.164c1.381,0,2.206-0.794,2.206-2.123c0-1.963-0.383-5.243-2.936-5.302
		c-0.074,0.039-0.173,0.109-0.298,0.191c-0.638,0.424-1.827,1.213-3.397,1.213c-1.572,0-2.76-0.789-3.398-1.213
		c-0.124-0.083-0.223-0.152-0.297-0.191c-0.327,0.007-0.624,0.063-0.892,0.171c0.542,0.022,1.416,1.155,1.424,1.167
		c0.05,0.074,0.146,0.219,0.146,0.421c0,0.155-0.055,0.304-0.162,0.44c-0.08,0.096-0.183,0.305-0.266,0.472
		c-0.006,0.013-0.012,0.025-0.019,0.038l0.585,0.067c0.345,0.063,0.588,0.363,0.588,0.688v1.193c0,0.309-0.203,0.578-0.492,0.667
		L7.59,26.8c0.011,0.015,0.022,0.029,0.034,0.043l0.234,0.305C7.941,27.283,8,27.405,8,27.574c0,0.156-0.046,0.302-0.135,0.422
		C7.711,28.205,7.507,28.415,7.307,28.607z"/>
</g>
<g>
	<path fill="#050505" d="M11.042,20.977c-2.42,0-4.389-1.969-4.389-4.389s1.969-4.389,4.389-4.389s4.389,1.969,4.389,4.389
		S13.462,20.977,11.042,20.977z M11.042,13.199c-1.869,0-3.389,1.52-3.389,3.389c0,1.868,1.521,3.389,3.389,3.389
		s3.389-1.521,3.389-3.389C14.431,14.719,12.911,13.199,11.042,13.199z"/>
</g>
</svg>
