<?xml version="1.0" encoding="utf-8"?>
<!-- Generator: Adobe Illustrator 15.1.0, SVG Export Plug-In . SVG Version: 6.00 Build 0)  -->
<!DOCTYPE svg PUBLIC "-//W3C//DTD SVG 1.1//EN" "http://www.w3.org/Graphics/SVG/1.1/DTD/svg11.dtd">
<svg version="1.1" id="Layer_1" xmlns="http://www.w3.org/2000/svg" xmlns:xlink="http://www.w3.org/1999/xlink" x="0px" y="0px"
	 width="32px" height="32px" viewBox="0 0 32 32" style="enable-background:new 0 0 32 32;" xml:space="preserve">
<path d="M9.396,8.126c0-3.854,3.129-6.984,6.984-6.984c3.856,0,6.985,3.13,6.985,6.984c0,3.856-3.129,6.984-6.985,6.984
	C12.524,15.11,9.396,11.982,9.396,8.126z"/>
<g>
	<path d="M22.894,16.114c-0.293,0-0.493,0.126-0.71,0.309c-1.782,1.364-3.511,2.22-5.804,2.22c-2.292,0-4.02-0.855-5.802-2.22
		c-0.218-0.182-0.418-0.309-0.709-0.309c-5.329,0-6.293,6.312-6.293,10.421c0,2.966,1.946,4.711,4.856,4.711h15.897
		c1.091,0,2.219-0.255,3.11-0.909c0,0,1.104-1.086,1.549-3.71C29.246,25.103,28.663,16.115,22.894,16.114z M23.675,22.071
		l-6.536,6.537l-1.227,1.228c-0.163,0.161-0.389,0.252-0.614,0.252c-0.226,0-0.452-0.091-0.614-0.252l-1.228-1.228l-3.269-3.27
		c-0.163-0.161-0.253-0.387-0.253-0.613s0.09-0.452,0.253-0.614l1.228-1.228c0.163-0.162,0.389-0.253,0.614-0.253
		s0.451,0.091,0.614,0.253l2.655,2.664l5.921-5.933c0.163-0.162,0.389-0.252,0.613-0.252c0.226,0,0.452,0.09,0.614,0.252
		l1.229,1.229c0.163,0.161,0.252,0.388,0.252,0.613S23.838,21.908,23.675,22.071z"/>
</g>
</svg>
