<?xml version="1.0" encoding="utf-8"?>
<!-- Generator: Adobe Illustrator 15.1.0, SVG Export Plug-In . SVG Version: 6.00 Build 0)  -->
<!DOCTYPE svg PUBLIC "-//W3C//DTD SVG 1.1//EN" "http://www.w3.org/Graphics/SVG/1.1/DTD/svg11.dtd">
<svg version="1.1" id="Layer_1" xmlns="http://www.w3.org/2000/svg" xmlns:xlink="http://www.w3.org/1999/xlink" x="0px" y="0px"
	 width="20px" height="20px" viewBox="0 0 20 20" enable-background="new 0 0 20 20" xml:space="preserve">
<g>
	<g>
		<rect x="1" y="2.592" fill="#010101" width="3.97" height="2.678"/>
		<path d="M5.57,5.87H0.4V1.992h5.17V5.87z M1.6,4.67h2.77V3.192H1.6V4.67z"/>
	</g>
	<g>
		<rect x="8.427" y="3.008" width="10.573" height="1.8"/>
	</g>
</g>
<g>
	<g>
		<rect x="1" y="8.482" fill="#010101" width="3.97" height="2.679"/>
		<path d="M5.57,11.761H0.4V7.882h5.17V11.761z M1.6,10.562h2.77V9.082H1.6V10.562z"/>
	</g>
	<g>
		<rect x="8.427" y="8.899" width="10.573" height="1.8"/>
	</g>
</g>
<g>
	<g>
		<rect x="1" y="14.372" fill="#010101" width="3.97" height="2.677"/>
		<path d="M5.57,17.648H0.4v-3.876h5.17V17.648z M1.6,16.449h2.77v-1.478H1.6V16.449z"/>
	</g>
	<g>
		<rect x="8.427" y="14.789" width="10.573" height="1.801"/>
	</g>
</g>
</svg>
