<?xml version="1.0" encoding="utf-8"?>
<!-- Generator: Adobe Illustrator 15.1.0, SVG Export Plug-In . SVG Version: 6.00 Build 0)  -->
<!DOCTYPE svg PUBLIC "-//W3C//DTD SVG 1.1//EN" "http://www.w3.org/Graphics/SVG/1.1/DTD/svg11.dtd">
<svg version="1.1" id="Layer_1" xmlns="http://www.w3.org/2000/svg" xmlns:xlink="http://www.w3.org/1999/xlink" x="0px" y="0px"
	 width="32px" height="32px" viewBox="0 0 32 32" enable-background="new 0 0 32 32" xml:space="preserve">
<path d="M9.003,26.573v1.712h19.964V12.311h-6.49c-0.822,0-1.498-0.671-1.498-1.497V4.321H9.003v2.613l-2,0.037V3.823
	c0-0.828,0.673-1.499,1.501-1.499h13.975c0.826,0,1.979,0.483,2.563,1.063l4.868,4.869c0.574,0.577,1.063,1.731,1.063,2.559v17.97
	c0,0.828-0.672,1.498-1.498,1.498H8.503c-0.828,0-1.5-0.67-1.5-1.498v-2.21L9.003,26.573z M27.241,20.781v1.001
	c0,0.28-0.218,0.499-0.5,0.499h-7.668c-0.282,0-0.5-0.219-0.5-0.499v-1.001c0-0.279,0.218-0.498,0.5-0.498h7.673
	C27.023,20.283,27.241,20.502,27.241,20.781z M27.241,16.802v1.001c0,0.28-0.169,0.499-0.388,0.499h-5.959
	c-0.225,0-0.395-0.219-0.395-0.499v-1.001c0-0.278,0.17-0.498,0.395-0.498h5.961C27.072,16.304,27.241,16.521,27.241,16.802z
	 M27.241,24.777v0.994c0,0.283-0.218,0.502-0.5,0.502h-9.74c-0.28,0-0.499-0.219-0.499-0.502v-0.994c0-0.281,0.217-0.5,0.499-0.5
	h9.74C27.023,24.275,27.241,24.498,27.241,24.777z M22.979,10.315h5.865c-0.097-0.266-0.234-0.531-0.348-0.64l-4.885-4.884
	c-0.105-0.108-0.373-0.25-0.641-0.342v5.866H22.979z"/>
<g>
	<polygon points="15.917,8.663 11.833,8.663 4.71,17.854 7.926,17.764 2.557,24.342 13.566,16.239 9.996,15.702 	"/>
</g>
<g>
	<path d="M1.9,21.917c-0.979-1.351-1.497-2.949-1.497-4.623c0-4.349,3.539-7.888,7.888-7.888v1.319
		c-3.622,0-6.568,2.947-6.568,6.568c0,1.395,0.431,2.726,1.246,3.85L1.9,21.917z"/>
</g>
<g>
	<path d="M8.292,25.181c-0.981,0-1.939-0.178-2.848-0.529l0.477-1.23c0.755,0.293,1.553,0.441,2.371,0.441
		c3.622,0,6.568-2.947,6.568-6.568c0-1.467-0.473-2.855-1.368-4.013l1.044-0.807c1.075,1.391,1.643,3.058,1.643,4.82
		C16.179,21.643,12.641,25.181,8.292,25.181z"/>
</g>
</svg>
