<?xml version="1.0" encoding="utf-8"?>
<!-- Generator: Adobe Illustrator 15.1.0, SVG Export Plug-In . SVG Version: 6.00 Build 0)  -->
<!DOCTYPE svg PUBLIC "-//W3C//DTD SVG 1.1//EN" "http://www.w3.org/Graphics/SVG/1.1/DTD/svg11.dtd">
<svg version="1.1" id="Layer_1" xmlns="http://www.w3.org/2000/svg" xmlns:xlink="http://www.w3.org/1999/xlink" x="0px" y="0px"
	 width="24px" height="24px" viewBox="0 0 32 32" enable-background="new 0 0 32 32" xml:space="preserve">
<path d="M30.857,27.221l-7.355-6.377c1.479-2.05,2.361-4.558,2.361-7.272c0-6.873-5.592-12.465-12.464-12.465
	c-6.874,0-12.465,5.592-12.465,12.465c0,6.872,5.591,12.465,12.465,12.465c2.598,0,5.011-0.8,7.008-2.166l7.763,6.722
	c0.151,0.136,0.346,0.209,0.547,0.209c0.026,0,0.053-0.001,0.08-0.005c0.229-0.021,0.438-0.142,0.574-0.327l1.594-2.166
	C31.213,27.97,31.166,27.5,30.857,27.221z M2.56,13.573c0-5.977,4.862-10.838,10.839-10.838c5.975,0,10.838,4.862,10.838,10.838
	c0,5.976-4.861,10.838-10.838,10.838C7.422,24.411,2.56,19.549,2.56,13.573z M28.595,28.784l-6.545-5.619l0.73-0.78l6.44,5.547
	L28.595,28.784z M20.559,12.231v2.547H6.43v-2.547H20.559z"/>
</svg>
