<?xml version="1.0" encoding="utf-8"?>
<!-- Generator: Adobe Illustrator 15.1.0, SVG Export Plug-In . SVG Version: 6.00 Build 0)  -->
<!DOCTYPE svg PUBLIC "-//W3C//DTD SVG 1.1//EN" "http://www.w3.org/Graphics/SVG/1.1/DTD/svg11.dtd">
<svg version="1.1" id="Layer_1" xmlns="http://www.w3.org/2000/svg" xmlns:xlink="http://www.w3.org/1999/xlink" x="0px" y="0px"
	 width="24px" height="24px" viewBox="0 0 32 32" enable-background="new 0 0 32 32" xml:space="preserve">
<path d="M20.837,31.73c-0.271,0-0.737-0.172-0.772-0.811c-0.015-0.016-0.309-0.8-3.604-4.587H3.684c-1.492,0-2.707-1.233-2.707-2.75
	V4.076c0-1.517,1.214-2.75,2.707-2.75h24.875c1.492,0,2.707,1.233,2.707,2.75v19.508c0,1.518-1.215,2.75-2.707,2.75h-4.572
	c-1.256,1.051-1.938,3.327-2.237,4.325C21.568,31.258,21.427,31.73,20.837,31.73z M3.684,2.826c-0.666,0-1.207,0.561-1.207,1.25
	v19.508c0,0.689,0.541,1.25,1.207,1.25h13.458l0.224,0.256c1.694,1.938,2.7,3.192,3.302,4.023c0.469-1.352,1.277-3.18,2.629-4.141
	l0.195-0.14h5.066c0.666,0,1.207-0.562,1.207-1.25V4.076c0-0.689-0.541-1.25-1.207-1.25H3.684z M27.348,5.504H20v1.5h7.348V5.504z
	 M27.348,8.947H20v1.5h7.348V8.947z M27.348,12.483h-7.431v1.5h7.431V12.483z M27.348,16.753h-7.431v1.5h7.431V16.753z
	 M27.348,20.977H4.344v1.5h23.003V20.977z M11.106,19.176c-4.121,0-7.474-3.354-7.474-7.475s3.353-7.473,7.474-7.473
	c4.119,0,7.473,3.352,7.473,7.473C18.579,15.823,15.228,19.176,11.106,19.176z M11.106,5.229c-3.569,0-6.474,2.903-6.474,6.473
	s2.904,6.474,6.474,6.474c3.568,0,6.473-2.903,6.473-6.474C17.579,8.133,14.675,5.229,11.106,5.229z M13.431,14.608
	c0-0.163-0.127-0.29-0.291-0.29h-0.871V9.67c0-0.164-0.127-0.291-0.291-0.291H9.073c-0.164,0-0.291,0.127-0.291,0.291v1.453
	c0,0.162,0.127,0.289,0.291,0.289h0.871v2.906H9.073c-0.164,0-0.291,0.127-0.291,0.29v1.452c0,0.164,0.127,0.291,0.291,0.291h4.066
	c0.164,0,0.291-0.127,0.291-0.291V14.608z M12.269,6.474c0-0.164-0.127-0.291-0.291-0.291h-1.742c-0.164,0-0.291,0.127-0.291,0.291
	v1.452c0,0.164,0.127,0.291,0.291,0.291h1.742c0.164,0,0.291-0.127,0.291-0.291V6.474z"/>
</svg>
