<?xml version="1.0" encoding="utf-8"?>
<!-- Generator: Adobe Illustrator 15.1.0, SVG Export Plug-In . SVG Version: 6.00 Build 0)  -->
<!DOCTYPE svg PUBLIC "-//W3C//DTD SVG 1.1//EN" "http://www.w3.org/Graphics/SVG/1.1/DTD/svg11.dtd">
<svg version="1.1" id="Layer_1" xmlns="http://www.w3.org/2000/svg" xmlns:xlink="http://www.w3.org/1999/xlink" x="0px" y="0px"
	 width="20px" height="20px" viewBox="0 0 20 20" enable-background="new 0 0 20 20" xml:space="preserve">
<g>
	<path fill="#010101" d="M7.866,3.625c-3.87,0-3.87,0-3.87,0C3.248,2.891,3.125,2.609,3,2.609c-1.75,0-1.75,0-1.75,0
		c-0.125,0-0.25,0-0.25,0.121c0,4.515,0,4.515,0,4.515C1,7.367,1.125,7.49,1.25,7.49c6.618,0,6.618,0,6.618,0
		s0.125-0.121,0.125-0.244c0-3.784,0-3.5,0-3.5C7.989,3.625,7.866,3.625,7.866,3.625L7.866,3.625z"/>
	<path fill="#010101" d="M8.059,7.961H1.25c-0.384,0-0.721-0.334-0.721-0.716V2.73c0-0.139,0.052-0.592,0.721-0.592H3
		c0.279,0,0.434,0.179,0.629,0.406C3.746,2.68,3.917,2.879,4.19,3.154h3.676c0.285,0,0.586,0.216,0.597,0.577l0,3.515
		c0,0.299-0.205,0.521-0.268,0.582L8.059,7.961z M1.471,7.02h6.052V4.096H3.864L3.667,3.961c-0.38-0.373-0.605-0.634-0.75-0.802
		C2.89,3.128,2.868,3.102,2.849,3.08H1.471V7.02z"/>
</g>
<g>
	<path fill="#010101" d="M18.875,3.625c-3.869,0-3.869,0-3.869,0c-0.748-0.733-0.873-1.016-0.998-1.016c-1.748,0-1.748,0-1.748,0
		c-0.124,0-0.25,0-0.25,0.122c0,4.515,0,4.515,0,4.515c0,0.121,0.126,0.244,0.25,0.244c6.615,0,6.615,0,6.615,0S19,7.369,19,7.246
		c0-3.784,0-3.5,0-3.5C18.998,3.625,18.875,3.625,18.875,3.625L18.875,3.625z"/>
	<path fill="#010101" d="M19.065,7.961H12.26c-0.384,0-0.721-0.334-0.721-0.715V2.731c0-0.139,0.052-0.593,0.721-0.593h1.748
		c0.279,0,0.435,0.18,0.631,0.407c0.117,0.136,0.289,0.334,0.562,0.609h3.675c0.288,0,0.59,0.219,0.596,0.584v3.508
		c0,0.299-0.205,0.521-0.269,0.582L19.065,7.961z M12.48,7.02h6.049V4.096h-3.655l-0.197-0.134c-0.38-0.372-0.604-0.632-0.751-0.801
		c-0.026-0.031-0.049-0.058-0.069-0.081H12.48V7.02z"/>
</g>
<g>
	<path fill="#010101" d="M7.866,12.729c-3.87,0-3.87,0-3.87,0c-0.748-0.729-0.871-1.013-0.997-1.013c-1.75,0-1.75,0-1.75,0
		c-0.124,0-0.249,0-0.249,0.12c0,4.516,0,4.516,0,4.516c0,0.123,0.125,0.244,0.249,0.244c6.618,0,6.618,0,6.618,0
		s0.125-0.123,0.125-0.244c0-3.783,0-3.5,0-3.5C7.989,12.729,7.866,12.729,7.866,12.729L7.866,12.729z"/>
	<path fill="#010101" d="M8.06,17.066H1.249c-0.383,0-0.72-0.334-0.72-0.715v-4.516c0-0.139,0.052-0.591,0.72-0.591h1.75
		c0.279,0,0.434,0.179,0.629,0.404c0.117,0.135,0.289,0.334,0.562,0.608h3.677c0.287,0,0.588,0.218,0.597,0.583v3.511
		c0,0.295-0.203,0.519-0.266,0.579L8.06,17.066z M1.471,16.125h6.051v-2.926H3.865l-0.198-0.134
		c-0.381-0.372-0.606-0.632-0.752-0.801c-0.026-0.029-0.048-0.056-0.067-0.078H1.471V16.125z"/>
</g>
<g>
	<path fill="#010101" d="M18.875,12.729c-3.869,0-3.869,0-3.869,0c-0.748-0.729-0.873-1.013-0.998-1.013c-1.748,0-1.748,0-1.748,0
		c-0.124,0-0.25,0-0.25,0.12c0,4.516,0,4.516,0,4.516c0,0.123,0.126,0.244,0.25,0.244c6.615,0,6.615,0,6.615,0S19,16.475,19,16.354
		c0-3.783,0-3.5,0-3.5C18.998,12.729,18.875,12.729,18.875,12.729L18.875,12.729z"/>
	<path fill="#010101" d="M19.065,17.066H12.26c-0.384,0-0.721-0.334-0.721-0.715v-4.516c0-0.139,0.052-0.591,0.721-0.591h1.748
		c0.278,0,0.434,0.179,0.629,0.404c0.117,0.136,0.289,0.334,0.563,0.608h3.676c0.288,0,0.59,0.22,0.596,0.588v3.508
		c0,0.297-0.205,0.52-0.269,0.58L19.065,17.066z M12.48,16.125h6.049v-2.926h-3.654l-0.198-0.134c-0.38-0.371-0.605-0.631-0.751-0.8
		c-0.026-0.03-0.049-0.057-0.068-0.079H12.48V16.125z"/>
</g>
</svg>
