<?xml version="1.0" encoding="utf-8"?>
<!-- Generator: Adobe Illustrator 15.1.0, SVG Export Plug-In . SVG Version: 6.00 Build 0)  -->
<!DOCTYPE svg PUBLIC "-//W3C//DTD SVG 1.1//EN" "http://www.w3.org/Graphics/SVG/1.1/DTD/svg11.dtd">
<svg version="1.1" id="Layer_1" xmlns="http://www.w3.org/2000/svg" xmlns:xlink="http://www.w3.org/1999/xlink" x="0px" y="0px"
	 width="24px" height="24px" viewBox="0 0 32 32" enable-background="new 0 0 32 32" xml:space="preserve">
<path d="M20.837,31.73c-0.271,0-0.737-0.171-0.773-0.81c-0.014-0.016-0.308-0.8-3.604-4.587H3.684c-1.492,0-2.707-1.233-2.707-2.75
	V4.076c0-1.517,1.214-2.75,2.707-2.75h24.875c1.492,0,2.706,1.233,2.706,2.75v19.508c0,1.517-1.214,2.75-2.706,2.75h-4.573
	c-1.255,1.051-1.938,3.327-2.237,4.325C21.568,31.258,21.427,31.73,20.837,31.73z M3.684,2.826c-0.666,0-1.207,0.561-1.207,1.25
	v19.508c0,0.689,0.541,1.25,1.207,1.25h13.458l0.224,0.256c1.694,1.938,2.701,3.192,3.302,4.023
	c0.469-1.351,1.277-3.179,2.629-4.141l0.195-0.139h5.067c0.665,0,1.206-0.561,1.206-1.25V4.076c0-0.689-0.541-1.25-1.206-1.25H3.684
	z M14.009,13.202H4.521V5.136h9.489V13.202z M6.021,11.702h6.489V6.636H6.021V11.702z M27.347,5.504H15.685v1.5h11.662V5.504z
	 M27.347,8.947H15.685v1.5h11.662V8.947z M27.347,12.483H15.685v1.5h11.662V12.483z M27.347,16.753H4.344v1.5h23.003V16.753z
	 M27.347,20.977H4.344v1.5h23.003V20.977z"/>
</svg>
