<?xml version="1.0" encoding="utf-8"?>
<!-- Generator: Adobe Illustrator 15.1.0, SVG Export Plug-In . SVG Version: 6.00 Build 0)  -->
<!DOCTYPE svg PUBLIC "-//W3C//DTD SVG 1.1//EN" "http://www.w3.org/Graphics/SVG/1.1/DTD/svg11.dtd">
<svg version="1.1" id="Layer_1" xmlns="http://www.w3.org/2000/svg" xmlns:xlink="http://www.w3.org/1999/xlink" x="0px" y="0px"
	 width="32px" height="32px" viewBox="0 0 32 32" enable-background="new 0 0 32 32" xml:space="preserve">
<g>
	<path fill="#010101" d="M13.301,14.147H2.454c-0.611,0-1.148-0.532-1.148-1.139V5.815c0-0.222,0.083-0.945,1.148-0.945h2.788
		c0.444,0,0.692,0.286,1.005,0.648c0.189,0.219,0.462,0.534,0.895,0.97h5.855c0.464,0,0.944,0.35,0.949,0.936l0,0
		c0,0.003,0,0.005,0,0.008v5.577c0,0.477-0.326,0.83-0.426,0.927L13.301,14.147z M2.806,12.647h9.64V7.988H6.623L6.308,7.774
		C5.704,7.182,5.349,6.771,5.113,6.5C5.071,6.451,5.034,6.407,5.002,6.37H2.806V12.647z"/>
</g>
<g>
	<path fill="#010101" d="M30.843,14.147H19.995c-0.611,0-1.147-0.532-1.147-1.139V5.815c0-0.222,0.083-0.945,1.147-0.945h2.787
		c0.444,0,0.692,0.286,1.006,0.648c0.189,0.219,0.462,0.534,0.895,0.969h5.854c0.464,0,0.943,0.35,0.947,0.936l0,0
		c0,0.003,0,0.005,0,0.008v5.577c0,0.475-0.323,0.829-0.423,0.925L30.843,14.147z M20.348,12.647h9.637V7.988h-5.821l-0.314-0.214
		C23.244,7.182,22.89,6.772,22.654,6.5c-0.043-0.05-0.08-0.093-0.112-0.13h-2.194V12.647z"/>
</g>
<g>
	<path fill="#010101" d="M13.302,28.656H2.454c-0.611,0-1.148-0.532-1.148-1.139v-7.193c0-0.222,0.083-0.943,1.148-0.943h2.788
		c0.444,0,0.691,0.285,1.004,0.647c0.189,0.219,0.462,0.533,0.896,0.97h5.855c0.464,0,0.944,0.35,0.949,0.936l0,0
		c0,0.003,0,0.005,0,0.008v5.576c0,0.475-0.326,0.829-0.426,0.926L13.302,28.656z M2.806,27.156h9.64v-4.658H6.624l-0.315-0.214
		c-0.605-0.592-0.961-1.003-1.196-1.274c-0.042-0.049-0.079-0.092-0.111-0.129H2.806V27.156z"/>
</g>
<g>
	<path fill="#010101" d="M30.844,28.656H19.995c-0.611,0-1.147-0.532-1.147-1.139v-7.193c0-0.222,0.083-0.943,1.147-0.943h2.787
		c0.444,0,0.691,0.286,1.005,0.647c0.189,0.219,0.463,0.534,0.895,0.97h5.855c0.464,0,0.943,0.35,0.947,0.936l0,0
		c0,0.003,0,0.005,0,0.008v5.576c0,0.474-0.323,0.827-0.422,0.924L30.844,28.656z M20.348,27.156h9.637v-4.658h-5.821l-0.314-0.214
		c-0.604-0.592-0.96-1.002-1.195-1.273c-0.043-0.05-0.079-0.093-0.111-0.13h-2.194V27.156z"/>
</g>
</svg>
