<?xml version="1.0" encoding="utf-8"?>
<!-- Generator: Adobe Illustrator 15.1.0, SVG Export Plug-In . SVG Version: 6.00 Build 0)  -->
<!DOCTYPE svg PUBLIC "-//W3C//DTD SVG 1.1//EN" "http://www.w3.org/Graphics/SVG/1.1/DTD/svg11.dtd">
<svg version="1.1" id="Layer_1" xmlns="http://www.w3.org/2000/svg" xmlns:xlink="http://www.w3.org/1999/xlink" x="0px" y="0px"
	 width="32px" height="32px" viewBox="0 0 32 32" enable-background="new 0 0 32 32" xml:space="preserve">
<g>
	<g>
		<polygon fill="#399649" points="-23.037,8.888 -27.121,8.888 -34.244,18.078 -31.028,17.988 -36.396,24.566 -25.388,16.464 
			-28.958,15.927 		"/>
	</g>
</g>
<g>
	<path fill="#399649" d="M-18.742,14.037h5.674c0.3,0,0.528,0.232,0.528,0.531v1.061c0,0.297-0.229,0.531-0.528,0.531h-5.674
		c-0.298,0-0.526-0.234-0.526-0.531v-1.061C-19.272,14.27-19.04,14.037-18.742,14.037z"/>
</g>
<g>
	<path fill="#399649" d="M-12.542,18.81v1.063c0,0.302-0.231,0.531-0.532,0.531h-7.231c-0.301,0-0.53-0.229-0.53-0.531V18.81
		c0-0.297,0.229-0.529,0.53-0.529h7.237C-12.774,18.28-12.542,18.513-12.542,18.81z"/>
</g>
<g>
	<path fill="#399649" d="M-12.542,23.054v1.057c0,0.301-0.231,0.531-0.532,0.531h-9.44c-0.301,0-0.533-0.23-0.533-0.531v-1.057
		c0-0.299,0.23-0.531,0.533-0.531h9.44C-12.774,22.521-12.542,22.757-12.542,23.054z"/>
</g>
<g>
	<g>
		<path fill="#399649" d="M-8.567,31.434h-23.221c-0.292,0-0.53-0.235-0.53-0.528v-2.646c0-0.293,0.237-0.529,0.53-0.529
			s0.53,0.236,0.53,0.529v2.116h22.162V10.39h-7.416c-0.293,0-0.529-0.237-0.529-0.53V2.758h-14.216v3.877
			c0,0.292-0.237,0.53-0.53,0.53s-0.53-0.237-0.53-0.53V2.229c0-0.292,0.237-0.53,0.53-0.53h15.275c0.293,0,0.528,0.237,0.528,0.53
			v7.102h7.417c0.293,0,0.529,0.237,0.529,0.53v21.044C-8.037,31.198-8.274,31.434-8.567,31.434z"/>
	</g>
</g>
<g>
	<g>
		<path fill="#399649" d="M-8.567,10.39c-0.132,0-0.265-0.049-0.367-0.147l-7.945-7.631c-0.211-0.203-0.219-0.538-0.016-0.749
			c0.202-0.211,0.539-0.217,0.75-0.015L-8.2,9.479c0.211,0.202,0.218,0.537,0.016,0.748C-8.288,10.335-8.429,10.39-8.567,10.39z"/>
	</g>
</g>
<g>
	<path fill="#399649" d="M-36.753,22.841c-0.111-0.125-0.218-0.255-0.32-0.387c-0.292-0.377-0.553-0.783-0.775-1.207
		c-0.601-1.147-0.919-2.443-0.919-3.747c0-4.458,3.627-8.086,8.086-8.086v1c-3.907,0-7.086,3.179-7.086,7.086
		c0,1.143,0.278,2.278,0.805,3.283c0.194,0.372,0.423,0.728,0.679,1.058c0.09,0.116,0.183,0.229,0.279,0.338L-36.753,22.841z"/>
</g>
<g>
	<path fill="#399649" d="M-30.681,25.588c-1.015,0-2.004-0.186-2.94-0.551l0.364-0.932c0.819,0.32,1.686,0.482,2.576,0.482
		c3.908,0,7.088-3.18,7.088-7.088c0-1.458-0.439-2.858-1.271-4.049l0.82-0.572c0.949,1.36,1.451,2.958,1.451,4.622
		C-22.593,21.96-26.222,25.588-30.681,25.588z"/>
</g>
<g>
	<g>
		<polygon fill="#929292" points="16.118,8.888 12.034,8.888 4.911,18.078 8.127,17.988 2.759,24.566 13.767,16.464 10.197,15.927 
					"/>
	</g>
</g>
<g>
	<path fill="#929292" d="M20.413,14.037h5.674c0.299,0,0.527,0.232,0.527,0.531v1.061c0,0.297-0.229,0.531-0.527,0.531h-5.674
		c-0.299,0-0.527-0.234-0.527-0.531v-1.061C19.882,14.27,20.114,14.037,20.413,14.037z"/>
</g>
<g>
	<path fill="#929292" d="M26.612,18.81v1.063c0,0.302-0.23,0.531-0.531,0.531h-7.232c-0.301,0-0.529-0.229-0.529-0.531V18.81
		c0-0.297,0.229-0.529,0.529-0.529h7.238C26.38,18.28,26.612,18.513,26.612,18.81z"/>
</g>
<g>
	<path fill="#929292" d="M26.612,23.054v1.057c0,0.301-0.23,0.531-0.531,0.531H16.64c-0.301,0-0.533-0.23-0.533-0.531v-1.057
		c0-0.299,0.23-0.531,0.533-0.531h9.441C26.38,22.521,26.612,22.757,26.612,23.054z"/>
</g>
<g>
	<g>
		<path fill="#929292" d="M30.587,31.434H7.366c-0.291,0-0.529-0.235-0.529-0.528v-2.646c0-0.293,0.236-0.529,0.529-0.529
			s0.53,0.236,0.53,0.529v2.116h22.161V10.39h-7.416c-0.293,0-0.529-0.237-0.529-0.53V2.758H7.896v3.877
			c0,0.292-0.237,0.53-0.53,0.53s-0.529-0.237-0.529-0.53V2.229c0-0.292,0.236-0.53,0.529-0.53h15.275
			c0.293,0,0.529,0.237,0.529,0.53v7.102h7.416c0.293,0,0.529,0.237,0.529,0.53v21.044C31.118,31.198,30.88,31.434,30.587,31.434z"
			/>
	</g>
</g>
<g>
	<g>
		<path fill="#929292" d="M30.587,10.39c-0.131,0-0.264-0.049-0.367-0.147l-7.945-7.631c-0.211-0.203-0.219-0.538-0.016-0.749
			s0.539-0.217,0.75-0.015l7.945,7.632c0.211,0.202,0.219,0.537,0.016,0.748C30.866,10.335,30.726,10.39,30.587,10.39z"/>
	</g>
</g>
<g>
	<path fill="#929292" d="M2.401,22.841c-0.11-0.125-0.217-0.255-0.32-0.387c-0.292-0.377-0.553-0.783-0.774-1.207
		C0.706,20.1,0.388,18.804,0.388,17.5c0-4.458,3.627-8.086,8.086-8.086v1c-3.907,0-7.086,3.179-7.086,7.086
		c0,1.143,0.278,2.278,0.805,3.283c0.194,0.372,0.423,0.728,0.68,1.058c0.09,0.116,0.183,0.229,0.279,0.338L2.401,22.841z"/>
</g>
<g>
	<path fill="#929292" d="M8.474,25.588c-1.016,0-2.004-0.186-2.94-0.551l0.364-0.932c0.819,0.32,1.686,0.482,2.576,0.482
		c3.908,0,7.088-3.18,7.088-7.088c0-1.458-0.439-2.858-1.271-4.049l0.82-0.572c0.948,1.36,1.45,2.958,1.45,4.622
		C16.562,21.96,12.933,25.588,8.474,25.588z"/>
</g>
</svg>
