<?xml version="1.0" encoding="utf-8"?>
<!-- Generator: Adobe Illustrator 15.1.0, SVG Export Plug-In . SVG Version: 6.00 Build 0)  -->
<!DOCTYPE svg PUBLIC "-//W3C//DTD SVG 1.1//EN" "http://www.w3.org/Graphics/SVG/1.1/DTD/svg11.dtd">
<svg version="1.1" id="Layer_1" xmlns="http://www.w3.org/2000/svg" xmlns:xlink="http://www.w3.org/1999/xlink" x="0px" y="0px"
	 width="32px" height="32px" viewBox="0 0 32 32" style="enable-background:new 0 0 32 32;" xml:space="preserve">
<style type="text/css">
<![CDATA[
	.st0{fill:#010101;}
]]>
</style>
<g>
	<path class="st0" d="M10.01,2.221c-6.515,0-6.515,0-6.515,0c-1.001,0-2.004,1.002-2.004,2.003c0,6.509,0,6.509,0,6.509
		c0,1.502,1.003,2.503,2.004,2.503c6.515,0,6.515,0,6.515,0c1.003,0,2.004-1.001,2.004-2.503c0-6.509,0-6.509,0-6.509
		C12.015,3.223,11.014,2.221,10.01,2.221L10.01,2.221z"/>
	<path class="st0" d="M28.402,2.221c-6.514,0-6.514,0-6.514,0c-1.003,0-2.004,1.002-2.004,2.003c0,6.509,0,6.509,0,6.509
		c0,1.502,1.001,2.503,2.004,2.503c6.514,0,6.514,0,6.514,0c1.006,0,2.007-1.001,2.007-2.503c0-6.509,0-6.509,0-6.509
		C30.409,3.223,29.408,2.221,28.402,2.221L28.402,2.221z"/>
	<path class="st0" d="M10.01,19.32c-6.515,0-6.515,0-6.515,0c-1.001,0-2.004,1.002-2.004,2.003c0,6.511,0,6.511,0,6.511
		c0,1.501,1.003,2.503,2.004,2.503c6.515,0,6.515,0,6.515,0c1.003,0,2.004-1.002,2.004-2.503c0-6.511,0-6.511,0-6.511
		C12.015,20.322,11.014,19.32,10.01,19.32L10.01,19.32z"/>
	<path class="st0" d="M28.402,19.32c-6.514,0-6.514,0-6.514,0c-1.003,0-2.004,1.002-2.004,2.003c0,6.511,0,6.511,0,6.511
		c0,1.501,1.001,2.503,2.004,2.503c6.514,0,6.514,0,6.514,0c1.006,0,2.007-1.002,2.007-2.503c0-6.511,0-6.511,0-6.511
		C30.409,20.322,29.408,19.32,28.402,19.32L28.402,19.32z"/>
</g>
</svg>
