<?xml version="1.0" encoding="utf-8"?>
<!-- Generator: Adobe Illustrator 15.1.0, SVG Export Plug-In . SVG Version: 6.00 Build 0)  -->
<!DOCTYPE svg PUBLIC "-//W3C//DTD SVG 1.1//EN" "http://www.w3.org/Graphics/SVG/1.1/DTD/svg11.dtd">
<svg version="1.1" id="Layer_1" xmlns="http://www.w3.org/2000/svg" xmlns:xlink="http://www.w3.org/1999/xlink" x="0px" y="0px"
	 width="32px" height="32px" viewBox="0 0 32 32" enable-background="new 0 0 32 32" xml:space="preserve">
<path fill="#010101" d="M16.051,13.312c1.795,0,3.077,1.272,3.077,3.053c0,1.525-1.282,3.052-3.077,3.052s-3.077-1.526-3.077-3.052
	C12.974,14.584,14.256,13.312,16.051,13.312L16.051,13.312z"/>
<path fill="#010101" d="M30.925,15.094c-2.308-2.036-8.206-7.125-14.874-7.125c-6.924,0-12.565,5.089-14.874,7.125
	c-0.769,0.763-0.769,1.781,0,2.288c2.309,2.289,7.949,7.123,14.874,7.123c6.668,0,12.566-4.834,14.874-7.123
	C31.693,16.875,31.693,15.856,30.925,15.094L30.925,15.094z M16.051,22.216c-3.333,0-5.898-2.799-5.898-5.851
	c0-3.308,2.564-5.853,5.898-5.853c3.334,0,5.898,2.545,5.898,5.853C21.949,19.417,19.385,22.216,16.051,22.216L16.051,22.216z"/>
</svg>
