<?xml version="1.0" encoding="utf-8"?>
<!-- Generator: Adobe Illustrator 15.1.0, SVG Export Plug-In . SVG Version: 6.00 Build 0)  -->
<!DOCTYPE svg PUBLIC "-//W3C//DTD SVG 1.1//EN" "http://www.w3.org/Graphics/SVG/1.1/DTD/svg11.dtd">
<svg version="1.1" id="Layer_1" xmlns="http://www.w3.org/2000/svg" xmlns:xlink="http://www.w3.org/1999/xlink" x="0px" y="0px"
	 width="20px" height="20px" viewBox="0 0 20 20" enable-background="new 0 0 20 20" xml:space="preserve">
<path d="M4.442,14.254v3.621h12.715V7.704h-4.134c-0.524,0-0.954-0.428-0.954-0.953V2.615H4.442v3.973L3.169,6.611V2.299
	c0-0.527,0.428-0.954,0.956-0.954h8.902c0.526,0,1.261,0.306,1.632,0.675l3.098,3.101c0.365,0.368,0.677,1.103,0.677,1.63v11.443
	c0,0.527-0.429,0.955-0.955,0.955H4.124c-0.527,0-0.956-0.428-0.956-0.955v-3.939H4.442L4.442,14.254z"/>
<path d="M11.924,9.313h3.225c0.179,0,0.315,0.14,0.315,0.319v0.636c0,0.179-0.137,0.318-0.315,0.318h-3.225
	c-0.18,0-0.316-0.139-0.316-0.318V9.633C11.607,9.454,11.746,9.313,11.924,9.313z"/>
<path d="M15.462,12.172v0.639c0,0.18-0.137,0.318-0.316,0.318h-4.163c-0.182,0-0.318-0.139-0.318-0.318v-0.639
	c0-0.178,0.138-0.316,0.318-0.316h4.163C15.325,11.854,15.462,11.996,15.462,12.172z"/>
<path d="M15.462,14.719v0.633c0,0.182-0.137,0.318-0.316,0.318H9.663c-0.18,0-0.319-0.139-0.319-0.318v-0.633
	c0-0.182,0.138-0.318,0.319-0.318h5.483C15.325,14.398,15.462,14.539,15.462,14.719z"/>
<path d="M13.345,6.433h3.734c-0.062-0.17-0.149-0.338-0.22-0.407l-3.11-3.11c-0.07-0.069-0.238-0.16-0.404-0.217V6.433z"/>
<g>
	<path d="M9.945,10.867c-0.99,1.625-2.797,2.721-4.705,2.721c-1.904,0-3.714-1.1-4.701-2.721c-0.065-0.113-0.107-0.238-0.107-0.371
		c0-0.134,0.042-0.258,0.107-0.371c0.989-1.622,2.796-2.722,4.701-2.722c1.905,0,3.716,1.1,4.704,2.722
		c0.063,0.113,0.105,0.237,0.105,0.371C10.051,10.629,10.006,10.754,9.945,10.867z M7.321,8.603
		c0.213,0.365,0.327,0.782,0.327,1.206c0,1.329-1.08,2.406-2.406,2.406c-1.325,0-2.405-1.077-2.405-2.405
		c0-0.424,0.112-0.842,0.327-1.206c-0.838,0.427-1.537,1.106-2.047,1.893c0.918,1.417,2.398,2.406,4.123,2.406
		c1.724,0,3.205-0.986,4.124-2.406C8.854,9.707,8.157,9.031,7.321,8.603z M5.241,8.177c-0.896,0-1.633,0.735-1.633,1.633
		c0,0.139,0.119,0.258,0.259,0.258c0.137,0,0.257-0.119,0.257-0.258c0-0.612,0.503-1.117,1.116-1.117
		c0.139,0,0.258-0.118,0.258-0.256C5.5,8.296,5.381,8.177,5.241,8.177z"/>
</g>
</svg>
