<?xml version="1.0" encoding="utf-8"?>
<!-- Generator: Adobe Illustrator 15.1.0, SVG Export Plug-In . SVG Version: 6.00 Build 0)  -->
<!DOCTYPE svg PUBLIC "-//W3C//DTD SVG 1.1//EN" "http://www.w3.org/Graphics/SVG/1.1/DTD/svg11.dtd">
<svg version="1.1" id="Layer_1" xmlns="http://www.w3.org/2000/svg" xmlns:xlink="http://www.w3.org/1999/xlink" x="0px" y="0px"
	 width="24px" height="24px" viewBox="0 0 32 32" enable-background="new 0 0 32 32" xml:space="preserve">
<path d="M30.867,4.314L0.75,26.359l0.101-2.719L30.867,1.596V4.314z M27.348,10.447v-1.5h-0.981l-2.077,1.5H27.348z M15.685,7.004
	H21.9l2.076-1.5h-8.292V7.004z M27.348,13.983v-1.5h-5.879l-2.076,1.5H27.348z M27.348,18.253v-1.5H15.556l-2.078,1.5H27.348z
	 M15.685,10.447h1.446l2.077-1.5h-3.523V10.447z M20.837,31.73c0.59,0,0.731-0.474,0.911-1.071c0.3-0.998,0.982-3.274,2.236-4.325
	h4.574c1.491,0,2.705-1.232,2.705-2.75V5.409l-1.5,1.083v17.091c0,0.688-0.541,1.25-1.205,1.25h-5.067l-0.195,0.14
	c-1.353,0.961-2.159,2.789-2.629,4.141c-0.601-0.831-1.606-2.086-3.302-4.023l-0.225-0.256H4.365l-1.759,1.27
	c0.331,0.146,0.694,0.23,1.077,0.23H16.46c3.296,3.787,3.59,4.571,3.604,4.587C20.1,31.561,20.566,31.73,20.837,31.73z M4.854,5.472
	v7.316h9.045V5.472H4.854z M12.622,11.664L12.622,11.664H6.133h0V6.597h0h6.488h0V11.664z M6.133,6.597v5.066h0L6.133,6.597
	L6.133,6.597z M12.621,11.664L12.621,11.664l0-5.066h0V11.664z M2.477,4.076c0-0.689,0.541-1.25,1.207-1.25h24.001l1.822-1.316
	c-0.297-0.114-0.613-0.184-0.949-0.184H3.684c-1.492,0-2.707,1.233-2.707,2.75v18.037l1.5-1.083V4.076z M4.344,16.753v1.5h1.978
	l2.077-1.5H4.344z M27.348,22.477v-1.5H9.707l-2.077,1.5H27.348z"/>
</svg>
