<?xml version="1.0" encoding="utf-8"?>
<!-- Generator: Adobe Illustrator 15.1.0, SVG Export Plug-In . SVG Version: 6.00 Build 0)  -->
<!DOCTYPE svg PUBLIC "-//W3C//DTD SVG 1.1//EN" "http://www.w3.org/Graphics/SVG/1.1/DTD/svg11.dtd">
<svg version="1.1" id="Layer_1" xmlns="http://www.w3.org/2000/svg" xmlns:xlink="http://www.w3.org/1999/xlink" x="0px" y="0px"
	 width="32px" height="32px" viewBox="0 0 32 32" enable-background="new 0 0 32 32" xml:space="preserve">
<g>
</g>
<g>
</g>
<path fill="#020202" d="M5.233,9.775c-0.36-2.63,0.361-7.516,3.604-8.643c0.721,0,3.964-0.376,4.686,5.261
	c0.359,4.133-1.442,9.019-1.442,9.019c-5.045,0.375-5.045,0.375-5.045,0.375S5.233,12.03,5.233,9.775L5.233,9.775z"/>
<path fill="#020202" d="M17.848,25.724c-0.722,1.88-1.443,4.884,0.72,5.636c3.604,0.753,3.965-4.508,3.965-4.508L17.848,25.724z"/>
<path fill="#020202" d="M25.775,18.584c0.359-3.007,0.359-7.893-2.884-9.021c-0.72-0.375-3.963-1.127-5.044,4.51
	c-1.082,4.135,0.359,9.02,0.359,9.02c5.046,1.128,5.046,1.128,5.046,1.128S25.416,20.463,25.775,18.584L25.775,18.584z"/>
<path fill="#020202" d="M12.442,18.208c0.359,2.255,0.719,4.885-1.442,5.261c-3.604,0.752-3.604-4.885-3.604-4.885L12.442,18.208z"
	/>
</svg>
