<?xml version="1.0" encoding="utf-8"?>
<!-- Generator: Adobe Illustrator 15.1.0, SVG Export Plug-In . SVG Version: 6.00 Build 0)  -->
<!DOCTYPE svg PUBLIC "-//W3C//DTD SVG 1.1//EN" "http://www.w3.org/Graphics/SVG/1.1/DTD/svg11.dtd">
<svg version="1.1" id="Layer_1" xmlns="http://www.w3.org/2000/svg" xmlns:xlink="http://www.w3.org/1999/xlink" x="0px" y="0px"
	 width="20px" height="20px" viewBox="0 0 20 20" enable-background="new 0 0 20 20" xml:space="preserve">
<g>
	<path fill="#020202" stroke="#020202" stroke-width="1.2603" stroke-miterlimit="10" d="M2.922,6.339
		C2.699,4.714,3.145,1.699,5.147,1.002c0.444,0,2.448-0.231,2.894,3.25C8.263,6.804,7.15,9.821,7.15,9.821
		c-3.115,0.232-3.115,0.232-3.115,0.232S2.922,7.731,2.922,6.339L2.922,6.339z"/>
	<path fill="#020202" stroke="#020202" stroke-width="1.2603" stroke-miterlimit="10" d="M12.143,15.475
		c-0.447,1.158-0.893,3.016,0.444,3.48c2.225,0.465,2.445-2.785,2.445-2.785L12.143,15.475z"/>
	<path fill="#020202" stroke="#020202" stroke-width="1.2603" stroke-miterlimit="10" d="M17.034,10.351
		c0.222-1.859,0.222-4.876-1.781-5.571c-0.443-0.231-2.446-0.697-3.114,2.785c-0.667,2.554,0.222,5.568,0.222,5.568
		c3.117,0.699,3.117,0.699,3.117,0.699S16.813,11.512,17.034,10.351L17.034,10.351z"/>
	<path fill="#020202" stroke="#020202" stroke-width="1.2603" stroke-miterlimit="10" d="M7.374,12.262
		c0.222,1.391,0.444,3.016-0.891,3.246c-2.227,0.467-2.227-3.016-2.227-3.016L7.374,12.262z"/>
</g>
</svg>
