<?xml version="1.0" encoding="utf-8"?>
<!-- Generator: Adobe Illustrator 15.1.0, SVG Export Plug-In . SVG Version: 6.00 Build 0)  -->
<!DOCTYPE svg PUBLIC "-//W3C//DTD SVG 1.1//EN" "http://www.w3.org/Graphics/SVG/1.1/DTD/svg11.dtd">
<svg version="1.1" id="Layer_1" xmlns="http://www.w3.org/2000/svg" xmlns:xlink="http://www.w3.org/1999/xlink" x="0px" y="0px"
	 width="32px" height="32px" viewBox="0 0 32 32" enable-background="new 0 0 32 32" xml:space="preserve">
<g>
	<path d="M9.486,26.418v0.798h19.131V11.911h-6.219c-0.791,0-1.438-0.643-1.438-1.435V4.257H9.486v1.375L7.571,5.667V3.78
		c0-0.793,0.644-1.436,1.437-1.436H22.4c0.791,0,1.896,0.463,2.451,1.017l4.664,4.664c0.551,0.553,1.017,1.659,1.017,2.451v17.219
		c0,0.793-0.644,1.436-1.437,1.436H9.007c-0.793,0-1.437-0.643-1.437-1.436V26.42L9.486,26.418z M19.468,13.823h4.847
		c0.271,0,0.479,0.21,0.479,0.478v0.958c0,0.269-0.208,0.479-0.479,0.479h-4.847c-0.269,0-0.479-0.21-0.479-0.479v-0.958
		C18.989,14.033,19.199,13.823,19.468,13.823z M24.79,18.127v0.959c0,0.27-0.208,0.479-0.478,0.479H18.05
		c-0.271,0-0.479-0.209-0.479-0.479v-0.959c0-0.268,0.209-0.477,0.479-0.477h6.265C24.582,17.65,24.79,17.859,24.79,18.127z
		 M24.79,21.956v0.954c0,0.271-0.208,0.48-0.478,0.48h-8.25c-0.271,0-0.479-0.209-0.479-0.48v-0.954
		c0-0.271,0.208-0.479,0.479-0.479h8.25C24.582,21.477,24.79,21.688,24.79,21.956z M22.879,9.998h5.619
		c-0.089-0.254-0.225-0.508-0.329-0.612l-4.679-4.68c-0.104-0.104-0.358-0.239-0.611-0.328V9.998z"/>
</g>
<g>
	<path d="M7.784,19.348l-1.875,5.676H3.5L9.657,6.977h2.785l6.164,18.046h-2.49l-1.931-5.676H7.784L7.784,19.348z M13.728,17.523
		l-1.794-5.192c-0.401-1.177-0.669-2.249-0.936-3.293h-0.055c-0.267,1.044-0.535,2.169-0.911,3.267l-1.767,5.218H13.728z"/>
</g>
</svg>
