<?xml version="1.0" encoding="utf-8"?>
<!-- Generator: Adobe Illustrator 15.1.0, SVG Export Plug-In . SVG Version: 6.00 Build 0)  -->
<!DOCTYPE svg PUBLIC "-//W3C//DTD SVG 1.1//EN" "http://www.w3.org/Graphics/SVG/1.1/DTD/svg11.dtd">
<svg version="1.1" id="Layer_1" xmlns="http://www.w3.org/2000/svg" xmlns:xlink="http://www.w3.org/1999/xlink" x="0px" y="0px"
	 width="20px" height="20px" viewBox="0 0 20 20" enable-background="new 0 0 20 20" xml:space="preserve">
<g>
	<path d="M4.85,17.088v0.529h12.694V7.462h-4.125c-0.524,0-0.955-0.427-0.955-0.954V2.383H4.85v0.911L3.58,3.32V2.067
		c0-0.526,0.427-0.953,0.953-0.953h8.886c0.524,0,1.261,0.308,1.629,0.673l3.093,3.095c0.366,0.366,0.676,1.1,0.676,1.626v11.426
		c0,0.522-0.428,0.95-0.955,0.95H4.53c-0.525,0-0.952-0.428-0.952-0.95v-0.849H4.85V17.088z"/>
</g>
<g>
	<path d="M11.473,8.731h3.217c0.182,0,0.317,0.138,0.317,0.317v0.635c0,0.179-0.137,0.319-0.317,0.319h-3.217
		c-0.179,0-0.314-0.139-0.314-0.319V9.048C11.157,8.87,11.294,8.731,11.473,8.731z"/>
</g>
<g>
	<path d="M15.003,11.586v0.637c0,0.182-0.137,0.314-0.313,0.314h-4.155c-0.18,0-0.318-0.135-0.318-0.314v-0.637
		c0-0.178,0.138-0.314,0.318-0.314h4.155C14.868,11.271,15.003,11.408,15.003,11.586z"/>
</g>
<g>
	<path d="M15.003,14.125v0.635c0,0.182-0.137,0.316-0.313,0.316H9.212c-0.181,0-0.319-0.137-0.319-0.316v-0.635
		c0-0.178,0.136-0.316,0.319-0.316h5.476C14.868,13.809,15.003,13.949,15.003,14.125z"/>
</g>
<g>
	<path d="M13.736,6.192h3.728c-0.057-0.168-0.147-0.337-0.219-0.406l-3.104-3.105c-0.07-0.07-0.238-0.159-0.404-0.217V6.192z"/>
</g>
<g>
	<path d="M7.625,12.207c0,2.021-1.384,3.658-3.405,3.658s-3.404-1.637-3.404-3.658c0-2.022,3.417-7.503,3.417-7.503
		S7.625,10.185,7.625,12.207z"/>
</g>
<g>
	<path fill="#FFFFFF" d="M4.75,14.861c-1.704,0-2.988-1.359-2.988-3.162c0-0.355,0.288-0.643,0.643-0.643s0.643,0.287,0.643,0.643
		c0,1.088,0.716,1.877,1.703,1.877c0.355,0,0.643,0.287,0.643,0.643S5.105,14.861,4.75,14.861z"/>
</g>
</svg>
