<?xml version="1.0" encoding="utf-8"?>
<!-- Generator: Adobe Illustrator 15.1.0, SVG Export Plug-In . SVG Version: 6.00 Build 0)  -->
<!DOCTYPE svg PUBLIC "-//W3C//DTD SVG 1.1//EN" "http://www.w3.org/Graphics/SVG/1.1/DTD/svg11.dtd">
<svg version="1.1" id="Layer_1" xmlns="http://www.w3.org/2000/svg" xmlns:xlink="http://www.w3.org/1999/xlink" x="0px" y="0px"
	 width="20px" height="20px" viewBox="0 0 20 20" enable-background="new 0 0 20 20" xml:space="preserve">
<path d="M4.547,17.113v0.531h12.739V7.453h-4.144c-0.524,0-0.957-0.429-0.957-0.957v-4.14h-7.64v0.916L3.272,3.296V2.039
	c0-0.528,0.429-0.956,0.958-0.956h8.918c0.524,0,1.262,0.309,1.631,0.677l3.104,3.105c0.367,0.369,0.679,1.104,0.679,1.633v11.466
	c0,0.526-0.43,0.954-0.957,0.954H4.228c-0.527,0-0.957-0.428-0.957-0.954v-0.851H4.547z"/>
<path d="M11.191,8.727h3.229c0.183,0,0.318,0.141,0.318,0.318v0.638c0,0.179-0.14,0.319-0.318,0.319h-3.229
	c-0.178,0-0.316-0.141-0.316-0.319V9.045C10.875,8.867,11.016,8.727,11.191,8.727z"/>
<path d="M14.736,11.592v0.639c0,0.181-0.139,0.319-0.316,0.319h-4.17c-0.179,0-0.319-0.14-0.319-0.319v-0.639
	c0-0.178,0.141-0.316,0.319-0.316h4.171C14.6,11.273,14.736,11.414,14.736,11.592z"/>
<path d="M14.736,14.143v0.635c0,0.183-0.139,0.32-0.316,0.32H8.926c-0.181,0-0.319-0.141-0.319-0.32v-0.635
	c0-0.181,0.139-0.319,0.319-0.319h5.494C14.6,13.822,14.736,13.963,14.736,14.143z"/>
<path d="M13.465,6.18h3.741c-0.06-0.169-0.147-0.338-0.22-0.408l-3.114-3.116c-0.069-0.069-0.238-0.16-0.407-0.219V6.18z"/>
<g>
	<path d="M3.414,12.406l-1.249,3.777H0.561l4.1-12.017h1.854l4.105,12.017H8.961l-1.286-3.777H3.414L3.414,12.406z M7.372,11.189
		L6.178,7.732C5.911,6.949,5.731,6.234,5.554,5.539H5.517C5.339,6.234,5.161,6.984,4.911,7.716l-1.177,3.474H7.372z"/>
</g>
</svg>
