<?xml version="1.0" encoding="utf-8"?>
<!-- Generator: Adobe Illustrator 15.1.0, SVG Export Plug-In . SVG Version: 6.00 Build 0)  -->
<!DOCTYPE svg PUBLIC "-//W3C//DTD SVG 1.1//EN" "http://www.w3.org/Graphics/SVG/1.1/DTD/svg11.dtd">
<svg version="1.1" id="Layer_1" xmlns="http://www.w3.org/2000/svg" xmlns:xlink="http://www.w3.org/1999/xlink" x="0px" y="0px"
	 width="20px" height="20px" viewBox="0 0 20 20" enable-background="new 0 0 20 20" xml:space="preserve">
<path fill="#010101" d="M10.48,1.039c-0.226-0.229-0.672-0.229-0.896,0C2.646,5.131,2.197,5.586,2.197,5.586
	c0,0.226,0,0.226,0,0.226c0,8.188,0,8.188,0,8.188c0,0.227,0.224,0.683,0.45,0.683c6.938,4.095,6.938,4.095,6.938,4.095
	c0.245,0.102,0.774,0.137,0.897,0c6.938-4.095,6.938-4.095,6.938-4.095c0.222-0.163,0.447-0.456,0.447-0.683
	c0-8.188,0-8.188,0-8.188c0-0.226,0-0.226,0-0.226C17.866,5.357,10.48,1.039,10.48,1.039z M15.794,13.184l-4.513-2.904
	c4.497-2.584,4.513-2.592,4.513-2.592V13.184z M9.869,3.229c5.284,3.03,5.284,3.03,5.284,3.03L9.869,9.291
	C5.504,6.727,5.504,6.727,5.504,6.727C4.585,6.26,4.585,6.26,4.585,6.26C9.869,3.229,9.869,3.229,9.869,3.229z M8.156,10.246
	l-4.45,2.544c0-5.101,0-5.101,0-5.101C6.215,9.13,7.496,9.868,8.156,10.246z M4.407,14.232l4.446-2.542v5.096
	C6.347,15.348,5.067,14.611,4.407,14.232z M10.643,11.773l4.116,2.647c-4.104,2.358-4.116,2.363-4.116,2.363
	C10.643,14.132,10.643,12.628,10.643,11.773z"/>
</svg>
