<?xml version="1.0" encoding="utf-8"?>
<!-- Generator: Adobe Illustrator 15.1.0, SVG Export Plug-In . SVG Version: 6.00 Build 0)  -->
<!DOCTYPE svg PUBLIC "-//W3C//DTD SVG 1.1//EN" "http://www.w3.org/Graphics/SVG/1.1/DTD/svg11.dtd">
<svg version="1.1" id="Layer_1" xmlns="http://www.w3.org/2000/svg" xmlns:xlink="http://www.w3.org/1999/xlink" x="0px" y="0px"
	 width="32px" height="32px" viewBox="0 0 32 32" enable-background="new 0 0 32 32" xml:space="preserve">
<path fill="#010101" d="M16.516,1.135c-0.372-0.378-1.112-0.378-1.483,0C3.537,7.916,2.795,8.67,2.795,8.67c0,0.376,0,0.376,0,0.376
	c0,13.562,0,13.562,0,13.562c0,0.377,0.371,1.132,0.742,1.132c11.495,6.78,11.495,6.78,11.495,6.78c0.406,0.168,1.281,0.23,1.483,0
	c11.494-6.78,11.494-6.78,11.494-6.78c0.365-0.271,0.741-0.755,0.741-1.132c0-13.562,0-13.562,0-13.562c0-0.376,0-0.376,0-0.376
	C28.751,8.293,16.516,1.135,16.516,1.135z M25.785,20.785l-7.473-4.81c7.452-4.28,7.473-4.292,7.473-4.292V20.785z M15.973,4.296
	c8.751,5.021,8.751,5.021,8.751,5.021l-8.751,5.02c-7.23-4.249-7.23-4.249-7.23-4.249C7.221,9.317,7.221,9.317,7.221,9.317
	C15.973,4.296,15.973,4.296,15.973,4.296z M13.136,15.919l-7.373,4.214c0-8.447,0-8.449,0-8.449
	C9.921,14.073,12.044,15.292,13.136,15.919z M6.926,22.523l7.365-4.211v8.439C10.141,24.369,8.02,23.151,6.926,22.523z
	 M17.257,18.45l6.817,4.388c-6.805,3.906-6.817,3.913-6.817,3.913C17.257,22.359,17.257,19.867,17.257,18.45z"/>
</svg>
