<?xml version="1.0" encoding="utf-8"?>
<!-- Generator: Adobe Illustrator 15.1.0, SVG Export Plug-In . SVG Version: 6.00 Build 0)  -->
<!DOCTYPE svg PUBLIC "-//W3C//DTD SVG 1.1//EN" "http://www.w3.org/Graphics/SVG/1.1/DTD/svg11.dtd">
<svg version="1.1" id="Layer_1" xmlns="http://www.w3.org/2000/svg" xmlns:xlink="http://www.w3.org/1999/xlink" x="0px" y="0px"
	 width="20px" height="20px" viewBox="0 0 20 20" enable-background="new 0 0 20 20" xml:space="preserve">
<path d="M13.066,9.746c4.982-5.007,4.982-5.007,4.982-5.007c1.049-1.055,1.049-2.373,0-3.163c-0.787-1.055-2.1-1.055-3.146,0
	C9.921,6.585,9.921,6.585,9.921,6.585C4.939,1.578,4.939,1.578,4.939,1.578c-1.048-1.054-2.357-1.054-3.146,0
	c-1.048,0.791-1.048,2.108,0,3.163c4.982,5.008,4.982,5.008,4.982,5.008c-4.982,5.27-4.982,5.27-4.982,5.27
	c-1.048,0.791-1.048,2.109,0,3.164c1.213,1.217,2.624,0.263,3.146,0c4.982-5.271,4.982-5.271,4.982-5.271
	c4.981,5.271,4.981,5.271,4.981,5.271c0.523,0.263,1.898,1.217,3.408,0c1.025-0.826,0.785-2.373,0-3.164L13.066,9.746z"/>
</svg>
