<?xml version="1.0" encoding="utf-8"?>
<!-- Generator: Adobe Illustrator 15.1.0, SVG Export Plug-In . SVG Version: 6.00 Build 0)  -->
<!DOCTYPE svg PUBLIC "-//W3C//DTD SVG 1.1//EN" "http://www.w3.org/Graphics/SVG/1.1/DTD/svg11.dtd">
<svg version="1.1" id="Layer_1" xmlns="http://www.w3.org/2000/svg" xmlns:xlink="http://www.w3.org/1999/xlink" x="0px" y="0px"
	 width="21px" height="21px" viewBox="0 0 32 32" enable-background="new 0 0 32 32" xml:space="preserve">
<path d="M21.318,15.77c8.377-8.42,8.377-8.42,8.377-8.42c1.765-1.772,1.765-3.988,0-5.318c-1.322-1.772-3.526-1.772-5.291,0
	c-8.375,8.42-8.375,8.42-8.375,8.42c-8.376-8.42-8.376-8.42-8.376-8.42c-1.764-1.772-3.968-1.772-5.291,0
	c-1.764,1.33-1.764,3.546,0,5.318c8.376,8.42,8.376,8.42,8.376,8.42c-8.376,8.863-8.376,8.863-8.376,8.863
	c-1.764,1.331-1.764,3.547,0,5.319c2.038,2.048,4.409,0.442,5.291,0c8.376-8.864,8.376-8.864,8.376-8.864
	c8.375,8.864,8.375,8.864,8.375,8.864c0.882,0.442,3.191,2.048,5.731,0c1.724-1.388,1.322-3.988,0-5.319L21.318,15.77z"/>
</svg>
