<?xml version="1.0" encoding="utf-8"?>
<!-- Generator: Adobe Illustrator 15.1.0, SVG Export Plug-In . SVG Version: 6.00 Build 0)  -->
<!DOCTYPE svg PUBLIC "-//W3C//DTD SVG 1.1//EN" "http://www.w3.org/Graphics/SVG/1.1/DTD/svg11.dtd">
<svg version="1.1" id="Layer_1" xmlns="http://www.w3.org/2000/svg" xmlns:xlink="http://www.w3.org/1999/xlink" x="0px" y="0px"
	 width="20px" height="20px" viewBox="0 0 20 20" enable-background="new 0 0 20 20" xml:space="preserve">
<path d="M7.591,10.67c0,5.765,0,5.765,0,5.765c0,1.311,1.056,2.357,2.374,2.357c1.319,0,2.11-1.049,2.11-2.357
	c0-5.765,0-5.765,0-5.765c6.333-6.026,6.333-6.026,6.333-6.026c0.79-0.785,0.79-2.358,0-3.143c-1.055-0.786-2.375-0.786-3.166,0
	C9.966,6.74,9.966,6.74,9.966,6.74C4.956,1.5,4.956,1.5,4.956,1.5c-1.055-0.786-2.373-0.786-3.165,0
	c-1.055,1.047-1.055,2.358,0,3.143L7.591,10.67z"/>
</svg>
