<?xml version="1.0" encoding="utf-8"?>
<!-- Generator: Adobe Illustrator 15.1.0, SVG Export Plug-In . SVG Version: 6.00 Build 0)  -->
<!DOCTYPE svg PUBLIC "-//W3C//DTD SVG 1.1//EN" "http://www.w3.org/Graphics/SVG/1.1/DTD/svg11.dtd">
<svg version="1.1" id="Layer_1" xmlns="http://www.w3.org/2000/svg" xmlns:xlink="http://www.w3.org/1999/xlink" x="0px" y="0px"
	 width="21px" height="21px" viewBox="0 0 32 32" enable-background="new 0 0 32 32" xml:space="preserve">
<path d="M12.112,17.518c0,9.697,0,9.697,0,9.697c0,2.203,1.775,3.967,3.993,3.967c2.221,0,3.552-1.764,3.552-3.967
	c0-9.697,0-9.697,0-9.697c10.649-10.14,10.649-10.14,10.649-10.14c1.329-1.322,1.329-3.967,0-5.289
	c-1.774-1.322-3.994-1.322-5.324,0c-8.876,8.815-8.876,8.815-8.876,8.815c-8.43-8.815-8.43-8.815-8.43-8.815
	c-1.775-1.322-3.994-1.322-5.325,0c-1.775,1.763-1.775,3.967,0,5.289L12.112,17.518z"/>
</svg>
