<?xml version="1.0" encoding="utf-8"?>
<!-- Generator: Adobe Illustrator 15.1.0, SVG Export Plug-In . SVG Version: 6.00 Build 0)  -->
<!DOCTYPE svg PUBLIC "-//W3C//DTD SVG 1.1//EN" "http://www.w3.org/Graphics/SVG/1.1/DTD/svg11.dtd">
<svg version="1.1" id="Layer_1" xmlns="http://www.w3.org/2000/svg" xmlns:xlink="http://www.w3.org/1999/xlink" x="0px" y="0px"
	 width="21px" height="21px" viewBox="0 0 16 16" enable-background="new 0 0 16 16" xml:space="preserve">
<path d="M14.904,2.236C14.688,1.33,13.673,1,13.466,1C2.972,1,2.972,1,2.972,1C1.942,1,1.12,1.824,1.12,2.853
	C1.12,3.677,1.942,4.5,2.972,4.5c6.174,0,6.174,0,6.174,0c-7.409,7.617-7.409,7.617-7.409,7.617c-0.205,0.207-0.65,0.674-0.549,1.58
	c0.068,0.601,0.548,1.096,0.96,1.303c0.205,0,11.316,0,11.316,0c0.823,0,1.646-0.822,1.646-1.646c0-1.028-0.823-1.854-1.646-1.854
	c-6.378,0-6.378,0-6.378,0c7.409-7.411,7.409-7.411,7.409-7.411C14.702,3.882,15.132,3.17,14.904,2.236z"/>
</svg>
