<?xml version="1.0" encoding="utf-8"?>
<!-- Generator: Adobe Illustrator 15.1.0, SVG Export Plug-In . SVG Version: 6.00 Build 0)  -->
<!DOCTYPE svg PUBLIC "-//W3C//DTD SVG 1.1//EN" "http://www.w3.org/Graphics/SVG/1.1/DTD/svg11.dtd">
<svg version="1.1" id="Layer_1" xmlns="http://www.w3.org/2000/svg" xmlns:xlink="http://www.w3.org/1999/xlink" x="0px" y="0px"
	 width="32px" height="32px" viewBox="0 0 32 32" enable-background="new 0 0 32 32" xml:space="preserve">
<g>
</g>
<path d="M29.905,3.956c-0.453-1.884-2.567-2.571-2.997-2.571c-21.827,0-21.827,0-21.827,0c-2.14,0-3.852,1.714-3.852,3.854
	c0,1.714,1.712,3.426,3.852,3.426c12.842,0,12.842,0,12.842,0C2.513,24.508,2.513,24.508,2.513,24.508
	c-0.428,0.432-1.355,1.403-1.141,3.289c0.142,1.246,1.141,2.277,1.996,2.707c0.428,0,23.54,0,23.54,0
	c1.713,0,3.426-1.711,3.426-3.424c0-2.141-1.713-3.855-3.426-3.855c-13.267,0-13.267,0-13.267,0
	C29.051,7.809,29.051,7.809,29.051,7.809C29.478,7.381,30.373,5.9,29.905,3.956z"/>
</svg>
