<svg width="57" height="59" viewBox="0 0 57 59" fill="none" xmlns="http://www.w3.org/2000/svg">
<mask id="path-1-outside-1" maskUnits="userSpaceOnUse" x="0" y="0" width="57" height="59" fill="black">
<rect fill="white" width="57" height="59"/>
<path d="M52 32.7601H32.0042V54H24.8978V32.7601H5V26.0917H24.8978V5H32.0042V26.0917H52V32.7601Z"/>
</mask>
<path d="M52 32.7601H32.0042V54H24.8978V32.7601H5V26.0917H24.8978V5H32.0042V26.0917H52V32.7601Z" fill="#828282" fill-opacity="0.1"/>
<path d="M52 32.7601V37.7601H57V32.7601H52ZM32.0042 32.7601V27.7601H27.0042V32.7601H32.0042ZM32.0042 54V59H37.0042V54H32.0042ZM24.8978 54H19.8978V59H24.8978V54ZM24.8978 32.7601H29.8978V27.7601H24.8978V32.7601ZM5 32.7601H0V37.7601H5V32.7601ZM5 26.0917V21.0917H0V26.0917H5ZM24.8978 26.0917V31.0917H29.8978V26.0917H24.8978ZM24.8978 5V0H19.8978V5H24.8978ZM32.0042 5H37.0042V0H32.0042V5ZM32.0042 26.0917H27.0042V31.0917H32.0042V26.0917ZM52 26.0917H57V21.0917H52V26.0917ZM52 27.7601H32.0042V37.7601H52V27.7601ZM27.0042 32.7601V54H37.0042V32.7601H27.0042ZM32.0042 49H24.8978V59H32.0042V49ZM29.8978 54V32.7601H19.8978V54H29.8978ZM24.8978 27.7601H5V37.7601H24.8978V27.7601ZM10 32.7601V26.0917H0V32.7601H10ZM5 31.0917H24.8978V21.0917H5V31.0917ZM29.8978 26.0917V5H19.8978V26.0917H29.8978ZM24.8978 10H32.0042V0H24.8978V10ZM27.0042 5V26.0917H37.0042V5H27.0042ZM32.0042 31.0917H52V21.0917H32.0042V31.0917ZM47 26.0917V32.7601H57V26.0917H47Z" fill="#F2F3F5" mask="url(#path-1-outside-1)"/>
</svg>
