<?xml version="1.0" encoding="utf-8"?>
<!-- Generator: Adobe Illustrator 15.1.0, SVG Export Plug-In . SVG Version: 6.00 Build 0)  -->
<!DOCTYPE svg PUBLIC "-//W3C//DTD SVG 1.1//EN" "http://www.w3.org/Graphics/SVG/1.1/DTD/svg11.dtd">
<svg version="1.1" id="Layer_1" xmlns="http://www.w3.org/2000/svg" xmlns:xlink="http://www.w3.org/1999/xlink" x="0px" y="0px"
	 width="24px" height="24px" viewBox="0 0 32 32" enable-background="new 0 0 32 32" xml:space="preserve">
<path fill="#EC1C24" d="M28.438,29.663H3.625c-0.992,0-1.921-0.532-2.425-1.388c-0.506-0.867-0.52-1.935-0.037-2.788L13.564,2.756
	c0.482-0.906,1.429-1.473,2.467-1.473c1.029,0,1.976,0.565,2.469,1.475l12.405,22.739c0.477,0.855,0.46,1.923-0.048,2.78
	C30.354,29.131,29.426,29.663,28.438,29.663z M16.031,2.783c-0.482,0-0.921,0.263-1.146,0.685L2.474,26.216
	c-0.227,0.401-0.217,0.896,0.02,1.301c0.234,0.397,0.668,0.646,1.131,0.646h24.813c0.46,0,0.893-0.249,1.128-0.649
	c0.238-0.4,0.248-0.896,0.026-1.292L17.183,3.475C16.95,3.047,16.51,2.783,16.031,2.783z M18.356,10.79
	c0-0.1-0.051-0.227-0.165-0.309c-0.093-0.082-0.239-0.176-0.385-0.176h-3.556c-0.142,0-0.288,0.094-0.386,0.176
	c-0.113,0.082-0.161,0.243-0.161,0.339l0.273,7.382c0,0.21,0.245,0.373,0.551,0.373h2.986c0.292,0,0.532-0.163,0.552-0.373
	L18.356,10.79z M18.099,21.176c0-0.294-0.228-0.533-0.518-0.533H14.48c-0.29,0-0.518,0.239-0.518,0.533v3.066
	c0,0.291,0.228,0.536,0.518,0.536h3.101c0.29,0,0.518-0.245,0.518-0.536V21.176z"/>
</svg>
