<?xml version="1.0" encoding="utf-8"?>
<!-- Generator: Adobe Illustrator 15.1.0, SVG Export Plug-In . SVG Version: 6.00 Build 0)  -->
<!DOCTYPE svg PUBLIC "-//W3C//DTD SVG 1.1//EN" "http://www.w3.org/Graphics/SVG/1.1/DTD/svg11.dtd">
<svg version="1.1" id="Layer_1" xmlns="http://www.w3.org/2000/svg" xmlns:xlink="http://www.w3.org/1999/xlink" x="0px" y="0px"
	 width="24px" height="24px" viewBox="0 0 24 24" enable-background="new 0 0 24 24" xml:space="preserve">
<title>files 00</title>
<desc>Created using Figma</desc>
<g>
	<path d="M4.387,3.871c-1.657,0-3,1.343-3,3V21c0,1.656,1.343,3,3,3h11.355c1.656,0,3-1.344,3-3V10.939l-7.527-7.068H4.387z
		 M16.742,21c0,0.553-0.447,1-1,1H4.387c-0.552,0-1-0.447-1-1V6.871c0-0.552,0.448-1,1-1h6.036l6.319,5.934V21z"/>
	<path d="M9.441,9.208v2.506c0,0.552,0.448,1,1,1h2.721c0.553,0,1-0.448,1-1s-0.447-1-1-1h-1.721V9.208c0-0.552-0.448-1-1-1
		S9.441,8.655,9.441,9.208z"/>
	<path d="M15.861,0H6.355v2h8.717l5.541,5.165v9.964c0,0.2-0.059,0.387-0.16,0.543h2.111c0.031-0.176,0.049-0.357,0.049-0.543V6.294
		L15.861,0z"/>
</g>
<rect fill="none" width="24" height="24"/>
</svg>
