<svg width="35" height="34" viewBox="0 0 35 34" fill="none" xmlns="http://www.w3.org/2000/svg">
<path d="M28.3906 13.6927L28.332 13.4805Z" fill="#070707" fill-opacity="0.1"/>
<path d="M12.6909 28.4161C12.6909 28.0096 12.969 27.6483 13.3567 27.5399L13.2906 27.4511L13.2605 27.1063C13.2605 27.1033 13.262 27.0988 13.262 27.0958C11.4241 27.0838 6.80436 27.0702 6.80436 27.0702V25.7906V25.5813V2.08059H18.9938V8.85529C18.9938 9.71643 19.6836 10.415 20.5207 10.415H27.1271V13.3748C27.8815 13.5901 28.5683 13.9469 29.165 14.4226V8.85529C29.165 7.99114 28.6675 6.78826 28.0799 6.18606L23.1311 1.10804C22.536 0.504339 21.3638 0 20.5207 0H6.29641C5.45482 0 4.76953 0.698548 4.76953 1.5627V25.5873V25.8342V27.5926C4.76953 28.4568 5.45332 29.1568 6.2949 29.1568H12.6909V28.4161ZM21.0226 2.21608C21.2961 2.31093 21.5682 2.45997 21.6733 2.57288L26.6477 7.66746C26.7604 7.77887 26.9032 8.05588 27.0024 8.33289H21.0316H21.0226V2.21608V2.21608Z" fill="#CACACA"/>
<path d="M16.1189 32.7213C15.7161 32.7213 15.3675 32.4623 15.2502 32.0784C15.2487 32.0694 15.2457 32.0588 15.2427 32.0483L15.2157 32.0634L14.8114 32.1718C14.3741 32.1718 13.8992 31.7051 13.6212 31.3829H2.61446V30.1047V29.8924V6.38873H4.59519H5.61711V4.30664H2.1035C1.26041 4.30664 0.578125 5.00669 0.578125 5.87085V29.897V30.1439V31.9023C0.578125 32.7664 1.26191 33.465 2.1035 33.465H16.6884V32.7213H16.1189Z" fill="#CACACA"/>
<path d="M9.14948 18.1857H19.5476C19.6227 18.1857 19.6918 18.1691 19.7549 18.1405C19.8151 17.7235 19.9112 17.323 20.0555 16.9391V16.6215C20.0555 16.3279 19.8361 16.1006 19.5476 16.1006H9.15399C8.86394 16.1006 8.64453 16.3294 8.64453 16.6215V17.6648C8.64453 17.9554 8.86244 18.1857 9.14948 18.1857Z" fill="#CACACA"/>
<path d="M9.15249 14.0171H21.665C21.9506 14.0171 22.1715 13.7898 22.1715 13.4962V12.4589C22.1715 12.1639 21.9521 11.9365 21.665 11.9365H9.15249C8.86545 11.9365 8.64453 12.1654 8.64453 12.4589V13.4977C8.64453 13.7883 8.86545 14.0201 9.15249 14.0171Z" fill="#CACACA"/>
<path d="M19.2395 21.8279V20.7846C19.2395 20.494 19.002 20.2637 18.6985 20.2637H9.18705C8.88048 20.2637 8.64453 20.494 8.64453 20.7846V21.8279C8.64453 22.1214 8.88048 22.3503 9.18705 22.3503H18.697C19.0005 22.3488 19.2395 22.1199 19.2395 21.8279Z" fill="#CACACA"/>
<path d="M25.5354 13.8789C22.7176 13.8789 20.4258 16.1597 20.4258 18.9629C20.4258 21.7647 22.7176 24.047 25.5354 24.047C28.3502 24.047 30.642 21.7647 30.642 18.9629C30.6435 16.1597 28.3502 13.8789 25.5354 13.8789ZM25.5354 22.8863C23.3593 22.8863 21.589 21.1248 21.589 18.9645C21.589 16.7996 23.3593 15.0396 25.5354 15.0396C27.71 15.0396 29.4788 16.8011 29.4788 18.9645C29.4788 21.1248 27.707 22.8863 25.5354 22.8863Z" fill="#CACACA"/>
<path d="M29.9186 23.084C29.6375 23.084 29.4001 23.2406 29.0108 23.4965C28.4157 23.8924 27.4584 24.4826 26.2577 24.6422V24.6708C26.2201 24.6949 26.0473 24.7189 25.4191 24.7009C24.9667 24.6858 24.7849 24.6738 24.7143 24.6647V24.6452C23.512 24.4871 22.5547 23.8954 21.9641 23.498C21.5688 23.2406 21.3329 23.087 21.0564 23.087C20.2328 23.087 19.5235 23.3203 18.9088 23.7223V23.7208C18.6218 23.8518 17.678 24.3335 17.6344 25.0396C17.6194 25.2835 17.7021 25.6358 18.18 25.9279L18.4475 26.0904L19.4634 25.2504C19.6813 25.413 20.1111 25.8511 20.32 26.095C20.1066 26.3599 19.8977 26.6204 19.6963 26.8959L19.5265 27.1277L19.6663 27.3791C19.7624 27.5553 19.8316 27.7254 19.8962 27.9121L19.9864 28.1695L21.2788 28.3637V29.4748L19.9803 29.666L19.8962 29.94C19.8331 30.1477 19.7534 30.3329 19.6617 30.4925L19.516 30.7454L19.6843 30.9818C19.8256 31.179 19.9728 31.3672 20.1201 31.5539L20.2959 31.7827C20.0765 32.0477 19.7639 32.3337 19.5039 32.5701L19.4724 32.6002L18.4339 31.8083L18.2957 31.8836C18.1875 31.9122 17.9966 32.0251 17.6615 32.2976C17.6615 32.2976 17.8027 32.9781 18.1078 33.2837C18.4129 33.5893 19.1508 34.0003 20.1246 34.0003H24.7158H26.2562H30.8503C33.0805 34.0003 34.5803 32.5505 34.5803 30.3871C34.5788 25.7442 32.8791 23.084 29.9186 23.084ZM30.8473 32.8426H26.2532V32.8546H24.7128V32.8426H20.5349C20.7483 32.6363 20.9542 32.424 21.106 32.2133C21.2006 32.0989 21.2487 31.9483 21.2487 31.7797C21.2487 31.6201 21.1931 31.459 21.1075 31.3567L20.8294 30.9983C20.7453 30.893 20.6626 30.7846 20.58 30.6777C20.61 30.6129 20.6371 30.5482 20.6641 30.4805L21.6365 30.3359C21.9506 30.2637 22.179 29.9776 22.179 29.6554V28.1891C22.179 27.8654 21.9506 27.5718 21.6214 27.5026L20.6506 27.3566C20.6311 27.3069 20.61 27.2587 20.5875 27.209C20.7303 27.0223 20.876 26.8417 21.0233 26.6595L21.127 26.5301C21.2307 26.3931 21.2848 26.244 21.2848 26.0935C21.2848 25.9504 21.2367 25.8074 21.1405 25.6764C21.1315 25.6644 20.4522 24.8168 19.8917 24.469C20.2073 24.3305 20.5634 24.2492 20.9707 24.2417C21.0609 24.2854 21.1736 24.3682 21.3149 24.4615C21.9806 24.9026 23.1618 25.6779 24.7128 25.8345C24.7128 25.8345 24.9006 25.8902 25.5093 25.8992C26.1194 25.9053 26.2517 25.8345 26.2517 25.8345C27.8011 25.6779 28.9808 24.9026 29.651 24.4615C29.7968 24.3667 29.911 24.2854 29.9967 24.2417C32.9678 24.3125 33.4126 28.1108 33.4126 30.3856C33.4156 31.9227 32.4568 32.8426 30.8473 32.8426Z" fill="#CACACA"/>
<path d="M19.5904 28.2429L18.836 28.13C18.7909 28.0005 18.7413 27.8831 18.6782 27.7581C18.8164 27.5669 18.9607 27.3878 19.1125 27.2041C19.1335 27.1725 19.1501 27.1394 19.1501 27.1062C19.1501 27.0716 19.135 27.0355 19.1185 27.0114C19.0208 26.8759 18.4678 26.2888 18.331 26.2888C18.2949 26.2888 18.2589 26.3068 18.2258 26.3279L17.6683 26.763C17.545 26.6998 17.4218 26.6501 17.2941 26.6079C17.267 26.358 17.2415 26.093 17.1768 25.8522C17.1573 25.7844 17.1017 25.7393 17.0296 25.7393H16.1234C16.0482 25.7393 15.9836 25.7935 15.9731 25.8642L15.8604 26.6079C15.7356 26.6516 15.6124 26.6983 15.4952 26.7615L14.9166 26.3264C14.8895 26.3038 14.852 26.2918 14.8174 26.2918C14.7813 26.2918 14.7438 26.3113 14.7152 26.3294C14.4958 26.5296 14.2133 26.7796 14.0419 27.0189C14.0239 27.0415 14.0149 27.0791 14.0149 27.1093C14.0149 27.1424 14.0284 27.174 14.0449 27.2041C14.1847 27.3908 14.335 27.5684 14.4748 27.7611C14.4056 27.8876 14.347 28.0231 14.3064 28.1571L13.5655 28.267C13.4964 28.2835 13.4453 28.3483 13.4453 28.419V29.3133C13.4453 29.378 13.4964 29.4473 13.5595 29.4593L14.3094 29.5707C14.3575 29.7032 14.4041 29.8267 14.4687 29.9426C14.3275 30.1398 14.1847 30.3159 14.0344 30.5011C14.0119 30.5297 13.9923 30.5704 13.9923 30.6035C13.9923 30.6366 14.0059 30.6682 14.0284 30.6953C14.1276 30.8263 14.6776 31.421 14.8129 31.421C14.852 31.421 14.888 31.4014 14.9196 31.3864L15.4847 30.9498C15.5989 31.0085 15.7281 31.0597 15.8528 31.1018C15.8844 31.3547 15.9054 31.6167 15.9701 31.8606C15.9896 31.9253 16.0452 31.9705 16.1203 31.9705H17.022C17.0972 31.9705 17.1648 31.9163 17.1723 31.85L17.285 31.1018C17.4098 31.0612 17.533 31.016 17.6532 30.9498L18.2243 31.3833C18.2559 31.4044 18.2934 31.421 18.3295 31.421C18.3626 31.421 18.4031 31.3969 18.4332 31.3743C18.6481 31.1771 18.9321 30.9272 19.102 30.6938C19.123 30.6652 19.129 30.6321 19.129 30.6005C19.129 30.5689 19.12 30.5312 19.0975 30.5056C18.9592 30.322 18.8119 30.1428 18.6706 29.9501C18.7443 29.8237 18.7999 29.6851 18.839 29.5497L19.5829 29.4413C19.649 29.4262 19.7001 29.3615 19.7001 29.2937V28.3919C19.6986 28.3272 19.652 28.2564 19.5904 28.2429ZM16.5667 29.8839C15.9926 29.8839 15.5297 29.4217 15.5297 28.8481C15.5297 28.2715 15.9971 27.8123 16.5667 27.8123C17.1438 27.8123 17.6097 28.2745 17.6097 28.8481C17.6097 29.4217 17.1438 29.8839 16.5667 29.8839Z" fill="#CACACA"/>
</svg>
