<svg width="17" height="18" viewBox="0 0 17 18" fill="none" xmlns="http://www.w3.org/2000/svg">
<path d="M14.1397 1.88064V0H11.143V1.88064H5.85686V5.9967e-05H2.86014V1.88064H0V18H17V1.88064H14.1397ZM12.0366 0.91974H13.2462V4.29612H12.0366V0.91974ZM3.75367 0.91974H4.96321V4.29612H3.75367V0.91974ZM16.1064 17.0803H0.893531V5.82162H16.1065V17.0803H16.1064ZM4.43355 13.6841H2.27306V15.9079H4.43361V13.6841H4.43355ZM7.86474 13.684H5.70413V15.9079H7.86474V13.684ZM11.2958 13.6841H9.1352V15.9079H11.2958V13.6841ZM14.7268 13.684H12.5662V15.9079H14.7268V13.684ZM4.43355 10.3291H2.27306V12.5529H4.43361V10.3291H4.43355ZM7.86474 10.3291H5.70413V12.553H7.86474V10.3291ZM11.2958 10.3291H9.1352V12.5529H11.2958V10.3291ZM14.7268 10.3291H12.5662V12.553H14.7268V10.3291ZM7.86474 6.97428H5.70413V9.19812H7.86474V6.97428ZM11.2958 6.97428H9.1352V9.19806H11.2958V6.97428ZM14.7268 6.97428H12.5662V9.19806H14.7268V6.97428Z" fill="#828282"/>
</svg>
