<svg width="16" height="16" viewBox="0 0 16 16" fill="none" xmlns="http://www.w3.org/2000/svg">
<path d="M7.99999 16C12.4183 16 16 12.4183 16 8C16 3.58173 12.4183 0 7.99999 0C3.58171 0 0 3.58173 0 8C0 12.4183 3.58171 16 7.99999 16Z" fill="#378F43"/>
<path d="M2.435 8.65594L5.22871 11.5507C5.39424 11.6825 5.76857 11.8298 6.08422 11.5449L12.1634 5.58413C12.428 5.31178 12.4232 4.87681 12.1499 4.61216C11.8795 4.34751 11.4435 4.35233 11.1779 4.62467L5.67236 10.0186L3.37715 7.65511C3.10095 7.39431 2.665 7.40778 2.40517 7.68398C2.14533 7.96017 2.15881 8.39515 2.435 8.65594Z" fill="white"/>
</svg>
