<?xml version="1.0" encoding="utf-8"?>
<!-- Generator: Adobe Illustrator 15.1.0, SVG Export Plug-In . SVG Version: 6.00 Build 0)  -->
<!DOCTYPE svg PUBLIC "-//W3C//DTD SVG 1.1//EN" "http://www.w3.org/Graphics/SVG/1.1/DTD/svg11.dtd">
<svg version="1.1" id="Layer_1" xmlns="http://www.w3.org/2000/svg" xmlns:xlink="http://www.w3.org/1999/xlink" x="0px" y="0px"
	 width="32px" height="32px" viewBox="0 0 32 32" enable-background="new 0 0 32 32" xml:space="preserve">
<path d="M20.369,15.964c-0.27,0-0.479-0.211-0.479-0.479v-0.958c0-0.268,0.211-0.478,0.479-0.478h4.847
	c0.271,0,0.479,0.21,0.479,0.478v0.958c0,0.269-0.209,0.479-0.479,0.479H20.369z M31.434,10.702V27.92
	c0,0.793-0.644,1.436-1.437,1.436H9.909c-0.793,0-1.437-0.643-1.437-1.436v-2.127l1.916-0.002v1.65h19.129V12.137H23.3
	c-0.791,0-1.438-0.644-1.438-1.435v-6.22H10.388v3.926L8.473,8.443V4.005c0-0.793,0.644-1.436,1.437-1.436h13.392
	c0.791,0,1.896,0.463,2.451,1.018l4.664,4.664C30.968,8.804,31.434,9.909,31.434,10.702z M29.398,10.224
	c-0.088-0.254-0.228-0.508-0.328-0.612l-4.68-4.68c-0.104-0.104-0.357-0.239-0.611-0.328v5.62H29.398z M16.484,22.182v0.953
	c0,0.271,0.209,0.48,0.48,0.48h8.248c0.271,0,0.479-0.209,0.479-0.48v-0.953c0-0.27-0.209-0.48-0.479-0.479h-8.248
	C16.691,21.703,16.484,21.911,16.484,22.182z M18.471,18.352v0.959c0,0.271,0.209,0.479,0.479,0.479h6.262
	c0.271,0,0.479-0.208,0.479-0.479v-0.959c0-0.268-0.209-0.477-0.477-0.477H18.95C18.68,17.875,18.471,18.084,18.471,18.352z
	 M7.803,24.493v-2.359H2.912V10.8H0.385V4.633h6.5V10.8H4.357v2.166h3.404v-2.333h6.5V16.8h-6.5v-2.334H4.357v6.223h3.446v-2.361
	h6.5v6.166H7.803z M9.261,15.3h3.5v-3.167h-3.5V15.3z M1.885,9.3h3.5V6.133h-3.5V9.3z M9.303,22.993h3.5v-3.166h-3.5V22.993z"/>
</svg>
