<svg width="430" height="430" viewBox="0 0 430 430" version="1.1" xmlns="http://www.w3.org/2000/svg" xmlns:xlink="http://www.w3.org/1999/xlink" xmlns:figma="http://www.figma.com/figma/ns">
<title>/collaborate securely</title>
<desc>Created using Figma</desc>
<g id="Canvas" transform="translate(15370 -1718)" figma:type="canvas">
<g id="artwork/collaborate securely" style="mix-blend-mode:normal;" figma:type="frame">
<g id="Rectangle 36" style="mix-blend-mode:normal;" figma:type="vector">
<use xlink:href="#path0_fill" transform="translate(-15353.4 1734.56)" fill="#FFFFFF" fill-opacity="0.2" style="mix-blend-mode:normal;"/>
</g>
<g id="Rectangle 36" style="mix-blend-mode:normal;" figma:type="vector">
<mask id="mask0_outline_ins">
<use xlink:href="#path1_fill" fill="white" transform="translate(-15369.2 1718.84)"/>
</mask>
<g mask="url(#mask0_outline_ins)">
<use xlink:href="#path2_stroke_2x" transform="translate(-15369.2 1718.84)" fill="#FFFFFF" fill-opacity="0.5" style="mix-blend-mode:normal;"/>
</g>
</g>
<g id="Rectangle 36" style="mix-blend-mode:normal;" figma:type="vector">
<use xlink:href="#path3_fill" transform="translate(-15318.2 1769.85)" fill="#FFFFFF" fill-opacity="0.8" style="mix-blend-mode:normal;"/>
</g>
<g id="Free-59-38-web-seo-internet-landing-page-startup-launch" style="mix-blend-mode:normal;" figma:type="frame">
<g id="Layer 1" style="mix-blend-mode:normal;" figma:type="vector">
<use xlink:href="#path4_stroke" transform="translate(-15205 1910)" style="mix-blend-mode:normal;"/>
</g>
<g id="Layer 3" style="mix-blend-mode:normal;" figma:type="vector">
<use xlink:href="#path5_fill" transform="translate(-15200.5 1912)" fill="#D0F09B" style="mix-blend-mode:normal;"/>
</g>
<g id="Layer 2" style="mix-blend-mode:normal;" figma:type="vector">
<use xlink:href="#path4_stroke" transform="translate(-15205 1910)" style="mix-blend-mode:normal;"/>
</g>
<g id="Layer 3" style="mix-blend-mode:normal;" figma:type="vector">
<use xlink:href="#path4_stroke" transform="translate(-15147 1910)" style="mix-blend-mode:normal;"/>
</g>
<g id="Layer 3" style="mix-blend-mode:normal;" figma:type="vector">
<use xlink:href="#path5_fill" transform="translate(-15142 1912)" fill="#D0F09B" style="mix-blend-mode:normal;"/>
</g>
<g id="Layer 4" style="mix-blend-mode:normal;" figma:type="vector">
<use xlink:href="#path4_stroke" transform="translate(-15147 1910)" style="mix-blend-mode:normal;"/>
</g>
<g id="Layer 6" style="mix-blend-mode:normal;" figma:type="vector">
<use xlink:href="#path6_stroke" transform="translate(-15184 1883)" style="mix-blend-mode:normal;"/>
</g>
<g id="Ellipse 9" style="mix-blend-mode:normal;" figma:type="ellipse">
<use xlink:href="#path7_fill" transform="translate(-15171 1865)" fill="#F5F5F7" style="mix-blend-mode:normal;"/>
<mask id="mask1_outline_ins">
<use xlink:href="#path7_fill" fill="white" transform="translate(-15171 1865)"/>
</mask>
<g mask="url(#mask1_outline_ins)">
<use xlink:href="#path8_stroke_2x" transform="translate(-15171 1865)" style="mix-blend-mode:normal;"/>
</g>
</g>
<g id="Layer 7" style="mix-blend-mode:normal;" figma:type="vector">
<use xlink:href="#path9_stroke" transform="matrix(0.707107 -0.707107 0.707107 0.707107 -15135 1897)" style="mix-blend-mode:normal;"/>
</g>
<g id="Layer 8" style="mix-blend-mode:normal;" figma:type="vector">
<use xlink:href="#path10_stroke" transform="translate(-15183.5 1969)" style="mix-blend-mode:normal;"/>
</g>
<g id="Ellipse 9" style="mix-blend-mode:normal;" figma:type="ellipse">
<use xlink:href="#path7_fill" transform="translate(-15171 1964)" fill="#F5F5F7" style="mix-blend-mode:normal;"/>
<mask id="mask2_outline_ins">
<use xlink:href="#path7_fill" fill="white" transform="translate(-15171 1964)"/>
</mask>
<g mask="url(#mask2_outline_ins)">
<use xlink:href="#path8_stroke_2x" transform="translate(-15171 1964)" style="mix-blend-mode:normal;"/>
</g>
</g>
<g id="Layer 9" style="mix-blend-mode:normal;" figma:type="vector">
<use xlink:href="#path11_stroke" transform="translate(-15184 1969)" style="mix-blend-mode:normal;"/>
</g>
</g>
<g id="Free-78-14-baby-boy-smilling" style="mix-blend-mode:normal;" figma:type="frame">
<g id="Layer 1" style="mix-blend-mode:normal;" figma:type="vector">
<use xlink:href="#path12_fill" transform="translate(-15261.2 1918)" fill="#FFFFFF" style="mix-blend-mode:normal;"/>
<use xlink:href="#path13_stroke" transform="translate(-15261.2 1918)" style="mix-blend-mode:normal;"/>
</g>
<g id="Layer 1" style="mix-blend-mode:normal;" figma:type="vector">
<use xlink:href="#path14_fill" transform="translate(-15256.7 1923.4)" fill="#D0F09B" style="mix-blend-mode:normal;"/>
</g>
<g id="Layer 2" style="mix-blend-mode:normal;" figma:type="vector">
<use xlink:href="#path15_stroke" transform="translate(-15258.9 1920.25)" style="mix-blend-mode:normal;"/>
</g>
<g id="Layer 3" style="mix-blend-mode:normal;" figma:type="vector">
<use xlink:href="#path16_fill" transform="translate(-15263 1945)" fill="#FFFFFF" style="mix-blend-mode:normal;"/>
<use xlink:href="#path17_stroke" transform="translate(-15263 1945)" style="mix-blend-mode:normal;"/>
</g>
<g id="Layer 4" style="mix-blend-mode:normal;" figma:type="vector">
<use xlink:href="#path18_fill" transform="translate(-15247.1 1945)" fill="#E1F2FA" style="mix-blend-mode:normal;"/>
<use xlink:href="#path19_stroke" transform="translate(-15247.1 1945)" style="mix-blend-mode:normal;"/>
</g>
</g>
<g id="Free-77-13-baby-toy-sun-heart" style="mix-blend-mode:normal;" figma:type="frame">
<g id="Layer 1" style="mix-blend-mode:normal;" figma:type="vector">
<use xlink:href="#path20_fill" transform="matrix(-1 0 0 1 -15052 1912)" fill="#D0F09B" style="mix-blend-mode:normal;"/>
<use xlink:href="#path21_stroke" transform="matrix(-1 0 0 1 -15052 1912)" style="mix-blend-mode:normal;"/>
</g>
<g id="Layer 2" style="mix-blend-mode:normal;" figma:type="vector">
<use xlink:href="#path22_fill" transform="matrix(-1 0 0 1 -15052 1947.28)" fill="#E1F2FA" style="mix-blend-mode:normal;"/>
<use xlink:href="#path23_stroke" transform="matrix(-1 0 0 1 -15052 1947.28)" style="mix-blend-mode:normal;"/>
</g>
<g id="Layer 3" style="mix-blend-mode:normal;" figma:type="vector">
<use xlink:href="#path24_fill" transform="matrix(-1 0 0 1 -15052 1912)" fill="#E1F2FA" style="mix-blend-mode:normal;"/>
<use xlink:href="#path25_stroke" transform="matrix(-1 0 0 1 -15052 1912)" style="mix-blend-mode:normal;"/>
</g>
<g id="Layer 4" style="mix-blend-mode:normal;" figma:type="vector">
<use xlink:href="#path20_fill" transform="matrix(-1 0 0 1 -15052 1912)" fill="#FFFFFF" style="mix-blend-mode:normal;"/>
<use xlink:href="#path21_stroke" transform="matrix(-1 0 0 1 -15052 1912)" style="mix-blend-mode:normal;"/>
</g>
<g id="Layer 5" style="mix-blend-mode:normal;" figma:type="vector">
<use xlink:href="#path22_fill" transform="matrix(-1 0 0 1 -15052 1947.28)" fill="#D0F09B" style="mix-blend-mode:normal;"/>
<use xlink:href="#path23_stroke" transform="matrix(-1 0 0 1 -15052 1947.28)" style="mix-blend-mode:normal;"/>
</g>
<g id="Layer 6" style="mix-blend-mode:normal;" figma:type="vector">
<use xlink:href="#path24_fill" transform="matrix(-1 0 0 1 -15052 1912)" fill="#D0F09B" style="mix-blend-mode:normal;"/>
<use xlink:href="#path25_stroke" transform="matrix(-1 0 0 1 -15052 1912)" style="mix-blend-mode:normal;"/>
</g>
<g id="Layer 7" style="mix-blend-mode:normal;" figma:type="vector">
<use xlink:href="#path26_fill" transform="matrix(-1 0 0 1 -15067.7 1949.38)" fill="#E1F2FA" style="mix-blend-mode:normal;"/>
<use xlink:href="#path27_stroke" transform="matrix(-1 0 0 1 -15067.7 1949.38)" style="mix-blend-mode:normal;"/>
</g>
<g id="Layer 8" style="mix-blend-mode:normal;" figma:type="vector">
<use xlink:href="#path28_fill" transform="matrix(-1 0 0 1 -15067.7 1914.94)" fill="#E1F2FA" style="mix-blend-mode:normal;"/>
<use xlink:href="#path29_stroke" transform="matrix(-1 0 0 1 -15067.7 1914.94)" style="mix-blend-mode:normal;"/>
</g>
</g>
<g id="protect - black" style="mix-blend-mode:normal;" figma:type="vector-operation">
<use xlink:href="#path30_fill" transform="translate(-15163 1872)" style="mix-blend-mode:normal;"/>
</g>
<g id="protect - black" style="mix-blend-mode:normal;" figma:type="vector-operation">
<use xlink:href="#path30_fill" transform="translate(-15163 1972)" style="mix-blend-mode:normal;"/>
</g>
</g>
</g>
<defs>
<path id="path0_fill" d="M 71.1624 52.7208C 141.457 -17.5736 255.426 -17.5736 325.721 52.7208L 344.162 71.1624C 414.457 141.457 414.457 255.426 344.162 325.721L 325.721 344.162C 255.426 414.457 141.457 414.457 71.1624 344.162L 52.7208 325.721C -17.5736 255.426 -17.5736 141.457 52.7208 71.1624L 71.1624 52.7208Z"/>
<path id="path1_fill" d="M 72.7359 58.5786C 150.841 -19.5262 277.474 -19.5262 355.579 58.5786L 369.736 72.7359C 447.841 150.841 447.841 277.474 369.736 355.579L 355.579 369.736C 277.474 447.841 150.841 447.841 72.7359 369.736L 58.5786 355.579C -19.5262 277.474 -19.5262 150.841 58.5786 72.7359L 72.7359 58.5786Z"/>
<path id="path2_stroke_2x" d="M 355.579 58.5786L 354.872 59.2857L 354.872 59.2857L 355.579 58.5786ZM 369.736 72.7359L 370.443 72.0288L 370.443 72.0288L 369.736 72.7359ZM 72.7359 369.736L 72.0288 370.443L 72.0288 370.443L 72.7359 369.736ZM 58.5786 355.579L 59.2857 354.872L 59.2857 354.872L 58.5786 355.579ZM 73.4431 59.2857C 151.157 -18.4286 277.157 -18.4286 354.872 59.2857L 356.286 57.8715C 277.79 -20.6238 150.524 -20.6238 72.0288 57.8715L 73.4431 59.2857ZM 354.872 59.2857L 369.029 73.4431L 370.443 72.0288L 356.286 57.8715L 354.872 59.2857ZM 369.029 73.4431C 446.743 151.157 446.743 277.157 369.029 354.872L 370.443 356.286C 448.938 277.79 448.938 150.524 370.443 72.0288L 369.029 73.4431ZM 369.029 354.872L 354.872 369.029L 356.286 370.443L 370.443 356.286L 369.029 354.872ZM 354.872 369.029C 277.157 446.743 151.157 446.743 73.4431 369.029L 72.0288 370.443C 150.524 448.938 277.79 448.938 356.286 370.443L 354.872 369.029ZM 73.4431 369.029L 59.2857 354.872L 57.8715 356.286L 72.0288 370.443L 73.4431 369.029ZM 59.2857 354.872C -18.4286 277.157 -18.4286 151.157 59.2857 73.4431L 57.8715 72.0288C -20.6238 150.524 -20.6238 277.79 57.8715 356.286L 59.2857 354.872ZM 59.2857 73.4431L 73.4431 59.2857L 72.0288 57.8715L 57.8715 72.0288L 59.2857 73.4431Z"/>
<path id="path3_fill" d="M 71.2283 38.0761C 121.997 -12.692 204.308 -12.692 255.076 38.0761L 288.228 71.2283C 338.996 121.997 338.996 204.308 288.228 255.076L 255.076 288.228C 204.308 338.996 121.997 338.996 71.2283 288.228L 38.0761 255.076C -12.692 204.308 -12.692 121.997 38.0761 71.2283L 71.2283 38.0761Z"/>
<path id="path4_stroke" d="M 12.2445 14.8529L 13.1815 16.3309C 13.8532 15.9051 14.1533 15.0799 13.9121 14.3221L 12.2445 14.8529ZM 11.4588 17.9872L 13.1589 17.5722L 11.4588 17.9872ZM 13.6926 20.7789L 15.1023 19.7419C 14.9236 19.499 14.6851 19.3064 14.4101 19.1828L 13.6926 20.7789ZM 0 45.9977L -1.74712 45.8973C -1.77473 46.3781 -1.60302 46.849 -1.27242 47.1991C -0.941822 47.5493 -0.481551 47.7477 0 47.7477L 0 45.9977ZM 20.8853 45.9977L 20.8855 44.2477L 20.8853 44.2477L 20.8853 45.9977ZM 42 46L 41.9998 47.75C 42.4814 47.7501 42.9417 47.5516 43.2724 47.2015C 43.603 46.8514 43.7747 46.3804 43.7471 45.8996L 42 46ZM 28.3074 20.7812L 27.5899 19.1851C 27.3148 19.3087 27.0764 19.5013 26.8977 19.7442L 28.3074 20.7812ZM 30.5412 17.9895L 28.8411 17.5745L 30.5412 17.9895ZM 29.7555 14.8552L 28.0879 14.3244C 27.8467 15.0822 28.1468 15.9074 28.8185 16.3333L 29.7555 14.8552ZM 21.1147 0.00878115L 20.8615 1.74038C 20.9255 1.74973 20.9899 1.75553 21.0545 1.75775L 21.1147 0.00878115ZM 20.9589 0.00408371L 20.9058 -1.74512L 20.8988 -1.74488L 20.9589 0.00408371ZM 11.3075 13.3749C 10.8429 13.6694 10.5512 14.1185 10.4038 14.369C 10.2417 14.6494 10.0461 15.0809 9.91828 15.4662C 9.688 16.1989 9.54632 17.4015 9.75876 18.4022L 13.1589 17.5722C 13.0952 17.3113 13.1217 16.9344 13.2478 16.5451C 13.3072 16.362 13.374 16.2228 13.4207 16.1434C 13.4468 16.0969 13.4449 16.1083 13.4357 16.1168C 13.4327 16.1205 13.3509 16.2236 13.1815 16.3309L 11.3075 13.3749ZM 9.75876 18.4022C 10.1336 19.7636 10.99 20.8906 11.5896 21.4375C 11.9245 21.7337 12.2875 21.9874 12.4983 22.1173C 12.6195 22.191 12.7424 22.2589 12.8079 22.2932C 12.8481 22.314 12.8908 22.3353 12.9114 22.3452C 12.9254 22.352 12.9415 22.3596 12.9485 22.3629C 12.9538 22.3654 12.9606 22.3685 12.9632 22.3697C 12.9654 22.3707 12.9684 22.372 12.9696 22.3726C 12.9706 22.373 12.972 22.3736 12.9725 22.3739C 12.9729 22.3741 12.9736 22.3744 12.9739 22.3745C 12.9745 22.3748 12.9752 22.3751 13.6926 20.7789C 14.4101 19.1828 14.4107 19.183 14.4114 19.1833C 14.4116 19.1834 14.4123 19.1837 14.4127 19.1839C 14.4123 19.1837 14.4159 19.1854 14.4151 19.185C 14.4144 19.1847 14.4209 19.1877 14.4196 19.187C 14.4186 19.1866 14.4287 19.1913 14.4267 19.1904C 14.4263 19.1902 14.4356 19.1945 14.4345 19.194C 14.4397 19.1965 14.4341 19.194 14.4257 19.1895C 14.3938 19.173 14.3767 19.1641 14.3268 19.1329C 14.1953 19.0531 14.0918 18.9854 13.9295 18.8346C 13.5348 18.4877 13.2742 18.2188 13.1589 17.5722L 9.75876 18.4022ZM 13.6926 20.7789C 12.283 21.8159 12.2829 21.8158 12.2827 21.8156C 12.2827 21.8156 12.2826 21.8154 12.2826 21.8153C 12.2826 21.8154 12.2823 21.815 12.2824 21.8151C 12.2822 21.8149 12.2824 21.8152 12.2827 21.8155C 12.2836 21.8168 12.2844 21.8179 12.2862 21.8204C 12.2906 21.8264 12.2958 21.8336 12.3042 21.8452C 12.3225 21.8705 12.3467 21.9042 12.3805 21.9521C 12.4513 22.0524 12.5458 22.1882 12.6655 22.3667C 12.9116 22.7336 13.2186 23.2106 13.5361 23.769C 14.2352 24.9956 14.6704 26.0863 14.6704 26.6433L 18.1704 26.6433C 18.1704 25.044 17.2418 23.2025 16.577 22.036C 16.2125 21.3978 15.8376 20.813 15.5723 20.4173C 15.4362 20.2145 15.3176 20.0438 15.2393 19.9329C 15.1985 19.8751 15.164 19.827 15.1424 19.797C 15.1307 19.7809 15.1207 19.7671 15.1147 19.7589C 15.1114 19.7543 15.1082 19.75 15.1066 19.7477C 15.1055 19.7463 15.1044 19.7448 15.1039 19.7441C 15.1036 19.7437 15.1032 19.7431 15.103 19.7429C 15.1029 19.7427 15.1027 19.7424 15.1026 19.7423C 15.1025 19.7421 15.1023 19.7419 13.6926 20.7789ZM 14.6704 26.6433C 14.6704 28.7505 14.6664 29.3056 14.0682 30.7777L 17.3107 32.0953C 18.1745 29.9695 18.1704 28.849 18.1704 26.6433L 14.6704 26.6433ZM 14.0682 30.7777C 14.1862 30.4874 14.3538 30.3751 14.3012 30.4175C 14.2377 30.4726 14.1785 30.5073 13.9949 30.606C 13.5969 30.824 13.0496 31.0625 12.3294 31.3692C 10.8834 31.9852 8.91826 32.7925 6.94801 33.8855C 3.02745 36.0674 -1.3899 39.6781 -1.74712 45.8973L 1.74712 46.098C 1.99907 41.7116 5.06094 38.9412 8.65005 36.9437C 10.4346 35.947 12.2319 35.215 13.701 34.5893C 14.4384 34.2751 15.1368 33.9671 15.6659 33.6814C 15.9458 33.5283 16.2704 33.3218 16.4977 33.1425C 16.7359 32.9504 17.1013 32.6106 17.3107 32.0953L 14.0682 30.7777ZM 0 47.7477L 20.8853 47.7477L 20.8853 44.2477L 0 44.2477L 0 47.7477ZM 20.8852 47.7477L 41.9998 47.75L 42.0002 44.25L 20.8855 44.2477L 20.8852 47.7477ZM 43.7471 45.8996C 43.3899 39.6804 38.9725 36.0697 35.052 33.8878C 33.0817 32.7948 31.1166 31.9875 29.6706 31.3715C 28.9504 31.0648 28.4031 30.8264 28.0051 30.6084C 27.8215 30.5096 27.7623 30.4749 27.6988 30.4198C 27.6462 30.3775 27.8138 30.4897 27.9318 30.7801L 24.6893 32.0976C 24.8987 32.6129 25.2641 32.9528 25.5023 33.1448C 25.7296 33.3241 26.0542 33.5306 26.3341 33.6837C 26.8632 33.9694 27.5616 34.2774 28.299 34.5916C 29.7681 35.2173 31.5654 35.9493 33.3499 36.9461C 36.9391 38.9435 40.0009 41.7139 40.2529 46.1004L 43.7471 45.8996ZM 27.9318 30.7801C 27.3336 29.3079 27.3296 28.7528 27.3296 26.6457L 23.8296 26.6457C 23.8296 28.8513 23.8255 29.9718 24.6893 32.0976L 27.9318 30.7801ZM 27.3296 26.6457C 27.3296 26.0886 27.7648 24.9979 28.4639 23.7713C 28.7814 23.213 29.0884 22.7359 29.3345 22.369C 29.4542 22.1905 29.5487 22.0547 29.6195 21.9544C 29.6533 21.9065 29.6775 21.8729 29.6958 21.8475C 29.7042 21.8359 29.7094 21.8287 29.7138 21.8227C 29.7156 21.8202 29.7164 21.8191 29.7173 21.8178C 29.7176 21.8175 29.7178 21.8172 29.7176 21.8174C 29.7177 21.8174 29.7174 21.8177 29.7174 21.8177C 29.7174 21.8177 29.7173 21.8179 29.7173 21.8179C 29.7171 21.8181 29.717 21.8183 28.3074 20.7812C 26.8977 19.7442 26.8975 19.7444 26.8974 19.7447C 26.8973 19.7448 26.8971 19.745 26.897 19.7452C 26.8968 19.7454 26.8964 19.746 26.8961 19.7465C 26.8956 19.7472 26.8945 19.7486 26.8934 19.75C 26.8918 19.7523 26.8886 19.7566 26.8853 19.7612C 26.8793 19.7694 26.8693 19.7833 26.8576 19.7993C 26.836 19.8293 26.8015 19.8775 26.7607 19.9352C 26.6824 20.0461 26.5638 20.2168 26.4277 20.4196C 26.1624 20.8154 25.7875 21.4001 25.423 22.0383C 24.7582 23.2048 23.8296 25.0463 23.8296 26.6457L 27.3296 26.6457ZM 28.3074 20.7812C 29.0248 22.3774 29.0255 22.3771 29.0261 22.3768C 29.0264 22.3767 29.0271 22.3764 29.0275 22.3762C 29.028 22.376 29.0294 22.3753 29.0304 22.3749C 29.0316 22.3744 29.0346 22.373 29.0368 22.372C 29.0394 22.3708 29.0462 22.3677 29.0515 22.3652C 29.0585 22.3619 29.0746 22.3543 29.0886 22.3476C 29.1092 22.3376 29.1519 22.3164 29.1921 22.2955C 29.2576 22.2612 29.3805 22.1933 29.5017 22.1196C 29.7125 21.9897 30.0755 21.736 30.4104 21.4398C 31.01 20.8929 31.8664 19.7659 32.2412 18.4045L 28.8411 17.5745C 28.7257 18.2211 28.4652 18.49 28.0705 18.8369C 27.9082 18.9877 27.8047 19.0554 27.6732 19.1352C 27.6233 19.1664 27.6062 19.1753 27.5743 19.1918C 27.5659 19.1963 27.5603 19.1988 27.5655 19.1963C 27.5644 19.1968 27.5737 19.1925 27.5733 19.1927C 27.5713 19.1936 27.5814 19.1889 27.5804 19.1894C 27.5791 19.19 27.5856 19.187 27.5849 19.1873C 27.5841 19.1877 27.5877 19.1861 27.5873 19.1862C 27.5877 19.186 27.5884 19.1858 27.5886 19.1857C 27.5893 19.1854 27.5899 19.1851 28.3074 20.7812ZM 32.2412 18.4045C 32.4537 17.4038 32.312 16.2012 32.0817 15.4685C 31.9539 15.0832 31.7583 14.6517 31.5962 14.3713C 31.4488 14.1208 31.1571 13.6718 30.6925 13.3772L 28.8185 16.3333C 28.6491 16.2259 28.5673 16.1228 28.5643 16.1191C 28.5551 16.1106 28.5532 16.0992 28.5793 16.1457C 28.626 16.2251 28.6928 16.3643 28.7522 16.5474C 28.8783 16.9367 28.9048 17.3136 28.8411 17.5745L 32.2412 18.4045ZM 31.423 15.3861C 31.9792 13.639 32.8609 9.65646 31.9217 5.93707C 31.448 4.11163 30.354 2.08595 28.6583 0.677504C 26.8556 -0.76988 24.3912 -1.62963 21.1748 -1.74019L 21.0545 1.75775C 23.7077 1.84894 25.3875 2.53995 26.467 3.40669C 27.6535 4.31237 28.1798 5.36419 28.5282 6.79399C 29.233 9.58508 28.5655 12.824 28.0879 14.3244L 31.423 15.3861ZM 21.3678 -1.72281C 21.1665 -1.74575 20.961 -1.74678 20.9058 -1.74511L 21.0121 1.75328C 21.041 1.7524 21.0286 1.75308 21.0085 1.75276C 20.9842 1.75237 20.9313 1.75057 20.8615 1.74038L 21.3678 -1.72281ZM 20.8988 -1.74488C 17.6661 -1.63381 15.1899 -0.774803 13.3773 0.670524C 11.6704 2.07838 10.5677 4.10391 10.0887 5.92999C 9.13833 9.65204 10.0209 13.6368 10.577 15.3838L 13.9121 14.3221C 13.4344 12.8216 12.7678 9.58488 13.4799 6.79584C 13.8321 5.36638 14.3634 4.31396 15.5594 3.40703C 16.6498 2.53756 18.3453 1.84492 21.019 1.75305L 20.8988 -1.74488Z"/>
<path id="path5_fill" fill-rule="evenodd" d="M 12.2445 14.8529C 11.8578 15.0981 11.1292 16.637 11.4588 17.9872C 11.949 19.9952 13.6926 20.7789 13.6926 20.7789C 13.6926 20.7789 16.4204 24.4869 16.4204 26.6433C 16.4204 28.7997 16.4204 29.6375 15.6894 31.4365C 14.9584 33.2355 0.609176 35.392 0 45.9977L 20.8853 45.9977L 42 46C 41.3908 35.3944 27.0416 33.2378 26.3106 31.4388C 25.5796 29.6398 25.5796 28.8021 25.5796 26.6457C 25.5796 24.4892 28.3074 20.7812 28.3074 20.7812C 28.3074 20.7812 30.051 19.9975 30.5412 17.9895C 30.8708 16.6393 30.1422 15.1004 29.7555 14.8552C 30.7892 11.6078 32.8539 0.412288 21.1147 0.00878115C 21.0625 0.00115262 21.0106 0.00251436 20.9589 0.00408371C 9.14611 0.409972 11.2108 11.6055 12.2445 14.8529Z"/>
<path id="path6_stroke" d="M -1.5137 13.1218C -1.99871 13.9578 -1.71419 15.0287 -0.878195 15.5137C -0.0422035 15.9987 1.02868 15.7142 1.5137 14.8782L -1.5137 13.1218ZM 55.963 14.8368C 56.4252 15.6856 57.488 15.9991 58.3368 15.537C 59.1856 15.0748 59.4991 14.012 59.037 13.1632L 55.963 14.8368ZM 0 14C 1.5137 14.8782 1.51325 14.879 1.51283 14.8797C 1.51273 14.8799 1.51234 14.8805 1.51215 14.8809C 1.51222 14.8807 1.51117 14.8825 1.51132 14.8823C 1.51098 14.8829 1.51119 14.8825 1.51187 14.8813C 1.51452 14.8769 1.51647 14.8736 1.52176 14.8648C 1.53499 14.8429 1.55055 14.8175 1.57706 14.7755C 1.63563 14.6824 1.71411 14.5611 1.8324 14.3891C 2.08107 14.0266 2.43283 13.5432 2.94277 12.9291C 3.99095 11.6627 5.51494 10.0566 7.72468 8.39714C 12.0977 5.09875 18.9845 1.75 29 1.75L 29 -1.75C 18.1378 -1.75 10.5247 1.90124 5.61706 5.60286C 3.18652 7.44343 1.37507 9.33733 0.24788 10.6959C -0.329863 11.3943 -0.775765 12.0046 -1.05284 12.4078C -1.19742 12.6186 -1.31383 12.7981 -1.38443 12.9101C -1.42251 12.9706 -1.45511 13.0238 -1.47388 13.0548C -1.4846 13.0726 -1.49462 13.0894 -1.49993 13.0984C -1.50324 13.1039 -1.5067 13.1098 -1.50834 13.1126C -1.50949 13.1146 -1.51083 13.1169 -1.5114 13.1179C -1.51185 13.1186 -1.51242 13.1196 -1.51264 13.12C -1.51319 13.1209 -1.5137 13.1218 0 14ZM 29 1.75C 39.0134 1.75 45.7677 5.09708 50.007 8.38313C 52.1517 10.0376 53.6107 11.6359 54.6116 12.8998C 55.0979 13.5116 55.43 13.9918 55.6651 14.3532C 55.7766 14.5242 55.8499 14.6441 55.9048 14.7367C 55.9296 14.7782 55.9438 14.803 55.9562 14.8247C 55.961 14.8332 55.9627 14.8362 55.9651 14.8406C 55.9657 14.8416 55.9657 14.8417 55.9654 14.8412C 55.9656 14.8415 55.9645 14.8395 55.9646 14.8396C 55.9644 14.8393 55.964 14.8386 55.9639 14.8384C 55.9635 14.8376 55.963 14.8368 57.5 14C 59.037 13.1632 59.0365 13.1623 59.0359 13.1613C 59.0357 13.1609 59.0352 13.1599 59.0347 13.1591C 59.0342 13.1581 59.0329 13.1557 59.0318 13.1537C 59.0302 13.1509 59.0269 13.1448 59.0237 13.1391C 59.0186 13.13 59.009 13.1129 58.9988 13.095C 58.981 13.0637 58.95 13.0098 58.9138 12.9489C 58.8469 12.8364 58.736 12.6555 58.5983 12.4437C 58.335 12.0395 57.9085 11.4259 57.354 10.7252C 56.2733 9.36412 54.5219 7.46236 52.1513 5.61687C 47.36 1.90292 39.8642 -1.75 29 -1.75L 29 1.75Z"/>
<path id="path7_fill" d="M 32 16C 32 24.8366 24.8366 32 16 32C 7.16344 32 0 24.8366 0 16C 0 7.16344 7.16344 0 16 0C 24.8366 0 32 7.16344 32 16Z"/>
<path id="path8_stroke_2x" d="M 30 16C 30 23.732 23.732 30 16 30L 16 34C 25.9411 34 34 25.9411 34 16L 30 16ZM 16 30C 8.26801 30 2 23.732 2 16L -2 16C -2 25.9411 6.05887 34 16 34L 16 30ZM 2 16C 2 8.26801 8.26801 2 16 2L 16 -2C 6.05887 -2 -2 6.05887 -2 16L 2 16ZM 16 2C 23.732 2 30 8.26801 30 16L 34 16C 34 6.05887 25.9411 -2 16 -2L 16 2Z"/>
<path id="path9_stroke" d="M 1.23744 -1.23744C 0.554019 -1.92085 -0.554019 -1.92085 -1.23744 -1.23744C -1.92085 -0.554019 -1.92085 0.554019 -1.23744 1.23744L 1.23744 -1.23744ZM 6.36396 6.36396L 5.12652 7.6014C 5.80994 8.28482 6.91798 8.28482 7.6014 7.6014L 6.36396 6.36396ZM 13.9654 1.23744C 14.6488 0.554019 14.6488 -0.554019 13.9654 -1.23744C 13.2819 -1.92085 12.1739 -1.92085 11.4905 -1.23744L 13.9654 1.23744ZM -1.23744 1.23744L 5.12652 7.6014L 7.6014 5.12652L 1.23744 -1.23744L -1.23744 1.23744ZM 7.6014 7.6014L 13.9654 1.23744L 11.4905 -1.23744L 5.12652 5.12652L 7.6014 7.6014Z"/>
<path id="path10_stroke" d="M 59.0137 0.878195C 59.4987 0.0422035 59.2142 -1.02868 58.3782 -1.5137C 57.5422 -1.99871 56.4713 -1.71419 55.9863 -0.878195L 59.0137 0.878195ZM 1.53696 -0.836803C 1.07481 -1.68565 0.0120393 -1.99912 -0.836803 -1.53696C -1.68565 -1.07481 -1.99912 -0.0120393 -1.53696 0.836803L 1.53696 -0.836803ZM 57.5 0C 55.9863 -0.878195 55.9868 -0.878967 55.9872 -0.879685C 55.9873 -0.879854 55.9877 -0.880522 55.9879 -0.880861C 55.9878 -0.880734 55.9888 -0.882527 55.9887 -0.882268C 55.989 -0.882854 55.9888 -0.882485 55.9881 -0.881348C 55.9855 -0.87686 55.9835 -0.87358 55.9782 -0.864848C 55.965 -0.842927 55.9494 -0.817471 55.9229 -0.775456C 55.8644 -0.682402 55.7859 -0.561051 55.6676 -0.389064C 55.4189 -0.0266236 55.0672 0.456831 54.5572 1.07086C 53.5091 2.33733 51.9851 3.94343 49.7753 5.60286C 45.4023 8.90125 38.5155 12.25 28.5 12.25L 28.5 15.75C 39.3622 15.75 46.9753 12.0988 51.8829 8.39714C 54.3135 6.55657 56.1249 4.66267 57.2521 3.30414C 57.8299 2.60567 58.2758 1.99537 58.5528 1.59219C 58.6974 1.38136 58.8138 1.20193 58.8844 1.08991C 58.9225 1.02939 58.9551 0.976228 58.9739 0.94517C 58.9846 0.927413 58.9946 0.910613 58.9999 0.901642C 59.0032 0.89605 59.0067 0.890174 59.0083 0.887368C 59.0095 0.885414 59.0108 0.883117 59.0114 0.882139C 59.0118 0.881375 59.0124 0.880388 59.0126 0.880005C 59.0132 0.879074 59.0137 0.878195 57.5 0ZM 28.5 12.25C 18.4866 12.25 11.7323 8.90292 7.493 5.61687C 5.34834 3.96236 3.88928 2.36412 2.88839 1.10015C 2.40211 0.488364 2.06996 0.00822912 1.83492 -0.353167C 1.7234 -0.524178 1.65014 -0.644084 1.59517 -0.736673C 1.57044 -0.778238 1.55617 -0.803025 1.54384 -0.824726C 1.53899 -0.833243 1.53734 -0.836201 1.5349 -0.840583C 1.53433 -0.841614 1.53427 -0.841721 1.53457 -0.841187C 1.5344 -0.841498 1.53551 -0.839471 1.53543 -0.839624C 1.53562 -0.839259 1.53601 -0.838553 1.53611 -0.838371C 1.53652 -0.837614 1.53696 -0.836803 0 0C -1.53696 0.836803 -1.53646 0.837721 -1.53594 0.838691C -1.53572 0.839086 -1.53516 0.840112 -1.53473 0.840902C -1.53418 0.841906 -1.53287 0.844281 -1.53177 0.846288C -1.5302 0.849146 -1.52686 0.855179 -1.5237 0.860877C -1.51864 0.869954 -1.50904 0.887076 -1.49884 0.905048C -1.48104 0.936325 -1.44996 0.990152 -1.41378 1.05113C -1.34689 1.16361 -1.236 1.34449 -1.09833 1.55629C -0.834962 1.96052 -0.408509 2.57414 0.146008 3.27485C 1.22674 4.63588 2.97811 6.53764 5.34875 8.38313C 10.14 12.0971 17.6358 15.75 28.5 15.75L 28.5 12.25Z"/>
<path id="path11_stroke" d="M 9 1.75C 9.9665 1.75 10.75 0.966498 10.75 0C 10.75 -0.966498 9.9665 -1.75 9 -1.75L 9 1.75ZM 0 0L 0 -1.75C -0.966498 -1.75 -1.75 -0.966498 -1.75 3.88578e-16L 0 0ZM -1.75 9C -1.75 9.9665 -0.966498 10.75 0 10.75C 0.966498 10.75 1.75 9.9665 1.75 9L -1.75 9ZM 9 -1.75L 0 -1.75L 0 1.75L 9 1.75L 9 -1.75ZM -1.75 0L -1.75 9L 1.75 9L 1.75 0L -1.75 0Z"/>
<path id="path12_fill" fill-rule="evenodd" d="M 0 3C 0 1.34315 1.34315 0 3 0L 30.3 0C 31.9569 0 33.3 1.34315 33.3 3L 33.3 27L 0 27L 0 3Z"/>
<path id="path13_stroke" d="M 33.3 27L 33.3 27.5C 33.5761 27.5 33.8 27.2761 33.8 27L 33.3 27ZM 0 27L -0.5 27C -0.5 27.2761 -0.276142 27.5 1.11022e-16 27.5L 0 27ZM 3 0.5L 30.3 0.5L 30.3 -0.5L 3 -0.5L 3 0.5ZM 32.8 3L 32.8 27L 33.8 27L 33.8 3L 32.8 3ZM 33.3 26.5L 0 26.5L 0 27.5L 33.3 27.5L 33.3 26.5ZM 0.5 27L 0.5 3L -0.5 3L -0.5 27L 0.5 27ZM 3 -0.5C 1.067 -0.5 -0.5 1.067 -0.5 3L 0.5 3C 0.5 1.61929 1.61929 0.5 3 0.5L 3 -0.5ZM 30.3 0.5C 31.6807 0.5 32.8 1.61929 32.8 3L 33.8 3C 33.8 1.067 32.233 -0.5 30.3 -0.5L 30.3 0.5Z"/>
<path id="path14_fill" fill-rule="evenodd" d="M 0 3C 0 1.34315 1.34315 0 3 0L 24.4516 0C 26.1085 0 27.4516 1.34315 27.4516 3L 27.4516 20.4L 0 20.4L 0 3Z"/>
<path id="path15_stroke" d="M 0 0L 0 -0.5C -0.276142 -0.5 -0.5 -0.276142 -0.5 1.11022e-16L 0 0ZM 28.86 0L 29.36 0C 29.36 -0.276142 29.1361 -0.5 28.86 -0.5L 28.86 0ZM 28.86 22.5L 28.86 23C 29.1361 23 29.36 22.7761 29.36 22.5L 28.86 22.5ZM 0 22.5L -0.5 22.5C -0.5 22.7761 -0.276142 23 1.11022e-16 23L 0 22.5ZM 0 0.5L 28.86 0.5L 28.86 -0.5L 0 -0.5L 0 0.5ZM 28.36 0L 28.36 22.5L 29.36 22.5L 29.36 0L 28.36 0ZM 28.86 22L 0 22L 0 23L 28.86 23L 28.86 22ZM 0.5 22.5L 0.5 0L -0.5 0L -0.5 22.5L 0.5 22.5Z"/>
<path id="path16_fill" fill-rule="evenodd" d="M 0 0L 37 0L 37 3L 0 3L 0 0Z"/>
<path id="path17_stroke" d="M 0 0L 0 -0.5C -0.276142 -0.5 -0.5 -0.276142 -0.5 1.11022e-16L 0 0ZM 37 0L 37.5 0C 37.5 -0.276142 37.2761 -0.5 37 -0.5L 37 0ZM 37 3L 37 3.5C 37.2761 3.5 37.5 3.27614 37.5 3L 37 3ZM 0 3L -0.5 3C -0.5 3.27614 -0.276142 3.5 1.11022e-16 3.5L 0 3ZM 0 0.5L 37 0.5L 37 -0.5L 0 -0.5L 0 0.5ZM 36.5 0L 36.5 3L 37.5 3L 37.5 0L 36.5 0ZM 37 2.5L 0 2.5L 0 3.5L 37 3.5L 37 2.5ZM 0.5 3L 0.5 0L -0.5 0L -0.5 3L 0.5 3Z"/>
<path id="path18_fill" fill-rule="evenodd" d="M 0 0L 5.18 0C 5.18 0.828427 4.50843 1.5 3.68 1.5L 1.5 1.5C 0.671573 1.5 0 0.828427 0 0Z"/>
<path id="path19_stroke" d="M 0 -0.5C -0.276142 -0.5 -0.5 -0.276142 -0.5 0C -0.5 0.276142 -0.276142 0.5 0 0.5L 0 -0.5ZM 0 0.5L 5.18 0.5L 5.18 -0.5L 0 -0.5L 0 0.5ZM 3.68 1L 1.5 1L 1.5 2L 3.68 2L 3.68 1ZM 4.68 0C 4.68 0.552285 4.23229 1 3.68 1L 3.68 2C 4.78457 2 5.68 1.10457 5.68 0L 4.68 0ZM 1.5 1C 0.947715 1 0.5 0.552285 0.5 0L -0.5 0C -0.5 1.10457 0.39543 2 1.5 2L 1.5 1Z"/>
<path id="path20_fill" fill-rule="evenodd" d="M 0 3C 0 1.34315 1.34315 0 3 0L 31 0C 32.6569 0 34 1.34315 34 3L 34 39C 34 40.6569 32.6569 42 31 42L 3 42C 1.34315 42 0 40.6569 0 39L 0 3Z"/>
<path id="path21_stroke" d="M 3 0.5L 31 0.5L 31 -0.5L 3 -0.5L 3 0.5ZM 33.5 3L 33.5 39L 34.5 39L 34.5 3L 33.5 3ZM 31 41.5L 3 41.5L 3 42.5L 31 42.5L 31 41.5ZM 0.5 39L 0.5 3L -0.5 3L -0.5 39L 0.5 39ZM 3 -0.5C 1.067 -0.5 -0.5 1.067 -0.5 3L 0.5 3C 0.5 1.61929 1.61929 0.5 3 0.5L 3 -0.5ZM 31 0.5C 32.3807 0.5 33.5 1.61929 33.5 3L 34.5 3C 34.5 1.067 32.933 -0.5 31 -0.5L 31 0.5ZM 33.5 39C 33.5 40.3807 32.3807 41.5 31 41.5L 31 42.5C 32.933 42.5 34.5 40.933 34.5 39L 33.5 39ZM 3 41.5C 1.61929 41.5 0.5 40.3807 0.5 39L -0.5 39C -0.5 40.933 1.067 42.5 3 42.5L 3 41.5Z"/>
<path id="path22_fill" fill-rule="evenodd" d="M 34 0L 34 5.46302C 34 6.15723 33.4312 6.72 32.7292 6.72L 1.27079 6.72C 0.568951 6.72 0 6.15803 0 5.46302L 0 0L 34 0Z"/>
<path id="path23_stroke" d="M 0 0L 0 -0.5C -0.276142 -0.5 -0.5 -0.276142 -0.5 1.11022e-16L 0 0ZM 33.5 0L 33.5 5.46302L 34.5 5.46302L 34.5 0L 33.5 0ZM 33.5 5.46302C 33.5 5.87599 33.1602 6.22 32.7292 6.22L 32.7292 7.22C 33.7022 7.22 34.5 6.43847 34.5 5.46302L 33.5 5.46302ZM 32.7292 6.22L 1.27079 6.22L 1.27079 7.22L 32.7292 7.22L 32.7292 6.22ZM 1.27079 6.22C 0.839719 6.22 0.5 5.87655 0.5 5.46302L -0.5 5.46302C -0.5 6.43952 0.298183 7.22 1.27079 7.22L 1.27079 6.22ZM 0.5 5.46302L 0.5 0L -0.5 0L -0.5 5.46302L 0.5 5.46302ZM 0 0.5L 34 0.5L 34 -0.5L 0 -0.5L 0 0.5Z"/>
<path id="path24_fill" fill-rule="evenodd" d="M 34 6.72L 34 1.25921C 34 0.564052 33.431 0 32.7292 0L 1.27079 0C 0.568797 0 0 0.563768 0 1.25921L 0 6.72L 34 6.72Z"/>
<path id="path25_stroke" d="M 0 6.72L -0.5 6.72C -0.5 6.99614 -0.276142 7.22 1.11022e-16 7.22L 0 6.72ZM 34.5 6.72L 34.5 1.25921L 33.5 1.25921L 33.5 6.72L 34.5 6.72ZM 34.5 1.25921C 34.5 0.283678 33.7029 -0.5 32.7292 -0.5L 32.7292 0.5C 33.1592 0.5 33.5 0.844425 33.5 1.25921L 34.5 1.25921ZM 32.7292 -0.5L 1.27079 -0.5L 1.27079 0.5L 32.7292 0.5L 32.7292 -0.5ZM 1.27079 -0.5C 0.296938 -0.5 -0.5 0.283361 -0.5 1.25921L 0.5 1.25921C 0.5 0.844175 0.840655 0.5 1.27079 0.5L 1.27079 -0.5ZM -0.5 1.25921L -0.5 6.72L 0.5 6.72L 0.5 1.25921L -0.5 1.25921ZM 0 7.22L 34 7.22L 34 6.22L 0 6.22L 0 7.22Z"/>
<path id="path26_fill" fill-rule="evenodd" d="M 1.275 2.52C 1.97916 2.52 2.55 1.95588 2.55 1.26C 2.55 0.564121 1.97916 0 1.275 0C 0.570837 0 0 0.564121 0 1.26C 0 1.95588 0.570837 2.52 1.275 2.52Z"/>
<path id="path27_stroke" d="M 1.275 3.02C 2.24971 3.02 3.05 2.23758 3.05 1.26L 2.05 1.26C 2.05 1.67417 1.70862 2.02 1.275 2.02L 1.275 3.02ZM 3.05 1.26C 3.05 0.282417 2.24971 -0.5 1.275 -0.5L 1.275 0.5C 1.70862 0.5 2.05 0.845826 2.05 1.26L 3.05 1.26ZM 1.275 -0.5C 0.30029 -0.5 -0.5 0.282417 -0.5 1.26L 0.5 1.26C 0.5 0.845826 0.841384 0.5 1.275 0.5L 1.275 -0.5ZM -0.5 1.26C -0.5 2.23758 0.30029 3.02 1.275 3.02L 1.275 2.02C 0.841384 2.02 0.5 1.67417 0.5 1.26L -0.5 1.26Z"/>
<path id="path28_fill" fill-rule="evenodd" d="M 0 0.42L 2.55 0.42L 0 0.42Z"/>
<path id="path29_stroke" d="M 0 -0.08C -0.276142 -0.08 -0.5 0.143858 -0.5 0.42C -0.5 0.696142 -0.276142 0.92 0 0.92L 0 -0.08ZM 2.55 0.92C 2.82614 0.92 3.05 0.696142 3.05 0.42C 3.05 0.143858 2.82614 -0.08 2.55 -0.08L 2.55 0.92ZM 0 0.92L 2.55 0.92L 2.55 -0.08L 0 -0.08L 0 0.92Z"/>
<path id="path30_fill" fill-rule="evenodd" d="M 11 5L 11 6.29419C 11 6.39343 10.9951 6.49146 10.9854 6.58826L 5.01465 6.58826C 5.00488 6.49146 5 6.39343 5 6.29419L 5 5C 5 3.34314 6.34277 2 8 2C 9.65723 2 11 3.34314 11 5ZM 3.00879 6.58826C 3.00293 6.49097 3 6.39294 3 6.29419L 3 5C 3 2.23853 5.23828 0 8 0C 10.7617 0 13 2.23853 13 5L 13 6.29419C 13 6.39294 12.9971 6.49097 12.9912 6.58826L 14 6.58826C 15.1045 6.58826 16 7.48364 16 8.58826L 16 14C 16 15.1046 15.1045 16 14 16L 2 16C 0.895508 16 0 15.1046 0 14L 0 8.58826C 0 7.48364 0.895508 6.58826 2 6.58826L 3.00879 6.58826Z"/>
</defs>
</svg>
