<svg width="90" height="111" viewBox="0 0 90 111" version="1.1" xmlns="http://www.w3.org/2000/svg" xmlns:xlink="http://www.w3.org/1999/xlink" xmlns:figma="http://www.figma.com/figma/ns">
<title>colloborate-img</title>
<desc>Created using Figma</desc>
<g id="Canvas" transform="translate(6305 1550)" figma:type="canvas">
<g id="colloborate-img" figma:type="frame">
<g id="Free-59-38-web-seo-internet-landing-page-startup-launch" figma:type="frame">
<g id="Layer 3" figma:type="vector">
<use xlink:href="#path0_fill" transform="translate(-6300.19 -1510.18)" fill="#D0F09B"/>
</g>
<g id="Layer 2" figma:type="vector">
<use xlink:href="#path1_stroke" transform="translate(-6304 -1511.87)"/>
</g>
<g id="Layer 3" figma:type="vector">
<use xlink:href="#path0_fill" transform="translate(-6250.6 -1510.18)" fill="#D0F09B"/>
</g>
<g id="Layer 4" figma:type="vector">
<use xlink:href="#path1_stroke" transform="translate(-6254.84 -1511.87)"/>
</g>
<g id="Layer 6" figma:type="vector">
<use xlink:href="#path2_stroke" transform="translate(-6286.2 -1534.75)"/>
</g>
<g id="Ellipse 9" figma:type="ellipse">
<use xlink:href="#path3_fill" transform="translate(-6275.18 -1550)" fill="#F5F5F7"/>
<mask id="mask0_outline_ins">
<use xlink:href="#path3_fill" fill="white" transform="translate(-6275.18 -1550)"/>
</mask>
<g mask="url(#mask0_outline_ins)">
<use xlink:href="#path4_stroke_2x" transform="translate(-6275.18 -1550)"/>
</g>
</g>
<g id="Layer 7" figma:type="vector">
<use xlink:href="#path5_stroke" transform="matrix(0.774846 -0.632149 0.632415 0.774629 -6242 -1521.96)"/>
</g>
<g id="Layer 8" figma:type="vector">
<use xlink:href="#path6_stroke" transform="translate(-6285.78 -1461.88)"/>
</g>
<g id="Ellipse 9" figma:type="ellipse">
<use xlink:href="#path3_fill" transform="translate(-6275.18 -1466.11)" fill="#F5F5F7"/>
<mask id="mask1_outline_ins">
<use xlink:href="#path3_fill" fill="white" transform="translate(-6275.18 -1466.11)"/>
</mask>
<g mask="url(#mask1_outline_ins)">
<use xlink:href="#path4_stroke_2x" transform="translate(-6275.18 -1466.11)"/>
</g>
</g>
<g id="Layer 9" figma:type="vector">
<use xlink:href="#path7_stroke" transform="matrix(0.971291 0.237894 -0.237894 0.971291 -6286.19 -1462.75)"/>
</g>
</g>
<g id="protect - black" figma:type="vector-operation">
<use xlink:href="#path8_fill" transform="translate(-6268.4 -1544.07)"/>
</g>
<g id="protect - black" figma:type="vector-operation">
<use xlink:href="#path9_fill" transform="translate(-6268.4 -1459.34)"/>
</g>
</g>
</g>
<defs>
<path id="path0_fill" fill-rule="evenodd" d="M 10.3787 12.5853C 10.0509 12.793 9.43335 14.097 9.71273 15.2411C 10.1282 16.9425 11.6061 17.6066 11.6061 17.6066C 11.6061 17.6066 13.9183 20.7485 13.9183 22.5757C 13.9183 24.4028 13.9183 25.1127 13.2987 26.6371C 12.679 28.1614 0.516349 29.9887 0 38.9751L 17.7028 38.9751L 35.6 38.9771C 35.0836 29.9906 22.921 28.1634 22.3013 26.639C 21.6817 25.1147 21.6817 24.4048 21.6817 22.5776C 21.6817 20.7504 23.9938 17.6085 23.9938 17.6085C 23.9938 17.6085 25.4718 16.9445 25.8873 15.243C 26.1667 14.099 25.5491 12.795 25.2213 12.5873C 26.0975 9.8356 27.8476 0.349344 17.8972 0.00744052C 17.853 0.000976651 17.8089 0.00213049 17.7652 0.00346024C 7.75242 0.347381 9.50246 9.83364 10.3787 12.5853Z"/>
<path id="path1_stroke" d="M 10.3787 12.5853L 10.914 13.43C 11.2979 13.1866 11.4695 12.715 11.3316 12.2819L 10.3787 12.5853ZM 9.71273 15.2411L 10.6842 15.0038L 9.71273 15.2411ZM 11.6061 17.6066L 12.4116 17.0139C 12.3094 16.8751 12.1732 16.765 12.016 16.6944L 11.6061 17.6066ZM 0 38.9751L -0.998353 38.9178C -1.01414 39.1925 -0.91602 39.4616 -0.727105 39.6617C -0.53819 39.8617 -0.275175 39.9751 0 39.9751L 0 38.9751ZM 17.7028 38.9751L 17.7029 37.9751L 17.7028 37.9751L 17.7028 38.9751ZM 35.6 38.9771L 35.5999 39.9771C 35.8751 39.9771 36.1381 39.8638 36.3271 39.6637C 36.516 39.4636 36.6141 39.1945 36.5984 38.9197L 35.6 38.9771ZM 23.9938 17.6085L 23.584 16.6964C 23.4268 16.767 23.2906 16.877 23.1884 17.0158L 23.9938 17.6085ZM 25.8873 15.243L 24.9158 15.0058L 25.8873 15.243ZM 25.2213 12.5873L 24.2684 12.2838C 24.1305 12.717 24.3021 13.1886 24.686 13.4319L 25.2213 12.5873ZM 17.8972 0.00744052L 17.7526 0.99693C 17.7891 1.00227 17.8259 1.00558 17.8628 1.00685L 17.8972 0.00744052ZM 17.7652 0.00346024L 17.7348 -0.996087L 17.7308 -0.99595L 17.7652 0.00346024ZM 9.84341 11.7406C 9.55121 11.9258 9.35187 12.2216 9.23517 12.4199C 9.11008 12.6353 8.96593 12.9529 8.86675 13.2537C 8.68287 13.8336 8.57434 14.7201 8.74128 15.4783L 10.6842 15.0038C 10.6023 14.6686 10.645 14.254 10.7693 13.8704C 10.8305 13.6762 10.8848 13.5574 10.959 13.4341C 11.0415 13.2938 11.0423 13.3487 10.914 13.43L 9.84341 11.7406ZM 8.74128 15.4783C 9.02321 16.5333 9.66685 17.3698 10.1469 17.8057C 10.4069 18.0365 10.6787 18.2259 10.8464 18.329C 10.9393 18.3856 11.0289 18.435 11.0797 18.4615C 11.1094 18.477 11.1391 18.4917 11.1544 18.4991C 11.1642 18.5038 11.1748 18.5088 11.1797 18.5111C 11.1832 18.5127 11.1874 18.5147 11.1891 18.5155C 11.1905 18.5161 11.1923 18.5169 11.193 18.5172C 11.1936 18.5175 11.1944 18.5179 11.1947 18.518C 11.195 18.5181 11.1954 18.5183 11.1955 18.5184C 11.1959 18.5186 11.1963 18.5187 11.6061 17.6066C 12.016 16.6944 12.0164 16.6946 12.0167 16.6948C 12.0169 16.6948 12.0172 16.695 12.0175 16.6951C 12.0172 16.695 12.0192 16.6959 12.0188 16.6957C 12.0184 16.6955 12.0217 16.697 12.0211 16.6967C 12.0207 16.6966 12.0248 16.6984 12.0241 16.6981C 12.0248 16.6984 12.0257 16.6989 12.0245 16.6983C 12.018 16.6952 12.0155 16.6939 12.0039 16.6879C 11.9723 16.6715 11.9432 16.6557 11.891 16.6235C 11.7686 16.5489 11.6451 16.4659 11.4837 16.3181C 11.1208 15.9965 10.8177 15.6503 10.6842 15.0038L 8.74128 15.4783ZM 11.6061 17.6066C 10.8007 18.1993 10.8007 18.1992 10.8006 18.1991C 10.8006 18.1991 10.8005 18.199 10.8005 18.199C 10.8005 18.199 10.8005 18.1989 10.8005 18.199C 10.8007 18.1992 10.8008 18.1993 10.8011 18.1998C 10.802 18.201 10.803 18.2024 10.8047 18.2048C 10.8087 18.2101 10.8138 18.2172 10.8213 18.2276C 10.8373 18.2498 10.8592 18.2803 10.8888 18.3222C 10.9499 18.4086 11.0333 18.5285 11.137 18.6832C 11.3483 18.998 11.6179 19.4171 11.8935 19.9012C 12.4813 20.9323 12.9183 21.96 12.9183 22.5757L 14.9183 22.5757C 14.9183 21.3641 14.1992 19.9073 13.6309 18.9106C 13.3285 18.3809 13.0201 17.9003 12.7979 17.5689C 12.6848 17.4004 12.5876 17.2606 12.5222 17.1681C 12.4886 17.1205 12.4608 17.0818 12.4429 17.057C 12.4335 17.044 12.4257 17.0331 12.4208 17.0265C 12.4182 17.0229 12.4159 17.0197 12.4145 17.0179C 12.4138 17.0169 12.413 17.0158 12.4126 17.0153C 12.4124 17.015 12.4121 17.0146 12.412 17.0144C 12.4119 17.0143 12.4118 17.0142 12.4118 17.0141C 12.4117 17.014 12.4116 17.0139 11.6061 17.6066ZM 12.9183 22.5757C 12.9183 24.3747 12.9159 24.923 12.3723 26.2605L 14.2251 27.0136C 14.9206 25.3024 14.9183 24.431 14.9183 22.5757L 12.9183 22.5757ZM 12.3723 26.2605C 12.4271 26.1256 12.4957 26.0928 12.4254 26.1494C 12.349 26.2133 12.2621 26.2664 12.0932 26.3575C 11.7378 26.5516 11.253 26.7633 10.6402 27.0242C 9.41133 27.5475 7.76881 28.2211 6.12443 29.1339C 2.84717 30.9572 -0.710082 33.9007 -0.998353 38.9178L 0.998353 39.0325C 1.22643 35.0631 4.00871 32.5997 7.09678 30.8817C 8.63507 30.0238 10.1817 29.3932 11.4237 28.8643C 12.0464 28.5991 12.6175 28.3477 13.0478 28.115C 13.2718 27.9928 13.5103 27.8415 13.6803 27.7067C 13.8566 27.5647 14.0928 27.3391 14.2251 27.0136L 12.3723 26.2605ZM 0 39.9751L 17.7028 39.9751L 17.7028 37.9751L 0 37.9751L 0 39.9751ZM 17.7027 39.9751L 35.5999 39.9771L 35.6001 37.9771L 17.7029 37.9751L 17.7027 39.9751ZM 36.5984 38.9197C 36.3101 33.9027 32.7528 30.9592 29.4756 29.1359C 27.8312 28.2231 26.1887 27.5494 24.9598 27.0261C 24.347 26.7652 23.8622 26.5536 23.5068 26.3595C 23.3379 26.2683 23.251 26.2152 23.1746 26.1514C 23.1043 26.0948 23.1729 26.1275 23.2277 26.2625L 21.3749 27.0156C 21.5072 27.3411 21.7434 27.5667 21.9197 27.7087C 22.0897 27.8435 22.3282 27.9947 22.5522 28.117C 22.9825 28.3497 23.5536 28.6011 24.1763 28.8663C 25.4183 29.3951 26.9649 30.0258 28.5032 30.8836C 31.5913 32.6017 34.3736 35.065 34.6016 39.0345L 36.5984 38.9197ZM 23.2277 26.2625C 22.6841 24.9249 22.6817 24.3766 22.6817 22.5776L 20.6817 22.5776C 20.6817 24.433 20.6794 25.3044 21.3749 27.0156L 23.2277 26.2625ZM 22.6817 22.5776C 22.6817 21.9619 23.1187 20.9342 23.7065 19.9032C 23.9821 19.419 24.2517 19 24.463 18.6851C 24.5667 18.5305 24.6501 18.4106 24.7112 18.3242C 24.7408 18.2822 24.7627 18.2517 24.7787 18.2296C 24.7862 18.2191 24.7913 18.2121 24.7953 18.2067C 24.797 18.2043 24.798 18.203 24.7989 18.2018C 24.7992 18.2013 24.7993 18.2012 24.7995 18.2009C 24.7995 18.2009 24.7995 18.2009 24.7995 18.2009C 24.7995 18.201 24.7994 18.201 24.7994 18.2011C 24.7993 18.2011 24.7993 18.2012 23.9938 17.6085C 23.1884 17.0158 23.1883 17.0159 23.1882 17.0161C 23.1882 17.0161 23.1881 17.0163 23.188 17.0164C 23.1879 17.0166 23.1876 17.0169 23.1874 17.0173C 23.187 17.0178 23.1862 17.0188 23.1855 17.0199C 23.1841 17.0217 23.1818 17.0249 23.1792 17.0285C 23.1743 17.0351 23.1665 17.0459 23.1571 17.0589C 23.1392 17.0837 23.1114 17.1225 23.0778 17.1701C 23.0124 17.2626 22.9152 17.4024 22.8021 17.5709C 22.5799 17.9023 22.2715 18.3829 21.9691 18.9126C 21.4008 19.9093 20.6817 21.3661 20.6817 22.5776L 22.6817 22.5776ZM 23.9938 17.6085C 24.4037 18.5207 24.4041 18.5205 24.4045 18.5203C 24.4046 18.5203 24.405 18.5201 24.4053 18.52C 24.4056 18.5198 24.4064 18.5195 24.407 18.5192C 24.4077 18.5189 24.4095 18.5181 24.4109 18.5174C 24.4126 18.5166 24.4168 18.5147 24.4203 18.5131C 24.4252 18.5108 24.4358 18.5058 24.4456 18.5011C 24.4609 18.4936 24.4906 18.4789 24.5203 18.4635C 24.5711 18.437 24.6607 18.3875 24.7536 18.3309C 24.9213 18.2278 25.1931 18.0385 25.4531 17.8076C 25.9331 17.3718 26.5768 16.5352 26.8587 15.4803L 24.9158 15.0058C 24.7823 15.6523 24.4792 15.9985 24.1163 16.32C 23.9549 16.4679 23.8314 16.5509 23.709 16.6254C 23.6568 16.6577 23.6277 16.6734 23.5961 16.6899C 23.5845 16.6959 23.582 16.6971 23.5755 16.7003C 23.5743 16.7008 23.5752 16.7004 23.5759 16.7001C 23.5752 16.7004 23.5793 16.6985 23.5789 16.6987C 23.5783 16.699 23.5816 16.6975 23.5812 16.6976C 23.5808 16.6978 23.5828 16.6969 23.5825 16.697C 23.5828 16.6969 23.5831 16.6968 23.5833 16.6967C 23.5836 16.6965 23.584 16.6964 23.9938 17.6085ZM 26.8587 15.4803C 27.0257 14.7221 26.9171 13.8355 26.7333 13.2557C 26.6341 12.9549 26.4899 12.6372 26.3648 12.4219C 26.2481 12.2235 26.0488 11.9278 25.7566 11.7426L 24.686 13.4319C 24.5577 13.3506 24.5585 13.2957 24.641 13.4361C 24.7152 13.5594 24.7694 13.6782 24.8307 13.8724C 24.955 14.2559 24.9977 14.6705 24.9158 15.0058L 26.8587 15.4803ZM 26.1741 12.8907C 26.6347 11.4443 27.3526 8.17236 26.5888 5.14878C 26.2046 3.65659 25.3556 2.0745 23.9886 0.950454C 22.5604 -0.195796 20.58 -0.900966 17.9315 -0.99197L 17.8628 1.00685C 20.1896 1.0868 21.7218 1.69563 22.7367 2.5102C 23.8126 3.34698 24.3371 4.37254 24.6497 5.63861C 25.2794 8.13155 24.6841 10.9785 24.2684 12.2838L 26.1741 12.8907ZM 18.0418 -0.982049C 17.9124 -0.997257 17.7807 -0.997469 17.7348 -0.996079L 17.7955 1.003C 17.8065 1.00267 17.8118 1.00253 17.8157 1.00246C 17.8192 1.00239 17.8184 1.00245 17.8149 1.0024C 17.8083 1.00229 17.7852 1.0017 17.7526 0.99693L 18.0418 -0.982049ZM 17.7308 -0.99595C 15.068 -0.904487 13.077 -0.199617 11.6404 0.94555C 10.2641 2.06935 9.4082 3.65141 9.01967 5.14401C 8.24701 8.16919 8.96529 11.4424 9.42585 12.8887L 11.3316 12.2819C 10.9159 10.9765 10.321 8.1308 10.9575 5.63894C 11.2735 4.37303 11.8027 3.34706 12.887 2.50948C 13.911 1.69325 15.4559 1.08337 17.7995 1.00287L 17.7308 -0.99595Z"/>
<path id="path2_stroke" d="M -0.864894 11.3606C -1.14212 11.8383 -0.979622 12.4503 -0.501954 12.7275C -0.0242864 13.0047 0.587672 12.8422 0.864894 12.3645L -0.864894 11.3606ZM 47.8599 12.3409C 48.1241 12.8259 48.7314 13.0049 49.2164 12.7408C 49.7014 12.4766 49.8804 11.8693 49.6163 11.3843L 47.8599 12.3409ZM 0 11.8626C 0.864894 12.3645 0.864646 12.365 0.864425 12.3654C 0.864386 12.3654 0.864189 12.3658 0.864111 12.3659C 0.864084 12.3659 0.863898 12.3663 0.863949 12.3662C 0.864419 12.3654 0.86456 12.3651 0.865495 12.3636C 0.868112 12.3591 0.870877 12.3545 0.876107 12.3458C 0.88809 12.326 0.903632 12.3006 0.927695 12.2625C 0.979001 12.181 1.05076 12.0702 1.15465 11.9191C 1.36935 11.6064 1.6805 11.1792 2.12209 10.6473C 3.02145 9.56145 4.3529 8.16084 6.2564 6.72976C 10.0368 3.87929 15.9746 1 24.581 1L 24.581 -1C 15.491 -1 9.13826 2.05201 5.05231 5.13283C 3.02262 6.6674 1.52689 8.23244 0.582367 9.37085C 0.102019 9.95104 -0.262944 10.4507 -0.493878 10.7867C -0.612799 10.96 -0.706235 11.104 -0.764419 11.1963C -0.795101 11.245 -0.820378 11.2862 -0.835528 11.3113C -0.843864 11.3251 -0.851244 11.3375 -0.855381 11.3444C -0.857821 11.3486 -0.860209 11.3526 -0.861424 11.3547C -0.862215 11.356 -0.863085 11.3575 -0.86348 11.3582C -0.863769 11.3587 -0.864123 11.3593 -0.864267 11.3596C -0.864594 11.3601 -0.864894 11.3606 0 11.8626ZM 24.581 1C 33.1861 1 39.0136 3.87833 42.6831 6.72176C 44.5322 8.15003 45.8093 9.54615 46.6687 10.6305C 47.0903 11.1612 47.3848 11.5864 47.5879 11.8986C 47.6861 12.0491 47.7534 12.1591 47.8016 12.2403C 47.8241 12.2782 47.8386 12.3032 47.8498 12.3229C 47.8546 12.3314 47.8571 12.3359 47.8595 12.3403C 47.8604 12.3418 47.8605 12.3419 47.8609 12.3427C 47.8609 12.3428 47.8607 12.3424 47.8607 12.3423C 47.8606 12.3422 47.8604 12.3418 47.8604 12.3417C 47.8601 12.3413 47.8599 12.3409 48.7381 11.8626C 49.6163 11.3843 49.616 11.3838 49.6157 11.3832C 49.6155 11.3829 49.6152 11.3823 49.6149 11.3818C 49.6145 11.3811 49.6137 11.3796 49.6129 11.3782C 49.6118 11.3761 49.6095 11.3719 49.6072 11.3677C 49.6032 11.3607 49.5962 11.3481 49.5883 11.3342C 49.574 11.309 49.5499 11.2674 49.5208 11.2184C 49.4658 11.1259 49.377 10.981 49.2639 10.8072C 49.0446 10.4706 48.6961 9.96906 48.2355 9.38759C 47.3305 8.24775 45.8863 6.67822 43.9082 5.14084C 39.9232 2.05297 33.6721 -1 24.581 -1L 24.581 1Z"/>
<path id="path3_fill" d="M 27.1238 13.5573C 27.1238 21.0447 21.0519 27.1145 13.5619 27.1145C 6.07187 27.1145 0 21.0447 0 13.5573C 0 6.06979 6.07187 0 13.5619 0C 21.0519 0 27.1238 6.06979 27.1238 13.5573Z"/>
<path id="path4_stroke_2x" d="M 25.1238 13.5573C 25.1238 19.9395 19.948 25.1145 13.5619 25.1145L 13.5619 29.1145C 22.1559 29.1145 29.1238 22.1499 29.1238 13.5573L 25.1238 13.5573ZM 13.5619 25.1145C 7.17579 25.1145 2 19.9395 2 13.5573L -2 13.5573C -2 22.1499 4.96795 29.1145 13.5619 29.1145L 13.5619 25.1145ZM 2 13.5573C 2 7.175 7.17579 2 13.5619 2L 13.5619 -2C 4.96795 -2 -2 4.96457 -2 13.5573L 2 13.5573ZM 13.5619 2C 19.948 2 25.1238 7.175 25.1238 13.5573L 29.1238 13.5573C 29.1238 4.96457 22.1559 -2 13.5619 -2L 13.5619 2Z"/>
<path id="path5_stroke" d="M 0.707107 -0.707107C 0.316583 -1.09763 -0.316583 -1.09763 -0.707107 -0.707107C -1.09763 -0.316583 -1.09763 0.316583 -0.707107 0.707107L 0.707107 -0.707107ZM 3.98603 3.98603L 3.27892 4.69314C 3.66945 5.08366 4.30261 5.08366 4.69314 4.69314L 3.98603 3.98603ZM 8.67916 0.707107C 9.06969 0.316583 9.06969 -0.316583 8.67916 -0.707107C 8.28864 -1.09763 7.65547 -1.09763 7.26495 -0.707107L 8.67916 0.707107ZM -0.707107 0.707107L 3.27892 4.69314L 4.69314 3.27892L 0.707107 -0.707107L -0.707107 0.707107ZM 4.69314 4.69314L 8.67916 0.707107L 7.26495 -0.707107L 3.27892 3.27892L 4.69314 4.69314Z"/>
<path id="path6_stroke" d="M 49.603 0.501954C 49.8802 0.0242864 49.7177 -0.587672 49.24 -0.864894C 48.7624 -1.14212 48.1504 -0.979622 47.8732 -0.501954L 49.603 0.501954ZM 0.878197 -0.4783C 0.614039 -0.963314 0.00671498 -1.14235 -0.4783 -0.878197C -0.963314 -0.614039 -1.14235 -0.00671498 -0.878197 0.4783L 0.878197 -0.4783ZM 48.7381 0C 47.8732 -0.501954 47.8734 -0.502381 47.8737 -0.502762C 47.8737 -0.502829 47.8739 -0.503167 47.874 -0.503302C 47.874 -0.503346 47.8742 -0.503665 47.8741 -0.503579C 47.8737 -0.502776 47.8735 -0.502535 47.8726 -0.500957C 47.87 -0.496536 47.8672 -0.491892 47.862 -0.483248C 47.85 -0.463414 47.8345 -0.438024 47.8104 -0.39987C 47.7591 -0.318406 47.6873 -0.20757 47.5834 -0.0564834C 47.3687 0.256243 47.0576 0.683387 46.616 1.21532C 45.7166 2.30114 44.3852 3.70175 42.4817 5.13283C 38.7012 7.98331 32.7635 10.8626 24.1571 10.8626L 24.1571 12.8626C 33.2471 12.8626 39.5998 9.81058 43.6858 6.72976C 45.7155 5.19519 47.2112 3.63016 48.1557 2.49174C 48.6361 1.91156 49.001 1.41193 49.232 1.07593C 49.3509 0.902644 49.4443 0.758619 49.5025 0.666315C 49.5332 0.617584 49.5585 0.576364 49.5736 0.551308C 49.582 0.537506 49.5893 0.525136 49.5935 0.518153C 49.5959 0.514029 49.5983 0.509971 49.5995 0.5079C 49.6003 0.50655 49.6012 0.505061 49.6016 0.504385C 49.6019 0.503889 49.6022 0.503281 49.6024 0.503033C 49.6027 0.502471 49.603 0.501954 48.7381 0ZM 24.1571 10.8626C 15.552 10.8626 9.72448 7.98427 6.05496 5.14084C 4.20591 3.71257 2.92883 2.31645 2.06944 1.23206C 1.64784 0.701405 1.35329 0.276159 1.15016 -0.0359705C 1.05203 -0.186499 0.984737 -0.296509 0.936501 -0.377707C 0.913953 -0.415603 0.89954 -0.440611 0.888337 -0.46032C 0.883486 -0.46884 0.88099 -0.473301 0.878565 -0.477661C 0.877719 -0.479178 0.877637 -0.47933 0.877212 -0.480102C 0.877181 -0.480158 0.877396 -0.479766 0.877413 -0.479735C 0.877495 -0.479586 0.877691 -0.479226 0.877732 -0.479152C 0.877952 -0.478748 0.878197 -0.4783 0 0C -0.878197 0.4783 -0.877903 0.478839 -0.877584 0.479423C -0.877445 0.479678 -0.8771 0.480308 -0.876821 0.480819C -0.876442 0.48151 -0.875601 0.483043 -0.874841 0.484424C -0.873684 0.486525 -0.871392 0.490672 -0.869065 0.494857C -0.865144 0.5019 -0.858103 0.514455 -0.850189 0.528379C -0.835863 0.55356 -0.811837 0.595164 -0.782744 0.644152C -0.727698 0.736722 -0.638898 0.881573 -0.52581 1.05541C -0.306485 1.39202 0.0419699 1.89354 0.502574 2.475C 1.4076 3.61485 2.85175 5.18438 4.82994 6.72176C 8.81491 9.80963 15.066 12.8626 24.1571 12.8626L 24.1571 10.8626Z"/>
<path id="path7_stroke" d="M 7 1C 7.55228 1 8 0.552285 8 0C 8 -0.552285 7.55228 -1 7 -1L 7 1ZM 0 0L 0 -1C -0.552285 -1 -1 -0.552285 -1 2.22045e-16L 0 0ZM -1 6C -1 6.55228 -0.552285 7 0 7C 0.552285 7 1 6.55228 1 6L -1 6ZM 7 -1L 0 -1L 0 1L 7 1L 7 -1ZM -1 0L -1 6L 1 6L 1 0L -1 0Z"/>
<path id="path8_fill" fill-rule="evenodd" d="M 9.01904 4.23804L 9.01904 5.33179C 9.01904 5.4165 9.01465 5.50012 9.00537 5.5824L 4.55664 5.5824C 4.54736 5.50012 4.54297 5.4165 4.54297 5.33179L 4.54297 4.23804C 4.54297 3.00208 5.54492 2 6.78125 2C 8.01709 2 9.01904 3.00208 9.01904 4.23804ZM 2.55029 5.5824C 2.54541 5.49951 2.54297 5.41589 2.54297 5.33179L 2.54297 4.23804C 2.54297 1.89746 4.44043 0 6.78125 0C 9.12158 0 11.019 1.89746 11.019 4.23804L 11.019 5.33179C 11.019 5.41589 11.0166 5.49951 11.0117 5.5824L 11.562 5.5824C 12.6665 5.5824 13.562 6.47778 13.562 7.5824L 13.562 11.5573C 13.562 12.6619 12.6665 13.5573 11.562 13.5573L 2 13.5573C 0.895508 13.5573 0 12.6619 0 11.5573L 0 7.5824C 0 6.47778 0.895508 5.5824 2 5.5824L 2.55029 5.5824Z"/>
<path id="path9_fill" fill-rule="evenodd" d="M 9.01904 4.23804L 9.01904 5.33179C 9.01904 5.4165 9.01465 5.50024 9.00537 5.58252L 4.55664 5.58252C 4.54736 5.50024 4.54297 5.4165 4.54297 5.33179L 4.54297 4.23804C 4.54297 3.00208 5.54492 2 6.78125 2C 8.01709 2 9.01904 3.00208 9.01904 4.23804ZM 2.55029 5.58252C 2.54541 5.49951 2.54297 5.41602 2.54297 5.33179L 2.54297 4.23804C 2.54297 1.89746 4.44043 0 6.78125 0C 9.12158 0 11.019 1.89746 11.019 4.23804L 11.019 5.33179C 11.019 5.41602 11.0166 5.49951 11.0117 5.58252L 11.562 5.58252C 12.6665 5.58252 13.562 6.47791 13.562 7.58252L 13.562 11.5574C 13.562 12.662 12.6665 13.5574 11.562 13.5574L 2 13.5574C 0.895508 13.5574 0 12.662 0 11.5574L 0 7.58252C 0 6.47791 0.895508 5.58252 2 5.58252L 2.55029 5.58252Z"/>
</defs>
</svg>
