<?xml version="1.0" encoding="utf-8"?>
<!-- Generator: Adobe Illustrator 15.1.0, SVG Export Plug-In . SVG Version: 6.00 Build 0)  -->
<!DOCTYPE svg PUBLIC "-//W3C//DTD SVG 1.1//EN" "http://www.w3.org/Graphics/SVG/1.1/DTD/svg11.dtd">
<svg version="1.1" id="Layer_1" xmlns="http://www.w3.org/2000/svg" xmlns:xlink="http://www.w3.org/1999/xlink" x="0px" y="0px"
	 width="24px" height="24px" viewBox="0 0 32 32" enable-background="new 0 0 32 32" xml:space="preserve">
<g>
	<rect x="2.57" y="4.716" width="2.296" height="1.5"/>
</g>
<g>
	<rect x="11.839" y="4.716" width="17.591" height="1.5"/>
</g>
<g>
	<rect x="2.57" y="15.423" width="16.129" height="1.5"/>
</g>
<g>
	<rect x="24.432" y="15.423" width="4.998" height="1.5"/>
</g>
<g>
	<rect x="2.57" y="26.273" width="7.264" height="1.5"/>
</g>
<g>
	<rect x="15.223" y="26.273" width="14.207" height="1.5"/>
</g>
<g>
	<path d="M8.342,9.12c-2.015,0-3.654-1.639-3.654-3.654c0-2.015,1.639-3.654,3.654-3.654c2.015,0,3.654,1.639,3.654,3.654
		C11.996,7.481,10.357,9.12,8.342,9.12z M8.342,3.312c-1.188,0-2.154,0.966-2.154,2.154c0,1.188,0.966,2.154,2.154,2.154
		c1.188,0,2.154-0.966,2.154-2.154C10.496,4.278,9.53,3.312,8.342,3.312z"/>
</g>
<g>
	<path d="M12.542,30.676c-2.015,0-3.654-1.64-3.654-3.654s1.639-3.653,3.654-3.653s3.654,1.639,3.654,3.653
		S14.557,30.676,12.542,30.676z M12.542,24.868c-1.188,0-2.154,0.966-2.154,2.153s0.966,2.154,2.154,2.154s2.154-0.967,2.154-2.154
		S13.729,24.868,12.542,24.868z"/>
</g>
<g>
	<path d="M21.244,19.827c-2.015,0-3.654-1.64-3.654-3.654s1.64-3.654,3.654-3.654s3.654,1.639,3.654,3.654
		S23.259,19.827,21.244,19.827z M21.244,14.019c-1.188,0-2.154,0.966-2.154,2.154s0.967,2.154,2.154,2.154s2.154-0.967,2.154-2.154
		S22.432,14.019,21.244,14.019z"/>
</g>
</svg>
