<?xml version="1.0" encoding="utf-8"?>
<!-- Generator: Adobe Illustrator 15.1.0, SVG Export Plug-In . SVG Version: 6.00 Build 0)  -->
<!DOCTYPE svg PUBLIC "-//W3C//DTD SVG 1.1//EN" "http://www.w3.org/Graphics/SVG/1.1/DTD/svg11.dtd">
<svg version="1.1" id="Layer_1" xmlns="http://www.w3.org/2000/svg" xmlns:xlink="http://www.w3.org/1999/xlink" x="0px" y="0px"
	 width="24px" height="24px" viewBox="0 0 32 32" enable-background="new 0 0 32 32" xml:space="preserve">
<path fill="#00A14B" d="M30.881,10.117l-14.46,13.608l-2.719,2.721c-0.361,0.358-0.856,0.56-1.356,0.56
	c-0.501,0-1.002-0.2-1.358-0.56l-2.719-2.721L1.042,17.35c-0.361-0.363-0.559-0.862-0.559-1.36c0-0.496,0.198-0.998,0.559-1.359
	l2.146-2.146c0.361-0.362,0.862-0.56,1.357-0.56c0.5,0,1.001,0.198,1.363,0.56l6.438,5.32L26.014,5.251
	c0.361-0.359,0.857-0.56,1.357-0.56s1.002,0.201,1.356,0.56l2.152,2.152c0.354,0.358,0.56,0.856,0.56,1.356
	C31.439,9.262,31.236,9.758,30.881,10.117z"/>
</svg>
