<?xml version="1.0" encoding="utf-8"?>
<!-- Generator: Adobe Illustrator 15.1.0, SVG Export Plug-In . SVG Version: 6.00 Build 0)  -->
<!DOCTYPE svg PUBLIC "-//W3C//DTD SVG 1.1//EN" "http://www.w3.org/Graphics/SVG/1.1/DTD/svg11.dtd">
<svg version="1.1" id="Layer_1" xmlns="http://www.w3.org/2000/svg" xmlns:xlink="http://www.w3.org/1999/xlink" x="0px" y="0px"
	 width="24px" height="24px" viewBox="0 0 32 32" enable-background="new 0 0 32 32" xml:space="preserve">
<path fill="#010101" d="M21.878,18.918h-4.34v4.377h-3.077v-4.377h-4.339v-3.052h4.339v-4.34h3.077v4.34h4.34V18.918z
	 M30.061,26.116H2.655c-0.928,0-1.772-0.835-1.772-1.751V5.862c0-1.25,1.334-1.25,1.772-1.25h8.487l3.066,3.001h15.545
	c0.61,0,1.261,0.438,1.261,1.249v15.503c0,0.779-0.613,1.417-0.736,1.537L30.061,26.116z M2.383,6.116v18.213
	c0.003,0.12,0.169,0.287,0.272,0.287h26.744c0.066-0.103,0.115-0.2,0.115-0.251V9.113H13.627l-0.25-0.214L10.53,6.112H2.655
	C2.579,6.112,2.475,6.112,2.383,6.116z"/>
</svg>
