<svg width="240" height="130" viewBox="0 0 240 130" version="1.1" xmlns="http://www.w3.org/2000/svg" xmlns:xlink="http://www.w3.org/1999/xlink">
<title>Group</title>
<desc>Created using Figma</desc>
<g id="Canvas" transform="translate(339 -2878)">
<g id="Group">
<g id="Rectangle 68">
<use xlink:href="#path0_fill" transform="translate(-339 2878)" fill="#CDEEDB"/>
</g>
<g id="user">
<g id="cont" opacity="0.01">
<use xlink:href="#path1_fill" transform="translate(-211 2882)" fill="url(#paint1_linear)" fill-opacity="0.14"/>
</g>
<g id="Oval 26">
<use xlink:href="#path2_fill" transform="translate(-174.523 2906.32)" fill="url(#paint2_linear)" fill-opacity="0.14"/>
</g>
<g id="Oval 28">
<use xlink:href="#path3_fill" transform="translate(-198.841 2935.91)" fill="url(#paint3_linear)" fill-opacity="0.14"/>
</g>
<g id="Path 187">
<use xlink:href="#path4_fill" transform="matrix(-1 0 0 1 -140.477 2886.86)" fill="url(#paint4_linear)" fill-opacity="0.14"/>
</g>
<g id="Oval 43">
<use xlink:href="#path5_fill" transform="translate(-164.795 2903.89)" fill="url(#paint5_linear)" fill-opacity="0.14"/>
</g>
<g id="Oval 43">
<use xlink:href="#path6_fill" transform="translate(-172.585 2899.99)" fill="url(#paint6_linear)" fill-opacity="0.14"/>
</g>
</g>
</g>
</g>
<defs>
<linearGradient id="paint1_linear" x1="0" y1="0" x2="1" y2="0" gradientUnits="userSpaceOnUse" gradientTransform="matrix(6.55186e-15 107 -107 6.55186e-15 107 -6.55186e-15)">
<stop offset="0" stop-color="#6FCF97"/>
<stop offset="1" stop-color="#6FCF97" stop-opacity="0"/>
</linearGradient>
<linearGradient id="paint2_linear" x1="0" y1="0" x2="1" y2="0" gradientUnits="userSpaceOnUse" gradientTransform="matrix(2.08468e-15 26.75 -34.0455 1.63797e-15 34.0455 -1.63797e-15)">
<stop offset="0" stop-color="#6FCF97"/>
<stop offset="1" stop-color="#6FCF97" stop-opacity="0"/>
</linearGradient>
<linearGradient id="paint3_linear" x1="0" y1="0" x2="1" y2="0" gradientUnits="userSpaceOnUse" gradientTransform="matrix(5.0628e-15 38.5857 -82.6818 2.36269e-15 82.6818 -2.36269e-15)">
<stop offset="0" stop-color="#6FCF97"/>
<stop offset="1" stop-color="#6FCF97" stop-opacity="0"/>
</linearGradient>
<linearGradient id="paint4_linear" x1="0" y1="0" x2="1" y2="0" gradientUnits="userSpaceOnUse" gradientTransform="matrix(2.08468e-15 21.8864 -34.0455 1.34015e-15 34.0455 -1.34015e-15)">
<stop offset="0" stop-color="#6FCF97"/>
<stop offset="1" stop-color="#6FCF97" stop-opacity="0"/>
</linearGradient>
<linearGradient id="paint5_linear" x1="0" y1="0" x2="1" y2="0" gradientUnits="userSpaceOnUse" gradientTransform="matrix(1.48906e-15 9.72727 -24.3182 5.95624e-16 24.3182 -5.95624e-16)">
<stop offset="0" stop-color="#6FCF97"/>
<stop offset="1" stop-color="#6FCF97" stop-opacity="0"/>
</linearGradient>
<linearGradient id="paint6_linear" x1="0" y1="0" x2="1" y2="0" gradientUnits="userSpaceOnUse" gradientTransform="matrix(4.76996e-16 3.90078 -7.78993 2.38854e-16 7.78993 -2.38854e-16)">
<stop offset="0" stop-color="#6FCF97"/>
<stop offset="1" stop-color="#6FCF97" stop-opacity="0"/>
</linearGradient>
<path id="path0_fill" d="M 0 0L 240 0L 240 130L 0 130L 0 0Z"/>
<path id="path1_fill" fill-rule="evenodd" d="M 0 0L 107 0L 107 107L 0 107L 0 0Z"/>
<path id="path2_fill" fill-rule="evenodd" d="M 34.0455 2.43182L 34.0455 9.72727C 34.0455 19.1287 26.4241 26.75 17.0227 26.75C 7.62134 26.75 0 19.1287 0 9.72727L 0 0"/>
<path id="path3_fill" fill-rule="evenodd" d="M 27.0737 0L 41.3409 14.2673L 55.6081 0C 70.917 2.20166 82.6818 15.3718 82.6818 31.29L 82.6818 36.5857C 82.6818 37.6902 81.7864 38.5857 80.6818 38.5857L 41.3409 38.5857L 2 38.5857C 0.895432 38.5857 0 37.6902 0 36.5857L 0 31.29C 0 15.3718 11.7648 2.20166 27.0737 0Z"/>
<path id="path4_fill" fill-rule="evenodd" d="M 0 21.8864L 0 11.2955C 0 9.08632 1.79086 7.29545 4 7.29545L 9.72727 7.29545L 9.72727 0L 29.2222 3.89898C 32.0267 4.45988 34.0455 6.92237 34.0455 9.78246L 34.0455 21.8864"/>
<path id="path5_fill" fill-rule="evenodd" d="M 24.3182 9.72727C 24.3182 4.35505 19.9631 0 14.5909 0L 0 0"/>
<path id="path6_fill" fill-rule="evenodd" d="M 0 0C 1.7742 2.36826 4.6031 3.90078 7.78993 3.90078L 0 0Z"/>
</defs>
</svg>
