<svg width="12" height="12" viewBox="0 0 12 12" version="1.1" xmlns="http://www.w3.org/2000/svg" xmlns:xlink="http://www.w3.org/1999/xlink">
<title></title>
<desc>Created using Figma</desc>
<g id="Canvas" transform="translate(27858 -6921)">
<g id="">
<use xlink:href="#path0_fill" transform="translate(-27858 6921)" fill="#828282"/>
</g>
</g>
<defs>
<path id="path0_fill" d="M 6.00041 12C 2.69166 12 0 9.30834 0 5.99959C 0 2.69125 2.69166 0 6.00041 0C 9.30875 0 12 2.69125 12 5.99959C 12 9.30834 9.30875 12 6.00041 12ZM 6.00041 0.610169C 3.02807 0.610169 0.610169 3.02766 0.610169 5.99959C 0.610169 8.97193 3.02807 11.3898 6.00041 11.3898C 8.97275 11.3898 11.3898 8.97193 11.3898 5.99959C 11.3898 3.02766 8.97275 0.610169 6.00041 0.610169ZM 7.67593 9.13098C 7.47092 9.13098 7.27647 9.04922 7.12597 8.90075L 5.99919 7.77356L 4.872 8.89993C 4.57546 9.1981 4.05966 9.19281 3.76597 8.90034L 3.09885 8.23281C 2.95241 8.08841 2.8678 7.88502 2.8678 7.67593C 2.8678 7.46929 2.94997 7.27444 3.09966 7.12515L 4.22481 5.99878L 3.09885 4.87241C 2.94997 4.72434 2.8678 4.52908 2.8678 4.32285C 2.8678 4.11458 2.95241 3.91119 3.09966 3.76475L 3.76556 3.09803C 4.06007 2.80434 4.57546 2.79986 4.87281 3.09803L 5.99919 4.22441L 7.12515 3.09763C 7.4278 2.79742 7.94278 2.80678 8.232 3.09844L 8.89993 3.76475C 9.04556 3.91119 9.12976 4.11417 9.12976 4.32244C 9.12976 4.52786 9.04841 4.72312 8.90034 4.87159L 7.77315 5.99797L 8.90034 7.12515C 9.04841 7.27322 9.12976 7.46847 9.12976 7.67512C 9.12976 7.8838 9.04637 8.08678 8.89993 8.232L 8.232 8.89953C 8.08637 9.04637 7.8838 9.13098 7.67593 9.13098Z"/>
</defs>
</svg>
