<?xml version="1.0" encoding="utf-8"?>
<!-- Generator: Adobe Illustrator 15.1.0, SVG Export Plug-In . SVG Version: 6.00 Build 0)  -->
<!DOCTYPE svg PUBLIC "-//W3C//DTD SVG 1.1//EN" "http://www.w3.org/Graphics/SVG/1.1/DTD/svg11.dtd">
<svg version="1.1" id="Layer_1" xmlns="http://www.w3.org/2000/svg" xmlns:xlink="http://www.w3.org/1999/xlink" x="0px" y="0px"
	 width="24px" height="24px" viewBox="0 0 32 32" enable-background="new 0 0 32 32" xml:space="preserve">
<path d="M14.208,4.371c3.894,0,3.894,0,3.894,0c0,1.177,0,1.177,0,1.177c-3.894,0-3.894,0-3.894,0V4.371z
	 M13.055,24.675c0.574,0,1.148-0.423,1.148-1.69c0-7.185,0-7.185,0-7.185c0-1.269-0.574-1.691-1.148-1.691
	c-0.574,0-1.148,0.422-1.148,1.691c0,7.185,0,7.185,0,7.185C11.907,24.252,12.48,24.675,13.055,24.675L13.055,24.675z
	 M18.223,24.675c0.573,0,1.146-0.423,1.146-1.69c0-7.185,0-7.185,0-7.185c0-1.269-0.573-1.691-1.146-1.691
	c-0.861,0-1.146,0.422-1.146,1.691c0,7.185,0,7.185,0,7.185C17.073,24.252,17.359,24.675,18.223,24.675L18.223,24.675z
	 M30.945,5.855H20.646l0.048-3.794h-8.746l-0.095,3.794H1.293c-0.414,0-0.75,0.336-0.75,0.75s0.336,0.75,0.75,0.75h4.071v23.432
	h21.427V7.355h4.154c0.414,0,0.75-0.336,0.75-0.75S31.359,5.855,30.945,5.855z M13.412,3.561h5.763l-0.028,2.294h-5.792
	L13.412,3.561z M25.291,29.287H6.864V7.355h18.427V29.287z"/>
</svg>
