<svg width="25" height="13" viewBox="0 0 25 13" fill="none" xmlns="http://www.w3.org/2000/svg">
<path d="M20.7003 6.44116C20.7003 6.44116 20.7003 6.44116 20.7003 6.1487C20.7003 3.80667 18.5995 2.04878 15.9004 2.04878C14.9986 2.04878 14.3987 2.04878 13.4993 2.34203C13.4993 2.34203 13.4415 2.35063 13.1998 2.49295C13.1998 7.76349 13.1998 7.3201 13.1998 7.3201C15.6009 4.97808 15.6009 4.97808 15.6009 4.97808C16.2008 4.39237 16.8006 4.39237 17.4005 4.97808C17.7009 5.27054 17.7009 5.56378 17.7009 5.85546C17.7009 6.1487 17.7009 6.44194 17.4005 6.44194C12.9002 10.8351 12.9002 10.8351 12.9002 10.8351C12.6015 11.1268 12.2995 11.1268 11.9992 11.1268C11.7005 11.1268 11.4009 11.1268 11.0998 10.8351C6.89982 6.44194 6.89982 6.44194 6.89982 6.44194C6.30073 6.14948 6.30073 5.27054 6.89982 4.97808C7.20016 4.39237 8.10038 4.39237 8.40071 4.97808C10.7994 7.3201 10.7994 7.3201 10.7994 7.3201C10.7994 0.29246 10.7994 0.29246 10.7994 0.29246C10.3787 0.13059 9.89923 -8.65074e-08 9.30014 -8.65074e-08C6.59948 -8.65074e-08 4.19917 2.04957 4.19917 4.39237C4.19917 4.68405 4.4995 4.97808 4.4995 4.97808C4.19917 4.97808 3.89962 4.97808 3.89962 4.97808C1.79964 4.97808 3.02294e-08 6.7344 3.02294e-08 9.07799C3.02294e-08 11.126 1.79964 12.8839 3.89962 12.8839C20.3991 12.8839 20.3991 12.8839 20.3991 12.8839C22.4999 12.8839 24 11.42 24 9.66213C24.0008 7.90502 22.5007 6.73362 20.7003 6.44116Z" transform="translate(0.425781)" fill="#231F20"/>
</svg>
