<svg width="68" height="68" viewBox="0 0 68 68" fill="none" xmlns="http://www.w3.org/2000/svg">
<g filter="url(#filter0_d)">
<rect x="4" y="3" width="59.9604" height="60" rx="29.9802" fill="#249FF4"/>
</g>
<path d="M18.4049 45.8635C18.4049 47.3647 19.6192 48.5806 21.108 48.5806C22.5996 48.5806 23.8098 47.3674 23.8098 45.8635C23.8098 44.3676 22.5983 43.1436 21.108 43.1436C19.6178 43.1436 18.4049 44.3703 18.4049 45.8635ZM37.4318 13.362C36.5905 12.8818 35.212 12.8791 34.3652 13.3552L18.2339 22.4479C17.3885 22.9267 17.3953 23.6949 18.2474 24.1561L34.3504 32.8905C35.2012 33.353 36.5958 33.3489 37.4453 32.8823L53.31 24.1629C54.1581 23.6963 54.1621 22.9213 53.3248 22.4412L37.4318 13.362ZM22.9806 30.2748C22.1096 29.8474 20.7742 29.9961 20.0149 30.6007L18.0778 32.1452C17.3199 32.7484 17.3953 33.6222 18.2474 34.0874L34.3504 42.819C35.2012 43.2856 36.5985 43.2856 37.4534 42.8231L53.3046 34.2484C54.1581 33.7872 54.2348 32.9121 53.4783 32.3021L51.3742 30.6102C50.619 30.0016 49.2903 29.8609 48.4247 30.295L37.4816 35.7942C36.612 36.2284 35.1918 36.2379 34.3195 35.8118L22.9806 30.2748ZM53.306 44.5137L37.4547 53.0898C36.5999 53.5537 35.2025 53.5537 34.3518 53.0884L28.5147 49.5395C28.2172 49.15 30.1692 48.2709 30.1692 48.2709C30.3509 48.2411 30.6053 47.4499 30.6053 47.2741L30.5111 44.2202L34.3195 46.0799C35.1904 46.5032 36.6107 46.4951 37.4816 46.0609L48.4247 40.5617C49.2917 40.1262 50.6203 40.2642 51.3742 40.8742L53.4783 42.5688C54.2362 43.1761 54.1595 44.0525 53.306 44.5137ZM29.2026 44.676V47.0293C29.2026 47.2051 29.0774 47.3769 28.8957 47.4066L26.9666 47.7001C26.8657 48.0599 26.7135 48.4075 26.5358 48.7456C26.8239 49.1527 27.1322 49.5314 27.4297 49.9209C27.501 50.0142 27.5751 50.1089 27.6451 50.2036C27.6989 50.2739 27.7312 50.3442 27.7312 50.4403C27.7312 50.5241 27.7084 50.6039 27.6545 50.681C27.2143 51.2991 26.4753 51.9577 25.9193 52.4649C25.8426 52.5393 25.751 52.5745 25.6527 52.5745C25.5572 52.5745 25.4616 52.5434 25.3889 52.4785L23.9041 51.3424C23.5958 51.5074 23.2821 51.6359 22.9537 51.7319L22.6588 53.6768C22.64 53.8593 22.4704 54 22.2819 54H19.9369C19.7471 54 19.599 53.8702 19.5586 53.7038C19.393 53.0668 19.3257 52.3757 19.2517 51.7319C18.9245 51.6277 18.6001 51.4911 18.2932 51.3248L16.8366 52.4758C16.7464 52.5258 16.6576 52.5718 16.5606 52.5718C16.2026 52.5718 14.7756 51.0191 14.5239 50.6742C14.4593 50.5985 14.4256 50.5322 14.4256 50.4349C14.4256 50.3361 14.4673 50.2496 14.5279 50.1698C14.9223 49.691 15.3006 49.2217 15.6601 48.7064C15.4918 48.4007 15.3652 48.0802 15.2481 47.7394L13.2989 47.4432C13.1306 47.4121 13.004 47.22 13.004 47.0604L13 44.7112C13 44.5313 13.1252 44.3541 13.3029 44.3243L15.2333 44.0281C15.3343 43.6806 15.4877 43.3316 15.6654 42.9908C15.306 42.4863 14.9143 42.0278 14.5535 41.5355C14.505 41.4611 14.47 41.3895 14.47 41.2894C14.47 41.2096 14.4916 41.1176 14.5427 41.0608C14.9843 40.4373 15.7247 39.78 16.282 39.2566C16.356 39.1984 16.4462 39.1565 16.5458 39.1565C16.6414 39.1565 16.7356 39.189 16.8003 39.2525L18.2999 40.4008C18.6055 40.2344 18.9205 40.1032 19.2463 40.0032L19.5438 38.0569C19.5653 37.8757 19.7336 37.7378 19.9221 37.7378H22.2644C22.4515 37.7378 22.6023 37.8635 22.644 38.0353C22.811 38.6683 22.8729 39.3607 22.9483 40.0059C23.2727 40.1141 23.6039 40.252 23.9067 40.4157L25.3633 39.2742C25.4481 39.212 25.541 39.1754 25.6379 39.1754C25.9987 39.1754 27.4243 40.7173 27.6747 41.0662C27.7299 41.1379 27.7703 41.2136 27.7703 41.307C27.7703 41.4057 27.7312 41.4882 27.6693 41.5599C27.322 41.99 26.9841 42.42 26.6597 42.8718C26.6206 42.9245 26.5776 42.9732 26.5399 43.0273C26.7081 43.3465 26.8482 43.6576 26.9545 44.0052L28.9172 44.3013C29.0774 44.3257 29.2026 44.5164 29.2026 44.676Z" fill="white" fill-opacity="0.3"/>
<defs>
<filter id="filter0_d" x="0" y="0" width="67.9604" height="68" filterUnits="userSpaceOnUse" color-interpolation-filters="sRGB">
<feFlood flood-opacity="0" result="BackgroundImageFix"/>
<feColorMatrix in="SourceAlpha" type="matrix" values="0 0 0 0 0 0 0 0 0 0 0 0 0 0 0 0 0 0 127 0"/>
<feOffset dy="1"/>
<feGaussianBlur stdDeviation="2"/>
<feColorMatrix type="matrix" values="0 0 0 0 0 0 0 0 0 0 0 0 0 0 0 0 0 0 0.12 0"/>
<feBlend mode="normal" in2="BackgroundImageFix" result="effect1_dropShadow"/>
<feBlend mode="normal" in="SourceGraphic" in2="effect1_dropShadow" result="shape"/>
</filter>
</defs>
</svg>
