<?xml version="1.0" encoding="utf-8"?>
<!-- Generator: Adobe Illustrator 15.1.0, SVG Export Plug-In . SVG Version: 6.00 Build 0)  -->
<!DOCTYPE svg PUBLIC "-//W3C//DTD SVG 1.1//EN" "http://www.w3.org/Graphics/SVG/1.1/DTD/svg11.dtd">
<svg version="1.1" id="Layer_1" xmlns="http://www.w3.org/2000/svg" xmlns:xlink="http://www.w3.org/1999/xlink" x="0px" y="0px"
	 width="24px" height="24px" viewBox="0 0 32 32" enable-background="new 0 0 32 32" xml:space="preserve">
<path d="M15.87,26.307c-0.34,0-0.655-0.129-0.887-0.363l-5.385-5.388c-0.227-0.227-0.356-0.548-0.356-0.883
	c0-0.683,0.556-1.237,1.239-1.237h2.677v-7.474c0-0.671,0.568-1.239,1.24-1.239h2.939c0.672,0,1.24,0.567,1.24,1.239v7.474h2.678
	c0.694,0,1.241,0.545,1.243,1.239c0,0.318-0.12,0.619-0.347,0.871l-5.398,5.4C16.531,26.173,16.208,26.307,15.87,26.307z
	 M11.099,19.936l4.77,4.772l4.773-4.772h-3.565v-8.712h-2.419v8.712H11.099z M30.375,24.053V12.428h-1.5v11.625
	c0,2.713-2.207,4.92-4.919,4.92H7.782c-2.712,0-4.919-2.207-4.919-4.92V12.428h-1.5v11.625c0,3.54,2.88,6.42,6.419,6.42h16.174
	C27.495,30.473,30.375,27.593,30.375,24.053z"/>
</svg>
