<svg width="19" height="20" viewBox="0 0 19 20" fill="none" xmlns="http://www.w3.org/2000/svg">
<path d="M13.398 9.07495C10.411 9.07495 7.97897 11.472 7.97897 14.42C7.97897 17.368 10.41 19.766 13.398 19.766C16.386 19.766 18.817 17.369 18.817 14.42C18.817 11.473 16.385 9.07495 13.398 9.07495ZM13.398 19.051C10.81 19.051 8.70397 16.973 8.70397 14.42C8.70397 11.867 10.81 9.79095 13.398 9.79095C15.986 9.79095 18.091 11.867 18.091 14.42C18.091 16.975 15.986 19.051 13.398 19.051Z" fill="#010101"/>
<path d="M15.84 14.398C15.621 14.173 15.264 14.173 15.045 14.398L13.961 15.502V11.951C13.961 11.635 13.709 11.377 13.397 11.377C13.086 11.377 12.833 11.633 12.833 11.951V15.502L11.751 14.398C11.53 14.175 11.173 14.175 10.954 14.398C10.733 14.625 10.733 14.988 10.954 15.211L12.999 17.297C13.104 17.402 13.249 17.465 13.397 17.465C13.547 17.463 13.69 17.401 13.795 17.293L15.84 15.211C16.061 14.986 16.061 14.623 15.84 14.398Z" fill="#070606"/>
<path d="M7.219 15.828H1.236V14.955V3.502V1.217H8.637V5.176C8.637 5.678 9.054 6.088 9.563 6.088H13.572V8.514H14.812V5.178C14.813 4.672 14.51 3.969 14.156 3.617L11.148 0.648C10.789 0.295 10.075 0 9.566 0H0.928C0.418 0 0.00100005 0.41 0.00100005 0.914V2.644H0V15.617H0.00100005V16.133C0.00100005 16.637 0.417 17.047 0.928 17.047H7.22L7.219 15.828ZM9.868 1.295C10.034 1.352 10.2 1.438 10.264 1.504L13.284 4.481C13.353 4.549 13.438 4.71 13.499 4.872H9.874H9.868V1.295Z" fill="#020202"/>
<path d="M2.87558 5.08188C2.87558 5.43224 2.87558 5.96143 2.87558 6.4893C2 6.4893 2 6.4893 2 6.4893C2 13.3489 2 13.3489 2 13.3489C7.25 13.3489 7.83333 13.3489 7.83333 13.3489C8.41667 13.3489 9 12.6717 9 12.3586C9 6.4893 9 6.4893 9 6.4893C8.12442 6.4893 8.12442 6.4893 8.12442 6.4893C8.12442 5.96143 8.12442 5.43224 8.12442 5.08188C8.12442 4.02615 7.31839 2.44256 5.50033 2.44189C3.68029 2.44123 2.87558 4.02549 2.87558 5.08188ZM6.86006 5.41039C6.86006 6.4893 6.86006 6.4893 6.86006 6.4893C4.17901 6.4893 4.17901 6.4893 4.17901 6.4893C4.17901 5.41039 4.17901 5.41039 4.17901 5.41039C4.17901 4.8706 4.58435 4.06258 5.51888 4.06125C6.4534 4.06125 6.86006 4.8706 6.86006 5.41039ZM4.97445 8.42325C6.02422 8.42325 6.02422 8.42325 6.02422 8.42325C6.02422 9.30347 6.02422 9.30347 6.02422 9.30347C6.72296 8.95112 6.72296 8.95112 6.72296 8.95112C7.072 10.0082 7.072 10.0082 7.072 10.0082C6.19775 10.183 6.19775 10.183 6.19775 10.183C6.72296 10.8871 6.72296 10.8871 6.72296 10.8871C6.0229 11.4169 6.0229 11.4169 6.0229 11.4169C5.49901 10.7109 5.49901 10.7109 5.49901 10.7109C4.97445 11.4149 4.97445 11.4149 4.97445 11.4149C4.27439 10.8838 4.27439 10.8838 4.27439 10.8838C4.7996 10.1797 4.7996 10.1797 4.7996 10.1797C3.92535 9.83067 3.92535 9.83067 3.92535 9.83067C4.27439 8.95046 4.27439 8.95046 4.27439 8.95046C4.97445 9.30281 4.97445 9.30281 4.97445 9.30281C4.97445 8.42325 4.97445 8.42325 4.97445 8.42325Z" fill="black"/>
</svg>
