<svg width="56" height="56" viewBox="0 0 64 64" fill="none" xmlns="http://www.w3.org/2000/svg">
<g filter="url(#filter0_d)">
<path d="M60 30C60 45.464 47.464 58 32 58C16.536 58 4 45.464 4 30C4 14.536 16.536 2 32 2C47.464 2 60 14.536 60 30Z" fill="white"/>
</g>
<path d="M30.0132 39.9379L43.3008 26.6269C44.2331 25.6933 44.2331 24.1754 43.3008 23.2419L40.738 20.6733C39.845 19.7762 38.2469 19.7752 37.355 20.6724L24.0644 33.9833L23 41L30.0132 39.9379ZM38.4376 21.7566C38.7519 21.4399 39.3353 21.439 39.6515 21.7566L42.2172 24.3261C42.5459 24.6561 42.5459 25.2117 42.2172 25.5408L29.2841 38.4948L24.829 39.1712L25.5044 34.7135L38.4376 21.7566ZM35.8048 28.8481L34.7212 27.7629L27.4532 35.0416L28.5368 36.1268L35.8048 28.8481ZM40.4802 25.843L37.8254 23.1852L36.7418 24.2704L39.3966 26.9282L40.4802 25.843Z" fill="#020202"/>
<defs>
<filter id="filter0_d" x="0" y="0" width="64" height="64" filterUnits="userSpaceOnUse" color-interpolation-filters="sRGB">
<feFlood flood-opacity="0" result="BackgroundImageFix"/>
<feColorMatrix in="SourceAlpha" type="matrix" values="0 0 0 0 0 0 0 0 0 0 0 0 0 0 0 0 0 0 127 0"/>
<feOffset dy="2"/>
<feGaussianBlur stdDeviation="2"/>
<feColorMatrix type="matrix" values="0 0 0 0 0 0 0 0 0 0 0 0 0 0 0 0 0 0 0.12 0"/>
<feBlend mode="normal" in2="BackgroundImageFix" result="effect1_dropShadow"/>
<feBlend mode="normal" in="SourceGraphic" in2="effect1_dropShadow" result="shape"/>
</filter>
</defs>
</svg>
