<svg width="21" height="21" viewBox="0 0 21 21" fill="none" xmlns="http://www.w3.org/2000/svg">
<path d="M7.01317 19.9379L20.3008 6.62692C21.2331 5.69334 21.2331 4.17544 20.3008 3.24186L17.738 0.673318C16.845 -0.2238 15.2469 -0.224759 14.355 0.672359L1.06443 13.9833L0 21L7.01317 19.9379ZM15.4376 1.75658C15.7519 1.43995 16.3353 1.43899 16.6515 1.75658L19.2172 4.32608C19.5459 4.65614 19.5459 5.21168 19.2172 5.54078L6.28407 18.4948L1.82898 19.1712L2.50443 14.7135L15.4376 1.75658ZM12.8048 8.84813L11.7212 7.76295L4.45317 15.0416L5.53677 16.1268L12.8048 8.84813ZM17.4802 5.84302L14.8254 3.18525L13.7418 4.27043L16.3966 6.9282L17.4802 5.84302Z" fill="#020202"/>
</svg>
