<svg width="22" height="20" viewBox="0 0 22 20" fill="none" xmlns="http://www.w3.org/2000/svg">
<path d="M3.51318 16.1018H16.3933V18.0834C16.3933 18.9788 15.6674 19.7046 14.772 19.7046H5.13445C4.23905 19.7046 3.51318 18.9788 3.51318 18.0834V16.1018Z" fill="#6FCF97"/>
<path d="M3.24034 14.3406H2.30975L0.935202 11.9259V14.3406H0V10.4614H0.935202L2.30745 12.875V10.4614H3.24034V14.3406Z" fill="#010101"/>
<path d="M5.32476 11.7506L5.95899 10.4614H7.02796L5.944 12.3849L7.05794 14.3406H5.97859L5.32591 13.026L4.67323 14.3406H3.59619L4.70667 12.3849L3.62502 10.4614H4.69053L5.32476 11.7506Z" fill="#010101"/>
<path d="M8.29946 13.621H9.9277V14.3406H7.36426V10.4614H8.29946V13.621Z" fill="#010101"/>
<path d="M7.4554 8.11645C7.90628 7.54103 8.47017 7.18816 9.05366 6.98752C10.2183 6.58853 11.4833 6.78572 12.1983 6.9633L12.354 7.0002L12.3551 8.6688L15.6174 5.88165L12.3713 3.16138L12.392 4.73081L12.1845 4.73427C10.698 4.77463 9.21625 5.61066 8.19111 6.73728C7.54765 7.44301 7.10369 8.24214 6.93994 9.00552C7.08524 8.66304 7.25706 8.37014 7.4554 8.11645Z" fill="#040404"/>
<path d="M20.0095 5.39575H17.3457C17.1981 5.39575 17.084 5.51453 17.084 5.66559V6.20526C17.084 6.35632 17.1981 6.4751 17.3457 6.4751H20.0095C20.1583 6.4751 20.2724 6.35517 20.2724 6.20526V5.66559C20.2713 5.51337 20.1583 5.39575 20.0095 5.39575Z" fill="#010101"/>
<path d="M20.2696 8.36664V7.82581C20.2696 7.67475 20.1554 7.55713 20.0078 7.55713H16.5668C16.418 7.55713 16.3027 7.6759 16.3027 7.82581V8.36664C16.3027 8.51885 16.418 8.63532 16.5668 8.63532H20.0066C20.1565 8.63647 20.2696 8.51885 20.2696 8.36664Z" fill="#010101"/>
<path d="M20.2696 10.5204V9.98185C20.2696 9.83079 20.1555 9.71086 20.0067 9.71317H15.4748C15.3261 9.71317 15.2119 9.82964 15.2119 9.98185V10.5204C15.2119 10.6749 15.3261 10.7902 15.4748 10.7902H20.0067C20.1566 10.7902 20.2696 10.6749 20.2696 10.5204Z" fill="#010101"/>
<path d="M8.37335 2.92578H4.11478C3.23608 2.92578 2.52344 3.63843 2.52344 4.51712V8.7607H3.58433V4.51712C3.58433 4.22422 3.82188 3.98783 4.11363 3.98783H8.3722V2.92578H8.37335Z" fill="#010101"/>
<path fill-rule="evenodd" clip-rule="evenodd" d="M2.46484 8.82042V4.5183C2.46484 3.60726 3.2037 2.86841 4.11473 2.86841H8.37215L8.3733 2.92695H8.43069V4.04755H4.11358C3.85408 4.04755 3.64283 4.25781 3.64283 4.5183V8.82042H2.46484ZM4.11473 2.92695C3.23603 2.92695 2.52339 3.6396 2.52339 4.5183V8.76187H3.58428V4.5183C3.58428 4.2254 3.82183 3.989 4.11358 3.989H8.37215L8.3733 2.92695H4.11473Z" fill="black"/>
<path d="M15.7861 13.9202V18.3113C15.7861 18.6054 15.5497 18.8429 15.2556 18.8429H4.11509C3.82219 18.8429 3.5858 18.6054 3.5858 18.3113V16.1896H2.5249V18.3113C2.5249 19.1912 3.23755 19.9038 4.11624 19.9038H15.2568C16.1366 19.9038 16.8493 19.1912 16.8493 18.3113V13.9202H15.7861Z" fill="#010101"/>
<path fill-rule="evenodd" clip-rule="evenodd" d="M15.6923 13.8264H16.9429V18.3113C16.9429 19.2429 16.1883 19.9974 15.2567 19.9974H4.11617C3.18569 19.9974 2.43115 19.2428 2.43115 18.3113V16.0958H3.67939V18.3113C3.67939 18.554 3.87425 18.7492 4.11501 18.7492H15.2556C15.4976 18.7492 15.6923 18.5539 15.6923 18.3113V13.8264ZM15.786 18.3113C15.786 18.6053 15.5496 18.8429 15.2556 18.8429H4.11501C3.82212 18.8429 3.58572 18.6053 3.58572 18.3113V16.1895H2.52483V18.3113C2.52483 19.1911 3.23747 19.9038 4.11617 19.9038H15.2567C16.1366 19.9038 16.8492 19.1911 16.8492 18.3113V13.9201H15.786V18.3113Z" fill="black"/>
<path d="M10.9491 1.16583H17.1703L20.9792 5.59968V11.0667C20.9792 11.3885 20.7612 11.6491 20.4902 11.6491H10.9502C10.6793 11.6491 10.4613 11.3885 10.4613 11.0667V8.73739H9.48113V11.0667C9.48113 12.0319 10.1384 12.8149 10.9491 12.8149H20.4891C21.2997 12.8149 21.9559 12.0319 21.9559 11.0667V5.09114L17.5532 0H10.9479C10.1373 0 9.47998 0.781833 9.47998 1.74817V3.9945H10.459V1.74817C10.4602 1.42644 10.6781 1.16583 10.9491 1.16583Z" fill="#020202"/>
</svg>
