<svg width="56" height="56" viewBox="0 0 56 56" fill="none" xmlns="http://www.w3.org/2000/svg">
<g filter="url(#filter0_d)">
<circle cx="28" cy="26" r="24" fill="url(#paint0_linear)"/>
<circle cx="28" cy="26" r="24" fill="white"/>
</g>
<path d="M20.5132 32.1018H33.3933V34.0834C33.3933 34.9788 32.6674 35.7046 31.772 35.7046H22.1345C21.2391 35.7046 20.5132 34.9788 20.5132 34.0834V32.1018Z" fill="#6FCF97"/>
<path d="M20.2403 30.3406H19.3098L17.9352 27.9259V30.3406H17V26.4614H17.9352L19.3074 28.875V26.4614H20.2403V30.3406Z" fill="#010101"/>
<path d="M22.3248 27.7506L22.959 26.4614H24.028L22.944 28.3849L24.0579 30.3406H22.9786L22.3259 29.026L21.6732 30.3406H20.5962L21.7067 28.3849L20.625 26.4614H21.6905L22.3248 27.7506Z" fill="#010101"/>
<path d="M25.2995 29.621H26.9277V30.3406H24.3643V26.4614H25.2995V29.621Z" fill="#010101"/>
<path d="M24.4554 24.1164C24.9063 23.541 25.4702 23.1882 26.0537 22.9875C27.2183 22.5885 28.4833 22.7857 29.1983 22.9633L29.354 23.0002L29.3551 24.6688L32.6174 21.8816L29.3713 19.1614L29.392 20.7308L29.1845 20.7343C27.698 20.7746 26.2163 21.6107 25.1911 22.7373C24.5476 23.443 24.1037 24.2421 23.9399 25.0055C24.0852 24.663 24.2571 24.3701 24.4554 24.1164Z" fill="#040404"/>
<path d="M37.0095 21.3958H34.3457C34.1981 21.3958 34.084 21.5145 34.084 21.6656V22.2053C34.084 22.3563 34.1981 22.4751 34.3457 22.4751H37.0095C37.1583 22.4751 37.2724 22.3552 37.2724 22.2053V21.6656C37.2713 21.5134 37.1583 21.3958 37.0095 21.3958Z" fill="#010101"/>
<path d="M37.2696 24.3666V23.8258C37.2696 23.6747 37.1554 23.5571 37.0078 23.5571H33.5668C33.418 23.5571 33.3027 23.6759 33.3027 23.8258V24.3666C33.3027 24.5189 33.418 24.6353 33.5668 24.6353H37.0066C37.1565 24.6365 37.2696 24.5189 37.2696 24.3666Z" fill="#010101"/>
<path d="M37.2696 26.5204V25.9819C37.2696 25.8308 37.1555 25.7109 37.0067 25.7132H32.4748C32.3261 25.7132 32.2119 25.8296 32.2119 25.9819V26.5204C32.2119 26.6749 32.3261 26.7902 32.4748 26.7902H37.0067C37.1566 26.7902 37.2696 26.6749 37.2696 26.5204Z" fill="#010101"/>
<path d="M25.3733 18.9258H21.1148C20.2361 18.9258 19.5234 19.6384 19.5234 20.5171V24.7607H20.5843V20.5171C20.5843 20.2242 20.8219 19.9878 21.1136 19.9878H25.3722V18.9258H25.3733Z" fill="#010101"/>
<path fill-rule="evenodd" clip-rule="evenodd" d="M19.4648 24.8204V20.5183C19.4648 19.6073 20.2037 18.8684 21.1147 18.8684H25.3721L25.3733 18.927H25.4307V20.0475H21.1136C20.8541 20.0475 20.6428 20.2578 20.6428 20.5183V24.8204H19.4648ZM21.1147 18.927C20.236 18.927 19.5234 19.6396 19.5234 20.5183V24.7619H20.5843V20.5183C20.5843 20.2254 20.8218 19.989 21.1136 19.989H25.3721L25.3733 18.927H21.1147Z" fill="black"/>
<path d="M32.7861 29.9202V34.3113C32.7861 34.6054 32.5497 34.8429 32.2556 34.8429H21.1151C20.8222 34.8429 20.5858 34.6054 20.5858 34.3113V32.1896H19.5249V34.3113C19.5249 35.1912 20.2375 35.9038 21.1162 35.9038H32.2568C33.1366 35.9038 33.8493 35.1912 33.8493 34.3113V29.9202H32.7861Z" fill="#010101"/>
<path fill-rule="evenodd" clip-rule="evenodd" d="M32.6923 29.8264H33.9429V34.3113C33.9429 35.2429 33.1883 35.9974 32.2567 35.9974H21.1162C20.1857 35.9974 19.4312 35.2428 19.4312 34.3113V32.0958H20.6794V34.3113C20.6794 34.554 20.8742 34.7492 21.115 34.7492H32.2556C32.4976 34.7492 32.6923 34.5539 32.6923 34.3113V29.8264ZM32.786 34.3113C32.786 34.6053 32.5496 34.8429 32.2556 34.8429H21.115C20.8221 34.8429 20.5857 34.6053 20.5857 34.3113V32.1895H19.5248V34.3113C19.5248 35.1911 20.2375 35.9038 21.1162 35.9038H32.2567C33.1366 35.9038 33.8492 35.1911 33.8492 34.3113V29.9201H32.786V34.3113Z" fill="black"/>
<path d="M27.9491 17.1658H34.1703L37.9792 21.5997V27.0667C37.9792 27.3885 37.7612 27.6491 37.4902 27.6491H27.9502C27.6793 27.6491 27.4613 27.3885 27.4613 27.0667V24.7374H26.4811V27.0667C26.4811 28.0319 27.1384 28.8149 27.9491 28.8149H37.4891C38.2997 28.8149 38.9559 28.0319 38.9559 27.0667V21.0911L34.5532 16H27.9479C27.1373 16 26.48 16.7818 26.48 17.7482V19.9945H27.459V17.7482C27.4602 17.4264 27.6781 17.1658 27.9491 17.1658Z" fill="#020202"/>
<defs>
<filter id="filter0_d" x="0" y="0" width="56" height="56" filterUnits="userSpaceOnUse" color-interpolation-filters="sRGB">
<feFlood flood-opacity="0" result="BackgroundImageFix"/>
<feColorMatrix in="SourceAlpha" type="matrix" values="0 0 0 0 0 0 0 0 0 0 0 0 0 0 0 0 0 0 127 0"/>
<feOffset dy="2"/>
<feGaussianBlur stdDeviation="2"/>
<feColorMatrix type="matrix" values="0 0 0 0 0 0 0 0 0 0 0 0 0 0 0 0 0 0 0.12 0"/>
<feBlend mode="normal" in2="BackgroundImageFix" result="effect1_dropShadow"/>
<feBlend mode="normal" in="SourceGraphic" in2="effect1_dropShadow" result="shape"/>
</filter>
<linearGradient id="paint0_linear" x1="28" y1="2" x2="28" y2="50" gradientUnits="userSpaceOnUse">
<stop stop-color="#34994C"/>
<stop offset="1" stop-color="#70B55B"/>
</linearGradient>
</defs>
</svg>
