<svg width="27" height="27" viewBox="0 0 27 27" fill="none" xmlns="http://www.w3.org/2000/svg">
<path fill-rule="evenodd" clip-rule="evenodd" d="M12.7382 0.0219825C5.10049 0.458936 -0.638897 7.16446 0.0572111 14.8377C0.608418 20.9135 5.15362 25.8866 11.1317 26.9547C11.2693 26.9793 11.3838 26.9994 11.3864 26.9994C11.3889 26.9994 11.3909 24.8634 11.3909 22.2527V17.506H9.6768H7.96273V15.5399V13.5737H9.67619H11.3897L11.3944 11.8017C11.3994 9.91906 11.3981 9.96113 11.4613 9.52056C11.8079 7.10426 13.3376 5.61307 15.7427 5.34697C16.5186 5.26106 17.7989 5.3257 19.1499 5.51884C19.3436 5.54659 19.5045 5.56923 19.5073 5.56923C19.5102 5.56923 19.5125 6.32191 19.5125 7.24177V8.91432L18.5036 8.91957C17.425 8.92516 17.3754 8.92782 17.0899 8.99463C16.3526 9.16719 15.8617 9.64758 15.6875 10.3669C15.6171 10.6574 15.6162 10.6819 15.6162 12.1873V13.5737H17.4821C19.166 13.5737 19.348 13.5757 19.348 13.5937C19.348 13.6151 18.7708 17.4129 18.7587 17.471L18.7514 17.506H17.1838H15.6163L15.613 22.253L15.6098 27L15.6415 26.9936C15.6589 26.99 15.7439 26.9753 15.8304 26.9607C19.0769 26.4154 22.1123 24.5723 24.1815 21.89C27.3633 17.7654 27.8982 12.1049 25.5462 7.44631C23.1135 2.62789 18.0898 -0.284137 12.7382 0.0219825Z" fill="white"/>
</svg>