<svg width="30" height="30" viewBox="0 0 30 30" version="1.1" xmlns="http://www.w3.org/2000/svg" xmlns:xlink="http://www.w3.org/1999/xlink" xmlns:figma="http://www.figma.com/figma/ns">
<title>Favorited</title>
<desc>Created using Figma</desc>
<g id="Canvas" transform="translate(1175 -11881)" figma:type="canvas">
<g id="Favorited" figma:type="symbol">
<g id="faved file" figma:type="vector-operation">
<use xlink:href="#path0_fill" transform="translate(-1175 11881)" fill="#249FF4"/>
</g>
<g id="Star" figma:type="star">
<use xlink:href="#path1_fill" transform="translate(-1170.71 11885.3)" fill="#FFFFFF"/>
</g>
</g>
</g>
<defs>
<path id="path0_fill" fill-rule="evenodd" d="M 3 0C 1.34326 0 0 1.34375 0 3L 0 27C 0 28.6562 1.34326 30 3 30L 27 30C 28.6567 30 30 28.6562 30 27L 30 3C 30 1.34375 28.6567 0 27 0L 3 0ZM 15.8965 6.09961C 15.5295 5.35742 14.4705 5.35742 14.1035 6.09961L 12.0813 10.1914C 11.9358 10.4863 11.6545 10.6914 11.3291 10.7383L 6.8125 11.3965C 5.99292 11.5156 5.66553 12.5234 6.25854 13.1016L 9.52539 16.2891C 9.76074 16.5195 9.86816 16.8496 9.81274 17.1738L 9.04346 21.6719C 8.90381 22.4883 9.7605 23.1113 10.4939 22.7266L 14.5349 20.6055C 14.8262 20.4512 15.1738 20.4512 15.4648 20.6055L 19.5059 22.7266C 20.2393 23.1113 21.0962 22.4883 20.9565 21.6719L 20.187 17.1738C 20.1316 16.8496 20.239 16.5195 20.4744 16.2891L 23.7412 13.1016C 24.3342 12.5234 24.0071 11.5156 23.1873 11.3965L 18.6707 10.7383C 18.3455 10.6914 18.0642 10.4863 17.9185 10.1914L 15.8965 6.09961Z"/>
<path id="path1_fill" d="M 9.81776 1.81433C 10.1847 1.07166 11.2438 1.07166 11.6108 1.81433L 13.6328 5.90634C 13.7785 6.2011 14.0597 6.40544 14.385 6.45287L 18.9016 7.11141C 19.7213 7.23092 20.0486 8.23818 19.4557 8.81669L 16.1888 12.0042C 15.9535 12.2338 15.846 12.5645 15.9015 12.8885L 16.6708 17.3875C 16.8105 18.2041 15.9537 18.8266 15.2202 18.4415L 11.1792 16.3195C 10.8881 16.1666 10.5405 16.1666 10.2494 16.3195L 6.20832 18.4415C 5.47491 18.8266 4.61808 18.2041 4.75772 17.3875L 5.52711 12.8885C 5.58254 12.5645 5.47511 12.2338 5.23978 12.0042L 1.97288 8.81669C 1.37997 8.23818 1.70725 7.23092 2.52697 7.11141L 7.04353 6.45287C 7.36887 6.40544 7.65011 6.2011 7.79577 5.90634L 9.81776 1.81433Z"/>
</defs>
</svg>
