<svg width="24" height="28" viewBox="0 0 24 28" version="1.1" xmlns="http://www.w3.org/2000/svg" xmlns:xlink="http://www.w3.org/1999/xlink">
<title>CATP</title>
<desc>Created using Figma</desc>
<g id="Canvas" transform="translate(591 7)">
<g id="CATP">
<g id="Canvas">
<mask id="mask0_alpha" mask-type="alpha">
<g id="mask0_alpha">
<g id="Vector">
<use xlink:href="#path0_fill" transform="translate(-593 -7)" fill="#FFFFFF"/>
</g>
</g>
</mask>
<g id="filetype - doc" mask="url(#mask0_alpha)">
<g id="Group">
<g id="Rectangle 6">
<g id="Vector">
<use xlink:href="#path1_fill" transform="translate(-589.763 14.875)" fill="#6FCF97"/>
</g>
</g>
<g id="Subtract">
<g id="Vector">
<use xlink:href="#path2_fill" transform="translate(-590.638 -7)" fill="#333333"/>
</g>
</g>
</g>
</g>
</g>
<g id="catP">
<use xlink:href="#path3_fill" transform="translate(-590 6)"/>
<use xlink:href="#path4_fill" transform="translate(-590 6)"/>
<use xlink:href="#path5_fill" transform="translate(-590 6)"/>
<use xlink:href="#path6_fill" transform="translate(-590 6)"/>
</g>
</g>
</g>
<defs>
<path id="path0_fill" d="M 0.000683594 0L 28.0007 0L 28.0007 28L 0.000683594 28L 0.000683594 0Z"/>
<path id="path1_fill" d="M 0 0L 22.75 0L 22.75 1.75C 22.75 3.683 21.183 5.25 19.25 5.25L 3.5 5.25C 1.567 5.25 0 3.683 0 1.75L 0 0Z"/>
<path id="path2_fill" fill-rule="evenodd" d="M 15.3125 5.50036C 15.3125 5.01673 14.9211 4.62536 14.4375 4.62536C 13.9539 4.62536 13.5625 5.01673 13.5625 5.50036L 13.5625 8.52185C 13.5625 9.00463 13.9539 9.39689 14.4375 9.39689L 17.7598 9.39689C 18.2417 9.39689 18.6348 9.00463 18.6348 8.52185C 18.6348 8.03821 18.2417 7.64685 17.7598 7.64685L 15.3125 7.64685L 15.3125 5.50036ZM 2.625 1.75L 13.7505 1.75L 21.875 9.28576L 21.875 11L 23.625 11L 23.625 20L 21.875 20L 21.875 25.375C 21.875 25.8586 21.4836 26.25 21 26.25L 2.625 26.25C 2.14136 26.25 1.75 25.8586 1.75 25.375L 1.75 21.875L 0 21.875L 0 25.375C 0 26.8251 1.17578 28 2.625 28L 21 28C 22.4492 28 23.625 26.8251 23.625 25.375L 23.625 20L 23.625 15L 23.625 11L 23.625 8.52185L 14.4375 0L 2.625 0C 1.17578 0 0 1.17492 0 2.625L 0 9.625L 1.75 9.625L 1.75 2.625C 1.75 2.14136 2.14136 1.75 2.625 1.75Z"/>
<path id="path3_fill" d="M 5.35693 4.32422C 5.33643 4.76953 5.21631 5.16357 4.99658 5.50635C 4.77686 5.84619 4.46777 6.10986 4.06934 6.29736C 3.67383 6.48486 3.22119 6.57861 2.71143 6.57861C 1.87061 6.57861 1.2085 6.30469 0.725098 5.75684C 0.241699 5.20898 0 4.43555 0 3.43652L 0 3.12012C 0 2.49316 0.108398 1.94531 0.325195 1.47656C 0.544922 1.00488 0.859863 0.641602 1.27002 0.386719C 1.68018 0.128906 2.15479 0 2.69385 0C 3.47021 0 4.09424 0.205078 4.56592 0.615234C 5.0376 1.02246 5.30566 1.58496 5.37012 2.30273L 3.83203 2.30273C 3.82031 1.91309 3.72217 1.6333 3.5376 1.46338C 3.35303 1.29346 3.07178 1.2085 2.69385 1.2085C 2.31006 1.2085 2.02881 1.35205 1.8501 1.63916C 1.67139 1.92627 1.57764 2.38477 1.56885 3.01465L 1.56885 3.46729C 1.56885 4.1499 1.65381 4.6377 1.82373 4.93066C 1.99658 5.22363 2.29248 5.37012 2.71143 5.37012C 3.06592 5.37012 3.33691 5.28662 3.52441 5.11963C 3.71191 4.95264 3.81152 4.6875 3.82324 4.32422L 5.35693 4.32422Z"/>
<path id="path4_fill" d="M 9.7207 5.29541L 7.60693 5.29541L 7.23779 6.49072L 5.58984 6.49072L 7.93652 0.0922852L 9.38672 0.0922852L 11.751 6.49072L 10.0942 6.49072L 9.7207 5.29541ZM 7.97607 4.10449L 9.35156 4.10449L 8.66162 1.88525L 7.97607 4.10449Z"/>
<path id="path5_fill" d="M 16.7168 1.2832L 14.7964 1.2832L 14.7964 6.49072L 13.2539 6.49072L 13.2539 1.2832L 11.3687 1.2832L 11.3687 0.0922852L 16.7168 0.0922852L 16.7168 1.2832Z"/>
<path id="path6_fill" d="M 18.9141 4.31982L 18.9141 6.49072L 17.3716 6.49072L 17.3716 0.0922852L 19.9248 0.0922852C 20.4141 0.0922852 20.8462 0.183105 21.2212 0.364746C 21.5991 0.543457 21.8906 0.799805 22.0957 1.13379C 22.3037 1.46484 22.4077 1.84131 22.4077 2.26318C 22.4077 2.88721 22.1836 3.38672 21.7354 3.76172C 21.29 4.13379 20.6777 4.31982 19.8984 4.31982L 18.9141 4.31982ZM 18.9141 3.12891L 19.9248 3.12891C 20.2236 3.12891 20.4507 3.0542 20.606 2.90479C 20.7642 2.75537 20.8433 2.54443 20.8433 2.27197C 20.8433 1.97314 20.7627 1.73438 20.6016 1.55566C 20.4404 1.37695 20.2207 1.28613 19.9424 1.2832L 18.9141 1.2832L 18.9141 3.12891Z"/>
</defs>
</svg>
