<svg width="24" height="28" viewBox="0 0 24 28" version="1.1" xmlns="http://www.w3.org/2000/svg" xmlns:xlink="http://www.w3.org/1999/xlink">
<title>Group</title>
<desc>Created using Figma</desc>
<g id="Canvas" transform="translate(378 314)">
<g id="Group">
<g id="Canvas">
<mask id="mask0_alpha" mask-type="alpha">
<g id="mask0_alpha">
<g id="Vector">
<use xlink:href="#path0_fill" transform="translate(-380 -314)" fill="#FFFFFF"/>
</g>
</g>
</mask>
<g id="filetype - doc" mask="url(#mask0_alpha)">
<g id="Group">
<g id="Rectangle 6">
<g id="Vector">
<use xlink:href="#path1_fill" transform="translate(-376.763 -292.125)" fill="#E0E0E0"/>
</g>
</g>
<g id="Subtract">
<g id="Vector">
<use xlink:href="#path2_fill" transform="translate(-377.638 -314)" fill="#BDBDBD"/>
</g>
</g>
</g>
</g>
</g>
<g id="JPG">
<use xlink:href="#path3_fill" transform="translate(-376.5 -301)"/>
<use xlink:href="#path4_fill" transform="translate(-376.5 -301)"/>
<use xlink:href="#path5_fill" transform="translate(-376.5 -301)"/>
</g>
</g>
</g>
<defs>
<path id="path0_fill" d="M 0.000683594 0L 28.0007 0L 28.0007 28L 0.000683594 28L 0.000683594 0Z"/>
<path id="path1_fill" d="M 0 0L 22.75 0L 22.75 1.75C 22.75 3.683 21.183 5.25 19.25 5.25L 3.5 5.25C 1.567 5.25 0 3.683 0 1.75L 0 0Z"/>
<path id="path2_fill" fill-rule="evenodd" d="M 15.3125 5.50036C 15.3125 5.01673 14.9211 4.62536 14.4375 4.62536C 13.9539 4.62536 13.5625 5.01673 13.5625 5.50036L 13.5625 8.52185C 13.5625 9.00462 13.9539 9.39689 14.4375 9.39689L 17.7598 9.39689C 18.2417 9.39689 18.6348 9.00462 18.6348 8.52185C 18.6348 8.03821 18.2417 7.64685 17.7598 7.64685L 15.3125 7.64685L 15.3125 5.50036ZM 2.625 1.75L 13.7505 1.75L 21.875 9.28576L 21.875 25.375C 21.875 25.8586 21.4836 26.25 21 26.25L 2.625 26.25C 2.14136 26.25 1.75 25.8586 1.75 25.375L 1.75 21.875L 0 21.875L 0 25.375C 0 26.8251 1.17578 28 2.625 28L 21 28C 22.4492 28 23.625 26.8251 23.625 25.375L 23.625 8.52185L 14.4375 0L 2.625 0C 1.17578 0 0 1.17492 0 2.625L 0 9.625L 1.75 9.625L 1.75 2.625C 1.75 2.14136 2.14136 1.75 2.625 1.75Z"/>
<path id="path3_fill" d="M 2.87402 0.0922852L 4.41211 0.0922852L 4.41211 4.48242C 4.41211 4.88965 4.31689 5.25293 4.12646 5.57227C 3.93896 5.8916 3.67529 6.13916 3.33545 6.31494C 2.99854 6.49072 2.62207 6.57861 2.20605 6.57861C 1.50879 6.57861 0.966797 6.40283 0.580078 6.05127C 0.193359 5.69971 0 5.20166 0 4.55713L 1.54688 4.55713C 1.54688 4.8501 1.59668 5.0625 1.69629 5.19434C 1.79883 5.32617 1.96875 5.39209 2.20605 5.39209C 2.41992 5.39209 2.58398 5.31299 2.69824 5.15479C 2.81543 4.99365 2.87402 4.76953 2.87402 4.48242L 2.87402 0.0922852Z"/>
<path id="path4_fill" d="M 6.93018 4.31982L 6.93018 6.49072L 5.3877 6.49072L 5.3877 0.0922852L 7.94092 0.0922852C 8.43018 0.0922852 8.8623 0.183105 9.2373 0.364746C 9.61523 0.543457 9.90674 0.799805 10.1118 1.13379C 10.3198 1.46484 10.4238 1.84131 10.4238 2.26318C 10.4238 2.88721 10.1997 3.38672 9.75146 3.76172C 9.30615 4.13379 8.69385 4.31982 7.91455 4.31982L 6.93018 4.31982ZM 6.93018 3.12891L 7.94092 3.12891C 8.23975 3.12891 8.4668 3.0542 8.62207 2.90479C 8.78027 2.75537 8.85938 2.54443 8.85938 2.27197C 8.85938 1.97314 8.77881 1.73438 8.61768 1.55566C 8.45654 1.37695 8.23682 1.28613 7.9585 1.2832L 6.93018 1.2832L 6.93018 3.12891Z"/>
<path id="path5_fill" d="M 16.4883 5.69971C 16.251 5.96338 15.9038 6.17578 15.4468 6.33691C 14.9897 6.49805 14.4888 6.57861 13.9438 6.57861C 13.106 6.57861 12.4365 6.32227 11.9355 5.80957C 11.4346 5.29688 11.1665 4.5835 11.1313 3.66943L 11.127 3.11572C 11.127 2.48584 11.2383 1.93652 11.4609 1.46777C 11.6836 0.996094 12.0015 0.634277 12.4146 0.382324C 12.8306 0.127441 13.311 0 13.856 0C 14.6528 0 15.271 0.183105 15.7104 0.549316C 16.1528 0.912598 16.4106 1.45605 16.4839 2.17969L 14.9985 2.17969C 14.9458 1.82227 14.8315 1.56738 14.6558 1.41504C 14.48 1.2627 14.231 1.18652 13.9087 1.18652C 13.522 1.18652 13.2231 1.35059 13.0122 1.67871C 12.8013 2.00684 12.6943 2.47559 12.6914 3.08496L 12.6914 3.47168C 12.6914 4.11035 12.7998 4.59082 13.0166 4.91309C 13.2363 5.23242 13.5806 5.39209 14.0493 5.39209C 14.4507 5.39209 14.7495 5.30273 14.9458 5.12402L 14.9458 4.13086L 13.8735 4.13086L 13.8735 3.07178L 16.4883 3.07178L 16.4883 5.69971Z"/>
</defs>
</svg>
