<svg width="25" height="28" viewBox="0 0 25 28" version="1.1" xmlns="http://www.w3.org/2000/svg" xmlns:xlink="http://www.w3.org/1999/xlink">
<title>3DXM_G</title>
<desc>Created using Figma</desc>
<g id="Canvas" transform="translate(628 94)">
<g id="3DXM_G">
<g id="Canvas">
<mask id="mask0_alpha" mask-type="alpha">
<g id="mask0_alpha">
<g id="Vector">
<use xlink:href="#path0_fill" transform="translate(-630 -94)" fill="#FFFFFF"/>
</g>
</g>
</mask>
<g id="filetype - doc" mask="url(#mask0_alpha)">
<g id="Group">
<g id="Rectangle 6">
<g id="Vector">
<use xlink:href="#path1_fill" transform="translate(-626.763 -72.125)" fill="#6FCF97"/>
</g>
</g>
<g id="Subtract">
<g id="Vector">
<use xlink:href="#path2_fill" transform="translate(-627.638 -94)" fill="#333333"/>
</g>
</g>
</g>
</g>
</g>
<g id="3dxm">
<use xlink:href="#path3_fill" transform="translate(-627 -81)"/>
<use xlink:href="#path4_fill" transform="translate(-627 -81)"/>
<use xlink:href="#path5_fill" transform="translate(-627 -81)"/>
<use xlink:href="#path6_fill" transform="translate(-627 -81)"/>
</g>
</g>
</g>
<defs>
<path id="path0_fill" d="M 0.000683594 0L 28.0007 0L 28.0007 28L 0.000683594 28L 0.000683594 0Z"/>
<path id="path1_fill" d="M 0 0L 22.75 0L 22.75 1.75C 22.75 3.683 21.183 5.25 19.25 5.25L 3.5 5.25C 1.567 5.25 0 3.683 0 1.75L 0 0Z"/>
<path id="path2_fill" fill-rule="evenodd" d="M 15.3125 5.50036C 15.3125 5.01673 14.9211 4.62536 14.4375 4.62536C 13.9539 4.62536 13.5625 5.01673 13.5625 5.50036L 13.5625 8.52185C 13.5625 9.00463 13.9539 9.39689 14.4375 9.39689L 17.7598 9.39689C 18.2417 9.39689 18.6348 9.00463 18.6348 8.52185C 18.6348 8.03821 18.2417 7.64685 17.7598 7.64685L 15.3125 7.64685L 15.3125 5.50036ZM 2.625 1.75L 13.7505 1.75L 21.875 9.28576L 21.875 11L 23.625 11L 23.625 20L 21.875 20L 21.875 25.375C 21.875 25.8586 21.4836 26.25 21 26.25L 2.625 26.25C 2.14136 26.25 1.75 25.8586 1.75 25.375L 1.75 21.875L 0 21.875L 0 25.375C 0 26.8251 1.17578 28 2.625 28L 21 28C 22.4492 28 23.625 26.8251 23.625 25.375L 23.625 20L 23.625 15L 23.625 11L 23.625 8.52185L 14.4375 0L 2.625 0C 1.17578 0 0 1.17492 0 2.625L 0 9.625L 1.75 9.625L 1.75 2.625C 1.75 2.14136 2.14136 1.75 2.625 1.75Z"/>
<path id="path3_fill" d="M 1.53809 2.67188L 2.23682 2.67188C 2.79053 2.67188 3.06738 2.40088 3.06738 1.85889C 3.06738 1.64795 3.00146 1.47656 2.86963 1.34473C 2.73779 1.20996 2.55176 1.14258 2.31152 1.14258C 2.11523 1.14258 1.94385 1.19971 1.79736 1.31396C 1.65381 1.42822 1.58203 1.57031 1.58203 1.74023L 0.101074 1.74023C 0.101074 1.40332 0.194824 1.10303 0.382324 0.839355C 0.569824 0.575684 0.829102 0.370605 1.16016 0.224121C 1.49414 0.074707 1.86035 0 2.25879 0C 2.9707 0 3.53027 0.162598 3.9375 0.487793C 4.34473 0.812988 4.54834 1.25977 4.54834 1.82812C 4.54834 2.10352 4.46338 2.36426 4.29346 2.61035C 4.12646 2.85352 3.88184 3.05127 3.55957 3.20361C 3.89941 3.32666 4.16602 3.51416 4.35938 3.76611C 4.55273 4.01514 4.64941 4.32422 4.64941 4.69336C 4.64941 5.26465 4.42969 5.72168 3.99023 6.06445C 3.55078 6.40723 2.97363 6.57861 2.25879 6.57861C 1.83984 6.57861 1.4502 6.49951 1.08984 6.34131C 0.732422 6.18018 0.461426 5.95898 0.276855 5.67773C 0.0922852 5.39355 0 5.07129 0 4.71094L 1.48975 4.71094C 1.48975 4.90723 1.56885 5.07715 1.72705 5.2207C 1.88525 5.36426 2.08008 5.43604 2.31152 5.43604C 2.57227 5.43604 2.78027 5.36426 2.93555 5.2207C 3.09082 5.07422 3.16846 4.88818 3.16846 4.6626C 3.16846 4.34033 3.08789 4.11182 2.92676 3.97705C 2.76562 3.84229 2.54297 3.7749 2.25879 3.7749L 1.53809 3.7749L 1.53809 2.67188Z"/>
<path id="path4_fill" d="M 5.48877 6.49072L 5.48877 0.0922852L 7.5498 0.0922852C 8.11523 0.0922852 8.62354 0.221191 9.07471 0.479004C 9.52588 0.733887 9.87744 1.0957 10.1294 1.56445C 10.3843 2.03027 10.5132 2.55322 10.5161 3.1333L 10.5161 3.42773C 10.5161 4.01367 10.3916 4.53955 10.1426 5.00537C 9.89648 5.46826 9.54785 5.83154 9.09668 6.09521C 8.64844 6.35596 8.14746 6.48779 7.59375 6.49072L 5.48877 6.49072ZM 7.03125 1.2832L 7.03125 5.3042L 7.56738 5.3042C 8.00977 5.3042 8.34961 5.14746 8.58691 4.83398C 8.82422 4.51758 8.94287 4.04883 8.94287 3.42773L 8.94287 3.15088C 8.94287 2.53271 8.82422 2.06689 8.58691 1.75342C 8.34961 1.43994 8.00391 1.2832 7.5498 1.2832L 7.03125 1.2832Z"/>
<path id="path5_fill" d="M 13.5967 2.21924L 14.6426 0.0922852L 16.4048 0.0922852L 14.6162 3.26514L 16.4531 6.49072L 14.6733 6.49072L 13.5967 4.32422L 12.52 6.49072L 10.7446 6.49072L 12.5771 3.26514L 10.793 0.0922852L 12.5508 0.0922852L 13.5967 2.21924Z"/>
<path id="path6_fill" d="M 18.9844 0.0922852L 20.4126 4.54395L 21.8364 0.0922852L 23.8667 0.0922852L 23.8667 6.49072L 22.3198 6.49072L 22.3198 4.99658L 22.4692 1.93799L 20.9224 6.49072L 19.9028 6.49072L 18.3516 1.93359L 18.501 4.99658L 18.501 6.49072L 16.9585 6.49072L 16.9585 0.0922852L 18.9844 0.0922852Z"/>
</defs>
</svg>
