<svg width="24" height="28" viewBox="0 0 24 28" version="1.1" xmlns="http://www.w3.org/2000/svg" xmlns:xlink="http://www.w3.org/1999/xlink">
<title>IGS_G</title>
<desc>Created using Figma</desc>
<g id="Canvas" transform="translate(593 94)">
<g id="IGS_G">
<g id="Canvas">
<mask id="mask0_alpha" mask-type="alpha">
<g id="mask0_alpha">
<g id="Vector">
<use xlink:href="#path0_fill" transform="translate(-595 -94)" fill="#FFFFFF"/>
</g>
</g>
</mask>
<g id="filetype - doc" mask="url(#mask0_alpha)">
<g id="Group">
<g id="Rectangle 6">
<g id="Vector">
<use xlink:href="#path1_fill" transform="translate(-591.763 -72.125)" fill="#6FCF97"/>
</g>
</g>
<g id="Subtract">
<g id="Vector">
<use xlink:href="#path2_fill" transform="translate(-592.638 -94)" fill="#333333"/>
</g>
</g>
</g>
</g>
</g>
<g id="igs">
<use xlink:href="#path3_fill" transform="translate(-591.5 -81)"/>
<use xlink:href="#path4_fill" transform="translate(-591.5 -81)"/>
<use xlink:href="#path5_fill" transform="translate(-591.5 -81)"/>
</g>
</g>
</g>
<defs>
<path id="path0_fill" d="M 0.000683594 0L 28.0007 0L 28.0007 28L 0.000683594 28L 0.000683594 0Z"/>
<path id="path1_fill" d="M 0 0L 22.75 0L 22.75 1.75C 22.75 3.683 21.183 5.25 19.25 5.25L 3.5 5.25C 1.567 5.25 0 3.683 0 1.75L 0 0Z"/>
<path id="path2_fill" fill-rule="evenodd" d="M 15.3125 5.50036C 15.3125 5.01673 14.9211 4.62536 14.4375 4.62536C 13.9539 4.62536 13.5625 5.01673 13.5625 5.50036L 13.5625 8.52185C 13.5625 9.00462 13.9539 9.39689 14.4375 9.39689L 17.7598 9.39689C 18.2417 9.39689 18.6348 9.00462 18.6348 8.52185C 18.6348 8.03821 18.2417 7.64685 17.7598 7.64685L 15.3125 7.64685L 15.3125 5.50036ZM 2.625 1.75L 13.7505 1.75L 21.875 9.28576L 21.875 25.375C 21.875 25.8586 21.4836 26.25 21 26.25L 2.625 26.25C 2.14136 26.25 1.75 25.8586 1.75 25.375L 1.75 21.875L 0 21.875L 0 25.375C 0 26.8251 1.17578 28 2.625 28L 21 28C 22.4492 28 23.625 26.8251 23.625 25.375L 23.625 8.52185L 14.4375 0L 2.625 0C 1.17578 0 0 1.17492 0 2.625L 0 9.625L 1.75 9.625L 1.75 2.625C 1.75 2.14136 2.14136 1.75 2.625 1.75Z"/>
<path id="path3_fill" d="M 1.53809 6.49072L 0 6.49072L 0 0.0922852L 1.53809 0.0922852L 1.53809 6.49072Z"/>
<path id="path4_fill" d="M 7.84863 5.69971C 7.61133 5.96338 7.26416 6.17578 6.80713 6.33691C 6.3501 6.49805 5.84912 6.57861 5.3042 6.57861C 4.46631 6.57861 3.79688 6.32227 3.2959 5.80957C 2.79492 5.29688 2.52686 4.5835 2.4917 3.66943L 2.4873 3.11572C 2.4873 2.48584 2.59863 1.93652 2.82129 1.46777C 3.04395 0.996094 3.36182 0.634277 3.7749 0.382324C 4.19092 0.127441 4.67139 0 5.21631 0C 6.01318 0 6.63135 0.183105 7.0708 0.549316C 7.51318 0.912598 7.771 1.45605 7.84424 2.17969L 6.35889 2.17969C 6.30615 1.82227 6.19189 1.56738 6.01611 1.41504C 5.84033 1.2627 5.59131 1.18652 5.26904 1.18652C 4.88232 1.18652 4.5835 1.35059 4.37256 1.67871C 4.16162 2.00684 4.05469 2.47559 4.05176 3.08496L 4.05176 3.47168C 4.05176 4.11035 4.16016 4.59082 4.37695 4.91309C 4.59668 5.23242 4.94092 5.39209 5.40967 5.39209C 5.81104 5.39209 6.10986 5.30273 6.30615 5.12402L 6.30615 4.13086L 5.23389 4.13086L 5.23389 3.07178L 7.84863 3.07178L 7.84863 5.69971Z"/>
<path id="path5_fill" d="M 12.0454 4.79004C 12.0454 4.56445 11.9648 4.38867 11.8037 4.2627C 11.6455 4.13672 11.3657 4.00635 10.9644 3.87158C 10.563 3.73682 10.2349 3.60645 9.97998 3.48047C 9.15088 3.07324 8.73633 2.51367 8.73633 1.80176C 8.73633 1.44727 8.83887 1.13525 9.04395 0.865723C 9.25195 0.593262 9.54492 0.382324 9.92285 0.23291C 10.3008 0.0805664 10.7256 0.00439453 11.1973 0.00439453C 11.6572 0.00439453 12.0688 0.0864258 12.4321 0.250488C 12.7983 0.414551 13.0825 0.648926 13.2847 0.953613C 13.4868 1.25537 13.5879 1.60107 13.5879 1.99072L 12.0498 1.99072C 12.0498 1.72998 11.9692 1.52783 11.8081 1.38428C 11.6499 1.24072 11.4346 1.16895 11.1621 1.16895C 10.8867 1.16895 10.6685 1.23047 10.5073 1.35352C 10.3491 1.47363 10.27 1.62744 10.27 1.81494C 10.27 1.979 10.3579 2.12842 10.5337 2.26318C 10.7095 2.39502 11.0186 2.53271 11.4609 2.67627C 11.9033 2.81689 12.2666 2.96924 12.5508 3.1333C 13.2422 3.53174 13.5879 4.08105 13.5879 4.78125C 13.5879 5.34082 13.377 5.78027 12.9551 6.09961C 12.5332 6.41895 11.9546 6.57861 11.2192 6.57861C 10.7007 6.57861 10.2305 6.48633 9.80859 6.30176C 9.38965 6.11426 9.07324 5.85938 8.85938 5.53711C 8.64844 5.21191 8.54297 4.83838 8.54297 4.4165L 10.0898 4.4165C 10.0898 4.75928 10.1777 5.0127 10.3535 5.17676C 10.5322 5.33789 10.8208 5.41846 11.2192 5.41846C 11.4741 5.41846 11.6748 5.36426 11.8213 5.25586C 11.9707 5.14453 12.0454 4.98926 12.0454 4.79004Z"/>
</defs>
</svg>
