<svg width="24" height="28" viewBox="0 0 24 28" version="1.1" xmlns="http://www.w3.org/2000/svg" xmlns:xlink="http://www.w3.org/1999/xlink">
<title>SQL</title>
<desc>Created using Figma</desc>
<g id="Canvas" transform="translate(1252 314)">
<g id="SQL">
<g id="RH">
<g id="Canvas">
<mask id="mask0_alpha" mask-type="alpha">
<g id="mask0_alpha">
<g id="Vector">
<use xlink:href="#path0_fill" transform="translate(-1254 -314)" fill="#FFFFFF"/>
</g>
</g>
</mask>
<g id="filetype - doc" mask="url(#mask0_alpha)">
<g id="Group">
<g id="Rectangle 6">
<g id="Vector">
<use xlink:href="#path1_fill" transform="translate(-1250.76 -292.125)" fill="#E0E0E0"/>
</g>
</g>
<g id="Subtract">
<g id="Vector">
<use xlink:href="#path2_fill" transform="translate(-1251.64 -314)" fill="#BDBDBD"/>
</g>
</g>
</g>
</g>
</g>
</g>
<g id="SQL">
<use xlink:href="#path3_fill" transform="translate(-1250.72 -300.986)"/>
<use xlink:href="#path4_fill" transform="translate(-1250.72 -300.986)"/>
<use xlink:href="#path5_fill" transform="translate(-1250.72 -300.986)"/>
</g>
</g>
</g>
<defs>
<path id="path0_fill" d="M -2.18279e-11 0L 28 0L 28 28L -2.18279e-11 28L -2.18279e-11 0Z"/>
<path id="path1_fill" d="M 0 0L 22.75 0L 22.75 1.75C 22.75 3.683 21.183 5.25 19.25 5.25L 3.5 5.25C 1.567 5.25 0 3.683 0 1.75L 0 0Z"/>
<path id="path2_fill" fill-rule="evenodd" d="M 15.3125 5.50036C 15.3125 5.01673 14.9211 4.62536 14.4375 4.62536C 13.9539 4.62536 13.5625 5.01673 13.5625 5.50036L 13.5625 8.52185C 13.5625 9.00462 13.9539 9.39689 14.4375 9.39689L 17.7598 9.39689C 18.2417 9.39689 18.6348 9.00462 18.6348 8.52185C 18.6348 8.03821 18.2417 7.64685 17.7598 7.64685L 15.3125 7.64685L 15.3125 5.50036ZM 2.625 1.75L 13.7505 1.75L 21.875 9.28576L 21.875 25.375C 21.875 25.8586 21.4836 26.25 21 26.25L 2.625 26.25C 2.14136 26.25 1.75 25.8586 1.75 25.375L 1.75 21.875L 0 21.875L 0 25.375C 0 26.825 1.17578 28 2.625 28L 21 28C 22.4492 28 23.625 26.825 23.625 25.375L 23.625 8.52185L 14.4375 0L 2.625 0C 1.17578 0 0 1.17492 0 2.625L 0 9.625L 1.75 9.625L 1.75 2.625C 1.75 2.14136 2.14136 1.75 2.625 1.75Z"/>
<path id="path3_fill" d="M 3.50244 4.78564C 3.50244 4.56006 3.42188 4.38428 3.26074 4.2583C 3.10254 4.13232 2.82275 4.00195 2.42139 3.86719C 2.02002 3.73242 1.69189 3.60205 1.43701 3.47607C 0.60791 3.06885 0.193359 2.50928 0.193359 1.79736C 0.193359 1.44287 0.295898 1.13086 0.500977 0.861328C 0.708984 0.588867 1.00195 0.37793 1.37988 0.228516C 1.75781 0.0761719 2.18262 0 2.6543 0C 3.11426 0 3.52588 0.0820312 3.88916 0.246094C 4.25537 0.410156 4.53955 0.644531 4.7417 0.949219C 4.94385 1.25098 5.04492 1.59668 5.04492 1.98633L 3.50684 1.98633C 3.50684 1.72559 3.42627 1.52344 3.26514 1.37988C 3.10693 1.23633 2.8916 1.16455 2.61914 1.16455C 2.34375 1.16455 2.12549 1.22607 1.96436 1.34912C 1.80615 1.46924 1.72705 1.62305 1.72705 1.81055C 1.72705 1.97461 1.81494 2.12402 1.99072 2.25879C 2.1665 2.39062 2.47559 2.52832 2.91797 2.67188C 3.36035 2.8125 3.72363 2.96484 4.00781 3.12891C 4.69922 3.52734 5.04492 4.07666 5.04492 4.77686C 5.04492 5.33643 4.83398 5.77588 4.41211 6.09521C 3.99023 6.41455 3.41162 6.57422 2.67627 6.57422C 2.15771 6.57422 1.6875 6.48193 1.26562 6.29736C 0.84668 6.10986 0.530273 5.85498 0.316406 5.53271C 0.105469 5.20752 0 4.83398 0 4.41211L 1.54688 4.41211C 1.54688 4.75488 1.63477 5.0083 1.81055 5.17236C 1.98926 5.3335 2.27783 5.41406 2.67627 5.41406C 2.93115 5.41406 3.13184 5.35986 3.27832 5.25146C 3.42773 5.14014 3.50244 4.98486 3.50244 4.78564Z"/>
<path id="path4_fill" d="M 11.2632 3.41895C 11.2632 4.01074 11.165 4.52783 10.9688 4.97021C 10.7725 5.40967 10.5015 5.7627 10.1558 6.0293L 11.1885 6.84668L 10.2349 7.65527L 8.85938 6.54785C 8.73047 6.56543 8.60156 6.57422 8.47266 6.57422C 7.92773 6.57422 7.44434 6.44824 7.02246 6.19629C 6.60059 5.94434 6.271 5.58398 6.03369 5.11523C 5.79932 4.64648 5.67773 4.10742 5.66895 3.49805L 5.66895 3.15967C 5.66895 2.52979 5.7832 1.97607 6.01172 1.49854C 6.24316 1.021 6.57129 0.651855 6.99609 0.391113C 7.42383 0.130371 7.91309 0 8.46387 0C 9.00586 0 9.48926 0.128906 9.91406 0.386719C 10.3389 0.644531 10.6685 1.01221 10.9028 1.48975C 11.1401 1.96436 11.2603 2.50928 11.2632 3.12451L 11.2632 3.41895ZM 9.69434 3.15088C 9.69434 2.51514 9.5874 2.0332 9.37354 1.70508C 9.1626 1.37402 8.85938 1.2085 8.46387 1.2085C 8.05664 1.2085 7.75049 1.37109 7.54541 1.69629C 7.34033 2.02148 7.23633 2.49756 7.2334 3.12451L 7.2334 3.41895C 7.2334 4.04883 7.3374 4.53223 7.54541 4.86914C 7.75342 5.20312 8.0625 5.37012 8.47266 5.37012C 8.86523 5.37012 9.16553 5.20459 9.37354 4.87354C 9.58447 4.54248 9.69141 4.06641 9.69434 3.44531L 9.69434 3.15088Z"/>
<path id="path5_fill" d="M 13.5923 5.2998L 16.2773 5.2998L 16.2773 6.48633L 12.0498 6.48633L 12.0498 0.0878906L 13.5923 0.0878906L 13.5923 5.2998Z"/>
</defs>
</svg>
