<svg width="26" height="28" viewBox="0 0 26 28" version="1.1" xmlns="http://www.w3.org/2000/svg" xmlns:xlink="http://www.w3.org/1999/xlink">
<title>mode_1.2</title>
<desc>Created using Figma</desc>
<g id="Canvas" transform="translate(3135 2632)">
<g id="mode_1.2">
<g id="MODE_G">
<g id="Canvas">
<mask id="mask0_alpha" mask-type="alpha">
<g id="mask0_alpha">
<g id="Vector">
<use xlink:href="#path0_fill" transform="translate(-3137 -2632)" fill="#FFFFFF"/>
</g>
</g>
</mask>
<g id="filetype - doc" mask="url(#mask0_alpha)">
<g id="Group">
<g id="Rectangle 6">
<g id="Vector">
<use xlink:href="#path1_fill" transform="translate(-3133.76 -2610.12)" fill="#6FCF97"/>
</g>
</g>
<g id="Subtract">
<g id="Vector">
<use xlink:href="#path2_fill" transform="translate(-3134.64 -2632)" fill="#333333"/>
</g>
</g>
</g>
</g>
</g>
</g>
<g id="MODE">
<use xlink:href="#path3_fill" transform="translate(-3134 -2620)"/>
<use xlink:href="#path4_fill" transform="translate(-3134 -2620)"/>
<use xlink:href="#path5_fill" transform="translate(-3134 -2620)"/>
<use xlink:href="#path6_fill" transform="translate(-3134 -2620)"/>
</g>
</g>
</g>
<defs>
<path id="path0_fill" d="M 0 0L 28 0L 28 28L 0 28L 0 0Z"/>
<path id="path1_fill" d="M 0 0L 22.75 0L 22.75 1.75C 22.75 3.683 21.183 5.25 19.25 5.25L 3.5 5.25C 1.567 5.25 0 3.683 0 1.75L 0 0Z"/>
<path id="path2_fill" fill-rule="evenodd" d="M 15.3125 5.50036C 15.3125 5.01673 14.9211 4.62536 14.4375 4.62536C 13.9539 4.62536 13.5625 5.01673 13.5625 5.50036L 13.5625 8.52185C 13.5625 9.00463 13.9539 9.39689 14.4375 9.39689L 17.7598 9.39689C 18.2417 9.39689 18.6348 9.00463 18.6348 8.52185C 18.6348 8.03821 18.2417 7.64685 17.7598 7.64685L 15.3125 7.64685L 15.3125 5.50036ZM 2.625 1.75L 13.7505 1.75L 21.875 9.28576L 21.875 11L 23.625 11L 23.625 20L 21.875 20L 21.875 25.375C 21.875 25.8586 21.4836 26.25 21 26.25L 2.625 26.25C 2.14136 26.25 1.75 25.8586 1.75 25.375L 1.75 21.875L 0 21.875L 0 25.375C 0 26.8251 1.17578 28 2.625 28L 21 28C 22.4492 28 23.625 26.8251 23.625 25.375L 23.625 20L 23.625 15L 23.625 11L 23.625 8.52185L 14.4375 0L 2.625 0C 1.17578 0 0 1.17492 0 2.625L 0 9.625L 1.75 9.625L 1.75 2.625C 1.75 2.14136 2.14136 1.75 2.625 1.75Z"/>
<path id="path3_fill" d="M 1.72266 0.0878906L 3.36621 4.72852L 5.00098 0.0878906L 6.73242 0.0878906L 6.73242 6.48633L 5.40967 6.48633L 5.40967 4.7373L 5.5415 1.71826L 3.81445 6.48633L 2.90918 6.48633L 1.18652 1.72266L 1.31836 4.7373L 1.31836 6.48633L 0 6.48633L 0 0.0878906L 1.72266 0.0878906Z"/>
<path id="path4_fill" d="M 13.1396 3.43213C 13.1396 4.06201 13.0283 4.61426 12.8057 5.08887C 12.583 5.56348 12.2637 5.92969 11.8477 6.1875C 11.4346 6.44531 10.96 6.57422 10.4238 6.57422C 9.89355 6.57422 9.42041 6.44678 9.00439 6.19189C 8.58838 5.93701 8.26611 5.57373 8.0376 5.10205C 7.80908 4.62744 7.69336 4.08252 7.69043 3.46729L 7.69043 3.15088C 7.69043 2.521 7.80322 1.96729 8.02881 1.48975C 8.25732 1.00928 8.57812 0.641602 8.99121 0.386719C 9.40723 0.128906 9.88184 0 10.415 0C 10.9482 0 11.4214 0.128906 11.8345 0.386719C 12.2505 0.641602 12.5713 1.00928 12.7969 1.48975C 13.0254 1.96729 13.1396 2.51953 13.1396 3.14648L 13.1396 3.43213ZM 11.8037 3.14209C 11.8037 2.47119 11.6836 1.96143 11.4434 1.61279C 11.2031 1.26416 10.8604 1.08984 10.415 1.08984C 9.97266 1.08984 9.63135 1.2627 9.39111 1.6084C 9.15088 1.95117 9.0293 2.45508 9.02637 3.12012L 9.02637 3.43213C 9.02637 4.08545 9.14648 4.59229 9.38672 4.95264C 9.62695 5.31299 9.97266 5.49316 10.4238 5.49316C 10.8662 5.49316 11.2061 5.32031 11.4434 4.97461C 11.6807 4.62598 11.8008 4.11914 11.8037 3.4541L 11.8037 3.14209Z"/>
<path id="path5_fill" d="M 14.0977 6.48633L 14.0977 0.0878906L 16.0664 0.0878906C 16.6289 0.0878906 17.1313 0.215332 17.5737 0.470215C 18.019 0.722168 18.3662 1.08252 18.6152 1.55127C 18.8643 2.01709 18.9888 2.54736 18.9888 3.14209L 18.9888 3.43652C 18.9888 4.03125 18.8657 4.56006 18.6196 5.02295C 18.3765 5.48584 18.0322 5.84473 17.5869 6.09961C 17.1416 6.35449 16.6392 6.4834 16.0796 6.48633L 14.0977 6.48633ZM 15.416 1.15576L 15.416 5.42725L 16.0532 5.42725C 16.5688 5.42725 16.9629 5.25879 17.2354 4.92188C 17.5078 4.58496 17.647 4.10303 17.6528 3.47607L 17.6528 3.1377C 17.6528 2.4873 17.5181 1.99512 17.2485 1.66113C 16.979 1.32422 16.585 1.15576 16.0664 1.15576L 15.416 1.15576Z"/>
<path id="path6_fill" d="M 23.8008 3.71338L 21.2695 3.71338L 21.2695 5.42725L 24.2402 5.42725L 24.2402 6.48633L 19.9512 6.48633L 19.9512 0.0878906L 24.2314 0.0878906L 24.2314 1.15576L 21.2695 1.15576L 21.2695 2.68066L 23.8008 2.68066L 23.8008 3.71338Z"/>
</defs>
</svg>
