<svg width="25" height="28" viewBox="0 0 25 28" version="1.1" xmlns="http://www.w3.org/2000/svg" xmlns:xlink="http://www.w3.org/1999/xlink">
<title>POTX</title>
<desc>Created using Figma</desc>
<g id="Canvas" transform="translate(1311 396)">
<g id="POTX">
<g id="Canvas">
<mask id="mask0_alpha" mask-type="alpha">
<g id="mask0_alpha">
<g id="Vector">
<use xlink:href="#path0_fill" transform="translate(-1313 -396)" fill="#FFFFFF"/>
</g>
</g>
</mask>
<g id="filetype - doc" mask="url(#mask0_alpha)">
<g id="Group">
<g id="Rectangle 6">
<g id="Vector">
<use xlink:href="#path1_fill" transform="translate(-1309.76 -374.125)" fill="#E0E0E0"/>
</g>
</g>
<g id="Subtract">
<g id="Vector">
<use xlink:href="#path2_fill" transform="translate(-1310.64 -396)" fill="#BDBDBD"/>
</g>
</g>
</g>
</g>
</g>
<g id="POTX">
<use xlink:href="#path3_fill" transform="translate(-1309.52 -382.986)"/>
<use xlink:href="#path4_fill" transform="translate(-1309.52 -382.986)"/>
<use xlink:href="#path5_fill" transform="translate(-1309.52 -382.986)"/>
<use xlink:href="#path6_fill" transform="translate(-1309.52 -382.986)"/>
</g>
</g>
</g>
<defs>
<path id="path0_fill" d="M -2.18279e-11 0L 28 0L 28 28L -2.18279e-11 28L -2.18279e-11 0Z"/>
<path id="path1_fill" d="M 0 0L 22.75 0L 22.75 1.75C 22.75 3.683 21.183 5.25 19.25 5.25L 3.5 5.25C 1.567 5.25 0 3.683 0 1.75L 0 0Z"/>
<path id="path2_fill" fill-rule="evenodd" d="M 15.3125 5.50036C 15.3125 5.01673 14.9211 4.62536 14.4375 4.62536C 13.9539 4.62536 13.5625 5.01673 13.5625 5.50036L 13.5625 8.52185C 13.5625 9.00462 13.9539 9.39689 14.4375 9.39689L 17.7598 9.39689C 18.2417 9.39689 18.6348 9.00462 18.6348 8.52185C 18.6348 8.03821 18.2417 7.64685 17.7598 7.64685L 15.3125 7.64685L 15.3125 5.50036ZM 2.625 1.75L 13.7505 1.75L 21.875 9.28576L 21.875 11L 23.625 11L 23.625 20L 21.875 20L 21.875 25.375C 21.875 25.8586 21.4836 26.25 21 26.25L 2.625 26.25C 2.14136 26.25 1.75 25.8586 1.75 25.375L 1.75 21.875L 0 21.875L 0 25.375C 0 26.825 1.17578 28 2.625 28L 21 28C 22.4492 28 23.625 26.825 23.625 25.375L 23.625 20L 23.625 15L 23.625 11L 23.625 8.52185L 14.4375 0L 2.625 0C 1.17578 0 0 1.17492 0 2.625L 0 9.625L 1.75 9.625L 1.75 2.625C 1.75 2.14136 2.14136 1.75 2.625 1.75Z"/>
<path id="path3_fill" d="M 1.54248 4.31543L 1.54248 6.48633L 0 6.48633L 0 0.0878906L 2.55322 0.0878906C 3.04248 0.0878906 3.47461 0.178711 3.84961 0.360352C 4.22754 0.539062 4.51904 0.79541 4.72412 1.12939C 4.93213 1.46045 5.03613 1.83691 5.03613 2.25879C 5.03613 2.88281 4.81201 3.38232 4.36377 3.75732C 3.91846 4.12939 3.30615 4.31543 2.52686 4.31543L 1.54248 4.31543ZM 1.54248 3.12451L 2.55322 3.12451C 2.85205 3.12451 3.0791 3.0498 3.23438 2.90039C 3.39258 2.75098 3.47168 2.54004 3.47168 2.26758C 3.47168 1.96875 3.39111 1.72998 3.22998 1.55127C 3.06885 1.37256 2.84912 1.28174 2.5708 1.27881L 1.54248 1.27881L 1.54248 3.12451Z"/>
<path id="path4_fill" d="M 11.2808 3.41895C 11.2808 4.04297 11.165 4.59521 10.9336 5.07568C 10.7021 5.55615 10.3726 5.92676 9.94482 6.1875C 9.52002 6.44531 9.03516 6.57422 8.49023 6.57422C 7.94531 6.57422 7.46191 6.44971 7.04004 6.20068C 6.61816 5.94873 6.28857 5.58984 6.05127 5.12402C 5.81689 4.6582 5.69385 4.12354 5.68213 3.52002L 5.68213 3.15967C 5.68213 2.53271 5.79639 1.98047 6.0249 1.50293C 6.25635 1.02246 6.58594 0.651855 7.01367 0.391113C 7.44434 0.130371 7.93359 0 8.48145 0C 9.02344 0 9.50684 0.128906 9.93164 0.386719C 10.3564 0.644531 10.686 1.01221 10.9204 1.48975C 11.1577 1.96436 11.2778 2.50928 11.2808 3.12451L 11.2808 3.41895ZM 9.71191 3.15088C 9.71191 2.51514 9.60498 2.0332 9.39111 1.70508C 9.18018 1.37402 8.87695 1.2085 8.48145 1.2085C 7.70801 1.2085 7.29932 1.78857 7.25537 2.94873L 7.25098 3.41895C 7.25098 4.0459 7.35498 4.52783 7.56299 4.86475C 7.771 5.20166 8.08008 5.37012 8.49023 5.37012C 8.87988 5.37012 9.18018 5.20459 9.39111 4.87354C 9.60205 4.54248 9.70898 4.06641 9.71191 3.44531L 9.71191 3.15088Z"/>
<path id="path5_fill" d="M 16.7212 1.27881L 14.8008 1.27881L 14.8008 6.48633L 13.2583 6.48633L 13.2583 1.27881L 11.373 1.27881L 11.373 0.0878906L 16.7212 0.0878906L 16.7212 1.27881Z"/>
<path id="path6_fill" d="M 19.7622 2.21484L 20.8081 0.0878906L 22.5703 0.0878906L 20.7817 3.26074L 22.6187 6.48633L 20.8389 6.48633L 19.7622 4.31982L 18.6855 6.48633L 16.9102 6.48633L 18.7427 3.26074L 16.9585 0.0878906L 18.7163 0.0878906L 19.7622 2.21484Z"/>
</defs>
</svg>
