<svg width="25" height="28" viewBox="0 0 25 28" version="1.1" xmlns="http://www.w3.org/2000/svg" xmlns:xlink="http://www.w3.org/1999/xlink">
<title>XLSM</title>
<desc>Created using Figma</desc>
<g id="Canvas" transform="translate(1205 396)">
<g id="XLSM">
<g id="Canvas">
<mask id="mask0_alpha" mask-type="alpha">
<g id="mask0_alpha">
<g id="Vector">
<use xlink:href="#path0_fill" transform="translate(-1207 -396)" fill="#FFFFFF"/>
</g>
</g>
</mask>
<g id="filetype - doc" mask="url(#mask0_alpha)">
<g id="Group">
<g id="Rectangle 6">
<g id="Vector">
<use xlink:href="#path1_fill" transform="translate(-1203.76 -374.125)" fill="#E0E0E0"/>
</g>
</g>
<g id="Subtract">
<g id="Vector">
<use xlink:href="#path2_fill" transform="translate(-1204.64 -396)" fill="#BDBDBD"/>
</g>
</g>
</g>
</g>
</g>
<g id="XLSM">
<use xlink:href="#path3_fill" transform="translate(-1203.98 -382.986)"/>
<use xlink:href="#path4_fill" transform="translate(-1203.98 -382.986)"/>
<use xlink:href="#path5_fill" transform="translate(-1203.98 -382.986)"/>
<use xlink:href="#path6_fill" transform="translate(-1203.98 -382.986)"/>
</g>
</g>
</g>
<defs>
<path id="path0_fill" d="M -2.18279e-11 0L 28 0L 28 28L -2.18279e-11 28L -2.18279e-11 0Z"/>
<path id="path1_fill" d="M 0 0L 22.75 0L 22.75 1.75C 22.75 3.683 21.183 5.25 19.25 5.25L 3.5 5.25C 1.567 5.25 0 3.683 0 1.75L 0 0Z"/>
<path id="path2_fill" fill-rule="evenodd" d="M 15.3125 5.50036C 15.3125 5.01673 14.9211 4.62536 14.4375 4.62536C 13.9539 4.62536 13.5625 5.01673 13.5625 5.50036L 13.5625 8.52185C 13.5625 9.00462 13.9539 9.39689 14.4375 9.39689L 17.7598 9.39689C 18.2417 9.39689 18.6348 9.00462 18.6348 8.52185C 18.6348 8.03821 18.2417 7.64685 17.7598 7.64685L 15.3125 7.64685L 15.3125 5.50036ZM 2.625 1.75L 13.7505 1.75L 21.875 9.28576L 21.875 11L 23.625 11L 23.625 20L 21.875 20L 21.875 25.375C 21.875 25.8586 21.4836 26.25 21 26.25L 2.625 26.25C 2.14136 26.25 1.75 25.8586 1.75 25.375L 1.75 21.875L 0 21.875L 0 25.375C 0 26.825 1.17578 28 2.625 28L 21 28C 22.4492 28 23.625 26.825 23.625 25.375L 23.625 20L 23.625 15L 23.625 11L 23.625 8.52185L 14.4375 0L 2.625 0C 1.17578 0 0 1.17492 0 2.625L 0 9.625L 1.75 9.625L 1.75 2.625C 1.75 2.14136 2.14136 1.75 2.625 1.75Z"/>
<path id="path3_fill" d="M 2.85205 2.21484L 3.89795 0.0878906L 5.66016 0.0878906L 3.87158 3.26074L 5.7085 6.48633L 3.92871 6.48633L 2.85205 4.31982L 1.77539 6.48633L 0 6.48633L 1.83252 3.26074L 0.0483398 0.0878906L 1.80615 0.0878906L 2.85205 2.21484Z"/>
<path id="path4_fill" d="M 7.75635 5.2998L 10.4414 5.2998L 10.4414 6.48633L 6.21387 6.48633L 6.21387 0.0878906L 7.75635 0.0878906L 7.75635 5.2998Z"/>
<path id="path5_fill" d="M 14.3921 4.78564C 14.3921 4.56006 14.3115 4.38428 14.1504 4.2583C 13.9922 4.13232 13.7124 4.00195 13.311 3.86719C 12.9097 3.73242 12.5815 3.60205 12.3267 3.47607C 11.4976 3.06885 11.083 2.50928 11.083 1.79736C 11.083 1.44287 11.1855 1.13086 11.3906 0.861328C 11.5986 0.588867 11.8916 0.37793 12.2695 0.228516C 12.6475 0.0761719 13.0723 0 13.5439 0C 14.0039 0 14.4155 0.0820312 14.7788 0.246094C 15.145 0.410156 15.4292 0.644531 15.6313 0.949219C 15.8335 1.25098 15.9346 1.59668 15.9346 1.98633L 14.3965 1.98633C 14.3965 1.72559 14.3159 1.52344 14.1548 1.37988C 13.9966 1.23633 13.7812 1.16455 13.5088 1.16455C 13.2334 1.16455 13.0151 1.22607 12.854 1.34912C 12.6958 1.46924 12.6167 1.62305 12.6167 1.81055C 12.6167 1.97461 12.7046 2.12402 12.8804 2.25879C 13.0562 2.39062 13.3652 2.52832 13.8076 2.67188C 14.25 2.8125 14.6133 2.96484 14.8975 3.12891C 15.5889 3.52734 15.9346 4.07666 15.9346 4.77686C 15.9346 5.33643 15.7236 5.77588 15.3018 6.09521C 14.8799 6.41455 14.3013 6.57422 13.5659 6.57422C 13.0474 6.57422 12.5771 6.48193 12.1553 6.29736C 11.7363 6.10986 11.4199 5.85498 11.2061 5.53271C 10.9951 5.20752 10.8896 4.83398 10.8896 4.41211L 12.4365 4.41211C 12.4365 4.75488 12.5244 5.0083 12.7002 5.17236C 12.8789 5.3335 13.1675 5.41406 13.5659 5.41406C 13.8208 5.41406 14.0215 5.35986 14.168 5.25146C 14.3174 5.14014 14.3921 4.98486 14.3921 4.78564Z"/>
<path id="path6_fill" d="M 18.7515 0.0878906L 20.1797 4.53955L 21.6035 0.0878906L 23.6338 0.0878906L 23.6338 6.48633L 22.0869 6.48633L 22.0869 4.99219L 22.2363 1.93359L 20.6895 6.48633L 19.6699 6.48633L 18.1187 1.9292L 18.2681 4.99219L 18.2681 6.48633L 16.7256 6.48633L 16.7256 0.0878906L 18.7515 0.0878906Z"/>
</defs>
</svg>
