<svg width="24" height="28" viewBox="0 0 24 28" version="1.1" xmlns="http://www.w3.org/2000/svg" xmlns:xlink="http://www.w3.org/1999/xlink">
<title>Group</title>
<desc>Created using Figma</desc>
<g id="Canvas" transform="translate(730 188)">
<g id="Group">
<g id="Canvas">
<mask id="mask0_alpha" mask-type="alpha">
<g id="mask0_alpha">
<g id="Vector">
<use xlink:href="#path0_fill" transform="translate(-732 -188)" fill="#FFFFFF"/>
</g>
</g>
</mask>
<g id="filetype - doc" mask="url(#mask0_alpha)">
<g id="Group">
<g id="Rectangle 6">
<g id="Vector">
<use xlink:href="#path1_fill" transform="translate(-728.763 -166.125)" fill="#6FCF97"/>
</g>
</g>
<g id="Subtract">
<g id="Vector">
<use xlink:href="#path2_fill" transform="translate(-729.638 -188)" fill="#333333"/>
</g>
</g>
</g>
</g>
</g>
<g id="JT">
<use xlink:href="#path3_fill" transform="translate(-728.5 -175)"/>
<use xlink:href="#path4_fill" transform="translate(-728.5 -175)"/>
</g>
</g>
</g>
<defs>
<path id="path0_fill" d="M 0.000683594 0L 28.0007 0L 28.0007 28L 0.000683594 28L 0.000683594 0Z"/>
<path id="path1_fill" d="M 0 0L 22.75 0L 22.75 1.75C 22.75 3.683 21.183 5.25 19.25 5.25L 3.5 5.25C 1.567 5.25 0 3.683 0 1.75L 0 0Z"/>
<path id="path2_fill" fill-rule="evenodd" d="M 15.3125 5.50036C 15.3125 5.01672 14.9211 4.62536 14.4375 4.62536C 13.9539 4.62536 13.5625 5.01672 13.5625 5.50036L 13.5625 8.52185C 13.5625 9.00462 13.9539 9.39689 14.4375 9.39689L 17.7598 9.39689C 18.2417 9.39689 18.6348 9.00462 18.6348 8.52185C 18.6348 8.0382 18.2417 7.64685 17.7598 7.64685L 15.3125 7.64685L 15.3125 5.50036ZM 2.625 1.75L 13.7504 1.75L 21.875 9.28576L 21.875 25.375C 21.875 25.8586 21.4836 26.25 21 26.25L 2.625 26.25C 2.14136 26.25 1.75 25.8586 1.75 25.375L 1.75 21.875L 0 21.875L 0 25.375C 0 26.825 1.17578 28 2.625 28L 21 28C 22.4492 28 23.625 26.825 23.625 25.375L 23.625 8.52185L 14.4375 0L 2.625 0C 1.17578 0 0 1.17492 0 2.625L 0 9.625L 1.75 9.625L 1.75 2.625C 1.75 2.14136 2.14136 1.75 2.625 1.75Z"/>
<path id="path3_fill" d="M 2.87402 0L 4.41211 0L 4.41211 4.39014C 4.41211 4.79736 4.31689 5.16064 4.12646 5.47998C 3.93896 5.79932 3.67529 6.04688 3.33545 6.22266C 2.99854 6.39844 2.62207 6.48633 2.20605 6.48633C 1.50879 6.48633 0.966797 6.31055 0.580078 5.95898C 0.193359 5.60742 0 5.10938 0 4.46484L 1.54688 4.46484C 1.54688 4.75781 1.59668 4.97021 1.69629 5.10205C 1.79883 5.23389 1.96875 5.2998 2.20605 5.2998C 2.41992 5.2998 2.58398 5.2207 2.69824 5.0625C 2.81543 4.90137 2.87402 4.67725 2.87402 4.39014L 2.87402 0Z"/>
<path id="path4_fill" d="M 10.4106 1.19092L 8.49023 1.19092L 8.49023 6.39844L 6.94775 6.39844L 6.94775 1.19092L 5.0625 1.19092L 5.0625 0L 10.4106 0L 10.4106 1.19092Z"/>
</defs>
</svg>
