<svg width="24" height="28" viewBox="0 0 24 28" version="1.1" xmlns="http://www.w3.org/2000/svg" xmlns:xlink="http://www.w3.org/1999/xlink">
<title>Group</title>
<desc>Created using Figma</desc>
<g id="Canvas" transform="translate(451 188)">
<g id="Group">
<g id="Canvas">
<mask id="mask0_alpha" mask-type="alpha">
<g id="mask0_alpha">
<g id="Vector">
<use xlink:href="#path0_fill" transform="translate(-453 -188)" fill="#FFFFFF"/>
</g>
</g>
</mask>
<g id="filetype - doc" mask="url(#mask0_alpha)">
<g id="Group">
<g id="Rectangle 6">
<g id="Vector">
<use xlink:href="#path1_fill" transform="translate(-449.763 -166.125)" fill="#6FCF97"/>
</g>
</g>
<g id="Subtract">
<g id="Vector">
<use xlink:href="#path2_fill" transform="translate(-450.638 -188)" fill="#333333"/>
</g>
</g>
</g>
</g>
</g>
<g id="VDS">
<use xlink:href="#path3_fill" transform="translate(-449.5 -175)"/>
<use xlink:href="#path4_fill" transform="translate(-449.5 -175)"/>
<use xlink:href="#path5_fill" transform="translate(-449.5 -175)"/>
</g>
</g>
</g>
<defs>
<path id="path0_fill" d="M 0.000683594 0L 28.0007 0L 28.0007 28L 0.000683594 28L 0.000683594 0Z"/>
<path id="path1_fill" d="M 0 0L 22.75 0L 22.75 1.75C 22.75 3.683 21.183 5.25 19.25 5.25L 3.5 5.25C 1.567 5.25 0 3.683 0 1.75L 0 0Z"/>
<path id="path2_fill" fill-rule="evenodd" d="M 15.3125 5.50036C 15.3125 5.01673 14.9211 4.62536 14.4375 4.62536C 13.9539 4.62536 13.5625 5.01673 13.5625 5.50036L 13.5625 8.52185C 13.5625 9.00462 13.9539 9.39689 14.4375 9.39689L 17.7598 9.39689C 18.2417 9.39689 18.6348 9.00462 18.6348 8.52185C 18.6348 8.03821 18.2417 7.64685 17.7598 7.64685L 15.3125 7.64685L 15.3125 5.50036ZM 2.625 1.75L 13.7505 1.75L 21.875 9.28576L 21.875 25.375C 21.875 25.8586 21.4836 26.25 21 26.25L 2.625 26.25C 2.14136 26.25 1.75 25.8586 1.75 25.375L 1.75 21.875L 0 21.875L 0 25.375C 0 26.8251 1.17578 28 2.625 28L 21 28C 22.4492 28 23.625 26.8251 23.625 25.375L 23.625 8.52185L 14.4375 0L 2.625 0C 1.17578 0 0 1.17492 0 2.625L 0 9.625L 1.75 9.625L 1.75 2.625C 1.75 2.14136 2.14136 1.75 2.625 1.75Z"/>
<path id="path3_fill" d="M 2.97949 4.74609L 4.25391 0.0878906L 5.97656 0.0878906L 3.82324 6.48633L 2.13574 6.48633L 0 0.0878906L 1.70947 0.0878906L 2.97949 4.74609Z"/>
<path id="path4_fill" d="M 6.44678 6.48633L 6.44678 0.0878906L 8.50781 0.0878906C 9.07324 0.0878906 9.58154 0.216797 10.0327 0.474609C 10.4839 0.729492 10.8354 1.09131 11.0874 1.56006C 11.3423 2.02588 11.4712 2.54883 11.4741 3.12891L 11.4741 3.42334C 11.4741 4.00928 11.3496 4.53516 11.1006 5.00098C 10.8545 5.46387 10.5059 5.82715 10.0547 6.09082C 9.60645 6.35156 9.10547 6.4834 8.55176 6.48633L 6.44678 6.48633ZM 7.98926 1.27881L 7.98926 5.2998L 8.52539 5.2998C 8.96777 5.2998 9.30762 5.14307 9.54492 4.82959C 9.78223 4.51318 9.90088 4.04443 9.90088 3.42334L 9.90088 3.14648C 9.90088 2.52832 9.78223 2.0625 9.54492 1.74902C 9.30762 1.43555 8.96191 1.27881 8.50781 1.27881L 7.98926 1.27881Z"/>
<path id="path5_fill" d="M 15.5654 4.78564C 15.5654 4.56006 15.4849 4.38428 15.3237 4.2583C 15.1655 4.13232 14.8857 4.00195 14.4844 3.86719C 14.083 3.73242 13.7549 3.60205 13.5 3.47607C 12.6709 3.06885 12.2563 2.50928 12.2563 1.79736C 12.2563 1.44287 12.3589 1.13086 12.564 0.861328C 12.772 0.588867 13.0649 0.37793 13.4429 0.228516C 13.8208 0.0761719 14.2456 0 14.7173 0C 15.1772 0 15.5889 0.0820312 15.9521 0.246094C 16.3184 0.410156 16.6025 0.644531 16.8047 0.949219C 17.0068 1.25098 17.1079 1.59668 17.1079 1.98633L 15.5698 1.98633C 15.5698 1.72559 15.4893 1.52344 15.3281 1.37988C 15.1699 1.23633 14.9546 1.16455 14.6821 1.16455C 14.4067 1.16455 14.1885 1.22607 14.0273 1.34912C 13.8691 1.46924 13.79 1.62305 13.79 1.81055C 13.79 1.97461 13.8779 2.12402 14.0537 2.25879C 14.2295 2.39062 14.5386 2.52832 14.981 2.67188C 15.4233 2.8125 15.7866 2.96484 16.0708 3.12891C 16.7622 3.52734 17.1079 4.07666 17.1079 4.77686C 17.1079 5.33643 16.897 5.77588 16.4751 6.09521C 16.0532 6.41455 15.4746 6.57422 14.7393 6.57422C 14.2207 6.57422 13.7505 6.48193 13.3286 6.29736C 12.9097 6.10986 12.5933 5.85498 12.3794 5.53271C 12.1685 5.20752 12.063 4.83398 12.063 4.41211L 13.6099 4.41211C 13.6099 4.75488 13.6978 5.0083 13.8735 5.17236C 14.0522 5.3335 14.3408 5.41406 14.7393 5.41406C 14.9941 5.41406 15.1948 5.35986 15.3413 5.25146C 15.4907 5.14014 15.5654 4.98486 15.5654 4.78564Z"/>
</defs>
</svg>
