<svg width="24" height="28" viewBox="0 0 24 28" version="1.1" xmlns="http://www.w3.org/2000/svg" xmlns:xlink="http://www.w3.org/1999/xlink">
<title>PROP</title>
<desc>Created using Figma</desc>
<g id="Canvas" transform="translate(3175 2710)">
<g id="PROP">
<g id="PROP">
<use xlink:href="#path0_fill" transform="translate(-3174 -2697)"/>
<use xlink:href="#path1_fill" transform="translate(-3174 -2697)"/>
<use xlink:href="#path2_fill" transform="translate(-3174 -2697)"/>
<use xlink:href="#path3_fill" transform="translate(-3174 -2697)"/>
</g>
<g id="Canvas">
<mask id="mask0_alpha" mask-type="alpha">
<g id="mask0_alpha">
<g id="Vector">
<use xlink:href="#path4_fill" transform="translate(-3177 -2710)" fill="#FFFFFF"/>
</g>
</g>
</mask>
<g id="filetype - doc" mask="url(#mask0_alpha)">
<g id="Group">
<g id="Rectangle 6">
<g id="Vector">
<use xlink:href="#path5_fill" transform="translate(-3173.76 -2688.12)" fill="#E0E0E0"/>
</g>
</g>
<g id="Subtract">
<g id="Vector">
<use xlink:href="#path6_fill" transform="translate(-3174.64 -2710)" fill="#BDBDBD"/>
</g>
</g>
</g>
</g>
</g>
</g>
</g>
<defs>
<path id="path0_fill" d="M 1.31836 4.23193L 1.31836 6.48633L 0 6.48633L 0 0.0878906L 2.49609 0.0878906C 2.97656 0.0878906 3.39844 0.175781 3.76172 0.351562C 4.12793 0.527344 4.40918 0.777832 4.60547 1.10303C 4.80176 1.42529 4.8999 1.79297 4.8999 2.20605C 4.8999 2.83301 4.68457 3.32812 4.25391 3.69141C 3.82617 4.05176 3.23291 4.23193 2.47412 4.23193L 1.31836 4.23193ZM 1.31836 3.16406L 2.49609 3.16406C 2.84473 3.16406 3.10986 3.08203 3.2915 2.91797C 3.47607 2.75391 3.56836 2.51953 3.56836 2.21484C 3.56836 1.90137 3.47607 1.64795 3.2915 1.45459C 3.10693 1.26123 2.85205 1.16162 2.52686 1.15576L 1.31836 1.15576L 1.31836 3.16406Z"/>
<path id="path1_fill" d="M 8.17822 4.14404L 7.12793 4.14404L 7.12793 6.48633L 5.80957 6.48633L 5.80957 0.0878906L 8.18701 0.0878906C 8.94287 0.0878906 9.52588 0.256348 9.93604 0.593262C 10.3462 0.930176 10.5513 1.40625 10.5513 2.02148C 10.5513 2.45801 10.4561 2.82275 10.2656 3.11572C 10.0781 3.40576 9.79248 3.63721 9.40869 3.81006L 10.793 6.4248L 10.793 6.48633L 9.37793 6.48633L 8.17822 4.14404ZM 7.12793 3.07617L 8.19141 3.07617C 8.52246 3.07617 8.77881 2.99268 8.96045 2.82568C 9.14209 2.65576 9.23291 2.42285 9.23291 2.12695C 9.23291 1.8252 9.14648 1.58789 8.97363 1.41504C 8.80371 1.24219 8.5415 1.15576 8.18701 1.15576L 7.12793 1.15576L 7.12793 3.07617Z"/>
<path id="path2_fill" d="M 16.8135 3.43213C 16.8135 4.06201 16.7021 4.61426 16.4795 5.08887C 16.2568 5.56348 15.9375 5.92969 15.5215 6.1875C 15.1084 6.44531 14.6338 6.57422 14.0977 6.57422C 13.5674 6.57422 13.0942 6.44678 12.6782 6.19189C 12.2622 5.93701 11.9399 5.57373 11.7114 5.10205C 11.4829 4.62744 11.3672 4.08252 11.3643 3.46729L 11.3643 3.15088C 11.3643 2.521 11.4771 1.96729 11.7026 1.48975C 11.9312 1.00928 12.252 0.641602 12.665 0.386719C 13.0811 0.128906 13.5557 0 14.0889 0C 14.6221 0 15.0952 0.128906 15.5083 0.386719C 15.9243 0.641602 16.2451 1.00928 16.4707 1.48975C 16.6992 1.96729 16.8135 2.51953 16.8135 3.14648L 16.8135 3.43213ZM 15.4775 3.14209C 15.4775 2.47119 15.3574 1.96143 15.1172 1.61279C 14.877 1.26416 14.5342 1.08984 14.0889 1.08984C 13.6465 1.08984 13.3052 1.2627 13.0649 1.6084C 12.8247 1.95117 12.7031 2.45508 12.7002 3.12012L 12.7002 3.43213C 12.7002 4.08545 12.8203 4.59229 13.0605 4.95264C 13.3008 5.31299 13.6465 5.49316 14.0977 5.49316C 14.54 5.49316 14.8799 5.32031 15.1172 4.97461C 15.3545 4.62598 15.4746 4.11914 15.4775 3.4541L 15.4775 3.14209Z"/>
<path id="path3_fill" d="M 19.0898 4.23193L 19.0898 6.48633L 17.7715 6.48633L 17.7715 0.0878906L 20.2676 0.0878906C 20.748 0.0878906 21.1699 0.175781 21.5332 0.351562C 21.8994 0.527344 22.1807 0.777832 22.377 1.10303C 22.5732 1.42529 22.6714 1.79297 22.6714 2.20605C 22.6714 2.83301 22.4561 3.32812 22.0254 3.69141C 21.5977 4.05176 21.0044 4.23193 20.2456 4.23193L 19.0898 4.23193ZM 19.0898 3.16406L 20.2676 3.16406C 20.6162 3.16406 20.8813 3.08203 21.063 2.91797C 21.2476 2.75391 21.3398 2.51953 21.3398 2.21484C 21.3398 1.90137 21.2476 1.64795 21.063 1.45459C 20.8784 1.26123 20.6235 1.16162 20.2983 1.15576L 19.0898 1.15576L 19.0898 3.16406Z"/>
<path id="path4_fill" d="M 0 0L 28 0L 28 28L 0 28L 0 0Z"/>
<path id="path5_fill" d="M 0 0L 22.75 0L 22.75 1.75C 22.75 3.683 21.183 5.25 19.25 5.25L 3.5 5.25C 1.567 5.25 0 3.683 0 1.75L 0 0Z"/>
<path id="path6_fill" fill-rule="evenodd" d="M 15.3125 5.50036C 15.3125 5.01673 14.9211 4.62536 14.4375 4.62536C 13.9539 4.62536 13.5625 5.01673 13.5625 5.50036L 13.5625 8.52185C 13.5625 9.00462 13.9539 9.39689 14.4375 9.39689L 17.7598 9.39689C 18.2417 9.39689 18.6348 9.00462 18.6348 8.52185C 18.6348 8.03821 18.2417 7.64685 17.7598 7.64685L 15.3125 7.64685L 15.3125 5.50036ZM 2.625 1.75L 13.7505 1.75L 21.875 9.28576L 21.875 11L 23.625 11L 23.625 20L 21.875 20L 21.875 25.375C 21.875 25.8586 21.4836 26.25 21 26.25L 2.625 26.25C 2.14136 26.25 1.75 25.8586 1.75 25.375L 1.75 21.875L 0 21.875L 0 25.375C 0 26.825 1.17578 28 2.625 28L 21 28C 22.4492 28 23.625 26.825 23.625 25.375L 23.625 20L 23.625 15L 23.625 11L 23.625 8.52185L 14.4375 0L 2.625 0C 1.17578 0 0 1.17492 0 2.625L 0 9.625L 1.75 9.625L 1.75 2.625C 1.75 2.14136 2.14136 1.75 2.625 1.75Z"/>
</defs>
</svg>
