<?xml version="1.0" encoding="utf-8"?>
<!-- Generator: Adobe Illustrator 15.1.0, SVG Export Plug-In . SVG Version: 6.00 Build 0)  -->
<!DOCTYPE svg PUBLIC "-//W3C//DTD SVG 1.1//EN" "http://www.w3.org/Graphics/SVG/1.1/DTD/svg11.dtd">
<svg version="1.1" id="Layer_1" xmlns="http://www.w3.org/2000/svg" xmlns:xlink="http://www.w3.org/1999/xlink" x="0px" y="0px"
	 width="24px" height="24px" viewBox="0 0 32 32" enable-background="new 0 0 32 32" xml:space="preserve">
<g>
	<g>
		<path d="M10.388,23.809v3.633h19.129V12.137H23.3c-0.791,0-1.438-0.644-1.438-1.435v-6.22H10.388v3.642L8.473,8.16V4.005
			c0-0.793,0.644-1.436,1.437-1.436h13.392c0.791,0,1.896,0.463,2.451,1.018l4.664,4.664c0.551,0.553,1.017,1.658,1.017,2.451V27.92
			c0,0.793-0.644,1.436-1.437,1.436H9.909c-0.793,0-1.437-0.643-1.437-1.436v-4.109L10.388,23.809z M20.369,14.049h4.847
			c0.271,0,0.479,0.21,0.479,0.478v0.958c0,0.269-0.209,0.479-0.479,0.479h-4.847c-0.27,0-0.479-0.211-0.479-0.479v-0.958
			C19.891,14.259,20.102,14.049,20.369,14.049z M25.691,18.352v0.959c0,0.271-0.209,0.479-0.479,0.479H18.95
			c-0.271,0-0.479-0.209-0.479-0.479v-0.959c0-0.268,0.209-0.477,0.479-0.477h6.265C25.482,17.875,25.691,18.084,25.691,18.352z
			 M25.691,22.182v0.953c0,0.271-0.209,0.48-0.479,0.48h-8.248c-0.271,0-0.48-0.209-0.48-0.48v-0.953
			c0-0.271,0.208-0.479,0.48-0.479h8.248C25.482,21.701,25.691,21.912,25.691,22.182z M23.779,10.224h5.619
			C29.311,9.97,29.17,9.716,29.07,9.612l-4.68-4.68c-0.104-0.104-0.357-0.239-0.611-0.328V10.224z"/>
	</g>
</g>
<path d="M12.477,13.834c0-0.074-0.031-0.138-0.082-0.194l-2.841-2.841c-0.048-0.049-0.121-0.073-0.186-0.073
	c-0.074,0-0.138,0.024-0.188,0.073l-2.849,2.851c-0.049,0.049-0.073,0.121-0.073,0.186c0,0.137,0.113,0.259,0.259,0.259h1.813v4.352
	c0,0.138,0.121,0.259,0.258,0.259h1.555c0.138,0,0.259-0.121,0.259-0.259v-4.352h1.813C12.362,14.093,12.477,13.981,12.477,13.834z"
	/>
<g>
	<g>
		<path d="M13.646,21.658H5.091c-2.067,0-3.749-1.682-3.749-3.749v-6.15h1.5v6.15c0,1.24,1.009,2.249,2.249,2.249h8.555
			c1.24,0,2.248-1.009,2.248-2.249v-6.15h1.5v6.15C17.394,19.977,15.712,21.658,13.646,21.658z"/>
	</g>
</g>
</svg>
