<svg width="24" height="28" viewBox="0 0 24 28" version="1.1" xmlns="http://www.w3.org/2000/svg" xmlns:xlink="http://www.w3.org/1999/xlink">
<title>PSM_G</title>
<desc>Created using Figma</desc>
<g id="Canvas" transform="translate(527 7)">
<g id="PSM_G">
<g id="Canvas">
<mask id="mask0_alpha" mask-type="alpha">
<g id="mask0_alpha">
<g id="Vector">
<use xlink:href="#path0_fill" transform="translate(-529 -7)" fill="#FFFFFF"/>
</g>
</g>
</mask>
<g id="filetype - doc" mask="url(#mask0_alpha)">
<g id="Group">
<g id="Rectangle 6">
<g id="Vector">
<use xlink:href="#path1_fill" transform="translate(-525.763 14.875)" fill="#6FCF97"/>
</g>
</g>
<g id="Subtract">
<g id="Vector">
<use xlink:href="#path2_fill" transform="translate(-526.638 -7)" fill="#333333"/>
</g>
</g>
</g>
</g>
</g>
<g id="psm">
<use xlink:href="#path3_fill" transform="translate(-525.5 6)"/>
<use xlink:href="#path4_fill" transform="translate(-525.5 6)"/>
<use xlink:href="#path5_fill" transform="translate(-525.5 6)"/>
</g>
</g>
</g>
<defs>
<path id="path0_fill" d="M 0.000683594 0L 28.0007 0L 28.0007 28L 0.000683594 28L 0.000683594 0Z"/>
<path id="path1_fill" d="M 0 0L 22.75 0L 22.75 1.75C 22.75 3.683 21.183 5.25 19.25 5.25L 3.5 5.25C 1.567 5.25 0 3.683 0 1.75L 0 0Z"/>
<path id="path2_fill" fill-rule="evenodd" d="M 15.3125 5.50036C 15.3125 5.01673 14.9211 4.62536 14.4375 4.62536C 13.9539 4.62536 13.5625 5.01673 13.5625 5.50036L 13.5625 8.52185C 13.5625 9.00462 13.9539 9.39689 14.4375 9.39689L 17.7598 9.39689C 18.2417 9.39689 18.6348 9.00462 18.6348 8.52185C 18.6348 8.03821 18.2417 7.64685 17.7598 7.64685L 15.3125 7.64685L 15.3125 5.50036ZM 2.625 1.75L 13.7505 1.75L 21.875 9.28576L 21.875 25.375C 21.875 25.8586 21.4836 26.25 21 26.25L 2.625 26.25C 2.14136 26.25 1.75 25.8586 1.75 25.375L 1.75 21.875L 0 21.875L 0 25.375C 0 26.8251 1.17578 28 2.625 28L 21 28C 22.4492 28 23.625 26.8251 23.625 25.375L 23.625 8.52185L 14.4375 0L 2.625 0C 1.17578 0 0 1.17492 0 2.625L 0 9.625L 1.75 9.625L 1.75 2.625C 1.75 2.14136 2.14136 1.75 2.625 1.75Z"/>
<path id="path3_fill" d="M 1.54248 4.31543L 1.54248 6.48633L 0 6.48633L 0 0.0878906L 2.55322 0.0878906C 3.04248 0.0878906 3.47461 0.178711 3.84961 0.360352C 4.22754 0.539062 4.51904 0.79541 4.72412 1.12939C 4.93213 1.46045 5.03613 1.83691 5.03613 2.25879C 5.03613 2.88281 4.81201 3.38232 4.36377 3.75732C 3.91846 4.12939 3.30615 4.31543 2.52686 4.31543L 1.54248 4.31543ZM 1.54248 3.12451L 2.55322 3.12451C 2.85205 3.12451 3.0791 3.0498 3.23438 2.90039C 3.39258 2.75098 3.47168 2.54004 3.47168 2.26758C 3.47168 1.96875 3.39111 1.72998 3.22998 1.55127C 3.06885 1.37256 2.84912 1.28174 2.5708 1.27881L 1.54248 1.27881L 1.54248 3.12451Z"/>
<path id="path4_fill" d="M 9.1626 4.78564C 9.1626 4.56006 9.08203 4.38428 8.9209 4.2583C 8.7627 4.13232 8.48291 4.00195 8.08154 3.86719C 7.68018 3.73242 7.35205 3.60205 7.09717 3.47607C 6.26807 3.06885 5.85352 2.50928 5.85352 1.79736C 5.85352 1.44287 5.95605 1.13086 6.16113 0.861328C 6.36914 0.588867 6.66211 0.37793 7.04004 0.228516C 7.41797 0.0761719 7.84277 0 8.31445 0C 8.77441 0 9.18604 0.0820312 9.54932 0.246094C 9.91553 0.410156 10.1997 0.644531 10.4019 0.949219C 10.604 1.25098 10.7051 1.59668 10.7051 1.98633L 9.16699 1.98633C 9.16699 1.72559 9.08643 1.52344 8.92529 1.37988C 8.76709 1.23633 8.55176 1.16455 8.2793 1.16455C 8.00391 1.16455 7.78564 1.22607 7.62451 1.34912C 7.46631 1.46924 7.38721 1.62305 7.38721 1.81055C 7.38721 1.97461 7.4751 2.12402 7.65088 2.25879C 7.82666 2.39062 8.13574 2.52832 8.57812 2.67188C 9.02051 2.8125 9.38379 2.96484 9.66797 3.12891C 10.3594 3.52734 10.7051 4.07666 10.7051 4.77686C 10.7051 5.33643 10.4941 5.77588 10.0723 6.09521C 9.65039 6.41455 9.07178 6.57422 8.33643 6.57422C 7.81787 6.57422 7.34766 6.48193 6.92578 6.29736C 6.50684 6.10986 6.19043 5.85498 5.97656 5.53271C 5.76562 5.20752 5.66016 4.83398 5.66016 4.41211L 7.20703 4.41211C 7.20703 4.75488 7.29492 5.0083 7.4707 5.17236C 7.64941 5.3335 7.93799 5.41406 8.33643 5.41406C 8.59131 5.41406 8.79199 5.35986 8.93848 5.25146C 9.08789 5.14014 9.1626 4.98486 9.1626 4.78564Z"/>
<path id="path5_fill" d="M 13.522 0.0878906L 14.9502 4.53955L 16.374 0.0878906L 18.4043 0.0878906L 18.4043 6.48633L 16.8574 6.48633L 16.8574 4.99219L 17.0068 1.93359L 15.46 6.48633L 14.4404 6.48633L 12.8892 1.9292L 13.0386 4.99219L 13.0386 6.48633L 11.4961 6.48633L 11.4961 0.0878906L 13.522 0.0878906Z"/>
</defs>
</svg>
