<svg width="24" height="28" viewBox="0 0 24 28" version="1.1" xmlns="http://www.w3.org/2000/svg" xmlns:xlink="http://www.w3.org/1999/xlink">
<title>XT_G</title>
<desc>Created using Figma</desc>
<g id="Canvas" transform="translate(491 94)">
<g id="XT_G">
<g id="Canvas">
<mask id="mask0_alpha" mask-type="alpha">
<g id="mask0_alpha">
<g id="Vector">
<use xlink:href="#path0_fill" transform="translate(-493 -94)" fill="#FFFFFF"/>
</g>
</g>
</mask>
<g id="filetype - doc" mask="url(#mask0_alpha)">
<g id="Group">
<g id="Rectangle 6">
<g id="Vector">
<use xlink:href="#path1_fill" transform="translate(-489.763 -72.125)" fill="#6FCF97"/>
</g>
</g>
<g id="Subtract">
<g id="Vector">
<use xlink:href="#path2_fill" transform="translate(-490.638 -94)" fill="#333333"/>
</g>
</g>
</g>
</g>
</g>
<g id="x_b">
<use xlink:href="#path3_fill" transform="translate(-489.5 -81)"/>
<use xlink:href="#path4_fill" transform="translate(-489.5 -81)"/>
<use xlink:href="#path5_fill" transform="translate(-489.5 -81)"/>
</g>
</g>
</g>
<defs>
<path id="path0_fill" d="M 0.000683594 0L 28.0007 0L 28.0007 28L 0.000683594 28L 0.000683594 0Z"/>
<path id="path1_fill" d="M 0 0L 22.75 0L 22.75 1.75C 22.75 3.683 21.183 5.25 19.25 5.25L 3.5 5.25C 1.567 5.25 0 3.683 0 1.75L 0 0Z"/>
<path id="path2_fill" fill-rule="evenodd" d="M 15.3125 5.50036C 15.3125 5.01673 14.9211 4.62536 14.4375 4.62536C 13.9539 4.62536 13.5625 5.01673 13.5625 5.50036L 13.5625 8.52185C 13.5625 9.00462 13.9539 9.39689 14.4375 9.39689L 17.7598 9.39689C 18.2417 9.39689 18.6348 9.00462 18.6348 8.52185C 18.6348 8.03821 18.2417 7.64685 17.7598 7.64685L 15.3125 7.64685L 15.3125 5.50036ZM 2.625 1.75L 13.7505 1.75L 21.875 9.28576L 21.875 25.375C 21.875 25.8586 21.4836 26.25 21 26.25L 2.625 26.25C 2.14136 26.25 1.75 25.8586 1.75 25.375L 1.75 21.875L 0 21.875L 0 25.375C 0 26.8251 1.17578 28 2.625 28L 21 28C 22.4492 28 23.625 26.8251 23.625 25.375L 23.625 8.52185L 14.4375 0L 2.625 0C 1.17578 0 0 1.17492 0 2.625L 0 9.625L 1.75 9.625L 1.75 2.625C 1.75 2.14136 2.14136 1.75 2.625 1.75Z"/>
<path id="path3_fill" d="M 2.85205 2.12695L 3.89795 0L 5.66016 0L 3.87158 3.17285L 5.7085 6.39844L 3.92871 6.39844L 2.85205 4.23193L 1.77539 6.39844L 0 6.39844L 1.83252 3.17285L 0.0483398 0L 1.80615 0L 2.85205 2.12695Z"/>
<path id="path4_fill" d="M 9.69873 7.50146L 5.73047 7.50146L 5.73047 6.39844L 9.69873 6.39844L 9.69873 7.50146Z"/>
<path id="path5_fill" d="M 10.1865 6.39844L 10.1865 0L 12.4849 0C 13.3081 0 13.9336 0.150879 14.3613 0.452637C 14.792 0.754395 15.0073 1.19238 15.0073 1.7666C 15.0073 2.09766 14.9312 2.38037 14.7788 2.61475C 14.6265 2.84912 14.4023 3.02197 14.1064 3.1333C 14.4404 3.22119 14.6968 3.38525 14.8755 3.62549C 15.0542 3.86572 15.1436 4.15869 15.1436 4.50439C 15.1436 5.13135 14.9443 5.60303 14.5459 5.91943C 14.1504 6.23291 13.563 6.39258 12.7837 6.39844L 10.1865 6.39844ZM 11.729 3.67822L 11.729 5.21191L 12.7397 5.21191C 13.0181 5.21191 13.2319 5.14893 13.3813 5.02295C 13.5308 4.89404 13.6055 4.71387 13.6055 4.48242C 13.6055 3.94922 13.3403 3.68115 12.8101 3.67822L 11.729 3.67822ZM 11.729 2.66748L 12.5332 2.66748C 12.8701 2.66455 13.1104 2.60303 13.2539 2.48291C 13.3975 2.36279 13.4692 2.18555 13.4692 1.95117C 13.4692 1.68164 13.3916 1.48828 13.2363 1.37109C 13.0811 1.25098 12.8306 1.19092 12.4849 1.19092L 11.729 1.19092L 11.729 2.66748Z"/>
</defs>
</svg>
