<svg width="24" height="28" viewBox="0 0 24 28" version="1.1" xmlns="http://www.w3.org/2000/svg" xmlns:xlink="http://www.w3.org/1999/xlink">
<title>Group</title>
<desc>Created using Figma</desc>
<g id="Canvas" transform="translate(561 314)">
<g id="Group">
<g id="Canvas">
<mask id="mask0_alpha" mask-type="alpha">
<g id="mask0_alpha">
<g id="Vector">
<use xlink:href="#path0_fill" transform="translate(-562.999 -314)" fill="#FFFFFF"/>
</g>
</g>
</mask>
<g id="filetype - doc" mask="url(#mask0_alpha)">
<g id="Group">
<g id="Rectangle 6">
<g id="Vector">
<use xlink:href="#path1_fill" transform="translate(-559.763 -292.125)" fill="#E0E0E0"/>
</g>
</g>
<g id="Subtract">
<g id="Vector">
<use xlink:href="#path2_fill" transform="translate(-560.638 -314)" fill="#BDBDBD"/>
</g>
</g>
</g>
</g>
</g>
<g id="DOC">
<use xlink:href="#path3_fill" transform="translate(-559.5 -301)"/>
<use xlink:href="#path4_fill" transform="translate(-559.5 -301)"/>
<use xlink:href="#path5_fill" transform="translate(-559.5 -301)"/>
</g>
</g>
</g>
<defs>
<path id="path0_fill" d="M 0 0L 28 0L 28 28L 0 28L 0 0Z"/>
<path id="path1_fill" d="M 0 0L 22.75 0L 22.75 1.75C 22.75 3.683 21.183 5.25 19.25 5.25L 3.5 5.25C 1.567 5.25 0 3.683 0 1.75L 0 0Z"/>
<path id="path2_fill" fill-rule="evenodd" d="M 15.3125 5.50036C 15.3125 5.01673 14.9211 4.62536 14.4375 4.62536C 13.9539 4.62536 13.5625 5.01673 13.5625 5.50036L 13.5625 8.52185C 13.5625 9.00462 13.9539 9.39689 14.4375 9.39689L 17.7598 9.39689C 18.2417 9.39689 18.6348 9.00462 18.6348 8.52185C 18.6348 8.03821 18.2417 7.64685 17.7598 7.64685L 15.3125 7.64685L 15.3125 5.50036ZM 2.625 1.75L 13.7505 1.75L 21.875 9.28576L 21.875 25.375C 21.875 25.8586 21.4836 26.25 21 26.25L 2.625 26.25C 2.14136 26.25 1.75 25.8586 1.75 25.375L 1.75 21.875L 0 21.875L 0 25.375C 0 26.8251 1.17578 28 2.625 28L 21 28C 22.4492 28 23.625 26.8251 23.625 25.375L 23.625 8.52185L 14.4375 0L 2.625 0C 1.17578 0 0 1.17492 0 2.625L 0 9.625L 1.75 9.625L 1.75 2.625C 1.75 2.14136 2.14136 1.75 2.625 1.75Z"/>
<path id="path3_fill" d="M 0 6.49072L 0 0.0922852L 2.06104 0.0922852C 2.62646 0.0922852 3.13477 0.221191 3.58594 0.479004C 4.03711 0.733887 4.38867 1.0957 4.64062 1.56445C 4.89551 2.03027 5.02441 2.55322 5.02734 3.1333L 5.02734 3.42773C 5.02734 4.01367 4.90283 4.53955 4.65381 5.00537C 4.40771 5.46826 4.05908 5.83154 3.60791 6.09521C 3.15967 6.35596 2.65869 6.48779 2.10498 6.49072L 0 6.49072ZM 1.54248 1.2832L 1.54248 5.3042L 2.07861 5.3042C 2.521 5.3042 2.86084 5.14746 3.09814 4.83398C 3.33545 4.51758 3.4541 4.04883 3.4541 3.42773L 3.4541 3.15088C 3.4541 2.53271 3.33545 2.06689 3.09814 1.75342C 2.86084 1.43994 2.51514 1.2832 2.06104 1.2832L 1.54248 1.2832Z"/>
<path id="path4_fill" d="M 11.2368 3.42334C 11.2368 4.04736 11.1211 4.59961 10.8896 5.08008C 10.6582 5.56055 10.3286 5.93115 9.90088 6.19189C 9.47607 6.44971 8.99121 6.57861 8.44629 6.57861C 7.90137 6.57861 7.41797 6.4541 6.99609 6.20508C 6.57422 5.95312 6.24463 5.59424 6.00732 5.12842C 5.77295 4.6626 5.6499 4.12793 5.63818 3.52441L 5.63818 3.16406C 5.63818 2.53711 5.75244 1.98486 5.98096 1.50732C 6.2124 1.02686 6.54199 0.65625 6.96973 0.395508C 7.40039 0.134766 7.88965 0.00439453 8.4375 0.00439453C 8.97949 0.00439453 9.46289 0.133301 9.8877 0.391113C 10.3125 0.648926 10.6421 1.0166 10.8765 1.49414C 11.1138 1.96875 11.2339 2.51367 11.2368 3.12891L 11.2368 3.42334ZM 9.66797 3.15527C 9.66797 2.51953 9.56104 2.0376 9.34717 1.70947C 9.13623 1.37842 8.83301 1.21289 8.4375 1.21289C 7.66406 1.21289 7.25537 1.79297 7.21143 2.95312L 7.20703 3.42334C 7.20703 4.05029 7.31104 4.53223 7.51904 4.86914C 7.72705 5.20605 8.03613 5.37451 8.44629 5.37451C 8.83594 5.37451 9.13623 5.20898 9.34717 4.87793C 9.55811 4.54688 9.66504 4.0708 9.66797 3.44971L 9.66797 3.15527Z"/>
<path id="path5_fill" d="M 17.209 4.32422C 17.1885 4.76953 17.0684 5.16357 16.8486 5.50635C 16.6289 5.84619 16.3198 6.10986 15.9214 6.29736C 15.5259 6.48486 15.0732 6.57861 14.5635 6.57861C 13.7227 6.57861 13.0605 6.30469 12.5771 5.75684C 12.0938 5.20898 11.8521 4.43555 11.8521 3.43652L 11.8521 3.12012C 11.8521 2.49316 11.9604 1.94531 12.1772 1.47656C 12.397 1.00488 12.7119 0.641602 13.1221 0.386719C 13.5322 0.128906 14.0068 0 14.5459 0C 15.3223 0 15.9463 0.205078 16.418 0.615234C 16.8896 1.02246 17.1577 1.58496 17.2222 2.30273L 15.6841 2.30273C 15.6724 1.91309 15.5742 1.6333 15.3896 1.46338C 15.2051 1.29346 14.9238 1.2085 14.5459 1.2085C 14.1621 1.2085 13.8809 1.35205 13.7021 1.63916C 13.5234 1.92627 13.4297 2.38477 13.4209 3.01465L 13.4209 3.46729C 13.4209 4.1499 13.5059 4.6377 13.6758 4.93066C 13.8486 5.22363 14.1445 5.37012 14.5635 5.37012C 14.918 5.37012 15.189 5.28662 15.3765 5.11963C 15.564 4.95264 15.6636 4.6875 15.6753 4.32422L 17.209 4.32422Z"/>
</defs>
</svg>
