<svg width="24" height="28" viewBox="0 0 24 28" version="1.1" xmlns="http://www.w3.org/2000/svg" xmlns:xlink="http://www.w3.org/1999/xlink">
<title>Group</title>
<desc>Created using Figma</desc>
<g id="Canvas" transform="translate(635 275)">
<g id="Group">
<g id="Canvas">
<mask id="mask0_alpha" mask-type="alpha">
<g id="mask0_alpha">
<g id="Vector">
<use xlink:href="#path0_fill" transform="translate(-637 -275)" fill="#FFFFFF"/>
</g>
</g>
</mask>
<g id="filetype - doc" mask="url(#mask0_alpha)">
<g id="Group">
<g id="Rectangle 6">
<g id="Vector">
<use xlink:href="#path1_fill" transform="translate(-633.763 -253.125)" fill="#6FCF97"/>
</g>
</g>
<g id="Subtract">
<g id="Vector">
<use xlink:href="#path2_fill" transform="translate(-634.638 -275)" fill="#333333"/>
</g>
</g>
</g>
</g>
</g>
<g id="DXF">
<use xlink:href="#path3_fill" transform="translate(-633.5 -262)"/>
<use xlink:href="#path4_fill" transform="translate(-633.5 -262)"/>
<use xlink:href="#path5_fill" transform="translate(-633.5 -262)"/>
</g>
</g>
</g>
<defs>
<path id="path0_fill" d="M 0.000683594 0L 28.0007 0L 28.0007 28L 0.000683594 28L 0.000683594 0Z"/>
<path id="path1_fill" d="M 0 0L 22.75 0L 22.75 1.75C 22.75 3.683 21.183 5.25 19.25 5.25L 3.5 5.25C 1.567 5.25 0 3.683 0 1.75L 0 0Z"/>
<path id="path2_fill" fill-rule="evenodd" d="M 15.3125 5.50036C 15.3125 5.01673 14.9211 4.62536 14.4375 4.62536C 13.9539 4.62536 13.5625 5.01673 13.5625 5.50036L 13.5625 8.52185C 13.5625 9.00462 13.9539 9.39689 14.4375 9.39689L 17.7598 9.39689C 18.2417 9.39689 18.6348 9.00462 18.6348 8.52185C 18.6348 8.03821 18.2417 7.64685 17.7598 7.64685L 15.3125 7.64685L 15.3125 5.50036ZM 2.625 1.75L 13.7505 1.75L 21.875 9.28576L 21.875 25.375C 21.875 25.8586 21.4836 26.25 21 26.25L 2.625 26.25C 2.14136 26.25 1.75 25.8586 1.75 25.375L 1.75 21.875L 0 21.875L 0 25.375C 0 26.8251 1.17578 28 2.625 28L 21 28C 22.4492 28 23.625 26.8251 23.625 25.375L 23.625 8.52185L 14.4375 0L 2.625 0C 1.17578 0 0 1.17492 0 2.625L 0 9.625L 1.75 9.625L 1.75 2.625C 1.75 2.14136 2.14136 1.75 2.625 1.75Z"/>
<path id="path3_fill" d="M 0 6.39844L 0 0L 2.06104 0C 2.62646 0 3.13477 0.128906 3.58594 0.386719C 4.03711 0.641602 4.38867 1.00342 4.64062 1.47217C 4.89551 1.93799 5.02441 2.46094 5.02734 3.04102L 5.02734 3.33545C 5.02734 3.92139 4.90283 4.44727 4.65381 4.91309C 4.40771 5.37598 4.05908 5.73926 3.60791 6.00293C 3.15967 6.26367 2.65869 6.39551 2.10498 6.39844L 0 6.39844ZM 1.54248 1.19092L 1.54248 5.21191L 2.07861 5.21191C 2.521 5.21191 2.86084 5.05518 3.09814 4.7417C 3.33545 4.42529 3.4541 3.95654 3.4541 3.33545L 3.4541 3.05859C 3.4541 2.44043 3.33545 1.97461 3.09814 1.66113C 2.86084 1.34766 2.51514 1.19092 2.06104 1.19092L 1.54248 1.19092Z"/>
<path id="path4_fill" d="M 8.10791 2.12695L 9.15381 0L 10.916 0L 9.12744 3.17285L 10.9644 6.39844L 9.18457 6.39844L 8.10791 4.23193L 7.03125 6.39844L 5.25586 6.39844L 7.08838 3.17285L 5.3042 0L 7.06201 0L 8.10791 2.12695Z"/>
<path id="path5_fill" d="M 15.4995 3.84961L 13.0122 3.84961L 13.0122 6.39844L 11.4697 6.39844L 11.4697 0L 15.75 0L 15.75 1.19092L 13.0122 1.19092L 13.0122 2.66309L 15.4995 2.66309L 15.4995 3.84961Z"/>
</defs>
</svg>
