<svg width="24" height="28" viewBox="0 0 24 28" version="1.1" xmlns="http://www.w3.org/2000/svg" xmlns:xlink="http://www.w3.org/1999/xlink">
<title>CGR_G</title>
<desc>Created using Figma</desc>
<g id="Canvas" transform="translate(694 94)">
<g id="CGR_G">
<g id="Group">
<g id="Canvas">
<mask id="mask0_alpha" mask-type="alpha">
<g id="mask0_alpha">
<g id="Vector">
<use xlink:href="#path0_fill" transform="translate(-696 -94)" fill="#FFFFFF"/>
</g>
</g>
</mask>
<g id="filetype - doc" mask="url(#mask0_alpha)">
<g id="Group">
<g id="Rectangle 6">
<g id="Vector">
<use xlink:href="#path1_fill" transform="translate(-692.763 -72.125)" fill="#6FCF97"/>
</g>
</g>
<g id="Subtract">
<g id="Vector">
<use xlink:href="#path2_fill" transform="translate(-693.638 -94)" fill="#333333"/>
</g>
</g>
</g>
</g>
</g>
<g id="cgr">
<use xlink:href="#path3_fill" transform="translate(-692.5 -81)"/>
<use xlink:href="#path4_fill" transform="translate(-692.5 -81)"/>
<use xlink:href="#path5_fill" transform="translate(-692.5 -81)"/>
</g>
</g>
</g>
</g>
<defs>
<path id="path0_fill" d="M 0.000683594 0L 28.0007 0L 28.0007 28L 0.000683594 28L 0.000683594 0Z"/>
<path id="path1_fill" d="M 0 0L 22.75 0L 22.75 1.75C 22.75 3.683 21.183 5.25 19.25 5.25L 3.5 5.25C 1.567 5.25 0 3.683 0 1.75L 0 0Z"/>
<path id="path2_fill" fill-rule="evenodd" d="M 15.3125 5.50036C 15.3125 5.01673 14.9211 4.62536 14.4375 4.62536C 13.9539 4.62536 13.5625 5.01673 13.5625 5.50036L 13.5625 8.52185C 13.5625 9.00462 13.9539 9.39689 14.4375 9.39689L 17.7598 9.39689C 18.2417 9.39689 18.6348 9.00462 18.6348 8.52185C 18.6348 8.03821 18.2417 7.64685 17.7598 7.64685L 15.3125 7.64685L 15.3125 5.50036ZM 2.625 1.75L 13.7505 1.75L 21.875 9.28576L 21.875 25.375C 21.875 25.8586 21.4836 26.25 21 26.25L 2.625 26.25C 2.14136 26.25 1.75 25.8586 1.75 25.375L 1.75 21.875L 0 21.875L 0 25.375C 0 26.8251 1.17578 28 2.625 28L 21 28C 22.4492 28 23.625 26.8251 23.625 25.375L 23.625 8.52185L 14.4375 0L 2.625 0C 1.17578 0 0 1.17492 0 2.625L 0 9.625L 1.75 9.625L 1.75 2.625C 1.75 2.14136 2.14136 1.75 2.625 1.75Z"/>
<path id="path3_fill" d="M 5.35693 4.32422C 5.33643 4.76953 5.21631 5.16357 4.99658 5.50635C 4.77686 5.84619 4.46777 6.10986 4.06934 6.29736C 3.67383 6.48486 3.22119 6.57861 2.71143 6.57861C 1.87061 6.57861 1.2085 6.30469 0.725098 5.75684C 0.241699 5.20898 0 4.43555 0 3.43652L 0 3.12012C 0 2.49316 0.108398 1.94531 0.325195 1.47656C 0.544922 1.00488 0.859863 0.641602 1.27002 0.386719C 1.68018 0.128906 2.15479 0 2.69385 0C 3.47021 0 4.09424 0.205078 4.56592 0.615234C 5.0376 1.02246 5.30566 1.58496 5.37012 2.30273L 3.83203 2.30273C 3.82031 1.91309 3.72217 1.6333 3.5376 1.46338C 3.35303 1.29346 3.07178 1.2085 2.69385 1.2085C 2.31006 1.2085 2.02881 1.35205 1.8501 1.63916C 1.67139 1.92627 1.57764 2.38477 1.56885 3.01465L 1.56885 3.46729C 1.56885 4.1499 1.65381 4.6377 1.82373 4.93066C 1.99658 5.22363 2.29248 5.37012 2.71143 5.37012C 3.06592 5.37012 3.33691 5.28662 3.52441 5.11963C 3.71191 4.95264 3.81152 4.6875 3.82324 4.32422L 5.35693 4.32422Z"/>
<path id="path4_fill" d="M 11.3247 5.69971C 11.0874 5.96338 10.7402 6.17578 10.2832 6.33691C 9.82617 6.49805 9.3252 6.57861 8.78027 6.57861C 7.94238 6.57861 7.27295 6.32227 6.77197 5.80957C 6.271 5.29688 6.00293 4.5835 5.96777 3.66943L 5.96338 3.11572C 5.96338 2.48584 6.07471 1.93652 6.29736 1.46777C 6.52002 0.996094 6.83789 0.634277 7.25098 0.382324C 7.66699 0.127441 8.14746 0 8.69238 0C 9.48926 0 10.1074 0.183105 10.5469 0.549316C 10.9893 0.912598 11.2471 1.45605 11.3203 2.17969L 9.83496 2.17969C 9.78223 1.82227 9.66797 1.56738 9.49219 1.41504C 9.31641 1.2627 9.06738 1.18652 8.74512 1.18652C 8.3584 1.18652 8.05957 1.35059 7.84863 1.67871C 7.6377 2.00684 7.53076 2.47559 7.52783 3.08496L 7.52783 3.47168C 7.52783 4.11035 7.63623 4.59082 7.85303 4.91309C 8.07275 5.23242 8.41699 5.39209 8.88574 5.39209C 9.28711 5.39209 9.58594 5.30273 9.78223 5.12402L 9.78223 4.13086L 8.70996 4.13086L 8.70996 3.07178L 11.3247 3.07178L 11.3247 5.69971Z"/>
<path id="path5_fill" d="M 14.5986 4.23193L 13.7637 4.23193L 13.7637 6.49072L 12.2212 6.49072L 12.2212 0.0922852L 14.7393 0.0922852C 15.498 0.0922852 16.0913 0.260742 16.519 0.597656C 16.9468 0.93457 17.1606 1.41064 17.1606 2.02588C 17.1606 2.47119 17.0698 2.84033 16.8882 3.1333C 16.7095 3.42627 16.4282 3.66357 16.0444 3.84521L 17.3804 6.4248L 17.3804 6.49072L 15.728 6.49072L 14.5986 4.23193ZM 13.7637 3.04102L 14.7393 3.04102C 15.0322 3.04102 15.252 2.96484 15.3984 2.8125C 15.5479 2.65723 15.6226 2.44189 15.6226 2.1665C 15.6226 1.89111 15.5479 1.67578 15.3984 1.52051C 15.249 1.3623 15.0293 1.2832 14.7393 1.2832L 13.7637 1.2832L 13.7637 3.04102Z"/>
</defs>
</svg>
