<svg width="24" height="28" viewBox="0 0 24 28" version="1.1" xmlns="http://www.w3.org/2000/svg" xmlns:xlink="http://www.w3.org/1999/xlink">
<title>SLDP</title>
<desc>Created using Figma</desc>
<g id="Canvas" transform="translate(2747 2973)">
<g id="SLDP">
<g id="Canvas">
<mask id="mask0_alpha" mask-type="alpha">
<g id="mask0_alpha">
<g id="Vector">
<use xlink:href="#path0_fill" transform="translate(-2749 -2973)" fill="#FFFFFF"/>
</g>
</g>
</mask>
<g id="filetype - doc" mask="url(#mask0_alpha)">
<g id="Group">
<g id="Rectangle 6">
<g id="Vector">
<use xlink:href="#path1_fill" transform="translate(-2745.76 -2951.12)" fill="#E0E0E0"/>
</g>
</g>
<g id="Subtract">
<g id="Vector">
<use xlink:href="#path2_fill" transform="translate(-2746.64 -2973)" fill="#BDBDBD"/>
</g>
</g>
</g>
</g>
</g>
<g id="SLDP">
<use xlink:href="#path3_fill" transform="translate(-2746 -2960)"/>
<use xlink:href="#path4_fill" transform="translate(-2746 -2960)"/>
<use xlink:href="#path5_fill" transform="translate(-2746 -2960)"/>
<use xlink:href="#path6_fill" transform="translate(-2746 -2960)"/>
</g>
</g>
</g>
<defs>
<path id="path0_fill" d="M 0.000683594 0L 28.0007 0L 28.0007 28L 0.000683594 28L 0.000683594 0Z"/>
<path id="path1_fill" d="M 0 0L 22.75 0L 22.75 1.75C 22.75 3.683 21.183 5.25 19.25 5.25L 3.5 5.25C 1.567 5.25 0 3.683 0 1.75L 0 0Z"/>
<path id="path2_fill" fill-rule="evenodd" d="M 15.3125 5.50036C 15.3125 5.01673 14.9211 4.62536 14.4375 4.62536C 13.9539 4.62536 13.5625 5.01673 13.5625 5.50036L 13.5625 8.52185C 13.5625 9.00463 13.9539 9.39689 14.4375 9.39689L 17.7598 9.39689C 18.2417 9.39689 18.6348 9.00463 18.6348 8.52185C 18.6348 8.03821 18.2417 7.64685 17.7598 7.64685L 15.3125 7.64685L 15.3125 5.50036ZM 2.625 1.75L 13.7505 1.75L 21.875 9.28576L 21.875 11L 23.625 11L 23.625 20L 21.875 20L 21.875 25.375C 21.875 25.8586 21.4836 26.25 21 26.25L 2.625 26.25C 2.14136 26.25 1.75 25.8586 1.75 25.375L 1.75 21.875L 0 21.875L 0 25.375C 0 26.8251 1.17578 28 2.625 28L 21 28C 22.4492 28 23.625 26.8251 23.625 25.375L 23.625 20L 23.625 15L 23.625 11L 23.625 8.52185L 14.4375 0L 2.625 0C 1.17578 0 0 1.17492 0 2.625L 0 9.625L 1.75 9.625L 1.75 2.625C 1.75 2.14136 2.14136 1.75 2.625 1.75Z"/>
<path id="path3_fill" d="M 3.50244 4.78564C 3.50244 4.56006 3.42188 4.38428 3.26074 4.2583C 3.10254 4.13232 2.82275 4.00195 2.42139 3.86719C 2.02002 3.73242 1.69189 3.60205 1.43701 3.47607C 0.60791 3.06885 0.193359 2.50928 0.193359 1.79736C 0.193359 1.44287 0.295898 1.13086 0.500977 0.861328C 0.708984 0.588867 1.00195 0.37793 1.37988 0.228516C 1.75781 0.0761719 2.18262 0 2.6543 0C 3.11426 0 3.52588 0.0820312 3.88916 0.246094C 4.25537 0.410156 4.53955 0.644531 4.7417 0.949219C 4.94385 1.25098 5.04492 1.59668 5.04492 1.98633L 3.50684 1.98633C 3.50684 1.72559 3.42627 1.52344 3.26514 1.37988C 3.10693 1.23633 2.8916 1.16455 2.61914 1.16455C 2.34375 1.16455 2.12549 1.22607 1.96436 1.34912C 1.80615 1.46924 1.72705 1.62305 1.72705 1.81055C 1.72705 1.97461 1.81494 2.12402 1.99072 2.25879C 2.1665 2.39062 2.47559 2.52832 2.91797 2.67188C 3.36035 2.8125 3.72363 2.96484 4.00781 3.12891C 4.69922 3.52734 5.04492 4.07666 5.04492 4.77686C 5.04492 5.33643 4.83398 5.77588 4.41211 6.09521C 3.99023 6.41455 3.41162 6.57422 2.67627 6.57422C 2.15771 6.57422 1.6875 6.48193 1.26562 6.29736C 0.84668 6.10986 0.530273 5.85498 0.316406 5.53271C 0.105469 5.20752 0 4.83398 0 4.41211L 1.54688 4.41211C 1.54688 4.75488 1.63477 5.0083 1.81055 5.17236C 1.98926 5.3335 2.27783 5.41406 2.67627 5.41406C 2.93115 5.41406 3.13184 5.35986 3.27832 5.25146C 3.42773 5.14014 3.50244 4.98486 3.50244 4.78564Z"/>
<path id="path4_fill" d="M 7.37842 5.2998L 10.0635 5.2998L 10.0635 6.48633L 5.83594 6.48633L 5.83594 0.0878906L 7.37842 0.0878906L 7.37842 5.2998Z"/>
<path id="path5_fill" d="M 10.7139 6.48633L 10.7139 0.0878906L 12.7749 0.0878906C 13.3403 0.0878906 13.8486 0.216797 14.2998 0.474609C 14.751 0.729492 15.1025 1.09131 15.3545 1.56006C 15.6094 2.02588 15.7383 2.54883 15.7412 3.12891L 15.7412 3.42334C 15.7412 4.00928 15.6167 4.53516 15.3677 5.00098C 15.1216 5.46387 14.7729 5.82715 14.3218 6.09082C 13.8735 6.35156 13.3726 6.4834 12.8188 6.48633L 10.7139 6.48633ZM 12.2563 1.27881L 12.2563 5.2998L 12.7925 5.2998C 13.2349 5.2998 13.5747 5.14307 13.812 4.82959C 14.0493 4.51318 14.168 4.04443 14.168 3.42334L 14.168 3.14648C 14.168 2.52832 14.0493 2.0625 13.812 1.74902C 13.5747 1.43555 13.229 1.27881 12.7749 1.27881L 12.2563 1.27881Z"/>
<path id="path6_fill" d="M 18.0747 4.31543L 18.0747 6.48633L 16.5322 6.48633L 16.5322 0.0878906L 19.0854 0.0878906C 19.5747 0.0878906 20.0068 0.178711 20.3818 0.360352C 20.7598 0.539062 21.0513 0.79541 21.2563 1.12939C 21.4644 1.46045 21.5684 1.83691 21.5684 2.25879C 21.5684 2.88281 21.3442 3.38232 20.896 3.75732C 20.4507 4.12939 19.8384 4.31543 19.0591 4.31543L 18.0747 4.31543ZM 18.0747 3.12451L 19.0854 3.12451C 19.3843 3.12451 19.6113 3.0498 19.7666 2.90039C 19.9248 2.75098 20.0039 2.54004 20.0039 2.26758C 20.0039 1.96875 19.9233 1.72998 19.7622 1.55127C 19.6011 1.37256 19.3813 1.28174 19.103 1.27881L 18.0747 1.27881L 18.0747 3.12451Z"/>
</defs>
</svg>
