<svg width="24" height="28" viewBox="0 0 24 28" version="1.1" xmlns="http://www.w3.org/2000/svg" xmlns:xlink="http://www.w3.org/1999/xlink">
<title>VB</title>
<desc>Created using Figma</desc>
<g id="Canvas" transform="translate(1354 314)">
<g id="VB">
<g id="RH">
<g id="Canvas">
<mask id="mask0_alpha" mask-type="alpha">
<g id="mask0_alpha">
<g id="Vector">
<use xlink:href="#path0_fill" transform="translate(-1356 -314)" fill="#FFFFFF"/>
</g>
</g>
</mask>
<g id="filetype - doc" mask="url(#mask0_alpha)">
<g id="Group">
<g id="Rectangle 6">
<g id="Vector">
<use xlink:href="#path1_fill" transform="translate(-1352.76 -292.125)" fill="#E0E0E0"/>
</g>
</g>
<g id="Subtract">
<g id="Vector">
<use xlink:href="#path2_fill" transform="translate(-1353.64 -314)" fill="#BDBDBD"/>
</g>
</g>
</g>
</g>
</g>
</g>
<g id="VB">
<use xlink:href="#path3_fill" transform="translate(-1353.01 -300.898)"/>
<use xlink:href="#path4_fill" transform="translate(-1353.01 -300.898)"/>
</g>
</g>
</g>
<defs>
<path id="path0_fill" d="M -2.18279e-11 0L 28 0L 28 28L -2.18279e-11 28L -2.18279e-11 0Z"/>
<path id="path1_fill" d="M 0 0L 22.75 0L 22.75 1.75C 22.75 3.683 21.183 5.25 19.25 5.25L 3.5 5.25C 1.567 5.25 0 3.683 0 1.75L 0 0Z"/>
<path id="path2_fill" fill-rule="evenodd" d="M 15.3125 5.50036C 15.3125 5.01673 14.9211 4.62536 14.4375 4.62536C 13.9539 4.62536 13.5625 5.01673 13.5625 5.50036L 13.5625 8.52185C 13.5625 9.00462 13.9539 9.39689 14.4375 9.39689L 17.7598 9.39689C 18.2417 9.39689 18.6348 9.00462 18.6348 8.52185C 18.6348 8.03821 18.2417 7.64685 17.7598 7.64685L 15.3125 7.64685L 15.3125 5.50036ZM 2.625 1.75L 13.7505 1.75L 21.875 9.28576L 21.875 25.375C 21.875 25.8586 21.4836 26.25 21 26.25L 2.625 26.25C 2.14136 26.25 1.75 25.8586 1.75 25.375L 1.75 21.875L 0 21.875L 0 25.375C 0 26.825 1.17578 28 2.625 28L 21 28C 22.4492 28 23.625 26.825 23.625 25.375L 23.625 8.52185L 14.4375 0L 2.625 0C 1.17578 0 0 1.17492 0 2.625L 0 9.625L 1.75 9.625L 1.75 2.625C 1.75 2.14136 2.14136 1.75 2.625 1.75Z"/>
<path id="path3_fill" d="M 2.97949 4.6582L 4.25391 0L 5.97656 0L 3.82324 6.39844L 2.13574 6.39844L 0 0L 1.70947 0L 2.97949 4.6582Z"/>
<path id="path4_fill" d="M 6.44678 6.39844L 6.44678 0L 8.74512 0C 9.56836 0 10.1938 0.150879 10.6216 0.452637C 11.0522 0.754395 11.2676 1.19238 11.2676 1.7666C 11.2676 2.09766 11.1914 2.38037 11.0391 2.61475C 10.8867 2.84912 10.6626 3.02197 10.3667 3.1333C 10.7007 3.22119 10.957 3.38525 11.1357 3.62549C 11.3145 3.86572 11.4038 4.15869 11.4038 4.50439C 11.4038 5.13135 11.2046 5.60303 10.8062 5.91943C 10.4106 6.23291 9.82324 6.39258 9.04395 6.39844L 6.44678 6.39844ZM 7.98926 3.67822L 7.98926 5.21191L 9 5.21191C 9.27832 5.21191 9.49219 5.14893 9.6416 5.02295C 9.79102 4.89404 9.86572 4.71387 9.86572 4.48242C 9.86572 3.94922 9.60059 3.68115 9.07031 3.67822L 7.98926 3.67822ZM 7.98926 2.66748L 8.79346 2.66748C 9.13037 2.66455 9.37061 2.60303 9.51416 2.48291C 9.65771 2.36279 9.72949 2.18555 9.72949 1.95117C 9.72949 1.68164 9.65186 1.48828 9.49658 1.37109C 9.34131 1.25098 9.09082 1.19092 8.74512 1.19092L 7.98926 1.19092L 7.98926 2.66748Z"/>
</defs>
</svg>
