<svg width="24" height="28" viewBox="0 0 24 28" version="1.1" xmlns="http://www.w3.org/2000/svg" xmlns:xlink="http://www.w3.org/1999/xlink">
<title>LOG</title>
<desc>Created using Figma</desc>
<g id="Canvas" transform="translate(1382 314)">
<g id="LOG">
<g id="RH">
<g id="Canvas">
<mask id="mask0_alpha" mask-type="alpha">
<g id="mask0_alpha">
<g id="Vector">
<use xlink:href="#path0_fill" transform="translate(-1384 -314)" fill="#FFFFFF"/>
</g>
</g>
</mask>
<g id="filetype - doc" mask="url(#mask0_alpha)">
<g id="Group">
<g id="Rectangle 6">
<g id="Vector">
<use xlink:href="#path1_fill" transform="translate(-1380.76 -292.125)" fill="#E0E0E0"/>
</g>
</g>
<g id="Subtract">
<g id="Vector">
<use xlink:href="#path2_fill" transform="translate(-1381.64 -314)" fill="#BDBDBD"/>
</g>
</g>
</g>
</g>
</g>
</g>
<g id="LOG">
<use xlink:href="#path3_fill" transform="translate(-1380.52 -300.991)"/>
<use xlink:href="#path4_fill" transform="translate(-1380.52 -300.991)"/>
<use xlink:href="#path5_fill" transform="translate(-1380.52 -300.991)"/>
</g>
</g>
</g>
<defs>
<path id="path0_fill" d="M -2.18279e-11 0L 28 0L 28 28L -2.18279e-11 28L -2.18279e-11 0Z"/>
<path id="path1_fill" d="M 0 0L 22.75 0L 22.75 1.75C 22.75 3.683 21.183 5.25 19.25 5.25L 3.5 5.25C 1.567 5.25 0 3.683 0 1.75L 0 0Z"/>
<path id="path2_fill" fill-rule="evenodd" d="M 15.3125 5.50036C 15.3125 5.01673 14.9211 4.62536 14.4375 4.62536C 13.9539 4.62536 13.5625 5.01673 13.5625 5.50036L 13.5625 8.52185C 13.5625 9.00462 13.9539 9.39689 14.4375 9.39689L 17.7598 9.39689C 18.2417 9.39689 18.6348 9.00462 18.6348 8.52185C 18.6348 8.03821 18.2417 7.64685 17.7598 7.64685L 15.3125 7.64685L 15.3125 5.50036ZM 2.625 1.75L 13.7505 1.75L 21.875 9.28576L 21.875 25.375C 21.875 25.8586 21.4836 26.25 21 26.25L 2.625 26.25C 2.14136 26.25 1.75 25.8586 1.75 25.375L 1.75 21.875L 0 21.875L 0 25.375C 0 26.825 1.17578 28 2.625 28L 21 28C 22.4492 28 23.625 26.825 23.625 25.375L 23.625 8.52185L 14.4375 0L 2.625 0C 1.17578 0 0 1.17492 0 2.625L 0 9.625L 1.75 9.625L 1.75 2.625C 1.75 2.14136 2.14136 1.75 2.625 1.75Z"/>
<path id="path3_fill" d="M 1.54248 5.3042L 4.22754 5.3042L 4.22754 6.49072L 0 6.49072L 0 0.0922852L 1.54248 0.0922852L 1.54248 5.3042Z"/>
<path id="path4_fill" d="M 10.0151 3.42334C 10.0151 4.04736 9.89941 4.59961 9.66797 5.08008C 9.43652 5.56055 9.10693 5.93115 8.6792 6.19189C 8.25439 6.44971 7.76953 6.57861 7.22461 6.57861C 6.67969 6.57861 6.19629 6.4541 5.77441 6.20508C 5.35254 5.95312 5.02295 5.59424 4.78564 5.12842C 4.55127 4.6626 4.42822 4.12793 4.4165 3.52441L 4.4165 3.16406C 4.4165 2.53711 4.53076 1.98486 4.75928 1.50732C 4.99072 1.02686 5.32031 0.65625 5.74805 0.395508C 6.17871 0.134766 6.66797 0.00439453 7.21582 0.00439453C 7.75781 0.00439453 8.24121 0.133301 8.66602 0.391113C 9.09082 0.648926 9.42041 1.0166 9.65479 1.49414C 9.89209 1.96875 10.0122 2.51367 10.0151 3.12891L 10.0151 3.42334ZM 8.44629 3.15527C 8.44629 2.51953 8.33936 2.0376 8.12549 1.70947C 7.91455 1.37842 7.61133 1.21289 7.21582 1.21289C 6.44238 1.21289 6.03369 1.79297 5.98975 2.95312L 5.98535 3.42334C 5.98535 4.05029 6.08936 4.53223 6.29736 4.86914C 6.50537 5.20605 6.81445 5.37451 7.22461 5.37451C 7.61426 5.37451 7.91455 5.20898 8.12549 4.87793C 8.33643 4.54688 8.44336 4.0708 8.44629 3.44971L 8.44629 3.15527Z"/>
<path id="path5_fill" d="M 16.0488 5.69971C 15.8115 5.96338 15.4644 6.17578 15.0073 6.33691C 14.5503 6.49805 14.0493 6.57861 13.5044 6.57861C 12.6665 6.57861 11.9971 6.32227 11.4961 5.80957C 10.9951 5.29688 10.7271 4.5835 10.6919 3.66943L 10.6875 3.11572C 10.6875 2.48584 10.7988 1.93652 11.0215 1.46777C 11.2441 0.996094 11.562 0.634277 11.9751 0.382324C 12.3911 0.127441 12.8716 0 13.4165 0C 14.2134 0 14.8315 0.183105 15.271 0.549316C 15.7134 0.912598 15.9712 1.45605 16.0444 2.17969L 14.5591 2.17969C 14.5063 1.82227 14.3921 1.56738 14.2163 1.41504C 14.0405 1.2627 13.7915 1.18652 13.4692 1.18652C 13.0825 1.18652 12.7837 1.35059 12.5728 1.67871C 12.3618 2.00684 12.2549 2.47559 12.252 3.08496L 12.252 3.47168C 12.252 4.11035 12.3604 4.59082 12.5771 4.91309C 12.7969 5.23242 13.1411 5.39209 13.6099 5.39209C 14.0112 5.39209 14.3101 5.30273 14.5063 5.12402L 14.5063 4.13086L 13.4341 4.13086L 13.4341 3.07178L 16.0488 3.07178L 16.0488 5.69971Z"/>
</defs>
</svg>
