<svg width="24" height="28" viewBox="0 0 24 28" version="1.1" xmlns="http://www.w3.org/2000/svg" xmlns:xlink="http://www.w3.org/1999/xlink">
<title>Group</title>
<desc>Created using Figma</desc>
<g id="Canvas" transform="translate(697 275)">
<g id="Group">
<g id="Canvas">
<mask id="mask0_alpha" mask-type="alpha">
<g id="mask0_alpha">
<g id="Vector">
<use xlink:href="#path0_fill" transform="translate(-699 -275)" fill="#FFFFFF"/>
</g>
</g>
</mask>
<g id="filetype - doc" mask="url(#mask0_alpha)">
<g id="Group">
<g id="Rectangle 6">
<g id="Vector">
<use xlink:href="#path1_fill" transform="translate(-695.763 -253.125)" fill="#6FCF97"/>
</g>
</g>
<g id="Subtract">
<g id="Vector">
<use xlink:href="#path2_fill" transform="translate(-696.638 -275)" fill="#333333"/>
</g>
</g>
</g>
</g>
</g>
<g id="ZIP">
<use xlink:href="#path3_fill" transform="translate(-695.5 -262)"/>
<use xlink:href="#path4_fill" transform="translate(-695.5 -262)"/>
<use xlink:href="#path5_fill" transform="translate(-695.5 -262)"/>
</g>
</g>
</g>
<defs>
<path id="path0_fill" d="M 0.000683594 0L 28.0007 0L 28.0007 28L 0.000683594 28L 0.000683594 0Z"/>
<path id="path1_fill" d="M 0 0L 22.75 0L 22.75 1.75C 22.75 3.683 21.183 5.25 19.25 5.25L 3.5 5.25C 1.567 5.25 0 3.683 0 1.75L 0 0Z"/>
<path id="path2_fill" fill-rule="evenodd" d="M 15.3125 5.50036C 15.3125 5.01673 14.9211 4.62536 14.4375 4.62536C 13.9539 4.62536 13.5625 5.01673 13.5625 5.50036L 13.5625 8.52185C 13.5625 9.00462 13.9539 9.39689 14.4375 9.39689L 17.7598 9.39689C 18.2417 9.39689 18.6348 9.00462 18.6348 8.52185C 18.6348 8.03821 18.2417 7.64685 17.7598 7.64685L 15.3125 7.64685L 15.3125 5.50036ZM 2.625 1.75L 13.7505 1.75L 21.875 9.28576L 21.875 25.375C 21.875 25.8586 21.4836 26.25 21 26.25L 2.625 26.25C 2.14136 26.25 1.75 25.8586 1.75 25.375L 1.75 21.875L 0 21.875L 0 25.375C 0 26.8251 1.17578 28 2.625 28L 21 28C 22.4492 28 23.625 26.8251 23.625 25.375L 23.625 8.52185L 14.4375 0L 2.625 0C 1.17578 0 0 1.17492 0 2.625L 0 9.625L 1.75 9.625L 1.75 2.625C 1.75 2.14136 2.14136 1.75 2.625 1.75Z"/>
<path id="path3_fill" d="M 1.94238 5.21191L 5.00098 5.21191L 5.00098 6.39844L 0.0175781 6.39844L 0.0175781 5.58545L 3.06738 1.19092L 0 1.19092L 0 0L 4.97021 0L 4.97021 0.791016L 1.94238 5.21191Z"/>
<path id="path4_fill" d="M 7.34766 6.39844L 5.80957 6.39844L 5.80957 0L 7.34766 0L 7.34766 6.39844Z"/>
<path id="path5_fill" d="M 9.9624 4.22754L 9.9624 6.39844L 8.41992 6.39844L 8.41992 0L 10.9731 0C 11.4624 0 11.8945 0.0908203 12.2695 0.272461C 12.6475 0.451172 12.939 0.70752 13.144 1.0415C 13.3521 1.37256 13.4561 1.74902 13.4561 2.1709C 13.4561 2.79492 13.2319 3.29443 12.7837 3.66943C 12.3384 4.0415 11.7261 4.22754 10.9468 4.22754L 9.9624 4.22754ZM 9.9624 3.03662L 10.9731 3.03662C 11.272 3.03662 11.499 2.96191 11.6543 2.8125C 11.8125 2.66309 11.8916 2.45215 11.8916 2.17969C 11.8916 1.88086 11.811 1.64209 11.6499 1.46338C 11.4888 1.28467 11.269 1.19385 10.9907 1.19092L 9.9624 1.19092L 9.9624 3.03662Z"/>
</defs>
</svg>
