<svg width="24" height="28" viewBox="0 0 24 28" version="1.1" xmlns="http://www.w3.org/2000/svg" xmlns:xlink="http://www.w3.org/1999/xlink">
<title>Group</title>
<desc>Created using Figma</desc>
<g id="Canvas" transform="translate(635 227)">
<g id="Group">
<g id="Canvas">
<mask id="mask0_alpha" mask-type="alpha">
<g id="mask0_alpha">
<g id="Vector">
<use xlink:href="#path0_fill" transform="translate(-637 -227)" fill="#FFFFFF"/>
</g>
</g>
</mask>
<g id="filetype - doc" mask="url(#mask0_alpha)">
<g id="Group">
<g id="Rectangle 6">
<g id="Vector">
<use xlink:href="#path1_fill" transform="translate(-633.763 -205.125)" fill="#E0E0E0"/>
</g>
</g>
<g id="Subtract">
<g id="Vector">
<use xlink:href="#path2_fill" transform="translate(-634.638 -227)" fill="#BDBDBD"/>
</g>
</g>
</g>
</g>
</g>
<g id="PNG">
<use xlink:href="#path3_fill" transform="translate(-633.5 -214)"/>
<use xlink:href="#path4_fill" transform="translate(-633.5 -214)"/>
<use xlink:href="#path5_fill" transform="translate(-633.5 -214)"/>
</g>
</g>
</g>
<defs>
<path id="path0_fill" d="M 0.000683594 0L 28.0007 0L 28.0007 28L 0.000683594 28L 0.000683594 0Z"/>
<path id="path1_fill" d="M 0 0L 22.75 0L 22.75 1.75C 22.75 3.683 21.183 5.25 19.25 5.25L 3.5 5.25C 1.567 5.25 0 3.683 0 1.75L 0 0Z"/>
<path id="path2_fill" fill-rule="evenodd" d="M 15.3125 5.50036C 15.3125 5.01673 14.9211 4.62536 14.4375 4.62536C 13.9539 4.62536 13.5625 5.01673 13.5625 5.50036L 13.5625 8.52185C 13.5625 9.00462 13.9539 9.39689 14.4375 9.39689L 17.7598 9.39689C 18.2417 9.39689 18.6348 9.00462 18.6348 8.52185C 18.6348 8.03821 18.2417 7.64685 17.7598 7.64685L 15.3125 7.64685L 15.3125 5.50036ZM 2.625 1.75L 13.7505 1.75L 21.875 9.28576L 21.875 25.375C 21.875 25.8586 21.4836 26.25 21 26.25L 2.625 26.25C 2.14136 26.25 1.75 25.8586 1.75 25.375L 1.75 21.875L 0 21.875L 0 25.375C 0 26.8251 1.17578 28 2.625 28L 21 28C 22.4492 28 23.625 26.8251 23.625 25.375L 23.625 8.52185L 14.4375 0L 2.625 0C 1.17578 0 0 1.17492 0 2.625L 0 9.625L 1.75 9.625L 1.75 2.625C 1.75 2.14136 2.14136 1.75 2.625 1.75Z"/>
<path id="path3_fill" d="M 1.54248 4.31982L 1.54248 6.49072L 0 6.49072L 0 0.0922852L 2.55322 0.0922852C 3.04248 0.0922852 3.47461 0.183105 3.84961 0.364746C 4.22754 0.543457 4.51904 0.799805 4.72412 1.13379C 4.93213 1.46484 5.03613 1.84131 5.03613 2.26318C 5.03613 2.88721 4.81201 3.38672 4.36377 3.76172C 3.91846 4.13379 3.30615 4.31982 2.52686 4.31982L 1.54248 4.31982ZM 1.54248 3.12891L 2.55322 3.12891C 2.85205 3.12891 3.0791 3.0542 3.23438 2.90479C 3.39258 2.75537 3.47168 2.54443 3.47168 2.27197C 3.47168 1.97314 3.39111 1.73438 3.22998 1.55566C 3.06885 1.37695 2.84912 1.28613 2.5708 1.2832L 1.54248 1.2832L 1.54248 3.12891Z"/>
<path id="path4_fill" d="M 11.2061 6.49072L 9.67236 6.49072L 7.40479 2.50928L 7.40479 6.49072L 5.8623 6.49072L 5.8623 0.0922852L 7.40479 0.0922852L 9.66797 4.07373L 9.66797 0.0922852L 11.2061 0.0922852L 11.2061 6.49072Z"/>
<path id="path5_fill" d="M 17.4199 5.69971C 17.1826 5.96338 16.8354 6.17578 16.3784 6.33691C 15.9214 6.49805 15.4204 6.57861 14.8755 6.57861C 14.0376 6.57861 13.3682 6.32227 12.8672 5.80957C 12.3662 5.29688 12.0981 4.5835 12.063 3.66943L 12.0586 3.11572C 12.0586 2.48584 12.1699 1.93652 12.3926 1.46777C 12.6152 0.996094 12.9331 0.634277 13.3462 0.382324C 13.7622 0.127441 14.2427 0 14.7876 0C 15.5845 0 16.2026 0.183105 16.6421 0.549316C 17.0845 0.912598 17.3423 1.45605 17.4155 2.17969L 15.9302 2.17969C 15.8774 1.82227 15.7632 1.56738 15.5874 1.41504C 15.4116 1.2627 15.1626 1.18652 14.8403 1.18652C 14.4536 1.18652 14.1548 1.35059 13.9438 1.67871C 13.7329 2.00684 13.626 2.47559 13.623 3.08496L 13.623 3.47168C 13.623 4.11035 13.7314 4.59082 13.9482 4.91309C 14.168 5.23242 14.5122 5.39209 14.981 5.39209C 15.3823 5.39209 15.6812 5.30273 15.8774 5.12402L 15.8774 4.13086L 14.8052 4.13086L 14.8052 3.07178L 17.4199 3.07178L 17.4199 5.69971Z"/>
</defs>
</svg>
