<svg width="25" height="28" viewBox="0 0 25 28" version="1.1" xmlns="http://www.w3.org/2000/svg" xmlns:xlink="http://www.w3.org/1999/xlink">
<title>Group</title>
<desc>Created using Figma</desc>
<g id="Canvas" transform="translate(667 275)">
<g id="Group">
<g id="Canvas">
<mask id="mask0_alpha" mask-type="alpha">
<g id="mask0_alpha">
<g id="Vector">
<use xlink:href="#path0_fill" transform="translate(-669 -275)" fill="#FFFFFF"/>
</g>
</g>
</mask>
<g id="filetype - doc" mask="url(#mask0_alpha)">
<g id="Group">
<g id="Rectangle 6">
<g id="Vector">
<use xlink:href="#path1_fill" transform="translate(-665.763 -253.125)" fill="#6FCF97"/>
</g>
</g>
<g id="Subtract">
<g id="Vector">
<use xlink:href="#path2_fill" transform="translate(-666.638 -275)" fill="#333333"/>
</g>
</g>
</g>
</g>
</g>
<g id="VSDX">
<use xlink:href="#path3_fill" transform="translate(-666 -262)"/>
<use xlink:href="#path4_fill" transform="translate(-666 -262)"/>
<use xlink:href="#path5_fill" transform="translate(-666 -262)"/>
<use xlink:href="#path6_fill" transform="translate(-666 -262)"/>
</g>
</g>
</g>
<defs>
<path id="path0_fill" d="M 0.000683594 0L 28.0007 0L 28.0007 28L 0.000683594 28L 0.000683594 0Z"/>
<path id="path1_fill" d="M 0 0L 22.75 0L 22.75 1.75C 22.75 3.683 21.183 5.25 19.25 5.25L 3.5 5.25C 1.567 5.25 0 3.683 0 1.75L 0 0Z"/>
<path id="path2_fill" fill-rule="evenodd" d="M 15.3125 5.50036C 15.3125 5.01673 14.9211 4.62536 14.4375 4.62536C 13.9539 4.62536 13.5625 5.01673 13.5625 5.50036L 13.5625 8.52185C 13.5625 9.00463 13.9539 9.39689 14.4375 9.39689L 17.7598 9.39689C 18.2417 9.39689 18.6348 9.00463 18.6348 8.52185C 18.6348 8.03821 18.2417 7.64685 17.7598 7.64685L 15.3125 7.64685L 15.3125 5.50036ZM 2.625 1.75L 13.7505 1.75L 21.875 9.28576L 21.875 11L 23.625 11L 23.625 20L 21.875 20L 21.875 25.375C 21.875 25.8586 21.4836 26.25 21 26.25L 2.625 26.25C 2.14136 26.25 1.75 25.8586 1.75 25.375L 1.75 21.875L 0 21.875L 0 25.375C 0 26.8251 1.17578 28 2.625 28L 21 28C 22.4492 28 23.625 26.8251 23.625 25.375L 23.625 20L 23.625 15L 23.625 11L 23.625 8.52185L 14.4375 0L 2.625 0C 1.17578 0 0 1.17492 0 2.625L 0 9.625L 1.75 9.625L 1.75 2.625C 1.75 2.14136 2.14136 1.75 2.625 1.75Z"/>
<path id="path3_fill" d="M 2.97949 4.74609L 4.25391 0.0878906L 5.97656 0.0878906L 3.82324 6.48633L 2.13574 6.48633L 0 0.0878906L 1.70947 0.0878906L 2.97949 4.74609Z"/>
<path id="path4_fill" d="M 9.74707 4.78564C 9.74707 4.56006 9.6665 4.38428 9.50537 4.2583C 9.34717 4.13232 9.06738 4.00195 8.66602 3.86719C 8.26465 3.73242 7.93652 3.60205 7.68164 3.47607C 6.85254 3.06885 6.43799 2.50928 6.43799 1.79736C 6.43799 1.44287 6.54053 1.13086 6.74561 0.861328C 6.95361 0.588867 7.24658 0.37793 7.62451 0.228516C 8.00244 0.0761719 8.42725 0 8.89893 0C 9.35889 0 9.77051 0.0820312 10.1338 0.246094C 10.5 0.410156 10.7842 0.644531 10.9863 0.949219C 11.1885 1.25098 11.2896 1.59668 11.2896 1.98633L 9.75146 1.98633C 9.75146 1.72559 9.6709 1.52344 9.50977 1.37988C 9.35156 1.23633 9.13623 1.16455 8.86377 1.16455C 8.58838 1.16455 8.37012 1.22607 8.20898 1.34912C 8.05078 1.46924 7.97168 1.62305 7.97168 1.81055C 7.97168 1.97461 8.05957 2.12402 8.23535 2.25879C 8.41113 2.39062 8.72021 2.52832 9.1626 2.67188C 9.60498 2.8125 9.96826 2.96484 10.2524 3.12891C 10.9438 3.52734 11.2896 4.07666 11.2896 4.77686C 11.2896 5.33643 11.0786 5.77588 10.6567 6.09521C 10.2349 6.41455 9.65625 6.57422 8.9209 6.57422C 8.40234 6.57422 7.93213 6.48193 7.51025 6.29736C 7.09131 6.10986 6.7749 5.85498 6.56104 5.53271C 6.3501 5.20752 6.24463 4.83398 6.24463 4.41211L 7.7915 4.41211C 7.7915 4.75488 7.87939 5.0083 8.05518 5.17236C 8.23389 5.3335 8.52246 5.41406 8.9209 5.41406C 9.17578 5.41406 9.37646 5.35986 9.52295 5.25146C 9.67236 5.14014 9.74707 4.98486 9.74707 4.78564Z"/>
<path id="path5_fill" d="M 12.0806 6.48633L 12.0806 0.0878906L 14.1416 0.0878906C 14.707 0.0878906 15.2153 0.216797 15.6665 0.474609C 16.1177 0.729492 16.4692 1.09131 16.7212 1.56006C 16.9761 2.02588 17.105 2.54883 17.1079 3.12891L 17.1079 3.42334C 17.1079 4.00928 16.9834 4.53516 16.7344 5.00098C 16.4883 5.46387 16.1396 5.82715 15.6885 6.09082C 15.2402 6.35156 14.7393 6.4834 14.1855 6.48633L 12.0806 6.48633ZM 13.623 1.27881L 13.623 5.2998L 14.1592 5.2998C 14.6016 5.2998 14.9414 5.14307 15.1787 4.82959C 15.416 4.51318 15.5347 4.04443 15.5347 3.42334L 15.5347 3.14648C 15.5347 2.52832 15.416 2.0625 15.1787 1.74902C 14.9414 1.43555 14.5957 1.27881 14.1416 1.27881L 13.623 1.27881Z"/>
<path id="path6_fill" d="M 20.1885 2.21484L 21.2344 0.0878906L 22.9966 0.0878906L 21.208 3.26074L 23.0449 6.48633L 21.2651 6.48633L 20.1885 4.31982L 19.1118 6.48633L 17.3364 6.48633L 19.1689 3.26074L 17.3848 0.0878906L 19.1426 0.0878906L 20.1885 2.21484Z"/>
</defs>
</svg>
