<svg width="24" height="28" viewBox="0 0 24 28" version="1.1" xmlns="http://www.w3.org/2000/svg" xmlns:xlink="http://www.w3.org/1999/xlink">
<title>ERR</title>
<desc>Created using Figma</desc>
<g id="Canvas" transform="translate(1286 314)">
<g id="ERR">
<g id="RH">
<g id="Canvas">
<mask id="mask0_alpha" mask-type="alpha">
<g id="mask0_alpha">
<g id="Vector">
<use xlink:href="#path0_fill" transform="translate(-1288 -314)" fill="#FFFFFF"/>
</g>
</g>
</mask>
<g id="filetype - doc" mask="url(#mask0_alpha)">
<g id="Group">
<g id="Rectangle 6">
<g id="Vector">
<use xlink:href="#path1_fill" transform="translate(-1284.76 -292.125)" fill="#E0E0E0"/>
</g>
</g>
<g id="Subtract">
<g id="Vector">
<use xlink:href="#path2_fill" transform="translate(-1285.64 -314)" fill="#BDBDBD"/>
</g>
</g>
</g>
</g>
</g>
</g>
<g id="ERR">
<use xlink:href="#path3_fill" transform="translate(-1284.52 -300.898)"/>
<use xlink:href="#path4_fill" transform="translate(-1284.52 -300.898)"/>
<use xlink:href="#path5_fill" transform="translate(-1284.52 -300.898)"/>
</g>
</g>
</g>
<defs>
<path id="path0_fill" d="M -2.18279e-11 0L 28 0L 28 28L -2.18279e-11 28L -2.18279e-11 0Z"/>
<path id="path1_fill" d="M 0 0L 22.75 0L 22.75 1.75C 22.75 3.683 21.183 5.25 19.25 5.25L 3.5 5.25C 1.567 5.25 0 3.683 0 1.75L 0 0Z"/>
<path id="path2_fill" fill-rule="evenodd" d="M 15.3125 5.50036C 15.3125 5.01673 14.9211 4.62536 14.4375 4.62536C 13.9539 4.62536 13.5625 5.01673 13.5625 5.50036L 13.5625 8.52185C 13.5625 9.00462 13.9539 9.39689 14.4375 9.39689L 17.7598 9.39689C 18.2417 9.39689 18.6348 9.00462 18.6348 8.52185C 18.6348 8.03821 18.2417 7.64685 17.7598 7.64685L 15.3125 7.64685L 15.3125 5.50036ZM 2.625 1.75L 13.7505 1.75L 21.875 9.28576L 21.875 25.375C 21.875 25.8586 21.4836 26.25 21 26.25L 2.625 26.25C 2.14136 26.25 1.75 25.8586 1.75 25.375L 1.75 21.875L 0 21.875L 0 25.375C 0 26.825 1.17578 28 2.625 28L 21 28C 22.4492 28 23.625 26.825 23.625 25.375L 23.625 8.52185L 14.4375 0L 2.625 0C 1.17578 0 0 1.17492 0 2.625L 0 9.625L 1.75 9.625L 1.75 2.625C 1.75 2.14136 2.14136 1.75 2.625 1.75Z"/>
<path id="path3_fill" d="M 3.96826 3.68701L 1.54248 3.68701L 1.54248 5.21191L 4.40771 5.21191L 4.40771 6.39844L 0 6.39844L 0 0L 4.4165 0L 4.4165 1.19092L 1.54248 1.19092L 1.54248 2.54004L 3.96826 2.54004L 3.96826 3.68701Z"/>
<path id="path4_fill" d="M 7.41357 4.13965L 6.57861 4.13965L 6.57861 6.39844L 5.03613 6.39844L 5.03613 0L 7.5542 0C 8.31299 0 8.90625 0.168457 9.33398 0.505371C 9.76172 0.842285 9.97559 1.31836 9.97559 1.93359C 9.97559 2.37891 9.88477 2.74805 9.70312 3.04102C 9.52441 3.33398 9.24316 3.57129 8.85938 3.75293L 10.1953 6.33252L 10.1953 6.39844L 8.54297 6.39844L 7.41357 4.13965ZM 6.57861 2.94873L 7.5542 2.94873C 7.84717 2.94873 8.06689 2.87256 8.21338 2.72021C 8.36279 2.56494 8.4375 2.34961 8.4375 2.07422C 8.4375 1.79883 8.36279 1.5835 8.21338 1.42822C 8.06396 1.27002 7.84424 1.19092 7.5542 1.19092L 6.57861 1.19092L 6.57861 2.94873Z"/>
<path id="path5_fill" d="M 13.2847 4.13965L 12.4497 4.13965L 12.4497 6.39844L 10.9072 6.39844L 10.9072 0L 13.4253 0C 14.1841 0 14.7773 0.168457 15.2051 0.505371C 15.6328 0.842285 15.8467 1.31836 15.8467 1.93359C 15.8467 2.37891 15.7559 2.74805 15.5742 3.04102C 15.3955 3.33398 15.1143 3.57129 14.7305 3.75293L 16.0664 6.33252L 16.0664 6.39844L 14.4141 6.39844L 13.2847 4.13965ZM 12.4497 2.94873L 13.4253 2.94873C 13.7183 2.94873 13.938 2.87256 14.0845 2.72021C 14.2339 2.56494 14.3086 2.34961 14.3086 2.07422C 14.3086 1.79883 14.2339 1.5835 14.0845 1.42822C 13.9351 1.27002 13.7153 1.19092 13.4253 1.19092L 12.4497 1.19092L 12.4497 2.94873Z"/>
</defs>
</svg>
