<svg width="24" height="28" viewBox="0 0 24 28" version="1.1" xmlns="http://www.w3.org/2000/svg" xmlns:xlink="http://www.w3.org/1999/xlink">
<title>IPT_G</title>
<desc>Created using Figma</desc>
<g id="Canvas" transform="translate(730 7)">
<g id="IPT_G">
<g id="Canvas">
<mask id="mask0_alpha" mask-type="alpha">
<g id="mask0_alpha">
<g id="Vector">
<use xlink:href="#path0_fill" transform="translate(-732 -7)" fill="#FFFFFF"/>
</g>
</g>
</mask>
<g id="filetype - doc" mask="url(#mask0_alpha)">
<g id="Group">
<g id="Rectangle 6">
<g id="Vector">
<use xlink:href="#path1_fill" transform="translate(-728.763 14.875)" fill="#6FCF97"/>
</g>
</g>
<g id="Subtract">
<g id="Vector">
<use xlink:href="#path2_fill" transform="translate(-729.638 -7)" fill="#333333"/>
</g>
</g>
</g>
</g>
</g>
<g id="ipt">
<use xlink:href="#path3_fill" transform="translate(-728.5 6)"/>
<use xlink:href="#path4_fill" transform="translate(-728.5 6)"/>
<use xlink:href="#path5_fill" transform="translate(-728.5 6)"/>
</g>
</g>
</g>
<defs>
<path id="path0_fill" d="M 0.000683594 0L 28.0007 0L 28.0007 28L 0.000683594 28L 0.000683594 0Z"/>
<path id="path1_fill" d="M 0 0L 22.75 0L 22.75 1.75C 22.75 3.683 21.183 5.25 19.25 5.25L 3.5 5.25C 1.567 5.25 0 3.683 0 1.75L 0 0Z"/>
<path id="path2_fill" fill-rule="evenodd" d="M 15.3125 5.50036C 15.3125 5.01673 14.9211 4.62536 14.4375 4.62536C 13.9539 4.62536 13.5625 5.01673 13.5625 5.50036L 13.5625 8.52185C 13.5625 9.00462 13.9539 9.39689 14.4375 9.39689L 17.7598 9.39689C 18.2417 9.39689 18.6348 9.00462 18.6348 8.52185C 18.6348 8.03821 18.2417 7.64685 17.7598 7.64685L 15.3125 7.64685L 15.3125 5.50036ZM 2.625 1.75L 13.7505 1.75L 21.875 9.28576L 21.875 25.375C 21.875 25.8586 21.4836 26.25 21 26.25L 2.625 26.25C 2.14136 26.25 1.75 25.8586 1.75 25.375L 1.75 21.875L 0 21.875L 0 25.375C 0 26.8251 1.17578 28 2.625 28L 21 28C 22.4492 28 23.625 26.8251 23.625 25.375L 23.625 8.52185L 14.4375 0L 2.625 0C 1.17578 0 0 1.17492 0 2.625L 0 9.625L 1.75 9.625L 1.75 2.625C 1.75 2.14136 2.14136 1.75 2.625 1.75Z"/>
<path id="path3_fill" d="M 1.53809 6.39844L 0 6.39844L 0 0L 1.53809 0L 1.53809 6.39844Z"/>
<path id="path4_fill" d="M 4.15283 4.22754L 4.15283 6.39844L 2.61035 6.39844L 2.61035 0L 5.16357 0C 5.65283 0 6.08496 0.0908203 6.45996 0.272461C 6.83789 0.451172 7.12939 0.70752 7.33447 1.0415C 7.54248 1.37256 7.64648 1.74902 7.64648 2.1709C 7.64648 2.79492 7.42236 3.29443 6.97412 3.66943C 6.52881 4.0415 5.9165 4.22754 5.13721 4.22754L 4.15283 4.22754ZM 4.15283 3.03662L 5.16357 3.03662C 5.4624 3.03662 5.68945 2.96191 5.84473 2.8125C 6.00293 2.66309 6.08203 2.45215 6.08203 2.17969C 6.08203 1.88086 6.00146 1.64209 5.84033 1.46338C 5.6792 1.28467 5.45947 1.19385 5.18115 1.19092L 4.15283 1.19092L 4.15283 3.03662Z"/>
<path id="path5_fill" d="M 13.4956 1.19092L 11.5752 1.19092L 11.5752 6.39844L 10.0327 6.39844L 10.0327 1.19092L 8.14746 1.19092L 8.14746 0L 13.4956 0L 13.4956 1.19092Z"/>
</defs>
</svg>
