<svg width="24" height="28" viewBox="0 0 24 28" version="1.1" xmlns="http://www.w3.org/2000/svg" xmlns:xlink="http://www.w3.org/1999/xlink">
<title>IGES</title>
<desc>Created using Figma</desc>
<g id="Canvas" transform="translate(694 46)">
<g id="IGES">
<g id="Group">
<g id="Canvas">
<mask id="mask0_alpha" mask-type="alpha">
<g id="mask0_alpha">
<g id="Vector">
<use xlink:href="#path0_fill" transform="translate(-696 -46)" fill="#FFFFFF"/>
</g>
</g>
</mask>
<g id="filetype - doc" mask="url(#mask0_alpha)">
<g id="Group">
<g id="Rectangle 6">
<g id="Vector">
<use xlink:href="#path1_fill" transform="translate(-692.763 -24.125)" fill="#E0E0E0"/>
</g>
</g>
<g id="Subtract">
<g id="Vector">
<use xlink:href="#path2_fill" transform="translate(-693.638 -46)" fill="#BDBDBD"/>
</g>
</g>
</g>
</g>
</g>
<g id="iges">
<use xlink:href="#path3_fill" transform="translate(-692.5 -33)"/>
<use xlink:href="#path4_fill" transform="translate(-692.5 -33)"/>
<use xlink:href="#path5_fill" transform="translate(-692.5 -33)"/>
<use xlink:href="#path6_fill" transform="translate(-692.5 -33)"/>
</g>
</g>
</g>
</g>
<defs>
<path id="path0_fill" d="M 0.000683594 0L 28.0007 0L 28.0007 28L 0.000683594 28L 0.000683594 0Z"/>
<path id="path1_fill" d="M 0 0L 22.75 0L 22.75 1.75C 22.75 3.683 21.183 5.25 19.25 5.25L 3.5 5.25C 1.567 5.25 0 3.683 0 1.75L 0 0Z"/>
<path id="path2_fill" fill-rule="evenodd" d="M 15.3125 5.50036C 15.3125 5.01673 14.9211 4.62536 14.4375 4.62536C 13.9539 4.62536 13.5625 5.01673 13.5625 5.50036L 13.5625 8.52185C 13.5625 9.00462 13.9539 9.39689 14.4375 9.39689L 17.7598 9.39689C 18.2417 9.39689 18.6348 9.00462 18.6348 8.52185C 18.6348 8.03821 18.2417 7.64685 17.7598 7.64685L 15.3125 7.64685L 15.3125 5.50036ZM 2.625 1.75L 13.7505 1.75L 21.875 9.28576L 21.875 25.375C 21.875 25.8586 21.4836 26.25 21 26.25L 2.625 26.25C 2.14136 26.25 1.75 25.8586 1.75 25.375L 1.75 21.875L 0 21.875L 0 25.375C 0 26.8251 1.17578 28 2.625 28L 21 28C 22.4492 28 23.625 26.8251 23.625 25.375L 23.625 8.52185L 14.4375 0L 2.625 0C 1.17578 0 0 1.17492 0 2.625L 0 9.625L 1.75 9.625L 1.75 2.625C 1.75 2.14136 2.14136 1.75 2.625 1.75Z"/>
<path id="path3_fill" d="M 1.53809 6.49072L 0 6.49072L 0 0.0922852L 1.53809 0.0922852L 1.53809 6.49072Z"/>
<path id="path4_fill" d="M 7.84863 5.69971C 7.61133 5.96338 7.26416 6.17578 6.80713 6.33691C 6.3501 6.49805 5.84912 6.57861 5.3042 6.57861C 4.46631 6.57861 3.79688 6.32227 3.2959 5.80957C 2.79492 5.29688 2.52686 4.5835 2.4917 3.66943L 2.4873 3.11572C 2.4873 2.48584 2.59863 1.93652 2.82129 1.46777C 3.04395 0.996094 3.36182 0.634277 3.7749 0.382324C 4.19092 0.127441 4.67139 0 5.21631 0C 6.01318 0 6.63135 0.183105 7.0708 0.549316C 7.51318 0.912598 7.771 1.45605 7.84424 2.17969L 6.35889 2.17969C 6.30615 1.82227 6.19189 1.56738 6.01611 1.41504C 5.84033 1.2627 5.59131 1.18652 5.26904 1.18652C 4.88232 1.18652 4.5835 1.35059 4.37256 1.67871C 4.16162 2.00684 4.05469 2.47559 4.05176 3.08496L 4.05176 3.47168C 4.05176 4.11035 4.16016 4.59082 4.37695 4.91309C 4.59668 5.23242 4.94092 5.39209 5.40967 5.39209C 5.81104 5.39209 6.10986 5.30273 6.30615 5.12402L 6.30615 4.13086L 5.23389 4.13086L 5.23389 3.07178L 7.84863 3.07178L 7.84863 5.69971Z"/>
<path id="path5_fill" d="M 12.7134 3.7793L 10.2876 3.7793L 10.2876 5.3042L 13.1528 5.3042L 13.1528 6.49072L 8.74512 6.49072L 8.74512 0.0922852L 13.1616 0.0922852L 13.1616 1.2832L 10.2876 1.2832L 10.2876 2.63232L 12.7134 2.63232L 12.7134 3.7793Z"/>
<path id="path6_fill" d="M 17.0815 4.79004C 17.0815 4.56445 17.001 4.38867 16.8398 4.2627C 16.6816 4.13672 16.4019 4.00635 16.0005 3.87158C 15.5991 3.73682 15.271 3.60645 15.0161 3.48047C 14.187 3.07324 13.7725 2.51367 13.7725 1.80176C 13.7725 1.44727 13.875 1.13525 14.0801 0.865723C 14.2881 0.593262 14.5811 0.382324 14.959 0.23291C 15.3369 0.0805664 15.7617 0.00439453 16.2334 0.00439453C 16.6934 0.00439453 17.105 0.0864258 17.4683 0.250488C 17.8345 0.414551 18.1187 0.648926 18.3208 0.953613C 18.5229 1.25537 18.624 1.60107 18.624 1.99072L 17.0859 1.99072C 17.0859 1.72998 17.0054 1.52783 16.8442 1.38428C 16.686 1.24072 16.4707 1.16895 16.1982 1.16895C 15.9229 1.16895 15.7046 1.23047 15.5435 1.35352C 15.3853 1.47363 15.3062 1.62744 15.3062 1.81494C 15.3062 1.979 15.394 2.12842 15.5698 2.26318C 15.7456 2.39502 16.0547 2.53271 16.4971 2.67627C 16.9395 2.81689 17.3027 2.96924 17.5869 3.1333C 18.2783 3.53174 18.624 4.08105 18.624 4.78125C 18.624 5.34082 18.4131 5.78027 17.9912 6.09961C 17.5693 6.41895 16.9907 6.57861 16.2554 6.57861C 15.7368 6.57861 15.2666 6.48633 14.8447 6.30176C 14.4258 6.11426 14.1094 5.85938 13.8955 5.53711C 13.6846 5.21191 13.5791 4.83838 13.5791 4.4165L 15.126 4.4165C 15.126 4.75928 15.2139 5.0127 15.3896 5.17676C 15.5684 5.33789 15.8569 5.41846 16.2554 5.41846C 16.5103 5.41846 16.7109 5.36426 16.8574 5.25586C 17.0068 5.14453 17.0815 4.98926 17.0815 4.79004Z"/>
</defs>
</svg>
