<svg width="24" height="28" viewBox="0 0 24 28" version="1.1" xmlns="http://www.w3.org/2000/svg" xmlns:xlink="http://www.w3.org/1999/xlink">
<title>Group</title>
<desc>Created using Figma</desc>
<g id="Canvas" transform="translate(595 188)">
<g id="Group">
<g id="Canvas">
<mask id="mask0_alpha" mask-type="alpha">
<g id="mask0_alpha">
<g id="Vector">
<use xlink:href="#path0_fill" transform="translate(-597 -188)" fill="#FFFFFF"/>
</g>
</g>
</mask>
<g id="filetype - doc" mask="url(#mask0_alpha)">
<g id="Group">
<g id="Rectangle 6">
<g id="Vector">
<use xlink:href="#path1_fill" transform="translate(-593.763 -166.125)" fill="#6FCF97"/>
</g>
</g>
<g id="Subtract">
<g id="Vector">
<use xlink:href="#path2_fill" transform="translate(-594.638 -188)" fill="#333333"/>
</g>
</g>
</g>
</g>
</g>
<g id="PPT">
<use xlink:href="#path3_fill" transform="translate(-593.5 -175)"/>
<use xlink:href="#path4_fill" transform="translate(-593.5 -175)"/>
<use xlink:href="#path5_fill" transform="translate(-593.5 -175)"/>
</g>
</g>
</g>
<defs>
<path id="path0_fill" d="M 0.000683594 0L 28.0007 0L 28.0007 28L 0.000683594 28L 0.000683594 0Z"/>
<path id="path1_fill" d="M 0 0L 22.75 0L 22.75 1.75C 22.75 3.683 21.183 5.25 19.25 5.25L 3.5 5.25C 1.567 5.25 0 3.683 0 1.75L 0 0Z"/>
<path id="path2_fill" fill-rule="evenodd" d="M 15.3125 5.50036C 15.3125 5.01672 14.9211 4.62536 14.4375 4.62536C 13.9539 4.62536 13.5625 5.01672 13.5625 5.50036L 13.5625 8.52185C 13.5625 9.00462 13.9539 9.39689 14.4375 9.39689L 17.7598 9.39689C 18.2417 9.39689 18.6348 9.00462 18.6348 8.52185C 18.6348 8.0382 18.2417 7.64685 17.7598 7.64685L 15.3125 7.64685L 15.3125 5.50036ZM 2.625 1.75L 13.7504 1.75L 21.875 9.28576L 21.875 25.375C 21.875 25.8586 21.4836 26.25 21 26.25L 2.625 26.25C 2.14136 26.25 1.75 25.8586 1.75 25.375L 1.75 21.875L 0 21.875L 0 25.375C 0 26.825 1.17578 28 2.625 28L 21 28C 22.4492 28 23.625 26.825 23.625 25.375L 23.625 8.52185L 14.4375 0L 2.625 0C 1.17578 0 0 1.17492 0 2.625L 0 9.625L 1.75 9.625L 1.75 2.625C 1.75 2.14136 2.14136 1.75 2.625 1.75Z"/>
<path id="path3_fill" d="M 1.54248 4.22754L 1.54248 6.39844L 0 6.39844L 0 0L 2.55322 0C 3.04248 0 3.47461 0.0908203 3.84961 0.272461C 4.22754 0.451172 4.51904 0.70752 4.72412 1.0415C 4.93213 1.37256 5.03613 1.74902 5.03613 2.1709C 5.03613 2.79492 4.81201 3.29443 4.36377 3.66943C 3.91846 4.0415 3.30615 4.22754 2.52686 4.22754L 1.54248 4.22754ZM 1.54248 3.03662L 2.55322 3.03662C 2.85205 3.03662 3.0791 2.96191 3.23438 2.8125C 3.39258 2.66309 3.47168 2.45215 3.47168 2.17969C 3.47168 1.88086 3.39111 1.64209 3.22998 1.46338C 3.06885 1.28467 2.84912 1.19385 2.5708 1.19092L 1.54248 1.19092L 1.54248 3.03662Z"/>
<path id="path4_fill" d="M 7.40479 4.22754L 7.40479 6.39844L 5.8623 6.39844L 5.8623 0L 8.41553 0C 8.90479 0 9.33691 0.0908203 9.71191 0.272461C 10.0898 0.451172 10.3813 0.70752 10.5864 1.0415C 10.7944 1.37256 10.8984 1.74902 10.8984 2.1709C 10.8984 2.79492 10.6743 3.29443 10.2261 3.66943C 9.78076 4.0415 9.16846 4.22754 8.38916 4.22754L 7.40479 4.22754ZM 7.40479 3.03662L 8.41553 3.03662C 8.71436 3.03662 8.94141 2.96191 9.09668 2.8125C 9.25488 2.66309 9.33398 2.45215 9.33398 2.17969C 9.33398 1.88086 9.25342 1.64209 9.09229 1.46338C 8.93115 1.28467 8.71143 1.19385 8.43311 1.19092L 7.40479 1.19092L 7.40479 3.03662Z"/>
<path id="path5_fill" d="M 16.7476 1.19092L 14.8271 1.19092L 14.8271 6.39844L 13.2847 6.39844L 13.2847 1.19092L 11.3994 1.19092L 11.3994 0L 16.7476 0L 16.7476 1.19092Z"/>
</defs>
</svg>
