<svg width="24" height="28" viewBox="0 0 24 28" version="1.1" xmlns="http://www.w3.org/2000/svg" xmlns:xlink="http://www.w3.org/1999/xlink">
<title>Group</title>
<desc>Created using Figma</desc>
<g id="Canvas" transform="translate(595 275)">
<g id="Group">
<g id="Canvas">
<mask id="mask0_alpha" mask-type="alpha">
<g id="mask0_alpha">
<g id="Vector">
<use xlink:href="#path0_fill" transform="translate(-597 -275)" fill="#FFFFFF"/>
</g>
</g>
</mask>
<g id="filetype - doc" mask="url(#mask0_alpha)">
<g id="Group">
<g id="Rectangle 6">
<g id="Vector">
<use xlink:href="#path1_fill" transform="translate(-593.763 -253.125)" fill="#6FCF97"/>
</g>
</g>
<g id="Subtract">
<g id="Vector">
<use xlink:href="#path2_fill" transform="translate(-594.638 -275)" fill="#333333"/>
</g>
</g>
</g>
</g>
</g>
<g id="BMP">
<use xlink:href="#path3_fill" transform="translate(-593.5 -262)"/>
<use xlink:href="#path4_fill" transform="translate(-593.5 -262)"/>
<use xlink:href="#path5_fill" transform="translate(-593.5 -262)"/>
</g>
</g>
</g>
<defs>
<path id="path0_fill" d="M 0.000683594 0L 28.0007 0L 28.0007 28L 0.000683594 28L 0.000683594 0Z"/>
<path id="path1_fill" d="M 0 0L 22.75 0L 22.75 1.75C 22.75 3.683 21.183 5.25 19.25 5.25L 3.5 5.25C 1.567 5.25 0 3.683 0 1.75L 0 0Z"/>
<path id="path2_fill" fill-rule="evenodd" d="M 15.3125 5.50036C 15.3125 5.01672 14.9211 4.62536 14.4375 4.62536C 13.9539 4.62536 13.5625 5.01672 13.5625 5.50036L 13.5625 8.52185C 13.5625 9.00462 13.9539 9.39689 14.4375 9.39689L 17.7598 9.39689C 18.2417 9.39689 18.6348 9.00462 18.6348 8.52185C 18.6348 8.0382 18.2417 7.64685 17.7598 7.64685L 15.3125 7.64685L 15.3125 5.50036ZM 2.625 1.75L 13.7504 1.75L 21.875 9.28576L 21.875 25.375C 21.875 25.8586 21.4836 26.25 21 26.25L 2.625 26.25C 2.14136 26.25 1.75 25.8586 1.75 25.375L 1.75 21.875L 0 21.875L 0 25.375C 0 26.825 1.17578 28 2.625 28L 21 28C 22.4492 28 23.625 26.825 23.625 25.375L 23.625 8.52185L 14.4375 0L 2.625 0C 1.17578 0 0 1.17492 0 2.625L 0 9.625L 1.75 9.625L 1.75 2.625C 1.75 2.14136 2.14136 1.75 2.625 1.75Z"/>
<path id="path3_fill" d="M 0 6.39844L 0 0L 2.29834 0C 3.12158 0 3.74707 0.150879 4.1748 0.452637C 4.60547 0.754395 4.8208 1.19238 4.8208 1.7666C 4.8208 2.09766 4.74463 2.38037 4.59229 2.61475C 4.43994 2.84912 4.21582 3.02197 3.91992 3.1333C 4.25391 3.22119 4.51025 3.38525 4.68896 3.62549C 4.86768 3.86572 4.95703 4.15869 4.95703 4.50439C 4.95703 5.13135 4.75781 5.60303 4.35938 5.91943C 3.96387 6.23291 3.37646 6.39258 2.59717 6.39844L 0 6.39844ZM 1.54248 3.67822L 1.54248 5.21191L 2.55322 5.21191C 2.83154 5.21191 3.04541 5.14893 3.19482 5.02295C 3.34424 4.89404 3.41895 4.71387 3.41895 4.48242C 3.41895 3.94922 3.15381 3.68115 2.62354 3.67822L 1.54248 3.67822ZM 1.54248 2.66748L 2.34668 2.66748C 2.68359 2.66455 2.92383 2.60303 3.06738 2.48291C 3.21094 2.36279 3.28271 2.18555 3.28271 1.95117C 3.28271 1.68164 3.20508 1.48828 3.0498 1.37109C 2.89453 1.25098 2.64404 1.19092 2.29834 1.19092L 1.54248 1.19092L 1.54248 2.66748Z"/>
<path id="path4_fill" d="M 7.83545 0L 9.26367 4.45166L 10.6875 0L 12.7178 0L 12.7178 6.39844L 11.1709 6.39844L 11.1709 4.9043L 11.3203 1.8457L 9.77344 6.39844L 8.75391 6.39844L 7.20264 1.84131L 7.35205 4.9043L 7.35205 6.39844L 5.80957 6.39844L 5.80957 0L 7.83545 0Z"/>
<path id="path5_fill" d="M 15.2446 4.22754L 15.2446 6.39844L 13.7021 6.39844L 13.7021 0L 16.2554 0C 16.7446 0 17.1768 0.0908203 17.5518 0.272461C 17.9297 0.451172 18.2212 0.70752 18.4263 1.0415C 18.6343 1.37256 18.7383 1.74902 18.7383 2.1709C 18.7383 2.79492 18.5142 3.29443 18.0659 3.66943C 17.6206 4.0415 17.0083 4.22754 16.229 4.22754L 15.2446 4.22754ZM 15.2446 3.03662L 16.2554 3.03662C 16.5542 3.03662 16.7812 2.96191 16.9365 2.8125C 17.0947 2.66309 17.1738 2.45215 17.1738 2.17969C 17.1738 1.88086 17.0933 1.64209 16.9321 1.46338C 16.771 1.28467 16.5513 1.19385 16.2729 1.19092L 15.2446 1.19092L 15.2446 3.03662Z"/>
</defs>
</svg>
