<svg width="24" height="28" viewBox="0 0 24 28" version="1.1" xmlns="http://www.w3.org/2000/svg" xmlns:xlink="http://www.w3.org/1999/xlink">
<title>JSON_G</title>
<desc>Created using Figma</desc>
<g id="Canvas" transform="translate(1089 359)">
<g id="JSON_G">
<g id="XLTX_G">
<g id="XLSX_G">
<g id="Canvas">
<mask id="mask0_alpha" mask-type="alpha">
<g id="mask0_alpha">
<g id="Vector">
<use xlink:href="#path0_fill" transform="translate(-1091 -359)" fill="#FFFFFF"/>
</g>
</g>
</mask>
<g id="filetype - doc" mask="url(#mask0_alpha)">
<g id="Group">
<g id="Rectangle 6">
<g id="Vector">
<use xlink:href="#path1_fill" transform="translate(-1087.76 -337.125)" fill="#6FCF97"/>
</g>
</g>
<g id="Subtract">
<g id="Vector">
<use xlink:href="#path2_fill" transform="translate(-1088.64 -359)" fill="#333333"/>
</g>
</g>
</g>
</g>
</g>
</g>
</g>
<g id="JSON">
<use xlink:href="#path3_fill" transform="translate(-1088 -346)"/>
<use xlink:href="#path4_fill" transform="translate(-1088 -346)"/>
<use xlink:href="#path5_fill" transform="translate(-1088 -346)"/>
<use xlink:href="#path6_fill" transform="translate(-1088 -346)"/>
</g>
</g>
</g>
<defs>
<path id="path0_fill" d="M -2.18279e-11 0L 28 0L 28 28L -2.18279e-11 28L -2.18279e-11 0Z"/>
<path id="path1_fill" d="M 0 0L 22.75 0L 22.75 1.75C 22.75 3.683 21.183 5.25 19.25 5.25L 3.5 5.25C 1.567 5.25 0 3.683 0 1.75L 0 0Z"/>
<path id="path2_fill" fill-rule="evenodd" d="M 15.3125 5.50036C 15.3125 5.01673 14.9211 4.62536 14.4375 4.62536C 13.9539 4.62536 13.5625 5.01673 13.5625 5.50036L 13.5625 8.52185C 13.5625 9.00462 13.9539 9.39689 14.4375 9.39689L 17.7598 9.39689C 18.2417 9.39689 18.6348 9.00462 18.6348 8.52185C 18.6348 8.03821 18.2417 7.64685 17.7598 7.64685L 15.3125 7.64685L 15.3125 5.50036ZM 2.625 1.75L 13.7505 1.75L 21.875 9.28576L 21.875 11L 23.625 11L 23.625 20L 21.875 20L 21.875 25.375C 21.875 25.8586 21.4836 26.25 21 26.25L 2.625 26.25C 2.14136 26.25 1.75 25.8586 1.75 25.375L 1.75 21.875L 0 21.875L 0 25.375C 0 26.825 1.17578 28 2.625 28L 21 28C 22.4492 28 23.625 26.825 23.625 25.375L 23.625 20L 23.625 15L 23.625 11L 23.625 8.52185L 14.4375 0L 2.625 0C 1.17578 0 0 1.17492 0 2.625L 0 9.625L 1.75 9.625L 1.75 2.625C 1.75 2.14136 2.14136 1.75 2.625 1.75Z"/>
<path id="path3_fill" d="M 2.87402 0.0878906L 4.41211 0.0878906L 4.41211 4.47803C 4.41211 4.88525 4.31689 5.24854 4.12646 5.56787C 3.93896 5.88721 3.67529 6.13477 3.33545 6.31055C 2.99854 6.48633 2.62207 6.57422 2.20605 6.57422C 1.50879 6.57422 0.966797 6.39844 0.580078 6.04688C 0.193359 5.69531 0 5.19727 0 4.55273L 1.54688 4.55273C 1.54688 4.8457 1.59668 5.05811 1.69629 5.18994C 1.79883 5.32178 1.96875 5.3877 2.20605 5.3877C 2.41992 5.3877 2.58398 5.30859 2.69824 5.15039C 2.81543 4.98926 2.87402 4.76514 2.87402 4.47803L 2.87402 0.0878906Z"/>
<path id="path4_fill" d="M 8.68799 4.78564C 8.68799 4.56006 8.60742 4.38428 8.44629 4.2583C 8.28809 4.13232 8.0083 4.00195 7.60693 3.86719C 7.20557 3.73242 6.87744 3.60205 6.62256 3.47607C 5.79346 3.06885 5.37891 2.50928 5.37891 1.79736C 5.37891 1.44287 5.48145 1.13086 5.68652 0.861328C 5.89453 0.588867 6.1875 0.37793 6.56543 0.228516C 6.94336 0.0761719 7.36816 0 7.83984 0C 8.2998 0 8.71143 0.0820312 9.07471 0.246094C 9.44092 0.410156 9.7251 0.644531 9.92725 0.949219C 10.1294 1.25098 10.2305 1.59668 10.2305 1.98633L 8.69238 1.98633C 8.69238 1.72559 8.61182 1.52344 8.45068 1.37988C 8.29248 1.23633 8.07715 1.16455 7.80469 1.16455C 7.5293 1.16455 7.31104 1.22607 7.1499 1.34912C 6.9917 1.46924 6.9126 1.62305 6.9126 1.81055C 6.9126 1.97461 7.00049 2.12402 7.17627 2.25879C 7.35205 2.39062 7.66113 2.52832 8.10352 2.67188C 8.5459 2.8125 8.90918 2.96484 9.19336 3.12891C 9.88477 3.52734 10.2305 4.07666 10.2305 4.77686C 10.2305 5.33643 10.0195 5.77588 9.59766 6.09521C 9.17578 6.41455 8.59717 6.57422 7.86182 6.57422C 7.34326 6.57422 6.87305 6.48193 6.45117 6.29736C 6.03223 6.10986 5.71582 5.85498 5.50195 5.53271C 5.29102 5.20752 5.18555 4.83398 5.18555 4.41211L 6.73242 4.41211C 6.73242 4.75488 6.82031 5.0083 6.99609 5.17236C 7.1748 5.3335 7.46338 5.41406 7.86182 5.41406C 8.1167 5.41406 8.31738 5.35986 8.46387 5.25146C 8.61328 5.14014 8.68799 4.98486 8.68799 4.78564Z"/>
<path id="path5_fill" d="M 16.4399 3.41895C 16.4399 4.04297 16.3242 4.59521 16.0928 5.07568C 15.8613 5.55615 15.5317 5.92676 15.104 6.1875C 14.6792 6.44531 14.1943 6.57422 13.6494 6.57422C 13.1045 6.57422 12.6211 6.44971 12.1992 6.20068C 11.7773 5.94873 11.4478 5.58984 11.2104 5.12402C 10.9761 4.6582 10.853 4.12354 10.8413 3.52002L 10.8413 3.15967C 10.8413 2.53271 10.9556 1.98047 11.1841 1.50293C 11.4155 1.02246 11.7451 0.651855 12.1729 0.391113C 12.6035 0.130371 13.0928 0 13.6406 0C 14.1826 0 14.666 0.128906 15.0908 0.386719C 15.5156 0.644531 15.8452 1.01221 16.0796 1.48975C 16.3169 1.96436 16.437 2.50928 16.4399 3.12451L 16.4399 3.41895ZM 14.8711 3.15088C 14.8711 2.51514 14.7642 2.0332 14.5503 1.70508C 14.3394 1.37402 14.0361 1.2085 13.6406 1.2085C 12.8672 1.2085 12.4585 1.78857 12.4146 2.94873L 12.4102 3.41895C 12.4102 4.0459 12.5142 4.52783 12.7222 4.86475C 12.9302 5.20166 13.2393 5.37012 13.6494 5.37012C 14.0391 5.37012 14.3394 5.20459 14.5503 4.87354C 14.7612 4.54248 14.8682 4.06641 14.8711 3.44531L 14.8711 3.15088Z"/>
<path id="path6_fill" d="M 22.5791 6.48633L 21.0454 6.48633L 18.7778 2.50488L 18.7778 6.48633L 17.2354 6.48633L 17.2354 0.0878906L 18.7778 0.0878906L 21.041 4.06934L 21.041 0.0878906L 22.5791 0.0878906L 22.5791 6.48633Z"/>
</defs>
</svg>
