<?xml version="1.0" encoding="utf-8"?>
<!-- Generator: Adobe Illustrator 15.1.0, SVG Export Plug-In . SVG Version: 6.00 Build 0)  -->
<!DOCTYPE svg PUBLIC "-//W3C//DTD SVG 1.1//EN" "http://www.w3.org/Graphics/SVG/1.1/DTD/svg11.dtd">
<svg version="1.1" id="Layer_1" xmlns="http://www.w3.org/2000/svg" xmlns:xlink="http://www.w3.org/1999/xlink" x="0px" y="0px"
	 width="24px" height="24px" viewBox="0 0 32 32" enable-background="new 0 0 32 32" xml:space="preserve">
<g>
	<g>
		<path d="M10.388,23.809v3.633h19.129V12.137H23.3c-0.791,0-1.438-0.644-1.438-1.435v-6.22H10.388v4.493L8.473,9.011V4.005
			c0-0.793,0.644-1.436,1.437-1.436h13.392c0.791,0,1.896,0.463,2.451,1.018l4.664,4.664c0.551,0.553,1.017,1.658,1.017,2.451V27.92
			c0,0.793-0.644,1.436-1.437,1.436H9.909c-0.793,0-1.437-0.643-1.437-1.436v-4.109L10.388,23.809z M20.369,14.049h4.847
			c0.271,0,0.479,0.21,0.479,0.478v0.958c0,0.269-0.209,0.479-0.479,0.479h-4.847c-0.27,0-0.479-0.211-0.479-0.479v-0.958
			C19.891,14.259,20.102,14.049,20.369,14.049z M25.691,18.352v0.959c0,0.271-0.209,0.479-0.479,0.479H18.95
			c-0.271,0-0.479-0.209-0.479-0.479v-0.959c0-0.268,0.209-0.477,0.479-0.477h6.265C25.482,17.875,25.691,18.084,25.691,18.352z
			 M25.691,22.182v0.953c0,0.271-0.209,0.48-0.479,0.48h-8.248c-0.271,0-0.48-0.209-0.48-0.48v-0.953
			c0-0.271,0.208-0.479,0.48-0.479h8.248C25.482,21.701,25.691,21.912,25.691,22.182z M23.779,10.224h5.619
			c-0.088-0.254-0.228-0.508-0.328-0.612l-4.68-4.68c-0.104-0.104-0.357-0.239-0.611-0.328V10.224z"/>
	</g>
</g>
<g>
	<path fill="#020202" d="M0.954,24.595l0.928-6.118L13.202,7.156C14,6.358,15.423,6.359,16.216,7.158l2.179,2.178
		c0.399,0.398,0.619,0.934,0.619,1.506c0,0.572-0.22,1.107-0.619,1.506l-11.32,11.32L0.954,24.595z M3.292,19.188l-0.549,3.619
		l3.621-0.549l10.971-10.971c0.116-0.116,0.18-0.274,0.18-0.446c0-0.172-0.063-0.33-0.18-0.445l-2.181-2.181
		c-0.231-0.232-0.661-0.229-0.891,0L3.292,19.188z"/>
</g>
<g>
	<rect x="7.655" y="12.422" transform="matrix(0.7071 0.7071 -0.7071 0.7071 14.335 -1.0248)" width="1.5" height="8.738"/>
</g>
<g>
	<rect x="12.741" y="10.198" transform="matrix(0.7076 0.7066 -0.7066 0.7076 11.9268 -6.9298)" width="3.192" height="1.5"/>
</g>
</svg>
