<svg width="24" height="28" viewBox="0 0 24 28" version="1.1" xmlns="http://www.w3.org/2000/svg" xmlns:xlink="http://www.w3.org/1999/xlink">
<title>CSV</title>
<desc>Created using Figma</desc>
<g id="Canvas" transform="translate(1252 232)">
<g id="CSV">
<g id="RH">
<g id="Canvas">
<mask id="mask0_alpha" mask-type="alpha">
<g id="mask0_alpha">
<g id="Vector">
<use xlink:href="#path0_fill" transform="translate(-1254 -232)" fill="#FFFFFF"/>
</g>
</g>
</mask>
<g id="filetype - doc" mask="url(#mask0_alpha)">
<g id="Group">
<g id="Rectangle 6">
<g id="Vector">
<use xlink:href="#path1_fill" transform="translate(-1250.76 -210.125)" fill="#E0E0E0"/>
</g>
</g>
<g id="Subtract">
<g id="Vector">
<use xlink:href="#path2_fill" transform="translate(-1251.64 -232)" fill="#BDBDBD"/>
</g>
</g>
</g>
</g>
</g>
</g>
<g id="CSV">
<use xlink:href="#path3_fill" transform="translate(-1250.7 -218.991)"/>
<use xlink:href="#path4_fill" transform="translate(-1250.7 -218.991)"/>
<use xlink:href="#path5_fill" transform="translate(-1250.7 -218.991)"/>
</g>
</g>
</g>
<defs>
<path id="path0_fill" d="M -2.18279e-11 0L 28 0L 28 28L -2.18279e-11 28L -2.18279e-11 0Z"/>
<path id="path1_fill" d="M 0 0L 22.75 0L 22.75 1.75C 22.75 3.683 21.183 5.25 19.25 5.25L 3.5 5.25C 1.567 5.25 0 3.683 0 1.75L 0 0Z"/>
<path id="path2_fill" fill-rule="evenodd" d="M 15.3125 5.50036C 15.3125 5.01673 14.9211 4.62536 14.4375 4.62536C 13.9539 4.62536 13.5625 5.01673 13.5625 5.50036L 13.5625 8.52185C 13.5625 9.00462 13.9539 9.39689 14.4375 9.39689L 17.7598 9.39689C 18.2417 9.39689 18.6348 9.00462 18.6348 8.52185C 18.6348 8.03821 18.2417 7.64685 17.7598 7.64685L 15.3125 7.64685L 15.3125 5.50036ZM 2.625 1.75L 13.7505 1.75L 21.875 9.28576L 21.875 25.375C 21.875 25.8586 21.4836 26.25 21 26.25L 2.625 26.25C 2.14136 26.25 1.75 25.8586 1.75 25.375L 1.75 21.875L 0 21.875L 0 25.375C 0 26.825 1.17578 28 2.625 28L 21 28C 22.4492 28 23.625 26.825 23.625 25.375L 23.625 8.52185L 14.4375 0L 2.625 0C 1.17578 0 0 1.17492 0 2.625L 0 9.625L 1.75 9.625L 1.75 2.625C 1.75 2.14136 2.14136 1.75 2.625 1.75Z"/>
<path id="path3_fill" d="M 5.35693 4.32422C 5.33643 4.76953 5.21631 5.16357 4.99658 5.50635C 4.77686 5.84619 4.46777 6.10986 4.06934 6.29736C 3.67383 6.48486 3.22119 6.57861 2.71143 6.57861C 1.87061 6.57861 1.2085 6.30469 0.725098 5.75684C 0.241699 5.20898 0 4.43555 0 3.43652L 0 3.12012C 0 2.49316 0.108398 1.94531 0.325195 1.47656C 0.544922 1.00488 0.859863 0.641602 1.27002 0.386719C 1.68018 0.128906 2.15479 0 2.69385 0C 3.47021 0 4.09424 0.205078 4.56592 0.615234C 5.0376 1.02246 5.30566 1.58496 5.37012 2.30273L 3.83203 2.30273C 3.82031 1.91309 3.72217 1.6333 3.5376 1.46338C 3.35303 1.29346 3.07178 1.2085 2.69385 1.2085C 2.31006 1.2085 2.02881 1.35205 1.8501 1.63916C 1.67139 1.92627 1.57764 2.38477 1.56885 3.01465L 1.56885 3.46729C 1.56885 4.1499 1.65381 4.6377 1.82373 4.93066C 1.99658 5.22363 2.29248 5.37012 2.71143 5.37012C 3.06592 5.37012 3.33691 5.28662 3.52441 5.11963C 3.71191 4.95264 3.81152 4.6875 3.82324 4.32422L 5.35693 4.32422Z"/>
<path id="path4_fill" d="M 9.38672 4.79004C 9.38672 4.56445 9.30615 4.38867 9.14502 4.2627C 8.98682 4.13672 8.70703 4.00635 8.30566 3.87158C 7.9043 3.73682 7.57617 3.60645 7.32129 3.48047C 6.49219 3.07324 6.07764 2.51367 6.07764 1.80176C 6.07764 1.44727 6.18018 1.13525 6.38525 0.865723C 6.59326 0.593262 6.88623 0.382324 7.26416 0.23291C 7.64209 0.0805664 8.06689 0.00439453 8.53857 0.00439453C 8.99854 0.00439453 9.41016 0.0864258 9.77344 0.250488C 10.1396 0.414551 10.4238 0.648926 10.626 0.953613C 10.8281 1.25537 10.9292 1.60107 10.9292 1.99072L 9.39111 1.99072C 9.39111 1.72998 9.31055 1.52783 9.14941 1.38428C 8.99121 1.24072 8.77588 1.16895 8.50342 1.16895C 8.22803 1.16895 8.00977 1.23047 7.84863 1.35352C 7.69043 1.47363 7.61133 1.62744 7.61133 1.81494C 7.61133 1.979 7.69922 2.12842 7.875 2.26318C 8.05078 2.39502 8.35986 2.53271 8.80225 2.67627C 9.24463 2.81689 9.60791 2.96924 9.89209 3.1333C 10.5835 3.53174 10.9292 4.08105 10.9292 4.78125C 10.9292 5.34082 10.7183 5.78027 10.2964 6.09961C 9.87451 6.41895 9.2959 6.57861 8.56055 6.57861C 8.04199 6.57861 7.57178 6.48633 7.1499 6.30176C 6.73096 6.11426 6.41455 5.85938 6.20068 5.53711C 5.98975 5.21191 5.88428 4.83838 5.88428 4.4165L 7.43115 4.4165C 7.43115 4.75928 7.51904 5.0127 7.69482 5.17676C 7.87354 5.33789 8.16211 5.41846 8.56055 5.41846C 8.81543 5.41846 9.01611 5.36426 9.1626 5.25586C 9.31201 5.14453 9.38672 4.98926 9.38672 4.79004Z"/>
<path id="path5_fill" d="M 14.2031 4.75049L 15.4775 0.0922852L 17.2002 0.0922852L 15.0469 6.49072L 13.3594 6.49072L 11.2236 0.0922852L 12.9331 0.0922852L 14.2031 4.75049Z"/>
</defs>
</svg>
