<svg width="24" height="28" viewBox="0 0 24 28" version="1.1" xmlns="http://www.w3.org/2000/svg" xmlns:xlink="http://www.w3.org/1999/xlink">
<title>Group</title>
<desc>Created using Figma</desc>
<g id="Canvas" transform="translate(412 314)">
<g id="Group">
<g id="Canvas">
<mask id="mask0_alpha" mask-type="alpha">
<g id="mask0_alpha">
<g id="Vector">
<use xlink:href="#path0_fill" transform="translate(-414 -314)" fill="#FFFFFF"/>
</g>
</g>
</mask>
<g id="filetype - doc" mask="url(#mask0_alpha)">
<g id="Group">
<g id="Rectangle 6">
<g id="Vector">
<use xlink:href="#path1_fill" transform="translate(-410.763 -292.125)" fill="#E0E0E0"/>
</g>
</g>
<g id="Subtract">
<g id="Vector">
<use xlink:href="#path2_fill" transform="translate(-411.638 -314)" fill="#BDBDBD"/>
</g>
</g>
</g>
</g>
</g>
<g id="GIF">
<use xlink:href="#path3_fill" transform="translate(-410.5 -301)"/>
<use xlink:href="#path4_fill" transform="translate(-410.5 -301)"/>
<use xlink:href="#path5_fill" transform="translate(-410.5 -301)"/>
</g>
</g>
</g>
<defs>
<path id="path0_fill" d="M 0.000683594 0L 28.0007 0L 28.0007 28L 0.000683594 28L 0.000683594 0Z"/>
<path id="path1_fill" d="M 0 0L 22.75 0L 22.75 1.75C 22.75 3.683 21.183 5.25 19.25 5.25L 3.5 5.25C 1.567 5.25 0 3.683 0 1.75L 0 0Z"/>
<path id="path2_fill" fill-rule="evenodd" d="M 15.3125 5.50036C 15.3125 5.01673 14.9211 4.62536 14.4375 4.62536C 13.9539 4.62536 13.5625 5.01673 13.5625 5.50036L 13.5625 8.52185C 13.5625 9.00462 13.9539 9.39689 14.4375 9.39689L 17.7598 9.39689C 18.2417 9.39689 18.6348 9.00462 18.6348 8.52185C 18.6348 8.03821 18.2417 7.64685 17.7598 7.64685L 15.3125 7.64685L 15.3125 5.50036ZM 2.625 1.75L 13.7505 1.75L 21.875 9.28576L 21.875 25.375C 21.875 25.8586 21.4836 26.25 21 26.25L 2.625 26.25C 2.14136 26.25 1.75 25.8586 1.75 25.375L 1.75 21.875L 0 21.875L 0 25.375C 0 26.8251 1.17578 28 2.625 28L 21 28C 22.4492 28 23.625 26.8251 23.625 25.375L 23.625 8.52185L 14.4375 0L 2.625 0C 1.17578 0 0 1.17492 0 2.625L 0 9.625L 1.75 9.625L 1.75 2.625C 1.75 2.14136 2.14136 1.75 2.625 1.75Z"/>
<path id="path3_fill" d="M 5.36133 5.69971C 5.12402 5.96338 4.77686 6.17578 4.31982 6.33691C 3.86279 6.49805 3.36182 6.57861 2.81689 6.57861C 1.979 6.57861 1.30957 6.32227 0.808594 5.80957C 0.307617 5.29688 0.0395508 4.5835 0.00439453 3.66943L 0 3.11572C 0 2.48584 0.111328 1.93652 0.333984 1.46777C 0.556641 0.996094 0.874512 0.634277 1.2876 0.382324C 1.70361 0.127441 2.18408 0 2.729 0C 3.52588 0 4.14404 0.183105 4.5835 0.549316C 5.02588 0.912598 5.28369 1.45605 5.35693 2.17969L 3.87158 2.17969C 3.81885 1.82227 3.70459 1.56738 3.52881 1.41504C 3.35303 1.2627 3.104 1.18652 2.78174 1.18652C 2.39502 1.18652 2.09619 1.35059 1.88525 1.67871C 1.67432 2.00684 1.56738 2.47559 1.56445 3.08496L 1.56445 3.47168C 1.56445 4.11035 1.67285 4.59082 1.88965 4.91309C 2.10938 5.23242 2.45361 5.39209 2.92236 5.39209C 3.32373 5.39209 3.62256 5.30273 3.81885 5.12402L 3.81885 4.13086L 2.74658 4.13086L 2.74658 3.07178L 5.36133 3.07178L 5.36133 5.69971Z"/>
<path id="path4_fill" d="M 7.90137 6.49072L 6.36328 6.49072L 6.36328 0.0922852L 7.90137 0.0922852L 7.90137 6.49072Z"/>
<path id="path5_fill" d="M 13.0034 3.94189L 10.5161 3.94189L 10.5161 6.49072L 8.97363 6.49072L 8.97363 0.0922852L 13.2539 0.0922852L 13.2539 1.2832L 10.5161 1.2832L 10.5161 2.75537L 13.0034 2.75537L 13.0034 3.94189Z"/>
</defs>
</svg>
