<svg width="24" height="28" viewBox="0 0 24 28" version="1.1" xmlns="http://www.w3.org/2000/svg" xmlns:xlink="http://www.w3.org/1999/xlink">
<title>Group</title>
<desc>Created using Figma</desc>
<g id="Canvas" transform="translate(485 314)">
<g id="Group">
<g id="Canvas">
<mask id="mask0_alpha" mask-type="alpha">
<g id="mask0_alpha">
<g id="Vector">
<use xlink:href="#path0_fill" transform="translate(-487 -314)" fill="#FFFFFF"/>
</g>
</g>
</mask>
<g id="filetype - doc" mask="url(#mask0_alpha)">
<g id="Group">
<g id="Rectangle 6">
<g id="Vector">
<use xlink:href="#path1_fill" transform="translate(-483.763 -292.125)" fill="#E0E0E0"/>
</g>
</g>
<g id="Subtract">
<g id="Vector">
<use xlink:href="#path2_fill" transform="translate(-484.638 -314)" fill="#BDBDBD"/>
</g>
</g>
</g>
</g>
</g>
<g id="DWG">
<use xlink:href="#path3_fill" transform="translate(-483.5 -301)"/>
<use xlink:href="#path4_fill" transform="translate(-483.5 -301)"/>
<use xlink:href="#path5_fill" transform="translate(-483.5 -301)"/>
</g>
</g>
</g>
<defs>
<path id="path0_fill" d="M 0.000683594 0L 28.0007 0L 28.0007 28L 0.000683594 28L 0.000683594 0Z"/>
<path id="path1_fill" d="M 0 0L 22.75 0L 22.75 1.75C 22.75 3.683 21.183 5.25 19.25 5.25L 3.5 5.25C 1.567 5.25 0 3.683 0 1.75L 0 0Z"/>
<path id="path2_fill" fill-rule="evenodd" d="M 15.3125 5.50036C 15.3125 5.01673 14.9211 4.62536 14.4375 4.62536C 13.9539 4.62536 13.5625 5.01673 13.5625 5.50036L 13.5625 8.52185C 13.5625 9.00462 13.9539 9.39689 14.4375 9.39689L 17.7598 9.39689C 18.2417 9.39689 18.6348 9.00462 18.6348 8.52185C 18.6348 8.03821 18.2417 7.64685 17.7598 7.64685L 15.3125 7.64685L 15.3125 5.50036ZM 2.625 1.75L 13.7505 1.75L 21.875 9.28576L 21.875 25.375C 21.875 25.8586 21.4836 26.25 21 26.25L 2.625 26.25C 2.14136 26.25 1.75 25.8586 1.75 25.375L 1.75 21.875L 0 21.875L 0 25.375C 0 26.8251 1.17578 28 2.625 28L 21 28C 22.4492 28 23.625 26.8251 23.625 25.375L 23.625 8.52185L 14.4375 0L 2.625 0C 1.17578 0 0 1.17492 0 2.625L 0 9.625L 1.75 9.625L 1.75 2.625C 1.75 2.14136 2.14136 1.75 2.625 1.75Z"/>
<path id="path3_fill" d="M 0 6.49072L 0 0.0922852L 2.06104 0.0922852C 2.62646 0.0922852 3.13477 0.221191 3.58594 0.479004C 4.03711 0.733887 4.38867 1.0957 4.64062 1.56445C 4.89551 2.03027 5.02441 2.55322 5.02734 3.1333L 5.02734 3.42773C 5.02734 4.01367 4.90283 4.53955 4.65381 5.00537C 4.40771 5.46826 4.05908 5.83154 3.60791 6.09521C 3.15967 6.35596 2.65869 6.48779 2.10498 6.49072L 0 6.49072ZM 1.54248 1.2832L 1.54248 5.3042L 2.07861 5.3042C 2.521 5.3042 2.86084 5.14746 3.09814 4.83398C 3.33545 4.51758 3.4541 4.04883 3.4541 3.42773L 3.4541 3.15088C 3.4541 2.53271 3.33545 2.06689 3.09814 1.75342C 2.86084 1.43994 2.51514 1.2832 2.06104 1.2832L 1.54248 1.2832Z"/>
<path id="path4_fill" d="M 10.7754 4.10449L 11.5093 0.0922852L 13.0386 0.0922852L 11.6807 6.49072L 10.0811 6.49072L 9.22412 2.84326L 8.38477 6.49072L 6.78955 6.49072L 5.42725 0.0922852L 6.96094 0.0922852L 7.69482 4.10449L 8.57373 0.0922852L 9.8833 0.0922852L 10.7754 4.10449Z"/>
<path id="path5_fill" d="M 18.8789 5.69971C 18.6416 5.96338 18.2944 6.17578 17.8374 6.33691C 17.3804 6.49805 16.8794 6.57861 16.3345 6.57861C 15.4966 6.57861 14.8271 6.32227 14.3262 5.80957C 13.8252 5.29688 13.5571 4.5835 13.522 3.66943L 13.5176 3.11572C 13.5176 2.48584 13.6289 1.93652 13.8516 1.46777C 14.0742 0.996094 14.3921 0.634277 14.8052 0.382324C 15.2212 0.127441 15.7017 0 16.2466 0C 17.0435 0 17.6616 0.183105 18.1011 0.549316C 18.5435 0.912598 18.8013 1.45605 18.8745 2.17969L 17.3892 2.17969C 17.3364 1.82227 17.2222 1.56738 17.0464 1.41504C 16.8706 1.2627 16.6216 1.18652 16.2993 1.18652C 15.9126 1.18652 15.6138 1.35059 15.4028 1.67871C 15.1919 2.00684 15.085 2.47559 15.082 3.08496L 15.082 3.47168C 15.082 4.11035 15.1904 4.59082 15.4072 4.91309C 15.627 5.23242 15.9712 5.39209 16.4399 5.39209C 16.8413 5.39209 17.1401 5.30273 17.3364 5.12402L 17.3364 4.13086L 16.2642 4.13086L 16.2642 3.07178L 18.8789 3.07178L 18.8789 5.69971Z"/>
</defs>
</svg>
