<?xml version="1.0" encoding="utf-8"?>
<!-- Generator: Adobe Illustrator 15.1.0, SVG Export Plug-In . SVG Version: 6.00 Build 0)  -->
<!DOCTYPE svg PUBLIC "-//W3C//DTD SVG 1.1//EN" "http://www.w3.org/Graphics/SVG/1.1/DTD/svg11.dtd">
<svg version="1.1" id="Layer_1" xmlns="http://www.w3.org/2000/svg" xmlns:xlink="http://www.w3.org/1999/xlink" x="0px" y="0px"
	 width="18px" height="18px" viewBox="0 0 32 32" enable-background="new 0 0 32 32" xml:space="preserve">
<path fill="#333333" d="M30.572,6.303c-16.611,0-16.611,0-16.611,0c-3.213-3.145-3.213-3.145-3.213-3.145c-0.536,0-0.536,0-1.072,0
	c-7.501,0-7.501,0-7.501,0c-0.536,0-1.072,0-1.072,0.524c0,19.39,0,23.641,0,23.641c0,0.525,0.536,1.049,1.072,1.049
	c28.397,0,28.397,0,28.397,0s0.535-0.521,0.535-1.049c0-16.244,0-20.497,0-20.497C31.107,6.303,30.572,6.303,30.572,6.303z
	 M20.563,18.205c0,0,0,0-2.947-2.951c0,0.29,0,1.971,0,10.018c0,0.737-0.422,1.465-1.475,1.477
	c-1.107,0.012-1.476-0.738-1.476-1.477c0,0.045,0,0.059,0,0.056c0,0.003,0-0.011,0-0.056c0-0.291,0-1.974,0-10.018
	c0,0-0.151-0.145-2.948,2.951c-1.508,1.668-3.705,0.217-2.211-1.844c0,0,0,0,5.528-5.531c0.366-0.369,0.736-0.369,1.106-0.369
	c0.369,0,0.623,0.189,0.736,0.369l5.531,5.531C24.259,18.107,22.061,19.991,20.563,18.205z"/>
</svg>
