<svg width="32" height="32" viewBox="0 0 32 32" fill="none" xmlns="http://www.w3.org/2000/svg">
<path d="M18.1199 32H13.8874C12.8587 32 11.964 31.2157 11.8517 30.214L11.4497 27.5639C11.3356 27.5222 11.2251 27.4752 11.1164 27.4281L9.0862 28.9732C8.43602 29.5383 7.10306 29.5727 6.34603 28.8156L6.1776 28.6652C5.15796 27.7432 3.8902 26.5948 3.06254 25.4464C2.80355 25.0841 2.66953 24.6603 2.66953 24.2146C2.66953 23.7654 2.81261 23.347 3.09152 22.9684C3.39759 22.5554 3.71634 22.1479 4.03871 21.7367C4.22706 21.4994 4.41361 21.2585 4.60015 21.0194C4.52408 20.8455 4.45164 20.6752 4.38463 20.5031L1.71147 20.1064C0.733488 19.9561 0 19.0848 0 18.0795V13.8535C0 12.8645 0.728055 11.9733 1.65895 11.8247L4.41542 11.4081C4.46794 11.2759 4.52589 11.1437 4.58385 11.0114C4.09486 10.3611 3.58775 9.73441 3.06978 9.10223C2.76733 8.7635 2.57898 8.27805 2.57898 7.77992C2.57898 7.13869 2.89954 6.69671 3.00458 6.5518C3.03175 6.51376 6.10697 2.57942 7.78584 2.57942C8.23318 2.57942 8.68051 2.73157 9.07895 3.02321L11.082 4.581C11.1834 4.53391 11.2867 4.49043 11.3917 4.44877C11.504 3.48874 11.6308 2.50515 11.8898 1.53968C12.1071 0.644855 12.9311 0 13.8892 0H18.1199C19.1612 0 20.036 0.762595 20.1537 1.77516L20.5594 4.43066C20.6735 4.47413 20.7858 4.52123 20.8963 4.57014L22.8921 3.06125C23.5857 2.45081 24.7792 2.41458 25.5707 3.07936L25.9474 3.42534C26.929 4.32922 28.1478 5.45409 28.9483 6.57897C29.1657 6.81626 29.3323 7.27997 29.3323 7.77811C29.3323 8.2219 29.2019 8.6204 28.9356 9.00079C28.6097 9.44458 28.2909 9.84852 27.9722 10.2561C27.7838 10.497 27.5936 10.7397 27.4053 10.9861C27.4795 11.1509 27.5502 11.3176 27.6154 11.4824L30.294 11.8918C31.2846 12.0729 32 12.9442 32 13.926V18.1537C32 19.112 31.281 20.0014 30.3628 20.1734L27.581 20.5937C27.5284 20.7241 27.4759 20.8527 27.4216 20.9741C27.9269 21.6533 28.4521 22.2946 28.9302 22.8742C29.2508 23.251 29.4337 23.7328 29.4337 24.2146C29.4337 24.7055 29.2707 25.1366 28.9356 25.5333C28.9356 25.5333 25.8604 29.4224 24.2232 29.4224C23.8121 29.4224 23.4173 29.301 23.0116 29.0492L20.9234 27.4244C20.822 27.4679 20.7188 27.5114 20.6155 27.5512C20.5051 28.5076 20.3765 29.484 20.1211 30.4476C19.8984 31.3497 19.0743 32 18.1199 32ZM14.4579 29.2829H17.6037C17.7776 28.475 17.8718 27.6201 17.9641 26.7904L18.109 25.5207L18.9566 25.258C19.4619 25.1004 19.969 24.8885 20.4634 24.6295L21.2404 24.2201L24.1924 26.5296C24.8281 26.0115 25.9256 24.8794 26.5106 24.2038C25.9311 23.4955 25.3117 22.7239 24.7267 21.8761L24.2504 21.1842L24.6543 20.4488C24.8824 20.0322 25.0817 19.563 25.299 18.9272L25.5652 18.1447L29.2834 17.5832V14.4802L25.5544 13.9133L25.3044 13.0945C25.1414 12.562 24.9114 12.0168 24.6217 11.4752L24.2196 10.7252L24.7176 10.0369C25.0799 9.53515 25.4584 9.05332 25.8351 8.57149C26.0415 8.30703 26.248 8.04438 26.4508 7.77811C25.7771 6.96298 24.9132 6.16053 24.1816 5.48489L21.1824 7.75275L20.4163 7.34518C19.9581 7.10064 19.4709 6.89777 18.9294 6.7275L18.1235 6.47209L17.5494 2.71708H14.3999C14.2369 3.48149 14.1445 4.28756 14.054 5.07008L13.8874 6.46847L13.0543 6.73475C12.5544 6.89415 12.031 7.11333 11.5402 7.37235L10.7651 7.77992L7.80395 5.47402C7.16464 5.99389 6.07075 7.12057 5.49844 7.78354C6.12508 8.55338 6.71187 9.29786 7.27149 10.0858L7.75505 10.7651L7.36748 11.5041C7.07952 12.0512 6.87305 12.5384 6.71549 13.0384L6.46194 13.8481L2.71662 14.4132V17.5071L6.45832 18.065L6.70281 18.8982C6.85676 19.4271 7.08676 19.976 7.38197 20.5267L7.78403 21.2766L7.28417 21.9649C6.92558 22.4594 6.54887 22.9394 6.17579 23.4158C5.9657 23.6839 5.75562 23.952 5.54915 24.2201C6.1776 24.9863 7.07227 25.8069 7.8438 26.5061L10.8158 24.2436L11.5819 24.6458C12.031 24.8812 12.5218 25.0823 13.0833 25.2616L13.8874 25.5188L14.4579 29.2829ZM16.0027 22.2366C12.5635 22.2366 9.76354 19.4398 9.76354 16.0018C9.76354 12.5565 12.5617 9.75433 16.0027 9.75433C19.4438 9.75433 22.2419 12.5565 22.2419 16.0018C22.2419 19.4398 19.442 22.2366 16.0027 22.2366ZM16.0027 12.4714C14.0612 12.4714 12.4802 14.0546 12.4802 16.0018C12.4802 17.9418 14.0612 19.5195 16.0027 19.5195C17.9442 19.5195 19.5253 17.9418 19.5253 16.0018C19.5253 14.0546 17.9442 12.4714 16.0027 12.4714Z" fill="black" fill-opacity="0.1"/>
</svg>
