<svg width="27" height="27" viewBox="0 0 27 27" fill="none" xmlns="http://www.w3.org/2000/svg">
<path fill-rule="evenodd" clip-rule="evenodd" d="M26.46 13.8068C26.46 12.8495 26.3741 11.929 26.2146 11.0454H13.5V16.2675H20.7655C20.4525 17.955 19.5014 19.3847 18.0716 20.342V23.7293H22.4345C24.9873 21.379 26.46 17.9181 26.46 13.8068Z" fill="#4285F4"/>
<path fill-rule="evenodd" clip-rule="evenodd" d="M13.4999 27C17.1449 27 20.2008 25.7912 22.4344 23.7294L18.0715 20.3421C16.8626 21.1521 15.3163 21.6307 13.4999 21.6307C9.98375 21.6307 7.00761 19.256 5.94602 16.0651H1.43579V19.5628C3.65716 23.9748 8.22261 27 13.4999 27Z" fill="#34A853"/>
<path fill-rule="evenodd" clip-rule="evenodd" d="M5.94614 16.065C5.67614 15.255 5.52273 14.3897 5.52273 13.5C5.52273 12.6102 5.67614 11.745 5.94614 10.935V7.43726H1.43591C0.521591 9.25975 0 11.3216 0 13.5C0 15.6784 0.521591 17.7402 1.43591 19.5627L5.94614 16.065Z" fill="#FBBC05"/>
<path fill-rule="evenodd" clip-rule="evenodd" d="M13.4999 5.36931C15.4819 5.36931 17.2615 6.05045 18.6606 7.38817L22.5326 3.51613C20.1947 1.33773 17.1387 0 13.4999 0C8.22261 0 3.65715 3.02522 1.43579 7.43726L5.94602 10.935C7.00761 7.74408 9.98375 5.36931 13.4999 5.36931Z" fill="#EA4335"/>
</svg>