<svg width="35" height="36" viewBox="0 0 35 36" version="1.1" xmlns="http://www.w3.org/2000/svg" xmlns:xlink="http://www.w3.org/1999/xlink" xmlns:figma="http://www.figma.com/figma/ns">
<title>/home-protect-file</title>
<desc>Created using Figma</desc>
<g id="Canvas" transform="translate(3573 2233)" figma:type="canvas">
<g id="icon/home-protect-file" style="mix-blend-mode:normal;" figma:type="frame">
<g id="Vector 3" style="mix-blend-mode:normal;" figma:type="vector">
<use xlink:href="#path0_fill" transform="translate(-3563.97 -2229.62)" fill="#246330" style="mix-blend-mode:normal;"/>
</g>
<g id="Union" style="mix-blend-mode:normal;" figma:type="vector-operation">
<use xlink:href="#path1_fill" transform="translate(-3567.75 -2233)" fill="#FFFFFF" style="mix-blend-mode:normal;"/>
</g>
<g id="Group" style="mix-blend-mode:normal;" figma:type="frame">
<g id="Ellipse 9" style="mix-blend-mode:normal;" figma:type="ellipse">
<use xlink:href="#path2_fill" transform="translate(-3573 -2215.12)" fill="#34994C" style="mix-blend-mode:normal;"/>
<mask id="mask0_outline_ins">
<use xlink:href="#path2_fill" fill="white" transform="translate(-3573 -2215.12)"/>
</mask>
<g mask="url(#mask0_outline_ins)">
<use xlink:href="#path3_stroke_2x" transform="translate(-3573 -2215.12)" fill="#FFFFFF" style="mix-blend-mode:normal;"/>
</g>
</g>
<g id="protect - black" style="mix-blend-mode:normal;" figma:type="vector-operation">
<use xlink:href="#path4_fill" transform="translate(-3569.35 -2211.52)" fill="#FFFFFF" style="mix-blend-mode:normal;"/>
</g>
</g>
</g>
</g>
<defs>
<path id="path0_fill" d="M 16.3709 0L 3 0C 1.34315 0 0 1.34315 0 3L 0 28.5C 0 30.1569 1.34315 31.5 3 31.5L 21.8386 31.5C 23.4955 31.5 24.8386 30.1569 24.8386 28.5L 24.8386 7.61932L 16.3709 0Z"/>
<path id="path1_fill" fill-rule="evenodd" d="M 16.5254 7.70776C 17.0776 7.70776 17.5254 8.15552 17.5254 8.70776L 17.5254 11.5928L 20.7073 11.5928C 21.2595 11.5928 21.7073 12.0405 21.7073 12.5928C 21.7073 13.1453 21.2595 13.5928 20.7073 13.5928L 16.5254 13.5928C 15.9729 13.5928 15.5254 13.1453 15.5254 12.5928L 15.5254 8.70776C 15.5254 8.15552 15.9729 7.70776 16.5254 7.70776ZM 17.3811 2L 3 2C 2.44775 2 2 2.44775 2 3L 2 33C 2 33.5522 2.44775 34 3 34L 26.7456 34C 27.2979 34 27.7456 33.5522 27.7456 33L 27.7456 11.8169L 17.3811 2ZM 29.7456 10.9565L 29.7456 33C 29.7456 34.6567 28.4023 36 26.7456 36L 3 36C 1.34326 36 0 34.6567 0 33L 0 3C 0 1.34326 1.34326 0 3 0L 18.1777 0L 29.7456 10.9565ZM 10.2183 21.9092C 10.2183 21.3569 10.666 20.9092 11.2183 20.9092L 19.1335 20.9092C 19.6858 20.9092 20.1335 21.3569 20.1335 21.9092C 20.1335 22.4614 19.6858 22.9092 19.1335 22.9092L 11.2183 22.9092C 10.666 22.9092 10.2183 22.4614 10.2183 21.9092ZM 11.2183 25.8179C 10.666 25.8179 10.2183 26.2656 10.2183 26.8179C 10.2183 27.3701 10.666 27.8179 11.2183 27.8179L 19.1335 27.8179C 19.6858 27.8179 20.1335 27.3701 20.1335 26.8179C 20.1335 26.2656 19.6858 25.8179 19.1335 25.8179L 11.2183 25.8179Z"/>
<path id="path2_fill" d="M 12.9052 6.375C 12.9052 9.89582 10.0163 12.75 6.45261 12.75C 2.88893 12.75 0 9.89582 0 6.375C 0 2.85418 2.88893 0 6.45261 0C 10.0163 0 12.9052 2.85418 12.9052 6.375Z"/>
<path id="path3_stroke_2x" d="M 11.4052 6.375C 11.4052 9.05033 9.20503 11.25 6.45261 11.25L 6.45261 14.25C 10.8276 14.25 14.4052 10.7413 14.4052 6.375L 11.4052 6.375ZM 6.45261 11.25C 3.7002 11.25 1.5 9.05033 1.5 6.375L -1.5 6.375C -1.5 10.7413 2.07767 14.25 6.45261 14.25L 6.45261 11.25ZM 1.5 6.375C 1.5 3.69967 3.7002 1.5 6.45261 1.5L 6.45261 -1.5C 2.07767 -1.5 -1.5 2.0087 -1.5 6.375L 1.5 6.375ZM 6.45261 1.5C 9.20503 1.5 11.4052 3.69967 11.4052 6.375L 14.4052 6.375C 14.4052 2.0087 10.8276 -1.5 6.45261 -1.5L 6.45261 1.5Z"/>
<path id="path4_fill" fill-rule="evenodd" d="M 3.80884 1.75342L 3.80884 2.15967C 3.80884 2.20117 3.8064 2.24219 3.80151 2.28247L 1.80933 2.28247C 1.80444 2.24219 1.802 2.20117 1.802 2.15967L 1.802 1.75342C 1.802 1.19922 2.25122 0.75 2.80542 0.75C 3.35962 0.75 3.80884 1.19922 3.80884 1.75342ZM 1.05615 2.28247C 1.05322 2.24194 1.052 2.20093 1.052 2.15967L 1.052 1.75342C 1.052 0.785156 1.83716 0 2.80542 0C 3.77393 0 4.55884 0.785156 4.55884 1.75342L 4.55884 2.15967C 4.55884 2.20093 4.55737 2.24194 4.55469 2.28247L 4.61108 2.28247C 5.16333 2.28247 5.61108 2.73022 5.61108 3.28247L 5.61108 4.54346C 5.61108 5.0957 5.16333 5.54346 4.61108 5.54346L 1 5.54346C 0.447754 5.54346 0 5.0957 0 4.54346L 0 3.28247C 0 2.73022 0.447754 2.28247 1 2.28247L 1.05615 2.28247Z"/>
</defs>
</svg>
