<svg width="26" height="24" viewBox="0 0 26 24" version="1.1" xmlns="http://www.w3.org/2000/svg" xmlns:xlink="http://www.w3.org/1999/xlink" xmlns:figma="http://www.figma.com/figma/ns">
<title>icon\plus-black</title>
<desc>Created using Figma</desc>
<g id="Canvas" transform="translate(3268 2226)" figma:type="canvas">
<g id="icon\plus-black" style="mix-blend-mode:normal;" figma:type="vector-operation">
<use xlink:href="#path0_fill" transform="translate(-3267.5 -2226)" style="mix-blend-mode:normal;"/>
</g>
</g>
<defs>
<path id="path0_fill" fill-rule="evenodd" d="M 14 1.5C 14 0.671631 13.3284 0 12.5 0C 11.6716 0 11 0.671631 11 1.5L 11 10.5L 1.5 10.5C 0.671631 10.5 0 11.1716 0 12C 0 12.8284 0.671631 13.5 1.5 13.5L 11 13.5L 11 22.5C 11 23.3284 11.6716 24 12.5 24C 13.3284 24 14 23.3284 14 22.5L 14 13.5L 23.5 13.5C 24.3284 13.5 25 12.8284 25 12C 25 11.1716 24.3284 10.5 23.5 10.5L 14 10.5L 14 1.5Z"/>
</defs>
</svg>
