<svg width="34" height="33" viewBox="0 0 34 33" fill="none" xmlns="http://www.w3.org/2000/svg">
<path d="M0.00331168 26.2525L-3.10563e-08 24.5901C-3.10563e-08 24.462 0.0883117 24.3383 0.213052 24.316L1.57195 24.1066C1.6437 23.8603 1.75078 23.6152 1.87662 23.3734C1.62383 23.0169 1.34786 22.6927 1.09396 22.3439C1.05974 22.2927 1.03545 22.2392 1.03545 22.1701C1.03545 22.1133 1.05091 22.0487 1.08734 22.0074C1.39753 21.5651 1.91968 21.1005 2.31156 20.7306C2.36344 20.6882 2.42747 20.6604 2.49701 20.6604C2.56435 20.6604 2.63058 20.6838 2.67584 20.7272L3.73227 21.5384C3.94753 21.4225 4.16942 21.3289 4.39903 21.2576L4.60766 19.8804C4.62312 19.7523 4.74123 19.6543 4.8748 19.6543H6.52403C6.65539 19.6543 6.76136 19.7445 6.79117 19.8637C6.90818 20.3128 6.95234 20.8019 7.00532 21.2587C7.23383 21.3345 7.46675 21.4314 7.6798 21.5473L8.70643 20.7406C8.76604 20.6971 8.83117 20.6704 8.89961 20.6704C9.15351 20.6704 10.1569 21.7612 10.3336 22.0085C10.3722 22.0598 10.4009 22.1133 10.4009 22.1779C10.4009 22.2481 10.3733 22.3083 10.3303 22.3573C10.0565 22.6982 9.78714 23.0347 9.53435 23.3946C9.65247 23.6208 9.75071 23.8414 9.82578 24.0865L11.2079 24.296C11.3216 24.316 11.4099 24.4508 11.4099 24.5645V26.228C11.4099 26.3516 11.3216 26.4753 11.1946 26.4954L9.83571 26.7026C9.76506 26.9566 9.65688 27.2029 9.53214 27.4436C9.78493 27.799 10.0609 28.1254 10.3126 28.4742C10.3501 28.5243 10.3733 28.5756 10.3733 28.6413C10.3733 28.7015 10.3579 28.7583 10.3192 28.8118C10.009 29.2485 9.48909 29.7143 9.09721 30.073C9.04312 30.1254 8.97909 30.1533 8.90954 30.1533C8.84221 30.1533 8.77597 30.1299 8.72409 30.0853L7.6787 29.282C7.46234 29.3967 7.24045 29.4881 7.00974 29.5583L6.80221 30.9343C6.78896 31.0624 6.66864 31.1616 6.53617 31.1616H4.88584C4.75227 31.1616 4.6474 31.0713 4.6187 30.9521C4.50279 30.502 4.45532 30.0129 4.40344 29.5572C4.17273 29.4847 3.94422 29.3878 3.72786 29.2719L2.70234 30.0842C2.63942 30.1209 2.57649 30.1521 2.50805 30.1521C2.25526 30.1521 1.25071 29.0535 1.07409 28.8107C1.02883 28.7572 1.00455 28.7093 1.00455 28.6402C1.00455 28.5711 1.03325 28.5087 1.0763 28.453C1.35448 28.1143 1.62052 27.7834 1.87331 27.4168C1.75409 27.2018 1.66578 26.9756 1.58299 26.7338L0.210844 26.5243C0.0927273 26.5009 0.00331168 26.365 0.00331168 26.2525ZM3.80623 25.4057C3.80623 26.4675 4.66175 27.3277 5.71045 27.3277C6.76026 27.3277 7.61247 26.4686 7.61247 25.4057C7.61247 24.3472 6.75916 23.4815 5.71045 23.4815C4.66175 23.4826 3.80623 24.3483 3.80623 25.4057ZM26.6867 15.4683C26.3467 15.4683 26.0133 15.6933 25.4051 16.1C24.2305 16.8889 22.2623 18.2092 19.6858 18.2092C17.1093 18.2092 15.1432 16.8889 13.9676 16.1C13.3605 15.6933 13.026 15.4683 12.6871 15.4683C10.561 15.4683 8.85545 16.3396 7.61688 18.0576L7.48773 18.2359L7.51532 18.4554C7.54623 18.7039 7.57714 18.9534 7.60253 19.193L7.64006 19.5562L7.98448 19.6665C8.26929 19.7579 8.56513 19.8827 8.84 20.0275L9.15351 20.1924L10.7619 18.891C11.114 19.1328 11.9497 20.0063 12.2853 20.4253C12.0667 20.7127 11.8636 21.0637 11.6649 21.4047C11.5158 21.6609 11.369 21.9138 11.2266 22.1188L11.029 22.3996L11.1869 22.6982C11.1968 22.7918 11.2233 22.8754 11.2421 22.94L11.3326 23.233L13.7424 23.8859V25.9728L12.1351 26.8954L11.9453 27.0525L11.9265 27.1015C11.783 27.1628 11.6218 27.2798 11.4916 27.5249L11.3293 27.8324L11.5324 28.1143C11.6759 28.3137 11.7631 28.5098 11.8658 28.7371C11.9662 28.9611 12.0777 29.2129 12.2543 29.4714C11.8702 29.9716 11.2719 30.5176 10.7829 30.9633L8.69539 30.7427L8.55078 30.8184C8.39954 30.7872 8.19643 30.7805 7.97675 30.8463L7.77805 30.9087L7.26032 31.7543L7.71403 32.0518C8.67662 32.6802 9.83019 33 11.1405 33H28.2266C31.7348 33 34 30.775 34 27.331C34.0022 19.7913 31.3363 15.4683 26.6867 15.4683ZM28.2288 31.8847H11.422C11.4231 31.8836 11.4242 31.8814 11.4264 31.8802L11.5203 31.7944C12.0777 31.2864 12.7721 30.6546 13.2214 30.0296C13.334 29.8702 13.3936 29.6753 13.3936 29.4647C13.3936 29.2586 13.3329 29.0736 13.2048 28.8942C13.0624 28.6992 12.9752 28.5031 12.8736 28.277C12.8262 28.17 12.7754 28.0564 12.7147 27.9382C12.7621 27.8903 12.8052 27.8346 12.8405 27.7722L14.206 26.989C14.5781 26.8697 14.8474 26.5009 14.8474 26.0887V23.7623C14.8474 23.3222 14.5273 22.9155 14.1586 22.8464L12.3857 22.364C12.463 22.237 12.5403 22.1032 12.6186 21.9695C12.8184 21.6253 13.0249 21.2698 13.207 21.047C13.3649 20.8643 13.4488 20.6503 13.4488 20.4264C13.4488 20.1245 13.2898 19.9161 13.2501 19.8626C13.2346 19.8414 11.5898 17.749 10.7994 17.749C10.5941 17.749 10.3932 17.8214 10.1923 17.973L9.02987 18.881C8.90844 18.8253 8.7848 18.7729 8.66227 18.725C8.65454 18.6626 8.64682 18.6014 8.63909 18.539C9.65578 17.222 10.9805 16.5813 12.6231 16.5747C12.7312 16.607 13.0779 16.8398 13.356 17.027C14.5516 17.8292 16.7759 19.3222 19.6858 19.3222C22.5956 19.3222 24.82 17.8292 26.0155 17.027C26.2948 16.8398 26.6414 16.607 26.6856 16.5813C32.0903 16.5813 32.8972 23.3144 32.8972 27.3288C32.8983 30.1388 31.1089 31.8847 28.2288 31.8847ZM19.688 16.2694C24.1312 16.2694 27.7475 12.6204 27.7475 8.13468C27.7475 3.64896 24.1323 -3.18772e-09 19.688 -3.18772e-09C15.2437 -3.18772e-09 11.6284 3.64896 11.6284 8.13468C11.6284 12.6204 15.2437 16.2694 19.688 16.2694ZM19.688 1.11419C23.524 1.11419 26.6436 4.264 26.6436 8.13468C26.6436 12.0054 23.524 15.1552 19.688 15.1552C15.8519 15.1552 12.7323 12.0054 12.7323 8.13468C12.7323 4.26288 15.8531 1.11419 19.688 1.11419Z" fill="#050505" fill-opacity="0.1"/>
</svg>
