<?xml version="1.0" encoding="utf-8"?>
<!-- Generator: Adobe Illustrator 15.1.0, SVG Export Plug-In . SVG Version: 6.00 Build 0)  -->
<!DOCTYPE svg PUBLIC "-//W3C//DTD SVG 1.1//EN" "http://www.w3.org/Graphics/SVG/1.1/DTD/svg11.dtd">
<svg version="1.1" id="Layer_1" xmlns="http://www.w3.org/2000/svg" xmlns:xlink="http://www.w3.org/1999/xlink" x="0px" y="0px"
	 width="64px" height="85px" viewBox="0 0 64 85" enable-background="new 0 0 64 85" xml:space="preserve">
<g>
	<path fill="#010101" d="M57.563,0.393H5.474c-0.211,0-0.419,0-0.629,0.001C4.67,0.395,4.495,0.399,4.318,0.401
		c-0.383,0.01-0.769,0.034-1.151,0.102C2.783,0.57,2.426,0.685,2.076,0.863C1.732,1.039,1.418,1.267,1.147,1.539
		C0.872,1.811,0.645,2.126,0.47,2.47C0.292,2.819,0.178,3.178,0.112,3.563c-0.07,0.38-0.093,0.764-0.103,1.149
		C0.003,4.888,0.003,5.064,0,5.24c0,0.208,0,0.417,0,0.627v74.092c0,0.211,0,0.418,0,0.627c0.003,0.18,0.003,0.352,0.009,0.529
		c0.01,0.385,0.033,0.77,0.103,1.149c0.067,0.385,0.18,0.744,0.359,1.092c0.175,0.345,0.402,0.658,0.677,0.929
		c0.271,0.272,0.585,0.502,0.929,0.676c0.35,0.18,0.707,0.293,1.091,0.361c0.382,0.067,0.768,0.092,1.151,0.102
		c0.177,0.004,0.351,0.006,0.527,0.006c0.21,0.002,0.418,0.002,0.629,0.002h52.088c0.207,0,0.416,0,0.623-0.002
		c0.176,0,0.354-0.002,0.529-0.006c0.385-0.012,0.77-0.033,1.146-0.102c0.385-0.07,0.742-0.183,1.096-0.361
		c0.344-0.174,0.658-0.402,0.93-0.676c0.273-0.271,0.5-0.584,0.678-0.929c0.176-0.348,0.289-0.707,0.355-1.092
		c0.07-0.381,0.094-0.767,0.104-1.149c0.002-0.179,0.002-0.351,0.002-0.529c0.008-0.209,0.008-0.416,0.008-0.627V5.867
		c0-0.21,0-0.419-0.008-0.627c0-0.176,0-0.353-0.002-0.529c-0.012-0.384-0.033-0.768-0.104-1.148
		c-0.066-0.385-0.18-0.743-0.357-1.093c-0.176-0.344-0.402-0.659-0.678-0.931c-0.27-0.272-0.584-0.501-0.928-0.677
		c-0.354-0.178-0.711-0.293-1.096-0.36c-0.377-0.068-0.764-0.092-1.146-0.101c-0.176-0.003-0.355-0.006-0.529-0.007
		C57.979,0.393,57.768,0.393,57.563,0.393L57.563,0.393z"/>
	<path fill="#FFFFFF" d="M5.474,84.738c-0.21,0-0.416,0-0.626-0.002c-0.173,0-0.343-0.002-0.514-0.006
		c-0.313-0.008-0.685-0.024-1.044-0.09c-0.335-0.062-0.62-0.156-0.897-0.297c-0.282-0.144-0.534-0.326-0.752-0.548
		c-0.225-0.221-0.408-0.473-0.552-0.754c-0.14-0.272-0.236-0.565-0.293-0.896c-0.069-0.375-0.085-0.758-0.093-1.049
		c-0.004-0.123-0.006-0.24-0.007-0.355l-0.002-0.166V5.24l0.002-0.156C0.698,4.968,0.7,4.852,0.704,4.735
		c0.007-0.297,0.024-0.679,0.092-1.048c0.057-0.334,0.153-0.627,0.293-0.9C1.233,2.503,1.417,2.25,1.636,2.033
		c0.223-0.224,0.477-0.409,0.757-0.552c0.277-0.14,0.57-0.237,0.894-0.294C3.662,1.12,4.044,1.103,4.335,1.096l0.121-0.002
		C4.587,1.092,4.717,1.09,4.848,1.089c0.209-0.001,0.415-0.001,0.625-0.001h52.088c0.205,0,0.414,0,0.619,0.001
		c0.133,0.001,0.27,0.003,0.404,0.005l0.117,0.002c0.283,0.007,0.668,0.024,1.035,0.09c0.328,0.058,0.623,0.154,0.906,0.297
		c0.275,0.141,0.527,0.326,0.748,0.547c0.223,0.22,0.406,0.474,0.553,0.758c0.139,0.273,0.232,0.566,0.289,0.892
		c0.066,0.353,0.084,0.716,0.098,1.056c0.002,0.158,0.002,0.332,0.002,0.505c0.006,0.218,0.006,0.422,0.006,0.627v74.091
		c0,0.207,0,0.41-0.004,0.613c0,0.19,0,0.36-0.002,0.536c-0.014,0.324-0.031,0.688-0.098,1.031c-0.057,0.336-0.15,0.629-0.291,0.905
		c-0.145,0.279-0.328,0.531-0.547,0.746c-0.225,0.228-0.477,0.41-0.754,0.552c-0.279,0.143-0.566,0.237-0.902,0.299
		c-0.355,0.063-0.729,0.08-1.047,0.09c-0.166,0.004-0.34,0.007-0.51,0.007c-0.209,0.002-0.416,0.002-0.623,0.002H5.474V84.738z"/>
</g>
<g>
	<g>
		<g>
			<path fill="#010101" d="M28.929,75.172h-2.226l-0.424-7.848c-0.213-3.621-0.31-6.177-0.291-7.66h-0.08
				c-0.601,2.139-1.326,4.393-2.174,6.76l-3.102,8.641h-1.723l-2.836-8.482c-0.866-2.563-1.538-4.867-2.015-6.918h-0.054
				c-0.07,2.58-0.186,5.195-0.345,7.849l-0.477,7.66h-2.174l1.246-17.867h2.889l2.969,8.616c0.69,1.979,1.281,3.984,1.776,6.017
				h0.08c0.495-1.979,1.113-3.983,1.856-6.017l3.102-8.616h2.916L28.929,75.172z"/>
			<path fill="#010101" d="M41.145,75.146h-2.096l-0.211-1.59h-0.055c-0.885,1.237-2.164,1.856-3.844,1.856
				c-1.201,0-2.156-0.371-2.862-1.112c-0.654-0.691-0.98-1.539-0.98-2.546c0-1.555,0.654-2.743,1.961-3.565
				c1.306-0.821,3.171-1.223,5.591-1.205v-0.266c0-1.979-0.955-2.97-2.861-2.97c-1.238,0-2.324,0.312-3.261,0.929l-0.53-1.537
				c1.131-0.726,2.518-1.088,4.163-1.088c3.18,0,4.771,1.731,4.771,5.196v4.851C40.932,73.353,41.002,74.37,41.145,75.146z
				 M38.68,70.851v-2.252c-3.518-0.07-5.275,0.892-5.275,2.889c0,0.726,0.203,1.277,0.609,1.658c0.406,0.379,0.918,0.57,1.537,0.57
				c0.76,0,1.424-0.222,1.99-0.664c0.494-0.388,0.838-0.875,1.033-1.457C38.643,71.366,38.68,71.118,38.68,70.851z"/>
			<path fill="#010101" d="M53.118,62.715l-0.504,1.775c-0.742-0.406-1.617-0.607-2.623-0.607c-1.396,0-2.492,0.484-3.287,1.455
				c-0.762,0.885-1.141,2.024-1.141,3.422c0,1.449,0.406,2.611,1.219,3.484c0.813,0.875,1.863,1.313,3.154,1.313
				c0.92,0,1.838-0.203,2.758-0.609l0.371,1.75c-0.973,0.459-2.154,0.689-3.551,0.689c-1.91,0-3.436-0.594-4.574-1.777
				c-1.141-1.184-1.709-2.764-1.709-4.744c0-1.996,0.619-3.633,1.855-4.904c1.236-1.271,2.871-1.907,4.904-1.907
				C51.262,62.053,52.305,62.273,53.118,62.715z"/>
		</g>
	</g>
</g>
<path fill="none" d="M14.24,10.609c-0.093,0-0.185,0-0.278,0.001c-0.087,0.001-0.174,0.002-0.261,0.004
	c-0.189,0.005-0.38,0.016-0.567,0.05c-0.19,0.035-0.367,0.09-0.539,0.178c-0.17,0.086-0.325,0.199-0.46,0.334
	c-0.135,0.135-0.248,0.29-0.334,0.459c-0.088,0.173-0.144,0.35-0.177,0.54c-0.034,0.187-0.045,0.378-0.05,0.567
	c-0.002,0.087-0.003,0.174-0.004,0.261c0,0.076-0.001,0.151-0.001,0.227v0.083v31.906v0.084c0,0.074,0.001,0.15,0.001,0.227
	c0.001,0.088,0.002,0.174,0.004,0.262c0.005,0.188,0.016,0.379,0.05,0.566c0.034,0.189,0.09,0.367,0.177,0.539
	c0.086,0.17,0.199,0.326,0.334,0.461c0.135,0.135,0.29,0.246,0.46,0.332c0.173,0.088,0.349,0.145,0.539,0.18
	c0.187,0.031,0.378,0.045,0.567,0.049c0.087,0.004,0.174,0.004,0.261,0.004c0.104,0.001,0.206,0.001,0.31,0.001h34.279
	c0.104,0,0.207,0,0.311-0.001c0.088,0,0.176-0.002,0.262-0.004c0.188-0.004,0.381-0.016,0.566-0.049
	c0.189-0.035,0.367-0.092,0.539-0.18c0.17-0.086,0.324-0.197,0.459-0.332c0.137-0.135,0.248-0.291,0.334-0.461
	c0.088-0.172,0.145-0.348,0.18-0.539c0.031-0.188,0.045-0.379,0.049-0.566c0.002-0.088,0.004-0.174,0.004-0.262
	c0-0.09,0-0.18,0-0.27V13.271c0-0.09,0-0.179,0-0.269c0-0.087-0.002-0.174-0.004-0.261c-0.004-0.189-0.018-0.38-0.049-0.567
	c-0.035-0.19-0.092-0.367-0.18-0.54c-0.086-0.17-0.197-0.324-0.334-0.459c-0.135-0.135-0.289-0.248-0.459-0.334
	c-0.172-0.088-0.35-0.143-0.539-0.178c-0.188-0.033-0.379-0.045-0.566-0.05c-0.086-0.002-0.174-0.003-0.262-0.004
	c-0.094-0.001-0.186-0.001-0.277-0.001L14.24,10.609L14.24,10.609z"/>
<path fill="none" d="M13.508,10.609h35.809c1.07,0,1.939,0.868,1.939,1.938v33.436c0,1.07-0.867,1.938-1.939,1.938H13.508
	c-1.071,0-1.938-0.866-1.938-1.938V12.547C11.57,11.477,12.437,10.609,13.508,10.609z"/>
<path fill="none" d="M13.508,10.609h35.809c1.07,0,1.939,0.868,1.939,1.938v33.436c0,1.07-0.867,1.938-1.939,1.938H13.508
	c-1.071,0-1.938-0.866-1.938-1.938V12.547C11.57,11.477,12.437,10.609,13.508,10.609z"/>
<path fill="none" d="M13.508,10.609h35.809c1.07,0,1.939,0.868,1.939,1.938v33.436c0,1.07-0.867,1.938-1.939,1.938H13.508
	c-1.071,0-1.938-0.866-1.938-1.938V12.547C11.57,11.477,12.437,10.609,13.508,10.609z"/>
<linearGradient id="SVGID_1_" gradientUnits="userSpaceOnUse" x1="40.3032" y1="718.1763" x2="40.3032" y2="755.4878" gradientTransform="matrix(1 0 0 1 -16.7197 -707.5674)">
	<stop  offset="0.007" style="stop-color:#5ECAE8"/>
	<stop  offset="0.5058" style="stop-color:#18B5DC"/>
	<stop  offset="1" style="stop-color:#1F7CB4"/>
</linearGradient>
<path fill="url(#SVGID_1_)" d="M32.354,10.609H13.508c-1.07,0-1.938,0.868-1.938,1.938v33.436c0,1.07,0.868,1.938,1.938,1.938
	h22.088c-0.311-1.219-0.916-5.005-1.156-7.897c-0.27-3.268-0.291-5.766-0.291-6.929c0-0.997-0.646-1.068-0.978-1.068
	c-0.055,0-0.102,0.002-0.135,0.002c-0.232,0-3.334,0-3.925,0c-0.564,0-0.973-0.296-0.972-0.926c0-0.03,0.001-0.06,0.003-0.091
	c0.042-0.693,0.115-4.074,1.066-10.224C30.032,15.452,31.505,12.222,32.354,10.609"/>
<path fill="none" d="M13.508,10.609h35.809c1.07,0,1.939,0.868,1.939,1.938v33.436c0,1.07-0.867,1.938-1.939,1.938H13.508
	c-1.071,0-1.938-0.866-1.938-1.938V12.547C11.57,11.477,12.437,10.609,13.508,10.609z"/>
<path fill="none" d="M13.508,10.609h35.809c1.07,0,1.939,0.868,1.939,1.938v33.436c0,1.07-0.867,1.938-1.939,1.938H13.508
	c-1.071,0-1.938-0.866-1.938-1.938V12.547C11.57,11.477,12.437,10.609,13.508,10.609z"/>
<g>
	
		<linearGradient id="SVGID_2_" gradientUnits="userSpaceOnUse" x1="56.4146" y1="718.1763" x2="56.4146" y2="755.4878" gradientTransform="matrix(1 0 0 1 -16.7197 -707.5674)">
		<stop  offset="0" style="stop-color:#F7F8F8"/>
		<stop  offset="0.5" style="stop-color:#EAF0F5"/>
		<stop  offset="0.9988" style="stop-color:#DCE8F4"/>
	</linearGradient>
	<path fill="url(#SVGID_2_)" d="M49.315,10.609h-16.96c-0.851,1.613-2.322,4.843-3.147,10.176c-0.951,6.15-1.024,9.531-1.066,10.224
		c-0.042,0.693,0.379,1.018,0.969,1.018c0.591,0,3.692,0,3.925,0s1.114-0.097,1.114,1.066c0,1.163,0.021,3.661,0.291,6.929
		c0.238,2.892,0.846,6.678,1.154,7.898h13.721c1.072,0,1.938-0.867,1.938-1.938V12.547C51.254,11.477,50.387,10.609,49.315,10.609z"
		/>
</g>
<path fill="none" d="M49.315,10.609h-16.96c-0.851,1.613-2.322,4.843-3.147,10.176c-0.951,6.15-1.024,9.531-1.066,10.224
	c-0.042,0.693,0.379,1.018,0.969,1.018c0.591,0,3.692,0,3.925,0s1.114-0.097,1.114,1.066c0,1.163,0.021,3.661,0.291,6.929
	c0.238,2.892,0.846,6.678,1.154,7.898h13.721c1.072,0,1.938-0.867,1.938-1.938V12.547C51.254,11.477,50.387,10.609,49.315,10.609z"
	/>
<path fill="#010101" d="M19.87,34.206c-0.118,0-0.232,0.034-0.331,0.098c-0.137,0.089-0.231,0.225-0.265,0.384
	c-0.034,0.159-0.004,0.323,0.084,0.459c0.132,0.203,3.331,4.985,12.022,4.985c8.685,0,11.964-4.776,12.099-4.979
	c0.188-0.278,0.109-0.657-0.168-0.843c-0.102-0.068-0.219-0.103-0.34-0.103c-0.203,0-0.393,0.101-0.508,0.269
	c-0.006,0.011-0.773,1.126-2.512,2.222c-1.604,1.01-4.393,2.214-8.572,2.214c-4.177,0-6.942-1.203-8.527-2.211
	c-1.719-1.094-2.464-2.208-2.471-2.219C20.269,34.309,20.078,34.206,19.87,34.206z M22.583,20.124c-0.431,0-0.781,0.35-0.781,0.781
	v2.646c0,0.431,0.351,0.781,0.781,0.781c0.431,0,0.781-0.35,0.781-0.781v-2.646C23.364,20.474,23.013,20.124,22.583,20.124z
	 M40.254,20.124c-0.43,0-0.781,0.35-0.781,0.781v2.646c0,0.431,0.352,0.781,0.781,0.781c0.432,0,0.77-0.343,0.77-0.781v-2.646
	C41.024,20.467,40.686,20.124,40.254,20.124z"/>
</svg>
