<?xml version="1.0" encoding="utf-8"?>
<!-- Generator: Adobe Illustrator 15.1.0, SVG Export Plug-In . SVG Version: 6.00 Build 0)  -->
<!DOCTYPE svg PUBLIC "-//W3C//DTD SVG 1.1//EN" "http://www.w3.org/Graphics/SVG/1.1/DTD/svg11.dtd">
<svg version="1.1" id="Layer_1" xmlns="http://www.w3.org/2000/svg" xmlns:xlink="http://www.w3.org/1999/xlink" x="0px" y="0px"
	 width="135px" height="40px" viewBox="0 0 135 40" enable-background="new 0 0 135 40" xml:space="preserve">
<g>
	<path fill="#1D60AD" d="M17.34,12.375c-0.162,0.258-0.332,0.452-0.51,0.582c-0.177,0.129-0.407,0.194-0.687,0.194
		c-0.248,0-0.515-0.078-0.8-0.234c-0.286-0.156-0.609-0.332-0.97-0.526c-0.36-0.194-0.773-0.369-1.236-0.525
		c-0.464-0.156-0.992-0.234-1.584-0.234c-1.024,0-1.787,0.218-2.288,0.654c-0.501,0.437-0.751,1.027-0.751,1.77
		c0,0.475,0.151,0.868,0.452,1.18c0.302,0.313,0.698,0.582,1.189,0.809c0.49,0.226,1.05,0.434,1.681,0.622
		c0.63,0.189,1.274,0.399,1.932,0.63c0.657,0.232,1.301,0.504,1.932,0.817s1.191,0.711,1.681,1.196
		c0.491,0.485,0.887,1.075,1.189,1.771c0.301,0.695,0.452,1.533,0.452,2.513c0,1.089-0.189,2.107-0.566,3.055
		c-0.377,0.947-0.924,1.773-1.641,2.479c-0.717,0.707-1.601,1.262-2.651,1.666c-1.05,0.404-2.244,0.605-3.581,0.605
		c-0.733,0-1.479-0.076-2.239-0.227c-0.76-0.15-1.496-0.363-2.207-0.639c-0.712-0.273-1.379-0.6-2.005-0.977
		c-0.625-0.379-1.169-0.799-1.632-1.262l1.617-2.551c0.129-0.184,0.299-0.337,0.509-0.461c0.21-0.123,0.439-0.186,0.687-0.186
		c0.324,0,0.649,0.103,0.979,0.307c0.328,0.205,0.7,0.432,1.115,0.679c0.415,0.248,0.892,0.474,1.431,0.679
		c0.539,0.205,1.174,0.306,1.907,0.306c0.992,0,1.762-0.217,2.312-0.653c0.549-0.437,0.824-1.129,0.824-2.077
		c0-0.55-0.151-0.997-0.453-1.342c-0.302-0.345-0.698-0.631-1.188-0.857c-0.491-0.226-1.049-0.426-1.673-0.598
		c-0.625-0.172-1.266-0.364-1.923-0.574c-0.658-0.21-1.299-0.469-1.924-0.776c-0.625-0.307-1.183-0.711-1.673-1.213
		c-0.491-0.501-0.887-1.125-1.188-1.875c-0.302-0.749-0.453-1.673-0.453-2.772c0-0.884,0.178-1.746,0.533-2.587
		c0.355-0.84,0.878-1.589,1.568-2.247c0.69-0.657,1.536-1.182,2.538-1.576c1.002-0.393,2.15-0.59,3.443-0.59
		c0.722,0,1.425,0.057,2.11,0.17c0.684,0.113,1.333,0.28,1.948,0.501c0.615,0.221,1.188,0.485,1.722,0.792s1.011,0.655,1.431,1.042
		L17.34,12.375z"/>
	<path fill="#1D60AD" d="M26.813,6.943v13.563h0.743c0.313,0,0.55-0.045,0.712-0.138c0.162-0.091,0.323-0.245,0.485-0.46l3.168-4.72
		c0.193-0.269,0.415-0.471,0.663-0.606c0.248-0.135,0.565-0.202,0.954-0.202h4.591l-4.332,5.965
		c-0.41,0.539-0.895,0.981-1.455,1.326c0.248,0.183,0.474,0.396,0.679,0.639c0.205,0.242,0.399,0.515,0.582,0.816l4.721,8.016
		h-4.526c-0.377,0-0.701-0.063-0.97-0.188c-0.27-0.123-0.496-0.342-0.679-0.654l-3.168-5.929c-0.151-0.27-0.307-0.444-0.469-0.525
		s-0.404-0.121-0.728-0.121h-0.97v7.417h-5.012V6.943H26.813z"/>
	<path fill="#1D60AD" d="M56.103,14.379l-8.955,21.109c-0.151,0.334-0.334,0.578-0.55,0.736c-0.215,0.156-0.56,0.234-1.034,0.234
		h-3.75l3.233-6.791l-6.692-15.289h4.43c0.388,0,0.687,0.086,0.897,0.258c0.21,0.173,0.363,0.377,0.46,0.614l2.748,7.226
		c0.259,0.657,0.469,1.331,0.631,2.021c0.118-0.345,0.236-0.689,0.355-1.034c0.119-0.345,0.243-0.685,0.372-1.019l2.489-7.194
		c0.097-0.248,0.27-0.455,0.518-0.622c0.247-0.167,0.517-0.25,0.808-0.25H56.103z"/>
	<path fill="#38974A" d="M80.885,19.358c0,1.703-0.293,3.273-0.881,4.712c-0.588,1.438-1.414,2.683-2.481,3.731
		c-1.066,1.05-2.352,1.87-3.855,2.458c-1.504,0.586-3.171,0.881-5.003,0.881h-9.15V7.59h9.15c1.832,0,3.499,0.296,5.003,0.889
		s2.789,1.412,3.855,2.457c1.067,1.045,1.894,2.287,2.481,3.726S80.885,17.667,80.885,19.358z M75.292,19.358
		c0-1.164-0.151-2.215-0.453-3.152s-0.735-1.732-1.301-2.385c-0.565-0.651-1.259-1.153-2.077-1.503
		c-0.819-0.35-1.752-0.526-2.797-0.526h-3.653v15.147h3.653c1.045,0,1.978-0.175,2.797-0.525c0.818-0.351,1.512-0.852,2.077-1.504
		c0.565-0.651,0.999-1.446,1.301-2.384C75.141,21.589,75.292,20.533,75.292,19.358z"/>
	<path fill="#38974A" d="M103.71,31.141h-4.946c-0.916,0-1.573-0.346-1.973-1.035l-3.912-6.835
		c-0.183-0.291-0.388-0.504-0.614-0.639c-0.226-0.134-0.549-0.202-0.97-0.202h-1.39v8.711h-5.464V7.59h7.662
		c1.702,0,3.154,0.175,4.356,0.525c1.201,0.351,2.182,0.838,2.942,1.463c0.76,0.625,1.312,1.363,1.656,2.214
		c0.346,0.852,0.518,1.778,0.518,2.781c0,0.765-0.103,1.487-0.307,2.167c-0.205,0.678-0.507,1.307-0.906,1.883
		c-0.398,0.577-0.891,1.091-1.479,1.544s-1.264,0.824-2.028,1.115c0.354,0.184,0.689,0.412,1.002,0.687s0.592,0.601,0.841,0.978
		L103.71,31.141z M92.104,18.663c0.743,0,1.376-0.094,1.899-0.283c0.522-0.189,0.951-0.45,1.285-0.784s0.576-0.725,0.728-1.172
		c0.15-0.447,0.227-0.929,0.227-1.446c0-1.035-0.338-1.843-1.011-2.425c-0.674-0.582-1.716-0.873-3.128-0.873h-2.198v6.983H92.104z"
		/>
	<path fill="#38974A" d="M132.5,7.59v23.551h-4.817V17.596c0-0.313,0.009-0.652,0.024-1.019c0.017-0.366,0.046-0.738,0.089-1.115
		l-6.256,12.106c-0.193,0.377-0.455,0.662-0.784,0.855c-0.329,0.195-0.703,0.291-1.123,0.291h-0.744
		c-0.42,0-0.795-0.096-1.123-0.291c-0.329-0.193-0.591-0.479-0.784-0.855l-6.256-12.138c0.032,0.388,0.06,0.768,0.081,1.139
		c0.021,0.372,0.032,0.714,0.032,1.027v13.544h-4.817V7.59h4.17c0.237,0,0.445,0.005,0.623,0.016s0.337,0.043,0.477,0.097
		s0.268,0.137,0.38,0.25c0.113,0.113,0.224,0.272,0.332,0.477l6.062,11.946c0.216,0.409,0.423,0.835,0.622,1.277
		s0.391,0.895,0.574,1.358c0.184-0.475,0.374-0.938,0.574-1.391c0.199-0.453,0.412-0.884,0.639-1.293l6.045-11.897
		c0.108-0.205,0.219-0.364,0.332-0.477c0.113-0.113,0.239-0.197,0.379-0.25c0.141-0.054,0.3-0.086,0.478-0.097
		s0.386-0.016,0.623-0.016H132.5z"/>
</g>
</svg>
