<?xml version="1.0" encoding="utf-8"?>
<!-- Generator: Adobe Illustrator 15.1.0, SVG Export Plug-In . SVG Version: 6.00 Build 0)  -->
<!DOCTYPE svg PUBLIC "-//W3C//DTD SVG 1.1//EN" "http://www.w3.org/Graphics/SVG/1.1/DTD/svg11.dtd">
<svg version="1.1" id="Layer_1" xmlns="http://www.w3.org/2000/svg" xmlns:xlink="http://www.w3.org/1999/xlink" x="0px" y="0px"
	 width="24px" height="24px" viewBox="0 0 32 32" enable-background="new 0 0 32 32" xml:space="preserve">
<path d="M30.443,6.858H10.451V4.983h19.993V6.858z M30.443,25.677H10.451v1.875h19.993V25.677z M6.737,2.685v26.8h1.875v-26.8H6.737
	z M24.971,10.156h-14.52v1.875h14.52V10.156z M22.513,20.503H10.451v1.875h12.062V20.503z M16.138,15.33h-5.688v1.875h5.688V15.33z
	 M5.667,16.434c0-0.121-0.033-0.255-0.083-0.344L1.729,9.137c-0.05-0.09-0.124-0.151-0.19-0.151S1.397,9.046,1.347,9.137
	L0.934,9.882c-0.05,0.088-0.083,0.225-0.083,0.345c0,0.117,0.033,0.251,0.083,0.34l3.251,5.867l-3.251,5.867
	c-0.05,0.089-0.083,0.223-0.083,0.34c0,0.137,0.033,0.255,0.083,0.345l0.413,0.746c0.05,0.09,0.125,0.15,0.191,0.15
	s0.141-0.061,0.19-0.15l3.855-6.953C5.633,16.688,5.667,16.555,5.667,16.434z"/>
</svg>
