<?xml version="1.0" encoding="utf-8"?>
<!-- Generator: Adobe Illustrator 15.1.0, SVG Export Plug-In . SVG Version: 6.00 Build 0)  -->
<!DOCTYPE svg PUBLIC "-//W3C//DTD SVG 1.1//EN" "http://www.w3.org/Graphics/SVG/1.1/DTD/svg11.dtd">
<svg version="1.1" id="Layer_1" xmlns="http://www.w3.org/2000/svg" xmlns:xlink="http://www.w3.org/1999/xlink" x="0px" y="0px"
	 width="24px" height="24px" viewBox="0 0 32 32" enable-background="new 0 0 32 32" xml:space="preserve">
<path d="M21.589,6.588H1.596V4.713h19.993V6.588z M21.589,25.404H1.596v1.875h19.993V25.404z M23.133,2.413v26.8h1.875v-26.8H23.133
	z M16.116,9.886H1.596v1.875h14.52V9.886z M13.658,20.23H1.596v1.875h12.062V20.23z M7.283,15.059H1.596v1.875h5.688V15.059z
	 M26.701,16.508l3.854,6.951c0.05,0.09,0.124,0.15,0.19,0.15s0.141-0.061,0.191-0.15l0.412-0.746
	c0.051-0.09,0.084-0.207,0.084-0.344c0-0.117-0.033-0.252-0.084-0.34l-3.251-5.865l3.251-5.867c0.051-0.09,0.084-0.224,0.084-0.34
	c0-0.121-0.033-0.258-0.084-0.346l-0.412-0.745c-0.051-0.091-0.125-0.151-0.191-0.151s-0.141,0.061-0.19,0.151l-3.854,6.954
	c-0.051,0.088-0.084,0.223-0.084,0.344C26.617,16.285,26.65,16.418,26.701,16.508z"/>
</svg>
