<svg width="21" height="21" viewBox="0 0 21 21" fill="none" xmlns="http://www.w3.org/2000/svg">
<path fill-rule="evenodd" clip-rule="evenodd" d="M10.0967 0.519531C4.57801 0.519531 0.0966797 5.00086 0.0966797 10.5195C0.0966797 16.0382 4.57801 20.5195 10.0967 20.5195C15.6153 20.5195 20.0967 16.0382 20.0967 10.5195C20.0967 5.00086 15.6153 0.519531 10.0967 0.519531ZM8.76335 5.85286C8.76335 5.11953 9.36335 4.51953 10.0967 4.51953C10.83 4.51953 11.43 5.11953 11.43 5.85286C11.43 6.5862 10.83 7.1862 10.0967 7.1862C9.36335 7.1862 8.76335 6.5862 8.76335 5.85286ZM10.7633 5.85286C10.7633 5.47753 10.472 5.1862 10.0967 5.1862C9.72135 5.1862 9.43001 5.47753 9.43001 5.85286C9.43001 6.2282 9.72135 6.51953 10.0967 6.51953C10.472 6.51953 10.7633 6.2282 10.7633 5.85286ZM19.43 10.5195C19.43 5.36086 15.2553 1.1862 10.0967 1.1862C4.93801 1.1862 0.763346 5.36086 0.763346 10.5195C0.763346 15.6782 4.93801 19.8529 10.0967 19.8529C15.2553 19.8529 19.43 15.6782 19.43 10.5195ZM10.0967 7.85286C9.36335 7.85286 8.76335 8.45286 8.76335 9.1862V15.1862C8.76335 15.9195 9.36335 16.5195 10.0967 16.5195C10.83 16.5195 11.43 15.9195 11.43 15.1862V9.1862C11.43 8.45286 10.83 7.85286 10.0967 7.85286ZM10.7633 9.1862C10.7633 8.81086 10.472 8.51953 10.0967 8.51953C9.72135 8.51953 9.43001 8.81086 9.43001 9.1862V15.1862C9.43001 15.5615 9.72135 15.8529 10.0967 15.8529C10.472 15.8529 10.7633 15.5615 10.7633 15.1862V9.1862Z" fill="#2D9CDB"/>
</svg>