<svg width="68" height="68" viewBox="0 0 68 68" fill="none" xmlns="http://www.w3.org/2000/svg">
<g filter="url(#filter0_d)">
<rect x="4" y="3" width="59.9604" height="60" rx="29.9802" fill="#249FF4"/>
</g>
<path d="M41.1182 39.121H27.021C23.9704 39.121 22 37.2011 22 34.2297C22 27.9027 24.2946 24.2745 28.2945 24.2745C28.796 24.2745 29.1411 24.5109 29.3851 24.7168C31.0467 25.9885 32.4118 26.5157 34.0686 26.5157C35.7235 26.5157 37.0886 25.9885 38.7797 24.6959C38.998 24.5109 39.3422 24.2755 39.8446 24.2755C41.3841 24.2755 42.6854 24.8941 43.7159 26.1134C45.9599 28.7721 46.1162 33.4709 45.9532 34.4308C45.5328 36.9122 44.4976 37.9942 44.3813 38.1096L44.3002 38.1782C43.4537 38.795 42.3536 39.121 41.1182 39.121ZM34.0686 24.815C30.2593 24.815 27.1611 21.7168 27.1611 17.9075C27.1611 14.0982 30.2593 11 34.0686 11C37.8779 11 40.9771 14.0982 40.9771 17.9075C40.9771 21.7168 37.8779 24.815 34.0686 24.815Z" fill="white"/>
<path d="M25.048 50.668V52H19.966V43.324H21.58V50.668H25.048ZM33.9044 47.662C33.9044 48.298 33.7984 48.882 33.5864 49.414C33.3744 49.946 33.0764 50.404 32.6924 50.788C32.3084 51.172 31.8464 51.47 31.3064 51.682C30.7664 51.894 30.1664 52 29.5064 52H26.2004V43.324H29.5064C30.1664 43.324 30.7664 43.432 31.3064 43.648C31.8464 43.86 32.3084 44.158 32.6924 44.542C33.0764 44.922 33.3744 45.378 33.5864 45.91C33.7984 46.442 33.9044 47.026 33.9044 47.662ZM32.2484 47.662C32.2484 47.186 32.1844 46.76 32.0564 46.384C31.9324 46.004 31.7504 45.684 31.5104 45.424C31.2744 45.16 30.9864 44.958 30.6464 44.818C30.3104 44.678 29.9304 44.608 29.5064 44.608H27.8204V50.716H29.5064C29.9304 50.716 30.3104 50.646 30.6464 50.506C30.9864 50.366 31.2744 50.166 31.5104 49.906C31.7504 49.642 31.9324 49.322 32.0564 48.946C32.1844 48.566 32.2484 48.138 32.2484 47.662ZM39.6438 48.724L38.5878 45.838C38.5358 45.71 38.4818 45.558 38.4258 45.382C38.3698 45.206 38.3138 45.016 38.2578 44.812C38.2058 45.016 38.1518 45.208 38.0958 45.388C38.0398 45.564 37.9858 45.718 37.9338 45.85L36.8838 48.724H39.6438ZM42.4938 52H41.2458C41.1058 52 40.9918 51.966 40.9038 51.898C40.8158 51.826 40.7498 51.738 40.7057 51.634L40.0578 49.864H36.4638L35.8158 51.634C35.7838 51.726 35.7218 51.81 35.6298 51.886C35.5378 51.962 35.4238 52 35.2878 52H34.0277L37.4418 43.324H39.0858L42.4938 52ZM46.2118 47.686C46.5078 47.686 46.7658 47.65 46.9858 47.578C47.2058 47.502 47.3878 47.396 47.5318 47.26C47.6798 47.12 47.7898 46.952 47.8618 46.756C47.9338 46.556 47.9698 46.334 47.9698 46.09C47.9698 45.858 47.9338 45.648 47.8618 45.46C47.7898 45.272 47.6818 45.112 47.5378 44.98C47.3938 44.848 47.2118 44.748 46.9918 44.68C46.7718 44.608 46.5118 44.572 46.2118 44.572H45.0058V47.686H46.2118ZM46.2118 43.324C46.7918 43.324 47.2938 43.392 47.7178 43.528C48.1418 43.664 48.4918 43.854 48.7678 44.098C49.0438 44.342 49.2478 44.634 49.3798 44.974C49.5158 45.314 49.5838 45.686 49.5838 46.09C49.5838 46.51 49.5138 46.896 49.3738 47.248C49.2338 47.596 49.0238 47.896 48.7438 48.148C48.4638 48.4 48.1118 48.596 47.6878 48.736C47.2678 48.876 46.7758 48.946 46.2118 48.946H45.0058V52H43.3918V43.324H46.2118Z" fill="white"/>
<defs>
<filter id="filter0_d" x="0" y="0" width="67.9604" height="68" filterUnits="userSpaceOnUse" color-interpolation-filters="sRGB">
<feFlood flood-opacity="0" result="BackgroundImageFix"/>
<feColorMatrix in="SourceAlpha" type="matrix" values="0 0 0 0 0 0 0 0 0 0 0 0 0 0 0 0 0 0 127 0"/>
<feOffset dy="1"/>
<feGaussianBlur stdDeviation="2"/>
<feColorMatrix type="matrix" values="0 0 0 0 0 0 0 0 0 0 0 0 0 0 0 0 0 0 0.12 0"/>
<feBlend mode="normal" in2="BackgroundImageFix" result="effect1_dropShadow"/>
<feBlend mode="normal" in="SourceGraphic" in2="effect1_dropShadow" result="shape"/>
</filter>
</defs>
</svg>
