<svg width="36" height="35" viewBox="0 0 36 35" version="1.1" xmlns="http://www.w3.org/2000/svg" xmlns:xlink="http://www.w3.org/1999/xlink" xmlns:figma="http://www.figma.com/figma/ns">
<title>Linkedin</title>
<desc>Created using Figma</desc>
<g id="Canvas" transform="translate(14535 -2421)" figma:type="canvas">
<g id="Linkedin" style="mix-blend-mode:normal;" figma:type="frame">
<g id="Shape" style="mix-blend-mode:normal;" figma:type="vector-operation">
<use xlink:href="#path0_fill" transform="translate(-14534.5 2421)" fill="#246330" style="mix-blend-mode:normal;"/>
</g>
</g>
</g>
<defs>
<path id="path0_fill" fill-rule="evenodd" d="M 17.5 35C 7.83594 35 0 27.165 0 17.5C 0 7.83502 7.83594 0 17.5 0C 27.1641 0 35 7.83502 35 17.5C 35 27.165 27.1641 35 17.5 35ZM 9.21094 15.195L 9.21094 26.017L 13.0703 26.017L 13.0703 15.195L 9.21094 15.195ZM 8.98242 11.849C 8.98242 10.787 9.8457 9.97998 11.166 9.97998C 12.4863 9.97998 13.2988 10.787 13.3242 11.849C 13.3242 12.888 12.4863 13.719 11.1406 13.719L 11.1152 13.719C 9.82031 13.719 8.98242 12.888 8.98242 11.849ZM 26.9883 19.813C 26.9883 16.488 25.084 14.941 22.5449 14.941C 20.4941 14.941 19.5781 15.991 19.0664 16.729L 19.0664 15.195L 15.2051 15.195C 15.2559 16.212 15.2051 26.017 15.2051 26.017L 19.0664 26.017L 19.0664 19.974C 19.0664 19.651 19.0918 19.327 19.1934 19.097C 19.4707 18.45 20.1074 17.781 21.1738 17.781C 22.5703 17.781 23.1289 18.774 23.1289 20.229L 23.1289 26.017L 26.9883 26.017L 26.9883 19.813Z"/>
</defs>
</svg>
