<?xml version="1.0" encoding="utf-8"?>
<!-- Generator: Adobe Illustrator 15.1.0, SVG Export Plug-In . SVG Version: 6.00 Build 0)  -->
<!DOCTYPE svg PUBLIC "-//W3C//DTD SVG 1.1//EN" "http://www.w3.org/Graphics/SVG/1.1/DTD/svg11.dtd">
<svg version="1.1" xmlns="http://www.w3.org/2000/svg" xmlns:xlink="http://www.w3.org/1999/xlink" x="0px" y="0px" width="24px"
	 height="24px" viewBox="0 0 32 32" enable-background="new 0 0 32 32" xml:space="preserve">
<g id="Layer_1">
	<path d="M4.787,24.915c0,1.11,0.902,2.009,2.008,2.009c1.108,0,2.007-0.897,2.007-2.009
		c0-1.106-0.9-2.011-2.007-2.011C5.688,22.904,4.787,23.811,4.787,24.915z M18.921,0.884c-0.625-0.355-1.649-0.357-2.278-0.005
		L4.66,7.602C4.032,7.956,4.037,8.524,4.67,8.865l11.962,6.458c0.632,0.342,1.668,0.339,2.299-0.006l11.785-6.447
		c0.63-0.345,0.633-0.918,0.011-1.273L18.921,0.884z M8.186,13.389c-0.647-0.316-1.639-0.206-2.203,0.241l-1.439,1.142
		c-0.563,0.446-0.507,1.092,0.126,1.436l11.962,6.456c0.632,0.345,1.67,0.345,2.305,0.003l11.775-6.34
		c0.634-0.341,0.691-0.988,0.129-1.439l-1.563-1.251c-0.561-0.45-1.548-0.554-2.191-0.233l-8.129,4.066
		c-0.646,0.321-1.701,0.328-2.349,0.013L8.186,13.389z M30.713,23.917l-11.775,6.341c-0.635,0.343-1.673,0.343-2.305-0.001
		l-4.336-2.341c-0.221-0.288-0.449-0.568-0.664-0.869c0.132-0.25,1.753-0.99,1.753-0.99c0.135-0.022,0.228-0.149,0.228-0.279v-1.74
		c0-0.118,0.166-0.338,0.166-0.338l2.829,1.375c0.647,0.313,1.702,0.307,2.349-0.014l8.129-4.066
		c0.644-0.322,1.631-0.22,2.191,0.231l1.563,1.253C31.404,22.928,31.347,23.576,30.713,23.917z M12.808,24.037v1.74
		c0,0.13-0.093,0.257-0.228,0.279l-1.433,0.217c-0.075,0.266-0.188,0.523-0.32,0.773c0.214,0.301,0.443,0.581,0.664,0.869
		c0.053,0.069,0.108,0.139,0.16,0.209c0.04,0.052,0.064,0.104,0.064,0.175c0,0.062-0.017,0.121-0.057,0.178
		c-0.327,0.457-0.876,0.944-1.289,1.319c-0.057,0.055-0.125,0.081-0.198,0.081c-0.071,0-0.142-0.023-0.196-0.071l-1.103-0.84
		c-0.229,0.122-0.462,0.217-0.706,0.288l-0.219,1.438c-0.014,0.135-0.14,0.239-0.28,0.239H5.925c-0.141,0-0.251-0.096-0.281-0.219
		c-0.123-0.471-0.173-0.982-0.228-1.458c-0.243-0.077-0.484-0.178-0.712-0.301l-1.082,0.851c-0.067,0.037-0.133,0.071-0.205,0.071
		c-0.266,0-1.326-1.148-1.513-1.403c-0.048-0.056-0.073-0.105-0.073-0.177c0-0.073,0.031-0.137,0.076-0.196
		c0.293-0.354,0.574-0.701,0.841-1.082c-0.125-0.226-0.219-0.463-0.306-0.715l-1.448-0.219C0.869,26.06,0.775,25.918,0.775,25.8
		l-0.003-1.737c0-0.133,0.093-0.264,0.225-0.286l1.434-0.219c0.075-0.257,0.189-0.515,0.321-0.767
		c-0.267-0.373-0.558-0.712-0.826-1.076c-0.036-0.055-0.062-0.108-0.062-0.182c0-0.059,0.016-0.127,0.054-0.169
		c0.328-0.461,0.878-0.947,1.292-1.334c0.055-0.043,0.122-0.074,0.196-0.074c0.071,0,0.141,0.024,0.189,0.071l1.114,0.849
		c0.227-0.123,0.461-0.22,0.703-0.294l0.221-1.439c0.016-0.134,0.141-0.236,0.281-0.236h1.74c0.139,0,0.251,0.093,0.282,0.22
		c0.124,0.468,0.17,0.98,0.226,1.457c0.241,0.08,0.487,0.182,0.712,0.303l1.082-0.844c0.063-0.046,0.132-0.073,0.204-0.073
		c0.268,0,1.327,1.14,1.513,1.398c0.041,0.053,0.071,0.109,0.071,0.178c0,0.073-0.029,0.134-0.075,0.187
		c-0.258,0.318-0.509,0.636-0.75,0.97c-0.029,0.039-0.061,0.075-0.089,0.115c0.125,0.236,0.229,0.466,0.308,0.723l1.458,0.219
		C12.715,23.778,12.808,23.919,12.808,24.037z"/>
</g>
<g id="Layer_2">
</g>
</svg>
