<svg width="32" height="32" viewBox="0 0 32 32" fill="none" xmlns="http://www.w3.org/2000/svg">
<path d="M12.861 21.229C12.861 21.5 12.635 21.725 12.363 21.725H1.44202C1.17102 21.725 0.947021 21.5 0.947021 21.229V17.49C0.947021 17.211 1.03202 16.799 1.14002 16.535L2.98702 12.253C3.09502 11.998 3.40502 11.796 3.67702 11.796H10.13C10.401 11.796 10.713 11.997 10.821 12.253L12.667 16.535C12.775 16.799 12.861 17.211 12.861 17.49V21.229V21.229ZM11.333 17.257C11.317 17.217 11.311 17.172 11.294 17.134L9.65002 13.286H4.15902L2.51402 17.134C2.49902 17.172 2.49002 17.217 2.47502 17.257H4.92502L5.66202 18.746H8.14402L8.88002 17.257H11.333Z" fill="#37964A"/>
<path d="M8 23.966V28.227H27.963V12.256H21.473C20.651 12.256 19.975 11.586 19.975 10.76V4.26602H8V9.99402L6 10.031V3.76902C6 2.94002 6.673 2.27002 7.5 2.27002H21.475C22.3 2.27002 23.454 2.75302 24.038 3.33302L28.905 8.20202C29.481 8.77902 29.968 9.93202 29.968 10.761V28.729C29.968 29.557 29.296 30.227 28.471 30.227H7.5C6.672 30.227 6 29.557 6 28.729V23.969L8 23.966ZM16.718 14.82H25.458C25.738 14.82 25.956 15.039 25.956 15.321V16.321C25.956 16.6 25.738 16.821 25.458 16.821H16.718C16.436 16.821 16.218 16.6 16.218 16.321V15.321C16.218 15.039 16.436 14.82 16.718 14.82ZM25.954 19.307V20.309C25.954 20.588 25.736 20.807 25.454 20.807H15.237C14.954 20.807 14.737 20.588 14.737 20.309V19.307C14.737 19.028 14.954 18.809 15.237 18.809H25.458C25.736 18.809 25.954 19.027 25.954 19.307ZM25.954 23.303V24.297C25.954 24.58 25.736 24.799 25.454 24.799H13.161C12.879 24.799 12.661 24.58 12.661 24.297V23.303C12.661 23.022 12.878 22.803 13.161 22.803H25.454C25.736 22.801 25.954 23.023 25.954 23.303ZM21.975 10.26H27.84C27.743 9.99402 27.606 9.73002 27.492 9.62002L22.607 4.73602C22.502 4.62902 22.234 4.48602 21.965 4.39402V10.259L21.975 10.26Z" fill="#37964A"/>
</svg>