<?xml version="1.0" encoding="utf-8"?>
<!-- Generator: Adobe Illustrator 15.1.0, SVG Export Plug-In . SVG Version: 6.00 Build 0)  -->
<!DOCTYPE svg PUBLIC "-//W3C//DTD SVG 1.1//EN" "http://www.w3.org/Graphics/SVG/1.1/DTD/svg11.dtd">
<svg version="1.1" id="Layer_1" xmlns="http://www.w3.org/2000/svg" xmlns:xlink="http://www.w3.org/1999/xlink" x="0px" y="0px"
	 width="24px" height="24px" viewBox="0 0 32 32" enable-background="new 0 0 32 32" xml:space="preserve">
<path d="M12.861,21.229c0,0.271-0.226,0.496-0.498,0.496H1.442c-0.271,0-0.495-0.225-0.495-0.496V17.49
	c0-0.279,0.085-0.691,0.193-0.955l1.847-4.282c0.108-0.255,0.418-0.457,0.69-0.457h6.453c0.271,0,0.583,0.201,0.691,0.457
	l1.846,4.282c0.108,0.264,0.194,0.676,0.194,0.955V21.229z M11.333,17.257c-0.016-0.04-0.022-0.085-0.039-0.123L9.65,13.286H4.159
	l-1.645,3.848c-0.015,0.038-0.024,0.083-0.039,0.123h2.45l0.737,1.489h2.482l0.736-1.489H11.333z"/>
<path d="M8,23.966v4.261h19.963V12.256h-6.49c-0.822,0-1.498-0.67-1.498-1.496V4.266H8v5.728l-2,0.037V3.769
	C6,2.94,6.673,2.27,7.5,2.27h13.975c0.825,0,1.979,0.483,2.563,1.063l4.867,4.869c0.576,0.577,1.063,1.73,1.063,2.559v17.968
	c0,0.828-0.672,1.498-1.497,1.498H7.5c-0.828,0-1.5-0.67-1.5-1.498v-4.76L8,23.966z M16.718,14.82h8.74
	c0.28,0,0.498,0.219,0.498,0.501v1c0,0.279-0.218,0.5-0.498,0.5h-8.74c-0.282,0-0.5-0.221-0.5-0.5v-1
	C16.218,15.039,16.436,14.82,16.718,14.82z M25.954,19.307v1.002c0,0.279-0.218,0.498-0.5,0.498H15.237
	c-0.283,0-0.5-0.219-0.5-0.498v-1.002c0-0.279,0.217-0.498,0.5-0.498h10.221C25.736,18.809,25.954,19.027,25.954,19.307z
	 M25.954,23.303v0.994c0,0.283-0.218,0.502-0.5,0.502H13.161c-0.282,0-0.5-0.219-0.5-0.502v-0.994c0-0.281,0.217-0.5,0.5-0.5h12.293
	C25.736,22.801,25.954,23.023,25.954,23.303z M21.975,10.26h5.865c-0.097-0.266-0.234-0.53-0.348-0.64l-4.885-4.884
	c-0.105-0.107-0.373-0.25-0.642-0.342v5.865L21.975,10.26L21.975,10.26z"/>
</svg>
