<svg width="24" height="24" viewBox="0 0 26 26" version="1.1" xmlns="http://www.w3.org/2000/svg" xmlns:xlink="http://www.w3.org/1999/xlink">
<title>members</title>
<desc>Created using Figma</desc>
<g id="Canvas" transform="translate(-12353 134)">
<g id="members">
<g id="Profile">
<use xlink:href="#path0_stroke" transform="translate(12354 -132.577)"/>
</g>
</g>
</g>
<defs>
<path id="path0_stroke" d="M 21.8751 19.0797L 21.1626 19.7813L 21.1663 19.7851L 21.8751 19.0797ZM 15.3112 15.593L 15.6234 14.643L 15.6233 14.643L 15.3112 15.593ZM 15.0032 15.2285L 15.9956 15.1055L 15.9956 15.1055L 15.0032 15.2285ZM 15.2135 14.8056L 15.7328 15.6603L 15.7328 15.6603L 15.2135 14.8056ZM 18.9265 8.74133L 17.9347 8.61317L 17.9345 8.61448L 18.9265 8.74133ZM 17.9451 3.31903L 17.0733 3.80896L 17.0758 3.81329L 17.9451 3.31903ZM 12 0L 12.0462 -0.998933C 12.0154 -1.00036 11.9846 -1.00036 11.9538 -0.998933L 12 0ZM 6.05488 3.31903L 6.9242 3.8133L 6.92664 3.80895L 6.05488 3.31903ZM 5.07353 8.74133L 6.06545 8.61449L 6.06528 8.61317L 5.07353 8.74133ZM 8.78646 14.8056L 8.2672 15.6603L 8.26724 15.6603L 8.78646 14.8056ZM 8.9968 15.2285L 8.00441 15.1055L 8.0044 15.1055L 8.9968 15.2285ZM 8.68881 15.593L 8.37668 14.643L 8.37664 14.643L 8.68881 15.593ZM 2.1249 19.0797L 2.83373 19.7851L 2.83744 19.7813L 2.1249 19.0797ZM 24.9831 23.3936C 24.6257 21.4925 23.9779 19.8072 22.5839 18.3743L 21.1663 19.7851C 22.2938 20.886 22.6982 22.0263 23.0169 23.7594L 24.9831 23.3936ZM 22.5876 18.378C 21.1718 16.9402 19.0007 15.7527 15.6234 14.643L 14.999 16.543C 18.2529 17.6122 20.073 18.6748 21.1626 19.7813L 22.5876 18.378ZM 15.6233 14.643C 15.8034 14.7021 15.9662 14.8686 15.9956 15.1055L 14.0108 15.3516C 14.0818 15.924 14.484 16.3738 14.9991 16.543L 15.6233 14.643ZM 15.9956 15.1055C 16.0253 15.3452 15.905 15.5557 15.7328 15.6603L 14.6943 13.951C 14.2233 14.2372 13.9394 14.7763 14.0108 15.3516L 15.9956 15.1055ZM 15.7328 15.6603C 18.4599 14.0033 19.6514 10.9564 19.9184 8.86817L 17.9345 8.61448C 17.7143 10.3371 16.7258 12.7167 14.6943 13.951L 15.7328 15.6603ZM 19.9182 8.86949C 20.115 7.31114 19.9414 4.85904 18.8144 2.82477L 17.0758 3.81329C 18.0247 5.43002 18.1161 7.24469 17.9347 8.61317L 19.9182 8.86949ZM 18.8169 2.82911C 17.6729 0.793531 15.5743 -0.835815 12.0462 -0.998933L 11.9538 0.998933C 14.7955 1.13031 16.2687 2.37712 17.0734 3.80895L 18.8169 2.82911ZM 6.92664 3.80895C 7.73132 2.37712 9.20447 1.13031 12.0462 0.998933L 11.9538 -0.998933C 8.42567 -0.835815 6.32708 0.793531 5.18311 2.82911L 6.92664 3.80895ZM 6.06528 8.61317C 5.88386 7.24469 5.97534 5.43002 6.92419 3.81329L 5.18556 2.82477C 4.05857 4.85904 3.88497 7.31114 4.08178 8.86949L 6.06528 8.61317ZM 9.30572 13.951C 7.27423 12.7167 6.28574 10.3371 6.06545 8.61449L 4.08161 8.86817C 4.34863 10.9564 5.54007 14.0033 8.2672 15.6603L 9.30572 13.951ZM 9.9892 15.3516C 10.0606 14.7763 9.77672 14.2372 9.30567 13.951L 8.26724 15.6603C 8.09504 15.5557 7.97467 15.3452 8.00441 15.1055L 9.9892 15.3516ZM 9.00093 16.543C 9.516 16.3738 9.91823 15.924 9.9892 15.3516L 8.0044 15.1055C 8.03377 14.8686 8.19662 14.7021 8.37668 14.643L 9.00093 16.543ZM 2.83744 19.7813C 3.92702 18.6748 5.74711 17.6122 9.00097 16.543L 8.37664 14.643C 4.99933 15.7527 2.82822 16.9402 1.41237 18.378L 2.83744 19.7813ZM 0.983131 23.7594C 1.30177 22.0263 1.70619 20.886 2.83372 19.7851L 1.41608 18.3743C 0.0220723 19.8072 -0.625665 21.4925 -0.983131 23.3936L 0.983131 23.7594Z"/>
</defs>
</svg>
