<svg width="17" height="20" viewBox="0 0 17 20" fill="none" xmlns="http://www.w3.org/2000/svg">
<path d="M15.5136 1.52672C15.8119 1.58418 16.0271 1.85191 16.0271 2.16365V11.3007C16.0271 15.9731 9.25315 19.5575 8.96586 19.709C8.88273 19.7506 8.78982 19.7726 8.7018 19.7751V19.78C8.67735 19.78 8.65412 19.7787 8.62967 19.7751C8.57832 19.7702 8.5282 19.7579 8.48052 19.7396C8.45974 19.7323 8.43896 19.7225 8.41818 19.7127C8.2458 19.621 5.74822 18.2934 3.77143 16.242L4.64797 15.3288C4.69931 15.3814 4.75066 15.4339 4.802 15.4853C6.25067 16.9291 8.00375 17.9988 8.68835 18.3887C9.93653 17.6785 14.7703 14.6956 14.7703 11.3019V2.70155L8.7018 1.52305L2.61372 2.70399V11.3043C2.61372 11.4669 2.6345 11.6258 2.65528 11.7848L1.61493 12.8691C1.58926 12.7884 1.56603 12.7065 1.54403 12.6258C1.42667 12.1967 1.35821 11.7566 1.35821 11.3055V2.16609C1.35821 1.85435 1.57459 1.58662 1.87044 1.52917L8.58688 0.224753C8.5881 0.224753 8.59055 0.224753 8.59177 0.22353C8.61255 0.221085 8.63211 0.222308 8.65167 0.22353C8.65412 0.22353 8.65656 0.22353 8.65901 0.22353C8.66879 0.22353 8.67612 0.224753 8.68468 0.224753C8.69691 0.224753 8.71035 0.22353 8.72258 0.222308C8.74703 0.221085 8.76904 0.21864 8.79471 0.22353L15.5136 1.52672ZM8.83994 0.00836902L15.5564 1.31156C15.9623 1.3898 16.2459 1.75166 16.2459 2.16487V11.3019C16.2459 13.7396 14.4855 15.8606 12.7483 17.3667C10.9989 18.8826 9.21647 19.8264 9.06733 19.9046L9.06488 19.9059C9.01843 19.9303 8.96953 19.9474 8.92063 19.9621V20H8.70057C8.57099 20 8.43651 19.9694 8.31671 19.9071V19.9071C8.13944 19.8142 5.61619 18.4719 3.61373 16.3948L3.46703 16.242L4.64675 15.0122L4.80567 15.1748C6.19077 16.6027 7.91939 17.6882 8.68957 18.1357C9.36317 17.7469 10.7764 16.8643 12.049 15.6907C13.406 14.4376 14.5515 12.8997 14.5515 11.3019V2.88248L8.7018 1.74677L2.83377 2.88492V11.3031C2.83377 11.4486 2.85211 11.5928 2.87289 11.7542L2.88634 11.8593L1.51591 13.2872L1.40466 12.9339C1.23962 12.4107 1.13693 11.8691 1.13693 11.3031V2.16609C1.13693 1.75166 1.42544 1.39225 1.82643 1.31278L8.46341 0.0230392V0.00347936H8.57832C8.60522 0.00103434 8.62845 0.00103443 8.64434 0.00225694C8.65534 0.00225694 8.66145 0.00225685 8.66512 0.00347936H8.68468C8.6859 0.00347936 8.68957 0.00347936 8.69691 0.00347936C8.69813 0.00347936 8.69935 0.00347936 8.7018 0.00347936C8.70913 0.00347936 8.71891 0.00225694 8.72747 0.00225694C8.75314 -0.00141058 8.79226 -0.00141102 8.83994 0.00836902Z" fill="#010101"/>
<path d="M0 15.6722V17.2211H1.54769L6.03184 12.6991L4.48293 11.149L0 15.6722ZM7.214 11.5157C7.3766 11.3507 7.3766 11.1074 7.214 10.9448L6.27634 10.0084C6.1113 9.84454 5.86925 9.84454 5.70543 10.0084L4.97193 10.7431L6.51962 12.2908L7.214 11.5157Z" fill="#030303"/>
</svg>
