<svg width="25" height="22" viewBox="0 0 25 22" xmlns="http://www.w3.org/2000/svg">
<path d="M16.1799 15.8691H19.3271C19.7982 15.8691 20.1774 16.2501 20.1774 16.7195C20.1774 17.1889 19.7982 17.5698 19.3271 17.5698H16.1799C15.7088 17.5698 15.3296 17.1889 15.3296 16.7195C15.3296 16.2501 15.7088 15.8691 16.1799 15.8691Z"/>
<path d="M20.5677 1.72602C20.3347 1.03044 19.6868 0.564453 18.9538 0.564453H5.53372C4.80243 0.564453 4.15277 1.03044 3.91978 1.72772L0.339844 12.4692V18.5917C0.339844 19.9046 1.40787 20.9726 2.7208 20.9726H21.7684C23.0813 20.9726 24.1494 19.9046 24.1494 18.5917V12.4692L20.5677 1.72602ZM22.4487 18.5917C22.4487 18.9675 22.1426 19.2719 21.7684 19.2719H2.7208C2.34495 19.2719 2.04052 18.9658 2.04052 18.5917V14.1699H22.4487V18.5917ZM2.04052 12.4692L5.44188 2.26513H5.53372H18.9538H19.0473L22.4487 12.4692H2.04052Z"/>
<path fill-rule="evenodd" clip-rule="evenodd" d="M20.6566 1.69543L24.2432 12.4533V18.5912C24.2432 19.9567 23.1325 21.0674 21.767 21.0674H2.71935C1.35383 21.0674 0.243164 19.9567 0.243164 18.5912V12.4533L3.82798 1.69714C4.07397 0.960963 4.76007 0.46875 5.53228 0.46875H18.9524C19.7263 0.46875 20.4106 0.961022 20.6566 1.69543ZM3.91833 1.72725C4.15133 1.02997 4.80099 0.563988 5.53228 0.563988H18.9524C19.6853 0.563988 20.3333 1.02997 20.5663 1.72555L24.1479 12.4688V18.5912C24.1479 19.9041 23.0799 20.9722 21.767 20.9722H2.71935C1.40643 20.9722 0.338402 19.9041 0.338402 18.5912V12.4688L3.91833 1.72725ZM21.767 19.1762C22.0887 19.1762 22.352 18.9143 22.352 18.5912V14.2647H2.13432V18.5912C2.13432 18.9129 2.39626 19.1762 2.71935 19.1762H21.767ZM2.03908 12.4688H22.4472L19.0459 2.26467H5.44044L2.03908 12.4688ZM2.17122 12.3735H22.3151L18.9772 2.35991H5.50909L2.17122 12.3735ZM21.767 19.2715C22.1411 19.2715 22.4472 18.9671 22.4472 18.5912V14.1694H2.03908V18.5912C2.03908 18.9653 2.3435 19.2715 2.71935 19.2715H21.767Z"/>
<path d="M5.63086 16.7568C5.63086 17.2439 5.23605 17.6387 4.74902 17.6387C4.262 17.6387 3.86719 17.2439 3.86719 16.7568C3.86719 16.2698 4.262 15.875 4.74902 15.875C5.23605 15.875 5.63086 16.2698 5.63086 16.7568Z"/>
</svg>
