<?xml version="1.0" encoding="utf-8"?>
<!-- Generator: Adobe Illustrator 15.1.0, SVG Export Plug-In . SVG Version: 6.00 Build 0)  -->
<!DOCTYPE svg PUBLIC "-//W3C//DTD SVG 1.1//EN" "http://www.w3.org/Graphics/SVG/1.1/DTD/svg11.dtd">
<svg version="1.1" id="Layer_1" xmlns="http://www.w3.org/2000/svg" xmlns:xlink="http://www.w3.org/1999/xlink" x="0px" y="0px"
	 width="32px" height="32px" viewBox="0 0 32 32" enable-background="new 0 0 32 32" xml:space="preserve">
<g>
	
		<path fill="none" stroke="#38964A" stroke-width="4.214" stroke-linecap="round" stroke-linejoin="round" stroke-miterlimit="10" d="
		M937.961,333.072c0,0,3.4-15.723,17.1-14.479c13.768,1.253,15.709,17.667,15.709,17.667s19.416-2.719,19.809,14.064
		c0.262,11.021-12.438,13.802-12.438,13.802h-15.865"/>
	
		<line fill="none" stroke="#38964A" stroke-width="4.214" stroke-linecap="round" stroke-miterlimit="10" x1="905.744" y1="346.186" x2="914.01" y2="346.186"/>
	
		<line fill="none" stroke="#38964A" stroke-width="4.214" stroke-linecap="round" stroke-miterlimit="10" x1="909.996" y1="379.311" x2="918.262" y2="379.311"/>
	
		<line fill="none" stroke="#38964A" stroke-width="4.214" stroke-linecap="round" stroke-miterlimit="10" x1="959.234" y1="379.311" x2="972.246" y2="379.311"/>
	
		<line fill="none" stroke="#38964A" stroke-width="4.214" stroke-linecap="round" stroke-miterlimit="10" x1="895.885" y1="364.154" x2="914.01" y2="364.154"/>
	<g>
		<path fill="#37964A" d="M957.99,368.32c0,13.336-19.549,24.144-19.549,24.144s-19.553-10.808-19.553-24.144l0,0v-27.025
			l19.553-3.462l19.549,3.462V368.32L957.99,368.32z"/>
		
			<polyline fill="none" stroke="#FFFFFF" stroke-width="3.1391" stroke-linecap="round" stroke-linejoin="round" stroke-miterlimit="10" points="
			929.904,360.271 935.598,365.967 946.977,354.582 		"/>
	</g>
</g>
<path fill="#37964A" d="M25.27,2.05c0-0.663-0.552-1.289-1.291-1.289c-0.045,0-4.721-0.006-4.787-0.006
	c-0.426,0-0.811,0.233-1.131,0.685l-1.514,2.111h7.928l0.618-0.862C25.223,2.485,25.27,2.283,25.27,2.05z M10.919,3.551L9.413,1.45
	c-0.304-0.413-0.67-0.689-1.135-0.689c-0.045,0-4.749-0.003-4.799-0.003c-0.705,0-1.296,0.634-1.294,1.289
	C2.19,2.434,2.368,2.689,2.566,2.962l0.412,0.574c0.11,0.006,0.221,0.015,0.333,0.015H10.919z M13.731,7.473l-1.939-2.705H3.86
	l3.351,4.676h13.042l3.351-4.676h-7.931L13.731,7.473z M9.765,13.007l-1.669,2.33h11.271l-1.666-2.33l1.681-2.344H8.084
	L9.765,13.007z M3.868,21.234h7.93l1.933-2.696l1.931,2.696h7.931l-3.351-4.678H7.221L3.868,21.234z M2.118,24.061
	c0,0.674,0.581,1.293,1.293,1.293c0.032,0,4.738,0,4.784,0c0.374,0,0.783-0.218,0.995-0.477l1.737-2.426H3.312
	c-0.11,0-0.215,0.012-0.325,0.016L2.29,23.439C2.168,23.611,2.118,23.834,2.118,24.061z M19.881,27.128h6.893
	c0.348,0,0.676-0.028,0.988-0.071l-3.299-4.604h-7.93L19.881,27.128z M20.753,28.345l1.702,2.375
	c0.204,0.236,0.572,0.416,0.947,0.416c0.035,0,4.736,0,4.783,0c0.754,0,1.285-0.62,1.285-1.29c0-0.248-0.07-0.479-0.193-0.674
	l-0.348-0.484c-0.596-0.211-1.339-0.343-2.156-0.343H20.753z"/>
</svg>
