<svg width="25" height="25" viewBox="0 0 25 25" version="1.1" xmlns="http://www.w3.org/2000/svg" xmlns:xlink="http://www.w3.org/1999/xlink" xmlns:figma="http://www.figma.com/figma/ns">
<title>MyVault</title>
<desc>Created using Figma</desc>
<g id="Canvas" transform="translate(1138 -9144)" figma:type="canvas">
<rect x="-1138" y="9144" width="24" height="24" fill="#E5E5E5"/>
<mask id="mask0_alpha" mask-type="alpha">
<path d="M -1287.45 8509.88L 152.55 8509.88L 152.55 9533.88L -1287.45 9533.88L -1287.45 8509.88Z" fill="#FFFFFF"/>
</mask>
<g id="MyVault" style="mix-blend-mode:normal;" mask="url(#mask0_alpha)" figma:type="frame">
<path d="M -1287.45 8509.88L 152.55 8509.88L 152.55 9533.88L -1287.45 9533.88L -1287.45 8509.88Z" fill="#F2F3F5"/>
<g id="Rectangle 9" style="mix-blend-mode:normal;" filter="url(#filter0_d)" figma:type="rounded-rectangle">
<use xlink:href="#path0_fill" transform="translate(-1159.3 9134)" fill="#FFFFFF" style="mix-blend-mode:normal;"/>
</g>
<g id="Left Section" style="mix-blend-mode:normal;" figma:type="instance">
<g id="Menu" style="mix-blend-mode:normal;" figma:type="frame">
</g>
<g id="MyVault" style="mix-blend-mode:normal;" figma:type="instance">
<g id="Group" style="mix-blend-mode:normal;" figma:type="frame">
<g id="Vector" style="mix-blend-mode:normal;" figma:type="vector">
<use xlink:href="#path1_fill" transform="translate(-1137.45 9144.07)" style="mix-blend-mode:normal;"/>
</g>
<g id="Vector" style="mix-blend-mode:normal;" figma:type="vector">
<use xlink:href="#path2_fill" transform="translate(-1118.56 9153.4)" style="mix-blend-mode:normal;"/>
</g>
<g id="Vector" style="mix-blend-mode:normal;" figma:type="vector">
<use xlink:href="#path3_fill" transform="translate(-1129 9152.52)" style="mix-blend-mode:normal;"/>
</g>
</g>
</g>
</g>
</g>
</g>
<defs>
<filter id="filter0_d" filterUnits="userSpaceOnUse" x="-1164" y="9131" width="275" height="52" color-interpolation-filters="sRGB">
<feFlood flood-opacity="0" result="BackgroundImageFix"/>
<desc>type="dropShadow" x="0" y="1" size="4" spread="0" color="0,0,0,0.12" blend="normal"</desc>
<feColorMatrix in="SourceAlpha" type="matrix" values="0 0 0 0 0 0 0 0 0 0 0 0 0 0 0 0 0 0 255 0"/>
<feOffset dx="0" dy="1"/>
<feGaussianBlur stdDeviation="2"/>
<feColorMatrix type="matrix" values="0 0 0 0 0 0 0 0 0 0 0 0 0 0 0 0 0 0 0.12 0"/>
<feBlend mode="normal" in2="BackgroundImageFix" result="effect1_dropShadow"/>
<feBlend mode="normal" in="SourceGraphic" in2="effect1_dropShadow" result="shape"/>
</filter>
<path id="path0_fill" d="M 0 22C 0 9.84974 9.84974 0 22 0L 244 0C 256.15 0 266 9.84974 266 22L 266 22C 266 34.1503 256.15 44 244 44L 22 44C 9.84974 44 0 34.1503 0 22L 0 22Z"/>
<path id="path1_fill" d="M 1.77783 -3.44142e-06C 0.792962 -3.44142e-06 1.53114e-07 0.792903 1.53114e-07 1.77778L 1.53114e-07 22.2222C 1.53114e-07 23.2072 0.792902 24 1.77783 24L 22.2222 24C 23.2071 24 24 23.2072 24 22.2222L 24 1.77778C 24 0.792903 23.2072 -3.44142e-06 22.2222 -3.44142e-06L 1.77783 -3.44142e-06L 1.77783 -3.44142e-06ZM 2.22222 2.22222L 21.7777 2.22222L 21.7777 21.7777L 2.22222 21.7777L 2.22222 2.22222Z"/>
<path id="path2_fill" d="M 0.888887 -1.45823e-06C 0.40317 -1.45823e-06 -1.3124e-06 0.403294 -1.3124e-06 0.888892L -1.3124e-06 4.44445C -1.3124e-06 4.9301 0.40317 5.33333 0.888887 5.33333L 1.77777 5.33333L 1.77777 4.44445L 0.888887 4.44445L 0.888887 0.888892L 1.77777 0.888892L 1.77777 -1.45823e-06L 0.888887 -1.45823e-06Z"/>
<path id="path3_fill" d="M 3.55382 1.3999e-06C 1.59172 1.3999e-06 0.000896797 1.59083 8.62036e-07 3.55383C -5.88669e-05 5.51736 1.59094 7.10926 3.55358 7.10938C 3.5537 7.10938 3.55376 7.10938 3.55382 7.10938C 5.51651 7.10938 7.10763 5.5176 7.10763 3.55406C 7.10763 3.55394 7.10763 3.55394 7.10763 3.55388C 7.10673 1.59083 5.51591 1.3999e-06 3.55382 1.3999e-06ZM 3.55382 2.22049C 4.28992 2.22019 4.88685 2.81694 4.88715 3.5534C 4.88715 3.55358 4.88715 3.55371 4.88715 3.55383C 4.88709 4.29029 4.29033 4.88716 3.55423 4.88716C 3.55411 4.88716 3.55393 4.88716 3.55382 4.88716C 2.81825 4.8865 2.22228 4.28975 2.22222 3.55383C 2.22228 2.81796 2.81819 2.22115 3.55382 2.22049Z"/>
</defs>
</svg>
