<svg width="240" height="130" viewBox="0 0 240 130" version="1.1" xmlns="http://www.w3.org/2000/svg" xmlns:xlink="http://www.w3.org/1999/xlink">
<title>Group</title>
<desc>Created using Figma</desc>
<g id="Canvas" transform="translate(603 -2878)">
<g id="Group">
<g id="Rectangle 68">
<use xlink:href="#path0_fill" transform="translate(-603 2878)" fill="#FBDDC3"/>
</g>
<g id="Rectangle 272">
<use xlink:href="#path1_fill" transform="translate(-446 2889)" fill="url(#paint1_linear)" fill-opacity="0.18"/>
</g>
</g>
</g>
<defs>
<linearGradient id="paint1_linear" x1="0" y1="0" x2="1" y2="0" gradientUnits="userSpaceOnUse" gradientTransform="matrix(-0.5 113.5 -77.7921 -0.342697 69.3961 0.171348)">
<stop offset="0" stop-color="#F2994A"/>
<stop offset="1" stop-color="#F2994A" stop-opacity="0"/>
</linearGradient>
<path id="path0_fill" d="M 0 0L 240 0L 240 130L 0 130L 0 0Z"/>
<path id="path1_fill" fill-rule="evenodd" d="M 38.8182 38.9375L 55.4546 22.25L 55.4546 11.125L 5.54546 11.125L 5.54546 22.25L 22.1818 38.9375L 22.1818 44.5L 5.54546 61.1875L 5.54546 77.875L 55.4546 77.875L 55.4546 61.1875L 38.8182 44.5L 38.8182 38.9375ZM 0 0L 61 0L 61 5.5625L 0 5.5625L 0 0ZM 0 83.4375L 61 83.4375L 61 89L 0 89L 0 83.4375ZM 11.0909 66.75L 16.6364 66.75L 16.6364 72.3125L 11.0909 72.3125L 11.0909 66.75ZM 22.1818 66.75L 27.7273 66.75L 27.7273 72.3125L 22.1818 72.3125L 22.1818 66.75ZM 16.6364 61.1875L 22.1818 61.1875L 22.1818 66.75L 16.6364 66.75L 16.6364 61.1875ZM 27.7273 61.1875L 33.2727 61.1875L 33.2727 66.75L 27.7273 66.75L 27.7273 61.1875ZM 38.8182 61.1875L 44.3636 61.1875L 44.3636 66.75L 38.8182 66.75L 38.8182 61.1875ZM 33.2727 55.625L 38.8182 55.625L 38.8182 61.1875L 33.2727 61.1875L 33.2727 55.625ZM 22.1818 55.625L 27.7273 55.625L 27.7273 61.1875L 22.1818 61.1875L 22.1818 55.625ZM 27.7273 50.0625L 33.2727 50.0625L 33.2727 55.625L 27.7273 55.625L 27.7273 50.0625ZM 27.7273 38.9375L 33.2727 38.9375L 33.2727 44.5L 27.7273 44.5L 27.7273 38.9375ZM 33.2727 27.8125L 38.8182 27.8125L 38.8182 33.375L 33.2727 33.375L 33.2727 27.8125ZM 27.7273 22.25L 33.2727 22.25L 33.2727 27.8125L 27.7273 27.8125L 27.7273 22.25ZM 16.6364 22.25L 22.1818 22.25L 22.1818 27.8125L 16.6364 27.8125L 16.6364 22.25ZM 38.8182 22.25L 44.3636 22.25L 44.3636 27.8125L 38.8182 27.8125L 38.8182 22.25ZM 22.1818 27.8125L 27.7273 27.8125L 27.7273 33.375L 22.1818 33.375L 22.1818 27.8125ZM 33.2727 66.75L 38.8182 66.75L 38.8182 72.3125L 33.2727 72.3125L 33.2727 66.75ZM 44.3636 66.75L 49.9091 66.75L 49.9091 72.3125L 44.3636 72.3125L 44.3636 66.75Z"/>
</defs>
</svg>
