<svg width="24" height="25" viewBox="0 0 24 25" fill="none" xmlns="http://www.w3.org/2000/svg">
<path d="M5.765 1.502C2.039 1.502 0.622 1.502 0.622 1.502C0.31 1.502 -2.17438e-07 1.127 -2.17438e-07 0.75C-2.17438e-07 0.187 0.314 4.11987e-07 0.622 4.11987e-07C4.343 4.11987e-07 5.765 4.11987e-07 5.765 4.11987e-07C6.073 4.11987e-07 6.382 0.188 6.382 0.75C6.382 1.127 6.072 1.502 5.765 1.502Z" transform="translate(6.87805 12.631)"/>
<path d="M9.753 1.503C7.248 1.503 0.421 1.503 0.421 1.503C0.21 1.503 -2.17438e-07 1.127 -2.17438e-07 0.752C-2.17438e-07 0.189 0.209 6.48499e-08 0.421 6.48499e-08C2.926 6.48499e-08 9.753 6.48499e-08 9.753 6.48499e-08C9.963 6.48499e-08 10.173 0.189 10.173 0.752C10.173 1.126 9.963 1.503 9.753 1.503Z" transform="translate(6.87805 5.69501)"/>
<path d="M8.731 6.116C8.731 8.647 4.366 10.696 4.366 10.696C4.366 10.696 5.34058e-08 8.647 5.34058e-08 6.116V0.766L4.366 7.6294e-09L8.731 0.766V6.116Z" transform="translate(15.269 13.38)"/>
<path d="M21.043 1.2219e-09H2.961C1.329 1.2219e-09 0 1.274 0 2.841V19.996C0 21.562 1.329 22.836 2.961 22.836H14.057C14.117 22.838 14.337 22.836 14.393 22.836V21.678C14.344 21.674 14.009 21.649 14.487 21.649H2.961C2.01 21.649 1.238 20.907 1.238 19.997V2.841C1.238 1.929 2.009 1.189 2.961 1.189H21.043C21.99 1.189 22.761 1.93 22.761 2.841V11.79H24V2.841C24 1.274 22.672 1.2219e-09 21.043 1.2219e-09Z"/>
<path d="M9.753 1.503C7.248 1.503 0.421 1.503 0.421 1.503C0.21 1.503 -2.17438e-07 1.127 -2.17438e-07 0.752C-2.17438e-07 0.189 0.209 -4.04358e-07 0.421 -4.04358e-07C2.926 -4.04358e-07 9.753 -4.04358e-07 9.753 -4.04358e-07C9.963 -4.04358e-07 10.173 0.19 10.173 0.752C10.173 1.127 9.963 1.503 9.753 1.503Z" transform="translate(6.87805 9.16199)"/>
</svg>
