<svg width="30" height="33" viewBox="0 0 30 33" fill="none" xmlns="http://www.w3.org/2000/svg">
<path d="M7.628 13.3143V12.2903C7.628 12.0002 7.85444 11.7754 8.15437 11.7754H21.1202C21.4156 11.7754 21.651 12.0002 21.651 12.2903V13.3143C21.651 13.6029 21.4231 13.8277 21.1202 13.8277H8.15287C7.85444 13.8292 7.628 13.5985 7.628 13.3143ZM17.1192 22.0399H8.13637C7.84545 22.0399 7.625 21.8209 7.625 21.5265V20.4923C7.625 20.2109 7.84695 19.9847 8.13637 19.9847H17.1192C17.4086 19.9847 17.629 20.208 17.629 20.4923V21.5265C17.632 21.8194 17.4101 22.0399 17.1192 22.0399ZM7.628 17.4247V16.3935C7.628 16.1048 7.83795 15.88 8.11388 15.88H18.0954C18.3728 15.88 18.5828 16.1048 18.5828 16.3935V17.4247C18.5828 17.7061 18.3698 17.9353 18.0954 17.9353H8.11088C7.83645 17.9353 7.628 17.7075 7.628 17.4247Z" fill="#CACACA"/>
<path d="M18.0655 27.7651C18.064 27.7622 18.0625 27.7593 18.061 27.7564C17.911 27.4141 17.8121 27.0616 17.7626 26.7019C17.7626 26.7019 17.7626 26.7019 17.7626 26.699H5.71004V25.4415V25.2327V2.05232H18.3414V8.73143C18.3414 9.58137 19.0567 10.2718 19.928 10.2718H26.7708V17.7863L28.8883 18.2736V8.73288C28.8853 7.88005 28.3649 6.69362 27.7636 6.1004L22.6274 1.0936C22.011 0.496038 20.7963 0 19.928 0H5.18217C4.30939 0 3.60156 0.690393 3.60156 1.53888V25.2341V25.4778V27.2139C3.60156 28.0668 4.30939 28.7557 5.18067 28.7557H18.6309C18.6309 28.7557 18.6309 28.7557 18.6294 28.7528C18.4029 28.4352 18.2155 28.1045 18.0655 27.7651ZM20.4439 2.18431C20.7258 2.28004 21.0078 2.42508 21.1217 2.53531L26.2745 7.55951C26.3914 7.67119 26.5384 7.94531 26.6404 8.21654H20.4544H20.4439V2.18431Z" fill="#CACACA"/>
<path d="M20.4699 31.0142H1.86704V29.8017V29.5957V7.20583H3.68009H4.61886V5.22168H1.39766C0.628345 5.22168 0 5.88887 0 6.71124V29.6044V29.8379V31.5146C0 32.337 0.626845 32.9998 1.39766 32.9998H20.9438C21.5677 32.9998 22.0775 32.5574 22.2545 31.9512C22.253 31.9512 22.253 31.9512 22.2515 31.9512C21.7011 31.6074 20.4699 31.0142 20.4699 31.0142Z" fill="#CACACA"/>
<path d="M29.0004 26.0567C29.0004 29.0764 23.9091 31.5247 23.9091 31.5247C23.9091 31.5247 18.8164 29.0764 18.8164 26.0567V19.6662L23.9091 18.751L29.0004 19.6662V26.0567Z" fill="#CACACA" stroke="#CACACA" stroke-width="0.5" stroke-miterlimit="10"/>
</svg>
