<svg width="35" height="35" viewBox="0 0 35 35" fill="none" xmlns="http://www.w3.org/2000/svg">
<path d="M19.852 30.6523V31.0988H1.80936V29.8828V29.6807V7.22316H3.56781H4.4783V5.2334H1.35556C0.609422 5.2334 0 5.90247 0 6.72717V29.6807V29.9192V31.6006C0 32.4268 0.607967 33.0915 1.35556 33.0915H20.3131C20.8454 33.0915 21.2978 32.7453 21.5159 32.2479L19.852 30.6523Z" fill="#CACACA"/>
<path d="M15.8101 26.7745H5.53862V25.5105V25.2996V2.05667H17.7881V8.75465C17.7881 9.60698 18.4819 10.2993 19.3284 10.2993H25.9651V15.3275L28.0159 17.2897V8.7561C28.0159 7.90085 27.5098 6.71253 26.928 6.11764L21.9465 1.09669C21.3472 0.49744 20.1691 0 19.3284 0H5.0252C4.1787 0 3.49219 0.692343 3.49219 1.54323V25.3054V25.5469V27.2879C3.49219 28.1432 4.1787 28.8355 5.02374 28.8355H17.9569L15.8101 26.7745ZM19.8288 2.18757C20.1036 2.28357 20.3785 2.42902 20.4891 2.53956L25.4808 7.57795C25.5972 7.68995 25.7368 7.96485 25.8357 8.23684H19.8404H19.8288V2.18757Z" fill="#CACACA"/>
<path d="M7.90114 13.8628H15.9589C16.2032 13.8003 16.4563 13.7566 16.7196 13.7508L20.891 13.6432C20.9477 13.5588 20.9899 13.4614 20.9899 13.3479V12.321C20.9899 12.0301 20.7659 11.8047 20.4779 11.8047H7.90114C7.61025 11.8047 7.39062 12.0301 7.39062 12.321V13.3465C7.39062 13.633 7.6117 13.8657 7.90114 13.8628Z" fill="#CACACA"/>
<path d="M13.145 20.0371H7.69797C7.52198 20.0371 7.38672 20.2611 7.38672 20.5491V21.5862C7.38672 21.8785 7.52198 22.101 7.69797 22.101H13.145C13.3209 22.101 13.4562 21.8771 13.4562 21.5862V20.5491C13.4562 20.2611 13.3209 20.0371 13.145 20.0371Z" fill="#CACACA"/>
<path d="M7.68152 17.9824H13.4456L13.4267 17.2304C13.4165 16.7694 13.4936 16.3286 13.655 15.9199H7.68443C7.51716 15.9199 7.39062 16.1454 7.39062 16.4348V17.4704C7.39062 17.7555 7.51716 17.9824 7.68152 17.9824Z" fill="#CACACA"/>
<path d="M20.6424 19.3519C20.6657 20.1388 20.0475 20.7832 19.2752 20.8035C18.4971 20.8239 17.8513 20.2101 17.8324 19.429C17.8149 18.645 18.4258 18.0036 19.204 17.9862C19.9763 17.96 20.6264 18.5767 20.6424 19.3519Z" stroke="#CACACA" stroke-width="0.5"/>
<path d="M33.5137 25.0658L24.5571 16.4915C24.2386 16.1875 23.8182 15.9315 23.2902 15.7308C22.7652 15.5257 22.2852 15.4268 21.8503 15.4384L16.767 15.5693C16.3437 15.581 15.9786 15.7424 15.6805 16.0668C15.3794 16.3853 15.2325 16.7606 15.2427 17.1867L15.3721 22.3095C15.3823 22.7473 15.5045 23.2273 15.7299 23.7436C15.9597 24.2658 16.239 24.6731 16.5532 24.9712L25.5112 33.5702C25.8239 33.8655 26.1905 34.0139 26.6253 33.9993C27.0457 33.9877 27.4122 33.8262 27.7249 33.5135L33.5733 27.2984C33.8628 26.9857 34.0082 26.6163 33.9966 26.177C33.982 25.7436 33.8235 25.377 33.5137 25.0658Z" stroke="#CACACA" stroke-width="1.3" stroke-miterlimit="10"/>
<path d="M7.39453 13.3465V12.321C7.39453 12.0301 7.61416 11.8047 7.90505 11.8047H20.4818C20.7683 11.8047 20.9938 12.0301 20.9938 12.321V13.3465C20.9938 13.6344 20.7756 13.8614 20.4818 13.8614H7.90505C7.61561 13.8657 7.39453 13.633 7.39453 13.3465Z" fill="#CACACA"/>
</svg>
