<svg width="725" height="441" viewBox="0 0 725 441" version="1.1" xmlns="http://www.w3.org/2000/svg" xmlns:xlink="http://www.w3.org/1999/xlink" xmlns:figma="http://www.figma.com/figma/ns">
<title>project intro img</title>
<desc>Created using Figma</desc>
<g id="Canvas" transform="translate(14949 -6222)" figma:type="canvas">
<g id="project intro img" figma:type="frame">
<g id="Rectangle 30" figma:type="rounded-rectangle">
<use xlink:href="#path0_fill" transform="translate(-14949 6285)" fill="#1B1951"/>
</g>
<mask id="mask0_alpha" mask-type="alpha">
<path d="M -14924 6222L -14249 6222L -14249 6663L -14924 6663L -14924 6222Z" fill="#FFFFFF"/>
</mask>
<g id="Desktop" mask="url(#mask0_alpha)" figma:type="frame">
<g id="Rectangle 8" figma:type="vector">
<use xlink:href="#path1_fill" transform="translate(-14924 6222)" fill="#1B1951"/>
</g>
<g id="Ellipse 2" figma:type="ellipse">
<use xlink:href="#path2_fill" transform="translate(-14913.6 6232.68)" fill="#C4C4C4"/>
</g>
<g id="Ellipse 2" figma:type="ellipse">
<use xlink:href="#path2_fill" transform="translate(-14894.2 6232.68)" fill="#C4C4C4"/>
</g>
<g id="Ellipse 2" figma:type="ellipse">
<use xlink:href="#path2_fill" transform="translate(-14874.7 6232.68)" fill="#C4C4C4"/>
</g>
<g id="Rectangle 9" figma:type="rounded-rectangle">
<use xlink:href="#path3_fill" transform="translate(-14924 6252)" fill="#FFFFFF"/>
</g>
<g id="Content" figma:type="frame">
<g id="BG" figma:type="rounded-rectangle">
<use xlink:href="#path4_fill" transform="translate(-14809 6340)" fill="#FFFFFF"/>
</g>
<g id="file" figma:type="frame">
<g id="Group" figma:type="frame">
<g id="Rectangle 52" figma:type="rounded-rectangle">
<use xlink:href="#path5_fill" transform="translate(-14721 6381)" fill="#ECECF1"/>
</g>
<g id="Rectangle 52" figma:type="rounded-rectangle">
<use xlink:href="#path6_fill" transform="translate(-14721 6405)" fill="#ECECF1"/>
</g>
<g id="Rectangle 52" figma:type="rounded-rectangle">
<use xlink:href="#path7_fill" transform="translate(-14642 6405)" fill="#ECECF1"/>
</g>
</g>
<g id="Line" figma:type="line">
<use xlink:href="#path8_stroke" transform="translate(-14791.2 6428)" fill="#E0E0E0"/>
</g>
<g id="Rectangle 53" figma:type="rounded-rectangle">
<use xlink:href="#path9_fill" transform="translate(-14774 6384)" fill="#ECECF1"/>
</g>
<g id="Rectangle 53" figma:type="rounded-rectangle">
<use xlink:href="#path10_fill" transform="translate(-14391.2 6384)" fill="#ECECF1"/>
</g>
</g>
<g id="file" figma:type="frame">
<g id="Group" figma:type="frame">
<g id="Rectangle 52" figma:type="rounded-rectangle">
<use xlink:href="#path5_fill" transform="translate(-14721 6441)" fill="#ECECF1"/>
</g>
<g id="Rectangle 52" figma:type="rounded-rectangle">
<use xlink:href="#path6_fill" transform="translate(-14721 6465)" fill="#ECECF1"/>
</g>
</g>
<g id="Line" figma:type="line">
<use xlink:href="#path8_stroke" transform="translate(-14791.2 6488)" fill="#E0E0E0"/>
</g>
<g id="Rectangle 53" figma:type="rounded-rectangle">
<use xlink:href="#path9_fill" transform="translate(-14774 6444)" fill="#ECECF1"/>
</g>
<g id="Me" figma:type="text">
<use xlink:href="#path11_fill" transform="translate(-14391 6448)"/>
</g>
</g>
<g id="file" figma:type="frame">
<g id="Group" figma:type="frame">
<g id="Rectangle 52" figma:type="rounded-rectangle">
<use xlink:href="#path5_fill" transform="translate(-14721 6501)" fill="#ECECF1"/>
</g>
<g id="Rectangle 52" figma:type="rounded-rectangle">
<use xlink:href="#path6_fill" transform="translate(-14721 6525)" fill="#ECECF1"/>
</g>
</g>
<g id="Line" figma:type="line">
<use xlink:href="#path8_stroke" transform="translate(-14791.2 6548)" fill="#E0E0E0"/>
</g>
<g id="Rectangle 53" figma:type="rounded-rectangle">
<use xlink:href="#path9_fill" transform="translate(-14774 6504)" fill="#ECECF1"/>
</g>
<g id="Rectangle 53" figma:type="rounded-rectangle">
<use xlink:href="#path10_fill" transform="translate(-14391.2 6504)" fill="#ECECF1"/>
</g>
</g>
<g id="file" figma:type="frame">
<g id="Group" figma:type="frame">
<g id="Rectangle 52" figma:type="rounded-rectangle">
<use xlink:href="#path5_fill" transform="translate(-14721 6562)" fill="#ECECF1"/>
</g>
<g id="Rectangle 52" figma:type="rounded-rectangle">
<use xlink:href="#path6_fill" transform="translate(-14721 6586)" fill="#ECECF1"/>
</g>
</g>
<g id="Line" figma:type="line">
<use xlink:href="#path8_stroke" transform="translate(-14791.2 6609)" fill="#E0E0E0"/>
</g>
<g id="Rectangle 53" figma:type="rounded-rectangle">
<use xlink:href="#path9_fill" transform="translate(-14774 6565)" fill="#ECECF1"/>
</g>
<g id="Rectangle 53" figma:type="rounded-rectangle">
<use xlink:href="#path10_fill" transform="translate(-14391.2 6565)" fill="#ECECF1"/>
</g>
</g>
<g id="file" figma:type="frame">
<g id="Group" figma:type="frame">
<g id="Rectangle 52" figma:type="rounded-rectangle">
<use xlink:href="#path5_fill" transform="translate(-14721 6622)" fill="#ECECF1"/>
</g>
<g id="Rectangle 52" figma:type="rounded-rectangle">
<use xlink:href="#path6_fill" transform="translate(-14721 6646)" fill="#ECECF1"/>
</g>
</g>
<g id="Rectangle 53" figma:type="rounded-rectangle">
<use xlink:href="#path9_fill" transform="translate(-14774 6625)" fill="#ECECF1"/>
</g>
<g id="Rectangle 53" figma:type="rounded-rectangle">
<use xlink:href="#path10_fill" transform="translate(-14391.2 6625)" fill="#ECECF1"/>
</g>
</g>
<g id="header" figma:type="frame">
<g id="Line 7" figma:type="line">
<use xlink:href="#path8_stroke" transform="translate(-14790.8 6366.99)" fill="#E0E0E0"/>
</g>
<g id="Shared by" figma:type="text">
<use xlink:href="#path12_fill" transform="translate(-14391 6344)"/>
</g>
<g id="File" figma:type="text">
<use xlink:href="#path13_fill" transform="translate(-14721 6344)"/>
</g>
</g>
</g>
<g id="Rectangle 55" figma:type="rounded-rectangle">
<use xlink:href="#path14_fill" transform="translate(-14791 6302)" fill="#D4D4DF"/>
</g>
<g id="Rectangle 57" figma:type="rounded-rectangle">
<use xlink:href="#path15_fill" transform="translate(-14924 6282)" fill="#D4D4DF"/>
</g>
<g id="Rectangle 57" figma:type="rounded-rectangle">
<use xlink:href="#path16_fill" transform="translate(-14924 6252)" fill="#34994C"/>
</g>
<g id="icon\down chevron white" figma:type="vector">
<use xlink:href="#path17_stroke" transform="translate(-14553 6266)" fill="#FFFFFF"/>
</g>
<g id="Rectangle 58" figma:type="rounded-rectangle">
<use xlink:href="#path18_fill" transform="translate(-14924 6335)" fill="#FFFFFF"/>
</g>
<g id="Rectangle 58" figma:type="rounded-rectangle">
<use xlink:href="#path19_fill" transform="translate(-14912 6385)" fill="#FFFFFF"/>
</g>
<g id="Rectangle 58" figma:type="rounded-rectangle">
<use xlink:href="#path19_fill" transform="translate(-14911 6317)" fill="#FFFFFF"/>
</g>
<g id="Files" figma:type="text">
<use xlink:href="#path20_fill" transform="translate(-14912 6344)"/>
</g>
<g id="Rectangle 58" figma:type="rounded-rectangle">
<use xlink:href="#path21_fill" transform="translate(-14626 6262)" fill="#FFFFFF"/>
</g>
<g id="Rectangle 58" figma:type="rounded-rectangle">
<use xlink:href="#path22_fill" transform="translate(-14899 6265)" fill="#FFFFFF"/>
</g>
<g id="Rectangle 58" figma:type="rounded-rectangle">
<use xlink:href="#path19_fill" transform="translate(-14912 6420)" fill="#FFFFFF"/>
</g>
<g id="Rectangle 58" figma:type="rounded-rectangle">
<use xlink:href="#path19_fill" transform="translate(-14912 6456)" fill="#FFFFFF"/>
</g>
<g id="Rectangle 58" figma:type="rounded-rectangle">
<use xlink:href="#path19_fill" transform="translate(-14912 6491)" fill="#FFFFFF"/>
</g>
<g id="Rectangle 60" figma:type="rounded-rectangle">
<use xlink:href="#path23_fill" transform="translate(-14292 6252)" fill="#246330"/>
</g>
</g>
<g id="Vector" figma:type="vector">
<use xlink:href="#path24_stroke" transform="translate(-14912 6296.37)" fill="#FFFFFF"/>
</g>
</g>
</g>
<defs>
<path id="path0_fill" d="M 0 0L 725 0L 725 346L 0 346L 0 0Z"/>
<path id="path1_fill" d="M 0 7.78264C 0 3.48441 3.48441 0 7.78264 0L 667.217 0C 671.516 0 675 3.48441 675 7.78264L 675 30L 0 30L 0 7.78264Z"/>
<path id="path2_fill" d="M 9.08138 4.53906C 9.08138 7.04592 7.04844 9.07812 4.54069 9.07812C 2.03294 9.07812 0 7.04592 0 4.53906C 0 2.03221 2.03294 0 4.54069 0C 7.04844 0 9.08138 2.03221 9.08138 4.53906Z"/>
<path id="path3_fill" d="M 0 0L 675 0L 675 411L 0 411L 0 0Z"/>
<path id="path4_fill" d="M 0 0L 561 0L 561 527L 0 527L 0 0Z"/>
<path id="path5_fill" d="M 0 2C 0 0.895431 0.895431 0 2 0L 211 0C 212.105 0 213 0.895431 213 2L 213 18C 213 19.1046 212.105 20 211 20L 2 20C 0.895431 20 0 19.1046 0 18L 0 2Z"/>
<path id="path6_fill" d="M 0 2C 0 0.895431 0.895431 0 2 0L 70 0C 71.1046 0 72 0.895431 72 2L 72 8C 72 9.10457 71.1046 10 70 10L 2 10C 0.895431 10 0 9.10457 0 8L 0 2Z"/>
<path id="path7_fill" d="M 0 2C 0 0.895431 0.895431 0 2 0L 20 0C 21.1046 0 22 0.895431 22 2L 22 8C 22 9.10457 21.1046 10 20 10L 2 10C 0.895431 10 0 9.10457 0 8L 0 2Z"/>
<path id="path8_stroke" d="M 0 0L 525 0L 525 -1L 0 -1L 0 0Z"/>
<path id="path9_fill" d="M 0 2C 0 0.895431 0.895431 0 2 0L 26 0C 27.1046 0 28 0.895431 28 2L 28 26C 28 27.1046 27.1046 28 26 28L 2 28C 0.895431 28 0 27.1046 0 26L 0 2Z"/>
<path id="path10_fill" d="M 0 14C 0 6.26801 6.26801 0 14 0C 21.732 0 28 6.26801 28 14C 28 21.732 21.732 28 14 28C 6.26801 28 0 21.732 0 14Z"/>
<path id="path11_fill" d="M 10.044 3.402L 10.044 12L 9.024 12L 9.024 5.682C 9.024 5.598 9.026 5.508 9.03 5.412C 9.038 5.316 9.046 5.218 9.054 5.118L 6.102 10.494C 6.01 10.674 5.87 10.764 5.682 10.764L 5.514 10.764C 5.326 10.764 5.186 10.674 5.094 10.494L 2.082 5.094C 2.106 5.306 2.118 5.502 2.118 5.682L 2.118 12L 1.098 12L 1.098 3.402L 1.956 3.402C 2.06 3.402 2.14 3.412 2.196 3.432C 2.252 3.452 2.306 3.508 2.358 3.6L 5.328 8.892C 5.376 8.988 5.422 9.088 5.466 9.192C 5.514 9.296 5.558 9.402 5.598 9.51C 5.638 9.402 5.68 9.296 5.724 9.192C 5.768 9.084 5.816 8.982 5.868 8.886L 8.784 3.6C 8.832 3.508 8.884 3.452 8.94 3.432C 9 3.412 9.082 3.402 9.186 3.402L 10.044 3.402ZM 15.871 8.298C 15.871 8.05 15.835 7.824 15.763 7.62C 15.695 7.412 15.593 7.234 15.457 7.086C 15.325 6.934 15.163 6.818 14.971 6.738C 14.779 6.654 14.561 6.612 14.317 6.612C 13.805 6.612 13.399 6.762 13.099 7.062C 12.803 7.358 12.619 7.77 12.547 8.298L 15.871 8.298ZM 16.735 11.148C 16.603 11.308 16.445 11.448 16.261 11.568C 16.077 11.684 15.879 11.78 15.667 11.856C 15.459 11.932 15.243 11.988 15.019 12.024C 14.795 12.064 14.573 12.084 14.353 12.084C 13.933 12.084 13.545 12.014 13.189 11.874C 12.837 11.73 12.531 11.522 12.271 11.25C 12.015 10.974 11.815 10.634 11.671 10.23C 11.527 9.826 11.455 9.362 11.455 8.838C 11.455 8.414 11.519 8.018 11.647 7.65C 11.779 7.282 11.967 6.964 12.211 6.696C 12.455 6.424 12.753 6.212 13.105 6.06C 13.457 5.904 13.853 5.826 14.293 5.826C 14.657 5.826 14.993 5.888 15.301 6.012C 15.613 6.132 15.881 6.308 16.105 6.54C 16.333 6.768 16.511 7.052 16.639 7.392C 16.767 7.728 16.831 8.112 16.831 8.544C 16.831 8.712 16.813 8.824 16.777 8.88C 16.741 8.936 16.673 8.964 16.573 8.964L 12.511 8.964C 12.523 9.348 12.575 9.682 12.667 9.966C 12.763 10.25 12.895 10.488 13.063 10.68C 13.231 10.868 13.431 11.01 13.663 11.106C 13.895 11.198 14.155 11.244 14.443 11.244C 14.711 11.244 14.941 11.214 15.133 11.154C 15.329 11.09 15.497 11.022 15.637 10.95C 15.777 10.878 15.893 10.812 15.985 10.752C 16.081 10.688 16.163 10.656 16.231 10.656C 16.319 10.656 16.387 10.69 16.435 10.758L 16.735 11.148Z"/>
<path id="path12_fill" d="M 5.496 4.746C 5.46 4.806 5.42 4.852 5.376 4.884C 5.336 4.912 5.286 4.926 5.226 4.926C 5.158 4.926 5.078 4.892 4.986 4.824C 4.894 4.756 4.778 4.682 4.638 4.602C 4.502 4.518 4.336 4.442 4.14 4.374C 3.948 4.306 3.714 4.272 3.438 4.272C 3.178 4.272 2.948 4.308 2.748 4.38C 2.552 4.448 2.386 4.542 2.25 4.662C 2.118 4.782 2.018 4.924 1.95 5.088C 1.882 5.248 1.848 5.422 1.848 5.61C 1.848 5.85 1.906 6.05 2.022 6.21C 2.142 6.366 2.298 6.5 2.49 6.612C 2.686 6.724 2.906 6.822 3.15 6.906C 3.398 6.986 3.65 7.07 3.906 7.158C 4.166 7.246 4.418 7.346 4.662 7.458C 4.91 7.566 5.13 7.704 5.322 7.872C 5.518 8.04 5.674 8.246 5.79 8.49C 5.91 8.734 5.97 9.034 5.97 9.39C 5.97 9.766 5.906 10.12 5.778 10.452C 5.65 10.78 5.462 11.066 5.214 11.31C 4.97 11.554 4.668 11.746 4.308 11.886C 3.952 12.026 3.546 12.096 3.09 12.096C 2.53 12.096 2.022 11.996 1.566 11.796C 1.11 11.592 0.72 11.318 0.396 10.974L 0.732 10.422C 0.764 10.378 0.802 10.342 0.846 10.314C 0.894 10.282 0.946 10.266 1.002 10.266C 1.054 10.266 1.112 10.288 1.176 10.332C 1.244 10.372 1.32 10.424 1.404 10.488C 1.488 10.552 1.584 10.622 1.692 10.698C 1.8 10.774 1.922 10.844 2.058 10.908C 2.198 10.972 2.356 11.026 2.532 11.07C 2.708 11.11 2.906 11.13 3.126 11.13C 3.402 11.13 3.648 11.092 3.864 11.016C 4.08 10.94 4.262 10.834 4.41 10.698C 4.562 10.558 4.678 10.392 4.758 10.2C 4.838 10.008 4.878 9.794 4.878 9.558C 4.878 9.298 4.818 9.086 4.698 8.922C 4.582 8.754 4.428 8.614 4.236 8.502C 4.044 8.39 3.824 8.296 3.576 8.22C 3.328 8.14 3.076 8.06 2.82 7.98C 2.564 7.896 2.312 7.8 2.064 7.692C 1.816 7.584 1.596 7.444 1.404 7.272C 1.212 7.1 1.056 6.886 0.936 6.63C 0.82 6.37 0.762 6.05 0.762 5.67C 0.762 5.366 0.82 5.072 0.936 4.788C 1.056 4.504 1.228 4.252 1.452 4.032C 1.68 3.812 1.958 3.636 2.286 3.504C 2.618 3.372 2.998 3.306 3.426 3.306C 3.906 3.306 4.342 3.382 4.734 3.534C 5.13 3.686 5.478 3.906 5.778 4.194L 5.496 4.746ZM 8.33016 6.732C 8.59016 6.456 8.87816 6.236 9.19416 6.072C 9.51016 5.908 9.87416 5.826 10.2862 5.826C 10.6182 5.826 10.9102 5.882 11.1622 5.994C 11.4182 6.102 11.6302 6.258 11.7982 6.462C 11.9702 6.662 12.1002 6.904 12.1882 7.188C 12.2762 7.472 12.3202 7.786 12.3202 8.13L 12.3202 12L 11.2462 12L 11.2462 8.13C 11.2462 7.67 11.1402 7.314 10.9282 7.062C 10.7202 6.806 10.4022 6.678 9.97416 6.678C 9.65816 6.678 9.36216 6.754 9.08616 6.906C 8.81416 7.058 8.56216 7.264 8.33016 7.524L 8.33016 12L 7.25616 12L 7.25616 3.162L 8.33016 3.162L 8.33016 6.732ZM 17.2416 9.264C 16.7496 9.28 16.3296 9.32 15.9816 9.384C 15.6376 9.444 15.3556 9.524 15.1356 9.624C 14.9196 9.724 14.7616 9.842 14.6616 9.978C 14.5656 10.114 14.5176 10.266 14.5176 10.434C 14.5176 10.594 14.5436 10.732 14.5956 10.848C 14.6476 10.964 14.7176 11.06 14.8056 11.136C 14.8976 11.208 15.0036 11.262 15.1236 11.298C 15.2476 11.33 15.3796 11.346 15.5196 11.346C 15.7076 11.346 15.8796 11.328 16.0356 11.292C 16.1916 11.252 16.3376 11.196 16.4736 11.124C 16.6136 11.052 16.7456 10.966 16.8696 10.866C 16.9976 10.766 17.1216 10.652 17.2416 10.524L 17.2416 9.264ZM 13.7916 6.78C 14.1276 6.456 14.4896 6.214 14.8776 6.054C 15.2656 5.894 15.6956 5.814 16.1676 5.814C 16.5076 5.814 16.8096 5.87 17.0736 5.982C 17.3376 6.094 17.5596 6.25 17.7396 6.45C 17.9196 6.65 18.0556 6.892 18.1476 7.176C 18.2396 7.46 18.2856 7.772 18.2856 8.112L 18.2856 12L 17.8116 12C 17.7076 12 17.6276 11.984 17.5716 11.952C 17.5156 11.916 17.4716 11.848 17.4396 11.748L 17.3196 11.172C 17.1596 11.32 17.0036 11.452 16.8516 11.568C 16.6996 11.68 16.5396 11.776 16.3716 11.856C 16.2036 11.932 16.0236 11.99 15.8316 12.03C 15.6436 12.074 15.4336 12.096 15.2016 12.096C 14.9656 12.096 14.7436 12.064 14.5356 12C 14.3276 11.932 14.1456 11.832 13.9896 11.7C 13.8376 11.568 13.7156 11.402 13.6236 11.202C 13.5356 10.998 13.4916 10.758 13.4916 10.482C 13.4916 10.242 13.5576 10.012 13.6896 9.792C 13.8216 9.568 14.0356 9.37 14.3316 9.198C 14.6276 9.026 15.0136 8.886 15.4896 8.778C 15.9656 8.666 16.5496 8.602 17.2416 8.586L 17.2416 8.112C 17.2416 7.64 17.1396 7.284 16.9356 7.044C 16.7316 6.8 16.4336 6.678 16.0416 6.678C 15.7776 6.678 15.5556 6.712 15.3756 6.78C 15.1996 6.844 15.0456 6.918 14.9136 7.002C 14.7856 7.082 14.6736 7.156 14.5776 7.224C 14.4856 7.288 14.3936 7.32 14.3016 7.32C 14.2296 7.32 14.1676 7.302 14.1156 7.266C 14.0636 7.226 14.0196 7.178 13.9836 7.122L 13.7916 6.78ZM 20.9264 7.14C 21.1184 6.724 21.3544 6.4 21.6344 6.168C 21.9144 5.932 22.2564 5.814 22.6604 5.814C 22.7884 5.814 22.9104 5.828 23.0264 5.856C 23.1464 5.884 23.2524 5.928 23.3444 5.988L 23.2664 6.786C 23.2424 6.886 23.1824 6.936 23.0864 6.936C 23.0304 6.936 22.9484 6.924 22.8404 6.9C 22.7324 6.876 22.6104 6.864 22.4744 6.864C 22.2824 6.864 22.1104 6.892 21.9584 6.948C 21.8104 7.004 21.6764 7.088 21.5564 7.2C 21.4404 7.308 21.3344 7.444 21.2384 7.608C 21.1464 7.768 21.0624 7.952 20.9864 8.16L 20.9864 12L 19.9124 12L 19.9124 5.922L 20.5244 5.922C 20.6404 5.922 20.7204 5.944 20.7644 5.988C 20.8084 6.032 20.8384 6.108 20.8544 6.216L 20.9264 7.14ZM 28.1054 8.298C 28.1054 8.05 28.0694 7.824 27.9974 7.62C 27.9294 7.412 27.8274 7.234 27.6914 7.086C 27.5594 6.934 27.3974 6.818 27.2054 6.738C 27.0134 6.654 26.7954 6.612 26.5514 6.612C 26.0394 6.612 25.6334 6.762 25.3334 7.062C 25.0374 7.358 24.8534 7.77 24.7814 8.298L 28.1054 8.298ZM 28.9694 11.148C 28.8374 11.308 28.6794 11.448 28.4954 11.568C 28.3114 11.684 28.1134 11.78 27.9014 11.856C 27.6934 11.932 27.4774 11.988 27.2534 12.024C 27.0294 12.064 26.8074 12.084 26.5874 12.084C 26.1674 12.084 25.7794 12.014 25.4234 11.874C 25.0714 11.73 24.7654 11.522 24.5054 11.25C 24.2494 10.974 24.0494 10.634 23.9054 10.23C 23.7614 9.826 23.6894 9.362 23.6894 8.838C 23.6894 8.414 23.7534 8.018 23.8814 7.65C 24.0134 7.282 24.2014 6.964 24.4454 6.696C 24.6894 6.424 24.9874 6.212 25.3394 6.06C 25.6914 5.904 26.0874 5.826 26.5274 5.826C 26.8914 5.826 27.2274 5.888 27.5354 6.012C 27.8474 6.132 28.1154 6.308 28.3394 6.54C 28.5674 6.768 28.7454 7.052 28.8734 7.392C 29.0014 7.728 29.0654 8.112 29.0654 8.544C 29.0654 8.712 29.0474 8.824 29.0114 8.88C 28.9754 8.936 28.9074 8.964 28.8074 8.964L 24.7454 8.964C 24.7574 9.348 24.8094 9.682 24.9014 9.966C 24.9974 10.25 25.1294 10.488 25.2974 10.68C 25.4654 10.868 25.6654 11.01 25.8974 11.106C 26.1294 11.198 26.3894 11.244 26.6774 11.244C 26.9454 11.244 27.1754 11.214 27.3674 11.154C 27.5634 11.09 27.7314 11.022 27.8714 10.95C 28.0114 10.878 28.1274 10.812 28.2194 10.752C 28.3154 10.688 28.3974 10.656 28.4654 10.656C 28.5534 10.656 28.6214 10.69 28.6694 10.758L 28.9694 11.148ZM 34.3372 7.368C 34.1372 7.1 33.9213 6.914 33.6893 6.81C 33.4573 6.702 33.1973 6.648 32.9093 6.648C 32.3453 6.648 31.9113 6.85 31.6072 7.254C 31.3032 7.658 31.1513 8.234 31.1513 8.982C 31.1513 9.378 31.1852 9.718 31.2533 10.002C 31.3213 10.282 31.4212 10.514 31.5533 10.698C 31.6852 10.878 31.8473 11.01 32.0393 11.094C 32.2312 11.178 32.4493 11.22 32.6933 11.22C 33.0452 11.22 33.3512 11.14 33.6113 10.98C 33.8752 10.82 34.1172 10.594 34.3372 10.302L 34.3372 7.368ZM 35.4052 3.162L 35.4052 12L 34.7693 12C 34.6173 12 34.5212 11.926 34.4812 11.778L 34.3853 11.04C 34.1252 11.352 33.8292 11.604 33.4973 11.796C 33.1652 11.988 32.7813 12.084 32.3453 12.084C 31.9973 12.084 31.6812 12.018 31.3972 11.886C 31.1132 11.75 30.8712 11.552 30.6712 11.292C 30.4712 11.032 30.3172 10.708 30.2092 10.32C 30.1012 9.932 30.0473 9.486 30.0473 8.982C 30.0473 8.534 30.1073 8.118 30.2272 7.734C 30.3473 7.346 30.5193 7.01 30.7433 6.726C 30.9672 6.442 31.2412 6.22 31.5652 6.06C 31.8932 5.896 32.2613 5.814 32.6693 5.814C 33.0412 5.814 33.3593 5.878 33.6232 6.006C 33.8913 6.13 34.1293 6.304 34.3372 6.528L 34.3372 3.162L 35.4052 3.162ZM 41.2364 10.536C 41.4324 10.8 41.6464 10.986 41.8784 11.094C 42.1144 11.202 42.3724 11.256 42.6524 11.256C 43.2244 11.256 43.6624 11.054 43.9664 10.65C 44.2704 10.246 44.4224 9.644 44.4224 8.844C 44.4224 8.1 44.2864 7.554 44.0144 7.206C 43.7464 6.854 43.3624 6.678 42.8624 6.678C 42.5144 6.678 42.2104 6.758 41.9504 6.918C 41.6944 7.078 41.4564 7.304 41.2364 7.596L 41.2364 10.536ZM 41.2364 6.798C 41.4924 6.502 41.7804 6.266 42.1004 6.09C 42.4244 5.914 42.7964 5.826 43.2164 5.826C 43.5724 5.826 43.8924 5.894 44.1764 6.03C 44.4644 6.166 44.7084 6.364 44.9084 6.624C 45.1084 6.88 45.2604 7.192 45.3644 7.56C 45.4724 7.928 45.5264 8.342 45.5264 8.802C 45.5264 9.294 45.4664 9.742 45.3464 10.146C 45.2264 10.55 45.0524 10.896 44.8244 11.184C 44.6004 11.468 44.3264 11.69 44.0024 11.85C 43.6784 12.006 43.3144 12.084 42.9104 12.084C 42.5104 12.084 42.1724 12.01 41.8964 11.862C 41.6244 11.71 41.3864 11.496 41.1824 11.22L 41.1284 11.772C 41.0964 11.924 41.0044 12 40.8524 12L 40.1624 12L 40.1624 3.162L 41.2364 3.162L 41.2364 6.798ZM 51.9689 5.922L 48.5789 13.794C 48.5429 13.874 48.4969 13.938 48.4409 13.986C 48.3889 14.034 48.3069 14.058 48.1949 14.058L 47.4029 14.058L 48.5129 11.646L 46.0049 5.922L 46.9289 5.922C 47.0209 5.922 47.0929 5.946 47.1449 5.994C 47.2009 6.038 47.2389 6.088 47.2589 6.144L 48.8849 9.972C 48.9489 10.14 49.0029 10.316 49.0469 10.5C 49.1029 10.312 49.1629 10.134 49.2269 9.966L 50.8049 6.144C 50.8289 6.08 50.8689 6.028 50.9249 5.988C 50.9849 5.944 51.0509 5.922 51.1229 5.922L 51.9689 5.922Z"/>
<path id="path13_fill" d="M 2.262 4.35L 2.262 7.356L 5.796 7.356L 5.796 8.304L 2.262 8.304L 2.262 12L 1.098 12L 1.098 3.402L 6.396 3.402L 6.396 4.35L 2.262 4.35ZM 8.73572 5.922L 8.73572 12L 7.66772 12L 7.66772 5.922L 8.73572 5.922ZM 8.96372 4.014C 8.96372 4.118 8.94172 4.216 8.89772 4.308C 8.85772 4.396 8.80172 4.476 8.72972 4.548C 8.66172 4.616 8.57972 4.67 8.48372 4.71C 8.39172 4.75 8.29372 4.77 8.18972 4.77C 8.08572 4.77 7.98772 4.75 7.89572 4.71C 7.80772 4.67 7.72972 4.616 7.66172 4.548C 7.59372 4.476 7.53972 4.396 7.49972 4.308C 7.45972 4.216 7.43972 4.118 7.43972 4.014C 7.43972 3.91 7.45972 3.812 7.49972 3.72C 7.53972 3.624 7.59372 3.542 7.66172 3.474C 7.72972 3.402 7.80772 3.346 7.89572 3.306C 7.98772 3.266 8.08572 3.246 8.18972 3.246C 8.29372 3.246 8.39172 3.266 8.48372 3.306C 8.57972 3.346 8.66172 3.402 8.72972 3.474C 8.80172 3.542 8.85772 3.624 8.89772 3.72C 8.94172 3.812 8.96372 3.91 8.96372 4.014ZM 11.5945 3.162L 11.5945 12L 10.5265 12L 10.5265 3.162L 11.5945 3.162ZM 17.3945 8.298C 17.3945 8.05 17.3585 7.824 17.2865 7.62C 17.2185 7.412 17.1165 7.234 16.9805 7.086C 16.8485 6.934 16.6865 6.818 16.4945 6.738C 16.3025 6.654 16.0845 6.612 15.8405 6.612C 15.3285 6.612 14.9225 6.762 14.6225 7.062C 14.3265 7.358 14.1425 7.77 14.0705 8.298L 17.3945 8.298ZM 18.2585 11.148C 18.1265 11.308 17.9685 11.448 17.7845 11.568C 17.6005 11.684 17.4025 11.78 17.1905 11.856C 16.9825 11.932 16.7665 11.988 16.5425 12.024C 16.3185 12.064 16.0965 12.084 15.8765 12.084C 15.4565 12.084 15.0685 12.014 14.7125 11.874C 14.3605 11.73 14.0545 11.522 13.7945 11.25C 13.5385 10.974 13.3385 10.634 13.1945 10.23C 13.0505 9.826 12.9785 9.362 12.9785 8.838C 12.9785 8.414 13.0425 8.018 13.1705 7.65C 13.3025 7.282 13.4905 6.964 13.7345 6.696C 13.9785 6.424 14.2765 6.212 14.6285 6.06C 14.9805 5.904 15.3765 5.826 15.8165 5.826C 16.1805 5.826 16.5165 5.888 16.8245 6.012C 17.1365 6.132 17.4045 6.308 17.6285 6.54C 17.8565 6.768 18.0345 7.052 18.1625 7.392C 18.2905 7.728 18.3545 8.112 18.3545 8.544C 18.3545 8.712 18.3365 8.824 18.3005 8.88C 18.2645 8.936 18.1965 8.964 18.0965 8.964L 14.0345 8.964C 14.0465 9.348 14.0985 9.682 14.1905 9.966C 14.2865 10.25 14.4185 10.488 14.5865 10.68C 14.7545 10.868 14.9545 11.01 15.1865 11.106C 15.4185 11.198 15.6785 11.244 15.9665 11.244C 16.2345 11.244 16.4645 11.214 16.6565 11.154C 16.8525 11.09 17.0205 11.022 17.1605 10.95C 17.3005 10.878 17.4165 10.812 17.5085 10.752C 17.6045 10.688 17.6865 10.656 17.7545 10.656C 17.8425 10.656 17.9105 10.69 17.9585 10.758L 18.2585 11.148Z"/>
<path id="path14_fill" d="M 0 2C 0 0.895431 0.895431 0 2 0L 77 0C 78.1046 0 79 0.895431 79 2L 79 12C 79 13.1046 78.1046 14 77 14L 2 14C 0.895431 14 0 13.1046 0 12L 0 2Z"/>
<path id="path15_fill" d="M 0 0L 115 0L 115 411L 0 411L 0 0Z"/>
<path id="path16_fill" d="M 0 0L 675 0L 675 30L 0 30L 0 0Z"/>
<path id="path17_stroke" d="M 0.707107 -0.707107C 0.316583 -1.09763 -0.316583 -1.09763 -0.707107 -0.707107C -1.09763 -0.316583 -1.09763 0.316583 -0.707107 0.707107L 0.707107 -0.707107ZM 3 3L 2.29289 3.70711C 2.68342 4.09763 3.31658 4.09763 3.70711 3.70711L 3 3ZM 6.70711 0.707107C 7.09763 0.316583 7.09763 -0.316583 6.70711 -0.707107C 6.31658 -1.09763 5.68342 -1.09763 5.29289 -0.707107L 6.70711 0.707107ZM -0.707107 0.707107L 2.29289 3.70711L 3.70711 2.29289L 0.707107 -0.707107L -0.707107 0.707107ZM 3.70711 3.70711L 6.70711 0.707107L 5.29289 -0.707107L 2.29289 2.29289L 3.70711 3.70711Z"/>
<path id="path18_fill" d="M 0 0L 115 0L 115 31L 0 31L 0 0Z"/>
<path id="path19_fill" d="M 0 0L 43 0L 43 5L 0 5L 0 0Z"/>
<path id="path20_fill" d="M 2.262 4.35L 2.262 7.356L 5.796 7.356L 5.796 8.304L 2.262 8.304L 2.262 12L 1.098 12L 1.098 3.402L 6.396 3.402L 6.396 4.35L 2.262 4.35ZM 8.73572 5.922L 8.73572 12L 7.66772 12L 7.66772 5.922L 8.73572 5.922ZM 8.96372 4.014C 8.96372 4.118 8.94172 4.216 8.89772 4.308C 8.85772 4.396 8.80172 4.476 8.72972 4.548C 8.66172 4.616 8.57972 4.67 8.48372 4.71C 8.39172 4.75 8.29372 4.77 8.18972 4.77C 8.08572 4.77 7.98772 4.75 7.89572 4.71C 7.80772 4.67 7.72972 4.616 7.66172 4.548C 7.59372 4.476 7.53972 4.396 7.49972 4.308C 7.45972 4.216 7.43972 4.118 7.43972 4.014C 7.43972 3.91 7.45972 3.812 7.49972 3.72C 7.53972 3.624 7.59372 3.542 7.66172 3.474C 7.72972 3.402 7.80772 3.346 7.89572 3.306C 7.98772 3.266 8.08572 3.246 8.18972 3.246C 8.29372 3.246 8.39172 3.266 8.48372 3.306C 8.57972 3.346 8.66172 3.402 8.72972 3.474C 8.80172 3.542 8.85772 3.624 8.89772 3.72C 8.94172 3.812 8.96372 3.91 8.96372 4.014ZM 11.5945 3.162L 11.5945 12L 10.5265 12L 10.5265 3.162L 11.5945 3.162ZM 17.3945 8.298C 17.3945 8.05 17.3585 7.824 17.2865 7.62C 17.2185 7.412 17.1165 7.234 16.9805 7.086C 16.8485 6.934 16.6865 6.818 16.4945 6.738C 16.3025 6.654 16.0845 6.612 15.8405 6.612C 15.3285 6.612 14.9225 6.762 14.6225 7.062C 14.3265 7.358 14.1425 7.77 14.0705 8.298L 17.3945 8.298ZM 18.2585 11.148C 18.1265 11.308 17.9685 11.448 17.7845 11.568C 17.6005 11.684 17.4025 11.78 17.1905 11.856C 16.9825 11.932 16.7665 11.988 16.5425 12.024C 16.3185 12.064 16.0965 12.084 15.8765 12.084C 15.4565 12.084 15.0685 12.014 14.7125 11.874C 14.3605 11.73 14.0545 11.522 13.7945 11.25C 13.5385 10.974 13.3385 10.634 13.1945 10.23C 13.0505 9.826 12.9785 9.362 12.9785 8.838C 12.9785 8.414 13.0425 8.018 13.1705 7.65C 13.3025 7.282 13.4905 6.964 13.7345 6.696C 13.9785 6.424 14.2765 6.212 14.6285 6.06C 14.9805 5.904 15.3765 5.826 15.8165 5.826C 16.1805 5.826 16.5165 5.888 16.8245 6.012C 17.1365 6.132 17.4045 6.308 17.6285 6.54C 17.8565 6.768 18.0345 7.052 18.1625 7.392C 18.2905 7.728 18.3545 8.112 18.3545 8.544C 18.3545 8.712 18.3365 8.824 18.3005 8.88C 18.2645 8.936 18.1965 8.964 18.0965 8.964L 14.0345 8.964C 14.0465 9.348 14.0985 9.682 14.1905 9.966C 14.2865 10.25 14.4185 10.488 14.5865 10.68C 14.7545 10.868 14.9545 11.01 15.1865 11.106C 15.4185 11.198 15.6785 11.244 15.9665 11.244C 16.2345 11.244 16.4645 11.214 16.6565 11.154C 16.8525 11.09 17.0205 11.022 17.1605 10.95C 17.3005 10.878 17.4165 10.812 17.5085 10.752C 17.6045 10.688 17.6865 10.656 17.7545 10.656C 17.8425 10.656 17.9105 10.69 17.9585 10.758L 18.2585 11.148ZM 23.2063 6.924C 23.1583 7.012 23.0843 7.056 22.9843 7.056C 22.9243 7.056 22.8563 7.034 22.7803 6.99C 22.7043 6.946 22.6103 6.898 22.4983 6.846C 22.3903 6.79 22.2603 6.74 22.1083 6.696C 21.9563 6.648 21.7763 6.624 21.5683 6.624C 21.3883 6.624 21.2263 6.648 21.0823 6.696C 20.9383 6.74 20.8143 6.802 20.7103 6.882C 20.6103 6.962 20.5323 7.056 20.4763 7.164C 20.4243 7.268 20.3983 7.382 20.3983 7.506C 20.3983 7.662 20.4423 7.792 20.5303 7.896C 20.6223 8 20.7423 8.09 20.8903 8.166C 21.0383 8.242 21.2063 8.31 21.3943 8.37C 21.5823 8.426 21.7743 8.488 21.9703 8.556C 22.1703 8.62 22.3643 8.692 22.5523 8.772C 22.7403 8.852 22.9083 8.952 23.0563 9.072C 23.2043 9.192 23.3223 9.34 23.4103 9.516C 23.5023 9.688 23.5483 9.896 23.5483 10.14C 23.5483 10.42 23.4983 10.68 23.3983 10.92C 23.2983 11.156 23.1503 11.362 22.9543 11.538C 22.7583 11.71 22.5183 11.846 22.2343 11.946C 21.9503 12.046 21.6223 12.096 21.2503 12.096C 20.8263 12.096 20.4423 12.028 20.0983 11.892C 19.7543 11.752 19.4623 11.574 19.2223 11.358L 19.4743 10.95C 19.5063 10.898 19.5443 10.858 19.5883 10.83C 19.6323 10.802 19.6883 10.788 19.7563 10.788C 19.8283 10.788 19.9043 10.816 19.9843 10.872C 20.0643 10.928 20.1603 10.99 20.2723 11.058C 20.3883 11.126 20.5283 11.188 20.6923 11.244C 20.8563 11.3 21.0603 11.328 21.3043 11.328C 21.5123 11.328 21.6943 11.302 21.8503 11.25C 22.0063 11.194 22.1363 11.12 22.2403 11.028C 22.3443 10.936 22.4203 10.83 22.4683 10.71C 22.5203 10.59 22.5463 10.462 22.5463 10.326C 22.5463 10.158 22.5003 10.02 22.4083 9.912C 22.3203 9.8 22.2023 9.706 22.0543 9.63C 21.9063 9.55 21.7363 9.482 21.5443 9.426C 21.3563 9.366 21.1623 9.304 20.9623 9.24C 20.7663 9.176 20.5723 9.104 20.3803 9.024C 20.1923 8.94 20.0243 8.836 19.8763 8.712C 19.7283 8.588 19.6083 8.436 19.5163 8.256C 19.4283 8.072 19.3843 7.85 19.3843 7.59C 19.3843 7.358 19.4323 7.136 19.5283 6.924C 19.6243 6.708 19.7643 6.52 19.9483 6.36C 20.1323 6.196 20.3583 6.066 20.6263 5.97C 20.8943 5.874 21.2003 5.826 21.5443 5.826C 21.9443 5.826 22.3023 5.89 22.6183 6.018C 22.9383 6.142 23.2143 6.314 23.4463 6.534L 23.2063 6.924Z"/>
<path id="path21_fill" d="M 0 0L 64 0L 64 10L 0 10L 0 0Z"/>
<path id="path22_fill" d="M 0 0L 26 0L 26 4L 0 4L 0 0Z"/>
<path id="path23_fill" d="M 0 0L 30 0L 30 30L 0 30L 0 0Z"/>
<path id="path24_stroke" d="M 2.46884 7.54151C 2.84561 7.94532 3.47839 7.96724 3.8822 7.59047C 4.28601 7.2137 4.30793 6.58091 3.93116 6.1771L 2.46884 7.54151ZM 0 3.42965L -0.731163 2.74745C -1.08961 3.13162 -1.08961 3.72768 -0.731163 4.11186L 0 3.42965ZM 3.93116 0.682203C 4.30793 0.278393 4.28601 -0.354392 3.8822 -0.731163C 3.47839 -1.10793 2.84561 -1.08601 2.46884 -0.682203L 3.93116 0.682203ZM 6 4.42965C 6.55228 4.42965 7 3.98194 7 3.42965C 7 2.87737 6.55228 2.42965 6 2.42965L 6 4.42965ZM 3.93116 6.1771L 0.731163 2.74745L -0.731163 4.11186L 2.46884 7.54151L 3.93116 6.1771ZM 0.731163 4.11186L 3.93116 0.682203L 2.46884 -0.682203L -0.731163 2.74745L 0.731163 4.11186ZM 0 4.42965L 6 4.42965L 6 2.42965L 0 2.42965L 0 4.42965Z"/>
</defs>
</svg>
