<svg width="29" height="23" viewBox="0 0 29 23" fill="none" xmlns="http://www.w3.org/2000/svg">
<path d="M26.1792 18.0686H23.2652C23.0527 18.0686 22.8784 17.8971 22.8784 17.6816C22.8784 17.4689 23.0527 17.2931 23.2652 17.2931H26.1324C26.4159 17.2222 28.1109 16.7246 28.0741 15.1566C28.0571 14.4435 27.8275 13.894 27.3938 13.5247C26.4641 12.7372 24.8937 12.9449 24.8795 12.9477C24.7732 12.9604 24.6712 12.9349 24.589 12.8704C24.5068 12.8087 24.4544 12.7138 24.4403 12.6088C24.426 12.5011 24.0859 9.90444 21.9033 9.70665C19.7547 9.51173 19.1991 11.9574 19.1793 12.0594C19.134 12.2699 18.9284 12.4012 18.7201 12.3572C18.5132 12.3111 18.3799 12.1063 18.4225 11.8957C18.6634 10.7821 19.7122 8.72916 21.9741 8.93195C24.0009 9.11689 24.8909 10.9487 25.146 12.1495C25.7639 12.124 27.0097 12.1828 27.8955 12.9321C28.5021 13.4503 28.8224 14.1947 28.8465 15.1339C28.8933 16.9883 27.1741 17.856 26.2614 18.0559C26.233 18.0658 26.2047 18.0686 26.1792 18.0686Z" fill="#4F4F4F"/>
<path d="M14.4055 14.7727H12.8904C12.6778 14.7727 12.5063 14.6005 12.5063 14.3878C12.5063 14.1723 12.6778 14 12.8904 14H14.4055C14.6195 14 14.7939 14.1723 14.7939 14.3878C14.7939 14.5983 14.6195 14.7727 14.4055 14.7727Z" fill="#4F4F4F"/>
<path d="M15.1875 20.8566H13.6682C13.4556 20.8566 13.2827 20.6851 13.2827 20.4696C13.2827 20.257 13.4556 20.084 13.6682 20.084H15.1875C15.4001 20.084 15.5731 20.257 15.5731 20.4696C15.5731 20.6851 15.4001 20.8566 15.1875 20.8566Z" fill="#4F4F4F"/>
<path d="M25.094 20.8566H22.7058C22.4933 20.8566 22.3218 20.6851 22.3218 20.4696C22.3218 20.257 22.4932 20.084 22.7058 20.084H25.094C25.3094 20.084 25.4837 20.257 25.4837 20.4696C25.4837 20.6851 25.3094 20.8566 25.094 20.8566Z" fill="#4F4F4F"/>
<path d="M14.4053 18.0754H11.0818C10.8663 18.0754 10.6948 17.901 10.6948 17.6912C10.6948 17.4757 10.8663 17.3027 11.0818 17.3027H14.4053C14.6193 17.3027 14.7936 17.4757 14.7936 17.6912C14.7936 17.901 14.6193 18.0754 14.4053 18.0754Z" fill="#4F4F4F"/>
<path d="M22.4807 18.4516C22.4807 20.8986 18.8893 22.8849 18.8893 22.8849C18.8893 22.8849 15.3008 20.8987 15.3008 18.4516V13.4922L18.8893 12.8535L22.4807 13.4922V18.4516Z" fill="#4F4F4F"/>
<path d="M18.3693 18.3076C18.2942 18.3076 18.2205 18.2764 18.1666 18.2225L17.1207 17.1762C17.0073 17.0657 17.0073 16.8813 17.1207 16.7679C17.2313 16.6545 17.4155 16.6545 17.5289 16.7679L18.3693 17.6101L20.2543 15.723C20.3649 15.6132 20.5505 15.6132 20.6597 15.723C20.773 15.8365 20.773 16.0193 20.6597 16.1285L18.572 18.2225C18.5181 18.2793 18.4472 18.3076 18.3693 18.3076Z" fill="white"/>
<path d="M28.5234 9.72424C28.5248 9.70161 28.5258 9.67884 28.5258 9.65587C28.5258 9.63289 28.5248 9.61012 28.5234 9.5875V4.88369C28.5234 3.83141 27.6467 3.48065 26.9453 3.48065H13.2682L10.8133 0.849956L10.638 0.674576C10.4626 0.499197 10.2763 0.389585 10.1119 0.323817C9.58587 0.148438 9.05982 0.148438 8.88447 0.148438H8.35843H8.00773H2.57195C2.3966 0.148438 1.87056 0.148438 1.51986 0.323817C1.16917 0.499197 0.993817 0.674576 0.818469 0.849956C0.643121 1.02534 0.467773 1.3761 0.467773 1.90223V20.8432C0.467773 22.0709 1.34451 22.9478 2.3966 22.9478H10.0184C10.0267 22.948 10.0349 22.9484 10.0433 22.9484C10.6459 22.9484 11.1343 22.4379 11.1343 21.8081C11.1343 21.1784 10.6458 20.6679 10.0433 20.6679L2.57195 20.6678V2.42834H8.00773H8.70913H9.41052L11.8654 5.23442L12.2161 5.58518H26.4193V9.62415C26.4203 9.6207 26.4216 9.61734 26.4227 9.61389C26.4221 9.62784 26.4216 9.64178 26.4216 9.65584C26.4216 10.2463 26.8927 10.7248 27.4737 10.7248C28.0287 10.7248 28.483 10.2881 28.5227 9.73447L28.5234 9.73786V9.72424Z" fill="#4F4F4F"/>
</svg>
