<svg width="32" height="32" viewBox="0 0 32 32" xmlns="http://www.w3.org/2000/svg">
<path d="M16.0003 6.99941C13.6486 6.99941 11.7291 8.91892 11.7291 11.2706C11.7291 13.6223 13.6486 15.5418 16.0003 15.5418C18.352 15.5418 20.2715 13.6223 20.2715 11.2706C20.2715 8.91892 18.352 6.99941 16.0003 6.99941ZM16.0003 8.21975C17.6925 8.21975 19.0511 9.57844 19.0511 11.2706C19.0511 12.9628 17.6925 14.3214 16.0003 14.3214C14.3081 14.3214 12.9494 12.9628 12.9494 11.2706C12.9494 9.57844 14.3081 8.21975 16.0003 8.21975ZM7.763 9.74518C6.25392 9.74518 5.01724 10.9821 5.01724 12.4909C5.01724 13.9998 6.2539 15.2367 7.763 15.2367C9.2721 15.2367 10.5088 13.9998 10.5088 12.4909C10.5088 10.9821 9.27209 9.74518 7.763 9.74518ZM24.2376 9.74518C22.7285 9.74518 21.4918 10.9821 21.4918 12.4909C21.4918 13.9998 22.7285 15.2367 24.2376 15.2367C25.7467 15.2367 26.9833 13.9998 26.9833 12.4909C26.9833 10.9821 25.7467 9.74518 24.2376 9.74518ZM7.763 10.9655C8.61283 10.9655 9.28843 11.6418 9.28843 12.4909C9.28843 13.34 8.61281 14.0164 7.763 14.0164C6.91319 14.0164 6.23758 13.34 6.23758 12.4909C6.23758 11.6418 6.91318 10.9655 7.763 10.9655ZM24.2376 10.9655C25.0874 10.9655 25.763 11.6418 25.763 12.4909C25.763 13.34 25.0874 14.0164 24.2376 14.0164C23.3878 14.0164 22.7122 13.34 22.7122 12.4909C22.7122 11.6418 23.3878 10.9655 24.2376 10.9655ZM7.763 16.152C4.90584 16.152 2.57656 18.4812 2.57656 21.3384C2.57658 21.5002 2.64087 21.6554 2.75529 21.7698C2.86972 21.8843 3.02491 21.9486 3.18673 21.9486H8.44944C8.19961 22.7185 8.06809 23.5372 8.06809 24.3892C8.0681 24.5511 8.13239 24.7063 8.24682 24.8207C8.36125 24.9351 8.51643 24.9994 8.67826 24.9994H23.3223C23.4841 24.9994 23.6393 24.9351 23.7538 24.8207C23.8682 24.7063 23.9325 24.5511 23.9325 24.3892C23.9325 23.5372 23.801 22.7185 23.5511 21.9486H28.8139C28.9757 21.9486 29.1309 21.8843 29.2453 21.7698C29.3597 21.6554 29.424 21.5002 29.424 21.3384C29.424 18.4812 27.0947 16.152 24.2376 16.152C22.7378 16.152 21.3885 16.8009 20.4431 17.8204C20.4416 17.822 20.435 17.8188 20.4336 17.8204C19.1674 16.9642 17.6404 16.457 16.0003 16.457C14.3602 16.457 12.8332 16.9642 11.567 17.8204C10.6209 16.7967 9.26661 16.152 7.763 16.152ZM7.763 17.3723C8.88285 17.3723 9.87545 17.8447 10.5946 18.5926C9.9389 19.2042 9.39314 19.9271 8.97381 20.7282H3.8541C4.14785 18.8248 5.77462 17.3723 7.763 17.3723ZM24.2376 17.3723C26.226 17.3723 27.8527 18.8248 28.1465 20.7282H23.0268C22.6063 19.925 22.0544 19.2052 21.3965 18.5926C22.1163 17.8411 23.1129 17.3723 24.2376 17.3723ZM16.0003 17.6774C19.5067 17.6774 22.3452 20.355 22.655 23.7791H9.34563C9.65543 20.355 12.4939 17.6774 16.0003 17.6774Z"/>
<path fill-rule="evenodd" clip-rule="evenodd" d="M11.6291 11.2706C11.6291 8.86369 13.5934 6.89941 16.0003 6.89941C18.4072 6.89941 20.3715 8.86369 20.3715 11.2706C20.3715 13.6775 18.4072 15.6418 16.0003 15.6418C13.5934 15.6418 11.6291 13.6775 11.6291 11.2706ZM18.9511 11.2706C18.9511 9.63367 17.6372 8.31975 16.0003 8.31975C14.3634 8.31975 13.0494 9.63367 13.0494 11.2706C13.0494 12.9075 14.3634 14.2214 16.0003 14.2214C17.6372 14.2214 18.9511 12.9075 18.9511 11.2706ZM4.91724 12.4909C4.91724 10.9268 6.19868 9.64518 7.763 9.64518C9.32732 9.64518 10.6088 10.9268 10.6088 12.4909C10.6088 14.055 9.32734 15.3367 7.763 15.3367C6.19867 15.3367 4.91724 14.055 4.91724 12.4909ZM21.3918 12.4909C21.3918 10.9268 22.6733 9.64518 24.2376 9.64518C25.8019 9.64518 27.0833 10.9268 27.0833 12.4909C27.0833 14.055 25.8019 15.3367 24.2376 15.3367C22.6732 15.3367 21.3918 14.055 21.3918 12.4909ZM9.18843 12.4909C9.18843 11.697 8.55757 11.0655 7.763 11.0655C6.96844 11.0655 6.33758 11.697 6.33758 12.4909C6.33758 13.2848 6.96845 13.9164 7.763 13.9164C8.55756 13.9164 9.18843 13.2848 9.18843 12.4909ZM25.663 12.4909C25.663 11.697 25.0321 11.0655 24.2376 11.0655C23.443 11.0655 22.8122 11.697 22.8122 12.4909C22.8122 13.2848 23.443 13.9164 24.2376 13.9164C25.0321 13.9164 25.663 13.2848 25.663 12.4909ZM2.47656 21.3384C2.47656 18.426 4.85062 16.052 7.763 16.052C9.26505 16.052 10.6208 16.6832 11.5819 17.6902C12.8498 16.852 14.3698 16.357 16.0003 16.357C17.6334 16.357 19.1556 16.8536 20.4246 17.6941C21.3848 16.6891 22.7371 16.052 24.2376 16.052C27.15 16.052 29.524 18.426 29.524 21.3384C29.524 21.5267 29.4492 21.7074 29.316 21.8405C29.1828 21.9737 29.0022 22.0485 28.8139 22.0486H23.6875C23.9138 22.7902 24.0325 23.5749 24.0325 24.3893C24.0325 24.5776 23.9576 24.7582 23.8245 24.8914C23.6913 25.0246 23.5107 25.0994 23.3223 25.0994H8.67825C8.48991 25.0994 8.30929 25.0246 8.17611 24.8914C8.04293 24.7582 7.96811 24.5776 7.96809 24.3892C7.96809 23.5749 8.08679 22.7902 8.31313 22.0486H3.18672C2.99838 22.0485 2.81776 21.9737 2.68458 21.8405C2.55141 21.7074 2.47658 21.5267 2.47656 21.3384ZM3.18673 21.9486C3.02491 21.9486 2.86972 21.8843 2.75529 21.7698C2.64087 21.6554 2.57658 21.5002 2.57656 21.3384C2.57656 18.4812 4.90584 16.152 7.763 16.152C9.26661 16.152 10.6209 16.7967 11.567 17.8204C12.8332 16.9642 14.3602 16.457 16.0003 16.457C17.6404 16.457 19.1674 16.9642 20.4336 17.8204C20.4343 17.8196 20.4363 17.82 20.4383 17.8204C20.4403 17.8208 20.4424 17.8212 20.4431 17.8204C21.3885 16.8009 22.7378 16.152 24.2376 16.152C27.0947 16.152 29.424 18.4812 29.424 21.3384C29.424 21.5002 29.3597 21.6554 29.2453 21.7698C29.1309 21.8843 28.9757 21.9486 28.8139 21.9486H23.5511C23.5619 21.9818 23.5725 22.0151 23.5828 22.0486C23.8121 22.7892 23.9325 23.574 23.9325 24.3892C23.9325 24.5511 23.8682 24.7063 23.7538 24.8207C23.6393 24.9351 23.4841 24.9994 23.3223 24.9994H8.67826C8.51643 24.9994 8.36125 24.9351 8.24682 24.8207C8.13239 24.7063 8.0681 24.5511 8.06809 24.3892C8.06809 23.574 8.18849 22.7892 8.41774 22.0486C8.42809 22.0151 8.43866 21.9818 8.44944 21.9486H3.18673ZM10.4517 18.5901C9.75636 17.9021 8.81738 17.4723 7.763 17.4723C5.8654 17.4723 4.30546 18.8294 3.97249 20.6282H8.91353C9.31785 19.8692 9.83515 19.1805 10.4517 18.5901ZM10.5244 18.5214C9.8115 17.8148 8.84685 17.3723 7.763 17.3723C5.80959 17.3723 4.20518 18.7741 3.87083 20.6282C3.86485 20.6614 3.85927 20.6948 3.8541 20.7282H8.97381C9.37754 19.9569 9.89849 19.258 10.5219 18.6613C10.546 18.6383 10.5702 18.6154 10.5946 18.5926C10.5715 18.5686 10.548 18.5448 10.5244 18.5214ZM28.0281 20.6282C27.6951 18.8294 26.1352 17.4723 24.2376 17.4723C23.178 17.4723 22.2352 17.899 21.5393 18.5899C22.1581 19.1807 22.6812 19.8669 23.087 20.6282H28.0281ZM28.1297 20.6282C27.7954 18.7741 26.191 17.3723 24.2376 17.3723C23.1489 17.3723 22.1803 17.8115 21.4665 18.5212C21.4429 18.5447 21.4195 18.5686 21.3965 18.5926C21.3965 18.5926 21.3965 18.5926 21.3965 18.5926C21.4209 18.6154 21.4451 18.6382 21.4692 18.6612C22.0952 19.2587 22.6219 19.9548 23.0268 20.7282H28.1465C28.1413 20.6948 28.1357 20.6614 28.1297 20.6282ZM22.6452 23.6791C22.6487 23.7123 22.6519 23.7457 22.655 23.7791H9.34563C9.34865 23.7457 9.35192 23.7123 9.35542 23.6791C9.71087 20.3031 12.5281 17.6774 16.0003 17.6774C19.4725 17.6774 22.2897 20.3031 22.6452 23.6791ZM9.45598 23.6791C9.81091 20.3579 12.584 17.7774 16.0003 17.7774C19.4166 17.7774 22.1897 20.3579 22.5446 23.6791H9.45598ZM11.7291 11.2706C11.7291 8.91892 13.6486 6.99941 16.0003 6.99941C18.352 6.99941 20.2715 8.91892 20.2715 11.2706C20.2715 13.6223 18.352 15.5418 16.0003 15.5418C13.6486 15.5418 11.7291 13.6223 11.7291 11.2706ZM19.0511 11.2706C19.0511 9.57844 17.6925 8.21975 16.0003 8.21975C14.3081 8.21975 12.9494 9.57844 12.9494 11.2706C12.9494 12.9628 14.3081 14.3214 16.0003 14.3214C17.6925 14.3214 19.0511 12.9628 19.0511 11.2706ZM5.01724 12.4909C5.01724 10.9821 6.25392 9.74518 7.763 9.74518C9.27209 9.74518 10.5088 10.9821 10.5088 12.4909C10.5088 13.9998 9.2721 15.2367 7.763 15.2367C6.2539 15.2367 5.01724 13.9998 5.01724 12.4909ZM21.4918 12.4909C21.4918 10.9821 22.7285 9.74518 24.2376 9.74518C25.7467 9.74518 26.9833 10.9821 26.9833 12.4909C26.9833 13.9998 25.7467 15.2367 24.2376 15.2367C22.7285 15.2367 21.4918 13.9998 21.4918 12.4909ZM9.28843 12.4909C9.28843 11.6418 8.61283 10.9655 7.763 10.9655C6.91318 10.9655 6.23758 11.6418 6.23758 12.4909C6.23758 13.34 6.91319 14.0164 7.763 14.0164C8.61281 14.0164 9.28843 13.34 9.28843 12.4909ZM25.763 12.4909C25.763 11.6418 25.0874 10.9655 24.2376 10.9655C23.3878 10.9655 22.7122 11.6418 22.7122 12.4909C22.7122 13.34 23.3878 14.0164 24.2376 14.0164C25.0874 14.0164 25.763 13.34 25.763 12.4909Z"/>
</svg>
