<svg width="32" height="32" viewBox="0 0 32 32" xmlns="http://www.w3.org/2000/svg">
<path d="M15.9785 7C18.5071 7 20.5214 9.01429 20.5214 11.5429C20.5214 14.0286 18.5071 16.0857 15.9785 16.0857C13.4928 16.0857 11.4785 14.0286 11.4785 11.5429C11.4785 9.01429 13.4928 7 15.9785 7ZM15.9785 8.32857C14.2214 8.32857 12.8071 9.78571 12.8071 11.5429C12.8071 13.3 14.2214 14.7571 15.9785 14.7571C17.7785 14.7571 19.1928 13.3 19.1928 11.5429C19.1928 9.78571 17.7785 8.32857 15.9785 8.32857Z"/>
<path d="M12.4637 16.5996H19.5351C21.8494 16.5996 23.7351 18.4853 23.7351 20.7996V23.5853C23.7351 24.3568 23.0922 24.9996 22.3637 24.9996H9.6351C8.86367 24.9996 8.26367 24.3568 8.26367 23.5853V20.7996C8.26367 18.4853 10.1494 16.5996 12.4637 16.5996ZM19.5351 17.9282H12.4637C10.878 17.9282 9.59224 19.2139 9.59224 20.7996V23.5853C9.59224 23.6282 9.6351 23.6282 9.6351 23.6282H22.3637C22.3637 23.6282 22.4065 23.6282 22.4065 23.5853V20.7996C22.4065 19.2139 21.1208 17.9282 19.5351 17.9282Z"/>
</svg>
