<svg width="32" height="32" viewBox="0 0 32 32" xmlns="http://www.w3.org/2000/svg">
<path d="M24.0748 10.34H19.9877V8.93898C19.9877 7.86269 19.1248 6.9998 18.0531 6.9998H13.9474C12.8712 6.9998 12.0129 7.86269 12.0129 8.93898V10.34H7.92116C6.84487 10.34 5.97734 11.1936 5.97734 12.2653V23.0606C5.97734 24.1369 6.84487 24.9998 7.92116 24.9998H24.0794C25.1557 24.9998 26.0232 24.1369 26.0232 23.0606V12.2653C26.0186 11.1936 25.1511 10.34 24.0748 10.34ZM13.1217 8.93898C13.1217 8.4797 13.4835 8.11321 13.9428 8.11321H18.0485C18.5078 8.11321 18.8696 8.4797 18.8696 8.93898V10.34H13.1217V8.93898ZM24.9052 23.0977C24.9052 23.557 24.5294 23.9328 24.0701 23.9328H7.9258C7.46652 23.9328 7.09075 23.557 7.09075 23.0977V12.2885C7.09075 11.8292 7.46652 11.4534 7.9258 11.4534H24.0701C24.5294 11.4534 24.9052 11.8292 24.9052 12.2885V23.0977Z"/>
<path fill-rule="evenodd" clip-rule="evenodd" d="M26.0232 12.2653V23.0606C26.0232 24.1369 25.1557 24.9998 24.0794 24.9998H7.92116C6.84487 24.9998 5.97734 24.1369 5.97734 23.0606V12.2653C5.97734 11.1936 6.84487 10.34 7.92116 10.34H12.0129V8.93898C12.0129 7.86269 12.8712 6.9998 13.9474 6.9998H18.0531C19.1248 6.9998 19.9877 7.86269 19.9877 8.93898V10.34H24.0748C25.1511 10.34 26.0186 11.1936 26.0232 12.2653ZM20.1877 10.14H24.0748C25.2595 10.14 26.2181 11.081 26.2232 12.2644L26.2232 23.0606C26.2232 24.248 25.2655 25.1998 24.0794 25.1998H7.92116C6.73504 25.1998 5.77734 24.248 5.77734 23.0606V12.2653C5.77734 11.081 6.73661 10.14 7.92116 10.14H11.8129V8.93898C11.8129 7.75286 12.7601 6.7998 13.9474 6.7998H18.0531C19.2355 6.7998 20.1877 7.75255 20.1877 8.93898V10.14ZM13.9428 8.31321C13.5955 8.31321 13.3217 8.58868 13.3217 8.93898V10.14H18.6696V8.93898C18.6696 8.58868 18.3958 8.31321 18.0485 8.31321H13.9428ZM24.0701 23.7328C24.419 23.7328 24.7052 23.4466 24.7052 23.0977V12.2885C24.7052 11.9396 24.419 11.6534 24.0701 11.6534H7.9258C7.57698 11.6534 7.29075 11.9396 7.29075 12.2885V23.0977C7.29075 23.4466 7.57698 23.7328 7.9258 23.7328H24.0701ZM13.9428 8.11321C13.4835 8.11321 13.1217 8.4797 13.1217 8.93898V10.34H18.8696V8.93898C18.8696 8.4797 18.5078 8.11321 18.0485 8.11321H13.9428ZM24.0701 23.9328C24.5294 23.9328 24.9052 23.557 24.9052 23.0977V12.2885C24.9052 11.8292 24.5294 11.4534 24.0701 11.4534H7.9258C7.46652 11.4534 7.09075 11.8292 7.09075 12.2885V23.0977C7.09075 23.557 7.46652 23.9328 7.9258 23.9328H24.0701Z"/>
</svg>
