<?xml version="1.0" encoding="utf-8"?>
<!-- Generator: Adobe Illustrator 15.1.0, SVG Export Plug-In . SVG Version: 6.00 Build 0)  -->
<!DOCTYPE svg PUBLIC "-//W3C//DTD SVG 1.1//EN" "http://www.w3.org/Graphics/SVG/1.1/DTD/svg11.dtd">
<svg version="1.1" id="Layer_1" xmlns="http://www.w3.org/2000/svg" xmlns:xlink="http://www.w3.org/1999/xlink" x="0px" y="0px"
	 width="250px" height="60px" viewBox="-2.333 10.667 49.167 12" enable-background="new -2.333 10.667 49.167 12"
	 xml:space="preserve">
<path fill="#1C60AC" d="M15.609,14.979c-0.042,0.068-0.088,0.12-0.136,0.155c-0.048,0.035-0.109,0.052-0.184,0.052
	c-0.066,0-0.138-0.021-0.214-0.063c-0.076-0.043-0.164-0.09-0.26-0.142s-0.207-0.098-0.331-0.141
	c-0.124-0.041-0.266-0.062-0.424-0.062c-0.274,0-0.479,0.058-0.613,0.175c-0.135,0.116-0.201,0.274-0.201,0.473
	c0,0.127,0.04,0.233,0.121,0.316c0.08,0.084,0.187,0.156,0.319,0.217c0.13,0.061,0.28,0.117,0.449,0.167
	c0.168,0.05,0.341,0.106,0.518,0.168c0.177,0.062,0.349,0.135,0.517,0.219c0.17,0.084,0.32,0.19,0.45,0.319
	c0.132,0.13,0.237,0.287,0.319,0.475c0.081,0.187,0.121,0.41,0.121,0.673c0,0.291-0.05,0.564-0.151,0.818
	c-0.101,0.254-0.247,0.476-0.44,0.664c-0.191,0.189-0.428,0.339-0.71,0.446c-0.281,0.108-0.6,0.162-0.958,0.162
	c-0.197,0-0.396-0.02-0.6-0.06c-0.203-0.04-0.4-0.098-0.59-0.171c-0.192-0.074-0.37-0.161-0.538-0.263
	c-0.167-0.101-0.313-0.214-0.438-0.338l0.433-0.684c0.035-0.051,0.081-0.091,0.137-0.123c0.057-0.033,0.118-0.051,0.185-0.051
	c0.086,0,0.173,0.027,0.261,0.082s0.188,0.115,0.299,0.183c0.111,0.065,0.238,0.127,0.383,0.182s0.314,0.082,0.511,0.082
	c0.266,0,0.472-0.059,0.62-0.175c0.146-0.118,0.221-0.302,0.221-0.558c0-0.146-0.041-0.267-0.122-0.358
	c-0.08-0.093-0.187-0.169-0.317-0.229c-0.132-0.061-0.281-0.114-0.449-0.16c-0.167-0.047-0.339-0.099-0.515-0.154
	c-0.176-0.057-0.347-0.125-0.515-0.207c-0.167-0.083-0.316-0.19-0.448-0.324c-0.131-0.134-0.237-0.302-0.319-0.502
	c-0.08-0.201-0.121-0.447-0.121-0.742c0-0.236,0.048-0.468,0.143-0.693c0.095-0.226,0.236-0.426,0.42-0.602
	c0.185-0.176,0.411-0.317,0.68-0.422c0.269-0.105,0.576-0.158,0.922-0.158c0.194,0,0.382,0.015,0.565,0.046
	c0.184,0.031,0.357,0.075,0.522,0.134c0.165,0.059,0.318,0.129,0.46,0.212c0.144,0.083,0.271,0.175,0.384,0.28L15.609,14.979z
	 M18.145,13.523v3.632h0.2c0.083,0,0.147-0.013,0.19-0.037c0.043-0.023,0.086-0.065,0.13-0.123l0.85-1.263
	c0.051-0.072,0.11-0.126,0.177-0.162s0.151-0.055,0.256-0.055h1.229l-1.161,1.597c-0.109,0.144-0.239,0.262-0.39,0.354
	c0.066,0.05,0.127,0.106,0.182,0.171c0.056,0.065,0.108,0.139,0.156,0.219l1.265,2.148h-1.213c-0.1,0-0.188-0.017-0.259-0.05
	c-0.073-0.033-0.133-0.092-0.182-0.176l-0.849-1.589c-0.041-0.072-0.083-0.119-0.127-0.142c-0.043-0.021-0.107-0.032-0.194-0.032
	h-0.261v1.988h-1.341v-6.482H18.145z M25.991,15.515l-2.399,5.654c-0.04,0.089-0.089,0.155-0.146,0.197s-0.15,0.063-0.277,0.063
	h-1.005l0.866-1.817l-1.792-4.096h1.187c0.103,0,0.184,0.023,0.239,0.07c0.057,0.045,0.097,0.101,0.124,0.164l0.736,1.934
	c0.068,0.177,0.125,0.356,0.169,0.541c0.031-0.092,0.063-0.185,0.095-0.277c0.032-0.092,0.064-0.183,0.1-0.272l0.667-1.925
	c0.026-0.066,0.071-0.122,0.139-0.167c0.065-0.044,0.139-0.067,0.216-0.067H25.991z"/>
<path fill="#37964A" d="M32.63,16.849c0,0.456-0.08,0.877-0.236,1.262c-0.158,0.386-0.379,0.718-0.665,1
	c-0.286,0.281-0.63,0.501-1.033,0.658c-0.402,0.157-0.85,0.236-1.34,0.236h-2.45v-6.308h2.45c0.49,0,0.938,0.079,1.34,0.237
	c0.403,0.159,0.747,0.378,1.033,0.658c0.286,0.28,0.507,0.612,0.665,0.999C32.55,15.977,32.63,16.395,32.63,16.849z M31.131,16.849
	c0-0.312-0.04-0.594-0.121-0.844c-0.081-0.251-0.198-0.464-0.35-0.639c-0.15-0.175-0.336-0.309-0.555-0.402
	c-0.221-0.095-0.471-0.142-0.75-0.142h-0.978v4.057h0.978c0.279,0,0.529-0.047,0.75-0.141c0.219-0.094,0.404-0.229,0.555-0.403
	c0.151-0.175,0.269-0.388,0.35-0.638C31.091,17.445,31.131,17.162,31.131,16.849z M38.743,20.005h-1.325
	c-0.246,0-0.421-0.093-0.529-0.277l-1.048-1.831c-0.049-0.079-0.103-0.135-0.164-0.171c-0.061-0.037-0.146-0.055-0.26-0.055h-0.373
	v2.334h-1.463v-6.308h2.052c0.458,0,0.846,0.047,1.168,0.141s0.584,0.224,0.788,0.392c0.203,0.167,0.352,0.366,0.443,0.593
	c0.093,0.229,0.139,0.477,0.139,0.746c0,0.204-0.027,0.398-0.082,0.58c-0.056,0.181-0.136,0.351-0.242,0.505
	c-0.106,0.153-0.239,0.291-0.396,0.412c-0.159,0.121-0.339,0.222-0.545,0.299c0.096,0.048,0.186,0.111,0.269,0.184
	c0.084,0.074,0.159,0.161,0.226,0.262L38.743,20.005z M35.633,16.663c0.199,0,0.369-0.025,0.51-0.076s0.255-0.121,0.344-0.21
	c0.089-0.089,0.155-0.193,0.195-0.314c0.041-0.119,0.061-0.248,0.061-0.387c0-0.276-0.091-0.493-0.271-0.65
	c-0.181-0.155-0.459-0.233-0.839-0.233h-0.589v1.871H35.633z M46.454,13.697v6.308h-1.29v-3.628c0-0.083,0.002-0.175,0.006-0.272
	c0.004-0.098,0.013-0.197,0.023-0.298l-1.675,3.241c-0.052,0.102-0.122,0.178-0.21,0.229c-0.088,0.053-0.188,0.078-0.301,0.078h-0.2
	c-0.112,0-0.212-0.025-0.3-0.078c-0.088-0.052-0.159-0.128-0.21-0.229l-1.676-3.25c0.009,0.103,0.015,0.206,0.022,0.304
	c0.005,0.1,0.008,0.191,0.008,0.275v3.628h-1.29v-6.308h1.116c0.063,0,0.119,0.001,0.168,0.004c0.046,0.002,0.088,0.011,0.126,0.025
	c0.037,0.016,0.072,0.037,0.103,0.067c0.029,0.03,0.061,0.073,0.089,0.129l1.623,3.197c0.058,0.11,0.113,0.225,0.168,0.343
	c0.053,0.118,0.104,0.239,0.153,0.363c0.049-0.127,0.101-0.251,0.152-0.371c0.054-0.123,0.111-0.238,0.172-0.349l1.62-3.184
	c0.028-0.056,0.058-0.099,0.088-0.129s0.064-0.052,0.103-0.067c0.037-0.014,0.08-0.022,0.127-0.025
	c0.049-0.003,0.104-0.004,0.167-0.004H46.454z"/>
<path fill="#38964A" d="M10.409,15.744c0.029,1.286-1.163,1.889-1.797,2.028l-2.08,0.006c-0.148,0-0.269-0.12-0.269-0.269
	s0.12-0.269,0.269-0.269h2.022c-0.001-0.007,1.345-0.321,1.318-1.484c-0.012-0.495-0.17-0.875-0.472-1.132
	c-0.645-0.548-1.737-0.403-1.748-0.402c-0.072,0.01-0.144-0.01-0.201-0.053c-0.057-0.044-0.094-0.109-0.103-0.181
	c-0.009-0.077-0.247-1.878-1.761-2.017c-1.486-0.14-1.877,1.564-1.894,1.636c-0.032,0.144-0.173,0.24-0.319,0.205
	c-0.145-0.032-0.237-0.174-0.206-0.319c0.168-0.774,0.896-2.198,2.467-2.057c1.407,0.128,2.025,1.399,2.203,2.233
	c0.433-0.017,1.297,0.025,1.909,0.545C10.171,14.576,10.394,15.09,10.409,15.744z M-0.676,15.491h1.054
	c0.148,0,0.269-0.12,0.269-0.269s-0.12-0.269-0.269-0.269h-1.054c-0.148,0-0.269,0.12-0.269,0.269S-0.824,15.491-0.676,15.491z
	 M0.92,19.176h-1.054c-0.148,0-0.269,0.12-0.269,0.269s0.12,0.269,0.269,0.269H0.92c0.148,0,0.269-0.12,0.269-0.269
	S1.069,19.176,0.92,19.176z M7.803,19.176H6.144c-0.148,0-0.269,0.12-0.269,0.269s0.12,0.269,0.269,0.269h1.659
	c0.148,0,0.269-0.12,0.269-0.269S7.952,19.176,7.803,19.176z M0.647,17.514c0-0.148-0.12-0.269-0.269-0.269h-2.311
	c-0.148,0-0.269,0.12-0.269,0.269s0.12,0.269,0.269,0.269h2.311C0.527,17.782,0.647,17.662,0.647,17.514z M5.985,18.044
	c0,1.7-2.492,3.078-2.492,3.078S1,19.744,1,18.044v-3.445l2.493-0.44l2.492,0.44V18.044z M4.723,16.151
	c-0.078-0.078-0.205-0.078-0.283,0l-1.31,1.31l-0.584-0.584c-0.078-0.078-0.205-0.078-0.283,0s-0.078,0.205,0,0.283l0.726,0.726
	c0.039,0.039,0.09,0.059,0.142,0.059s0.103-0.02,0.142-0.059l1.451-1.451C4.801,16.356,4.801,16.229,4.723,16.151z"/>
</svg>
