<?xml version="1.0" encoding="utf-8"?>
<!-- Generator: Adobe Illustrator 15.1.0, SVG Export Plug-In . SVG Version: 6.00 Build 0)  -->
<!DOCTYPE svg PUBLIC "-//W3C//DTD SVG 1.1//EN" "http://www.w3.org/Graphics/SVG/1.1/DTD/svg11.dtd">
<svg version="1.1" id="Layer_1" xmlns="http://www.w3.org/2000/svg" xmlns:xlink="http://www.w3.org/1999/xlink" x="0px" y="0px"
	 width="230px" height="60px" viewBox="0 0 230 60" enable-background="new 0 0 230 60" xml:space="preserve">
<g>
	<g>
		<path fill="#6D6E71" d="M138.309,52.506c0,0.324-0.102,0.59-0.311,0.793c-0.207,0.209-0.471,0.311-0.793,0.311h-3.627v6.107
			h-1.367V44.324h4.996c0.324,0,0.586,0.102,0.791,0.307c0.209,0.203,0.313,0.467,0.313,0.785v7.09H138.309z M136.941,52.391v-6.855
			h-3.363v6.855H136.941z"/>
		<path fill="#6D6E71" d="M152.256,59.717h-1.438l-2.855-8.24l0.186-0.275h2.438v-5.666h-3.51v14.182h-1.367V44.324h5.154
			c0.32,0,0.584,0.102,0.785,0.305c0.205,0.205,0.307,0.467,0.307,0.787v5.844c0,0.74-0.498,1.111-1.494,1.111
			c-0.098,0-0.244-0.006-0.434-0.018c-0.191-0.008-0.328-0.014-0.412-0.014C150.498,54.791,151.381,57.248,152.256,59.717z"/>
		<path fill="#6D6E71" d="M166.039,58.623c0,0.324-0.104,0.584-0.311,0.787c-0.207,0.205-0.471,0.307-0.793,0.307h-4.307
			c-0.32,0-0.584-0.102-0.787-0.307c-0.201-0.203-0.303-0.463-0.303-0.787V45.416c0-0.322,0.102-0.584,0.303-0.787
			c0.203-0.203,0.467-0.305,0.787-0.305h4.307c0.322,0,0.586,0.102,0.793,0.305s0.311,0.465,0.311,0.787V58.623z M164.676,58.506
			V45.533h-3.77v12.973H164.676L164.676,58.506z"/>
		<path fill="#6D6E71" d="M179.152,58.623c0,0.324-0.102,0.584-0.305,0.787c-0.203,0.205-0.467,0.307-0.787,0.307h-3.58
			c-0.316,0-0.584-0.102-0.785-0.307c-0.201-0.203-0.307-0.463-0.307-0.787v-3.902h1.369v3.785h3.027V44.324h1.365v14.299H179.152z"
			/>
		<path fill="#6D6E71" d="M191.906,59.717h-5.059V44.324h4.998v1.211h-3.627v5.744h3.303v1.227h-3.303v6h3.689v1.211H191.906z"/>
		<path fill="#6D6E71" d="M205.441,58.623c0,0.324-0.104,0.584-0.313,0.787c-0.213,0.205-0.479,0.307-0.797,0.307h-3.963
			c-0.322,0-0.586-0.102-0.787-0.307c-0.205-0.203-0.307-0.463-0.307-0.787V45.416c0-0.322,0.102-0.584,0.307-0.787
			c0.201-0.203,0.465-0.305,0.787-0.305h3.963c0.318,0,0.584,0.102,0.797,0.305c0.211,0.203,0.313,0.465,0.313,0.787v3.58h-1.377
			v-3.463h-3.422v12.973h3.422v-3.785h1.377V58.623z"/>
		<path fill="#6D6E71" d="M218.371,45.535h-2.379v14.182h-1.369V45.535h-2.398v-1.211h6.146V45.535L218.371,45.535z"/>
	</g>
	<rect x="64.118" y="52.525" fill="#BCBEC0" width="63.251" height="7.191"/>
	<g>
		<path fill="#1D60AD" d="M81.626,16.797c-0.191,0.306-0.39,0.533-0.602,0.687c-0.208,0.152-0.479,0.229-0.809,0.229
			c-0.293,0-0.609-0.09-0.944-0.275c-0.338-0.185-0.72-0.391-1.144-0.62c-0.428-0.229-0.914-0.436-1.461-0.619
			c-0.547-0.186-1.17-0.277-1.869-0.277c-1.209,0-2.109,0.258-2.699,0.773c-0.59,0.514-0.885,1.211-0.885,2.088
			c0,0.56,0.179,1.023,0.533,1.392c0.354,0.37,0.82,0.688,1.402,0.954c0.578,0.269,1.239,0.513,1.982,0.735
			c0.744,0.222,1.502,0.471,2.279,0.744c0.775,0.272,1.535,0.594,2.278,0.964c0.745,0.369,1.405,0.839,1.983,1.41
			c0.58,0.573,1.047,1.27,1.402,2.089c0.356,0.818,0.534,1.808,0.534,2.966c0,1.286-0.221,2.486-0.666,3.603
			c-0.446,1.117-1.091,2.094-1.937,2.928c-0.846,0.832-1.889,1.484-3.129,1.963c-1.238,0.479-2.647,0.713-4.226,0.713
			c-0.864,0-1.745-0.088-2.641-0.266c-0.897-0.18-1.765-0.432-2.603-0.754c-0.84-0.324-1.627-0.707-2.367-1.152
			c-0.738-0.445-1.379-0.939-1.926-1.486l1.905-3.014c0.153-0.215,0.354-0.396,0.601-0.543c0.248-0.146,0.52-0.219,0.812-0.219
			c0.381,0,0.765,0.119,1.153,0.361c0.388,0.24,0.826,0.508,1.315,0.801c0.489,0.291,1.052,0.561,1.688,0.803
			c0.636,0.24,1.385,0.361,2.25,0.361c1.168,0,2.078-0.258,2.727-0.771c0.646-0.512,0.973-1.332,0.973-2.449
			c0-0.65-0.18-1.176-0.535-1.583c-0.355-0.406-0.822-0.744-1.401-1.011c-0.58-0.267-1.235-0.503-1.976-0.705
			c-0.735-0.204-1.491-0.43-2.268-0.677c-0.775-0.249-1.531-0.556-2.27-0.917c-0.737-0.363-1.396-0.838-1.975-1.431
			C66.54,24,66.07,23.26,65.714,22.377c-0.355-0.883-0.532-1.974-0.532-3.27c0-1.043,0.209-2.062,0.63-3.053
			c0.42-0.99,1.035-1.876,1.848-2.651c0.814-0.775,1.814-1.396,2.995-1.858c1.181-0.465,2.537-0.696,4.062-0.696
			c0.854,0,1.683,0.067,2.488,0.201c0.809,0.134,1.575,0.33,2.299,0.592c0.726,0.26,1.402,0.57,2.033,0.934
			c0.627,0.363,1.19,0.773,1.687,1.229L81.626,16.797z"/>
		<path fill="#1D60AD" d="M92.805,10.388v16.003h0.875c0.368,0,0.647-0.056,0.838-0.163c0.19-0.106,0.382-0.289,0.571-0.543
			l3.74-5.568c0.229-0.317,0.488-0.557,0.781-0.715c0.292-0.159,0.666-0.239,1.124-0.239h5.417l-5.111,7.038
			c-0.483,0.636-1.057,1.157-1.717,1.563c0.293,0.217,0.561,0.468,0.803,0.753s0.469,0.606,0.686,0.964l5.568,9.455h-5.338
			c-0.447,0-0.828-0.072-1.146-0.219s-0.585-0.402-0.802-0.771l-3.738-6.996c-0.177-0.318-0.363-0.525-0.554-0.621
			c-0.188-0.095-0.476-0.144-0.856-0.144h-1.144v8.75h-5.914V10.387L92.805,10.388L92.805,10.388z"/>
		<path fill="#1D60AD" d="M127.369,19.162l-10.566,24.907c-0.18,0.395-0.395,0.682-0.648,0.867c-0.254,0.184-0.661,0.275-1.22,0.275
			h-4.434l3.821-8.008l-7.903-18.041h5.229c0.458,0,0.81,0.102,1.061,0.305c0.249,0.204,0.43,0.446,0.544,0.726l3.246,8.524
			c0.307,0.775,0.553,1.572,0.744,2.385c0.143-0.407,0.281-0.814,0.42-1.223c0.139-0.406,0.285-0.809,0.438-1.202l2.939-8.485
			c0.113-0.292,0.318-0.537,0.611-0.735c0.291-0.197,0.607-0.294,0.951-0.294L127.369,19.162L127.369,19.162L127.369,19.162z"/>
		<path fill="#38974A" d="M156.602,25.036c0,2.008-0.346,3.863-1.041,5.56c-0.689,1.697-1.668,3.164-2.926,4.404
			c-1.26,1.238-2.775,2.205-4.549,2.896c-1.775,0.695-3.742,1.041-5.904,1.041h-10.795V11.153h10.795
			c2.162,0,4.129,0.35,5.904,1.049c1.773,0.7,3.289,1.667,4.549,2.899c1.258,1.232,2.234,2.698,2.926,4.397
			C156.256,21.194,156.602,23.04,156.602,25.036z M150.006,25.036c0-1.372-0.178-2.612-0.533-3.719
			c-0.359-1.106-0.871-2.044-1.539-2.814c-0.666-0.768-1.484-1.358-2.449-1.771c-0.967-0.413-2.066-0.62-3.299-0.62h-4.311v17.87
			h4.311c1.232,0,2.332-0.209,3.299-0.621c0.965-0.412,1.783-1.002,2.449-1.771c0.67-0.77,1.18-1.708,1.539-2.814
			C149.828,27.667,150.006,26.422,150.006,25.036z"/>
		<path fill="#38974A" d="M183.531,38.938h-5.838c-1.082,0-1.855-0.406-2.324-1.223l-4.617-8.063
			c-0.217-0.342-0.457-0.594-0.727-0.752c-0.268-0.158-0.646-0.239-1.145-0.239h-1.641v10.277h-6.445V11.154h9.039
			c2.01,0,3.723,0.208,5.141,0.621c1.416,0.414,2.572,0.989,3.473,1.727c0.895,0.736,1.549,1.608,1.953,2.612
			c0.406,1.003,0.609,2.098,0.609,3.28c0,0.901-0.121,1.755-0.361,2.555s-0.6,1.542-1.066,2.222
			c-0.475,0.68-1.051,1.289-1.744,1.822c-0.695,0.534-1.492,0.973-2.396,1.314c0.418,0.216,0.814,0.486,1.184,0.811
			c0.369,0.325,0.697,0.709,0.992,1.154L183.531,38.938z M169.836,24.214c0.877,0,1.627-0.11,2.242-0.332
			c0.619-0.223,1.123-0.53,1.518-0.926c0.395-0.393,0.682-0.854,0.859-1.383c0.178-0.527,0.268-1.097,0.268-1.708
			c0-1.222-0.398-2.174-1.191-2.86c-0.795-0.688-2.027-1.029-3.691-1.029h-2.594v8.238H169.836L169.836,24.214z"/>
		<path fill="#38974A" d="M217.498,11.151v27.785h-5.686V22.957c0-0.368,0.014-0.769,0.027-1.202
			c0.023-0.431,0.057-0.87,0.107-1.315l-7.383,14.286c-0.227,0.443-0.535,0.779-0.924,1.01c-0.389,0.229-0.828,0.344-1.328,0.344
			h-0.875c-0.496,0-0.938-0.115-1.326-0.344s-0.697-0.566-0.926-1.01l-7.381-14.324c0.039,0.458,0.07,0.907,0.096,1.346
			c0.023,0.438,0.037,0.842,0.037,1.21v15.979h-5.684V11.151h4.92c0.279,0,0.525,0.008,0.736,0.021
			c0.209,0.013,0.395,0.05,0.563,0.115c0.164,0.063,0.316,0.161,0.449,0.295c0.135,0.133,0.264,0.32,0.391,0.563l7.152,14.095
			c0.254,0.484,0.498,0.987,0.734,1.506c0.234,0.522,0.461,1.056,0.676,1.604c0.219-0.56,0.441-1.108,0.678-1.642
			c0.236-0.534,0.488-1.043,0.754-1.526l7.135-14.037c0.125-0.242,0.254-0.43,0.389-0.563c0.133-0.134,0.283-0.231,0.447-0.295
			c0.166-0.064,0.355-0.103,0.563-0.115c0.211-0.013,0.455-0.021,0.738-0.021L217.498,11.151L217.498,11.151z"/>
	</g>
	<g>
		<g>
			<path fill="#39974A" d="M50.553,29.132h-8.91c-0.655,0-1.183-0.529-1.183-1.184c0-0.653,0.527-1.183,1.183-1.183h8.771
				c0.864-0.219,6.055-1.74,5.941-6.54c-0.051-2.179-0.75-3.856-2.081-4.985c-2.843-2.416-7.647-1.775-7.696-1.769
				c-0.318,0.042-0.636-0.042-0.888-0.235c-0.252-0.194-0.415-0.482-0.453-0.799c-0.038-0.333-1.085-8.275-7.752-8.881
				c-6.575-0.592-8.271,6.884-8.338,7.202c-0.138,0.638-0.769,1.043-1.408,0.906c-0.638-0.138-1.044-0.768-0.905-1.406
				C27.57,6.852,30.784,0.573,37.7,1.2c6.195,0.564,8.92,6.162,9.699,9.835c1.893-0.073,5.707,0.106,8.407,2.401
				c1.866,1.585,2.847,3.851,2.911,6.733c0.133,5.667-5.117,8.321-7.913,8.935C50.723,29.124,50.637,29.132,50.553,29.132z"/>
		</g>
		<g>
			<path fill="#39974A" d="M14.54,19.058H9.899c-0.654,0-1.186-0.53-1.186-1.184s0.531-1.183,1.186-1.183h4.641
				c0.654,0,1.184,0.529,1.184,1.183S15.194,19.058,14.54,19.058z"/>
		</g>
		<g>
			<path fill="#39974A" d="M16.928,37.656h-4.642c-0.652,0-1.184-0.529-1.184-1.182c0-0.656,0.531-1.186,1.184-1.186h4.642
				c0.655,0,1.185,0.529,1.185,1.186C18.111,37.127,17.581,37.656,16.928,37.656z"/>
		</g>
		<g>
			<path fill="#39974A" d="M47.243,37.656h-7.308c-0.653,0-1.183-0.529-1.183-1.182c0-0.656,0.529-1.186,1.183-1.186h7.308
				c0.652,0,1.182,0.529,1.182,1.186C48.427,37.127,47.897,37.656,47.243,37.656z"/>
		</g>
		<g>
			<path fill="#39974A" d="M14.54,29.148H4.362c-0.652,0-1.183-0.53-1.183-1.184c0-0.652,0.53-1.183,1.183-1.183H14.54
				c0.654,0,1.184,0.529,1.184,1.183C15.724,28.619,15.194,29.148,14.54,29.148z"/>
		</g>
		<g>
			<g>
				<path fill="#38974A" d="M39.237,30.303c0,7.486-10.977,13.554-10.977,13.554s-10.979-6.068-10.979-13.554l0,0V15.127
					l10.979-1.943l10.977,1.943V30.303L39.237,30.303z"/>
			</g>
			<g>
				<path fill="#FFFFFF" d="M26.663,29.864c-0.233,0-0.457-0.092-0.625-0.259l-3.195-3.2c-0.344-0.343-0.344-0.902,0-1.245
					c0.344-0.344,0.902-0.344,1.246,0l2.572,2.575l5.768-5.77c0.343-0.346,0.902-0.344,1.244-0.001c0.347,0.343,0.347,0.902,0,1.246
					l-6.387,6.394C27.12,29.771,26.896,29.864,26.663,29.864z"/>
			</g>
		</g>
	</g>
</g>
</svg>
