<svg width="68" height="69" viewBox="0 0 68 69" fill="none" xmlns="http://www.w3.org/2000/svg">
<g filter="url(#filter0_d)">
<rect x="4" y="3" width="59.9604" height="60" rx="29.9802" fill="#FF9900"/>
</g>
<path d="M43.1543 63.846H57.631V44.8657H49.9231C48.943 44.8657 48.1426 44.0682 48.1426 43.0861V35.3736H33.9237V37.431L31.5509 37.4732V34.7821C31.5509 33.7986 32.3489 33 33.3314 33H49.9243C50.9044 33 52.2735 33.5742 52.9611 34.2612L58.7399 40.0452C59.4226 40.731 60 42.1026 60 43.0848V64.4388C60 65.4222 59.2021 66.2196 58.2195 66.2196H43.2485L43.1543 63.846ZM48.046 48.2922H54.0515C54.3873 48.2922 54.645 48.5526 54.645 48.8849V50.073C54.645 50.4066 54.3873 50.667 54.0515 50.667H48.046C47.7127 50.667 47.4525 50.4066 47.4525 50.073V48.8849C47.4512 48.5526 47.7127 48.2922 48.046 48.2922ZM54.64 53.6285V54.8178C54.64 55.1538 54.3823 55.4118 54.0478 55.4118H46.2853C45.9496 55.4118 45.6918 55.1526 45.6918 54.8178V53.6285C45.6918 53.2961 45.9508 53.0369 46.2853 53.0369H54.0502C54.3823 53.0369 54.64 53.2961 54.64 53.6285ZM54.64 58.3782V59.5601C54.64 59.8961 54.3823 60.1553 54.0478 60.1553H43.8259C43.4901 60.1553 43.2324 59.8961 43.2324 59.5601V58.3782C43.2324 58.0421 43.4889 57.7842 43.8259 57.7842H54.0478C54.3823 57.7817 54.64 58.0434 54.64 58.3782ZM50.5178 42.4933H57.4798C57.3696 42.1783 57.2011 41.8633 57.0722 41.7343L51.2748 35.9304C51.146 35.8015 50.8313 35.6341 50.5178 35.5237V42.4933ZM26.7076 69C26.4363 69 26.1773 68.943 25.9382 68.8313C25.2555 68.556 24.7847 67.8504 24.7847 67.0517V66.8744L28.2093 58.1649L27.4436 58.1785C26.8489 58.2988 26.2133 58.0967 25.7982 57.6577C25.3509 57.2373 25.1638 56.5527 25.3472 55.9091L25.735 54.5474L24.3597 54.194C23.7402 54.0476 23.2359 53.5553 23.0587 52.9166C22.8989 52.2507 23.0934 51.5822 23.5618 51.1395L24.5592 50.1623L23.5506 49.1751C23.0922 48.7386 22.8989 48.0677 23.0513 47.4352C23.2359 46.7655 23.7414 46.2745 24.377 46.1232L25.7362 45.7759L25.3497 44.4155C25.1675 43.7694 25.3534 43.0861 25.8354 42.6297C26.2318 42.2056 26.9517 41.9972 27.5811 42.1746L28.9428 42.5627L29.2947 41.1874C29.4434 40.5599 29.9576 40.0452 30.5994 39.889C31.1111 39.7439 31.9078 39.9163 32.3526 40.3925L33.3252 41.392L34.3102 40.3763C34.7501 39.9113 35.434 39.7216 36.0746 39.8927C36.6941 40.044 37.2095 40.5586 37.3619 41.1998L37.7101 42.5627L39.0668 42.1746C39.7148 41.9935 40.4087 42.1919 40.8535 42.6656C41.297 43.0848 41.4841 43.7681 41.3045 44.4118L40.9167 45.7747L42.2907 46.1256C42.914 46.2757 43.4195 46.7693 43.5917 47.4079C43.7553 48.0615 43.5632 48.7336 43.0961 49.1813L42.095 50.161L43.1035 51.1445C43.562 51.5773 43.7565 52.2494 43.6004 52.8856C43.417 53.5541 42.9102 54.0464 42.2734 54.1952L40.9167 54.5425L41.3032 55.9041C41.4841 56.5465 41.2995 57.2286 40.82 57.6875C40.5177 58.0074 40.0456 58.2095 39.5587 58.2095C39.441 58.2095 39.3245 58.1984 39.2093 58.1761L38.8549 58.1711L42.2226 66.5172V66.6983C42.2226 67.4957 41.753 68.2014 41.0257 68.4953C40.8398 68.5833 40.5809 68.6379 40.3021 68.6379C39.8003 68.6379 39.3208 68.4444 38.9528 68.0947L33.3958 62.2623L28.1226 68.3787C27.6914 68.8016 27.2082 69 26.7076 69ZM26.689 67.115L26.7076 67.141C26.7237 67.141 26.7485 67.1262 26.7733 67.1038L33.3277 59.4981L40.2662 66.7789L40.3232 66.774L36.0857 56.2725L39.5748 56.3518L38.6084 53.2168L41.8323 52.3896L39.4348 50.1648L41.805 47.8457L38.6071 47.1053L39.5166 43.907L36.3831 44.8768L35.5579 41.6475L33.3265 44.0608L31.007 41.676L30.2698 44.8781L27.0769 43.9653L28.0458 47.1053L24.8218 47.93L27.2169 50.1623L24.8516 52.4813L28.047 53.2217L27.1376 56.4188L27.3172 56.3221L30.9599 56.2576L26.689 67.115Z" fill="#474749"/>
<path d="M23.412 18.537C23.37 18.607 23.3233 18.6607 23.272 18.698C23.2253 18.7307 23.167 18.747 23.097 18.747C23.0177 18.747 22.9243 18.7073 22.817 18.628C22.7097 18.5487 22.5743 18.4623 22.411 18.369C22.2523 18.271 22.0587 18.1823 21.83 18.103C21.606 18.0237 21.333 17.984 21.011 17.984C20.7077 17.984 20.4393 18.026 20.206 18.11C19.9773 18.1893 19.7837 18.299 19.625 18.439C19.471 18.579 19.3543 18.7447 19.275 18.936C19.1957 19.1227 19.156 19.3257 19.156 19.545C19.156 19.825 19.2237 20.0583 19.359 20.245C19.499 20.427 19.681 20.5833 19.905 20.714C20.1337 20.8447 20.3903 20.959 20.675 21.057C20.9643 21.1503 21.2583 21.2483 21.557 21.351C21.8603 21.4537 22.1543 21.5703 22.439 21.701C22.7283 21.827 22.985 21.988 23.209 22.184C23.4377 22.38 23.6197 22.6203 23.755 22.905C23.895 23.1897 23.965 23.5397 23.965 23.955C23.965 24.3937 23.8903 24.8067 23.741 25.194C23.5917 25.5767 23.3723 25.9103 23.083 26.195C22.7983 26.4797 22.446 26.7037 22.026 26.867C21.6107 27.0303 21.137 27.112 20.605 27.112C19.9517 27.112 19.359 26.9953 18.827 26.762C18.295 26.524 17.84 26.2043 17.462 25.803L17.854 25.159C17.8913 25.1077 17.9357 25.0657 17.987 25.033C18.043 24.9957 18.1037 24.977 18.169 24.977C18.2297 24.977 18.2973 25.0027 18.372 25.054C18.4513 25.1007 18.54 25.1613 18.638 25.236C18.736 25.3107 18.848 25.3923 18.974 25.481C19.1 25.5697 19.2423 25.6513 19.401 25.726C19.5643 25.8007 19.7487 25.8637 19.954 25.915C20.1593 25.9617 20.3903 25.985 20.647 25.985C20.969 25.985 21.256 25.9407 21.508 25.852C21.76 25.7633 21.9723 25.6397 22.145 25.481C22.3223 25.3177 22.4577 25.124 22.551 24.9C22.6443 24.676 22.691 24.4263 22.691 24.151C22.691 23.8477 22.621 23.6003 22.481 23.409C22.3457 23.213 22.166 23.0497 21.942 22.919C21.718 22.7883 21.4613 22.6787 21.172 22.59C20.8827 22.4967 20.5887 22.4033 20.29 22.31C19.9913 22.212 19.6973 22.1 19.408 21.974C19.1187 21.848 18.862 21.6847 18.638 21.484C18.414 21.2833 18.232 21.0337 18.092 20.735C17.9567 20.4317 17.889 20.0583 17.889 19.615C17.889 19.2603 17.9567 18.9173 18.092 18.586C18.232 18.2547 18.4327 17.9607 18.694 17.704C18.96 17.4473 19.2843 17.242 19.667 17.088C20.0543 16.934 20.4977 16.857 20.997 16.857C21.557 16.857 22.0657 16.9457 22.523 17.123C22.985 17.3003 23.391 17.557 23.741 17.893L23.412 18.537ZM31.0318 23.276L29.4568 19.195C29.4102 19.0737 29.3612 18.9337 29.3098 18.775C29.2585 18.6117 29.2095 18.439 29.1628 18.257C29.0648 18.635 28.9645 18.95 28.8618 19.202L27.2868 23.276H31.0318ZM33.8598 27H32.8098C32.6885 27 32.5905 26.9697 32.5158 26.909C32.4412 26.8483 32.3852 26.7713 32.3478 26.678L31.4098 24.256H26.9088L25.9708 26.678C25.9428 26.762 25.8892 26.8367 25.8098 26.902C25.7305 26.9673 25.6325 27 25.5158 27H24.4658L28.4768 16.969H29.8488L33.8598 27ZM45.6164 16.969V27H44.4264V19.629C44.4264 19.531 44.4288 19.426 44.4334 19.314C44.4428 19.202 44.4521 19.0877 44.4614 18.971L41.0174 25.243C40.9101 25.453 40.7468 25.558 40.5274 25.558H40.3314C40.1121 25.558 39.9488 25.453 39.8414 25.243L36.3274 18.943C36.3554 19.1903 36.3694 19.419 36.3694 19.629V27H35.1794V16.969H36.1804C36.3018 16.969 36.3951 16.9807 36.4604 17.004C36.5258 17.0273 36.5888 17.0927 36.6494 17.2L40.1144 23.374C40.1704 23.486 40.2241 23.6027 40.2754 23.724C40.3314 23.8453 40.3828 23.969 40.4294 24.095C40.4761 23.969 40.5251 23.8453 40.5764 23.724C40.6278 23.598 40.6838 23.479 40.7444 23.367L44.1464 17.2C44.2024 17.0927 44.2631 17.0273 44.3284 17.004C44.3984 16.9807 44.4941 16.969 44.6154 16.969H45.6164ZM53.8724 25.859V27H48.1814V16.969H49.5324V25.859H53.8724Z" fill="white"/>
<defs>
<filter id="filter0_d" x="0" y="0" width="67.9604" height="68" filterUnits="userSpaceOnUse" color-interpolation-filters="sRGB">
<feFlood flood-opacity="0" result="BackgroundImageFix"/>
<feColorMatrix in="SourceAlpha" type="matrix" values="0 0 0 0 0 0 0 0 0 0 0 0 0 0 0 0 0 0 127 0"/>
<feOffset dy="1"/>
<feGaussianBlur stdDeviation="2"/>
<feColorMatrix type="matrix" values="0 0 0 0 0 0 0 0 0 0 0 0 0 0 0 0 0 0 0.12 0"/>
<feBlend mode="normal" in2="BackgroundImageFix" result="effect1_dropShadow"/>
<feBlend mode="normal" in="SourceGraphic" in2="effect1_dropShadow" result="shape"/>
</filter>
</defs>
</svg>
