<svg width="56" height="56" viewBox="0 0 56 56" fill="none" xmlns="http://www.w3.org/2000/svg">
<g filter="url(#filter0_d)">
<path d="M52 26C52 39.2548 41.2548 50 28 50C14.7452 50 4 39.2548 4 26C4 12.7452 14.7452 2 28 2C41.2548 2 52 12.7452 52 26Z" fill="white"/>
</g>
<path d="M38.0182 21.5856L32.9998 16.9009C32.4495 16.3869 31.4677 16 30.7148 16H19.67C18.7491 16 18 16.7491 18 17.67V35.0834C18 36.0043 18.7491 36.7534 19.67 36.7534H37.33C38.2509 36.7534 39 36.0043 39 35.0834V23.8459C39 23.0791 38.5777 22.1073 38.0182 21.5856ZM26.6697 17.156H29.6698V22.5412C29.6698 22.5728 29.6413 22.6013 29.6097 22.6013H26.6705V17.156H26.6697ZM34.4155 35.5974H22.7125V30.048C22.7125 29.7698 22.9483 29.534 23.2265 29.534H33.9022C34.185 29.534 34.4155 29.7644 34.4155 30.048V35.5974ZM37.844 35.0834C37.844 35.3616 37.6082 35.5974 37.33 35.5974H35.5714V30.048C35.5714 29.1271 34.8223 28.3781 33.9022 28.3781H23.2265C22.3056 28.3781 21.5565 29.1271 21.5565 30.048V35.5974H19.67C19.3864 35.5974 19.156 35.367 19.156 35.0834V17.67C19.156 17.3864 19.3864 17.156 19.67 17.156H21.0803V22.5412C21.0803 23.2117 21.6259 23.7573 22.2963 23.7573H29.609C30.2794 23.7573 30.825 23.2117 30.825 22.5412V17.1698C31.2766 17.2068 31.9032 17.4588 32.2106 17.7455L37.2291 22.4302C37.5512 22.7308 37.844 23.4051 37.844 23.8451V35.0834V35.0834Z" fill="black"/>
<defs>
<filter id="filter0_d" x="0" y="0" width="56" height="56" filterUnits="userSpaceOnUse" color-interpolation-filters="sRGB">
<feFlood flood-opacity="0" result="BackgroundImageFix"/>
<feColorMatrix in="SourceAlpha" type="matrix" values="0 0 0 0 0 0 0 0 0 0 0 0 0 0 0 0 0 0 127 0"/>
<feOffset dy="2"/>
<feGaussianBlur stdDeviation="2"/>
<feColorMatrix type="matrix" values="0 0 0 0 0 0 0 0 0 0 0 0 0 0 0 0 0 0 0.12 0"/>
<feBlend mode="normal" in2="BackgroundImageFix" result="effect1_dropShadow"/>
<feBlend mode="normal" in="SourceGraphic" in2="effect1_dropShadow" result="shape"/>
</filter>
</defs>
</svg>
