<svg width="32" height="32" viewBox="0 0 32 32" fill="none" xmlns="http://www.w3.org/2000/svg">
<path d="M17.1188 12.57C14.8882 12.57 12.9512 13.8389 11.9724 15.7018C10.9935 13.8388 9.05649 12.57 6.82587 12.57C5.51477 12.57 4.30494 13.0083 3.33143 13.748V8.78294H3.33086C3.31735 8.14303 2.80138 7.6282 2.16567 7.6282C1.52996 7.6282 1.01399 8.14303 1.00057 8.78294H1V18.562H1.00238C1.05416 21.7721 3.64067 24.3589 6.82578 24.3589C9.05649 24.3589 10.9934 23.0897 11.9722 21.2269C12.9511 23.0898 14.8881 24.3589 17.1187 24.3589C20.3363 24.3589 22.9446 21.7198 22.9446 18.4644C22.9447 15.209 20.3363 12.57 17.1188 12.57ZM6.82578 22C4.89581 22 3.33134 20.417 3.33134 18.4644C3.33134 16.5116 4.89581 14.9288 6.82578 14.9288C8.75575 14.9288 10.3202 16.5116 10.3202 18.4644C10.3202 20.4171 8.75575 22 6.82578 22ZM17.1188 22C15.1888 22 13.6245 20.417 13.6245 18.4644C13.6245 16.5116 15.189 14.9288 17.1188 14.9288C19.0487 14.9288 20.6133 16.5116 20.6133 18.4644C20.6133 20.4171 19.0487 22 17.1188 22Z" fill="#0061D5"/>
<path d="M30.7813 22.5039L27.7977 18.4687L30.7813 14.4335L30.7807 14.4332C31.1497 13.9133 31.0428 13.1882 30.5344 12.8018C30.0261 12.4156 29.308 12.5137 28.9175 13.0172L28.9171 13.017L26.3419 16.4999L23.7668 13.017L23.7663 13.0174C23.3757 12.5139 22.6577 12.4157 22.1492 12.802C21.6409 13.1884 21.5339 13.9135 21.9032 14.4332L21.9026 14.4334L24.8862 18.4686L21.9026 22.5038L21.9032 22.5041C21.5339 23.0238 21.6409 23.749 22.1492 24.1352C22.6577 24.5217 23.3757 24.4234 23.7663 23.9199L23.7668 23.9204L26.3419 20.4376L28.9171 23.9204L28.9175 23.9202C29.3081 24.4236 30.0261 24.5218 30.5344 24.1355C31.0428 23.7492 31.1497 23.024 30.7807 22.5042L30.7813 22.5039Z" fill="#0061D5"/>
</svg>
