<?xml version="1.0" encoding="utf-8"?>
<!-- Generator: Adobe Illustrator 15.1.0, SVG Export Plug-In . SVG Version: 6.00 Build 0)  -->
<!DOCTYPE svg PUBLIC "-//W3C//DTD SVG 1.1//EN" "http://www.w3.org/Graphics/SVG/1.1/DTD/svg11.dtd">
<svg version="1.1" id="Layer_1" xmlns="http://www.w3.org/2000/svg" xmlns:xlink="http://www.w3.org/1999/xlink" x="0px" y="0px"
	 width="24px" height="24px" viewBox="0 0 32 32" enable-background="new 0 0 32 32" xml:space="preserve">
<g>
	<path d="M9.003,26.855v1.43h19.964V12.311h-6.49c-0.822,0-1.498-0.671-1.498-1.497V4.321H9.003v3.746l-2,0.037v-4.28
		c0-0.828,0.673-1.499,1.501-1.499h13.975c0.826,0,1.979,0.483,2.563,1.063l4.868,4.869c0.574,0.577,1.063,1.731,1.063,2.559v17.97
		c0,0.828-0.672,1.498-1.498,1.498H8.503c-0.828,0-1.5-0.67-1.5-1.498v-1.927L9.003,26.855z M27.241,20.781v1.001
		c0,0.28-0.218,0.499-0.5,0.499h-7.668c-0.282,0-0.5-0.219-0.5-0.499v-1.001c0-0.279,0.218-0.498,0.5-0.498h7.673
		C27.023,20.283,27.241,20.502,27.241,20.781z M27.241,16.802v1.001c0,0.28-0.169,0.499-0.388,0.499h-5.959
		c-0.227,0-0.396-0.219-0.396-0.499v-1.001c0-0.278,0.17-0.498,0.396-0.498h5.961C27.072,16.304,27.241,16.521,27.241,16.802z
		 M27.241,24.777v0.994c0,0.283-0.218,0.502-0.5,0.502h-9.74c-0.28,0-0.499-0.219-0.499-0.502v-0.994c0-0.281,0.217-0.5,0.499-0.5
		h9.74C27.023,24.275,27.241,24.498,27.241,24.777z M22.979,10.315h5.865c-0.097-0.266-0.234-0.531-0.348-0.64l-4.885-4.884
		c-0.105-0.108-0.373-0.25-0.641-0.342v5.866H22.979z"/>
</g>
<g>
	<path d="M8.106,25.359c-4.121,0-7.473-3.353-7.473-7.474c0-4.121,3.353-7.473,7.473-7.473s7.473,3.352,7.473,7.473
		C15.579,22.007,12.227,25.359,8.106,25.359z M8.106,11.413c-3.569,0-6.473,2.904-6.473,6.473c0,3.569,2.904,6.474,6.473,6.474
		s6.473-2.904,6.473-6.474C14.579,14.317,11.675,11.413,8.106,11.413z"/>
</g>
<g>
	<path d="M10.431,20.792c0-0.163-0.127-0.29-0.291-0.29H9.269v-4.649c0-0.164-0.127-0.291-0.291-0.291H6.073
		c-0.164,0-0.291,0.127-0.291,0.291v1.454c0,0.162,0.127,0.289,0.291,0.289h0.872v2.906H6.073c-0.164,0-0.291,0.127-0.291,0.29
		v1.452c0,0.164,0.127,0.291,0.291,0.291h4.067c0.164,0,0.291-0.127,0.291-0.291V20.792z"/>
</g>
<g>
	<path d="M9.269,12.657c0-0.164-0.127-0.291-0.291-0.291H7.235c-0.164,0-0.291,0.127-0.291,0.291v1.453
		c0,0.164,0.127,0.291,0.291,0.291h1.743c0.164,0,0.291-0.127,0.291-0.291V12.657z"/>
</g>
</svg>
