<svg width="430" height="430" viewBox="0 0 430 430" version="1.1" xmlns="http://www.w3.org/2000/svg" xmlns:xlink="http://www.w3.org/1999/xlink" xmlns:figma="http://www.figma.com/figma/ns">
<title>/share files securely</title>
<desc>Created using Figma</desc>
<g id="Canvas" transform="translate(14866 -262)" figma:type="canvas">
<g id="artwork/share files securely" style="mix-blend-mode:normal;" figma:type="frame">
<g id="Rectangle 36" style="mix-blend-mode:normal;" figma:type="vector">
<use xlink:href="#path0_fill" transform="translate(-14849.4 278.558)" fill="#FFFFFF" fill-opacity="0.2" style="mix-blend-mode:normal;"/>
</g>
<g id="Rectangle 36" style="mix-blend-mode:normal;" figma:type="vector">
<mask id="mask0_outline_ins">
<use xlink:href="#path1_fill" fill="white" transform="translate(-14865.2 262.843)"/>
</mask>
<g mask="url(#mask0_outline_ins)">
<use xlink:href="#path2_stroke_2x" transform="translate(-14865.2 262.843)" fill="#FFFFFF" fill-opacity="0.5" style="mix-blend-mode:normal;"/>
</g>
</g>
<g id="Rectangle 36" style="mix-blend-mode:normal;" figma:type="vector">
<use xlink:href="#path3_fill" transform="translate(-14814.2 313.848)" fill="#FFFFFF" fill-opacity="0.8" style="mix-blend-mode:normal;"/>
</g>
<g id="Path" style="mix-blend-mode:normal;" figma:type="vector">
<use xlink:href="#path4_fill" transform="translate(-14735.5 383)" fill="#F2F3F5" style="mix-blend-mode:normal;"/>
</g>
<g id="Upload" style="mix-blend-mode:normal;" figma:type="frame">
<g id="Shape" style="mix-blend-mode:normal;" figma:type="vector-operation">
<use xlink:href="#path5_fill" transform="translate(-14751 375)" fill="#ECECF1" style="mix-blend-mode:normal;"/>
</g>
</g>
<g id="Path" style="mix-blend-mode:normal;" figma:type="vector">
<use xlink:href="#path6_fill" transform="matrix(0.984807 0.173653 -0.173653 0.984807 -14594.9 378.843)" fill="#ECECF1" style="mix-blend-mode:normal;"/>
</g>
<g id="Path" style="mix-blend-mode:normal;" figma:type="vector">
<use xlink:href="#path7_fill" transform="matrix(0.984807 0.173653 -0.173653 0.984807 -14601.1 392.918)" fill="#ECECF1" style="mix-blend-mode:normal;"/>
</g>
<g id="Vector 3" style="mix-blend-mode:normal;" figma:type="vector">
<use xlink:href="#path8_fill" transform="translate(-14689.2 421)" fill="#FFFFFF" style="mix-blend-mode:normal;"/>
</g>
<g id="Vector 3" style="mix-blend-mode:normal;" figma:type="vector">
<use xlink:href="#path9_fill" transform="translate(-14683.3 428)" fill="#D0F09B" style="mix-blend-mode:normal;"/>
</g>
<g id="Vector 3" style="mix-blend-mode:normal;" figma:type="vector">
<use xlink:href="#path10_fill" transform="translate(-14674 436)" fill="#ECFFCE" style="mix-blend-mode:normal;"/>
</g>
<g id="Line 5" style="mix-blend-mode:normal;" figma:type="line">
<use xlink:href="#path11_stroke" transform="translate(-14659.9 496.09)" fill="#FFFFFF" style="mix-blend-mode:normal;"/>
</g>
<g id="Line 5" style="mix-blend-mode:normal;" figma:type="line">
<use xlink:href="#path11_stroke" transform="translate(-14659.9 512.181)" fill="#FFFFFF" style="mix-blend-mode:normal;"/>
</g>
<g id="Vector 3" style="mix-blend-mode:normal;" figma:type="vector">
<use xlink:href="#path12_stroke" transform="translate(-14638.3 450)" fill="#FFFFFF" style="mix-blend-mode:normal;"/>
</g>
<g id="Union" style="mix-blend-mode:normal;" figma:type="vector-operation">
<use xlink:href="#path13_fill" transform="translate(-14693.5 418)" style="mix-blend-mode:normal;"/>
</g>
<g id="Icon" style="mix-blend-mode:normal;" figma:type="frame">
<g id="Vector 14" style="mix-blend-mode:normal;" figma:type="vector">
<use xlink:href="#path14_fill" transform="translate(-14618.2 498.2)" fill="#FFFFFF" style="mix-blend-mode:normal;"/>
</g>
<g id="Fill" style="mix-blend-mode:normal;" figma:type="vector">
<use xlink:href="#path15_fill" transform="translate(-14613.6 515.293)" fill="#D0F09B" style="mix-blend-mode:normal;"/>
</g>
<g id="Outline" style="mix-blend-mode:normal;" figma:type="vector-operation">
<use xlink:href="#path16_fill" transform="translate(-14619.8 497)" style="mix-blend-mode:normal;"/>
</g>
</g>
<g id="Ellipse 9" style="mix-blend-mode:normal;" figma:type="ellipse">
<use xlink:href="#path17_fill" transform="translate(-14713.5 479)" fill="#F5F5F7" style="mix-blend-mode:normal;"/>
<mask id="mask1_outline_ins">
<use xlink:href="#path17_fill" fill="white" transform="translate(-14713.5 479)"/>
</mask>
<g mask="url(#mask1_outline_ins)">
<use xlink:href="#path18_stroke_2x" transform="translate(-14713.5 479)" style="mix-blend-mode:normal;"/>
</g>
</g>
<g id="protect - black" style="mix-blend-mode:normal;" figma:type="vector-operation">
<use xlink:href="#path19_fill" transform="translate(-14700.5 492)" style="mix-blend-mode:normal;"/>
</g>
</g>
</g>
<defs>
<path id="path0_fill" d="M 71.1624 52.7208C 141.457 -17.5736 255.426 -17.5736 325.721 52.7208L 344.162 71.1624C 414.457 141.457 414.457 255.426 344.162 325.721L 325.721 344.162C 255.426 414.457 141.457 414.457 71.1624 344.162L 52.7208 325.721C -17.5736 255.426 -17.5736 141.457 52.7208 71.1624L 71.1624 52.7208Z"/>
<path id="path1_fill" d="M 72.7359 58.5786C 150.841 -19.5262 277.474 -19.5262 355.579 58.5786L 369.736 72.7359C 447.841 150.841 447.841 277.474 369.736 355.579L 355.579 369.736C 277.474 447.841 150.841 447.841 72.7359 369.736L 58.5786 355.579C -19.5262 277.474 -19.5262 150.841 58.5786 72.7359L 72.7359 58.5786Z"/>
<path id="path2_stroke_2x" d="M 355.579 58.5786L 354.872 59.2857L 354.872 59.2857L 355.579 58.5786ZM 369.736 72.7359L 370.443 72.0288L 370.443 72.0288L 369.736 72.7359ZM 72.7359 369.736L 72.0288 370.443L 72.0288 370.443L 72.7359 369.736ZM 58.5786 355.579L 59.2857 354.872L 59.2857 354.872L 58.5786 355.579ZM 73.4431 59.2857C 151.157 -18.4286 277.157 -18.4286 354.872 59.2857L 356.286 57.8715C 277.79 -20.6238 150.524 -20.6238 72.0288 57.8715L 73.4431 59.2857ZM 354.872 59.2857L 369.029 73.4431L 370.443 72.0288L 356.286 57.8715L 354.872 59.2857ZM 369.029 73.4431C 446.743 151.157 446.743 277.157 369.029 354.872L 370.443 356.286C 448.938 277.79 448.938 150.524 370.443 72.0288L 369.029 73.4431ZM 369.029 354.872L 354.872 369.029L 356.286 370.443L 370.443 356.286L 369.029 354.872ZM 354.872 369.029C 277.157 446.743 151.157 446.743 73.4431 369.029L 72.0288 370.443C 150.524 448.938 277.79 448.938 356.286 370.443L 354.872 369.029ZM 73.4431 369.029L 59.2857 354.872L 57.8715 356.286L 72.0288 370.443L 73.4431 369.029ZM 59.2857 354.872C -18.4286 277.157 -18.4286 151.157 59.2857 73.4431L 57.8715 72.0288C -20.6238 150.524 -20.6238 277.79 57.8715 356.286L 59.2857 354.872ZM 59.2857 73.4431L 73.4431 59.2857L 72.0288 57.8715L 57.8715 72.0288L 59.2857 73.4431Z"/>
<path id="path3_fill" d="M 71.2283 38.0761C 121.997 -12.692 204.308 -12.692 255.076 38.0761L 288.228 71.2283C 338.996 121.997 338.996 204.308 288.228 255.076L 255.076 288.228C 204.308 338.996 121.997 338.996 71.2283 288.228L 38.0761 255.076C -12.692 204.308 -12.692 121.997 38.0761 71.2283L 71.2283 38.0761Z"/>
<path id="path4_fill" d="M 74.6869 67L 98.1228 67C 112.072 67 123 56.6929 123 43.5337C 123 30.4425 111.839 19.7909 98.1228 19.7909C 95.638 19.7909 93.2761 20.3878 91.1296 21.0207C 90.9204 21.0768 90.697 21.0868 90.5104 21.0568C 90.0553 20.9667 89.6104 20.6222 89.475 20.2556C 85.0097 8.13991 73.1083 0 59.8578 0C 43.0748 0 29.2667 12.8228 28.424 29.1987C 28.4076 29.5652 28.217 29.8957 27.8889 30.1161C 27.5896 30.3203 27.1919 30.3684 26.9397 30.2963L 26.177 30.0099C 24.0838 29.377 22.0746 29.0565 20.2027 29.0565C 8.87329 29.0565 0 37.4247 0 48.1084C 0 58.7019 8.87329 67 20.2027 67L 74.6869 67Z"/>
<path id="path5_fill" fill-rule="evenodd" d="M 114.077 79.0821L 86.8309 79.0821C 85.5104 79.0821 84.4378 78.0206 84.4378 76.7085C 84.4378 75.3941 85.5104 74.3326 86.8309 74.3326L 114.077 74.3326C 127.838 74.3326 138.216 64.4671 138.216 51.3841C 138.216 38.5493 127.387 28.1094 114.077 28.1094C 111.937 28.1094 109.813 28.6153 107.284 29.3694C 106.3 29.646 105.292 29.6957 104.329 29.516C 102.126 29.0834 100.253 27.5183 99.5258 25.523C 95.0137 13.0972 82.9838 4.74951 69.5906 4.74951C 52.6291 4.74951 38.6757 17.9011 37.8224 34.6934C 37.7342 36.5942 36.7308 38.3767 35.1409 39.4548C 33.5892 40.5281 31.556 40.8283 29.7064 40.2302L 28.8531 39.8992C 27.0463 39.3531 25.1848 39.0458 23.4877 39.0458C 13 39.0458 4.78382 46.8355 4.78382 56.7838C 4.78382 66.7887 12.8236 74.3326 23.4877 74.3326L 45.3479 74.3326C 46.6708 74.3326 47.741 75.3941 47.741 76.7085C 47.741 78.0206 46.6708 79.0821 45.3479 79.0821L 23.4877 79.0821C 10.3161 79.0821 0 69.2876 0 56.7838C 0 44.1736 10.3161 34.2963 23.4877 34.2963C 25.6639 34.2963 27.9998 34.6745 30.4334 35.4216L 31.3201 35.7597C 31.6132 35.8448 32.0756 35.788 32.4236 35.5469C 32.805 35.2868 33.0267 34.8968 33.0458 34.4641C 34.0254 15.1351 50.0787 0 69.5906 0C 84.9956 0 98.8322 9.60778 104.024 23.9083C 104.181 24.341 104.698 24.7476 105.227 24.854C 105.444 24.8894 105.704 24.8776 105.947 24.8114C 108.443 24.0644 111.189 23.3599 114.077 23.3599C 130.024 23.3599 143 35.9322 143 51.3841C 143 66.9164 130.295 79.0821 114.077 79.0821Z"/>
<path id="path6_fill" fill-rule="evenodd" d="M 26.5079 29.3296C 24.9486 29.3296 23.6843 28.063 23.6843 26.5052C 23.6843 15.0041 14.3286 5.64879 2.82357 5.64879C 1.26429 5.64879 0 4.38502 0 2.8244C 0 1.26377 1.26429 0 2.82357 0C 17.4415 0 29.3342 11.8885 29.3342 26.5052C 29.3342 28.063 28.07 29.3296 26.5079 29.3296Z"/>
<path id="path7_fill" fill-rule="evenodd" d="M 19.0654 16.2367C 19.0654 17.7974 17.8012 19.0611 16.2391 19.0611C 14.677 19.0611 13.4127 17.7974 13.4127 16.2367C 13.4127 10.3985 8.66177 5.64879 2.82357 5.64879C 1.26148 5.64879 0 4.38502 0 2.8244C 0 1.26377 1.26148 0 2.82357 0C 11.7803 0 19.0654 7.28293 19.0654 16.2367Z"/>
<path id="path8_fill" d="M 53.1667 0L 3 0C 1.34315 0 0 1.34315 0 3L 0 112C 0 113.657 1.34315 115 3 115L 84 115C 85.6569 115 87 113.657 87 112L 87 35L 53.1667 0Z"/>
<path id="path9_fill" d="M 47.08 0L 15 0C 6.71573 0 0 6.71573 0 15L 0 95C 0 103.284 6.71573 110 15 110L 72 110C 80.2843 110 87 103.284 87 95L 87 39.2101C 87 35.1567 85.3596 31.2759 82.4523 28.4514L 57.5323 4.24127C 54.7327 1.52145 50.9832 0 47.08 0Z"/>
<path id="path10_fill" d="M 45.9353 0L 20 0C 8.9543 0 0 8.9543 0 20L 0 68C 0 79.0457 8.9543 88 20 88L 54 88C 65.0457 88 74 79.0457 74 68L 74 28.5619C 74 23.4645 72.0536 18.5594 68.5586 14.8488L 60.4939 6.28693C 56.7147 2.27471 51.4472 0 45.9353 0Z"/>
<path id="path11_stroke" d="M 2.5 -5C 1.11929 -5 0 -3.88071 0 -2.5C 0 -1.11929 1.11929 0 2.5 0L 2.5 -5ZM 29.8333 0C 31.214 0 32.3333 -1.11929 32.3333 -2.5C 32.3333 -3.88071 31.214 -5 29.8333 -5L 29.8333 0ZM 2.5 0L 29.8333 0L 29.8333 -5L 2.5 -5L 2.5 0Z"/>
<path id="path12_stroke" d="M 2.5 0C 2.5 -1.38071 1.38071 -2.5 0 -2.5C -1.38071 -2.5 -2.5 -1.38071 -2.5 0L 2.5 0ZM 0 12.7345L -2.5 12.7345C -2.5 14.1152 -1.38071 15.2345 5.55112e-16 15.2345L 0 12.7345ZM 13.6372 15.2345C 15.0179 15.2345 16.1372 14.1152 16.1372 12.7345C 16.1372 11.3538 15.0179 10.2345 13.6372 10.2345L 13.6372 15.2345ZM -2.5 0L -2.5 12.7345L 2.5 12.7345L 2.5 0L -2.5 0ZM 0 15.2345L 13.6372 15.2345L 13.6372 10.2345L 0 10.2345L 0 15.2345Z"/>
<path id="path13_fill" fill-rule="evenodd" d="M 53.8887 26.0422C 55.2695 26.0422 56.3887 27.1615 56.3887 28.5422L 56.3887 38.7767L 67.5264 38.7767C 68.9072 38.7767 70.0264 39.896 70.0264 41.2767C 70.0264 42.6574 68.9072 43.7767 67.5264 43.7767L 53.8887 43.7767C 52.5078 43.7767 51.3887 42.6574 51.3887 41.2767L 51.3887 28.5422C 51.3887 27.1615 52.5078 26.0422 53.8887 26.0422ZM 5 5L 57.2783 5L 92 38.0564L 92 113L 5 113L 5 5ZM 97 35.9131L 97 115C 97 116.657 95.6572 118 94 118L 3 118C 1.34277 118 0 116.657 0 115L 0 3C 0 1.34314 1.34277 0 3 0L 59.2773 0L 97 35.9131ZM 29.6396 72.5902C 29.6396 71.2095 30.7588 70.0902 32.1396 70.0902L 59.4727 70.0902C 60.8535 70.0902 61.9727 71.2095 61.9727 72.5902C 61.9727 73.9709 60.8535 75.0902 59.4727 75.0902L 32.1396 75.0902C 30.7588 75.0902 29.6396 73.9709 29.6396 72.5902ZM 32.1396 86.1812C 30.7588 86.1812 29.6396 87.3004 29.6396 88.6812C 29.6396 90.0619 30.7588 91.1812 32.1396 91.1812L 59.4727 91.1812C 60.8535 91.1812 61.9727 90.0619 61.9727 88.6812C 61.9727 87.3004 60.8535 86.1812 59.4727 86.1812L 32.1396 86.1812Z"/>
<path id="path14_fill" d="M 52.8 26.4L 0 0L 6 26.4L 0 54L 52.8 26.4Z"/>
<path id="path15_fill" fill-rule="evenodd" d="M 2.42837 9.70626L 0 0L 45.103 9.70626L 0 19.4151L 2.42837 9.70626Z"/>
<path id="path16_fill" fill-rule="evenodd" d="M 3.68626 0.274933L 54.5906 25.723C 56.4695 26.6623 56.4695 29.3377 54.5906 30.277L 3.68626 55.7251C 3.30736 55.916 2.92064 56 2.54369 56C 0.990952 56 -0.344986 54.5312 0.0798191 52.8307L 6.37181 28.0013L 0.0798191 3.16922C -0.344986 1.46878 0.990952 0 2.54369 0C 2.92064 0 3.30736 0.0840149 3.68626 0.274933ZM 51.2214 26.8837L 6.27123 17.2055L 2.56712 2.56082L 51.2214 26.8837ZM 6.98705 19.965L 8.99779 28.0013L 6.98705 36.0352L 44.3113 28.0013L 6.98705 19.965ZM 6.26244 38.7945L 2.54564 53.457L 51.2224 29.1162L 6.26244 38.7945Z"/>
<path id="path17_fill" d="M 46 23C 46 35.7025 35.7025 46 23 46C 10.2975 46 0 35.7025 0 23C 0 10.2975 10.2975 0 23 0C 35.7025 0 46 10.2975 46 23Z"/>
<path id="path18_stroke_2x" d="M 43 23C 43 34.0457 34.0457 43 23 43L 23 49C 37.3594 49 49 37.3594 49 23L 43 23ZM 23 43C 11.9543 43 3 34.0457 3 23L -3 23C -3 37.3594 8.6406 49 23 49L 23 43ZM 3 23C 3 11.9543 11.9543 3 23 3L 23 -3C 8.6406 -3 -3 8.6406 -3 23L 3 23ZM 23 3C 34.0457 3 43 11.9543 43 23L 49 23C 49 8.6406 37.3594 -3 23 -3L 23 3Z"/>
<path id="path19_fill" fill-rule="evenodd" d="M 8.75 2L 11.25 2C 12.9072 2 14.25 3.34314 14.25 5L 14.25 8.23523L 5.75 8.23523L 5.75 5C 5.75 3.34314 7.09277 2 8.75 2ZM 3.75 8.23523L 3.75 5C 3.75 2.23859 5.98828 0 8.75 0L 11.25 0C 14.0117 0 16.25 2.23859 16.25 5L 16.25 8.23523L 18 8.23523C 19.1045 8.23523 20 9.13065 20 10.2352L 20 17.9999C 20 19.1045 19.1045 19.9999 18 19.9999L 2 19.9999C 0.895508 19.9999 0 19.1045 0 17.9999L 0 10.2352C 0 9.13065 0.895508 8.23523 2 8.23523L 3.75 8.23523Z"/>
</defs>
</svg>
