<?xml version="1.0" encoding="utf-8"?>
<!-- Generator: Adobe Illustrator 15.1.0, SVG Export Plug-In . SVG Version: 6.00 Build 0)  -->
<!DOCTYPE svg PUBLIC "-//W3C//DTD SVG 1.1//EN" "http://www.w3.org/Graphics/SVG/1.1/DTD/svg11.dtd">
<svg version="1.1" id="Layer_1" xmlns="http://www.w3.org/2000/svg" xmlns:xlink="http://www.w3.org/1999/xlink" x="0px" y="0px"
	 width="24px" height="24px" viewBox="0 0 32 32" enable-background="new 0 0 32 32" xml:space="preserve">
<path d="M24.625,21.75c-1.525,0-2.867,0.74-3.725,1.868l-9.894-5.607c0.342-0.649,0.553-1.379,0.553-2.165
	c0-0.724-0.178-1.402-0.471-2.014l9.918-5.627c0.859,1.052,2.15,1.737,3.615,1.737c2.59,0,4.688-2.099,4.688-4.688
	s-2.1-4.688-4.688-4.688s-4.688,2.099-4.688,4.688c0,0.239,0.037,0.469,0.069,0.699L9.458,11.939
	c-0.741-0.491-1.627-0.78-2.583-0.78c-2.59,0-4.688,2.099-4.688,4.688c0,2.586,2.098,4.687,4.688,4.687
	c0.885,0,1.703-0.261,2.408-0.687L19.99,25.92c-0.02,0.172-0.053,0.34-0.053,0.518c0,2.588,2.098,4.688,4.688,4.688
	s4.688-2.101,4.688-4.688C29.313,23.852,27.215,21.75,24.625,21.75z M24.625,2.692c1.416,0,2.563,1.147,2.563,2.563
	s-1.146,2.563-2.563,2.563s-2.563-1.147-2.563-2.563S23.209,2.692,24.625,2.692z M6.875,18.408c-1.416,0-2.563-1.147-2.563-2.562
	c0-1.415,1.146-2.563,2.563-2.563s2.563,1.147,2.563,2.563C9.438,17.261,8.291,18.408,6.875,18.408z M24.625,29
	c-1.416,0-2.563-1.146-2.563-2.563c0-1.418,1.146-2.563,2.563-2.563s2.563,1.147,2.563,2.563S26.041,29,24.625,29z"/>
</svg>
