<?xml version="1.0" encoding="utf-8"?>
<!-- Generator: Adobe Illustrator 15.1.0, SVG Export Plug-In . SVG Version: 6.00 Build 0)  -->
<!DOCTYPE svg PUBLIC "-//W3C//DTD SVG 1.1//EN" "http://www.w3.org/Graphics/SVG/1.1/DTD/svg11.dtd">
<svg version="1.1" id="Layer_1" xmlns="http://www.w3.org/2000/svg" xmlns:xlink="http://www.w3.org/1999/xlink" x="0px" y="0px"
	 width="24px" height="24px" viewBox="0 0 32 32" enable-background="new 0 0 32 32" xml:space="preserve">
<path d="M9.571,23.23v4.692h19.4v-15.52h-6.308c-0.798,0-1.455-0.65-1.455-1.457V4.638H9.571v4.744L7.625,9.416V4.155
	c0-0.804,0.655-1.458,1.459-1.458h13.58c0.8,0,1.924,0.469,2.49,1.032l4.729,4.732c0.559,0.56,1.036,1.681,1.036,2.485V28.41
	c0,0.804-0.653,1.459-1.46,1.459H9.085c-0.805,0-1.459-0.646-1.459-1.459v-5.18H9.571z M23.15,10.462h5.699
	c-0.099-0.257-0.229-0.513-0.34-0.621l-4.742-4.749C23.665,4.988,23.4,4.85,23.143,4.76v5.699L23.15,10.462L23.15,10.462z
	 M1.659,11.78H0.202v7.292h4.325v-1.309H1.659V11.78z M7.522,11.659c-2,0-3.396,1.569-3.396,3.815c0,2.182,1.36,3.706,3.307,3.706
	c1.695,0,3.406-1.182,3.406-3.824C10.839,13.146,9.506,11.66,7.522,11.659z M7.483,17.893c-1.278,0-1.86-1.264-1.86-2.438
	c0-1.248,0.577-2.506,1.869-2.506c1.271,0,1.85,1.268,1.85,2.446C9.342,16.639,8.768,17.893,7.483,17.893z M14.293,14.965v1.277
	h1.356v1.51c-0.157,0.043-0.429,0.091-0.865,0.091c-1.44,0-2.298-0.904-2.298-2.418c0-1.507,0.899-2.407,2.407-2.407
	c0.549,0,0.981,0.083,1.36,0.261l0.302,0.142l0.392-1.265l-0.226-0.108c-0.321-0.156-0.988-0.337-1.807-0.337
	c-2.348,0-3.925,1.508-3.925,3.754c0,1.091,0.373,2.079,1.026,2.71c0.682,0.648,1.568,0.964,2.708,0.964
	c1.086,0,1.94-0.295,2.175-0.387l0.187-0.071v-3.715H14.293z M18.451,15.467h8.743c0.281,0,0.498,0.219,0.498,0.5v0.999
	c0,0.28-0.217,0.5-0.498,0.5h-8.743c-0.281,0-0.499-0.22-0.499-0.5v-0.999C17.952,15.685,18.17,15.467,18.451,15.467z M27.69,19.957
	v1.001c0,0.28-0.217,0.499-0.5,0.499h-10.22c-0.281,0-0.5-0.219-0.5-0.499v-1.001c0-0.279,0.218-0.498,0.5-0.498h10.224
	C27.474,19.459,27.69,19.678,27.69,19.957z M27.69,23.953v0.994c0,0.283-0.217,0.502-0.5,0.502H14.896c-0.282,0-0.5-0.219-0.5-0.502
	v-0.994c0-0.281,0.217-0.5,0.5-0.5H27.19C27.474,23.451,27.69,23.674,27.69,23.953z"/>
</svg>
