<svg width="28" height="23" viewBox="0 0 28 23" fill="none" xmlns="http://www.w3.org/2000/svg">
<path d="M4.38904 5.26755C4.38904 2.36128 6.74859 0.000976532 9.65561 0.000976532C12.5634 0.000976532 14.9229 2.36128 14.9229 5.26755C14.9229 8.17533 12.5634 10.5341 9.65561 10.5341C6.74784 10.5341 4.38904 8.17533 4.38904 5.26755Z" fill="#828282"/>
<path d="M14.5675 11.2915C14.3466 11.2915 14.1958 11.3865 14.0321 11.5245C12.6883 12.5531 11.3845 13.1986 9.65539 13.1986C7.92701 13.1986 6.62394 12.5539 5.28015 11.5245C5.11576 11.3873 4.96494 11.2915 4.7455 11.2915C0.726944 11.2915 0 16.0513 0 19.1499C0 21.3865 1.46746 22.7024 3.66187 22.7024H15.6497C16.4724 22.7024 17.323 22.5101 17.9949 22.0169C17.9949 22.0169 18.8274 21.198 19.163 19.2193C19.3575 18.07 18.9179 11.2923 14.5675 11.2915Z" fill="#828282"/>
<path fill-rule="evenodd" clip-rule="evenodd" d="M14.8556 9.11114C15.7974 9.99362 17.0635 10.5341 18.4554 10.5341C21.3632 10.5341 23.7228 8.17533 23.7228 5.26755C23.7228 2.36128 21.3632 0.000976562 18.4554 0.000976562C17.0638 0.000976562 15.7976 0.541877 14.8557 1.42464C15.8815 2.38591 16.5227 3.75255 16.5227 5.26755C16.5227 6.78341 15.8815 8.15008 14.8556 9.11114Z" fill="#828282"/>
<path fill-rule="evenodd" clip-rule="evenodd" d="M17.2501 22.7034H24.45C25.2727 22.7034 26.1233 22.5111 26.7952 22.0179C26.7952 22.0179 27.6277 21.199 27.9633 19.2202C28.1578 18.071 27.7182 11.2932 23.3678 11.2925C23.1469 11.2925 22.9961 11.3875 22.8324 11.5255C21.7345 12.3659 20.6633 12.9505 19.3651 13.1363C20.7431 15.2314 20.8922 18.4594 20.7634 19.2202C20.4279 21.199 19.5953 22.0179 19.5953 22.0179C18.9234 22.5111 18.0728 22.7034 17.2501 22.7034Z" fill="#828282"/>
</svg>
