<svg width="22" height="17" viewBox="0 0 22 17" fill="none" xmlns="http://www.w3.org/2000/svg">
<path d="M19.6771 13.3614H17.5037C17.3452 13.3614 17.2152 13.2335 17.2152 13.0729C17.2152 12.9143 17.3452 12.7832 17.5037 12.7832H19.6423C19.8537 12.7303 21.1179 12.3593 21.0905 11.1902C21.0778 10.6585 20.9065 10.2488 20.5831 9.9734C19.8896 9.38623 18.7184 9.54109 18.7078 9.54318C18.6285 9.5527 18.5524 9.53367 18.4911 9.4856C18.4298 9.43957 18.3907 9.36876 18.3801 9.29054C18.3695 9.21019 18.1158 7.2741 16.4879 7.12662C14.8853 6.98129 14.4709 8.80481 14.4561 8.8809C14.4223 9.03785 14.269 9.13569 14.1136 9.10294C13.9593 9.06858 13.8599 8.91583 13.8916 8.75884C14.0713 7.92848 14.8536 6.3978 16.5407 6.549C18.0524 6.68689 18.7162 8.05269 18.9065 8.94807C19.3674 8.92905 20.2966 8.97291 20.9573 9.53156C21.4097 9.91795 21.6487 10.4729 21.6666 11.1733C21.7015 12.5559 20.4192 13.2029 19.7385 13.352C19.7173 13.3593 19.6962 13.3614 19.6771 13.3614Z" fill="white"/>
<path d="M10.8955 10.9048H9.76548C9.60691 10.9048 9.479 10.7763 9.479 10.6178C9.479 10.4571 9.60691 10.3286 9.76548 10.3286H10.8955C11.0552 10.3286 11.1852 10.4571 11.1852 10.6178C11.1852 10.7747 11.0552 10.9048 10.8955 10.9048Z" fill="white"/>
<path d="M11.4791 15.4404H10.3459C10.1873 15.4404 10.0583 15.3125 10.0583 15.1518C10.0583 14.9932 10.1873 14.8643 10.3459 14.8643H11.4791C11.6376 14.8643 11.7666 14.9932 11.7666 15.1518C11.7666 15.3125 11.6376 15.4404 11.4791 15.4404Z" fill="white"/>
<path d="M18.8685 15.4404H17.0872C16.9287 15.4404 16.8008 15.3125 16.8008 15.1518C16.8008 14.9932 16.9287 14.8643 17.0872 14.8643H18.8685C19.0292 14.8643 19.1592 14.9932 19.1592 15.1518C19.1592 15.3125 19.0292 15.4404 18.8685 15.4404Z" fill="white"/>
<path d="M10.8957 13.3661H8.41678C8.2561 13.3661 8.12817 13.2361 8.12817 13.0797C8.12817 12.919 8.2561 12.79 8.41678 12.79H10.8957C11.0553 12.79 11.1853 12.919 11.1853 13.0797C11.1853 13.2361 11.0553 13.3661 10.8957 13.3661Z" fill="white"/>
<path d="M16.919 13.6457C16.919 15.4702 14.2403 16.9513 14.2403 16.9513C14.2403 16.9513 11.5637 15.4702 11.5637 13.6457V9.94793L14.2403 9.47168L16.919 9.94793V13.6457Z" fill="white"/>
<path d="M13.8524 13.5388C13.7964 13.5388 13.7414 13.5156 13.7012 13.4754L12.9211 12.6952C12.8365 12.6128 12.8365 12.4754 12.9211 12.3908C13.0036 12.3062 13.141 12.3062 13.2255 12.3908L13.8524 13.0187L15.2584 11.6117C15.3409 11.5298 15.4793 11.5298 15.5607 11.6117C15.6453 11.6963 15.6453 11.8326 15.5607 11.9141L14.0036 13.4754C13.9634 13.5177 13.9105 13.5388 13.8524 13.5388Z" fill="white"/>
<path d="M21.4258 7.13985C21.4269 7.12298 21.4276 7.106 21.4276 7.08887C21.4276 7.07174 21.4269 7.05477 21.4258 7.0379V3.53067C21.4258 2.74608 20.7719 2.48454 20.2487 2.48454H10.0474L8.2164 0.523062L8.08561 0.392297C7.95482 0.261531 7.81586 0.179803 7.69325 0.130766C7.30089 0 6.90853 0 6.77775 0H6.38539H6.12381H2.06944C1.93865 0 1.54629 0 1.28472 0.130766C1.02315 0.261531 0.892359 0.392297 0.761573 0.523062C0.630786 0.653828 0.5 0.915359 0.5 1.30766V15.4303C0.5 16.3457 1.15393 16.9995 1.93865 16.9995H7.62354C7.62971 16.9997 7.63583 17 7.64207 17C8.09151 17 8.45584 16.6194 8.45584 16.1498C8.45584 15.6802 8.09149 15.2996 7.64207 15.2996L2.06944 15.2995V1.69993H6.12381H6.64696H7.1701L9.00111 3.79218L9.26269 4.05371H19.8564V7.06523C19.8572 7.06265 19.8581 7.06015 19.8589 7.05758C19.8585 7.06797 19.8581 7.07837 19.8581 7.08885C19.8581 7.52907 20.2095 7.88591 20.6429 7.88591C21.0568 7.88591 21.3957 7.5603 21.4253 7.14748L21.4258 7.15001V7.13985Z" fill="white"/>
</svg>
