<svg width="56" height="56" viewBox="0 0 56 56" version="1.1" xmlns="http://www.w3.org/2000/svg" xmlns:xlink="http://www.w3.org/1999/xlink">
<title>share</title>
<desc>Created using Figma</desc>
<g id="Canvas" transform="translate(19343 9569)">
<g id="share">
<g id="Ellipse 2" filter="url(#filter0_d)">
<use xlink:href="#path0_fill" transform="translate(-19339 -9567)" fill="url(#paint0_linear)"/>
<use xlink:href="#path0_fill" transform="translate(-19339 -9567)" fill="#FFFFFF"/>
</g>
<g id="share - black">
<use xlink:href="#path1_fill" transform="translate(-19322 -9551)"/>
</g>
</g>
</g>
<defs>
<filter id="filter0_d" filterUnits="userSpaceOnUse" x="-19343" y="-9569" width="56" height="56" color-interpolation-filters="sRGB">
<feFlood flood-opacity="0" result="BackgroundImageFix"/>
<feColorMatrix in="SourceAlpha" type="matrix" values="0 0 0 0 0 0 0 0 0 0 0 0 0 0 0 0 0 0 255 0"/>
<feOffset dx="0" dy="2"/>
<feGaussianBlur stdDeviation="2"/>
<feColorMatrix type="matrix" values="0 0 0 0 0 0 0 0 0 0 0 0 0 0 0 0 0 0 0.12 0"/>
<feBlend mode="normal" in2="BackgroundImageFix" result="effect1_dropShadow"/>
<feBlend mode="normal" in="SourceGraphic" in2="effect1_dropShadow" result="shape"/>
</filter>
<linearGradient id="paint0_linear" x1="0" y1="0" x2="1" y2="0" gradientUnits="userSpaceOnUse" gradientTransform="matrix(2.93915e-15 48 -48 2.93915e-15 48 -2.93915e-15)">
<stop offset="0" stop-color="#34994C"/>
<stop offset="1" stop-color="#70B55B"/>
</linearGradient>
<path id="path0_fill" d="M 48 24C 48 37.2548 37.2548 48 24 48C 10.7452 48 0 37.2548 0 24C 0 10.7452 10.7452 0 24 0C 37.2548 0 48 10.7452 48 24Z"/>
<path id="path1_fill" fill-rule="evenodd" d="M 9 3C 9 1.34277 10.3438 0 12 0C 13.6562 0 15 1.34277 15 3C 15 4.65723 13.6562 6 12 6C 11.334 6 10.7188 5.78223 10.2207 5.41406C 10.1152 5.33594 10.0137 5.25195 9.91992 5.16113L 5.92773 7.46777C 5.97461 7.68066 6 7.90137 6 8.12793C 6 8.2832 5.98828 8.43652 5.96484 8.58496L 9.91992 10.8682C 10.459 10.3496 11.1934 10.0303 12 10.0303C 13.6562 10.0303 15 11.373 15 13.0303C 15 14.6875 13.6562 16.0303 12 16.0303C 10.3438 16.0303 9 14.6875 9 13.0303C 9 12.9043 9.00781 12.7803 9.02344 12.6592L 5.01758 10.3477C 4.48438 10.833 3.77734 11.1279 3 11.1279C 1.34375 11.1279 0 9.78516 0 8.12793C 0 6.4707 1.34375 5.12793 3 5.12793C 3.70312 5.12793 4.34766 5.37012 4.85938 5.77441L 9.02344 3.37109C 9.00781 3.25 9 3.12598 9 3Z"/>
</defs>
</svg>
