<svg width="725" height="441" viewBox="0 0 725 441" version="1.1" xmlns="http://www.w3.org/2000/svg" xmlns:xlink="http://www.w3.org/1999/xlink" xmlns:figma="http://www.figma.com/figma/ns">
<title>skyDRM intro img</title>
<desc>Created using Figma</desc>
<g id="Canvas" transform="translate(14949 389)" figma:type="canvas">
<g id="skyDRM intro img" figma:type="frame">
<g id="Rectangle 30" figma:type="rounded-rectangle">
<use xlink:href="#path0_fill" transform="translate(-14949 -326)" fill="url(#paint0_linear)"/>
</g>
<mask id="mask0_alpha" mask-type="alpha">
<path d="M -14924 -389L -14249 -389L -14249 52L -14924 52L -14924 -389Z" fill="#FFFFFF"/>
</mask>
<g id="Desktop" mask="url(#mask0_alpha)" figma:type="frame">
<g id="Rectangle 8" figma:type="vector">
<use xlink:href="#path1_fill" transform="translate(-14924 -389)" fill="#1B1951"/>
</g>
<g id="Ellipse 2" figma:type="ellipse">
<use xlink:href="#path2_fill" transform="translate(-14913.6 -378.324)" fill="#C4C4C4"/>
</g>
<g id="Ellipse 2" figma:type="ellipse">
<use xlink:href="#path2_fill" transform="translate(-14894.2 -378.324)" fill="#C4C4C4"/>
</g>
<g id="Ellipse 2" figma:type="ellipse">
<use xlink:href="#path2_fill" transform="translate(-14874.7 -378.324)" fill="#C4C4C4"/>
</g>
<g id="Rectangle 9" figma:type="rounded-rectangle">
<use xlink:href="#path3_fill" transform="translate(-14924 -359)" fill="#FFFFFF"/>
</g>
<g id="Content" figma:type="frame">
<g id="BG" figma:type="rounded-rectangle">
<use xlink:href="#path4_fill" transform="translate(-14809 -341)" fill="#FFFFFF"/>
</g>
<g id="file" figma:type="instance">
<path d="M -14790.8 -313.852L -14266.2 -313.852L -14266.2 -257.958L -14790.8 -257.958L -14790.8 -313.852Z" fill="#FBFBFB"/>
<g id="Group" figma:type="frame">
<g id="Rectangle 52" figma:type="rounded-rectangle">
<use xlink:href="#path5_fill" transform="translate(-14720.8 -297.852)" fill="#ECECF1"/>
</g>
<g id="Rectangle 52" figma:type="rounded-rectangle">
<use xlink:href="#path6_fill" transform="translate(-14720.8 -273.852)" fill="#ECECF1"/>
</g>
</g>
<g id="ellipsis" figma:type="vector-operation">
<use xlink:href="#path7_fill" transform="translate(-14289.8 -287.501)" fill="#BDBDBD"/>
</g>
<g id="Line" figma:type="line">
<use xlink:href="#path8_stroke" transform="translate(-14790.8 -257.852)" fill="#E0E0E0"/>
</g>
<g id="Rectangle 53" figma:type="rounded-rectangle">
<use xlink:href="#path9_fill" transform="translate(-14773.8 -292.852)" fill="#ECECF1"/>
</g>
<g id="Rectangle 54" figma:type="rounded-rectangle">
<use xlink:href="#path10_fill" transform="translate(-14436.8 -286.852)" fill="#ECECF1"/>
</g>
</g>
<g id="file" figma:type="instance">
<g id="Group" figma:type="frame">
<g id="Rectangle 52" figma:type="rounded-rectangle">
<use xlink:href="#path5_fill" transform="translate(-14720.8 -241.958)" fill="#D4D4DF"/>
</g>
<g id="Rectangle 52" figma:type="rounded-rectangle">
<use xlink:href="#path6_fill" transform="translate(-14720.8 -217.958)" fill="#ECECF1"/>
</g>
</g>
<g id="ellipsis" figma:type="vector-operation">
<use xlink:href="#path11_fill" transform="translate(-14289.8 -231.608)" fill="#BDBDBD"/>
</g>
<g id="Line" figma:type="line">
<use xlink:href="#path8_stroke" transform="translate(-14790.8 -201.958)" fill="#E0E0E0"/>
</g>
<g id="Rectangle 53" figma:type="rounded-rectangle">
<use xlink:href="#path9_fill" transform="translate(-14773.8 -236.958)" fill="#ECECF1"/>
</g>
<g id="Rectangle 54" figma:type="rounded-rectangle">
<use xlink:href="#path10_fill" transform="translate(-14436.8 -230.958)" fill="#ECECF1"/>
</g>
</g>
<g id="file" figma:type="instance">
<g id="Group" figma:type="frame">
<g id="Rectangle 52" figma:type="rounded-rectangle">
<use xlink:href="#path5_fill" transform="translate(-14720.8 -186.064)" fill="#D4D4DF"/>
</g>
<g id="Rectangle 52" figma:type="rounded-rectangle">
<use xlink:href="#path6_fill" transform="translate(-14720.8 -162.064)" fill="#ECECF1"/>
</g>
</g>
<g id="ellipsis" figma:type="vector-operation">
<use xlink:href="#path11_fill" transform="translate(-14289.8 -175.714)" fill="#BDBDBD"/>
</g>
<g id="Line" figma:type="line">
<use xlink:href="#path8_stroke" transform="translate(-14790.8 -146.064)" fill="#E0E0E0"/>
</g>
<g id="Rectangle 53" figma:type="rounded-rectangle">
<use xlink:href="#path9_fill" transform="translate(-14773.8 -181.064)" fill="#ECECF1"/>
</g>
<g id="Rectangle 54" figma:type="rounded-rectangle">
<use xlink:href="#path10_fill" transform="translate(-14436.8 -175.064)" fill="#ECECF1"/>
</g>
</g>
<g id="file" figma:type="instance">
<g id="Group" figma:type="frame">
<g id="Rectangle 52" figma:type="rounded-rectangle">
<use xlink:href="#path5_fill" transform="translate(-14720.8 -130.17)" fill="#D4D4DF"/>
</g>
<g id="Rectangle 52" figma:type="rounded-rectangle">
<use xlink:href="#path6_fill" transform="translate(-14720.8 -106.17)" fill="#ECECF1"/>
</g>
</g>
<g id="ellipsis" figma:type="vector-operation">
<use xlink:href="#path11_fill" transform="translate(-14289.8 -119.82)" fill="#BDBDBD"/>
</g>
<g id="Line" figma:type="line">
<use xlink:href="#path8_stroke" transform="translate(-14790.8 -90.1697)" fill="#E0E0E0"/>
</g>
<g id="Rectangle 53" figma:type="rounded-rectangle">
<use xlink:href="#path9_fill" transform="translate(-14773.8 -125.17)" fill="#ECECF1"/>
</g>
<g id="Rectangle 54" figma:type="rounded-rectangle">
<use xlink:href="#path10_fill" transform="translate(-14436.8 -119.17)" fill="#ECECF1"/>
</g>
</g>
<g id="file" figma:type="instance">
<g id="Group" figma:type="frame">
<g id="Rectangle 52" figma:type="rounded-rectangle">
<use xlink:href="#path5_fill" transform="translate(-14720.8 -75.8727)" fill="#D4D4DF"/>
</g>
<g id="Rectangle 52" figma:type="rounded-rectangle">
<use xlink:href="#path6_fill" transform="translate(-14720.8 -51.8727)" fill="#ECECF1"/>
</g>
</g>
<g id="ellipsis" figma:type="vector-operation">
<use xlink:href="#path12_fill" transform="translate(-14289.8 -65.5227)" fill="#BDBDBD"/>
</g>
<g id="Line" figma:type="line">
<use xlink:href="#path8_stroke" transform="translate(-14790.8 -35.8727)" fill="#E0E0E0"/>
</g>
<g id="Rectangle 53" figma:type="rounded-rectangle">
<use xlink:href="#path9_fill" transform="translate(-14773.8 -70.8727)" fill="#ECECF1"/>
</g>
<g id="Rectangle 54" figma:type="rounded-rectangle">
<use xlink:href="#path10_fill" transform="translate(-14436.8 -64.8727)" fill="#ECECF1"/>
</g>
</g>
<g id="file" figma:type="instance">
<g id="Group" figma:type="frame">
<g id="Rectangle 52" figma:type="rounded-rectangle">
<use xlink:href="#path5_fill" transform="translate(-14720.8 -19.9788)" fill="#D4D4DF"/>
</g>
<g id="Rectangle 52" figma:type="rounded-rectangle">
<use xlink:href="#path6_fill" transform="translate(-14720.8 4.02121)" fill="#ECECF1"/>
</g>
</g>
<g id="ellipsis" figma:type="vector-operation">
<use xlink:href="#path13_fill" transform="translate(-14289.8 -9.62879)" fill="#BDBDBD"/>
</g>
<g id="Line" figma:type="line">
<use xlink:href="#path8_stroke" transform="translate(-14790.8 20.0212)" fill="#E0E0E0"/>
</g>
<g id="Rectangle 53" figma:type="rounded-rectangle">
<use xlink:href="#path9_fill" transform="translate(-14773.8 -14.9788)" fill="#ECECF1"/>
</g>
<g id="Rectangle 54" figma:type="rounded-rectangle">
<use xlink:href="#path10_fill" transform="translate(-14436.8 -8.97879)" fill="#ECECF1"/>
</g>
</g>
<g id="file" figma:type="instance">
<g id="Group" figma:type="frame">
<g id="Rectangle 52" figma:type="rounded-rectangle">
<use xlink:href="#path5_fill" transform="translate(-14720.8 35.9152)" fill="#D4D4DF"/>
</g>
</g>
<g id="ellipsis" figma:type="vector-operation">
<use xlink:href="#path14_fill" transform="translate(-14289.8 46.2652)" fill="#BDBDBD"/>
</g>
<g id="Rectangle 53" figma:type="rounded-rectangle">
<use xlink:href="#path9_fill" transform="translate(-14773.8 40.9152)" fill="#ECECF1"/>
</g>
<g id="Rectangle 54" figma:type="rounded-rectangle">
<use xlink:href="#path10_fill" transform="translate(-14436.8 46.9152)" fill="#ECECF1"/>
</g>
</g>
<g id="header" figma:type="frame">
<g id="Line 7" figma:type="line">
<use xlink:href="#path8_stroke" transform="translate(-14790.8 -314.008)" fill="#E0E0E0"/>
</g>
<g id="Rectangle 55" figma:type="rounded-rectangle">
<use xlink:href="#path15_fill" transform="translate(-14720.8 -337.008)" fill="#D4D4DF"/>
</g>
<g id="Rectangle 55" figma:type="rounded-rectangle">
<use xlink:href="#path15_fill" transform="translate(-14436.6 -337.008)" fill="#ECECF1"/>
</g>
</g>
</g>
<g id="Rectangle 57" figma:type="rounded-rectangle">
<use xlink:href="#path16_fill" transform="translate(-14924 -359)" fill="#D4D4DF"/>
</g>
<g id="Rectangle 58" figma:type="rounded-rectangle">
<use xlink:href="#path17_fill" transform="translate(-14924 -329)" fill="#FFFFFF"/>
</g>
<g id="Rectangle 58" figma:type="rounded-rectangle">
<use xlink:href="#path18_fill" transform="translate(-14882 -279)" fill="#FFFFFF"/>
</g>
<g id="Rectangle 58" figma:type="rounded-rectangle">
<use xlink:href="#path18_fill" transform="translate(-14911 -347)" fill="#FFFFFF"/>
</g>
<g id="Rectangle 58" figma:type="rounded-rectangle">
<use xlink:href="#path18_fill" transform="translate(-14882 -244)" fill="#FFFFFF"/>
</g>
<g id="Rectangle 58" figma:type="rounded-rectangle">
<use xlink:href="#path18_fill" transform="translate(-14882 -208)" fill="#FFFFFF"/>
</g>
<g id="Rectangle 58" figma:type="rounded-rectangle">
<use xlink:href="#path18_fill" transform="translate(-14882 -173)" fill="#FFFFFF"/>
</g>
<mask id="mask1_alpha" mask-type="alpha">
<path d="M -14911 -286L -14891 -286L -14891 -266L -14911 -266L -14911 -286Z" fill="#FFFFFF"/>
</mask>
<g id="onedrive - black" mask="url(#mask1_alpha)" figma:type="frame">
<g id="Group" figma:type="frame">
<g id="Vector" figma:type="vector">
<use xlink:href="#path19_fill" transform="translate(-14906.4 -279.191)" fill="#FFFFFF"/>
</g>
<g id="Vector" figma:type="vector">
<use xlink:href="#path20_fill" transform="translate(-14911 -282)" fill="#FFFFFF"/>
</g>
</g>
</g>
<mask id="mask2_alpha" mask-type="alpha">
<path d="M -14912 -322L -14892 -322L -14892 -302L -14912 -302L -14912 -322Z" fill="#FFFFFF"/>
</mask>
<g id="CloudRepository_P" mask="url(#mask2_alpha)" figma:type="frame">
<g id="Vector" figma:type="vector">
<use xlink:href="#path21_fill" transform="translate(-14911 -322)" fill="#D4D4DF"/>
</g>
</g>
<g id="sharepoint - black" figma:type="frame">
<g id="Vector" figma:type="vector">
<use xlink:href="#path22_fill" transform="translate(-14911 -214)" fill="#FFFFFF"/>
</g>
</g>
<g id="google drive - black" figma:type="frame">
<g id="Vector" figma:type="vector">
<use xlink:href="#path23_fill" transform="translate(-14911 -177.405)" fill="#FFFFFF"/>
</g>
<g id="Vector" figma:type="vector">
<use xlink:href="#path24_fill" transform="translate(-14907 -165.551)" fill="#FFFFFF"/>
</g>
<g id="Vector" figma:type="vector">
<use xlink:href="#path25_fill" transform="translate(-14903.4 -178)" fill="#FFFFFF"/>
</g>
</g>
<g id="MyVault" figma:type="frame">
<g id="Group" figma:type="frame">
<g id="Vector" figma:type="vector">
<use xlink:href="#path26_fill" transform="translate(-14911 -125)" fill="#FFFFFF"/>
</g>
<g id="Vector" figma:type="vector">
<use xlink:href="#path27_fill" transform="translate(-14895.3 -117.222)" fill="#FFFFFF"/>
</g>
<g id="Vector" figma:type="vector">
<use xlink:href="#path28_fill" transform="translate(-14904 -117.962)" fill="#FFFFFF"/>
</g>
</g>
</g>
<mask id="mask3_alpha" mask-type="alpha">
<path d="M -14912 -250L -14892 -250L -14892 -230L -14912 -230L -14912 -250Z" fill="#FFFFFF"/>
</mask>
<g id="dropbox - black" mask="url(#mask3_alpha)" figma:type="frame">
<g id="Group" figma:type="frame">
<g id="Vector" figma:type="vector">
<use xlink:href="#path29_fill" transform="translate(-14912 -249)" fill="#FFFFFF"/>
</g>
<g id="Vector" figma:type="vector">
<use xlink:href="#path30_fill" transform="translate(-14912 -241.902)" fill="#FFFFFF"/>
</g>
<g id="Vector" figma:type="vector">
<use xlink:href="#path31_fill" transform="translate(-14902 -241.902)" fill="#FFFFFF"/>
</g>
<g id="Vector" figma:type="vector">
<use xlink:href="#path32_fill" transform="translate(-14902 -249)" fill="#FFFFFF"/>
</g>
<g id="Vector" figma:type="vector">
<use xlink:href="#path33_fill" transform="translate(-14907.9 -237.498)" fill="#FFFFFF"/>
</g>
</g>
</g>
<g id="MyDrive" figma:type="text">
<use xlink:href="#path34_fill" transform="translate(-14882 -321)" fill="#1B1951"/>
</g>
<g id="MyVault" figma:type="text">
<use xlink:href="#path35_fill" transform="translate(-14882 -122)" fill="#1B1951"/>
</g>
<g id="Line 16" figma:type="line">
<use xlink:href="#path36_stroke" transform="translate(-14908 -141)" fill="#1B1951"/>
</g>
<g id="Group" figma:type="frame">
<g id="Rectangle 56" filter="url(#filter0_d)" figma:type="vector">
<use xlink:href="#path37_fill" transform="translate(-14470 -247)" fill="#FFFFFF"/>
</g>
<g id="Rectangle 56" filter="url(#filter1_d)" figma:type="vector">
<use xlink:href="#path38_fill" transform="translate(-14470 -113)" fill="#FFFFFF"/>
</g>
<g id="Share" figma:type="text">
<use xlink:href="#path39_fill" transform="translate(-14416 -193)" fill="#1B1951"/>
</g>
<g id="Protect" figma:type="text">
<use xlink:href="#path40_fill" transform="translate(-14416 -153)" fill="#1B1951"/>
</g>
<g id="File info" figma:type="text">
<use xlink:href="#path41_fill" transform="translate(-14416 -99)" fill="#1B1951"/>
</g>
<g id="share - black" figma:type="vector-operation">
<use xlink:href="#path42_fill" transform="translate(-14450 -191.016)" fill="#1B1951"/>
</g>
<g id="protect - black" figma:type="vector-operation">
<use xlink:href="#path43_fill" transform="translate(-14449 -153)" fill="#1B1951"/>
</g>
<g id="Union" figma:type="vector-operation">
<use xlink:href="#path44_fill" transform="translate(-14450 -100)" fill="#1B1951"/>
</g>
<g id="Rectangle 59" figma:type="rounded-rectangle">
<use xlink:href="#path45_fill" transform="translate(-14470 -247)" fill="#F2F3F5"/>
</g>
</g>
<g id="Ellipse 16" figma:type="ellipse">
<use xlink:href="#path46_fill" transform="translate(-14296 -242)" fill="#D4D4DF"/>
</g>
<g id="ellipsis" figma:type="vector-operation">
<use xlink:href="#path47_fill" transform="translate(-14290 -232)" fill="#FFFFFF"/>
</g>
<g id="Flig-ext.dwg" figma:type="text">
<use xlink:href="#path48_fill" transform="translate(-14428 -238)" fill="#1B1951"/>
</g>
</g>
</g>
</g>
<defs>
<filter id="filter0_d" filterUnits="userSpaceOnUse" x="-14494" y="-267" width="215" height="182" color-interpolation-filters="sRGB">
<feFlood flood-opacity="0" result="BackgroundImageFix"/>
<desc>type="dropShadow" x="0" y="4" size="24" spread="0" color="0,0,0,0.25" blend="normal"</desc>
<feColorMatrix in="SourceAlpha" type="matrix" values="0 0 0 0 0 0 0 0 0 0 0 0 0 0 0 0 0 0 255 0"/>
<feOffset dx="0" dy="4"/>
<feGaussianBlur stdDeviation="12"/>
<feColorMatrix type="matrix" values="0 0 0 0 0 0 0 0 0 0 0 0 0 0 0 0 0 0 0.25 0"/>
<feBlend mode="normal" in2="BackgroundImageFix" result="effect1_dropShadow"/>
<feBlend mode="normal" in="SourceGraphic" in2="effect1_dropShadow" result="shape"/>
</filter>
<filter id="filter1_d" filterUnits="userSpaceOnUse" x="-14494" y="-133" width="215" height="96" color-interpolation-filters="sRGB">
<feFlood flood-opacity="0" result="BackgroundImageFix"/>
<desc>type="dropShadow" x="0" y="4" size="24" spread="0" color="0,0,0,0.25" blend="normal"</desc>
<feColorMatrix in="SourceAlpha" type="matrix" values="0 0 0 0 0 0 0 0 0 0 0 0 0 0 0 0 0 0 255 0"/>
<feOffset dx="0" dy="4"/>
<feGaussianBlur stdDeviation="12"/>
<feColorMatrix type="matrix" values="0 0 0 0 0 0 0 0 0 0 0 0 0 0 0 0 0 0 0.25 0"/>
<feBlend mode="normal" in2="BackgroundImageFix" result="effect1_dropShadow"/>
<feBlend mode="normal" in="SourceGraphic" in2="effect1_dropShadow" result="shape"/>
</filter>
<linearGradient id="paint0_linear" x1="0" y1="0" x2="1" y2="0" gradientUnits="userSpaceOnUse" gradientTransform="matrix(725 2.25422e-05 -4.95911e-05 1832.87 2.47955e-05 -743.983)">
<stop offset="0" stop-color="#34994C"/>
<stop offset="1" stop-color="#70B55B"/>
</linearGradient>
<path id="path0_fill" d="M 0 0L 725 0L 725 346L 0 346L 0 0Z"/>
<path id="path1_fill" d="M 0 7.78264C 0 3.48441 3.48441 0 7.78264 0L 667.217 0C 671.516 0 675 3.48441 675 7.78264L 675 30L 0 30L 0 7.78264Z"/>
<path id="path2_fill" d="M 9.08138 4.53906C 9.08138 7.04592 7.04844 9.07812 4.54069 9.07812C 2.03294 9.07812 0 7.04592 0 4.53906C 0 2.03221 2.03294 0 4.54069 0C 7.04844 0 9.08138 2.03221 9.08138 4.53906Z"/>
<path id="path3_fill" d="M 0 0L 675 0L 675 411L 0 411L 0 0Z"/>
<path id="path4_fill" d="M 0 0L 561 0L 561 527L 0 527L 0 0Z"/>
<path id="path5_fill" d="M 0 2C 0 0.895431 0.895431 0 2 0L 211 0C 212.105 0 213 0.895431 213 2L 213 18C 213 19.1046 212.105 20 211 20L 2 20C 0.895431 20 0 19.1046 0 18L 0 2Z"/>
<path id="path6_fill" d="M 0 2C 0 0.895431 0.895431 0 2 0L 70 0C 71.1046 0 72 0.895431 72 2L 72 8C 72 9.10457 71.1046 10 70 10L 2 10C 0.895431 10 0 9.10457 0 8L 0 2Z"/>
<path id="path7_fill" fill-rule="evenodd" d="M 2.55957 1.50775C 2.55957 2.34042 1.98633 3.01547 1.2793 3.01547C 0.573242 3.01547 0 2.34042 0 1.50775C 0 0.675049 0.573242 0 1.2793 0C 1.98633 0 2.55957 0.675049 2.55957 1.50775ZM 7.03906 1.50775C 7.03906 2.34042 6.46582 3.01547 5.75879 3.01547C 5.05273 3.01547 4.47949 2.34042 4.47949 1.50775C 4.47949 0.675049 5.05273 0 5.75879 0C 6.46582 0 7.03906 0.675049 7.03906 1.50775ZM 10.2373 3.01547C 10.9443 3.01547 11.5176 2.34042 11.5176 1.50775C 11.5176 0.675049 10.9443 0 10.2373 0C 9.53125 0 8.95801 0.675049 8.95801 1.50775C 8.95801 2.34042 9.53125 3.01547 10.2373 3.01547Z"/>
<path id="path8_stroke" d="M 0 0L 525 0L 525 -1L 0 -1L 0 0Z"/>
<path id="path9_fill" d="M 0 2C 0 0.895431 0.895431 0 2 0L 26 0C 27.1046 0 28 0.895431 28 2L 28 26C 28 27.1046 27.1046 28 26 28L 2 28C 0.895431 28 0 27.1046 0 26L 0 2Z"/>
<path id="path10_fill" d="M 0 2C 0 0.895431 0.895431 0 2 0L 123 0C 124.105 0 125 0.895431 125 2L 125 15C 125 16.1046 124.105 17 123 17L 2 17C 0.895431 17 0 16.1046 0 15L 0 2Z"/>
<path id="path11_fill" fill-rule="evenodd" d="M 2.55957 1.50774C 2.55957 2.34044 1.98633 3.01547 1.2793 3.01547C 0.573242 3.01547 0 2.34044 0 1.50774C 0 0.675034 0.573242 0 1.2793 0C 1.98633 0 2.55957 0.675034 2.55957 1.50774ZM 7.03906 1.50774C 7.03906 2.34044 6.46582 3.01547 5.75879 3.01547C 5.05273 3.01547 4.47949 2.34044 4.47949 1.50774C 4.47949 0.675034 5.05273 0 5.75879 0C 6.46582 0 7.03906 0.675034 7.03906 1.50774ZM 10.2373 3.01547C 10.9443 3.01547 11.5176 2.34044 11.5176 1.50774C 11.5176 0.675034 10.9443 0 10.2373 0C 9.53125 0 8.95801 0.675034 8.95801 1.50774C 8.95801 2.34044 9.53125 3.01547 10.2373 3.01547Z"/>
<path id="path12_fill" fill-rule="evenodd" d="M 2.55957 1.50774C 2.55957 2.34044 1.98633 3.01547 1.2793 3.01547C 0.573242 3.01547 0 2.34044 0 1.50774C 0 0.675034 0.573242 0 1.2793 0C 1.98633 0 2.55957 0.675034 2.55957 1.50774ZM 7.03906 1.50774C 7.03906 2.34044 6.46582 3.01547 5.75879 3.01547C 5.05273 3.01547 4.47949 2.34044 4.47949 1.50774C 4.47949 0.675034 5.05273 0 5.75879 0C 6.46582 0 7.03906 0.675034 7.03906 1.50774ZM 10.2373 3.01547C 10.9443 3.01547 11.5176 2.34044 11.5176 1.50774C 11.5176 0.675034 10.9443 0 10.2373 0C 9.53125 0 8.95801 0.675034 8.95801 1.50774C 8.95801 2.34044 9.53125 3.01547 10.2373 3.01547Z"/>
<path id="path13_fill" fill-rule="evenodd" d="M 7.03906 1.50774C 7.03906 2.34044 6.46582 3.01547 5.75879 3.01547C 5.05273 3.01547 4.47949 2.34044 4.47949 1.50774C 4.47949 0.675036 5.05273 0 5.75879 0C 6.46582 0 7.03906 0.675036 7.03906 1.50774ZM 2.55957 1.50774C 2.55957 2.34044 1.98633 3.01547 1.2793 3.01547C 0.573242 3.01547 0 2.34044 0 1.50774C 0 0.675037 0.573242 9.53674e-07 1.2793 9.53674e-07C 1.98633 9.53674e-07 2.55957 0.675037 2.55957 1.50774ZM 10.2373 3.01547C 10.9443 3.01547 11.5176 2.34044 11.5176 1.50774C 11.5176 0.675036 10.9443 0 10.2373 0C 9.53125 0 8.95801 0.675036 8.95801 1.50774C 8.95801 2.34044 9.53125 3.01547 10.2373 3.01547Z"/>
<path id="path14_fill" fill-rule="evenodd" d="M 2.55957 1.50774C 2.55957 2.34044 1.98633 3.01547 1.2793 3.01547C 0.573242 3.01547 0 2.34044 0 1.50774C 0 0.675037 0.573242 0 1.2793 0C 1.98633 0 2.55957 0.675037 2.55957 1.50774ZM 7.03906 1.50774C 7.03906 2.34044 6.46582 3.01547 5.75879 3.01547C 5.05273 3.01547 4.47949 2.34044 4.47949 1.50774C 4.47949 0.675037 5.05273 0 5.75879 0C 6.46582 0 7.03906 0.675037 7.03906 1.50774ZM 10.2373 3.01547C 10.9443 3.01547 11.5176 2.34044 11.5176 1.50774C 11.5176 0.675037 10.9443 0 10.2373 0C 9.53125 0 8.95801 0.675037 8.95801 1.50774C 8.95801 2.34044 9.53125 3.01547 10.2373 3.01547Z"/>
<path id="path15_fill" d="M 0 2C 0 0.895431 0.895431 0 2 0L 77 0C 78.1046 0 79 0.895431 79 2L 79 12C 79 13.1046 78.1046 14 77 14L 2 14C 0.895431 14 0 13.1046 0 12L 0 2Z"/>
<path id="path16_fill" d="M 0 0L 115 0L 115 411L 0 411L 0 0Z"/>
<path id="path17_fill" d="M 0 0L 115 0L 115 31L 0 31L 0 0Z"/>
<path id="path18_fill" d="M 0 0L 43 0L 43 5L 0 5L 0 0Z"/>
<path id="path19_fill" d="M 13.3525 4.20083C 13.3558 4.16 13.36 4.12083 13.36 4.07917C 13.36 2.4975 11.9533 1.215 10.215 1.215C 9.66167 1.215 9.1425 1.34667 8.69083 1.57417C 8.17333 0.640834 7.11333 3.56038e-07 5.88667 3.56038e-07C 4.14917 3.56038e-07 2.74083 1.2825 2.74083 2.865C 2.74083 3.02167 2.75833 3.17333 2.785 3.32167C 2.66333 3.3025 2.54 3.28833 2.4125 3.28833C 1.08 3.28833 1.27157e-07 4.43083 1.27157e-07 5.84C 1.27157e-07 7.2475 1.08 8.39083 2.4125 8.39083L 13.1425 8.39083C 14.4142 8.39083 15.4458 7.45 15.4458 6.2925C 15.4458 5.19583 14.5283 4.29917 13.3525 4.20083Z"/>
<path id="path20_fill" d="M 4.23667 9.8775C 3.79917 10.1883 3.26417 10.3725 2.68667 10.3725C 1.20333 10.3725 0 9.1675 0 7.68333C 0 6.34667 0.979167 5.24 2.25833 5.03583C 2.24917 4.93167 2.24167 4.825 2.24167 4.71833C 2.24167 2.7575 3.83083 1.1675 5.7925 1.1675C 6.46583 1.1675 7.09333 1.35833 7.62917 1.685C 8.3825 0.665 9.58917 1.7484e-07 10.955 1.7484e-07C 13.0125 1.7484e-07 14.72 1.505 15.0367 3.47417L 15.035 3.47417C 14.9467 3.4675 14.8583 3.46417 14.77 3.46417C 14.32 3.46417 13.875 3.54167 13.4575 3.6875C 12.7675 2.79083 11.6533 2.25083 10.4417 2.25083C 8.44333 2.25083 6.81083 3.71917 6.7375 5.54833C 5.205 5.67167 3.99417 7.01583 3.99417 8.65C 3.99417 9.08583 4.08 9.50083 4.235 9.8775L 4.23667 9.8775Z"/>
<path id="path21_fill" d="M 15.5182 0.852506C 15.5182 0.416049 15.1482 0.00394982 14.6529 0.00394982C 14.6227 0.00394982 11.4885 -3.13905e-09 11.4443 -3.13905e-09C 11.1587 -3.13905e-09 10.9007 0.153385 10.6862 0.45094L 9.67138 1.84062L 14.9853 1.84062L 15.3995 1.27316C 15.4867 1.13887 15.5182 1.00589 15.5182 0.852506ZM 5.89908 1.84062L 4.88965 0.457523C 4.68589 0.185642 4.44057 0.00394982 4.12889 0.00394982C 4.09873 0.00394982 0.945757 0.00197493 0.912243 0.00197493C 0.4397 0.00197493 0.0435678 0.419341 0.0449083 0.850532C 0.0482597 1.1053 0.167568 1.27316 0.300283 1.45288L 0.576436 1.83075C 0.650166 1.8347 0.724566 1.84062 0.799637 1.84062L 5.89908 1.84062ZM 7.78389 4.4225L 6.48423 2.64178L 1.16762 2.64178L 3.41371 5.72002L 12.1554 5.72002L 14.4015 2.64178L 9.08556 2.64178L 7.78389 4.4225ZM 5.12559 8.06557L 4.0069 9.59942L 11.5616 9.59942L 10.4449 8.06557L 11.5716 6.5225L 3.99885 6.5225L 5.12559 8.06557ZM 1.17298 13.4815L 6.48825 13.4815L 7.78389 11.7067L 9.07819 13.4815L 14.3941 13.4815L 12.148 10.4019L 3.42041 10.4019L 1.17298 13.4815ZM 2.04551e-08 15.3425C 2.04551e-08 15.7862 0.389429 16.1937 0.866664 16.1937C 0.888113 16.1937 4.04242 16.1937 4.07326 16.1937C 4.32394 16.1937 4.59808 16.0502 4.74018 15.8797L 5.90444 14.2826L 0.800307 14.2826C 0.726577 14.2826 0.656198 14.2905 0.582468 14.2931L 0.115287 14.933C 0.0335137 15.0462 2.04551e-08 15.193 2.04551e-08 15.3425ZM 11.9061 17.3615L 16.5263 17.3615C 16.7595 17.3615 16.9794 17.3431 17.1885 17.3148L 14.9773 14.2839L 9.662 14.2839L 11.9061 17.3615ZM 12.4906 18.1627L 13.6314 19.7261C 13.7681 19.8815 14.0148 20 14.2661 20C 14.2896 20 17.4405 20 17.472 20C 17.9774 20 18.3333 19.5919 18.3333 19.1508C 18.3333 18.9875 18.2864 18.8355 18.204 18.7071L 17.9707 18.3885C 17.5712 18.2496 17.0732 18.1627 16.5256 18.1627L 12.4906 18.1627Z"/>
<path id="path22_fill" d="M 17.9411 11.8605C 17.927 11.8605 17.9133 11.8586 17.8992 11.8584C 17.4905 12.9484 16.7322 13.8699 15.7595 14.4922C 15.7612 14.5258 15.7647 14.559 15.7647 14.593C 15.7647 15.7169 14.8429 16.6279 13.7059 16.6279C 13.2935 16.6279 12.9103 16.5068 12.5882 16.3005L 12.5882 15.3429L 12.5882 14.4036L 12.5882 12.8856C 12.9103 12.6792 13.2935 12.5581 13.7059 12.5581C 14.484 12.5581 15.1609 12.985 15.511 13.6146C 16.2051 13.1316 16.7538 12.4588 17.0796 11.6719C 16.3734 11.3493 15.8823 10.6449 15.8823 9.82556C 15.8823 9.05727 16.3134 8.3889 16.9493 8.04259C 16.5847 7.31481 16.0234 6.70107 15.3338 6.26828C 15.0054 6.96094 14.2957 7.44182 13.4706 7.44182C 13.1544 7.44182 12.856 7.36929 12.5882 7.24337L 12.5882 5.59635L 12.5882 4.657L 12.5882 3.57051C 12.856 3.44459 13.1544 3.37205 13.4706 3.37205C 14.5941 3.37205 15.5058 4.26196 15.5274 5.36734C 16.5045 5.9257 17.2881 6.77677 17.756 7.7999C 17.8171 7.79451 17.8787 7.79065 17.9412 7.79065C 19.0782 7.79065 20 8.7017 20 9.82554C 20 10.9494 19.0782 11.8605 17.9411 11.8605ZM 1.79895e-08 2.09302L 1.79895e-08 17.907L 11.8823 20L 12 -1.11128e-08L 1.79895e-08 2.09302ZM 7.53477 12.7158C 7.07743 13.1617 6.45648 13.3846 5.67184 13.3846C 5.21818 13.3846 4.82279 13.3318 4.4857 13.2265C 4.14851 13.1212 3.83285 12.9874 3.5386 12.8252L 3.5386 11.0887L 3.69306 11.0887C 3.98484 11.3969 4.31156 11.6335 4.67326 11.7989C 5.03491 11.9643 5.38248 12.047 5.71598 12.047C 5.80179 12.047 5.9146 12.0373 6.05436 12.0178C 6.19412 11.9983 6.30815 11.966 6.39643 11.9205C 6.5043 11.8621 6.5932 11.7892 6.66309 11.7016C 6.73298 11.6141 6.76791 11.4844 6.76791 11.3125C 6.76791 11.1537 6.71699 11.0166 6.61527 10.9015C 6.51349 10.7864 6.36454 10.698 6.16839 10.6364C 5.96242 10.5716 5.74479 10.5108 5.51554 10.454C 5.28623 10.3973 5.07107 10.3251 4.87004 10.2375C 4.40901 10.0398 4.07743 9.77141 3.87514 9.43252C 3.67284 9.0937 3.57171 8.67297 3.57171 8.17029C 3.57171 7.49586 3.80031 6.94539 4.25764 6.51894C 4.71493 6.09257 5.30279 5.8793 6.02126 5.8793C 6.38171 5.8793 6.73785 5.92551 7.08971 6.01793C 7.44154 6.11035 7.74625 6.22633 8.0037 6.36571L 8.0037 8.03408L 7.85291 8.03408C 7.63222 7.80061 7.36189 7.60531 7.04191 7.44798C 6.72191 7.29074 6.39516 7.21207 6.06173 7.21207C 5.94402 7.21207 5.8269 7.22265 5.71047 7.24369C 5.594 7.26481 5.48179 7.30449 5.37393 7.36288C 5.27831 7.41151 5.19611 7.4853 5.12751 7.58419C 5.05884 7.68314 5.02452 7.79577 5.02452 7.92222C 5.02452 8.11359 5.07971 8.26027 5.19003 8.36241C 5.30038 8.46456 5.50876 8.55781 5.81529 8.64211C 6.0163 8.69728 6.20941 8.75079 6.39458 8.80263C 6.5797 8.85453 6.77893 8.92591 6.99225 9.01665C 7.41155 9.1983 7.72107 9.44554 7.92095 9.75843C 8.12077 10.0714 8.22072 10.4776 8.22072 10.9769C 8.22072 11.6903 7.99204 12.27 7.53477 12.7158Z"/>
<path id="path23_fill" d="M 2.96994 16.4173L 2.80466 16.1339L 0.0568165 11.4188L -5.41843e-08 11.3232L 0.0555253 11.2277L 6.37312 0.286018L 6.5384 1.57627e-07L 6.70497 0.284728L 9.45282 4.9979L 9.50834 5.09346L 9.45282 5.18901L 3.13458 16.132L 2.96994 16.4173Z"/>
<path id="path24_fill" d="M 15.8395 0.28602L 13.1297 5.02244L 13.0755 5.11928L 12.9645 5.11928L 0.329277 5.11928L 3.84216e-07 5.11928L 0.163993 4.83326L 2.87245 0.0968451L 2.92798 5.51695e-07L 3.03903 5.51695e-07L 15.6742 5.51695e-07L 16.0035 5.51695e-07L 15.8395 0.28602Z"/>
<path id="path25_fill" d="M 12.1045 11.3252L 6.64816 11.3478L 6.5384 11.3478L 6.48287 11.2522L 0.165284 0.309262L -4.92584e-08 0.0232428L 0.329277 0.0225975L 5.78558 0.000645488L 5.89663 2.0196e-07L 5.95216 0.0949089L 12.2697 11.0379L 12.435 11.3226L 12.1045 11.3252Z"/>
<path id="path26_fill" d="M 1.48153 -2.86785e-06C 0.660802 -2.86785e-06 1.27595e-07 0.660753 1.27595e-07 1.48148L 1.27595e-07 18.5185C 1.27595e-07 19.3393 0.660752 20 1.48153 20L 18.5185 20C 19.3392 20 20 19.3393 20 18.5185L 20 1.48148C 20 0.660753 19.3393 -2.86785e-06 18.5185 -2.86785e-06L 1.48153 -2.86785e-06ZM 1.85185 1.85185L 18.1481 1.85185L 18.1481 18.1481L 1.85185 18.1481L 1.85185 1.85185Z"/>
<path id="path27_fill" d="M 0.740739 -1.21519e-06C 0.335975 -1.21519e-06 -1.09367e-06 0.336079 -1.09367e-06 0.740744L -1.09367e-06 3.7037C -1.09367e-06 4.10842 0.335975 4.44444 0.740739 4.44444L 1.48148 4.44444L 1.48148 3.7037L 0.740739 3.7037L 0.740739 0.740744L 1.48148 0.740744L 1.48148 -1.21519e-06L 0.740739 -1.21519e-06Z"/>
<path id="path28_fill" d="M 2.96151 1.16658e-06C 1.32643 1.16658e-06 0.000747331 1.32569 7.18363e-07 2.96152C -4.90558e-05 4.5978 1.32578 5.92438 2.96131 5.92448C 2.96141 5.92448 2.96146 5.92448 2.96151 5.92448C 4.59709 5.92448 5.92302 4.598 5.92302 2.96172C 5.92302 2.96162 5.92302 2.96162 5.92302 2.96157C 5.92228 1.32569 4.59659 1.16658e-06 2.96151 1.16658e-06ZM 2.96151 1.85041C 3.57493 1.85016 4.07237 2.34745 4.07262 2.96117C 4.07262 2.96132 4.07262 2.96142 4.07262 2.96152C 4.07257 3.57524 3.57528 4.07263 2.96186 4.07263C 2.96176 4.07263 2.96161 4.07263 2.96151 4.07263C 2.34854 4.07209 1.8519 3.57479 1.85185 2.96152C 1.8519 2.3483 2.34849 1.85096 2.96151 1.85041Z"/>
<path id="path29_fill" d="M 9.99916 3.43666L 5.88166 -4.27246e-06L 3.45866e-06 3.83916L 4.06833 7.09749L 9.99916 3.43666Z"/>
<path id="path30_fill" d="M -2.44141e-06 3.25917L 5.88249 7.10166L 10 3.66416L 4.06916 -5.69661e-06L -2.44141e-06 3.25917Z"/>
<path id="path31_fill" d="M -2.44141e-06 3.66416L 4.11751 7.10166L 10 3.25917L 5.93167 -5.69661e-06L -2.44141e-06 3.66416Z"/>
<path id="path32_fill" d="M 5.93167 7.09749L 10 3.83916L 4.11751 -4.27246e-06L -2.44141e-06 3.4375L 5.93167 7.09749Z"/>
<path id="path33_fill" d="M 5.89501 3.25521e-06L 1.76499 3.42418L 5.49316e-06 2.27084L 5.49316e-06 3.56334L 5.89501 7.09915L 11.7908 3.56334L 11.7908 2.27084L 10.0242 3.42418L 5.89501 3.25521e-06Z"/>
<path id="path34_fill" d="M 9.207 3.1185L 9.207 11L 8.272 11L 8.272 5.2085C 8.272 5.1315 8.27383 5.049 8.2775 4.961C 8.28483 4.873 8.29217 4.78317 8.2995 4.6915L 5.5935 9.6195C 5.50917 9.7845 5.38083 9.867 5.2085 9.867L 5.0545 9.867C 4.88217 9.867 4.75383 9.7845 4.6695 9.6195L 1.9085 4.6695C 1.9305 4.86383 1.9415 5.0435 1.9415 5.2085L 1.9415 11L 1.0065 11L 1.0065 3.1185L 1.793 3.1185C 1.88833 3.1185 1.96167 3.12767 2.013 3.146C 2.06433 3.16433 2.11383 3.21567 2.1615 3.3L 4.884 8.151C 4.928 8.239 4.97017 8.33067 5.0105 8.426C 5.0545 8.52133 5.09483 8.6185 5.1315 8.7175C 5.16817 8.6185 5.20667 8.52133 5.247 8.426C 5.28733 8.327 5.33133 8.2335 5.379 8.1455L 8.052 3.3C 8.096 3.21567 8.14367 3.16433 8.195 3.146C 8.25 3.12767 8.32517 3.1185 8.4205 3.1185L 9.207 3.1185ZM 15.6694 5.4285L 12.5619 12.6445C 12.5289 12.7178 12.4867 12.7765 12.4354 12.8205C 12.3877 12.8645 12.3126 12.8865 12.2099 12.8865L 11.4839 12.8865L 12.5014 10.6755L 10.2024 5.4285L 11.0494 5.4285C 11.1337 5.4285 11.1997 5.4505 11.2474 5.4945C 11.2987 5.53483 11.3336 5.58067 11.3519 5.632L 12.8424 9.141C 12.9011 9.295 12.9506 9.45633 12.9909 9.625C 13.0422 9.45267 13.0972 9.2895 13.1559 9.1355L 14.6024 5.632C 14.6244 5.57333 14.6611 5.52567 14.7124 5.489C 14.7674 5.44867 14.8279 5.4285 14.8939 5.4285L 15.6694 5.4285ZM 23.4781 7.062C 23.4781 7.65233 23.3846 8.1895 23.1976 8.6735C 23.0106 9.1575 22.7466 9.57183 22.4056 9.9165C 22.0646 10.2612 21.654 10.5288 21.1736 10.7195C 20.697 10.9065 20.169 11 19.5896 11L 16.6471 11L 16.6471 3.1185L 19.5896 3.1185C 20.169 3.1185 20.697 3.21383 21.1736 3.4045C 21.654 3.5915 22.0646 3.85917 22.4056 4.2075C 22.7466 4.55217 23.0106 4.9665 23.1976 5.4505C 23.3846 5.9345 23.4781 6.47167 23.4781 7.062ZM 22.3836 7.062C 22.3836 6.578 22.3176 6.14533 22.1856 5.764C 22.0536 5.38267 21.8666 5.06 21.6246 4.796C 21.3826 4.532 21.0893 4.33033 20.7446 4.191C 20.4 4.05167 20.015 3.982 19.5896 3.982L 17.7141 3.982L 17.7141 10.1365L 19.5896 10.1365C 20.015 10.1365 20.4 10.0668 20.7446 9.9275C 21.0893 9.78817 21.3826 9.58833 21.6246 9.328C 21.8666 9.064 22.0536 8.74133 22.1856 8.36C 22.3176 7.97867 22.3836 7.546 22.3836 7.062ZM 25.5956 6.545C 25.7716 6.16367 25.988 5.86667 26.2446 5.654C 26.5013 5.43767 26.8148 5.3295 27.1851 5.3295C 27.3025 5.3295 27.4143 5.34233 27.5206 5.368C 27.6306 5.39367 27.7278 5.434 27.8121 5.489L 27.7406 6.2205C 27.7186 6.31217 27.6636 6.358 27.5756 6.358C 27.5243 6.358 27.4491 6.347 27.3501 6.325C 27.2511 6.303 27.1393 6.292 27.0146 6.292C 26.8386 6.292 26.681 6.31767 26.5416 6.369C 26.406 6.42033 26.2831 6.49733 26.1731 6.6C 26.0668 6.699 25.9696 6.82367 25.8816 6.974C 25.7973 7.12067 25.7203 7.28933 25.6506 7.48L 25.6506 11L 24.6661 11L 24.6661 5.4285L 25.2271 5.4285C 25.3335 5.4285 25.4068 5.44867 25.4471 5.489C 25.4875 5.52933 25.515 5.599 25.5296 5.698L 25.5956 6.545ZM 29.707 5.4285L 29.707 11L 28.728 11L 28.728 5.4285L 29.707 5.4285ZM 29.916 3.6795C 29.916 3.77483 29.8958 3.86467 29.8555 3.949C 29.8188 4.02967 29.7675 4.103 29.7015 4.169C 29.6391 4.23133 29.564 4.28083 29.476 4.3175C 29.3916 4.35417 29.3018 4.3725 29.2065 4.3725C 29.1111 4.3725 29.0213 4.35417 28.937 4.3175C 28.8563 4.28083 28.7848 4.23133 28.7225 4.169C 28.6601 4.103 28.6106 4.02967 28.574 3.949C 28.5373 3.86467 28.519 3.77483 28.519 3.6795C 28.519 3.58417 28.5373 3.49433 28.574 3.41C 28.6106 3.322 28.6601 3.24683 28.7225 3.1845C 28.7848 3.1185 28.8563 3.06717 28.937 3.0305C 29.0213 2.99383 29.1111 2.9755 29.2065 2.9755C 29.3018 2.9755 29.3916 2.99383 29.476 3.0305C 29.564 3.06717 29.6391 3.1185 29.7015 3.1845C 29.7675 3.24683 29.8188 3.322 29.8555 3.41C 29.8958 3.49433 29.916 3.58417 29.916 3.6795ZM 36.0895 5.4285L 33.818 11L 32.938 11L 30.6665 5.4285L 31.464 5.4285C 31.5447 5.4285 31.6107 5.44867 31.662 5.489C 31.7134 5.52933 31.7482 5.577 31.7665 5.632L 33.18 9.218C 33.224 9.35367 33.2625 9.48567 33.2955 9.614C 33.3285 9.74233 33.3597 9.87067 33.389 9.999C 33.4184 9.87067 33.4495 9.74233 33.4825 9.614C 33.5155 9.48567 33.5559 9.35367 33.6035 9.218L 35.0335 5.632C 35.0555 5.57333 35.0922 5.52567 35.1435 5.489C 35.1949 5.44867 35.2554 5.4285 35.325 5.4285L 36.0895 5.4285ZM 40.566 7.6065C 40.566 7.37917 40.533 7.172 40.467 6.985C 40.4047 6.79433 40.3112 6.63117 40.1865 6.4955C 40.0655 6.35617 39.917 6.24983 39.741 6.1765C 39.565 6.0995 39.3652 6.061 39.1415 6.061C 38.6722 6.061 38.3 6.1985 38.025 6.4735C 37.7537 6.74483 37.585 7.1225 37.519 7.6065L 40.566 7.6065ZM 41.358 10.219C 41.237 10.3657 41.0922 10.494 40.9235 10.604C 40.7549 10.7103 40.5734 10.7983 40.379 10.868C 40.1884 10.9377 39.9904 10.989 39.785 11.022C 39.5797 11.0587 39.3762 11.077 39.1745 11.077C 38.7895 11.077 38.4339 11.0128 38.1075 10.8845C 37.7849 10.7525 37.5044 10.5618 37.266 10.3125C 37.0314 10.0595 36.848 9.74783 36.716 9.3775C 36.584 9.00717 36.518 8.58183 36.518 8.1015C 36.518 7.71283 36.5767 7.34983 36.694 7.0125C 36.815 6.67517 36.9874 6.38367 37.211 6.138C 37.4347 5.88867 37.7079 5.69433 38.0305 5.555C 38.3532 5.412 38.7162 5.3405 39.1195 5.3405C 39.4532 5.3405 39.7612 5.39733 40.0435 5.511C 40.3295 5.621 40.5752 5.78233 40.7805 5.995C 40.9895 6.204 41.1527 6.46433 41.27 6.776C 41.3874 7.084 41.446 7.436 41.446 7.832C 41.446 7.986 41.4295 8.08867 41.3965 8.14C 41.3635 8.19133 41.3012 8.217 41.2095 8.217L 37.486 8.217C 37.497 8.569 37.5447 8.87517 37.629 9.1355C 37.717 9.39583 37.838 9.614 37.992 9.79C 38.146 9.96233 38.3294 10.0925 38.542 10.1805C 38.7547 10.2648 38.993 10.307 39.257 10.307C 39.5027 10.307 39.7135 10.2795 39.8895 10.2245C 40.0692 10.1658 40.2232 10.1035 40.3515 10.0375C 40.4799 9.9715 40.5862 9.911 40.6705 9.856C 40.7585 9.79733 40.8337 9.768 40.896 9.768C 40.9767 9.768 41.039 9.79917 41.083 9.8615L 41.358 10.219Z"/>
<path id="path35_fill" d="M 9.207 3.1185L 9.207 11L 8.272 11L 8.272 5.2085C 8.272 5.1315 8.27383 5.049 8.2775 4.961C 8.28483 4.873 8.29217 4.78317 8.2995 4.6915L 5.5935 9.6195C 5.50917 9.7845 5.38083 9.867 5.2085 9.867L 5.0545 9.867C 4.88217 9.867 4.75383 9.7845 4.6695 9.6195L 1.9085 4.6695C 1.9305 4.86383 1.9415 5.0435 1.9415 5.2085L 1.9415 11L 1.0065 11L 1.0065 3.1185L 1.793 3.1185C 1.88833 3.1185 1.96167 3.12767 2.013 3.146C 2.06433 3.16433 2.11383 3.21567 2.1615 3.3L 4.884 8.151C 4.928 8.239 4.97017 8.33067 5.0105 8.426C 5.0545 8.52133 5.09483 8.6185 5.1315 8.7175C 5.16817 8.6185 5.20667 8.52133 5.247 8.426C 5.28733 8.327 5.33133 8.2335 5.379 8.1455L 8.052 3.3C 8.096 3.21567 8.14367 3.16433 8.195 3.146C 8.25 3.12767 8.32517 3.1185 8.4205 3.1185L 9.207 3.1185ZM 15.6694 5.4285L 12.5619 12.6445C 12.5289 12.7178 12.4867 12.7765 12.4354 12.8205C 12.3877 12.8645 12.3126 12.8865 12.2099 12.8865L 11.4839 12.8865L 12.5014 10.6755L 10.2024 5.4285L 11.0494 5.4285C 11.1337 5.4285 11.1997 5.4505 11.2474 5.4945C 11.2987 5.53483 11.3336 5.58067 11.3519 5.632L 12.8424 9.141C 12.9011 9.295 12.9506 9.45633 12.9909 9.625C 13.0422 9.45267 13.0972 9.2895 13.1559 9.1355L 14.6024 5.632C 14.6244 5.57333 14.6611 5.52567 14.7124 5.489C 14.7674 5.44867 14.8279 5.4285 14.8939 5.4285L 15.6694 5.4285ZM 22.9365 3.1185L 19.7245 11L 18.7675 11L 15.5555 3.1185L 16.408 3.1185C 16.5033 3.1185 16.5803 3.14233 16.639 3.19C 16.6976 3.23767 16.7416 3.29817 16.771 3.3715L 18.993 8.932C 19.0406 9.05667 19.0865 9.19233 19.1305 9.339C 19.1781 9.48567 19.2203 9.63967 19.257 9.801C 19.2936 9.63967 19.3321 9.48567 19.3725 9.339C 19.4128 9.19233 19.4568 9.05667 19.5045 8.932L 21.721 3.3715C 21.743 3.30917 21.7851 3.25233 21.8475 3.201C 21.9135 3.146 21.9923 3.1185 22.084 3.1185L 22.9365 3.1185ZM 25.9561 8.492C 25.5051 8.50667 25.1201 8.54333 24.8011 8.602C 24.4858 8.657 24.2273 8.73033 24.0256 8.822C 23.8276 8.91367 23.6828 9.02183 23.5911 9.1465C 23.5031 9.27117 23.4591 9.4105 23.4591 9.5645C 23.4591 9.71117 23.483 9.83767 23.5306 9.944C 23.5783 10.0503 23.6425 10.1383 23.7231 10.208C 23.8075 10.274 23.9046 10.3235 24.0146 10.3565C 24.1283 10.3858 24.2493 10.4005 24.3776 10.4005C 24.55 10.4005 24.7076 10.384 24.8506 10.351C 24.9936 10.3143 25.1275 10.263 25.2521 10.197C 25.3805 10.131 25.5015 10.0522 25.6151 9.9605C 25.7325 9.86883 25.8461 9.76433 25.9561 9.647L 25.9561 8.492ZM 22.7936 6.215C 23.1016 5.918 23.4335 5.69617 23.7891 5.5495C 24.1448 5.40283 24.539 5.3295 24.9716 5.3295C 25.2833 5.3295 25.5601 5.38083 25.8021 5.4835C 26.0441 5.58617 26.2476 5.72917 26.4126 5.9125C 26.5776 6.09583 26.7023 6.31767 26.7866 6.578C 26.871 6.83833 26.9131 7.12433 26.9131 7.436L 26.9131 11L 26.4786 11C 26.3833 11 26.31 10.9853 26.2586 10.956C 26.2073 10.923 26.167 10.8607 26.1376 10.769L 26.0276 10.241C 25.881 10.3767 25.738 10.4977 25.5986 10.604C 25.4593 10.7067 25.3126 10.7947 25.1586 10.868C 25.0046 10.9377 24.8396 10.9908 24.6636 11.0275C 24.4913 11.0678 24.2988 11.088 24.0861 11.088C 23.8698 11.088 23.6663 11.0587 23.4756 11C 23.285 10.9377 23.1181 10.846 22.9751 10.725C 22.8358 10.604 22.724 10.4518 22.6396 10.2685C 22.559 10.0815 22.5186 9.8615 22.5186 9.6085C 22.5186 9.3885 22.5791 9.17767 22.7001 8.976C 22.8211 8.77067 23.0173 8.58917 23.2886 8.4315C 23.56 8.27383 23.9138 8.1455 24.3501 8.0465C 24.7865 7.94383 25.3218 7.88517 25.9561 7.8705L 25.9561 7.436C 25.9561 7.00333 25.8626 6.677 25.6756 6.457C 25.4886 6.23333 25.2155 6.1215 24.8561 6.1215C 24.6141 6.1215 24.4106 6.15267 24.2456 6.215C 24.0843 6.27367 23.9431 6.3415 23.8221 6.4185C 23.7048 6.49183 23.6021 6.55967 23.5141 6.622C 23.4298 6.68067 23.3455 6.71 23.2611 6.71C 23.1951 6.71 23.1383 6.6935 23.0906 6.6605C 23.043 6.62383 23.0026 6.57983 22.9696 6.5285L 22.7936 6.215ZM 32.9859 5.4285L 32.9859 11L 32.4029 11C 32.2636 11 32.1756 10.9322 32.1389 10.7965L 32.0619 10.197C 31.8199 10.4647 31.5486 10.681 31.2479 10.846C 30.9472 11.0073 30.6026 11.088 30.2139 11.088C 29.9096 11.088 29.6401 11.0385 29.4054 10.9395C 29.1744 10.8368 28.9801 10.6938 28.8224 10.5105C 28.6647 10.3272 28.5456 10.1053 28.4649 9.845C 28.3879 9.58467 28.3494 9.29683 28.3494 8.9815L 28.3494 5.4285L 29.3284 5.4285L 29.3284 8.9815C 29.3284 9.40317 29.4237 9.7295 29.6144 9.9605C 29.8087 10.1915 30.1039 10.307 30.4999 10.307C 30.7896 10.307 31.0591 10.2392 31.3084 10.1035C 31.5614 9.96417 31.7942 9.7735 32.0069 9.5315L 32.0069 5.4285L 32.9859 5.4285ZM 35.5502 2.8985L 35.5502 11L 34.5712 11L 34.5712 2.8985L 35.5502 2.8985ZM 38.8483 11.088C 38.4083 11.088 38.0691 10.9652 37.8308 10.7195C 37.5961 10.4738 37.4788 10.12 37.4788 9.658L 37.4788 6.248L 36.8078 6.248C 36.7491 6.248 36.6996 6.2315 36.6593 6.1985C 36.619 6.16183 36.5988 6.10683 36.5988 6.0335L 36.5988 5.643L 37.5118 5.5275L 37.7373 3.806C 37.7483 3.751 37.7721 3.707 37.8088 3.674C 37.8491 3.63733 37.9005 3.619 37.9628 3.619L 38.4578 3.619L 38.4578 5.5385L 40.0693 5.5385L 40.0693 6.248L 38.4578 6.248L 38.4578 9.592C 38.4578 9.82667 38.5146 10.0008 38.6283 10.1145C 38.742 10.2282 38.8886 10.285 39.0683 10.285C 39.171 10.285 39.259 10.2722 39.3323 10.2465C 39.4093 10.2172 39.4753 10.186 39.5303 10.153C 39.5853 10.12 39.6311 10.0907 39.6678 10.065C 39.7081 10.0357 39.743 10.021 39.7723 10.021C 39.8236 10.021 39.8695 10.0522 39.9098 10.1145L 40.1958 10.582C 40.0271 10.7397 39.8236 10.8643 39.5853 10.956C 39.347 11.044 39.1013 11.088 38.8483 11.088Z"/>
<path id="path36_stroke" d="M 0 0L 43 0L 43 -1L 0 -1L 0 0Z"/>
<path id="path37_fill" d="M 0 0L 167 0L 167 134L 0 134L 0 0Z"/>
<path id="path38_fill" d="M 0 0L 167 0L 167 44C 167 46.2091 165.209 48 163 48L 4 48C 1.79086 48 0 46.2091 0 44L 0 0Z"/>
<path id="path39_fill" d="M 7.328 6.328C 7.28 6.408 7.22667 6.46933 7.168 6.512C 7.11467 6.54933 7.048 6.568 6.968 6.568C 6.87733 6.568 6.77067 6.52267 6.648 6.432C 6.52533 6.34133 6.37067 6.24267 6.184 6.136C 6.00267 6.024 5.78133 5.92267 5.52 5.832C 5.264 5.74133 4.952 5.696 4.584 5.696C 4.23733 5.696 3.93067 5.744 3.664 5.84C 3.40267 5.93067 3.18133 6.056 3 6.216C 2.824 6.376 2.69067 6.56533 2.6 6.784C 2.50933 6.99733 2.464 7.22933 2.464 7.48C 2.464 7.8 2.54133 8.06667 2.696 8.28C 2.856 8.488 3.064 8.66667 3.32 8.816C 3.58133 8.96533 3.87467 9.096 4.2 9.208C 4.53067 9.31467 4.86667 9.42667 5.208 9.544C 5.55467 9.66133 5.89067 9.79467 6.216 9.944C 6.54667 10.088 6.84 10.272 7.096 10.496C 7.35733 10.72 7.56533 10.9947 7.72 11.32C 7.88 11.6453 7.96 12.0453 7.96 12.52C 7.96 13.0213 7.87467 13.4933 7.704 13.936C 7.53333 14.3733 7.28267 14.7547 6.952 15.08C 6.62667 15.4053 6.224 15.6613 5.744 15.848C 5.26933 16.0347 4.728 16.128 4.12 16.128C 3.37333 16.128 2.696 15.9947 2.088 15.728C 1.48 15.456 0.96 15.0907 0.528 14.632L 0.976 13.896C 1.01867 13.8373 1.06933 13.7893 1.128 13.752C 1.192 13.7093 1.26133 13.688 1.336 13.688C 1.40533 13.688 1.48267 13.7173 1.568 13.776C 1.65867 13.8293 1.76 13.8987 1.872 13.984C 1.984 14.0693 2.112 14.1627 2.256 14.264C 2.4 14.3653 2.56267 14.4587 2.744 14.544C 2.93067 14.6293 3.14133 14.7013 3.376 14.76C 3.61067 14.8133 3.87467 14.84 4.168 14.84C 4.536 14.84 4.864 14.7893 5.152 14.688C 5.44 14.5867 5.68267 14.4453 5.88 14.264C 6.08267 14.0773 6.23733 13.856 6.344 13.6C 6.45067 13.344 6.504 13.0587 6.504 12.744C 6.504 12.3973 6.424 12.1147 6.264 11.896C 6.10933 11.672 5.904 11.4853 5.648 11.336C 5.392 11.1867 5.09867 11.0613 4.768 10.96C 4.43733 10.8533 4.10133 10.7467 3.76 10.64C 3.41867 10.528 3.08267 10.4 2.752 10.256C 2.42133 10.112 2.128 9.92533 1.872 9.696C 1.616 9.46667 1.408 9.18133 1.248 8.84C 1.09333 8.49333 1.016 8.06667 1.016 7.56C 1.016 7.15467 1.09333 6.76267 1.248 6.384C 1.408 6.00533 1.63733 5.66933 1.936 5.376C 2.24 5.08267 2.61067 4.848 3.048 4.672C 3.49067 4.496 3.99733 4.408 4.568 4.408C 5.208 4.408 5.78933 4.50933 6.312 4.712C 6.84 4.91467 7.304 5.208 7.704 5.592L 7.328 6.328ZM 11.1069 8.976C 11.4535 8.608 11.8375 8.31467 12.2589 8.096C 12.6802 7.87733 13.1655 7.768 13.7149 7.768C 14.1575 7.768 14.5469 7.84267 14.8829 7.992C 15.2242 8.136 15.5069 8.344 15.7309 8.616C 15.9602 8.88267 16.1335 9.20533 16.2509 9.584C 16.3682 9.96267 16.4269 10.3813 16.4269 10.84L 16.4269 16L 14.9949 16L 14.9949 10.84C 14.9949 10.2267 14.8535 9.752 14.5709 9.416C 14.2935 9.07467 13.8695 8.904 13.2989 8.904C 12.8775 8.904 12.4829 9.00533 12.1149 9.208C 11.7522 9.41067 11.4162 9.68533 11.1069 10.032L 11.1069 16L 9.67488 16L 9.67488 4.216L 11.1069 4.216L 11.1069 8.976ZM 22.9887 12.352C 22.3327 12.3733 21.7727 12.4267 21.3087 12.512C 20.8501 12.592 20.4741 12.6987 20.1807 12.832C 19.8928 12.9653 19.6821 13.1227 19.5487 13.304C 19.4208 13.4853 19.3568 13.688 19.3568 13.912C 19.3568 14.1253 19.3914 14.3093 19.4607 14.464C 19.5301 14.6187 19.6234 14.7467 19.7408 14.848C 19.8634 14.944 20.0048 15.016 20.1648 15.064C 20.3301 15.1067 20.5061 15.128 20.6927 15.128C 20.9434 15.128 21.1727 15.104 21.3807 15.056C 21.5887 15.0027 21.7834 14.928 21.9647 14.832C 22.1514 14.736 22.3274 14.6213 22.4928 14.488C 22.6634 14.3547 22.8288 14.2027 22.9887 14.032L 22.9887 12.352ZM 18.3888 9.04C 18.8368 8.608 19.3194 8.28533 19.8368 8.072C 20.3541 7.85867 20.9274 7.752 21.5567 7.752C 22.0101 7.752 22.4127 7.82667 22.7648 7.976C 23.1167 8.12533 23.4127 8.33333 23.6528 8.6C 23.8927 8.86667 24.0741 9.18933 24.1968 9.568C 24.3194 9.94667 24.3808 10.3627 24.3808 10.816L 24.3808 16L 23.7488 16C 23.6101 16 23.5034 15.9787 23.4288 15.936C 23.3541 15.888 23.2954 15.7973 23.2527 15.664L 23.0928 14.896C 22.8794 15.0933 22.6714 15.2693 22.4688 15.424C 22.2661 15.5733 22.0528 15.7013 21.8288 15.808C 21.6048 15.9093 21.3647 15.9867 21.1088 16.04C 20.8581 16.0987 20.5781 16.128 20.2687 16.128C 19.9541 16.128 19.6581 16.0853 19.3807 16C 19.1034 15.9093 18.8607 15.776 18.6528 15.6C 18.4501 15.424 18.2874 15.2027 18.1647 14.936C 18.0474 14.664 17.9887 14.344 17.9887 13.976C 17.9887 13.656 18.0767 13.3493 18.2527 13.056C 18.4287 12.7573 18.7141 12.4933 19.1087 12.264C 19.5034 12.0347 20.0181 11.848 20.6528 11.704C 21.2874 11.5547 22.0661 11.4693 22.9887 11.448L 22.9887 10.816C 22.9887 10.1867 22.8527 9.712 22.5807 9.392C 22.3088 9.06667 21.9114 8.904 21.3888 8.904C 21.0368 8.904 20.7408 8.94933 20.5008 9.04C 20.2661 9.12533 20.0608 9.224 19.8847 9.336C 19.7141 9.44267 19.5647 9.54133 19.4368 9.632C 19.3141 9.71733 19.1914 9.76 19.0688 9.76C 18.9727 9.76 18.8901 9.736 18.8207 9.688C 18.7514 9.63467 18.6927 9.57067 18.6447 9.496L 18.3888 9.04ZM 27.9019 9.52C 28.1579 8.96533 28.4725 8.53333 28.8459 8.224C 29.2192 7.90933 29.6752 7.752 30.2139 7.752C 30.3845 7.752 30.5472 7.77067 30.7019 7.808C 30.8619 7.84533 31.0032 7.904 31.1259 7.984L 31.0219 9.048C 30.9899 9.18133 30.9099 9.248 30.7819 9.248C 30.7072 9.248 30.5979 9.232 30.4539 9.2C 30.3099 9.168 30.1472 9.152 29.9659 9.152C 29.7099 9.152 29.4805 9.18933 29.2779 9.264C 29.0805 9.33867 28.9019 9.45067 28.7419 9.6C 28.5872 9.744 28.4459 9.92533 28.3179 10.144C 28.1952 10.3573 28.0832 10.6027 27.9819 10.88L 27.9819 16L 26.5499 16L 26.5499 7.896L 27.3659 7.896C 27.5205 7.896 27.6272 7.92533 27.6859 7.984C 27.7445 8.04267 27.7845 8.144 27.8059 8.288L 27.9019 9.52ZM 37.4739 11.064C 37.4739 10.7333 37.4259 10.432 37.3299 10.16C 37.2392 9.88267 37.1032 9.64533 36.9219 9.448C 36.7459 9.24533 36.5299 9.09067 36.2739 8.984C 36.0179 8.872 35.7272 8.816 35.4019 8.816C 34.7192 8.816 34.1779 9.016 33.7779 9.416C 33.3832 9.81067 33.1379 10.36 33.0419 11.064L 37.4739 11.064ZM 38.6259 14.864C 38.4499 15.0773 38.2392 15.264 37.9939 15.424C 37.7485 15.5787 37.4845 15.7067 37.2019 15.808C 36.9245 15.9093 36.6365 15.984 36.3379 16.032C 36.0392 16.0853 35.7432 16.112 35.4499 16.112C 34.8899 16.112 34.3725 16.0187 33.8979 15.832C 33.4285 15.64 33.0205 15.3627 32.6739 15C 32.3325 14.632 32.0659 14.1787 31.8739 13.64C 31.6819 13.1013 31.5859 12.4827 31.5859 11.784C 31.5859 11.2187 31.6712 10.6907 31.8419 10.2C 32.0179 9.70933 32.2685 9.28533 32.5939 8.928C 32.9192 8.56533 33.3165 8.28267 33.7859 8.08C 34.2552 7.872 34.7832 7.768 35.3699 7.768C 35.8552 7.768 36.3032 7.85067 36.7139 8.016C 37.1299 8.176 37.4872 8.41067 37.7859 8.72C 38.0899 9.024 38.3272 9.40267 38.4979 9.856C 38.6685 10.304 38.7539 10.816 38.7539 11.392C 38.7539 11.616 38.7299 11.7653 38.6819 11.84C 38.6339 11.9147 38.5432 11.952 38.4099 11.952L 32.9939 11.952C 33.0099 12.464 33.0792 12.9093 33.2019 13.288C 33.3299 13.6667 33.5059 13.984 33.7299 14.24C 33.9539 14.4907 34.2205 14.68 34.5299 14.808C 34.8392 14.9307 35.1859 14.992 35.5699 14.992C 35.9272 14.992 36.2339 14.952 36.4899 14.872C 36.7512 14.7867 36.9752 14.696 37.1619 14.6C 37.3485 14.504 37.5032 14.416 37.6259 14.336C 37.7539 14.2507 37.8632 14.208 37.9539 14.208C 38.0712 14.208 38.1619 14.2533 38.2259 14.344L 38.6259 14.864Z"/>
<path id="path40_fill" d="M 4.848 10.48C 5.29067 10.48 5.68 10.4213 6.016 10.304C 6.35733 10.1867 6.64267 10.024 6.872 9.816C 7.10667 9.60267 7.28267 9.34933 7.4 9.056C 7.51733 8.76267 7.576 8.44 7.576 8.088C 7.576 7.35733 7.34933 6.78667 6.896 6.376C 6.448 5.96533 5.76533 5.76 4.848 5.76L 3.008 5.76L 3.008 10.48L 4.848 10.48ZM 4.848 4.536C 5.57333 4.536 6.20267 4.62133 6.736 4.792C 7.27467 4.95733 7.72 5.19467 8.072 5.504C 8.424 5.81333 8.68533 6.18667 8.856 6.624C 9.032 7.06133 9.12 7.54933 9.12 8.088C 9.12 8.62133 9.02667 9.10933 8.84 9.552C 8.65333 9.99467 8.37867 10.376 8.016 10.696C 7.65867 11.016 7.21333 11.2667 6.68 11.448C 6.152 11.624 5.54133 11.712 4.848 11.712L 3.008 11.712L 3.008 16L 1.464 16L 1.464 4.536L 4.848 4.536ZM 11.9331 9.52C 12.1891 8.96533 12.5038 8.53333 12.8771 8.224C 13.2505 7.90933 13.7065 7.752 14.2451 7.752C 14.4158 7.752 14.5785 7.77067 14.7331 7.808C 14.8931 7.84533 15.0345 7.904 15.1571 7.984L 15.0531 9.048C 15.0211 9.18133 14.9411 9.248 14.8131 9.248C 14.7385 9.248 14.6291 9.232 14.4851 9.2C 14.3411 9.168 14.1785 9.152 13.9971 9.152C 13.7411 9.152 13.5118 9.18933 13.3091 9.264C 13.1118 9.33867 12.9331 9.45067 12.7731 9.6C 12.6185 9.744 12.4771 9.92533 12.3491 10.144C 12.2265 10.3573 12.1145 10.6027 12.0131 10.88L 12.0131 16L 10.5811 16L 10.5811 7.896L 11.3971 7.896C 11.5518 7.896 11.6585 7.92533 11.7171 7.984C 11.7758 8.04267 11.8158 8.144 11.8371 8.288L 11.9331 9.52ZM 19.4971 7.768C 20.0891 7.768 20.6225 7.86667 21.0971 8.064C 21.5718 8.26133 21.9771 8.54133 22.3131 8.904C 22.6491 9.26667 22.9051 9.70667 23.0811 10.224C 23.2625 10.736 23.3531 11.3093 23.3531 11.944C 23.3531 12.584 23.2625 13.16 23.0811 13.672C 22.9051 14.184 22.6491 14.6213 22.3131 14.984C 21.9771 15.3467 21.5718 15.6267 21.0971 15.824C 20.6225 16.016 20.0891 16.112 19.4971 16.112C 18.8998 16.112 18.3611 16.016 17.8811 15.824C 17.4065 15.6267 17.0011 15.3467 16.6651 14.984C 16.3291 14.6213 16.0705 14.184 15.8891 13.672C 15.7131 13.16 15.6251 12.584 15.6251 11.944C 15.6251 11.3093 15.7131 10.736 15.8891 10.224C 16.0705 9.70667 16.3291 9.26667 16.6651 8.904C 17.0011 8.54133 17.4065 8.26133 17.8811 8.064C 18.3611 7.86667 18.8998 7.768 19.4971 7.768ZM 19.4971 15C 20.2971 15 20.8945 14.7333 21.2891 14.2C 21.6838 13.6613 21.8811 12.912 21.8811 11.952C 21.8811 10.9867 21.6838 10.2347 21.2891 9.696C 20.8945 9.15733 20.2971 8.888 19.4971 8.888C 19.0918 8.888 18.7371 8.95733 18.4331 9.096C 18.1345 9.23467 17.8838 9.43467 17.6811 9.696C 17.4838 9.95733 17.3345 10.28 17.2331 10.664C 17.1371 11.0427 17.0891 11.472 17.0891 11.952C 17.0891 12.912 17.2865 13.6613 17.6811 14.2C 18.0811 14.7333 18.6865 15 19.4971 15ZM 27.5066 16.128C 26.8666 16.128 26.3733 15.9493 26.0266 15.592C 25.6853 15.2347 25.5146 14.72 25.5146 14.048L 25.5146 9.088L 24.5386 9.088C 24.4533 9.088 24.3813 9.064 24.3226 9.016C 24.264 8.96267 24.2346 8.88267 24.2346 8.776L 24.2346 8.208L 25.5626 8.04L 25.8906 5.536C 25.9066 5.456 25.9413 5.392 25.9946 5.344C 26.0533 5.29067 26.128 5.264 26.2186 5.264L 26.9386 5.264L 26.9386 8.056L 29.2826 8.056L 29.2826 9.088L 26.9386 9.088L 26.9386 13.952C 26.9386 14.2933 27.0213 14.5467 27.1866 14.712C 27.352 14.8773 27.5653 14.96 27.8266 14.96C 27.976 14.96 28.104 14.9413 28.2106 14.904C 28.3226 14.8613 28.4186 14.816 28.4986 14.768C 28.5786 14.72 28.6453 14.6773 28.6986 14.64C 28.7573 14.5973 28.808 14.576 28.8506 14.576C 28.9253 14.576 28.992 14.6213 29.0506 14.712L 29.4666 15.392C 29.2213 15.6213 28.9253 15.8027 28.5786 15.936C 28.232 16.064 27.8746 16.128 27.5066 16.128ZM 36.1301 11.064C 36.1301 10.7333 36.0821 10.432 35.9861 10.16C 35.8955 9.88267 35.7595 9.64533 35.5781 9.448C 35.4021 9.24533 35.1861 9.09067 34.9301 8.984C 34.6741 8.872 34.3835 8.816 34.0581 8.816C 33.3755 8.816 32.8341 9.016 32.4341 9.416C 32.0395 9.81067 31.7941 10.36 31.6981 11.064L 36.1301 11.064ZM 37.2821 14.864C 37.1061 15.0773 36.8955 15.264 36.6501 15.424C 36.4048 15.5787 36.1408 15.7067 35.8581 15.808C 35.5808 15.9093 35.2928 15.984 34.9941 16.032C 34.6955 16.0853 34.3995 16.112 34.1061 16.112C 33.5461 16.112 33.0288 16.0187 32.5541 15.832C 32.0848 15.64 31.6768 15.3627 31.3301 15C 30.9888 14.632 30.7221 14.1787 30.5301 13.64C 30.3381 13.1013 30.2421 12.4827 30.2421 11.784C 30.2421 11.2187 30.3275 10.6907 30.4981 10.2C 30.6741 9.70933 30.9248 9.28533 31.2501 8.928C 31.5755 8.56533 31.9728 8.28267 32.4421 8.08C 32.9115 7.872 33.4395 7.768 34.0261 7.768C 34.5115 7.768 34.9595 7.85067 35.3701 8.016C 35.7861 8.176 36.1435 8.41067 36.4421 8.72C 36.7461 9.024 36.9835 9.40267 37.1541 9.856C 37.3248 10.304 37.4101 10.816 37.4101 11.392C 37.4101 11.616 37.3861 11.7653 37.3381 11.84C 37.2901 11.9147 37.1995 11.952 37.0661 11.952L 31.6501 11.952C 31.6661 12.464 31.7355 12.9093 31.8581 13.288C 31.9861 13.6667 32.1621 13.984 32.3861 14.24C 32.6101 14.4907 32.8768 14.68 33.1861 14.808C 33.4955 14.9307 33.8421 14.992 34.2261 14.992C 34.5835 14.992 34.8901 14.952 35.1461 14.872C 35.4075 14.7867 35.6315 14.696 35.8181 14.6C 36.0048 14.504 36.1595 14.416 36.2821 14.336C 36.4101 14.2507 36.5195 14.208 36.6101 14.208C 36.7275 14.208 36.8181 14.2533 36.8821 14.344L 37.2821 14.864ZM 44.7993 9.336C 44.7566 9.39467 44.7139 9.44 44.6712 9.472C 44.6286 9.504 44.5699 9.52 44.4953 9.52C 44.4152 9.52 44.3273 9.488 44.2312 9.424C 44.1353 9.35467 44.0153 9.28 43.8713 9.2C 43.7326 9.12 43.5592 9.048 43.3513 8.984C 43.1486 8.91467 42.8979 8.88 42.5992 8.88C 42.1993 8.88 41.8472 8.952 41.5433 9.096C 41.2392 9.23467 40.9832 9.43733 40.7752 9.704C 40.5726 9.97067 40.4179 10.2933 40.3112 10.672C 40.2099 11.0507 40.1593 11.4747 40.1593 11.944C 40.1593 12.4347 40.2153 12.872 40.3273 13.256C 40.4392 13.6347 40.5966 13.9547 40.7992 14.216C 41.0073 14.472 41.2552 14.6693 41.5433 14.808C 41.8366 14.9413 42.1646 15.008 42.5272 15.008C 42.8739 15.008 43.1592 14.968 43.3833 14.888C 43.6073 14.8027 43.7913 14.7093 43.9352 14.608C 44.0846 14.5067 44.2073 14.416 44.3032 14.336C 44.4046 14.2507 44.5033 14.208 44.5992 14.208C 44.7166 14.208 44.8073 14.2533 44.8713 14.344L 45.2712 14.864C 45.0953 15.0827 44.8952 15.2693 44.6712 15.424C 44.4472 15.5787 44.2046 15.7093 43.9433 15.816C 43.6873 15.9173 43.4179 15.992 43.1353 16.04C 42.8526 16.088 42.5646 16.112 42.2712 16.112C 41.7646 16.112 41.2926 16.0187 40.8552 15.832C 40.4232 15.6453 40.0473 15.376 39.7272 15.024C 39.4073 14.6667 39.1566 14.2293 38.9753 13.712C 38.7939 13.1947 38.7032 12.6053 38.7032 11.944C 38.7032 11.3413 38.7859 10.784 38.9513 10.272C 39.1219 9.76 39.3672 9.32 39.6873 8.952C 40.0126 8.57867 40.4099 8.288 40.8793 8.08C 41.3539 7.872 41.8979 7.768 42.5113 7.768C 43.0819 7.768 43.5833 7.86133 44.0153 8.048C 44.4526 8.22933 44.8393 8.488 45.1753 8.824L 44.7993 9.336ZM 49.2879 16.128C 48.6479 16.128 48.1545 15.9493 47.8079 15.592C 47.4665 15.2347 47.2959 14.72 47.2959 14.048L 47.2959 9.088L 46.3199 9.088C 46.2345 9.088 46.1625 9.064 46.1039 9.016C 46.0452 8.96267 46.0159 8.88267 46.0159 8.776L 46.0159 8.208L 47.3439 8.04L 47.6719 5.536C 47.6879 5.456 47.7225 5.392 47.7759 5.344C 47.8345 5.29067 47.9092 5.264 47.9999 5.264L 48.7199 5.264L 48.7199 8.056L 51.0639 8.056L 51.0639 9.088L 48.7199 9.088L 48.7199 13.952C 48.7199 14.2933 48.8025 14.5467 48.9679 14.712C 49.1332 14.8773 49.3465 14.96 49.6079 14.96C 49.7572 14.96 49.8852 14.9413 49.9919 14.904C 50.1039 14.8613 50.1999 14.816 50.2799 14.768C 50.3599 14.72 50.4265 14.6773 50.4799 14.64C 50.5385 14.5973 50.5892 14.576 50.6319 14.576C 50.7065 14.576 50.7732 14.6213 50.8319 14.712L 51.2479 15.392C 51.0025 15.6213 50.7065 15.8027 50.3599 15.936C 50.0132 16.064 49.6559 16.128 49.2879 16.128Z"/>
<path id="path41_fill" d="M 3.016 5.8L 3.016 9.808L 7.728 9.808L 7.728 11.072L 3.016 11.072L 3.016 16L 1.464 16L 1.464 4.536L 8.528 4.536L 8.528 5.8L 3.016 5.8ZM 11.6476 7.896L 11.6476 16L 10.2236 16L 10.2236 7.896L 11.6476 7.896ZM 11.9516 5.352C 11.9516 5.49067 11.9223 5.62133 11.8636 5.744C 11.8103 5.86133 11.7356 5.968 11.6396 6.064C 11.549 6.15467 11.4396 6.22667 11.3116 6.28C 11.189 6.33333 11.0583 6.36 10.9196 6.36C 10.781 6.36 10.6503 6.33333 10.5276 6.28C 10.4103 6.22667 10.3063 6.15467 10.2156 6.064C 10.125 5.968 10.053 5.86133 9.99963 5.744C 9.94629 5.62133 9.91962 5.49067 9.91962 5.352C 9.91962 5.21333 9.94629 5.08267 9.99963 4.96C 10.053 4.832 10.125 4.72267 10.2156 4.632C 10.3063 4.536 10.4103 4.46133 10.5276 4.408C 10.6503 4.35467 10.781 4.328 10.9196 4.328C 11.0583 4.328 11.189 4.35467 11.3116 4.408C 11.4396 4.46133 11.549 4.536 11.6396 4.632C 11.7356 4.72267 11.8103 4.832 11.8636 4.96C 11.9223 5.08267 11.9516 5.21333 11.9516 5.352ZM 15.4594 4.216L 15.4594 16L 14.0354 16L 14.0354 4.216L 15.4594 4.216ZM 23.1926 11.064C 23.1926 10.7333 23.1446 10.432 23.0486 10.16C 22.958 9.88267 22.822 9.64533 22.6406 9.448C 22.4646 9.24533 22.2486 9.09067 21.9926 8.984C 21.7366 8.872 21.446 8.816 21.1206 8.816C 20.438 8.816 19.8966 9.016 19.4966 9.416C 19.102 9.81067 18.8566 10.36 18.7606 11.064L 23.1926 11.064ZM 24.3446 14.864C 24.1686 15.0773 23.958 15.264 23.7126 15.424C 23.4673 15.5787 23.2033 15.7067 22.9206 15.808C 22.6433 15.9093 22.3553 15.984 22.0566 16.032C 21.758 16.0853 21.462 16.112 21.1686 16.112C 20.6086 16.112 20.0913 16.0187 19.6166 15.832C 19.1473 15.64 18.7393 15.3627 18.3926 15C 18.0513 14.632 17.7846 14.1787 17.5926 13.64C 17.4006 13.1013 17.3046 12.4827 17.3046 11.784C 17.3046 11.2187 17.39 10.6907 17.5606 10.2C 17.7366 9.70933 17.9873 9.28533 18.3126 8.928C 18.638 8.56533 19.0353 8.28267 19.5046 8.08C 19.974 7.872 20.502 7.768 21.0886 7.768C 21.574 7.768 22.022 7.85067 22.4326 8.016C 22.8486 8.176 23.206 8.41067 23.5046 8.72C 23.8086 9.024 24.046 9.40267 24.2166 9.856C 24.3873 10.304 24.4726 10.816 24.4726 11.392C 24.4726 11.616 24.4486 11.7653 24.4006 11.84C 24.3526 11.9147 24.262 11.952 24.1286 11.952L 18.7126 11.952C 18.7286 12.464 18.798 12.9093 18.9206 13.288C 19.0486 13.6667 19.2246 13.984 19.4486 14.24C 19.6726 14.4907 19.9393 14.68 20.2486 14.808C 20.558 14.9307 20.9046 14.992 21.2886 14.992C 21.646 14.992 21.9526 14.952 22.2086 14.872C 22.47 14.7867 22.694 14.696 22.8806 14.6C 23.0673 14.504 23.222 14.416 23.3446 14.336C 23.4726 14.2507 23.582 14.208 23.6726 14.208C 23.79 14.208 23.8806 14.2533 23.9446 14.344L 24.3446 14.864ZM 31.8195 7.896L 31.8195 16L 30.3955 16L 30.3955 7.896L 31.8195 7.896ZM 32.1235 5.352C 32.1235 5.49067 32.0942 5.62133 32.0355 5.744C 31.9822 5.86133 31.9075 5.968 31.8115 6.064C 31.7208 6.15467 31.6115 6.22667 31.4835 6.28C 31.3608 6.33333 31.2302 6.36 31.0915 6.36C 30.9528 6.36 30.8222 6.33333 30.6995 6.28C 30.5822 6.22667 30.4782 6.15467 30.3875 6.064C 30.2968 5.968 30.2248 5.86133 30.1715 5.744C 30.1182 5.62133 30.0915 5.49067 30.0915 5.352C 30.0915 5.21333 30.1182 5.08267 30.1715 4.96C 30.2248 4.832 30.2968 4.72267 30.3875 4.632C 30.4782 4.536 30.5822 4.46133 30.6995 4.408C 30.8222 4.35467 30.9528 4.328 31.0915 4.328C 31.2302 4.328 31.3608 4.35467 31.4835 4.408C 31.6115 4.46133 31.7208 4.536 31.8115 4.632C 31.9075 4.72267 31.9822 4.832 32.0355 4.96C 32.0942 5.08267 32.1235 5.21333 32.1235 5.352ZM 35.5032 9.072C 35.6793 8.87467 35.8659 8.696 36.0633 8.536C 36.2606 8.376 36.4686 8.24 36.6872 8.128C 36.9113 8.01067 37.1459 7.92267 37.3913 7.864C 37.6419 7.8 37.9113 7.768 38.1993 7.768C 38.6419 7.768 39.0312 7.84267 39.3672 7.992C 39.7086 8.136 39.9913 8.344 40.2153 8.616C 40.4446 8.88267 40.6179 9.20533 40.7352 9.584C 40.8526 9.96267 40.9113 10.3813 40.9113 10.84L 40.9113 16L 39.4792 16L 39.4792 10.84C 39.4792 10.2267 39.3379 9.752 39.0553 9.416C 38.7779 9.07467 38.3539 8.904 37.7832 8.904C 37.3619 8.904 36.9673 9.00533 36.5993 9.208C 36.2366 9.41067 35.9006 9.68533 35.5912 10.032L 35.5912 16L 34.1593 16L 34.1593 7.896L 35.0152 7.896C 35.2179 7.896 35.3433 7.99467 35.3912 8.192L 35.5032 9.072ZM 43.4841 16L 43.4841 9.112L 42.5881 9.008C 42.4761 8.98133 42.3828 8.94133 42.3081 8.888C 42.2388 8.82933 42.2041 8.74667 42.2041 8.64L 42.2041 8.056L 43.4841 8.056L 43.4841 7.272C 43.4841 6.808 43.5481 6.39733 43.6761 6.04C 43.8095 5.67733 43.9961 5.37333 44.2361 5.128C 44.4815 4.87733 44.7748 4.688 45.1161 4.56C 45.4575 4.432 45.8415 4.368 46.2681 4.368C 46.6308 4.368 46.9641 4.42133 47.2681 4.528L 47.2361 5.24C 47.2255 5.368 47.1535 5.43733 47.0201 5.448C 46.8921 5.45867 46.7188 5.464 46.5001 5.464C 46.2548 5.464 46.0308 5.496 45.8281 5.56C 45.6308 5.624 45.4601 5.728 45.3161 5.872C 45.1721 6.016 45.0601 6.20533 44.9801 6.44C 44.9055 6.67467 44.8681 6.96533 44.8681 7.312L 44.8681 8.056L 47.2041 8.056L 47.2041 9.088L 44.9161 9.088L 44.9161 16L 43.4841 16ZM 51.7159 7.768C 52.3079 7.768 52.8412 7.86667 53.3159 8.064C 53.7905 8.26133 54.1959 8.54133 54.5319 8.904C 54.8679 9.26667 55.1239 9.70667 55.2999 10.224C 55.4812 10.736 55.5719 11.3093 55.5719 11.944C 55.5719 12.584 55.4812 13.16 55.2999 13.672C 55.1239 14.184 54.8679 14.6213 54.5319 14.984C 54.1959 15.3467 53.7905 15.6267 53.3159 15.824C 52.8412 16.016 52.3079 16.112 51.7159 16.112C 51.1185 16.112 50.5799 16.016 50.0999 15.824C 49.6252 15.6267 49.2199 15.3467 48.8839 14.984C 48.5479 14.6213 48.2892 14.184 48.1079 13.672C 47.9319 13.16 47.8439 12.584 47.8439 11.944C 47.8439 11.3093 47.9319 10.736 48.1079 10.224C 48.2892 9.70667 48.5479 9.26667 48.8839 8.904C 49.2199 8.54133 49.6252 8.26133 50.0999 8.064C 50.5799 7.86667 51.1185 7.768 51.7159 7.768ZM 51.7159 15C 52.5159 15 53.1132 14.7333 53.5079 14.2C 53.9025 13.6613 54.0999 12.912 54.0999 11.952C 54.0999 10.9867 53.9025 10.2347 53.5079 9.696C 53.1132 9.15733 52.5159 8.888 51.7159 8.888C 51.3105 8.888 50.9559 8.95733 50.6519 9.096C 50.3532 9.23467 50.1025 9.43467 49.8999 9.696C 49.7025 9.95733 49.5532 10.28 49.4519 10.664C 49.3559 11.0427 49.3079 11.472 49.3079 11.952C 49.3079 12.912 49.5052 13.6613 49.8999 14.2C 50.2999 14.7333 50.9052 15 51.7159 15Z"/>
<path id="path42_fill" fill-rule="evenodd" d="M 9 3C 9 1.34314 10.3428 0 12 0C 13.6572 0 15 1.34314 15 3C 15 4.65686 13.6572 6 12 6C 11.1924 6 10.459 5.68085 9.91992 5.16174L 5.92676 7.46692C 5.97461 7.6796 6 7.90085 6 8.12799C 6 8.28342 5.98828 8.4361 5.96582 8.58517L 9.91992 10.8682C 10.459 10.3491 11.1924 10.0299 12 10.0299C 13.6572 10.0299 15 11.373 15 13.0299C 15 14.6868 13.6572 16.0299 12 16.0299C 10.3428 16.0299 9 14.6868 9 13.0299C 9 12.9045 9.00781 12.781 9.02246 12.6596L 5.01855 10.3477C 4.48535 10.8325 3.77734 11.128 3 11.128C 1.34277 11.128 0 9.78485 0 8.12799C 0 6.47113 1.34277 5.12799 3 5.12799C 3.70215 5.12799 4.34863 5.36935 4.85938 5.77368L 9.02246 3.37027C 9.00781 3.24893 9 3.12537 9 3Z"/>
<path id="path43_fill" fill-rule="evenodd" d="M 11 5L 11 7L 5 7L 5 5C 5 3.34314 6.34277 2 8 2C 9.65723 2 11 3.34314 11 5ZM 3 7L 3 5C 3 2.23857 5.23828 0 8 0C 10.7617 0 13 2.23857 13 5L 13 7L 14 7C 15.1045 7 16 7.89543 16 9L 16 15C 16 16.1046 15.1045 17 14 17L 2 17C 0.895508 17 0 16.1046 0 15L 0 9C 0 7.89543 0.895508 7 2 7L 3 7Z"/>
<path id="path44_fill" fill-rule="evenodd" d="M 10 4.32227C 10.5527 4.32227 11 4.76953 11 5.32227L 11 6.69531L 12.5303 6.69531C 13.083 6.69531 13.5303 7.14258 13.5303 7.69531C 13.5303 8.24805 13.083 8.69531 12.5303 8.69531L 10 8.69531C 9.44727 8.69531 9 8.24805 9 7.69531L 9 5.32227C 9 4.76953 9.44727 4.32227 10 4.32227ZM 10.1973 2L 3 2C 2.44727 2 2 2.44727 2 3L 2 19C 2 19.5527 2.44727 20 3 20L 15 20C 15.5527 20 16 19.5527 16 19L 16 7.55078L 10.1973 2ZM 11 0L 3 0C 1.34277 0 0 1.34375 0 3L 0 19C 0 20.6562 1.34277 22 3 22L 15 22C 16.6572 22 18 20.6562 18 19L 18 6.69531L 11 0ZM 5.5 13C 5.5 12.4473 5.94727 12 6.5 12L 10.5 12C 11.0527 12 11.5 12.4473 11.5 13C 11.5 13.5527 11.0527 14 10.5 14L 6.5 14C 5.94727 14 5.5 13.5527 5.5 13ZM 6.5 15C 5.94727 15 5.5 15.4473 5.5 16C 5.5 16.5527 5.94727 17 6.5 17L 10.5 17C 11.0527 17 11.5 16.5527 11.5 16C 11.5 15.4473 11.0527 15 10.5 15L 6.5 15Z"/>
<path id="path45_fill" d="M 0 0L 167 0L 167 38L 0 38L 0 0Z"/>
<path id="path46_fill" d="M 24 12C 24 18.6274 18.6274 24 12 24C 5.37258 24 0 18.6274 0 12C 0 5.37258 5.37258 0 12 0C 18.6274 0 24 5.37258 24 12Z"/>
<path id="path47_fill" fill-rule="evenodd" d="M 2.55957 1.50775C 2.55957 2.34042 1.98633 3.01547 1.2793 3.01547C 0.573242 3.01547 0 2.34042 0 1.50775C 0 0.675049 0.573242 0 1.2793 0C 1.98633 0 2.55957 0.675049 2.55957 1.50775ZM 7.03906 1.50775C 7.03906 2.34042 6.46582 3.01547 5.75879 3.01547C 5.05273 3.01547 4.47949 2.34042 4.47949 1.50775C 4.47949 0.675049 5.05273 0 5.75879 0C 6.46582 0 7.03906 0.675049 7.03906 1.50775ZM 10.2373 3.01547C 10.9443 3.01547 11.5176 2.34042 11.5176 1.50775C 11.5176 0.675049 10.9443 0 10.2373 0C 9.53125 0 8.95801 0.675049 8.95801 1.50775C 8.95801 2.34042 9.53125 3.01547 10.2373 3.01547Z"/>
<path id="path48_fill" d="M 3.97369 5.76L 3.47769 9.84L 7.76569 9.84L 7.60569 11.056L 3.32569 11.056L 2.71769 16L 1.21369 16L 2.62169 4.536L 9.14969 4.536L 8.99769 5.76L 3.97369 5.76ZM 9.23856 16L 10.6706 4.216L 12.0706 4.216L 10.6386 16L 9.23856 16ZM 15.2483 7.896L 14.2723 16L 12.8723 16L 13.8483 7.896L 15.2483 7.896ZM 15.7923 5.352C 15.7923 5.49067 15.763 5.62133 15.7043 5.744C 15.651 5.86133 15.5763 5.968 15.4803 6.064C 15.3896 6.15467 15.283 6.22667 15.1603 6.28C 15.043 6.33333 14.9203 6.36 14.7923 6.36C 14.6696 6.36 14.5496 6.33333 14.4323 6.28C 14.315 6.22667 14.211 6.15467 14.1203 6.064C 14.035 5.968 13.9656 5.86133 13.9123 5.744C 13.859 5.62133 13.8323 5.49067 13.8323 5.352C 13.8323 5.21333 13.859 5.08267 13.9123 4.96C 13.9656 4.83733 14.0376 4.73067 14.1283 4.64C 14.219 4.544 14.323 4.46933 14.4403 4.416C 14.5576 4.35733 14.6776 4.328 14.8003 4.328C 14.9283 4.328 15.051 4.35467 15.1683 4.408C 15.291 4.46133 15.3976 4.536 15.4883 4.632C 15.579 4.72267 15.651 4.832 15.7043 4.96C 15.763 5.08267 15.7923 5.21333 15.7923 5.352ZM 19.5198 12.344C 19.8078 12.344 20.0611 12.2827 20.2798 12.16C 20.5038 12.032 20.6905 11.8667 20.8398 11.664C 20.9945 11.456 21.1118 11.224 21.1918 10.968C 21.2718 10.712 21.3118 10.4533 21.3118 10.192C 21.3118 9.72267 21.1918 9.368 20.9518 9.128C 20.7171 8.888 20.3918 8.768 19.9758 8.768C 19.6878 8.768 19.4345 8.82667 19.2158 8.944C 18.9971 9.06133 18.8105 9.21867 18.6558 9.416C 18.5065 9.61333 18.3918 9.83733 18.3118 10.088C 18.2371 10.3387 18.1998 10.6 18.1998 10.872C 18.1998 11.352 18.3145 11.7173 18.5438 11.968C 18.7785 12.2187 19.1038 12.344 19.5198 12.344ZM 21.1278 16.2C 21.1278 16.056 21.1145 15.9253 21.0878 15.808C 21.0611 15.6853 21.0265 15.5707 20.9838 15.464C 20.2798 15.352 19.6718 15.312 19.1598 15.344C 18.6478 15.3707 18.2238 15.448 17.8878 15.576C 17.5571 15.704 17.3118 15.8693 17.1518 16.072C 16.9918 16.2747 16.9118 16.4933 16.9118 16.728C 16.9118 17.112 17.0718 17.4053 17.3918 17.608C 17.7171 17.8107 18.1758 17.912 18.7678 17.912C 19.1198 17.912 19.4398 17.864 19.7278 17.768C 20.0211 17.6773 20.2691 17.5547 20.4718 17.4C 20.6798 17.2453 20.8398 17.064 20.9518 16.856C 21.0691 16.648 21.1278 16.4293 21.1278 16.2ZM 23.8478 8.192L 23.7918 8.664C 23.7651 8.856 23.6585 8.984 23.4718 9.048L 22.4558 9.224C 22.5571 9.50133 22.6078 9.808 22.6078 10.144C 22.6078 10.4107 22.5758 10.6507 22.5118 10.864C 22.4531 11.0773 22.3785 11.2747 22.2878 11.456C 22.1971 11.6373 22.0985 11.808 21.9918 11.968C 21.8851 12.128 21.7865 12.288 21.6958 12.448C 21.6051 12.6027 21.5278 12.7653 21.4638 12.936C 21.4051 13.1013 21.3758 13.2827 21.3758 13.48C 21.3758 13.624 21.3998 13.7627 21.4478 13.896C 21.5011 14.024 21.5651 14.152 21.6398 14.28C 21.7198 14.4027 21.8051 14.528 21.8958 14.656C 21.9918 14.784 22.0771 14.92 22.1518 15.064C 22.2318 15.208 22.2958 15.3653 22.3438 15.536C 22.3971 15.7013 22.4238 15.8853 22.4238 16.088C 22.4185 16.4667 22.3278 16.824 22.1518 17.16C 21.9758 17.5013 21.7251 17.8027 21.3998 18.064C 21.0745 18.3253 20.6798 18.5307 20.2158 18.68C 19.7518 18.8347 19.2291 18.912 18.6478 18.912C 18.1838 18.912 17.7598 18.864 17.3758 18.768C 16.9971 18.672 16.6718 18.536 16.3998 18.36C 16.1331 18.184 15.9278 17.9707 15.7838 17.72C 15.6345 17.4747 15.5598 17.2027 15.5598 16.904C 15.5598 16.5627 15.6318 16.2613 15.7758 16C 15.9198 15.7387 16.1145 15.5147 16.3598 15.328C 16.6051 15.136 16.8905 14.9787 17.2158 14.856C 17.5411 14.7333 17.8851 14.6427 18.2478 14.584C 18.6158 14.5253 18.9918 14.4987 19.3758 14.504C 19.7598 14.504 20.1358 14.5307 20.5038 14.584C 20.4558 14.4827 20.4158 14.3787 20.3838 14.272C 20.3571 14.16 20.3438 14.04 20.3438 13.912C 20.3438 13.7467 20.3678 13.576 20.4158 13.4C 20.4691 13.224 20.5545 13.024 20.6718 12.8C 20.4691 12.9387 20.2425 13.048 19.9918 13.128C 19.7411 13.2027 19.4558 13.24 19.1358 13.24C 18.8265 13.24 18.5358 13.1893 18.2638 13.088C 17.9971 12.9867 17.7625 12.8373 17.5598 12.64C 17.3571 12.4427 17.1971 12.1973 17.0798 11.904C 16.9625 11.6053 16.9038 11.2587 16.9038 10.864C 16.9038 10.48 16.9731 10.104 17.1118 9.736C 17.2558 9.36267 17.4638 9.032 17.7358 8.744C 18.0078 8.45067 18.3438 8.216 18.7438 8.04C 19.1438 7.864 19.6051 7.776 20.1278 7.776C 20.4158 7.776 20.6905 7.81067 20.9518 7.88C 21.2131 7.94933 21.4478 8.05333 21.6558 8.192L 23.8478 8.192ZM 24.7978 10.624L 28.4538 10.624L 28.3098 11.792L 24.6538 11.792L 24.7978 10.624ZM 33.9592 8.808C 33.6232 8.808 33.3139 8.87733 33.0312 9.016C 32.7485 9.15467 32.4979 9.34667 32.2792 9.592C 32.0605 9.832 31.8739 10.1173 31.7192 10.448C 31.5645 10.7733 31.4445 11.1253 31.3592 11.504C 32.1805 11.4027 32.8392 11.288 33.3352 11.16C 33.8312 11.0267 34.2125 10.8853 34.4792 10.736C 34.7459 10.5813 34.9219 10.416 35.0072 10.24C 35.0925 10.064 35.1352 9.88 35.1352 9.688C 35.1352 9.592 35.1139 9.49333 35.0712 9.392C 35.0285 9.28533 34.9592 9.18933 34.8632 9.104C 34.7725 9.01867 34.6525 8.94933 34.5032 8.896C 34.3539 8.83733 34.1725 8.808 33.9592 8.808ZM 36.2152 14.504C 35.9432 14.7867 35.6765 15.0293 35.4152 15.232C 35.1539 15.4293 34.8872 15.5947 34.6152 15.728C 34.3485 15.8613 34.0659 15.9573 33.7672 16.016C 33.4739 16.08 33.1565 16.112 32.8152 16.112C 32.3512 16.112 31.9352 16.0347 31.5672 15.88C 31.1992 15.7253 30.8872 15.5067 30.6312 15.224C 30.3752 14.936 30.1779 14.5893 30.0392 14.184C 29.9005 13.7787 29.8312 13.3253 29.8312 12.824C 29.8312 12.408 29.8739 11.9947 29.9592 11.584C 30.0499 11.168 30.1779 10.7733 30.3432 10.4C 30.5139 10.0267 30.7192 9.68 30.9592 9.36C 31.2045 9.04 31.4819 8.76533 31.7912 8.536C 32.1059 8.30133 32.4499 8.11733 32.8232 7.984C 33.2019 7.85067 33.6072 7.784 34.0392 7.784C 34.4499 7.784 34.8045 7.84267 35.1032 7.96C 35.4019 8.07733 35.6472 8.22667 35.8392 8.408C 36.0312 8.58933 36.1725 8.78933 36.2632 9.008C 36.3592 9.22667 36.4072 9.43467 36.4072 9.632C 36.4072 9.984 36.3352 10.3093 36.1912 10.608C 36.0472 10.9013 35.7832 11.168 35.3992 11.408C 35.0152 11.6427 34.4872 11.848 33.8152 12.024C 33.1432 12.2 32.2792 12.3413 31.2232 12.448C 31.2232 12.5067 31.2205 12.5653 31.2152 12.624C 31.2152 12.6773 31.2152 12.7333 31.2152 12.792C 31.2152 13.5067 31.3699 14.0533 31.6792 14.432C 31.9939 14.8053 32.4659 14.992 33.0952 14.992C 33.3512 14.992 33.5779 14.9653 33.7752 14.912C 33.9779 14.8587 34.1565 14.7947 34.3112 14.72C 34.4712 14.64 34.6099 14.5547 34.7272 14.464C 34.8499 14.368 34.9592 14.2827 35.0552 14.208C 35.1565 14.128 35.2499 14.0613 35.3352 14.008C 35.4205 13.9547 35.5059 13.928 35.5912 13.928C 35.6925 13.928 35.7832 13.9733 35.8632 14.064L 36.2152 14.504ZM 41.5914 11.648L 43.7434 16L 42.4794 16C 42.3728 16 42.2874 15.9733 42.2234 15.92C 42.1648 15.8667 42.1168 15.8 42.0794 15.72L 40.5594 12.472C 40.5114 12.584 40.4554 12.688 40.3914 12.784L 38.1834 15.728C 38.1248 15.8027 38.0634 15.8667 37.9994 15.92C 37.9354 15.9733 37.8554 16 37.7594 16L 36.5194 16L 39.7914 11.64L 37.8474 7.896L 39.1194 7.896C 39.2261 7.896 39.3034 7.912 39.3514 7.944C 39.3994 7.97067 39.4394 8.02133 39.4714 8.096L 40.8314 10.888C 40.8901 10.7707 40.9568 10.656 41.0314 10.544L 42.8634 8.12C 42.9488 7.97067 43.0608 7.896 43.1994 7.896L 44.4794 7.896L 41.5914 11.648ZM 45.5573 14.472C 45.5573 14.44 45.5573 14.4 45.5573 14.352C 45.5573 14.2987 45.56 14.224 45.5653 14.128C 45.576 14.032 45.5893 13.9067 45.6053 13.752C 45.6266 13.5973 45.6533 13.3947 45.6853 13.144L 46.1813 9.088L 45.2773 9.088C 45.2026 9.088 45.1413 9.064 45.0933 9.016C 45.0506 8.96267 45.0346 8.88267 45.0453 8.776L 45.1093 8.208L 46.3573 8.04L 46.9653 5.536C 46.992 5.456 47.032 5.392 47.0853 5.344C 47.144 5.29067 47.216 5.264 47.3013 5.264L 48.0453 5.264L 47.7013 8.056L 49.8293 8.056L 49.7093 9.088L 47.5733 9.088L 47.0853 13.072C 47.0586 13.2907 47.0373 13.4667 47.0213 13.6C 47.0053 13.7333 46.992 13.84 46.9813 13.92C 46.976 14 46.9706 14.056 46.9653 14.088C 46.9653 14.12 46.9653 14.144 46.9653 14.16C 46.9653 14.432 47.0293 14.6347 47.1573 14.768C 47.2853 14.896 47.456 14.96 47.6693 14.96C 47.8133 14.96 47.936 14.9413 48.0373 14.904C 48.144 14.8613 48.2373 14.816 48.3173 14.768C 48.3973 14.72 48.464 14.6773 48.5173 14.64C 48.5706 14.5973 48.616 14.576 48.6533 14.576C 48.7013 14.576 48.736 14.5867 48.7573 14.608C 48.784 14.6293 48.808 14.664 48.8293 14.712L 49.1333 15.392C 48.872 15.6213 48.5733 15.8027 48.2373 15.936C 47.9066 16.064 47.5733 16.128 47.2373 16.128C 46.72 16.128 46.312 15.9867 46.0133 15.704C 45.72 15.4213 45.568 15.0107 45.5573 14.472ZM 50.5332 15.12C 50.5332 14.9813 50.5572 14.8507 50.6052 14.728C 50.6585 14.6053 50.7279 14.4987 50.8132 14.408C 50.9039 14.3173 51.0105 14.2453 51.1332 14.192C 51.2559 14.1387 51.3865 14.112 51.5252 14.112C 51.6639 14.112 51.7945 14.1387 51.9172 14.192C 52.0399 14.2453 52.1465 14.3173 52.2372 14.408C 52.3279 14.4987 52.3999 14.6053 52.4532 14.728C 52.5065 14.8507 52.5332 14.9813 52.5332 15.12C 52.5332 15.264 52.5065 15.3973 52.4532 15.52C 52.3999 15.6373 52.3279 15.7413 52.2372 15.832C 52.1465 15.9227 52.0399 15.992 51.9172 16.04C 51.7945 16.0933 51.6639 16.12 51.5252 16.12C 51.3865 16.12 51.2559 16.0933 51.1332 16.04C 51.0105 15.992 50.9039 15.9227 50.8132 15.832C 50.7279 15.7413 50.6585 15.6373 50.6052 15.52C 50.5572 15.3973 50.5332 15.264 50.5332 15.12ZM 60.0592 9.664C 59.8565 9.376 59.6112 9.176 59.3232 9.064C 59.0405 8.94667 58.7525 8.888 58.4592 8.888C 58.0379 8.888 57.6592 9.01333 57.3232 9.264C 56.9872 9.51467 56.6992 9.84 56.4592 10.24C 56.2245 10.6347 56.0432 11.0773 55.9152 11.568C 55.7872 12.0587 55.7232 12.5413 55.7232 13.016C 55.7232 13.6507 55.8352 14.136 56.0592 14.472C 56.2885 14.8027 56.6139 14.968 57.0352 14.968C 57.2912 14.968 57.5499 14.888 57.8112 14.728C 58.0725 14.568 58.3232 14.3467 58.5632 14.064C 58.8085 13.776 59.0352 13.4373 59.2432 13.048C 59.4565 12.6587 59.6405 12.232 59.7952 11.768L 60.0592 9.664ZM 62.1232 4.216L 60.6752 16L 59.9312 16C 59.7445 16 59.6192 15.952 59.5552 15.856C 59.4912 15.76 59.4592 15.6427 59.4592 15.504L 59.6112 13.8C 59.4085 14.152 59.1872 14.4693 58.9472 14.752C 58.7072 15.0347 58.4539 15.2773 58.1872 15.48C 57.9259 15.6827 57.6512 15.84 57.3632 15.952C 57.0805 16.0587 56.7925 16.112 56.4992 16.112C 55.8059 16.112 55.2672 15.8613 54.8832 15.36C 54.4992 14.8533 54.3072 14.12 54.3072 13.16C 54.3072 12.7227 54.3525 12.2853 54.4432 11.848C 54.5339 11.4107 54.6619 10.992 54.8272 10.592C 54.9979 10.192 55.2005 9.82133 55.4352 9.48C 55.6752 9.13333 55.9419 8.83467 56.2352 8.584C 56.5285 8.33333 56.8432 8.136 57.1792 7.992C 57.5205 7.848 57.8779 7.776 58.2512 7.776C 58.6512 7.776 59.0139 7.856 59.3392 8.016C 59.6699 8.17067 59.9499 8.392 60.1792 8.68L 60.7312 4.216L 62.1232 4.216ZM 74.0399 7.896L 70.6399 16L 69.5599 16C 69.4319 16 69.3519 15.9093 69.3199 15.728L 68.3359 10.232C 68.3253 10.1413 68.3146 10.056 68.3039 9.976C 68.2986 9.89067 68.2906 9.80267 68.2799 9.712C 68.2213 9.888 68.1573 10.064 68.0879 10.24L 65.7519 15.728C 65.6773 15.9093 65.5679 16 65.4239 16L 64.3839 16L 62.9599 7.896L 64.0239 7.896C 64.1306 7.896 64.2159 7.92267 64.2799 7.976C 64.3439 8.02933 64.3866 8.10133 64.4079 8.192L 65.1519 13.408C 65.1626 13.5947 65.1733 13.776 65.1839 13.952C 65.1946 14.128 65.2026 14.3013 65.2079 14.472C 65.2666 14.3013 65.3306 14.128 65.3999 13.952C 65.4693 13.776 65.5413 13.5947 65.6159 13.408L 67.8319 8.16C 67.8586 8.08 67.9093 8.01333 67.9839 7.96C 68.0586 7.90667 68.1413 7.88 68.2319 7.88L 68.8239 7.88C 68.9253 7.88 69.0053 7.90667 69.0639 7.96C 69.1226 8.01333 69.1573 8.08 69.1679 8.16L 70.0799 13.408C 70.1066 13.5947 70.1306 13.776 70.1519 13.952C 70.1733 14.1227 70.1919 14.296 70.2079 14.472C 70.2559 14.3013 70.3066 14.128 70.3599 13.952C 70.4186 13.776 70.4799 13.5947 70.5439 13.408L 72.5999 8.192C 72.6266 8.10667 72.6773 8.03733 72.7519 7.984C 72.8319 7.92533 72.9173 7.896 73.0079 7.896L 74.0399 7.896ZM 77.3323 12.344C 77.6203 12.344 77.8736 12.2827 78.0923 12.16C 78.3163 12.032 78.503 11.8667 78.6523 11.664C 78.807 11.456 78.9243 11.224 79.0043 10.968C 79.0843 10.712 79.1243 10.4533 79.1243 10.192C 79.1243 9.72267 79.0043 9.368 78.7643 9.128C 78.5296 8.888 78.2043 8.768 77.7883 8.768C 77.5003 8.768 77.247 8.82667 77.0283 8.944C 76.8096 9.06133 76.623 9.21867 76.4683 9.416C 76.319 9.61333 76.2043 9.83733 76.1243 10.088C 76.0496 10.3387 76.0123 10.6 76.0123 10.872C 76.0123 11.352 76.127 11.7173 76.3563 11.968C 76.591 12.2187 76.9163 12.344 77.3323 12.344ZM 78.9403 16.2C 78.9403 16.056 78.927 15.9253 78.9003 15.808C 78.8736 15.6853 78.839 15.5707 78.7963 15.464C 78.0923 15.352 77.4843 15.312 76.9723 15.344C 76.4603 15.3707 76.0363 15.448 75.7003 15.576C 75.3696 15.704 75.1243 15.8693 74.9643 16.072C 74.8043 16.2747 74.7243 16.4933 74.7243 16.728C 74.7243 17.112 74.8843 17.4053 75.2043 17.608C 75.5296 17.8107 75.9883 17.912 76.5803 17.912C 76.9323 17.912 77.2523 17.864 77.5403 17.768C 77.8336 17.6773 78.0816 17.5547 78.2843 17.4C 78.4923 17.2453 78.6523 17.064 78.7643 16.856C 78.8816 16.648 78.9403 16.4293 78.9403 16.2ZM 81.6603 8.192L 81.6043 8.664C 81.5776 8.856 81.471 8.984 81.2843 9.048L 80.2683 9.224C 80.3696 9.50133 80.4203 9.808 80.4203 10.144C 80.4203 10.4107 80.3883 10.6507 80.3243 10.864C 80.2656 11.0773 80.191 11.2747 80.1003 11.456C 80.0096 11.6373 79.911 11.808 79.8043 11.968C 79.6976 12.128 79.599 12.288 79.5083 12.448C 79.4176 12.6027 79.3403 12.7653 79.2763 12.936C 79.2176 13.1013 79.1883 13.2827 79.1883 13.48C 79.1883 13.624 79.2123 13.7627 79.2603 13.896C 79.3136 14.024 79.3776 14.152 79.4523 14.28C 79.5323 14.4027 79.6176 14.528 79.7083 14.656C 79.8043 14.784 79.8896 14.92 79.9643 15.064C 80.0443 15.208 80.1083 15.3653 80.1563 15.536C 80.2096 15.7013 80.2363 15.8853 80.2363 16.088C 80.231 16.4667 80.1403 16.824 79.9643 17.16C 79.7883 17.5013 79.5376 17.8027 79.2123 18.064C 78.887 18.3253 78.4923 18.5307 78.0283 18.68C 77.5643 18.8347 77.0416 18.912 76.4603 18.912C 75.9963 18.912 75.5723 18.864 75.1883 18.768C 74.8096 18.672 74.4843 18.536 74.2123 18.36C 73.9456 18.184 73.7403 17.9707 73.5963 17.72C 73.447 17.4747 73.3723 17.2027 73.3723 16.904C 73.3723 16.5627 73.4443 16.2613 73.5883 16C 73.7323 15.7387 73.927 15.5147 74.1723 15.328C 74.4176 15.136 74.703 14.9787 75.0283 14.856C 75.3536 14.7333 75.6976 14.6427 76.0603 14.584C 76.4283 14.5253 76.8043 14.4987 77.1883 14.504C 77.5723 14.504 77.9483 14.5307 78.3163 14.584C 78.2683 14.4827 78.2283 14.3787 78.1963 14.272C 78.1696 14.16 78.1563 14.04 78.1563 13.912C 78.1563 13.7467 78.1803 13.576 78.2283 13.4C 78.2816 13.224 78.367 13.024 78.4843 12.8C 78.2816 12.9387 78.055 13.048 77.8043 13.128C 77.5536 13.2027 77.2683 13.24 76.9483 13.24C 76.639 13.24 76.3483 13.1893 76.0763 13.088C 75.8096 12.9867 75.575 12.8373 75.3723 12.64C 75.1696 12.4427 75.0096 12.1973 74.8923 11.904C 74.775 11.6053 74.7163 11.2587 74.7163 10.864C 74.7163 10.48 74.7856 10.104 74.9243 9.736C 75.0683 9.36267 75.2763 9.032 75.5483 8.744C 75.8203 8.45067 76.1563 8.216 76.5563 8.04C 76.9563 7.864 77.4176 7.776 77.9403 7.776C 78.2283 7.776 78.503 7.81067 78.7643 7.88C 79.0256 7.94933 79.2603 8.05333 79.4683 8.192L 81.6603 8.192Z"/>
</defs>
</svg>
