<?xml version="1.0" encoding="utf-8"?>
<!-- Generator: Adobe Illustrator 15.1.0, SVG Export Plug-In . SVG Version: 6.00 Build 0)  -->
<!DOCTYPE svg PUBLIC "-//W3C//DTD SVG 1.1//EN" "http://www.w3.org/Graphics/SVG/1.1/DTD/svg11.dtd">
<svg version="1.1" id="Layer_1" xmlns="http://www.w3.org/2000/svg" xmlns:xlink="http://www.w3.org/1999/xlink" x="0px" y="0px"
	 width="230px" height="45px" viewBox="0 7.5 230 45" enable-background="new 0 7.5 230 45" xml:space="preserve">
<g>
	<path fill="#FFFFFF" d="M81.626,24.086c-0.191,0.306-0.39,0.533-0.602,0.687c-0.208,0.152-0.479,0.229-0.809,0.229
		c-0.293,0-0.609-0.09-0.944-0.275c-0.338-0.185-0.72-0.391-1.144-0.62c-0.428-0.229-0.914-0.436-1.461-0.619
		c-0.547-0.186-1.17-0.277-1.869-0.277c-1.209,0-2.109,0.258-2.699,0.773c-0.59,0.514-0.885,1.211-0.885,2.088
		c0,0.56,0.179,1.023,0.533,1.392c0.354,0.37,0.82,0.688,1.402,0.954c0.578,0.269,1.239,0.513,1.982,0.735
		c0.744,0.222,1.502,0.471,2.279,0.744c0.775,0.272,1.535,0.594,2.278,0.964c0.745,0.369,1.405,0.839,1.983,1.41
		c0.58,0.573,1.047,1.271,1.402,2.089c0.356,0.818,0.534,1.809,0.534,2.967c0,1.285-0.221,2.485-0.666,3.603
		c-0.446,1.116-1.091,2.094-1.937,2.928c-0.846,0.832-1.889,1.483-3.129,1.963c-1.238,0.479-2.647,0.713-4.226,0.713
		c-0.864,0-1.745-0.088-2.641-0.266c-0.897-0.181-1.765-0.433-2.603-0.754c-0.84-0.324-1.627-0.707-2.367-1.152
		c-0.738-0.445-1.379-0.939-1.926-1.486l1.905-3.014c0.153-0.215,0.354-0.396,0.601-0.543c0.248-0.146,0.52-0.219,0.812-0.219
		c0.381,0,0.765,0.119,1.153,0.36c0.388,0.24,0.826,0.509,1.315,0.802c0.489,0.291,1.052,0.561,1.688,0.803
		c0.636,0.24,1.385,0.361,2.25,0.361c1.168,0,2.078-0.259,2.727-0.771c0.646-0.512,0.973-1.332,0.973-2.449
		c0-0.649-0.18-1.175-0.535-1.582c-0.355-0.406-0.822-0.744-1.401-1.011c-0.58-0.268-1.235-0.504-1.976-0.705
		c-0.735-0.204-1.491-0.431-2.268-0.678c-0.775-0.249-1.531-0.557-2.27-0.917c-0.737-0.362-1.396-0.838-1.975-1.431
		c-0.57-0.593-1.04-1.333-1.396-2.215c-0.355-0.883-0.532-1.974-0.532-3.27c0-1.043,0.209-2.062,0.63-3.053
		c0.42-0.99,1.035-1.876,1.848-2.651c0.814-0.775,1.814-1.396,2.995-1.858c1.181-0.465,2.537-0.696,4.062-0.696
		c0.854,0,1.683,0.067,2.488,0.201c0.809,0.134,1.575,0.33,2.299,0.592c0.726,0.26,1.402,0.57,2.033,0.934
		c0.627,0.363,1.19,0.773,1.687,1.229L81.626,24.086z"/>
	<path fill="#FFFFFF" d="M92.805,17.678v16.003h0.875c0.368,0,0.647-0.057,0.838-0.163c0.19-0.106,0.382-0.289,0.571-0.543
		l3.74-5.568c0.229-0.317,0.488-0.557,0.781-0.715c0.292-0.159,0.666-0.239,1.124-0.239h5.417l-5.111,7.039
		c-0.483,0.635-1.057,1.156-1.717,1.563c0.293,0.217,0.561,0.468,0.803,0.753s0.469,0.606,0.686,0.964l5.568,9.454h-5.338
		c-0.447,0-0.828-0.071-1.146-0.219c-0.318-0.146-0.585-0.402-0.802-0.771l-3.738-6.995c-0.177-0.318-0.363-0.525-0.554-0.621
		c-0.188-0.095-0.476-0.144-0.856-0.144h-1.144v8.75h-5.914V17.677L92.805,17.678L92.805,17.678z"/>
	<path fill="#FFFFFF" d="M127.369,26.452l-10.566,24.906c-0.18,0.396-0.395,0.683-0.648,0.867s-0.66,0.275-1.219,0.275h-4.434
		l3.821-8.008l-7.903-18.041h5.229c0.458,0,0.81,0.102,1.061,0.305c0.249,0.204,0.43,0.446,0.544,0.726l3.246,8.524
		c0.308,0.775,0.553,1.571,0.744,2.384c0.143-0.406,0.28-0.813,0.42-1.222c0.139-0.406,0.285-0.81,0.438-1.202l2.938-8.485
		c0.112-0.292,0.317-0.537,0.61-0.735c0.291-0.197,0.607-0.294,0.951-0.294L127.369,26.452L127.369,26.452L127.369,26.452z"/>
	<path fill="#FFFFFF" d="M156.602,32.325c0,2.008-0.346,3.863-1.041,5.56c-0.688,1.697-1.668,3.164-2.926,4.404
		c-1.26,1.238-2.775,2.205-4.549,2.896c-1.775,0.694-3.742,1.041-5.904,1.041h-10.795V18.442h10.795c2.162,0,4.129,0.35,5.904,1.049
		c1.773,0.7,3.289,1.667,4.549,2.899c1.258,1.232,2.234,2.698,2.926,4.397C156.256,28.483,156.602,30.33,156.602,32.325z
		 M150.006,32.325c0-1.372-0.178-2.612-0.533-3.719c-0.359-1.106-0.871-2.044-1.539-2.814c-0.666-0.768-1.483-1.358-2.449-1.771
		c-0.967-0.413-2.065-0.62-3.299-0.62h-4.311v17.87h4.311c1.232,0,2.332-0.209,3.299-0.621c0.966-0.412,1.783-1.002,2.449-1.771
		c0.67-0.77,1.18-1.707,1.539-2.813C149.828,34.957,150.006,33.712,150.006,32.325z"/>
	<path fill="#FFFFFF" d="M183.531,46.227h-5.838c-1.082,0-1.855-0.405-2.324-1.223l-4.617-8.063
		c-0.217-0.342-0.457-0.594-0.727-0.752c-0.269-0.157-0.646-0.238-1.146-0.238h-1.642v10.275h-6.444V18.443h9.039
		c2.01,0,3.724,0.208,5.142,0.621c1.416,0.414,2.571,0.989,3.473,1.727c0.895,0.736,1.549,1.608,1.953,2.612
		c0.406,1.003,0.608,2.098,0.608,3.28c0,0.901-0.12,1.755-0.36,2.555c-0.24,0.8-0.601,1.542-1.066,2.221
		c-0.475,0.681-1.051,1.289-1.744,1.822c-0.695,0.534-1.492,0.973-2.396,1.314c0.418,0.216,0.814,0.486,1.185,0.812
		c0.369,0.324,0.697,0.709,0.992,1.153L183.531,46.227z M169.836,31.503c0.877,0,1.627-0.109,2.242-0.331
		c0.619-0.223,1.123-0.53,1.518-0.926c0.396-0.393,0.682-0.854,0.859-1.383c0.178-0.527,0.268-1.097,0.268-1.708
		c0-1.222-0.397-2.174-1.19-2.86c-0.796-0.688-2.027-1.029-3.691-1.029h-2.594v8.237H169.836L169.836,31.503z"/>
	<path fill="#FFFFFF" d="M217.498,18.44v27.784h-5.686V30.247c0-0.368,0.014-0.769,0.026-1.202c0.022-0.431,0.058-0.87,0.106-1.315
		l-7.383,14.286c-0.227,0.442-0.535,0.778-0.924,1.01c-0.389,0.229-0.828,0.344-1.328,0.344h-0.875
		c-0.496,0-0.938-0.115-1.326-0.344c-0.387-0.229-0.696-0.566-0.926-1.01l-7.381-14.324c0.039,0.458,0.07,0.907,0.096,1.346
		c0.023,0.438,0.037,0.842,0.037,1.21v15.979h-5.684V18.44h4.92c0.279,0,0.525,0.008,0.736,0.021
		c0.209,0.013,0.395,0.05,0.563,0.115c0.164,0.063,0.316,0.161,0.449,0.295c0.135,0.133,0.264,0.32,0.391,0.563l7.152,14.096
		c0.254,0.483,0.498,0.986,0.734,1.506c0.234,0.521,0.461,1.056,0.676,1.604c0.219-0.56,0.441-1.107,0.678-1.642
		s0.488-1.044,0.754-1.526l7.135-14.037c0.125-0.242,0.254-0.43,0.39-0.563c0.133-0.134,0.282-0.231,0.446-0.295
		c0.166-0.064,0.355-0.103,0.563-0.115c0.211-0.013,0.455-0.021,0.738-0.021H217.498L217.498,18.44z"/>
</g>
<g>
	<path fill="#FFFFFF" d="M50.553,36.422h-8.91c-0.655,0-1.183-0.529-1.183-1.184c0-0.653,0.527-1.184,1.183-1.184h8.771
		c0.864-0.22,6.055-1.74,5.941-6.54c-0.051-2.179-0.75-3.856-2.081-4.985c-2.843-2.416-7.647-1.775-7.696-1.769
		c-0.318,0.042-0.636-0.042-0.888-0.235c-0.252-0.194-0.415-0.482-0.453-0.799c-0.038-0.333-1.085-8.275-7.752-8.881
		c-6.575-0.592-8.271,6.884-8.338,7.202c-0.138,0.638-0.769,1.043-1.408,0.906c-0.638-0.138-1.044-0.768-0.905-1.406
		c0.736-3.406,3.95-9.685,10.866-9.058c6.195,0.564,8.92,6.162,9.699,9.835c1.893-0.073,5.707,0.106,8.407,2.401
		c1.866,1.585,2.847,3.851,2.911,6.733c0.133,5.667-5.117,8.322-7.913,8.935C50.723,36.414,50.637,36.422,50.553,36.422z"/>
</g>
<g>
	<path fill="#FFFFFF" d="M14.54,26.348H9.899c-0.654,0-1.186-0.53-1.186-1.184s0.531-1.183,1.186-1.183h4.641
		c0.654,0,1.184,0.529,1.184,1.183S15.194,26.348,14.54,26.348z"/>
</g>
<g>
	<path fill="#FFFFFF" d="M16.928,44.945h-4.642c-0.652,0-1.184-0.529-1.184-1.182c0-0.656,0.531-1.187,1.184-1.187h4.642
		c0.655,0,1.185,0.528,1.185,1.187C18.111,44.416,17.581,44.945,16.928,44.945z"/>
</g>
<g>
	<path fill="#FFFFFF" d="M47.243,44.945h-7.308c-0.653,0-1.183-0.529-1.183-1.182c0-0.656,0.529-1.187,1.183-1.187h7.308
		c0.652,0,1.182,0.528,1.182,1.187C48.427,44.416,47.897,44.945,47.243,44.945z"/>
</g>
<g>
	<path fill="#FFFFFF" d="M14.54,36.438H4.362c-0.652,0-1.183-0.529-1.183-1.184c0-0.652,0.53-1.183,1.183-1.183H14.54
		c0.654,0,1.184,0.528,1.184,1.183C15.724,35.909,15.194,36.438,14.54,36.438z"/>
</g>
<path fill="#FFFFFF" d="M28.26,20.474l-10.979,1.943v15.176c0,7.485,10.979,13.554,10.979,13.554s10.977-6.068,10.977-13.554V22.417
	L28.26,20.474z M33.673,30.5l-6.387,6.394c-0.166,0.167-0.39,0.261-0.623,0.261s-0.457-0.093-0.625-0.26l-3.195-3.2
	c-0.344-0.343-0.344-0.902,0-1.244c0.344-0.345,0.902-0.345,1.246,0l2.572,2.574l5.768-5.77c0.343-0.346,0.902-0.344,1.244-0.001
	C34.02,29.597,34.02,30.156,33.673,30.5z"/>
</svg>
