<svg width="24" height="24" viewBox="0 0 24 24" version="1.1" xmlns="http://www.w3.org/2000/svg" xmlns:xlink="http://www.w3.org/1999/xlink">
<title>Summary</title>
<desc>Created using Figma</desc>
<g id="Canvas" transform="translate(-12248 133)">
<g id="Summary">
<g id="Summary">
<use xlink:href="#path0_fill" transform="translate(12248 -133)"/>
</g>
</g>
</g>
<defs>
<path id="path0_fill" fill-rule="evenodd" d="M 22 2L 2 2L 2 9L 22 9L 22 2ZM 24 9L 24 11L 24 22C 24 23.1046 23.1045 24 22 24L 2 24C 0.895508 24 0 23.1046 0 22L 0 11L 0 9L 0 2C 0 0.895432 0.895508 0 2 0L 22 0C 23.1045 0 24 0.895432 24 2L 24 9ZM 2 11L 2 22L 22 22L 22 11L 2 11ZM 6.2793 5.42949L 7.60254 6.75998L 6.64844 7.71399L 4.3623 5.42949L 6.64844 3.14648L 7.60254 4.10349L 6.2793 5.42949ZM 19.6387 5.42949L 17.3525 7.71399L 16.3984 6.75998L 17.7217 5.42949L 16.3984 4.10349L 17.3525 3.14648L 19.6387 5.42949ZM 4.25586 18.1209L 10.415 18.1209L 10.415 11.9604L 4.25586 11.9604L 4.25586 18.1209ZM 5.61035 13.3134L 9.06348 13.3134L 9.06348 16.768L 5.61035 16.768L 5.61035 13.3134ZM 4.25586 19.2656L 10.415 19.2656L 10.415 20.6186L 4.25586 20.6186L 4.25586 19.2656ZM 13.5859 18.1209L 19.7451 18.1209L 19.7451 11.9604L 13.5859 11.9604L 13.5859 18.1209ZM 14.9385 13.3134L 18.3906 13.3134L 18.3906 16.768L 14.9385 16.768L 14.9385 13.3134ZM 13.5859 19.2656L 19.7451 19.2656L 19.7451 20.6186L 13.5859 20.6186L 13.5859 19.2656Z"/>
</defs>
</svg>
