<svg width="430" height="430" viewBox="0 0 430 430" version="1.1" xmlns="http://www.w3.org/2000/svg" xmlns:xlink="http://www.w3.org/1999/xlink" xmlns:figma="http://www.figma.com/figma/ns">
<title>teamwork img</title>
<desc>Created using Figma</desc>
<g id="Canvas" transform="translate(15370 -7357)" figma:type="canvas">
<g id="teamwork img" figma:type="frame">
<g id="Rectangle 36" figma:type="vector">
<use xlink:href="#path0_fill" transform="translate(-15353.4 7373.56)" fill="#FFFFFF" fill-opacity="0.2"/>
</g>
<g id="Rectangle 36" figma:type="vector">
<mask id="mask0_outline_ins">
<use xlink:href="#path1_fill" fill="white" transform="translate(-15369.2 7357.84)"/>
</mask>
<g mask="url(#mask0_outline_ins)">
<use xlink:href="#path2_stroke_2x" transform="translate(-15369.2 7357.84)" fill="#FFFFFF" fill-opacity="0.5"/>
</g>
</g>
<g id="Rectangle 36" figma:type="vector">
<use xlink:href="#path3_fill" transform="translate(-15318.2 7408.85)" fill="#FFFFFF" fill-opacity="0.8"/>
</g>
<g id="teamwork" figma:type="frame">
<g id="Rectangle 36" figma:type="vector">
<use xlink:href="#path4_fill" transform="translate(-15242 7485)" fill="#F2F3F5"/>
</g>
<g id="Group" figma:type="frame">
<g id="Vector" figma:type="vector">
<use xlink:href="#path5_fill" transform="translate(-15116.3 7569.88)" fill="#193651"/>
</g>
<g id="Vector" figma:type="vector">
<use xlink:href="#path6_fill" transform="translate(-15199.2 7569.88)" fill="#193651"/>
</g>
<g id="Vector" figma:type="vector">
<use xlink:href="#path7_fill" transform="translate(-15157.6 7611.1)" fill="#193651"/>
</g>
<g id="Vector" figma:type="vector">
<use xlink:href="#path8_fill" transform="translate(-15157.6 7528.67)" fill="#193651"/>
</g>
</g>
<g id="Vector" figma:type="vector">
<use xlink:href="#path9_fill" transform="translate(-15173.8 7553.71)" fill="#FFFFFF"/>
</g>
<g id="Vector" figma:type="vector">
<use xlink:href="#path10_fill" transform="translate(-15176.4 7551.12)" fill="#193651"/>
</g>
<g id="Vector" figma:type="vector">
<use xlink:href="#path11_fill" transform="translate(-15165.5 7491.63)" fill="#34994C"/>
</g>
<g id="Vector" figma:type="vector">
<use xlink:href="#path12_fill" transform="translate(-15168.1 7489.04)" fill="#FFFFFF"/>
</g>
<g id="Vector" figma:type="vector">
<use xlink:href="#path13_fill" transform="translate(-15165.5 7632.48)" fill="#70B55B"/>
</g>
<g id="Vector" figma:type="vector">
<use xlink:href="#path14_fill" transform="translate(-15168.1 7629.89)" fill="#FFFFFF"/>
</g>
<g id="Vector" figma:type="vector">
<use xlink:href="#path15_fill" transform="translate(-15094.8 7562.05)" fill="#246330"/>
</g>
<g id="Vector" figma:type="vector">
<use xlink:href="#path16_fill" transform="translate(-15097.4 7559.46)" fill="#FFFFFF"/>
</g>
<g id="Vector" figma:type="vector">
<use xlink:href="#path17_fill" transform="translate(-15236.1 7562.05)" fill="#D0F09B"/>
</g>
<g id="Vector" figma:type="vector">
<use xlink:href="#path18_fill" transform="translate(-15238.7 7559.46)" fill="#FFFFFF"/>
</g>
<g id="Vector" figma:type="vector">
<use xlink:href="#path19_fill" transform="translate(-15122.5 7492.42)" fill="#FCFCFD"/>
</g>
<g id="Vector" figma:type="vector">
<use xlink:href="#path20_fill" transform="translate(-15236.1 7491.66)" fill="#FCFCFD"/>
</g>
<g id="Vector" figma:type="vector">
<use xlink:href="#path21_fill" transform="translate(-15236.1 7605.89)" fill="#FCFCFD"/>
</g>
<g id="Vector" figma:type="vector">
<use xlink:href="#path22_fill" transform="translate(-15122.5 7605.89)" fill="#FCFCFD"/>
</g>
</g>
</g>
</g>
<defs>
<path id="path0_fill" d="M 71.1624 52.7208C 141.457 -17.5736 255.426 -17.5736 325.721 52.7208L 344.162 71.1624C 414.457 141.457 414.457 255.426 344.162 325.721L 325.721 344.162C 255.426 414.457 141.457 414.457 71.1624 344.162L 52.7208 325.721C -17.5736 255.426 -17.5736 141.457 52.7208 71.1624L 71.1624 52.7208Z"/>
<path id="path1_fill" d="M 72.7359 58.5786C 150.841 -19.5262 277.474 -19.5262 355.579 58.5786L 369.736 72.7359C 447.841 150.841 447.841 277.474 369.736 355.579L 355.579 369.736C 277.474 447.841 150.841 447.841 72.7359 369.736L 58.5786 355.579C -19.5262 277.474 -19.5262 150.841 58.5786 72.7359L 72.7359 58.5786Z"/>
<path id="path2_stroke_2x" d="M 355.579 58.5786L 354.872 59.2857L 355.579 58.5786ZM 369.736 72.7359L 370.443 72.0288L 369.736 72.7359ZM 72.7359 369.736L 72.0288 370.443L 72.7359 369.736ZM 58.5786 355.579L 59.2857 354.872L 58.5786 355.579ZM 73.4431 59.2857C 151.157 -18.4286 277.157 -18.4286 354.872 59.2857L 356.286 57.8715C 277.79 -20.6238 150.524 -20.6238 72.0288 57.8715L 73.4431 59.2857ZM 354.872 59.2857L 369.029 73.4431L 370.443 72.0288L 356.286 57.8715L 354.872 59.2857ZM 369.029 73.4431C 446.743 151.157 446.743 277.157 369.029 354.872L 370.443 356.286C 448.938 277.79 448.938 150.524 370.443 72.0288L 369.029 73.4431ZM 369.029 354.872L 354.872 369.029L 356.286 370.443L 370.443 356.286L 369.029 354.872ZM 354.872 369.029C 277.157 446.743 151.157 446.743 73.4431 369.029L 72.0288 370.443C 150.524 448.938 277.79 448.938 356.286 370.443L 354.872 369.029ZM 73.4431 369.029L 59.2857 354.872L 57.8715 356.286L 72.0288 370.443L 73.4431 369.029ZM 59.2857 354.872C -18.4286 277.157 -18.4286 151.157 59.2857 73.4431L 57.8715 72.0288C -20.6238 150.524 -20.6238 277.79 57.8715 356.286L 59.2857 354.872ZM 59.2857 73.4431L 73.4431 59.2857L 72.0288 57.8715L 57.8715 72.0288L 59.2857 73.4431Z"/>
<path id="path3_fill" d="M 71.2283 38.0761C 121.997 -12.692 204.308 -12.692 255.076 38.0761L 288.228 71.2283C 338.996 121.997 338.996 204.308 288.228 255.076L 255.076 288.228C 204.308 338.996 121.997 338.996 71.2283 288.228L 38.0761 255.076C -12.692 204.308 -12.692 121.997 38.0761 71.2283L 71.2283 38.0761Z"/>
<path id="path4_fill" d="M 37.9821 20.3039C 65.0539 -6.76796 108.946 -6.76796 136.018 20.3039L 153.696 37.9821C 180.768 65.0539 180.768 108.946 153.696 136.018L 136.018 153.696C 108.946 180.768 65.0539 180.768 37.9821 153.696L 20.3039 136.018C -6.76796 108.946 -6.76796 65.0539 20.3039 37.9821L 37.9821 20.3039Z"/>
<path id="path5_fill" d="M 5.22463 0L 0 0L 0 5.20946L 5.22463 5.20946L 5.22463 0Z"/>
<path id="path6_fill" d="M 5.22463 0L 0 0L 0 5.20946L 5.22463 5.20946L 5.22463 0Z"/>
<path id="path7_fill" d="M 5.22463 0L 0 0L 0 5.20945L 5.22463 5.20945L 5.22463 0Z"/>
<path id="path8_fill" d="M 5.22463 0L 0 0L 0 5.20946L 5.22463 5.20946L 5.22463 0Z"/>
<path id="path9_fill" d="M 18.8475 37.5856C 29.2567 37.5856 37.695 29.1717 37.695 18.7928C 37.695 8.41381 29.2567 -2.72971e-06 18.8475 -2.72971e-06C 8.43832 -2.72971e-06 2.37608e-06 8.41381 2.37608e-06 18.7928C 2.37608e-06 29.1717 8.43832 37.5856 18.8475 37.5856Z"/>
<path id="path10_fill" d="M 21.4465 42.7684C 9.68378 42.7684 3.09924e-06 33.1128 3.09924e-06 21.3842C 3.09924e-06 9.65566 9.68378 -2.00866e-06 21.4465 -2.00866e-06C 33.2092 -2.00866e-06 42.893 9.65566 42.893 21.3842C 42.893 33.1128 33.2092 42.7684 21.4465 42.7684ZM 21.4465 5.20946C 12.5561 5.20946 5.22505 12.5192 5.22505 21.3838C 5.22505 30.2484 12.5561 37.5581 21.4465 37.5581C 30.3369 37.5581 37.6679 30.2484 37.6679 21.3838C 37.6679 12.5192 30.3369 5.20946 21.4465 5.20946Z"/>
<path id="path11_fill" d="M 10.4772 20.8935C 16.2636 20.8935 20.9544 16.2164 20.9544 10.4468C 20.9544 4.67718 16.2636 0 10.4772 0C 4.6908 0 0 4.67718 0 10.4468C 0 16.2164 4.6908 20.8935 10.4772 20.8935Z"/>
<path id="path12_fill" d="M 13.0757 26.0756C 5.74468 26.0756 2.11781e-06 20.3476 2.11781e-06 13.0378C 2.11781e-06 5.728 5.74468 7.24275e-09 13.0757 7.24275e-09C 20.4068 7.24275e-09 26.1515 5.728 26.1515 13.0378C 26.1515 20.3476 20.1335 26.0756 13.0757 26.0756ZM 13.0757 5.20946C 8.61702 5.20946 5.22463 8.86456 5.22463 13.0378C 5.22463 17.4836 8.89038 20.8661 13.0757 20.8661C 17.5345 20.8661 20.9269 17.211 20.9269 13.0378C 20.9269 8.86456 17.2611 5.20946 13.0757 5.20946Z"/>
<path id="path13_fill" d="M 10.4772 20.8935C 16.2636 20.8935 20.9544 16.2163 20.9544 10.4468C 20.9544 4.67717 16.2636 0 10.4772 0C 4.6908 0 0 4.67717 0 10.4468C 0 16.2163 4.6908 20.8935 10.4772 20.8935Z"/>
<path id="path14_fill" d="M 13.0757 26.0755C 5.74468 26.0755 2.11781e-06 20.3476 2.11781e-06 13.0378C 2.11781e-06 5.72799 5.74468 -6.28349e-06 13.0757 -6.28349e-06C 20.4068 -6.28349e-06 26.1515 5.72799 26.1515 13.0378C 26.1515 20.3476 20.1335 26.0755 13.0757 26.0755ZM 13.0757 5.20946C 8.61702 5.20946 5.22463 8.86455 5.22463 13.0378C 5.22463 17.4836 8.89038 20.8661 13.0757 20.8661C 17.5345 20.8661 20.9269 17.211 20.9269 13.0378C 20.9269 8.59199 17.2611 5.20946 13.0757 5.20946Z"/>
<path id="path15_fill" d="M 10.4772 20.8935C 16.2636 20.8935 20.9544 16.2163 20.9544 10.4468C 20.9544 4.67717 16.2636 0 10.4772 0C 4.6908 0 0 4.67717 0 10.4468C 0 16.2163 4.6908 20.8935 10.4772 20.8935Z"/>
<path id="path16_fill" d="M 13.0758 26.0756C 5.74468 26.0756 5.26871e-06 20.3476 5.26871e-06 13.0378C 5.26871e-06 5.72799 5.74468 -2.98723e-06 13.0758 -2.98723e-06C 20.4068 -2.98723e-06 26.1515 5.72799 26.1515 13.0378C 26.1515 20.3476 20.1335 26.0756 13.0758 26.0756ZM 13.0758 5.20945C 8.61702 5.20945 5.22463 8.86456 5.22463 13.0378C 5.22463 17.211 8.89038 20.8661 13.0758 20.8661C 17.5345 20.8661 20.9269 17.211 20.9269 13.0378C 20.9269 8.59157 17.2611 5.20945 13.0758 5.20945Z"/>
<path id="path17_fill" d="M 10.4772 20.8935C 16.2636 20.8935 20.9544 16.2163 20.9544 10.4468C 20.9544 4.67717 16.2636 0 10.4772 0C 4.69079 0 0 4.67717 0 10.4468C 0 16.2163 4.69079 20.8935 10.4772 20.8935Z"/>
<path id="path18_fill" d="M 13.0757 26.0756C 5.74468 26.0756 0 20.3476 0 13.0378C 0 5.728 5.74468 0 13.0757 0C 20.4068 0 26.1515 5.728 26.1515 13.0378C 26.1515 20.3476 20.1335 26.0756 13.0757 26.0756ZM 13.0757 5.20946C 8.6441 5.20946 5.22463 8.86456 5.22463 13.0378C 5.22463 17.211 8.89037 20.8661 13.0757 20.8661C 17.5345 20.8661 20.9269 17.211 20.9269 13.0378C 20.9264 8.59158 17.2611 5.20946 13.0757 5.20946Z"/>
<path id="path19_fill" d="M 4.75217e-06 22.1749L 4.75217e-06 47.7323L 25.3581 47.7323L 19.8872 42.0043L 47.598 14.347L 33.4826 -1.80264e-07L 5.4984 27.9303L 4.75217e-06 22.1749Z"/>
<path id="path20_fill" d="M 22.2395 47.4594L 47.598 47.4594L 47.598 22.1479L 42.0996 27.6299L 14.115 4.5066e-08L -8.71661e-08 14.347L 27.7108 41.9773L 22.2395 47.4594Z"/>
<path id="path21_fill" d="M 47.598 25.3119L 47.598 3.39927e-06L 22.2395 3.39927e-06L 27.7108 5.48244L -8.71661e-08 33.1128L 14.115 47.4598L 42.0996 19.5569L 47.598 25.3119Z"/>
<path id="path22_fill" d="M 25.3581 3.39927e-06L 4.75217e-06 3.39927e-06L 4.75217e-06 25.3119L 5.4984 19.8294L 33.4826 47.4598L 47.598 33.1128L 19.8872 5.48244L 25.3581 3.39927e-06Z"/>
</defs>
</svg>
