<svg width="35" height="35" viewBox="0 0 35 35" version="1.1" xmlns="http://www.w3.org/2000/svg" xmlns:xlink="http://www.w3.org/1999/xlink" xmlns:figma="http://www.figma.com/figma/ns">
<title>Twitter</title>
<desc>Created using Figma</desc>
<g id="Canvas" transform="translate(14582 -2421)" figma:type="canvas">
<g id="Twitter" style="mix-blend-mode:normal;" figma:type="frame">
<g id="Shape" style="mix-blend-mode:normal;" figma:type="vector-operation">
<use xlink:href="#path0_fill" transform="translate(-14582 2421)" fill="#246330" style="mix-blend-mode:normal;"/>
</g>
</g>
</g>
<defs>
<path id="path0_fill" fill-rule="evenodd" d="M 0 17.5C 0 27.165 7.83594 35 17.5 35C 27.1641 35 35 27.165 35 17.5C 35 7.83502 27.1641 0 17.5 0C 7.83594 0 0 7.83502 0 17.5ZM 24.6895 11.277C 25.6719 11.095 26.5938 10.759 27.4277 10.297C 27.1055 11.239 26.4238 12.03 25.5332 12.531C 26.4043 12.433 27.2344 12.217 28.0078 11.895C 27.4297 12.705 26.6992 13.415 25.8574 13.985C 25.8652 14.159 25.8691 14.3329 25.8691 14.509C 25.8691 19.845 21.5352 26.001 13.6074 26.001C 11.1738 26.001 8.90625 25.332 7 24.187C 7.33789 24.224 7.67969 24.243 8.02734 24.243C 10.0488 24.243 11.9062 23.597 13.3809 22.514C 11.4941 22.481 9.90234 21.313 9.35547 19.71C 9.61719 19.756 9.88867 19.78 10.166 19.78C 10.5586 19.78 10.9395 19.732 11.3008 19.639C 9.32812 19.269 7.84375 17.636 7.84375 15.679L 7.84375 15.628C 8.42578 15.931 9.08984 16.112 9.79688 16.133C 8.64062 15.409 7.87891 14.172 7.87891 12.771C 7.87891 12.03 8.0918 11.337 8.46289 10.74C 10.5879 13.184 13.7637 14.792 17.3457 14.96C 17.2715 14.666 17.2344 14.357 17.2344 14.04C 17.2344 11.809 19.1641 10.001 21.5449 10.001C 22.7832 10.001 23.9043 10.491 24.6895 11.277Z"/>
</defs>
</svg>
