<svg width="84" height="62" viewBox="0 0 84 62" version="1.1" xmlns="http://www.w3.org/2000/svg" xmlns:xlink="http://www.w3.org/1999/xlink" xmlns:figma="http://www.figma.com/figma/ns">
<title>Upload-cloud</title>
<desc>Created using Figma</desc>
<g id="Canvas" transform="translate(1562 2153)" figma:type="canvas">
<g id="Upload-cloud" style="mix-blend-mode:normal;" figma:type="frame">
<g id="Shape" style="mix-blend-mode:normal;" figma:type="vector-operation">
<use xlink:href="#path0_fill" transform="translate(-1562 -2153)" fill="#D4D4DF" style="mix-blend-mode:normal;"/>
</g>
</g>
</g>
<defs>
<path id="path0_fill" fill-rule="evenodd" d="M 51.0059 47L 67.0107 47C 76.5371 47 84 39.7698 84 30.5386C 84 21.3552 76.3774 13.8833 67.0107 13.8833C 65.314 13.8833 63.7007 14.302 62.2349 14.7458C 62.0918 14.7852 61.9395 14.7922 61.812 14.7712C 61.501 14.708 61.1973 14.4663 61.105 14.2092C 58.0552 5.71021 49.9277 0 40.8784 0C 29.417 0 19.9868 8.99512 19.4116 20.4827C 19.4004 20.7397 19.27 20.9717 19.0459 21.1262C 18.8418 21.2695 18.5698 21.3032 18.3979 21.2527L 17.877 21.0518C 16.4473 20.6077 15.0752 20.3828 13.7969 20.3828C 6.05957 20.3828 0 26.2532 0 33.7476C 0 41.179 6.05957 47 13.7969 47L 26.6382 47C 27.415 47 28.0439 46.3691 28.0439 45.5894C 28.0439 44.8081 27.415 44.1772 26.6382 44.1772L 13.7969 44.1772C 7.53271 44.1772 2.81006 39.6938 2.81006 33.7476C 2.81006 27.8352 7.63623 23.2056 13.7969 23.2056C 14.7939 23.2056 15.8872 23.3882 16.9487 23.7129L 17.4497 23.9097C 18.5366 24.2651 19.731 24.0867 20.6421 23.4487C 21.5762 22.8081 22.1655 21.7485 22.2173 20.6189C 22.7188 10.6389 30.915 2.82275 40.8784 2.82275C 48.7461 2.82275 55.8125 7.78394 58.4629 15.1687C 58.8896 16.3547 59.9902 17.2849 61.2842 17.542C 61.8496 17.6487 62.4419 17.6191 63.0205 17.4548C 64.5059 17.0066 65.7534 16.7058 67.0107 16.7058C 74.8291 16.7058 81.1899 22.9106 81.1899 30.5386C 81.1899 38.314 75.0938 44.1772 67.0107 44.1772L 51.0059 44.1772C 50.23 44.1772 49.6001 44.8081 49.6001 45.5894C 49.6001 46.3691 50.23 47 51.0059 47ZM 39.9341 33.8542C 39.9321 33.8582 39.9302 33.8623 39.9268 33.8657L 34.1147 39.7051C 33.5659 40.2559 33.5659 41.1494 34.1147 41.7002C 34.3892 41.9756 34.749 42.1147 35.1074 42.1147C 35.4673 42.1147 35.8271 41.9756 36.1016 41.7002L 39.5391 38.2466L 39.5391 60.397C 39.5391 61.1782 40.1689 61.8091 40.9448 61.8091C 41.7202 61.8091 42.3491 61.1782 42.3491 60.397L 42.3491 38.2551L 45.7793 41.7002C 46.0537 41.9756 46.4121 42.1147 46.772 42.1147C 47.1318 42.1147 47.4902 41.9756 47.7646 41.7002C 48.3135 41.1494 48.3135 40.2559 47.7646 39.7051L 41.9473 33.8601C 41.9443 33.8572 41.9434 33.8538 41.9424 33.8503C 41.9409 33.8469 41.9399 33.8438 41.9375 33.8418C 41.6616 33.5649 41.3003 33.4272 40.9404 33.4287C 40.5791 33.4272 40.2178 33.5649 39.9424 33.8418C 39.9385 33.8455 39.9365 33.8499 39.9341 33.8542Z"/>
</defs>
</svg>
