<svg width="33" height="35" viewBox="0 0 33 35" fill="none" xmlns="http://www.w3.org/2000/svg">
<path d="M18.6263 0C14.2763 0 10.7383 3.525 10.7383 7.86C10.7383 12.195 14.2763 15.719 18.6263 15.719C22.9783 15.719 26.5193 12.193 26.5193 7.86C26.5183 3.525 22.9773 0 18.6263 0ZM18.6263 14.093C15.1773 14.093 12.3713 11.296 12.3713 7.86C12.3713 4.423 15.1773 1.627 18.6263 1.627C22.0773 1.627 24.8863 4.422 24.8863 7.86C24.8863 11.296 22.0773 14.093 18.6263 14.093Z" fill="#CACACA"/>
<path d="M18.685 25.34L10.13 16.797C9.827 16.495 9.42 16.237 8.909 16.026C8.398 15.815 7.931 15.708 7.509 15.708H2.531C2.117 15.708 1.75799 15.859 1.45499 16.165C1.15199 16.466 1 16.825 1 17.241V22.216C1 22.64 1.105 23.107 1.318 23.618C1.529 24.128 1.787 24.53 2.089 24.825L10.644 33.391C10.94 33.686 11.297 33.834 11.72 33.834C12.134 33.834 12.497 33.686 12.81 33.391L18.684 27.504C18.979 27.209 19.125 26.85 19.125 26.428C19.127 26.014 18.98 25.65 18.685 25.34Z" stroke="#CACACA" stroke-width="1.3" stroke-miterlimit="10"/>
<path d="M6.23047 19.4842C6.23047 20.2402 5.61347 20.8532 4.85547 20.8532C4.09547 20.8532 3.48047 20.2402 3.48047 19.4842C3.48047 18.7262 4.09547 18.1152 4.85547 18.1152C5.61347 18.1152 6.23047 18.7272 6.23047 19.4842Z" stroke="#CACACA" stroke-width="0.5"/>
<path fill-rule="evenodd" clip-rule="evenodd" d="M14.3257 16.1695C16.2247 17.6185 16.7637 17.6555 18.6547 17.6555C20.5437 17.6555 22.1017 17.0555 24.0337 15.5825C24.2837 15.3725 24.6787 15.1035 25.2507 15.1035C27.0087 15.1035 28.4967 15.8085 29.6747 17.1945C32.2387 20.2215 32.4167 25.5675 32.2297 26.6595C31.7507 29.4835 30.5677 30.7145 30.4347 30.8475L30.3427 30.9235C29.3777 31.6285 28.1197 31.9995 26.7077 31.9995H17.7237C17.2727 31.9995 16.9057 31.6345 16.9057 31.1855C16.9057 30.7365 17.2727 30.3725 17.7237 30.3725H26.7077C27.4327 30.3725 28.4637 30.2455 29.3167 29.6555C29.4827 29.4625 30.2697 28.4525 30.6217 26.3875C30.8057 25.3095 30.4787 20.6645 28.4267 18.2445C27.5657 17.2245 26.5267 16.7285 25.2547 16.7285C25.2317 16.7285 25.2017 16.7285 25.0597 16.8495C23.4657 18.0645 21.4877 19.2815 18.6557 19.2815C15.8217 19.2815 14.8647 18.6275 13.3047 17.4355L13.3053 17.4347C13.3033 17.4366 13.3022 17.4376 13.3022 17.4376L13.0838 17.4216L13.0839 17.4218C12.6359 17.4738 12.2049 17.1948 12.1509 16.7478C12.0949 16.3028 12.4169 15.8958 12.8629 15.8418L12.8636 15.8474C12.8772 15.8417 12.893 15.8402 12.9112 15.8436C12.9545 15.8515 13.0057 15.8606 13.0626 15.8707C13.4571 15.9409 14.1239 16.0596 14.3232 16.1706C14.3236 16.1708 14.324 16.171 14.3243 16.1712L14.3257 16.1695Z" fill="#CACACA"/>
</svg>
