<?xml version="1.0" encoding="utf-8"?>
<!-- Generator: Adobe Illustrator 15.1.0, SVG Export Plug-In . SVG Version: 6.00 Build 0)  -->
<!DOCTYPE svg PUBLIC "-//W3C//DTD SVG 1.1//EN" "http://www.w3.org/Graphics/SVG/1.1/DTD/svg11.dtd">
<svg version="1.1" id="Layer_1" xmlns="http://www.w3.org/2000/svg" xmlns:xlink="http://www.w3.org/1999/xlink" x="0px" y="0px"
	 width="24px" height="24px" viewBox="0 0 32 32" enable-background="new 0 0 32 32" xml:space="preserve">
<path d="M7.274,22.938v6.057H28.54V11.982h-6.913c-0.879,0-1.595-0.715-1.595-1.595V3.473H7.274v6.642l-2.13,0.038v-7.21
	c0-0.881,0.717-1.596,1.598-1.596h14.889c0.879,0,2.107,0.515,2.725,1.132l5.187,5.185c0.61,0.614,1.129,1.843,1.129,2.725v19.138
	c0,0.882-0.716,1.596-1.597,1.596H6.742c-0.881,0-1.597-0.714-1.597-1.596v-6.588L7.274,22.938z M19.786,14.675h5.389
	c0.3,0,0.53,0.233,0.53,0.532v1.063c0,0.298-0.23,0.533-0.53,0.533h-5.389c-0.3,0-0.531-0.234-0.531-0.533v-1.063
	C19.255,14.909,19.486,14.675,19.786,14.675z M25.703,19.457v1.066c0,0.3-0.23,0.531-0.532,0.531h-6.962
	c-0.301,0-0.532-0.231-0.532-0.531v-1.066c0-0.298,0.231-0.53,0.532-0.53h6.964C25.473,18.927,25.703,19.159,25.703,19.457z
	 M25.703,23.713v1.061c0,0.303-0.23,0.533-0.532,0.533h-9.168c-0.301,0-0.532-0.23-0.532-0.533v-1.061
	c0-0.301,0.231-0.531,0.532-0.531h9.168C25.473,23.18,25.703,23.414,25.703,23.713z M22.162,9.857h6.246
	c-0.1-0.283-0.25-0.565-0.365-0.682l-5.202-5.202c-0.114-0.116-0.397-0.266-0.679-0.365V9.857z"/>
<g>
	<path d="M16.475,17.273c-1.652,2.721-4.677,4.552-7.864,4.552s-6.212-1.841-7.865-4.552c-0.107-0.188-0.179-0.396-0.179-0.619
		c0-0.224,0.072-0.431,0.179-0.62c1.652-2.712,4.678-4.552,7.865-4.552s6.212,1.84,7.864,4.552c0.106,0.188,0.177,0.396,0.177,0.62
		C16.652,16.878,16.581,17.085,16.475,17.273z M12.085,13.485c0.359,0.61,0.547,1.31,0.547,2.02c0,2.218-1.804,4.022-4.021,4.022
		c-2.218,0-4.022-1.805-4.022-4.022c0-0.709,0.188-1.41,0.547-2.02c-1.4,0.717-2.567,1.849-3.42,3.169
		c1.535,2.369,4.013,4.021,6.895,4.021c2.882,0,5.359-1.651,6.895-4.021C14.653,15.334,13.486,14.203,12.085,13.485z M8.611,12.776
		c-1.5,0-2.729,1.229-2.729,2.729c0,0.233,0.197,0.431,0.431,0.431c0.233,0,0.431-0.198,0.431-0.431
		c0-1.023,0.844-1.868,1.868-1.868c0.233,0,0.43-0.198,0.43-0.431S8.845,12.776,8.611,12.776z"/>
</g>
</svg>
