<svg width="30" height="25" viewBox="0 0 43 36" version="1.1" xmlns="http://www.w3.org/2000/svg" xmlns:xlink="http://www.w3.org/1999/xlink">
<title>Group</title>
<desc>Created using Figma</desc>
<g id="Canvas" transform="translate(29932 -9144)">
<g id="Group">
<g id="Polygon">
<use xlink:href="#path0_fill" transform="translate(-29932 9144)" fill="#F2994A"/>
</g>
<g id="abc">
<use xlink:href="#path1_fill" transform="translate(-29912.3 9157.8)" fill="#FFFFFF"/>
</g>
</g>
</g>
<defs>
<path id="path0_fill" d="M 21.2176 0L 42.4352 35.25L 0 35.25L 21.2176 0Z"/>
<path id="path1_fill" d="M 2.556 0L 2.556 6.864C 2.556 7.224 2.548 7.576 2.532 7.92C 2.516 8.264 2.496 8.612 2.472 8.964C 2.448 9.308 2.416 9.664 2.376 10.032C 2.344 10.392 2.304 10.78 2.256 11.196L 0.816 11.196C 0.768 10.78 0.724 10.392 0.684 10.032C 0.652 9.664 0.624 9.308 0.6 8.964C 0.576 8.612 0.556 8.264 0.54 7.92C 0.524 7.576 0.516 7.224 0.516 6.864L 0.516 0L 2.556 0ZM 0 15.876C 0 15.668 0.036 15.472 0.108 15.288C 0.188 15.104 0.296 14.944 0.432 14.808C 0.568 14.672 0.724 14.564 0.9 14.484C 1.084 14.404 1.284 14.364 1.5 14.364C 1.708 14.364 1.9 14.404 2.076 14.484C 2.26 14.564 2.42 14.672 2.556 14.808C 2.692 14.944 2.8 15.104 2.88 15.288C 2.96 15.472 3 15.668 3 15.876C 3 16.092 2.96 16.292 2.88 16.476C 2.8 16.652 2.692 16.808 2.556 16.944C 2.42 17.08 2.26 17.184 2.076 17.256C 1.9 17.336 1.708 17.376 1.5 17.376C 1.284 17.376 1.084 17.336 0.9 17.256C 0.724 17.184 0.568 17.08 0.432 16.944C 0.296 16.808 0.188 16.652 0.108 16.476C 0.036 16.292 0 16.092 0 15.876Z"/>
</defs>
</svg>
