<svg width="71" height="47" viewBox="0 0 71 47" fill="none" xmlns="http://www.w3.org/2000/svg">
<path d="M35.3154 46.7142C20.6455 46.7142 2.99741 42.6455 0.419162 36.6644C-0.537406 34.4438 0.49763 32.1147 3.49811 29.7423C4.12213 29.2435 5.08617 29.2912 5.64666 29.8507C6.20715 30.4102 6.1511 31.2646 5.51961 31.7634C3.56911 33.3118 2.80685 34.626 3.26271 35.6842C4.87318 39.4012 19.061 42.1293 36.1746 42.0296C52.2719 41.9298 65.4807 39.2581 66.9044 35.81C67.42 34.5739 65.9553 33.1079 64.6437 32.1017C64.0085 31.6116 63.9413 30.7528 64.4868 30.189C65.0361 29.6208 65.9964 29.5601 66.6353 30.0459C69.6059 32.3316 70.6597 34.5956 69.7666 36.7555C66.6951 44.1852 41.4021 46.7208 36.3353 46.7468C36.0214 46.7598 35.3154 46.7142 35.3154 46.7142Z" fill="#333333" fill-opacity="0.74"/>
<path d="M35.3595 43.1025C21.7752 43.1025 5.37094 40.6239 2.98348 35.2412C2.0977 33.2427 3.05614 31.1466 5.83459 29.0115C6.41242 28.5626 7.30513 28.6055 7.82414 29.1091C8.34315 29.6126 8.29125 30.3815 7.7065 30.8304C5.90033 32.2239 5.19447 33.4066 5.61661 34.359C7.1079 37.7042 20.2458 40.1594 36.093 40.0696C50.9991 39.9798 63.2305 37.5754 64.5488 34.4722C65.0263 33.3598 63.6699 32.0405 62.4554 31.1349C61.8672 30.6938 61.8049 29.921 62.3101 29.4135C62.8187 28.9022 63.708 28.8475 64.2997 29.2847C67.0504 31.3418 68.0262 33.3793 67.1992 35.3232C64.355 42.0096 40.9337 43.0674 36.2418 43.0908C35.9512 43.1025 35.6571 43.1025 35.3595 43.1025Z" fill="url(#paint0_linear)"/>
<path d="M16.8901 29.549C19.2287 26.7428 22.2688 25.1058 24.6073 24.1704C22.7365 21.598 19.6964 20.4287 18.5271 20.1948C17.8255 20.1948 17.5917 19.7271 17.5917 19.0256V18.7917C17.5917 18.5578 17.5917 18.324 17.5917 18.0901C17.5917 17.8563 17.8255 17.6224 17.8255 17.6224L18.0594 17.3886L18.2932 17.1547C20.1641 15.9854 20.8656 13.6469 21.0995 11.7761C21.3334 10.3729 21.0995 8.73596 20.3979 7.09898C19.6964 5.69585 18.2932 4.52658 15.9547 4.29272C13.3823 4.52658 12.213 5.69585 11.5115 7.09898C11.5115 7.09898 11.5115 7.09898 11.5115 7.33283C10.8099 8.73596 10.576 10.6068 10.8099 11.7761C11.0438 13.6469 11.7453 15.9854 13.6162 17.1547C13.6162 17.1547 13.85 17.1547 13.85 17.3886L14.0839 17.6224C14.0839 17.8563 14.3177 18.0901 14.3177 18.5578C14.3177 18.7917 14.3177 19.0256 14.3177 19.2594C14.0839 19.7271 13.85 19.961 13.3823 19.961C12.213 19.961 9.64063 21.1302 7.76979 23.2349C7.76979 23.2349 7.76979 23.4688 7.53594 23.4688C6.83438 24.1704 6.36667 25.1058 6.13281 26.275C6.60052 27.912 10.8099 29.3152 15.9547 29.3152C16.4224 29.549 16.6563 29.549 16.8901 29.549Z" fill="#4F4F4F" fill-opacity="0.95"/>
<path d="M51.9009 29.549C49.5624 26.7428 46.5222 25.1058 44.1837 24.1704C46.0545 21.598 49.0946 20.4287 50.2639 20.1948C50.9655 20.1948 51.1993 19.7271 51.1993 19.0256V18.7917C51.1993 18.5578 51.1993 18.324 51.1993 18.0901C51.1993 17.8563 50.9655 17.6224 50.9655 17.6224L50.7316 17.3886L50.4978 17.1547C48.6269 15.9854 47.9254 13.6469 47.6915 11.7761C47.4577 10.3729 47.6915 8.73596 48.3931 7.09898C49.0946 5.69585 50.4978 4.52658 52.8363 4.29272C55.4087 4.52658 56.578 5.69585 57.2796 7.09898C57.2796 7.09898 57.2796 7.09898 57.2796 7.33283C57.9811 8.73596 58.215 10.6068 57.9811 11.7761C57.7473 13.6469 57.0457 15.9854 55.1749 17.1547C55.1749 17.1547 54.941 17.1547 54.941 17.3886L54.7072 17.6224C54.7072 17.8563 54.4733 18.0901 54.4733 18.5578C54.4733 18.7917 54.4733 19.0256 54.4733 19.2594C54.7072 19.7271 54.941 19.961 55.4087 19.961C56.578 19.961 59.1504 21.1302 61.0212 23.2349C61.0212 23.2349 61.0212 23.4688 61.2551 23.4688C61.9566 24.1704 62.4243 25.1058 62.6582 26.275C62.1905 27.912 57.9811 29.3152 52.8363 29.3152C52.3686 29.549 52.1348 29.549 51.9009 29.549Z" fill="#4F4F4F" fill-opacity="0.95"/>
<path d="M39.1435 24.7417C38.2562 24.7417 37.5907 23.8544 37.5907 22.9671V22.7452C37.5907 22.5234 37.5907 22.0797 37.8125 21.8579C38.0344 21.4142 38.0344 21.1924 38.2562 20.9706C38.478 20.7487 38.478 20.7487 38.478 20.7487L38.6999 20.5269C41.5837 18.7522 42.9147 14.9811 43.1365 12.0972C43.3584 9.87892 43.3584 7.21692 42.0274 4.77675C40.9182 2.55842 38.6999 0.561921 35.1506 0.340088C31.1576 0.561921 29.1611 2.55842 28.2737 4.55492C28.2737 4.55492 28.2737 4.77675 28.0519 4.77675C26.9427 6.77325 26.7209 9.65708 26.9427 11.4317C27.1646 14.0937 28.4956 17.8649 31.3794 19.8614C31.6012 19.8614 31.6012 20.0832 31.6012 20.0832C31.6012 20.0832 31.823 20.3051 32.0449 20.5269C32.2667 20.7487 32.4886 21.1924 32.4886 22.0797C32.4886 22.3016 32.4885 22.7452 32.2667 22.9671C32.0449 23.6326 31.6012 24.0762 30.7139 24.0762C28.9392 24.2981 24.9462 25.8509 22.0624 29.1784L21.8406 29.4002C21.8406 29.4002 21.8406 29.4002 21.6187 29.6221C20.7314 30.9531 19.8441 32.2841 19.4004 34.0587C20.2877 36.7207 26.7209 38.7172 34.7069 38.7172C42.6929 38.7172 49.126 36.7207 50.0134 34.0587C48.4605 27.6256 41.5837 24.9636 39.1435 24.7417Z" fill="#333333"/>
<defs>
<linearGradient id="paint0_linear" x1="35.0741" y1="28.7012" x2="45.0314" y2="71.249" gradientUnits="userSpaceOnUse">
<stop stop-color="white"/>
<stop offset="1" stop-color="#ECECF1"/>
</linearGradient>
</defs>
</svg>
