<svg width="30" height="20" viewBox="0 0 53 32" fill="none" xmlns="http://www.w3.org/2000/svg">
<path d="M0.43671 25.9756L0.436719 25.9757C0.929612 27.008 2.13818 27.8892 3.8244 28.6322C5.51384 29.3766 7.6968 29.9882 10.1591 30.4731C15.084 31.4429 21.1373 31.9076 26.6204 31.9076H26.6211C26.8603 31.9076 27.0983 31.9076 27.3337 31.8988C29.2297 31.89 34.9024 31.6872 40.3896 30.8598C43.1335 30.4461 45.8341 29.8758 47.9937 29.0942C49.0736 28.7034 50.0205 28.2589 50.7705 27.7533C51.5202 27.2479 52.0777 26.6785 52.3718 26.0361C52.715 25.2866 52.683 24.518 52.2831 23.7437C51.8849 22.9727 51.1229 22.1976 50.0088 21.4236L50.0085 21.4234C49.5056 21.0782 48.7516 21.1195 48.3159 21.5265C48.0976 21.7302 47.9988 21.9909 48.0218 22.2476C48.0448 22.5041 48.1885 22.7494 48.4409 22.9252L48.4411 22.9253C48.9292 23.2634 49.441 23.6757 49.7826 24.104C50.1263 24.5351 50.2814 24.9608 50.1063 25.3398L50.1062 25.34C49.9806 25.6145 49.7216 25.8883 49.3316 26.1568C48.9423 26.4247 48.4279 26.6839 47.7995 26.9313C46.5428 27.426 44.8387 27.8705 42.7893 28.2449C38.6911 28.9936 33.2219 29.4608 27.2118 29.4944C20.8222 29.5281 14.9803 29.085 10.5869 28.3208C8.38997 27.9387 6.55763 27.4767 5.20089 26.9549C4.5225 26.6941 3.96505 26.419 3.54096 26.1328C3.11616 25.8461 2.83024 25.5517 2.68739 25.2541C2.53093 24.9261 2.57837 24.5522 2.85213 24.1236C3.12703 23.6933 3.62531 23.2167 4.35106 22.6965C4.60179 22.5177 4.74276 22.2714 4.76155 22.015C4.78037 21.7582 4.67609 21.4993 4.45212 21.2974C4.00815 20.8973 3.25137 20.8644 2.75931 21.2194C1.63407 22.0227 0.870023 22.8237 0.478616 23.6184C0.0855218 24.4165 0.0696315 25.2062 0.43671 25.9756Z" fill="#010101" stroke="black" stroke-width="0.14"/>
<path d="M17.7858 11.5449C17.9481 10.4545 17.8697 8.97181 17.1094 7.65147C16.433 6.42312 15.2263 5.29487 13.235 5.20288C13.2133 5.20288 13.1971 5.20288 13.1754 5.20288C11.1462 5.29487 9.92057 6.39606 9.29828 7.65958C8.55694 8.87711 8.39189 10.422 8.55964 11.4664C8.69763 12.5838 9.17111 14.1152 10.2561 15.2434C10.2642 15.2515 10.2642 15.2651 10.2669 15.2759C8.7301 15.8495 6.65489 17.2591 5.9866 19.8105C5.89461 20.1541 6.10294 20.5086 6.44926 20.6033C6.50608 20.6141 6.55748 20.6249 6.6143 20.6249C6.9011 20.6249 7.16625 20.4301 7.24201 20.1379C7.41787 19.4723 7.71549 18.9014 8.07534 18.4252C8.09157 18.4036 8.1078 18.3874 8.12404 18.3711C8.15651 18.3332 8.18897 18.2927 8.22144 18.2548C9.32533 16.9182 10.9135 16.3284 11.5656 16.2689C11.8416 16.2418 12.0553 16.047 12.1256 15.7981C12.1311 15.7927 12.1392 15.7873 12.1446 15.7818C12.1879 15.6439 12.2014 15.514 12.2014 15.4112C12.2014 15.1082 12.0715 14.8971 12.0147 14.8105C11.9552 14.724 11.8848 14.6455 11.8551 14.613C11.8524 14.613 11.8497 14.6103 11.8497 14.6076C11.8118 14.5643 11.7712 14.5291 11.7279 14.4967C10.6078 13.7093 10.1046 12.297 9.97739 11.2337C9.97739 11.2229 9.97468 11.2094 9.97197 11.1958C9.86104 10.5032 9.98009 9.36683 10.5023 8.52808C10.5158 8.50373 10.532 8.47668 10.5429 8.45233C10.9244 7.66229 11.6982 6.87495 13.2079 6.79919C14.6338 6.87495 15.4265 7.64876 15.8946 8.49021L15.9027 8.50373C16.4249 9.41012 16.4925 10.4734 16.3708 11.2932C16.3681 11.3013 16.3654 11.3095 16.3654 11.3203C16.2382 12.4052 15.7268 13.8663 14.6419 14.5643C14.5959 14.5941 14.5553 14.6266 14.5174 14.6644C14.5012 14.678 14.4471 14.7212 14.3957 14.7808C14.3199 14.8646 14.2469 14.9783 14.1982 15.1244C14.1549 15.2624 14.1386 15.3895 14.1386 15.4951C14.1386 15.4951 14.1386 15.4951 14.1386 15.5005C14.1386 15.5113 14.1386 15.5438 14.1413 15.5843C14.1386 15.5952 14.1332 15.606 14.1305 15.6222C14.098 15.9794 14.3578 16.2932 14.7176 16.3284C15.0207 16.3581 15.5293 16.5097 16.0921 16.7802C16.3681 16.4204 16.6603 16.0876 16.966 15.7764C16.6738 15.6168 16.3816 15.4761 16.1083 15.3679C16.1164 15.3462 16.1273 15.3327 16.1327 15.3111C17.2014 14.1991 17.6559 12.6244 17.7858 11.5449Z" fill="#010101" stroke="#010101" stroke-width="0.25" stroke-miterlimit="10"/>
<path d="M36.7529 16.78C36.4769 16.4201 36.1847 16.0873 35.879 15.7762C36.1712 15.6165 36.4634 15.4758 36.7367 15.3676C36.7258 15.346 36.7177 15.3325 36.7123 15.3108C35.6409 14.1988 35.1891 12.6241 35.0565 11.5473C34.8941 10.4569 34.9726 8.97425 35.7329 7.65391C36.4093 6.42556 37.616 5.29731 39.6073 5.20532C39.629 5.20532 39.6452 5.20532 39.6641 5.20532C41.6961 5.29731 42.919 6.3985 43.5413 7.66202C44.2853 8.88226 44.4504 10.4272 44.2826 11.4742C44.1447 12.5917 43.6712 14.123 42.5862 15.2513C42.5781 15.2594 42.5781 15.2729 42.5754 15.2838C44.1122 15.8573 46.1874 17.267 46.853 19.8184C46.945 20.162 46.7366 20.5164 46.3903 20.6111C46.3335 20.6219 46.2821 20.6328 46.2226 20.6328C45.9385 20.6328 45.6733 20.438 45.5976 20.1457C45.4217 19.4802 45.1241 18.9093 44.7615 18.4331C44.7453 18.4114 44.7291 18.3952 44.7101 18.379C44.6777 18.3411 44.6479 18.3005 44.6154 18.2626C43.5115 16.9261 41.9233 16.3362 41.2713 16.2767C40.9926 16.2497 40.7789 16.0549 40.7085 15.8059C40.7031 15.8005 40.695 15.7951 40.6923 15.7897C40.6463 15.6517 40.6355 15.5218 40.6355 15.419C40.6355 15.116 40.7653 14.905 40.8222 14.8184C40.879 14.7318 40.952 14.6533 40.9818 14.6209C40.9845 14.6209 40.9872 14.6182 40.9872 14.6155C41.0251 14.5722 41.0657 14.537 41.1117 14.5045C42.2318 13.7172 42.735 12.3049 42.8622 11.2416C42.8622 11.2307 42.8649 11.2172 42.8676 11.2037C42.9785 10.5056 42.8595 9.36927 42.3373 8.53053C42.3211 8.50618 42.3075 8.47912 42.294 8.45477C41.9125 7.66473 41.1414 6.8774 39.6317 6.80164C38.2058 6.8774 37.4131 7.6512 36.9477 8.49265L36.9369 8.50618C36.4174 9.41256 36.3471 10.4759 36.4688 11.2957C36.4715 11.3038 36.4742 11.3119 36.4742 11.3227C36.6041 12.4077 37.1127 13.8687 38.2004 14.5668C38.2464 14.5965 38.2843 14.629 38.3222 14.6669C38.3411 14.6804 38.3925 14.7237 38.4466 14.7832C38.5224 14.8671 38.5981 14.9807 38.6441 15.1268C38.6874 15.2648 38.7009 15.392 38.7009 15.4975C38.7009 15.4975 38.7009 15.4975 38.7009 15.5029C38.7009 15.5137 38.7009 15.5462 38.6982 15.5868C38.7009 15.5976 38.7064 15.6084 38.7091 15.6247C38.7415 15.9818 38.4791 16.2957 38.1219 16.3308C37.827 16.3552 37.3157 16.5094 36.7529 16.78Z" fill="#010101" stroke="#010101" stroke-width="0.25" stroke-miterlimit="10"/>
<path d="M38.0069 24.8147C38.0042 24.7822 38.0096 24.7579 38.0042 24.7308C36.9436 20.6832 33.6887 18.4051 31.2185 17.4446C31.2293 17.4094 31.2456 17.3905 31.2564 17.3499C32.988 15.5507 33.7212 13.0047 33.9323 11.2595C34.1947 9.49548 34.0702 7.09289 32.8419 4.95545C31.7461 2.96953 29.7927 1.13782 26.573 0.99172C26.5405 0.989015 26.5107 0.989014 26.4756 0.989014C23.1909 1.13512 21.2131 2.91812 20.1985 4.96086C18.9972 6.93867 18.7321 9.44137 19.0027 11.1324C19.2245 12.9397 19.9902 15.4181 21.7516 17.2444C21.7624 17.2606 21.7624 17.2795 21.7651 17.2985C19.2786 18.2265 15.9182 20.51 14.8387 24.6361C14.6926 25.2016 15.0308 25.7725 15.5909 25.9213C15.6802 25.9483 15.7694 25.9538 15.8587 25.9538C16.3241 25.9538 16.7516 25.6426 16.876 25.1718C17.1574 24.0896 17.639 23.1751 18.2234 22.3986C18.2505 22.3661 18.2775 22.3445 18.3019 22.3147C18.3533 22.2579 18.4074 22.1875 18.4588 22.1253C20.2445 19.9635 22.8149 19.0138 23.8755 18.911C24.3192 18.8704 24.6655 18.5539 24.7819 18.1535C24.7873 18.1426 24.8062 18.1372 24.8089 18.1264C24.882 17.9045 24.9009 17.6962 24.9009 17.5258C24.9009 17.0387 24.6926 16.6978 24.5952 16.5571C24.5005 16.411 24.3895 16.2866 24.3408 16.2325C24.3381 16.2298 24.3327 16.2244 24.33 16.2216C24.2678 16.154 24.2056 16.0945 24.1298 16.0431C22.3197 14.7687 21.5026 12.4798 21.297 10.7644C21.2943 10.7428 21.2916 10.7238 21.2889 10.7022C21.1049 9.57124 21.2997 7.73142 22.1439 6.37319C22.1682 6.33532 22.1926 6.29473 22.2142 6.24874C22.8338 4.96898 24.0757 3.69734 26.5243 3.57288C28.8349 3.69463 30.1173 4.95275 30.8722 6.31367L30.883 6.33532C31.7299 7.80176 31.8408 9.52253 31.6433 10.8483C31.6406 10.8618 31.6379 10.8753 31.6379 10.8889C31.4269 12.6475 30.5989 15.0095 28.843 16.1432C28.7726 16.1892 28.7023 16.2433 28.6455 16.3055C28.6157 16.3272 28.5264 16.4002 28.4453 16.4922C28.3235 16.6275 28.2018 16.8115 28.126 17.0496C28.0529 17.2714 28.034 17.4798 28.034 17.6475C28.034 17.6475 28.034 17.6529 28.034 17.6556C28.034 17.6746 28.034 17.726 28.0367 17.7909C28.034 17.8125 28.0205 17.8288 28.0178 17.8477C27.9637 18.4267 28.3884 18.9381 28.9674 18.9922C30.4366 19.1356 34.8251 20.878 35.9696 25.253C36.094 25.7292 36.5188 26.0403 36.9869 26.0403C37.0735 26.0403 37.1628 26.0295 37.252 26.0079C37.7553 25.8753 38.0583 25.4045 38.015 24.904C38.0286 24.904 38.034 24.904 38.0448 24.904C38.034 24.8796 38.015 24.8472 38.0069 24.8147Z" fill="#010101"/>
</svg>
